G75*
G70*
%OFA0B0*%
%FSLAX24Y24*%
%IPPOS*%
%LPD*%
%AMOC8*
5,1,8,0,0,1.08239X$1,22.5*
%
%ADD10C,0.0640*%
%ADD11R,0.0640X0.0640*%
%ADD12C,0.1080*%
%ADD13C,0.0780*%
%ADD14C,0.0780*%
%ADD15C,0.0660*%
%ADD16OC8,0.0600*%
%ADD17C,0.0740*%
%ADD18C,0.1104*%
%ADD19R,0.0297X0.0552*%
%ADD20OC8,0.0710*%
%ADD21C,0.0710*%
%ADD22C,0.0785*%
%ADD23C,0.0790*%
%ADD24C,0.1340*%
%ADD25OC8,0.0680*%
%ADD26C,0.0476*%
D10*
X018593Y002885D03*
X019380Y002885D03*
X020168Y002885D03*
X021742Y002885D03*
X012498Y047213D03*
X012498Y048001D03*
X012498Y048788D03*
X012498Y049576D03*
X012498Y050363D03*
X012498Y051150D03*
X012498Y051938D03*
X012498Y052725D03*
X012498Y053513D03*
X012498Y054300D03*
X019420Y056635D03*
X020168Y056635D03*
X020955Y056635D03*
X036774Y052635D03*
X037561Y052635D03*
X003837Y052725D03*
X003837Y051938D03*
X003837Y051150D03*
X003837Y050363D03*
X003837Y049576D03*
X003837Y048788D03*
X003837Y048001D03*
X003837Y047213D03*
X003837Y053513D03*
D11*
X003837Y054300D03*
D12*
X018278Y056635D03*
X022057Y056635D03*
X022793Y023385D03*
X022793Y017385D03*
X017543Y017385D03*
X017543Y023385D03*
X017077Y002885D03*
X023258Y002885D03*
D13*
X016168Y019385D03*
X016168Y020385D03*
X016168Y021385D03*
X019168Y024385D03*
X020168Y024385D03*
X021168Y024385D03*
D14*
X023168Y021985D02*
X023168Y021285D01*
X023168Y019485D02*
X023168Y018785D01*
X024939Y018785D02*
X024939Y019485D01*
X024939Y021285D02*
X024939Y021985D01*
D15*
X028168Y043885D03*
X028168Y044885D03*
X028168Y045885D03*
X028168Y046885D03*
X028168Y047885D03*
X028168Y048885D03*
X028168Y049885D03*
X028168Y050885D03*
X028168Y051885D03*
X028168Y052885D03*
X028168Y053885D03*
X028168Y054885D03*
X028168Y055885D03*
X028168Y056885D03*
X033168Y055885D03*
X034168Y055885D03*
X034168Y054885D03*
X034168Y053885D03*
X034168Y052885D03*
X034168Y051885D03*
X034168Y050885D03*
X034168Y049885D03*
X034168Y048885D03*
X034168Y047885D03*
X034168Y046885D03*
X034168Y045885D03*
X034168Y044885D03*
X034168Y043885D03*
X033168Y043885D03*
X032168Y043885D03*
X031168Y043885D03*
X030168Y043885D03*
X029168Y043885D03*
X033168Y051885D03*
X033168Y052885D03*
X033168Y053885D03*
X034168Y056885D03*
D16*
X035418Y052635D03*
X035418Y048635D03*
X035418Y047635D03*
X036418Y047635D03*
X036418Y043635D03*
X035418Y043635D03*
X035168Y041635D03*
X034168Y041635D03*
X030168Y041635D03*
X029168Y041635D03*
X027168Y034885D03*
X026168Y034885D03*
X020668Y034885D03*
X019668Y034885D03*
X014168Y034885D03*
X013168Y034885D03*
X011168Y041635D03*
X010168Y041635D03*
X008668Y045635D03*
X007668Y045635D03*
X006168Y041635D03*
X005168Y041635D03*
X003668Y045635D03*
X012668Y045635D03*
X012668Y022385D03*
X013668Y022385D03*
X011668Y022385D03*
X011668Y018385D03*
X012668Y018385D03*
X013668Y018385D03*
X014168Y012385D03*
X013168Y012385D03*
X014668Y004385D03*
X018668Y004385D03*
X021168Y004385D03*
X025168Y004385D03*
X026168Y012385D03*
X027168Y012385D03*
X027668Y018385D03*
X026668Y018385D03*
X028668Y018385D03*
X028668Y022385D03*
X027668Y022385D03*
X026668Y022385D03*
X020668Y012385D03*
X019668Y012385D03*
D17*
X019668Y054135D03*
X018668Y054135D03*
X017668Y054135D03*
X016668Y054135D03*
X020668Y054135D03*
X021668Y054135D03*
X022668Y054135D03*
X023668Y054135D03*
D18*
X025876Y054135D03*
X025876Y042521D03*
X014459Y042521D03*
X014459Y054135D03*
D19*
X037294Y048147D03*
X037668Y048147D03*
X038042Y048147D03*
X038042Y047123D03*
X037294Y047123D03*
D20*
X037668Y045135D03*
X036668Y050135D03*
D21*
X037668Y050135D03*
X038668Y045135D03*
D22*
X010986Y009180D02*
X011484Y008682D01*
X012870Y010068D02*
X012372Y010566D01*
X014465Y005701D02*
X014963Y005203D01*
X016349Y006589D02*
X015851Y007087D01*
X017486Y006589D02*
X017984Y007087D01*
X019370Y005701D02*
X018872Y005203D01*
X020965Y010068D02*
X021463Y010566D01*
X022849Y009180D02*
X022351Y008682D01*
X023986Y006589D02*
X024484Y007087D01*
X025870Y005701D02*
X025372Y005203D01*
X027465Y010068D02*
X027963Y010566D01*
X029349Y009180D02*
X028851Y008682D01*
X025372Y027703D02*
X025870Y028201D01*
X024484Y029587D02*
X023986Y029089D01*
X022351Y031182D02*
X022849Y031680D01*
X021463Y033066D02*
X020965Y032568D01*
X017984Y029587D02*
X017486Y029089D01*
X018872Y027703D02*
X019370Y028201D01*
X016349Y031680D02*
X015851Y031182D01*
X014465Y032568D02*
X014963Y033066D01*
X012870Y028201D02*
X012372Y027703D01*
X010986Y029089D02*
X011484Y029587D01*
X027465Y032568D02*
X027963Y033066D01*
X029349Y031680D02*
X028851Y031182D01*
D23*
X027919Y029133D03*
X025416Y031636D03*
X021419Y029133D03*
X018916Y031636D03*
X014919Y029133D03*
X012416Y031636D03*
X014919Y009136D03*
X012416Y006633D03*
X018916Y009136D03*
X021419Y006633D03*
X025416Y009136D03*
X027919Y006633D03*
D24*
X028168Y003635D03*
X012168Y003635D03*
X012168Y037885D03*
X002418Y041885D03*
X002418Y055885D03*
X028168Y037885D03*
X037918Y041885D03*
X037918Y055885D03*
D25*
X024168Y044635D03*
X024168Y043635D03*
X023168Y043635D03*
X023168Y044635D03*
X022168Y044635D03*
X022168Y043635D03*
X021168Y043635D03*
X021168Y044635D03*
X020168Y044635D03*
X020168Y043635D03*
X019168Y043635D03*
X019168Y044635D03*
X018168Y044635D03*
X018168Y043635D03*
X017168Y043635D03*
X017168Y044635D03*
X016168Y044635D03*
X016168Y043635D03*
X016168Y037885D03*
X017168Y037885D03*
X017168Y036885D03*
X016168Y036885D03*
X018168Y036885D03*
X019168Y036885D03*
X019168Y037885D03*
X018168Y037885D03*
X020168Y037885D03*
X021168Y037885D03*
X022168Y037885D03*
X022168Y036885D03*
X021168Y036885D03*
X020168Y036885D03*
X023168Y036885D03*
X024168Y036885D03*
X024168Y037885D03*
X023168Y037885D03*
D26*
X022168Y045385D03*
X020168Y047885D03*
X020668Y049885D03*
X018668Y050885D03*
X017668Y050385D03*
X018168Y048885D03*
X017668Y048385D03*
X016668Y047385D03*
X016168Y046385D03*
X017168Y052385D03*
X019168Y052885D03*
X022668Y051385D03*
X023043Y051885D03*
X023668Y051885D03*
X029168Y052885D03*
X029168Y053885D03*
X029668Y054385D03*
X029668Y044885D03*
X015668Y025385D03*
X014668Y026385D03*
M02*
