%
M48
M72
T01C0.0236
T02C0.0276
T03C0.0315
T04C0.0320
T05C0.0350
T06C0.0354
T07C0.0380
T08C0.0400
T09C0.0433
T10C0.0470
T11C0.0550
T12C0.0551
T13C0.0710
T14C0.1024
T15C0.1260
%
T01
X15668Y25385
X14668Y26385
X22168Y45385
X20168Y47885
X20668Y49885
X18668Y50885
X17668Y50385
X18168Y48885
X17668Y48385
X16668Y47385
X16168Y46385
X17168Y52385
X19168Y52885
X22668Y51385
X23043Y51885
X23668Y51885
X29168Y52885
X29168Y53885
X29668Y54385
X29668Y44885
T02
X20955Y56635
X20168Y56635
X19420Y56635
X12498Y54300
X12498Y53513
X12498Y52725
X12498Y51938
X12498Y51150
X12498Y50363
X12498Y49576
X12498Y48788
X12498Y48001
X12498Y47213
X3837Y47213
X3837Y48001
X3837Y48788
X3837Y49576
X3837Y50363
X3837Y51150
X3837Y51938
X3837Y52725
X3837Y53513
X3837Y54300
X18593Y2885
X19380Y2885
X20168Y2885
X21742Y2885
T03
X36774Y52635
X37561Y52635
T04
X37668Y50135
X36668Y50135
X35418Y48635
X35418Y47635
X36418Y47635
X37668Y45135
X38668Y45135
X36418Y43635
X35418Y43635
X35168Y41635
X34168Y41635
X30168Y41635
X29168Y41635
X27168Y34885
X26168Y34885
X20668Y34885
X19668Y34885
X14168Y34885
X13168Y34885
X11168Y41635
X10168Y41635
X8668Y45635
X7668Y45635
X6168Y41635
X5168Y41635
X3668Y45635
X12668Y45635
X12668Y22385
X13668Y22385
X11668Y22385
X11668Y18385
X12668Y18385
X13668Y18385
X14168Y12385
X13168Y12385
X14668Y4385
X18668Y4385
X21168Y4385
X25168Y4385
X26168Y12385
X27168Y12385
X27668Y18385
X26668Y18385
X28668Y18385
X28668Y22385
X27668Y22385
X26668Y22385
X20668Y12385
X19668Y12385
X35418Y52635
T05
X21168Y24385
X20168Y24385
X19168Y24385
X16168Y21385
X16168Y20385
X16168Y19385
T06
X16668Y54135
X17668Y54135
X18668Y54135
X19668Y54135
X20668Y54135
X21668Y54135
X22668Y54135
X23668Y54135
T07
X28168Y53885
X28168Y54885
X28168Y55885
X28168Y56885
X28168Y52885
X28168Y51885
X28168Y50885
X28168Y49885
X28168Y48885
X28168Y47885
X28168Y46885
X28168Y45885
X28168Y44885
X28168Y43885
X29168Y43885
X30168Y43885
X31168Y43885
X32168Y43885
X33168Y43885
X34168Y43885
X34168Y44885
X34168Y45885
X34168Y46885
X34168Y47885
X34168Y48885
X34168Y49885
X34168Y50885
X34168Y51885
X34168Y52885
X34168Y53885
X34168Y54885
X34168Y55885
X34168Y56885
X33168Y55885
X33168Y53885
X33168Y52885
X33168Y51885
T08
X24168Y44635
X24168Y43635
X23168Y43635
X23168Y44635
X22168Y44635
X22168Y43635
X21168Y43635
X21168Y44635
X20168Y44635
X20168Y43635
X19168Y43635
X19168Y44635
X18168Y44635
X18168Y43635
X17168Y43635
X17168Y44635
X16168Y44635
X16168Y43635
X16168Y37885
X17168Y37885
X17168Y36885
X16168Y36885
X18168Y36885
X19168Y36885
X19168Y37885
X18168Y37885
X20168Y37885
X21168Y37885
X22168Y37885
X22168Y36885
X21168Y36885
X20168Y36885
X23168Y36885
X24168Y36885
X24168Y37885
X23168Y37885
T09
X23168Y21635
X24939Y21635
X24939Y19135
X23168Y19135
T10
X11235Y8931
X12621Y10317
X16100Y6838
X14714Y5452
X17735Y6838
X19121Y5452
X21214Y10317
X22600Y8931
X24235Y6838
X25621Y5452
X27714Y10317
X29100Y8931
X25621Y27952
X24235Y29338
X22600Y31431
X21214Y32817
X17735Y29338
X19121Y27952
X16100Y31431
X14714Y32817
X11235Y29338
X12621Y27952
X27714Y32817
X29100Y31431
T11
X22793Y23385
X22793Y17385
X17543Y17385
X17543Y23385
T12
X17077Y2885
X23258Y2885
X22057Y56635
X18278Y56635
T13
X18916Y31636
X21419Y29133
X25416Y31636
X27919Y29133
X14919Y29133
X12416Y31636
X14919Y9136
X12416Y6633
X18916Y9136
X21419Y6633
X25416Y9136
X27919Y6633
T14
X25876Y42521
X25876Y54135
X14459Y54135
X14459Y42521
T15
X12168Y37885
X2418Y41885
X2418Y55885
X28168Y37885
X37918Y41885
X37918Y55885
X28168Y3635
X12168Y3635
M30
