G75*
G70*
%OFA0B0*%
%FSLAX24Y24*%
%IPPOS*%
%LPD*%
%AMOC8*
5,1,8,0,0,1.08239X$1,22.5*
%
%ADD10C,0.0000*%
D10*
X010418Y003635D02*
X010418Y037885D01*
X011538Y037885D02*
X011540Y037935D01*
X011546Y037985D01*
X011556Y038034D01*
X011570Y038082D01*
X011587Y038129D01*
X011608Y038174D01*
X011633Y038218D01*
X011661Y038259D01*
X011693Y038298D01*
X011727Y038335D01*
X011764Y038369D01*
X011804Y038399D01*
X011846Y038426D01*
X011890Y038450D01*
X011936Y038471D01*
X011983Y038487D01*
X012031Y038500D01*
X012081Y038509D01*
X012130Y038514D01*
X012181Y038515D01*
X012231Y038512D01*
X012280Y038505D01*
X012329Y038494D01*
X012377Y038479D01*
X012423Y038461D01*
X012468Y038439D01*
X012511Y038413D01*
X012552Y038384D01*
X012591Y038352D01*
X012627Y038317D01*
X012659Y038279D01*
X012689Y038239D01*
X012716Y038196D01*
X012739Y038152D01*
X012758Y038106D01*
X012774Y038058D01*
X012786Y038009D01*
X012794Y037960D01*
X012798Y037910D01*
X012798Y037860D01*
X012794Y037810D01*
X012786Y037761D01*
X012774Y037712D01*
X012758Y037664D01*
X012739Y037618D01*
X012716Y037574D01*
X012689Y037531D01*
X012659Y037491D01*
X012627Y037453D01*
X012591Y037418D01*
X012552Y037386D01*
X012511Y037357D01*
X012468Y037331D01*
X012423Y037309D01*
X012377Y037291D01*
X012329Y037276D01*
X012280Y037265D01*
X012231Y037258D01*
X012181Y037255D01*
X012130Y037256D01*
X012081Y037261D01*
X012031Y037270D01*
X011983Y037283D01*
X011936Y037299D01*
X011890Y037320D01*
X011846Y037344D01*
X011804Y037371D01*
X011764Y037401D01*
X011727Y037435D01*
X011693Y037472D01*
X011661Y037511D01*
X011633Y037552D01*
X011608Y037596D01*
X011587Y037641D01*
X011570Y037688D01*
X011556Y037736D01*
X011546Y037785D01*
X011540Y037835D01*
X011538Y037885D01*
X010418Y037885D02*
X010420Y037968D01*
X010426Y038051D01*
X010436Y038134D01*
X010450Y038216D01*
X010467Y038298D01*
X010489Y038378D01*
X010514Y038457D01*
X010543Y038535D01*
X010576Y038612D01*
X010613Y038687D01*
X010652Y038760D01*
X010696Y038831D01*
X010742Y038900D01*
X010792Y038967D01*
X010845Y039031D01*
X010901Y039093D01*
X010960Y039152D01*
X011022Y039208D01*
X011086Y039261D01*
X011153Y039311D01*
X011222Y039357D01*
X011293Y039401D01*
X011366Y039440D01*
X011441Y039477D01*
X011518Y039510D01*
X011596Y039539D01*
X011675Y039564D01*
X011755Y039586D01*
X011837Y039603D01*
X011919Y039617D01*
X012002Y039627D01*
X012085Y039633D01*
X012168Y039635D01*
X028168Y039635D01*
X027538Y037885D02*
X027540Y037935D01*
X027546Y037985D01*
X027556Y038034D01*
X027570Y038082D01*
X027587Y038129D01*
X027608Y038174D01*
X027633Y038218D01*
X027661Y038259D01*
X027693Y038298D01*
X027727Y038335D01*
X027764Y038369D01*
X027804Y038399D01*
X027846Y038426D01*
X027890Y038450D01*
X027936Y038471D01*
X027983Y038487D01*
X028031Y038500D01*
X028081Y038509D01*
X028130Y038514D01*
X028181Y038515D01*
X028231Y038512D01*
X028280Y038505D01*
X028329Y038494D01*
X028377Y038479D01*
X028423Y038461D01*
X028468Y038439D01*
X028511Y038413D01*
X028552Y038384D01*
X028591Y038352D01*
X028627Y038317D01*
X028659Y038279D01*
X028689Y038239D01*
X028716Y038196D01*
X028739Y038152D01*
X028758Y038106D01*
X028774Y038058D01*
X028786Y038009D01*
X028794Y037960D01*
X028798Y037910D01*
X028798Y037860D01*
X028794Y037810D01*
X028786Y037761D01*
X028774Y037712D01*
X028758Y037664D01*
X028739Y037618D01*
X028716Y037574D01*
X028689Y037531D01*
X028659Y037491D01*
X028627Y037453D01*
X028591Y037418D01*
X028552Y037386D01*
X028511Y037357D01*
X028468Y037331D01*
X028423Y037309D01*
X028377Y037291D01*
X028329Y037276D01*
X028280Y037265D01*
X028231Y037258D01*
X028181Y037255D01*
X028130Y037256D01*
X028081Y037261D01*
X028031Y037270D01*
X027983Y037283D01*
X027936Y037299D01*
X027890Y037320D01*
X027846Y037344D01*
X027804Y037371D01*
X027764Y037401D01*
X027727Y037435D01*
X027693Y037472D01*
X027661Y037511D01*
X027633Y037552D01*
X027608Y037596D01*
X027587Y037641D01*
X027570Y037688D01*
X027556Y037736D01*
X027546Y037785D01*
X027540Y037835D01*
X027538Y037885D01*
X028168Y039635D02*
X028251Y039633D01*
X028334Y039627D01*
X028417Y039617D01*
X028499Y039603D01*
X028581Y039586D01*
X028661Y039564D01*
X028740Y039539D01*
X028818Y039510D01*
X028895Y039477D01*
X028970Y039440D01*
X029043Y039401D01*
X029114Y039357D01*
X029183Y039311D01*
X029250Y039261D01*
X029314Y039208D01*
X029376Y039152D01*
X029435Y039093D01*
X029491Y039031D01*
X029544Y038967D01*
X029594Y038900D01*
X029640Y038831D01*
X029684Y038760D01*
X029723Y038687D01*
X029760Y038612D01*
X029793Y038535D01*
X029822Y038457D01*
X029847Y038378D01*
X029869Y038298D01*
X029886Y038216D01*
X029900Y038134D01*
X029910Y038051D01*
X029916Y037968D01*
X029918Y037885D01*
X029918Y003635D01*
X027538Y003635D02*
X027540Y003685D01*
X027546Y003735D01*
X027556Y003784D01*
X027570Y003832D01*
X027587Y003879D01*
X027608Y003924D01*
X027633Y003968D01*
X027661Y004009D01*
X027693Y004048D01*
X027727Y004085D01*
X027764Y004119D01*
X027804Y004149D01*
X027846Y004176D01*
X027890Y004200D01*
X027936Y004221D01*
X027983Y004237D01*
X028031Y004250D01*
X028081Y004259D01*
X028130Y004264D01*
X028181Y004265D01*
X028231Y004262D01*
X028280Y004255D01*
X028329Y004244D01*
X028377Y004229D01*
X028423Y004211D01*
X028468Y004189D01*
X028511Y004163D01*
X028552Y004134D01*
X028591Y004102D01*
X028627Y004067D01*
X028659Y004029D01*
X028689Y003989D01*
X028716Y003946D01*
X028739Y003902D01*
X028758Y003856D01*
X028774Y003808D01*
X028786Y003759D01*
X028794Y003710D01*
X028798Y003660D01*
X028798Y003610D01*
X028794Y003560D01*
X028786Y003511D01*
X028774Y003462D01*
X028758Y003414D01*
X028739Y003368D01*
X028716Y003324D01*
X028689Y003281D01*
X028659Y003241D01*
X028627Y003203D01*
X028591Y003168D01*
X028552Y003136D01*
X028511Y003107D01*
X028468Y003081D01*
X028423Y003059D01*
X028377Y003041D01*
X028329Y003026D01*
X028280Y003015D01*
X028231Y003008D01*
X028181Y003005D01*
X028130Y003006D01*
X028081Y003011D01*
X028031Y003020D01*
X027983Y003033D01*
X027936Y003049D01*
X027890Y003070D01*
X027846Y003094D01*
X027804Y003121D01*
X027764Y003151D01*
X027727Y003185D01*
X027693Y003222D01*
X027661Y003261D01*
X027633Y003302D01*
X027608Y003346D01*
X027587Y003391D01*
X027570Y003438D01*
X027556Y003486D01*
X027546Y003535D01*
X027540Y003585D01*
X027538Y003635D01*
X028168Y001885D02*
X028251Y001887D01*
X028334Y001893D01*
X028417Y001903D01*
X028499Y001917D01*
X028581Y001934D01*
X028661Y001956D01*
X028740Y001981D01*
X028818Y002010D01*
X028895Y002043D01*
X028970Y002080D01*
X029043Y002119D01*
X029114Y002163D01*
X029183Y002209D01*
X029250Y002259D01*
X029314Y002312D01*
X029376Y002368D01*
X029435Y002427D01*
X029491Y002489D01*
X029544Y002553D01*
X029594Y002620D01*
X029640Y002689D01*
X029684Y002760D01*
X029723Y002833D01*
X029760Y002908D01*
X029793Y002985D01*
X029822Y003063D01*
X029847Y003142D01*
X029869Y003222D01*
X029886Y003304D01*
X029900Y003386D01*
X029910Y003469D01*
X029916Y003552D01*
X029918Y003635D01*
X028168Y001885D02*
X012168Y001885D01*
X011538Y003635D02*
X011540Y003685D01*
X011546Y003735D01*
X011556Y003784D01*
X011570Y003832D01*
X011587Y003879D01*
X011608Y003924D01*
X011633Y003968D01*
X011661Y004009D01*
X011693Y004048D01*
X011727Y004085D01*
X011764Y004119D01*
X011804Y004149D01*
X011846Y004176D01*
X011890Y004200D01*
X011936Y004221D01*
X011983Y004237D01*
X012031Y004250D01*
X012081Y004259D01*
X012130Y004264D01*
X012181Y004265D01*
X012231Y004262D01*
X012280Y004255D01*
X012329Y004244D01*
X012377Y004229D01*
X012423Y004211D01*
X012468Y004189D01*
X012511Y004163D01*
X012552Y004134D01*
X012591Y004102D01*
X012627Y004067D01*
X012659Y004029D01*
X012689Y003989D01*
X012716Y003946D01*
X012739Y003902D01*
X012758Y003856D01*
X012774Y003808D01*
X012786Y003759D01*
X012794Y003710D01*
X012798Y003660D01*
X012798Y003610D01*
X012794Y003560D01*
X012786Y003511D01*
X012774Y003462D01*
X012758Y003414D01*
X012739Y003368D01*
X012716Y003324D01*
X012689Y003281D01*
X012659Y003241D01*
X012627Y003203D01*
X012591Y003168D01*
X012552Y003136D01*
X012511Y003107D01*
X012468Y003081D01*
X012423Y003059D01*
X012377Y003041D01*
X012329Y003026D01*
X012280Y003015D01*
X012231Y003008D01*
X012181Y003005D01*
X012130Y003006D01*
X012081Y003011D01*
X012031Y003020D01*
X011983Y003033D01*
X011936Y003049D01*
X011890Y003070D01*
X011846Y003094D01*
X011804Y003121D01*
X011764Y003151D01*
X011727Y003185D01*
X011693Y003222D01*
X011661Y003261D01*
X011633Y003302D01*
X011608Y003346D01*
X011587Y003391D01*
X011570Y003438D01*
X011556Y003486D01*
X011546Y003535D01*
X011540Y003585D01*
X011538Y003635D01*
X010418Y003635D02*
X010420Y003552D01*
X010426Y003469D01*
X010436Y003386D01*
X010450Y003304D01*
X010467Y003222D01*
X010489Y003142D01*
X010514Y003063D01*
X010543Y002985D01*
X010576Y002908D01*
X010613Y002833D01*
X010652Y002760D01*
X010696Y002689D01*
X010742Y002620D01*
X010792Y002553D01*
X010845Y002489D01*
X010901Y002427D01*
X010960Y002368D01*
X011022Y002312D01*
X011086Y002259D01*
X011153Y002209D01*
X011222Y002163D01*
X011293Y002119D01*
X011366Y002080D01*
X011441Y002043D01*
X011518Y002010D01*
X011596Y001981D01*
X011675Y001956D01*
X011755Y001934D01*
X011837Y001917D01*
X011919Y001903D01*
X012002Y001893D01*
X012085Y001887D01*
X012168Y001885D01*
X012061Y006633D02*
X012063Y006670D01*
X012069Y006707D01*
X012078Y006743D01*
X012092Y006777D01*
X012109Y006810D01*
X012129Y006842D01*
X012152Y006871D01*
X012178Y006897D01*
X012207Y006920D01*
X012238Y006940D01*
X012272Y006957D01*
X012306Y006971D01*
X012342Y006980D01*
X012379Y006986D01*
X012416Y006988D01*
X012453Y006986D01*
X012490Y006980D01*
X012526Y006971D01*
X012560Y006957D01*
X012593Y006940D01*
X012625Y006920D01*
X012654Y006897D01*
X012680Y006871D01*
X012703Y006842D01*
X012723Y006811D01*
X012740Y006777D01*
X012754Y006743D01*
X012763Y006707D01*
X012769Y006670D01*
X012771Y006633D01*
X012769Y006596D01*
X012763Y006559D01*
X012754Y006523D01*
X012740Y006489D01*
X012723Y006456D01*
X012703Y006424D01*
X012680Y006395D01*
X012654Y006369D01*
X012625Y006346D01*
X012594Y006326D01*
X012560Y006309D01*
X012526Y006295D01*
X012490Y006286D01*
X012453Y006280D01*
X012416Y006278D01*
X012379Y006280D01*
X012342Y006286D01*
X012306Y006295D01*
X012272Y006309D01*
X012239Y006326D01*
X012207Y006346D01*
X012178Y006369D01*
X012152Y006395D01*
X012129Y006424D01*
X012109Y006455D01*
X012092Y006489D01*
X012078Y006523D01*
X012069Y006559D01*
X012063Y006596D01*
X012061Y006633D01*
X014564Y009136D02*
X014566Y009173D01*
X014572Y009210D01*
X014581Y009246D01*
X014595Y009280D01*
X014612Y009313D01*
X014632Y009345D01*
X014655Y009374D01*
X014681Y009400D01*
X014710Y009423D01*
X014741Y009443D01*
X014775Y009460D01*
X014809Y009474D01*
X014845Y009483D01*
X014882Y009489D01*
X014919Y009491D01*
X014956Y009489D01*
X014993Y009483D01*
X015029Y009474D01*
X015063Y009460D01*
X015096Y009443D01*
X015128Y009423D01*
X015157Y009400D01*
X015183Y009374D01*
X015206Y009345D01*
X015226Y009314D01*
X015243Y009280D01*
X015257Y009246D01*
X015266Y009210D01*
X015272Y009173D01*
X015274Y009136D01*
X015272Y009099D01*
X015266Y009062D01*
X015257Y009026D01*
X015243Y008992D01*
X015226Y008959D01*
X015206Y008927D01*
X015183Y008898D01*
X015157Y008872D01*
X015128Y008849D01*
X015097Y008829D01*
X015063Y008812D01*
X015029Y008798D01*
X014993Y008789D01*
X014956Y008783D01*
X014919Y008781D01*
X014882Y008783D01*
X014845Y008789D01*
X014809Y008798D01*
X014775Y008812D01*
X014742Y008829D01*
X014710Y008849D01*
X014681Y008872D01*
X014655Y008898D01*
X014632Y008927D01*
X014612Y008958D01*
X014595Y008992D01*
X014581Y009026D01*
X014572Y009062D01*
X014566Y009099D01*
X014564Y009136D01*
X018561Y009136D02*
X018563Y009173D01*
X018569Y009210D01*
X018578Y009246D01*
X018592Y009280D01*
X018609Y009313D01*
X018629Y009345D01*
X018652Y009374D01*
X018678Y009400D01*
X018707Y009423D01*
X018738Y009443D01*
X018772Y009460D01*
X018806Y009474D01*
X018842Y009483D01*
X018879Y009489D01*
X018916Y009491D01*
X018953Y009489D01*
X018990Y009483D01*
X019026Y009474D01*
X019060Y009460D01*
X019093Y009443D01*
X019125Y009423D01*
X019154Y009400D01*
X019180Y009374D01*
X019203Y009345D01*
X019223Y009314D01*
X019240Y009280D01*
X019254Y009246D01*
X019263Y009210D01*
X019269Y009173D01*
X019271Y009136D01*
X019269Y009099D01*
X019263Y009062D01*
X019254Y009026D01*
X019240Y008992D01*
X019223Y008959D01*
X019203Y008927D01*
X019180Y008898D01*
X019154Y008872D01*
X019125Y008849D01*
X019094Y008829D01*
X019060Y008812D01*
X019026Y008798D01*
X018990Y008789D01*
X018953Y008783D01*
X018916Y008781D01*
X018879Y008783D01*
X018842Y008789D01*
X018806Y008798D01*
X018772Y008812D01*
X018739Y008829D01*
X018707Y008849D01*
X018678Y008872D01*
X018652Y008898D01*
X018629Y008927D01*
X018609Y008958D01*
X018592Y008992D01*
X018578Y009026D01*
X018569Y009062D01*
X018563Y009099D01*
X018561Y009136D01*
X021064Y006633D02*
X021066Y006670D01*
X021072Y006707D01*
X021081Y006743D01*
X021095Y006777D01*
X021112Y006810D01*
X021132Y006842D01*
X021155Y006871D01*
X021181Y006897D01*
X021210Y006920D01*
X021241Y006940D01*
X021275Y006957D01*
X021309Y006971D01*
X021345Y006980D01*
X021382Y006986D01*
X021419Y006988D01*
X021456Y006986D01*
X021493Y006980D01*
X021529Y006971D01*
X021563Y006957D01*
X021596Y006940D01*
X021628Y006920D01*
X021657Y006897D01*
X021683Y006871D01*
X021706Y006842D01*
X021726Y006811D01*
X021743Y006777D01*
X021757Y006743D01*
X021766Y006707D01*
X021772Y006670D01*
X021774Y006633D01*
X021772Y006596D01*
X021766Y006559D01*
X021757Y006523D01*
X021743Y006489D01*
X021726Y006456D01*
X021706Y006424D01*
X021683Y006395D01*
X021657Y006369D01*
X021628Y006346D01*
X021597Y006326D01*
X021563Y006309D01*
X021529Y006295D01*
X021493Y006286D01*
X021456Y006280D01*
X021419Y006278D01*
X021382Y006280D01*
X021345Y006286D01*
X021309Y006295D01*
X021275Y006309D01*
X021242Y006326D01*
X021210Y006346D01*
X021181Y006369D01*
X021155Y006395D01*
X021132Y006424D01*
X021112Y006455D01*
X021095Y006489D01*
X021081Y006523D01*
X021072Y006559D01*
X021066Y006596D01*
X021064Y006633D01*
X025061Y009136D02*
X025063Y009173D01*
X025069Y009210D01*
X025078Y009246D01*
X025092Y009280D01*
X025109Y009313D01*
X025129Y009345D01*
X025152Y009374D01*
X025178Y009400D01*
X025207Y009423D01*
X025238Y009443D01*
X025272Y009460D01*
X025306Y009474D01*
X025342Y009483D01*
X025379Y009489D01*
X025416Y009491D01*
X025453Y009489D01*
X025490Y009483D01*
X025526Y009474D01*
X025560Y009460D01*
X025593Y009443D01*
X025625Y009423D01*
X025654Y009400D01*
X025680Y009374D01*
X025703Y009345D01*
X025723Y009314D01*
X025740Y009280D01*
X025754Y009246D01*
X025763Y009210D01*
X025769Y009173D01*
X025771Y009136D01*
X025769Y009099D01*
X025763Y009062D01*
X025754Y009026D01*
X025740Y008992D01*
X025723Y008959D01*
X025703Y008927D01*
X025680Y008898D01*
X025654Y008872D01*
X025625Y008849D01*
X025594Y008829D01*
X025560Y008812D01*
X025526Y008798D01*
X025490Y008789D01*
X025453Y008783D01*
X025416Y008781D01*
X025379Y008783D01*
X025342Y008789D01*
X025306Y008798D01*
X025272Y008812D01*
X025239Y008829D01*
X025207Y008849D01*
X025178Y008872D01*
X025152Y008898D01*
X025129Y008927D01*
X025109Y008958D01*
X025092Y008992D01*
X025078Y009026D01*
X025069Y009062D01*
X025063Y009099D01*
X025061Y009136D01*
X027564Y006633D02*
X027566Y006670D01*
X027572Y006707D01*
X027581Y006743D01*
X027595Y006777D01*
X027612Y006810D01*
X027632Y006842D01*
X027655Y006871D01*
X027681Y006897D01*
X027710Y006920D01*
X027741Y006940D01*
X027775Y006957D01*
X027809Y006971D01*
X027845Y006980D01*
X027882Y006986D01*
X027919Y006988D01*
X027956Y006986D01*
X027993Y006980D01*
X028029Y006971D01*
X028063Y006957D01*
X028096Y006940D01*
X028128Y006920D01*
X028157Y006897D01*
X028183Y006871D01*
X028206Y006842D01*
X028226Y006811D01*
X028243Y006777D01*
X028257Y006743D01*
X028266Y006707D01*
X028272Y006670D01*
X028274Y006633D01*
X028272Y006596D01*
X028266Y006559D01*
X028257Y006523D01*
X028243Y006489D01*
X028226Y006456D01*
X028206Y006424D01*
X028183Y006395D01*
X028157Y006369D01*
X028128Y006346D01*
X028097Y006326D01*
X028063Y006309D01*
X028029Y006295D01*
X027993Y006286D01*
X027956Y006280D01*
X027919Y006278D01*
X027882Y006280D01*
X027845Y006286D01*
X027809Y006295D01*
X027775Y006309D01*
X027742Y006326D01*
X027710Y006346D01*
X027681Y006369D01*
X027655Y006395D01*
X027632Y006424D01*
X027612Y006455D01*
X027595Y006489D01*
X027581Y006523D01*
X027572Y006559D01*
X027566Y006596D01*
X027564Y006633D01*
X027564Y029133D02*
X027566Y029170D01*
X027572Y029207D01*
X027581Y029243D01*
X027595Y029277D01*
X027612Y029310D01*
X027632Y029342D01*
X027655Y029371D01*
X027681Y029397D01*
X027710Y029420D01*
X027741Y029440D01*
X027775Y029457D01*
X027809Y029471D01*
X027845Y029480D01*
X027882Y029486D01*
X027919Y029488D01*
X027956Y029486D01*
X027993Y029480D01*
X028029Y029471D01*
X028063Y029457D01*
X028096Y029440D01*
X028128Y029420D01*
X028157Y029397D01*
X028183Y029371D01*
X028206Y029342D01*
X028226Y029311D01*
X028243Y029277D01*
X028257Y029243D01*
X028266Y029207D01*
X028272Y029170D01*
X028274Y029133D01*
X028272Y029096D01*
X028266Y029059D01*
X028257Y029023D01*
X028243Y028989D01*
X028226Y028956D01*
X028206Y028924D01*
X028183Y028895D01*
X028157Y028869D01*
X028128Y028846D01*
X028097Y028826D01*
X028063Y028809D01*
X028029Y028795D01*
X027993Y028786D01*
X027956Y028780D01*
X027919Y028778D01*
X027882Y028780D01*
X027845Y028786D01*
X027809Y028795D01*
X027775Y028809D01*
X027742Y028826D01*
X027710Y028846D01*
X027681Y028869D01*
X027655Y028895D01*
X027632Y028924D01*
X027612Y028955D01*
X027595Y028989D01*
X027581Y029023D01*
X027572Y029059D01*
X027566Y029096D01*
X027564Y029133D01*
X025061Y031636D02*
X025063Y031673D01*
X025069Y031710D01*
X025078Y031746D01*
X025092Y031780D01*
X025109Y031813D01*
X025129Y031845D01*
X025152Y031874D01*
X025178Y031900D01*
X025207Y031923D01*
X025238Y031943D01*
X025272Y031960D01*
X025306Y031974D01*
X025342Y031983D01*
X025379Y031989D01*
X025416Y031991D01*
X025453Y031989D01*
X025490Y031983D01*
X025526Y031974D01*
X025560Y031960D01*
X025593Y031943D01*
X025625Y031923D01*
X025654Y031900D01*
X025680Y031874D01*
X025703Y031845D01*
X025723Y031814D01*
X025740Y031780D01*
X025754Y031746D01*
X025763Y031710D01*
X025769Y031673D01*
X025771Y031636D01*
X025769Y031599D01*
X025763Y031562D01*
X025754Y031526D01*
X025740Y031492D01*
X025723Y031459D01*
X025703Y031427D01*
X025680Y031398D01*
X025654Y031372D01*
X025625Y031349D01*
X025594Y031329D01*
X025560Y031312D01*
X025526Y031298D01*
X025490Y031289D01*
X025453Y031283D01*
X025416Y031281D01*
X025379Y031283D01*
X025342Y031289D01*
X025306Y031298D01*
X025272Y031312D01*
X025239Y031329D01*
X025207Y031349D01*
X025178Y031372D01*
X025152Y031398D01*
X025129Y031427D01*
X025109Y031458D01*
X025092Y031492D01*
X025078Y031526D01*
X025069Y031562D01*
X025063Y031599D01*
X025061Y031636D01*
X021064Y029133D02*
X021066Y029170D01*
X021072Y029207D01*
X021081Y029243D01*
X021095Y029277D01*
X021112Y029310D01*
X021132Y029342D01*
X021155Y029371D01*
X021181Y029397D01*
X021210Y029420D01*
X021241Y029440D01*
X021275Y029457D01*
X021309Y029471D01*
X021345Y029480D01*
X021382Y029486D01*
X021419Y029488D01*
X021456Y029486D01*
X021493Y029480D01*
X021529Y029471D01*
X021563Y029457D01*
X021596Y029440D01*
X021628Y029420D01*
X021657Y029397D01*
X021683Y029371D01*
X021706Y029342D01*
X021726Y029311D01*
X021743Y029277D01*
X021757Y029243D01*
X021766Y029207D01*
X021772Y029170D01*
X021774Y029133D01*
X021772Y029096D01*
X021766Y029059D01*
X021757Y029023D01*
X021743Y028989D01*
X021726Y028956D01*
X021706Y028924D01*
X021683Y028895D01*
X021657Y028869D01*
X021628Y028846D01*
X021597Y028826D01*
X021563Y028809D01*
X021529Y028795D01*
X021493Y028786D01*
X021456Y028780D01*
X021419Y028778D01*
X021382Y028780D01*
X021345Y028786D01*
X021309Y028795D01*
X021275Y028809D01*
X021242Y028826D01*
X021210Y028846D01*
X021181Y028869D01*
X021155Y028895D01*
X021132Y028924D01*
X021112Y028955D01*
X021095Y028989D01*
X021081Y029023D01*
X021072Y029059D01*
X021066Y029096D01*
X021064Y029133D01*
X018561Y031636D02*
X018563Y031673D01*
X018569Y031710D01*
X018578Y031746D01*
X018592Y031780D01*
X018609Y031813D01*
X018629Y031845D01*
X018652Y031874D01*
X018678Y031900D01*
X018707Y031923D01*
X018738Y031943D01*
X018772Y031960D01*
X018806Y031974D01*
X018842Y031983D01*
X018879Y031989D01*
X018916Y031991D01*
X018953Y031989D01*
X018990Y031983D01*
X019026Y031974D01*
X019060Y031960D01*
X019093Y031943D01*
X019125Y031923D01*
X019154Y031900D01*
X019180Y031874D01*
X019203Y031845D01*
X019223Y031814D01*
X019240Y031780D01*
X019254Y031746D01*
X019263Y031710D01*
X019269Y031673D01*
X019271Y031636D01*
X019269Y031599D01*
X019263Y031562D01*
X019254Y031526D01*
X019240Y031492D01*
X019223Y031459D01*
X019203Y031427D01*
X019180Y031398D01*
X019154Y031372D01*
X019125Y031349D01*
X019094Y031329D01*
X019060Y031312D01*
X019026Y031298D01*
X018990Y031289D01*
X018953Y031283D01*
X018916Y031281D01*
X018879Y031283D01*
X018842Y031289D01*
X018806Y031298D01*
X018772Y031312D01*
X018739Y031329D01*
X018707Y031349D01*
X018678Y031372D01*
X018652Y031398D01*
X018629Y031427D01*
X018609Y031458D01*
X018592Y031492D01*
X018578Y031526D01*
X018569Y031562D01*
X018563Y031599D01*
X018561Y031636D01*
X014564Y029133D02*
X014566Y029170D01*
X014572Y029207D01*
X014581Y029243D01*
X014595Y029277D01*
X014612Y029310D01*
X014632Y029342D01*
X014655Y029371D01*
X014681Y029397D01*
X014710Y029420D01*
X014741Y029440D01*
X014775Y029457D01*
X014809Y029471D01*
X014845Y029480D01*
X014882Y029486D01*
X014919Y029488D01*
X014956Y029486D01*
X014993Y029480D01*
X015029Y029471D01*
X015063Y029457D01*
X015096Y029440D01*
X015128Y029420D01*
X015157Y029397D01*
X015183Y029371D01*
X015206Y029342D01*
X015226Y029311D01*
X015243Y029277D01*
X015257Y029243D01*
X015266Y029207D01*
X015272Y029170D01*
X015274Y029133D01*
X015272Y029096D01*
X015266Y029059D01*
X015257Y029023D01*
X015243Y028989D01*
X015226Y028956D01*
X015206Y028924D01*
X015183Y028895D01*
X015157Y028869D01*
X015128Y028846D01*
X015097Y028826D01*
X015063Y028809D01*
X015029Y028795D01*
X014993Y028786D01*
X014956Y028780D01*
X014919Y028778D01*
X014882Y028780D01*
X014845Y028786D01*
X014809Y028795D01*
X014775Y028809D01*
X014742Y028826D01*
X014710Y028846D01*
X014681Y028869D01*
X014655Y028895D01*
X014632Y028924D01*
X014612Y028955D01*
X014595Y028989D01*
X014581Y029023D01*
X014572Y029059D01*
X014566Y029096D01*
X014564Y029133D01*
X012061Y031636D02*
X012063Y031673D01*
X012069Y031710D01*
X012078Y031746D01*
X012092Y031780D01*
X012109Y031813D01*
X012129Y031845D01*
X012152Y031874D01*
X012178Y031900D01*
X012207Y031923D01*
X012238Y031943D01*
X012272Y031960D01*
X012306Y031974D01*
X012342Y031983D01*
X012379Y031989D01*
X012416Y031991D01*
X012453Y031989D01*
X012490Y031983D01*
X012526Y031974D01*
X012560Y031960D01*
X012593Y031943D01*
X012625Y031923D01*
X012654Y031900D01*
X012680Y031874D01*
X012703Y031845D01*
X012723Y031814D01*
X012740Y031780D01*
X012754Y031746D01*
X012763Y031710D01*
X012769Y031673D01*
X012771Y031636D01*
X012769Y031599D01*
X012763Y031562D01*
X012754Y031526D01*
X012740Y031492D01*
X012723Y031459D01*
X012703Y031427D01*
X012680Y031398D01*
X012654Y031372D01*
X012625Y031349D01*
X012594Y031329D01*
X012560Y031312D01*
X012526Y031298D01*
X012490Y031289D01*
X012453Y031283D01*
X012416Y031281D01*
X012379Y031283D01*
X012342Y031289D01*
X012306Y031298D01*
X012272Y031312D01*
X012239Y031329D01*
X012207Y031349D01*
X012178Y031372D01*
X012152Y031398D01*
X012129Y031427D01*
X012109Y031458D01*
X012092Y031492D01*
X012078Y031526D01*
X012069Y031562D01*
X012063Y031599D01*
X012061Y031636D01*
X013947Y042521D02*
X013949Y042566D01*
X013955Y042610D01*
X013964Y042654D01*
X013978Y042696D01*
X013995Y042737D01*
X014016Y042777D01*
X014040Y042815D01*
X014067Y042850D01*
X014097Y042883D01*
X014130Y042913D01*
X014165Y042940D01*
X014203Y042964D01*
X014243Y042985D01*
X014284Y043002D01*
X014326Y043016D01*
X014370Y043025D01*
X014414Y043031D01*
X014459Y043033D01*
X014504Y043031D01*
X014548Y043025D01*
X014592Y043016D01*
X014634Y043002D01*
X014675Y042985D01*
X014715Y042964D01*
X014753Y042940D01*
X014788Y042913D01*
X014821Y042883D01*
X014851Y042850D01*
X014878Y042815D01*
X014902Y042777D01*
X014923Y042737D01*
X014940Y042696D01*
X014954Y042654D01*
X014963Y042610D01*
X014969Y042566D01*
X014971Y042521D01*
X014969Y042476D01*
X014963Y042432D01*
X014954Y042388D01*
X014940Y042346D01*
X014923Y042305D01*
X014902Y042265D01*
X014878Y042227D01*
X014851Y042192D01*
X014821Y042159D01*
X014788Y042129D01*
X014753Y042102D01*
X014715Y042078D01*
X014675Y042057D01*
X014634Y042040D01*
X014592Y042026D01*
X014548Y042017D01*
X014504Y042011D01*
X014459Y042009D01*
X014414Y042011D01*
X014370Y042017D01*
X014326Y042026D01*
X014284Y042040D01*
X014243Y042057D01*
X014203Y042078D01*
X014165Y042102D01*
X014130Y042129D01*
X014097Y042159D01*
X014067Y042192D01*
X014040Y042227D01*
X014016Y042265D01*
X013995Y042305D01*
X013978Y042346D01*
X013964Y042388D01*
X013955Y042432D01*
X013949Y042476D01*
X013947Y042521D01*
X013947Y054135D02*
X013949Y054180D01*
X013955Y054224D01*
X013964Y054268D01*
X013978Y054310D01*
X013995Y054351D01*
X014016Y054391D01*
X014040Y054429D01*
X014067Y054464D01*
X014097Y054497D01*
X014130Y054527D01*
X014165Y054554D01*
X014203Y054578D01*
X014243Y054599D01*
X014284Y054616D01*
X014326Y054630D01*
X014370Y054639D01*
X014414Y054645D01*
X014459Y054647D01*
X014504Y054645D01*
X014548Y054639D01*
X014592Y054630D01*
X014634Y054616D01*
X014675Y054599D01*
X014715Y054578D01*
X014753Y054554D01*
X014788Y054527D01*
X014821Y054497D01*
X014851Y054464D01*
X014878Y054429D01*
X014902Y054391D01*
X014923Y054351D01*
X014940Y054310D01*
X014954Y054268D01*
X014963Y054224D01*
X014969Y054180D01*
X014971Y054135D01*
X014969Y054090D01*
X014963Y054046D01*
X014954Y054002D01*
X014940Y053960D01*
X014923Y053919D01*
X014902Y053879D01*
X014878Y053841D01*
X014851Y053806D01*
X014821Y053773D01*
X014788Y053743D01*
X014753Y053716D01*
X014715Y053692D01*
X014675Y053671D01*
X014634Y053654D01*
X014592Y053640D01*
X014548Y053631D01*
X014504Y053625D01*
X014459Y053623D01*
X014414Y053625D01*
X014370Y053631D01*
X014326Y053640D01*
X014284Y053654D01*
X014243Y053671D01*
X014203Y053692D01*
X014165Y053716D01*
X014130Y053743D01*
X014097Y053773D01*
X014067Y053806D01*
X014040Y053841D01*
X014016Y053879D01*
X013995Y053919D01*
X013978Y053960D01*
X013964Y054002D01*
X013955Y054046D01*
X013949Y054090D01*
X013947Y054135D01*
X001788Y055885D02*
X001790Y055935D01*
X001796Y055985D01*
X001806Y056034D01*
X001820Y056082D01*
X001837Y056129D01*
X001858Y056174D01*
X001883Y056218D01*
X001911Y056259D01*
X001943Y056298D01*
X001977Y056335D01*
X002014Y056369D01*
X002054Y056399D01*
X002096Y056426D01*
X002140Y056450D01*
X002186Y056471D01*
X002233Y056487D01*
X002281Y056500D01*
X002331Y056509D01*
X002380Y056514D01*
X002431Y056515D01*
X002481Y056512D01*
X002530Y056505D01*
X002579Y056494D01*
X002627Y056479D01*
X002673Y056461D01*
X002718Y056439D01*
X002761Y056413D01*
X002802Y056384D01*
X002841Y056352D01*
X002877Y056317D01*
X002909Y056279D01*
X002939Y056239D01*
X002966Y056196D01*
X002989Y056152D01*
X003008Y056106D01*
X003024Y056058D01*
X003036Y056009D01*
X003044Y055960D01*
X003048Y055910D01*
X003048Y055860D01*
X003044Y055810D01*
X003036Y055761D01*
X003024Y055712D01*
X003008Y055664D01*
X002989Y055618D01*
X002966Y055574D01*
X002939Y055531D01*
X002909Y055491D01*
X002877Y055453D01*
X002841Y055418D01*
X002802Y055386D01*
X002761Y055357D01*
X002718Y055331D01*
X002673Y055309D01*
X002627Y055291D01*
X002579Y055276D01*
X002530Y055265D01*
X002481Y055258D01*
X002431Y055255D01*
X002380Y055256D01*
X002331Y055261D01*
X002281Y055270D01*
X002233Y055283D01*
X002186Y055299D01*
X002140Y055320D01*
X002096Y055344D01*
X002054Y055371D01*
X002014Y055401D01*
X001977Y055435D01*
X001943Y055472D01*
X001911Y055511D01*
X001883Y055552D01*
X001858Y055596D01*
X001837Y055641D01*
X001820Y055688D01*
X001806Y055736D01*
X001796Y055785D01*
X001790Y055835D01*
X001788Y055885D01*
X000668Y055885D02*
X000670Y055968D01*
X000676Y056051D01*
X000686Y056134D01*
X000700Y056216D01*
X000717Y056298D01*
X000739Y056378D01*
X000764Y056457D01*
X000793Y056535D01*
X000826Y056612D01*
X000863Y056687D01*
X000902Y056760D01*
X000946Y056831D01*
X000992Y056900D01*
X001042Y056967D01*
X001095Y057031D01*
X001151Y057093D01*
X001210Y057152D01*
X001272Y057208D01*
X001336Y057261D01*
X001403Y057311D01*
X001472Y057357D01*
X001543Y057401D01*
X001616Y057440D01*
X001691Y057477D01*
X001768Y057510D01*
X001846Y057539D01*
X001925Y057564D01*
X002005Y057586D01*
X002087Y057603D01*
X002169Y057617D01*
X002252Y057627D01*
X002335Y057633D01*
X002418Y057635D01*
X037918Y057635D01*
X037288Y055885D02*
X037290Y055935D01*
X037296Y055985D01*
X037306Y056034D01*
X037320Y056082D01*
X037337Y056129D01*
X037358Y056174D01*
X037383Y056218D01*
X037411Y056259D01*
X037443Y056298D01*
X037477Y056335D01*
X037514Y056369D01*
X037554Y056399D01*
X037596Y056426D01*
X037640Y056450D01*
X037686Y056471D01*
X037733Y056487D01*
X037781Y056500D01*
X037831Y056509D01*
X037880Y056514D01*
X037931Y056515D01*
X037981Y056512D01*
X038030Y056505D01*
X038079Y056494D01*
X038127Y056479D01*
X038173Y056461D01*
X038218Y056439D01*
X038261Y056413D01*
X038302Y056384D01*
X038341Y056352D01*
X038377Y056317D01*
X038409Y056279D01*
X038439Y056239D01*
X038466Y056196D01*
X038489Y056152D01*
X038508Y056106D01*
X038524Y056058D01*
X038536Y056009D01*
X038544Y055960D01*
X038548Y055910D01*
X038548Y055860D01*
X038544Y055810D01*
X038536Y055761D01*
X038524Y055712D01*
X038508Y055664D01*
X038489Y055618D01*
X038466Y055574D01*
X038439Y055531D01*
X038409Y055491D01*
X038377Y055453D01*
X038341Y055418D01*
X038302Y055386D01*
X038261Y055357D01*
X038218Y055331D01*
X038173Y055309D01*
X038127Y055291D01*
X038079Y055276D01*
X038030Y055265D01*
X037981Y055258D01*
X037931Y055255D01*
X037880Y055256D01*
X037831Y055261D01*
X037781Y055270D01*
X037733Y055283D01*
X037686Y055299D01*
X037640Y055320D01*
X037596Y055344D01*
X037554Y055371D01*
X037514Y055401D01*
X037477Y055435D01*
X037443Y055472D01*
X037411Y055511D01*
X037383Y055552D01*
X037358Y055596D01*
X037337Y055641D01*
X037320Y055688D01*
X037306Y055736D01*
X037296Y055785D01*
X037290Y055835D01*
X037288Y055885D01*
X037918Y057635D02*
X038001Y057633D01*
X038084Y057627D01*
X038167Y057617D01*
X038249Y057603D01*
X038331Y057586D01*
X038411Y057564D01*
X038490Y057539D01*
X038568Y057510D01*
X038645Y057477D01*
X038720Y057440D01*
X038793Y057401D01*
X038864Y057357D01*
X038933Y057311D01*
X039000Y057261D01*
X039064Y057208D01*
X039126Y057152D01*
X039185Y057093D01*
X039241Y057031D01*
X039294Y056967D01*
X039344Y056900D01*
X039390Y056831D01*
X039434Y056760D01*
X039473Y056687D01*
X039510Y056612D01*
X039543Y056535D01*
X039572Y056457D01*
X039597Y056378D01*
X039619Y056298D01*
X039636Y056216D01*
X039650Y056134D01*
X039660Y056051D01*
X039666Y055968D01*
X039668Y055885D01*
X039668Y054260D01*
X039666Y054216D01*
X039660Y054173D01*
X039651Y054131D01*
X039638Y054089D01*
X039621Y054049D01*
X039601Y054010D01*
X039578Y053973D01*
X039551Y053939D01*
X039522Y053906D01*
X039489Y053877D01*
X039455Y053850D01*
X039418Y053827D01*
X039379Y053807D01*
X039339Y053790D01*
X039297Y053777D01*
X039255Y053768D01*
X039212Y053762D01*
X039168Y053760D01*
X039043Y053760D01*
X038999Y053758D01*
X038956Y053752D01*
X038914Y053743D01*
X038872Y053730D01*
X038832Y053713D01*
X038793Y053693D01*
X038756Y053670D01*
X038722Y053643D01*
X038689Y053614D01*
X038660Y053581D01*
X038633Y053547D01*
X038610Y053510D01*
X038590Y053471D01*
X038573Y053431D01*
X038560Y053389D01*
X038551Y053347D01*
X038545Y053304D01*
X038543Y053260D01*
X038543Y049385D01*
X038545Y049341D01*
X038551Y049298D01*
X038560Y049256D01*
X038573Y049214D01*
X038590Y049174D01*
X038610Y049135D01*
X038633Y049098D01*
X038660Y049064D01*
X038689Y049031D01*
X038722Y049002D01*
X038756Y048975D01*
X038793Y048952D01*
X038832Y048932D01*
X038872Y048915D01*
X038914Y048902D01*
X038956Y048893D01*
X038999Y048887D01*
X039043Y048885D01*
X039168Y048885D01*
X039212Y048883D01*
X039255Y048877D01*
X039297Y048868D01*
X039339Y048855D01*
X039379Y048838D01*
X039418Y048818D01*
X039455Y048795D01*
X039489Y048768D01*
X039522Y048739D01*
X039551Y048706D01*
X039578Y048672D01*
X039601Y048635D01*
X039621Y048596D01*
X039638Y048556D01*
X039651Y048514D01*
X039660Y048472D01*
X039666Y048429D01*
X039668Y048385D01*
X039668Y041885D01*
X037288Y041885D02*
X037290Y041935D01*
X037296Y041985D01*
X037306Y042034D01*
X037320Y042082D01*
X037337Y042129D01*
X037358Y042174D01*
X037383Y042218D01*
X037411Y042259D01*
X037443Y042298D01*
X037477Y042335D01*
X037514Y042369D01*
X037554Y042399D01*
X037596Y042426D01*
X037640Y042450D01*
X037686Y042471D01*
X037733Y042487D01*
X037781Y042500D01*
X037831Y042509D01*
X037880Y042514D01*
X037931Y042515D01*
X037981Y042512D01*
X038030Y042505D01*
X038079Y042494D01*
X038127Y042479D01*
X038173Y042461D01*
X038218Y042439D01*
X038261Y042413D01*
X038302Y042384D01*
X038341Y042352D01*
X038377Y042317D01*
X038409Y042279D01*
X038439Y042239D01*
X038466Y042196D01*
X038489Y042152D01*
X038508Y042106D01*
X038524Y042058D01*
X038536Y042009D01*
X038544Y041960D01*
X038548Y041910D01*
X038548Y041860D01*
X038544Y041810D01*
X038536Y041761D01*
X038524Y041712D01*
X038508Y041664D01*
X038489Y041618D01*
X038466Y041574D01*
X038439Y041531D01*
X038409Y041491D01*
X038377Y041453D01*
X038341Y041418D01*
X038302Y041386D01*
X038261Y041357D01*
X038218Y041331D01*
X038173Y041309D01*
X038127Y041291D01*
X038079Y041276D01*
X038030Y041265D01*
X037981Y041258D01*
X037931Y041255D01*
X037880Y041256D01*
X037831Y041261D01*
X037781Y041270D01*
X037733Y041283D01*
X037686Y041299D01*
X037640Y041320D01*
X037596Y041344D01*
X037554Y041371D01*
X037514Y041401D01*
X037477Y041435D01*
X037443Y041472D01*
X037411Y041511D01*
X037383Y041552D01*
X037358Y041596D01*
X037337Y041641D01*
X037320Y041688D01*
X037306Y041736D01*
X037296Y041785D01*
X037290Y041835D01*
X037288Y041885D01*
X037918Y040135D02*
X038001Y040137D01*
X038084Y040143D01*
X038167Y040153D01*
X038249Y040167D01*
X038331Y040184D01*
X038411Y040206D01*
X038490Y040231D01*
X038568Y040260D01*
X038645Y040293D01*
X038720Y040330D01*
X038793Y040369D01*
X038864Y040413D01*
X038933Y040459D01*
X039000Y040509D01*
X039064Y040562D01*
X039126Y040618D01*
X039185Y040677D01*
X039241Y040739D01*
X039294Y040803D01*
X039344Y040870D01*
X039390Y040939D01*
X039434Y041010D01*
X039473Y041083D01*
X039510Y041158D01*
X039543Y041235D01*
X039572Y041313D01*
X039597Y041392D01*
X039619Y041472D01*
X039636Y041554D01*
X039650Y041636D01*
X039660Y041719D01*
X039666Y041802D01*
X039668Y041885D01*
X037918Y040135D02*
X002418Y040135D01*
X001788Y041885D02*
X001790Y041935D01*
X001796Y041985D01*
X001806Y042034D01*
X001820Y042082D01*
X001837Y042129D01*
X001858Y042174D01*
X001883Y042218D01*
X001911Y042259D01*
X001943Y042298D01*
X001977Y042335D01*
X002014Y042369D01*
X002054Y042399D01*
X002096Y042426D01*
X002140Y042450D01*
X002186Y042471D01*
X002233Y042487D01*
X002281Y042500D01*
X002331Y042509D01*
X002380Y042514D01*
X002431Y042515D01*
X002481Y042512D01*
X002530Y042505D01*
X002579Y042494D01*
X002627Y042479D01*
X002673Y042461D01*
X002718Y042439D01*
X002761Y042413D01*
X002802Y042384D01*
X002841Y042352D01*
X002877Y042317D01*
X002909Y042279D01*
X002939Y042239D01*
X002966Y042196D01*
X002989Y042152D01*
X003008Y042106D01*
X003024Y042058D01*
X003036Y042009D01*
X003044Y041960D01*
X003048Y041910D01*
X003048Y041860D01*
X003044Y041810D01*
X003036Y041761D01*
X003024Y041712D01*
X003008Y041664D01*
X002989Y041618D01*
X002966Y041574D01*
X002939Y041531D01*
X002909Y041491D01*
X002877Y041453D01*
X002841Y041418D01*
X002802Y041386D01*
X002761Y041357D01*
X002718Y041331D01*
X002673Y041309D01*
X002627Y041291D01*
X002579Y041276D01*
X002530Y041265D01*
X002481Y041258D01*
X002431Y041255D01*
X002380Y041256D01*
X002331Y041261D01*
X002281Y041270D01*
X002233Y041283D01*
X002186Y041299D01*
X002140Y041320D01*
X002096Y041344D01*
X002054Y041371D01*
X002014Y041401D01*
X001977Y041435D01*
X001943Y041472D01*
X001911Y041511D01*
X001883Y041552D01*
X001858Y041596D01*
X001837Y041641D01*
X001820Y041688D01*
X001806Y041736D01*
X001796Y041785D01*
X001790Y041835D01*
X001788Y041885D01*
X000668Y041885D02*
X000670Y041802D01*
X000676Y041719D01*
X000686Y041636D01*
X000700Y041554D01*
X000717Y041472D01*
X000739Y041392D01*
X000764Y041313D01*
X000793Y041235D01*
X000826Y041158D01*
X000863Y041083D01*
X000902Y041010D01*
X000946Y040939D01*
X000992Y040870D01*
X001042Y040803D01*
X001095Y040739D01*
X001151Y040677D01*
X001210Y040618D01*
X001272Y040562D01*
X001336Y040509D01*
X001403Y040459D01*
X001472Y040413D01*
X001543Y040369D01*
X001616Y040330D01*
X001691Y040293D01*
X001768Y040260D01*
X001846Y040231D01*
X001925Y040206D01*
X002005Y040184D01*
X002087Y040167D01*
X002169Y040153D01*
X002252Y040143D01*
X002335Y040137D01*
X002418Y040135D01*
X000668Y041885D02*
X000668Y055885D01*
X025364Y054135D02*
X025366Y054180D01*
X025372Y054224D01*
X025381Y054268D01*
X025395Y054310D01*
X025412Y054351D01*
X025433Y054391D01*
X025457Y054429D01*
X025484Y054464D01*
X025514Y054497D01*
X025547Y054527D01*
X025582Y054554D01*
X025620Y054578D01*
X025660Y054599D01*
X025701Y054616D01*
X025743Y054630D01*
X025787Y054639D01*
X025831Y054645D01*
X025876Y054647D01*
X025921Y054645D01*
X025965Y054639D01*
X026009Y054630D01*
X026051Y054616D01*
X026092Y054599D01*
X026132Y054578D01*
X026170Y054554D01*
X026205Y054527D01*
X026238Y054497D01*
X026268Y054464D01*
X026295Y054429D01*
X026319Y054391D01*
X026340Y054351D01*
X026357Y054310D01*
X026371Y054268D01*
X026380Y054224D01*
X026386Y054180D01*
X026388Y054135D01*
X026386Y054090D01*
X026380Y054046D01*
X026371Y054002D01*
X026357Y053960D01*
X026340Y053919D01*
X026319Y053879D01*
X026295Y053841D01*
X026268Y053806D01*
X026238Y053773D01*
X026205Y053743D01*
X026170Y053716D01*
X026132Y053692D01*
X026092Y053671D01*
X026051Y053654D01*
X026009Y053640D01*
X025965Y053631D01*
X025921Y053625D01*
X025876Y053623D01*
X025831Y053625D01*
X025787Y053631D01*
X025743Y053640D01*
X025701Y053654D01*
X025660Y053671D01*
X025620Y053692D01*
X025582Y053716D01*
X025547Y053743D01*
X025514Y053773D01*
X025484Y053806D01*
X025457Y053841D01*
X025433Y053879D01*
X025412Y053919D01*
X025395Y053960D01*
X025381Y054002D01*
X025372Y054046D01*
X025366Y054090D01*
X025364Y054135D01*
X025364Y042521D02*
X025366Y042566D01*
X025372Y042610D01*
X025381Y042654D01*
X025395Y042696D01*
X025412Y042737D01*
X025433Y042777D01*
X025457Y042815D01*
X025484Y042850D01*
X025514Y042883D01*
X025547Y042913D01*
X025582Y042940D01*
X025620Y042964D01*
X025660Y042985D01*
X025701Y043002D01*
X025743Y043016D01*
X025787Y043025D01*
X025831Y043031D01*
X025876Y043033D01*
X025921Y043031D01*
X025965Y043025D01*
X026009Y043016D01*
X026051Y043002D01*
X026092Y042985D01*
X026132Y042964D01*
X026170Y042940D01*
X026205Y042913D01*
X026238Y042883D01*
X026268Y042850D01*
X026295Y042815D01*
X026319Y042777D01*
X026340Y042737D01*
X026357Y042696D01*
X026371Y042654D01*
X026380Y042610D01*
X026386Y042566D01*
X026388Y042521D01*
X026386Y042476D01*
X026380Y042432D01*
X026371Y042388D01*
X026357Y042346D01*
X026340Y042305D01*
X026319Y042265D01*
X026295Y042227D01*
X026268Y042192D01*
X026238Y042159D01*
X026205Y042129D01*
X026170Y042102D01*
X026132Y042078D01*
X026092Y042057D01*
X026051Y042040D01*
X026009Y042026D01*
X025965Y042017D01*
X025921Y042011D01*
X025876Y042009D01*
X025831Y042011D01*
X025787Y042017D01*
X025743Y042026D01*
X025701Y042040D01*
X025660Y042057D01*
X025620Y042078D01*
X025582Y042102D01*
X025547Y042129D01*
X025514Y042159D01*
X025484Y042192D01*
X025457Y042227D01*
X025433Y042265D01*
X025412Y042305D01*
X025395Y042346D01*
X025381Y042388D01*
X025372Y042432D01*
X025366Y042476D01*
X025364Y042521D01*
M02*
