G75*
G70*
%OFA0B0*%
%FSLAX24Y24*%
%IPPOS*%
%LPD*%
%AMOC8*
5,1,8,0,0,1.08239X$1,22.5*
%
%ADD10C,0.0000*%
%ADD11C,0.1000*%
%ADD12C,0.0700*%
%ADD13C,0.0700*%
%ADD14OC8,0.0520*%
%ADD15C,0.0705*%
%ADD16C,0.0560*%
%ADD17OC8,0.0600*%
%ADD18C,0.0120*%
%ADD19C,0.0396*%
D10*
X001004Y003635D02*
X001004Y037885D01*
X002124Y037885D02*
X002126Y037935D01*
X002132Y037985D01*
X002142Y038034D01*
X002156Y038082D01*
X002173Y038129D01*
X002194Y038174D01*
X002219Y038218D01*
X002247Y038259D01*
X002279Y038298D01*
X002313Y038335D01*
X002350Y038369D01*
X002390Y038399D01*
X002432Y038426D01*
X002476Y038450D01*
X002522Y038471D01*
X002569Y038487D01*
X002617Y038500D01*
X002667Y038509D01*
X002716Y038514D01*
X002767Y038515D01*
X002817Y038512D01*
X002866Y038505D01*
X002915Y038494D01*
X002963Y038479D01*
X003009Y038461D01*
X003054Y038439D01*
X003097Y038413D01*
X003138Y038384D01*
X003177Y038352D01*
X003213Y038317D01*
X003245Y038279D01*
X003275Y038239D01*
X003302Y038196D01*
X003325Y038152D01*
X003344Y038106D01*
X003360Y038058D01*
X003372Y038009D01*
X003380Y037960D01*
X003384Y037910D01*
X003384Y037860D01*
X003380Y037810D01*
X003372Y037761D01*
X003360Y037712D01*
X003344Y037664D01*
X003325Y037618D01*
X003302Y037574D01*
X003275Y037531D01*
X003245Y037491D01*
X003213Y037453D01*
X003177Y037418D01*
X003138Y037386D01*
X003097Y037357D01*
X003054Y037331D01*
X003009Y037309D01*
X002963Y037291D01*
X002915Y037276D01*
X002866Y037265D01*
X002817Y037258D01*
X002767Y037255D01*
X002716Y037256D01*
X002667Y037261D01*
X002617Y037270D01*
X002569Y037283D01*
X002522Y037299D01*
X002476Y037320D01*
X002432Y037344D01*
X002390Y037371D01*
X002350Y037401D01*
X002313Y037435D01*
X002279Y037472D01*
X002247Y037511D01*
X002219Y037552D01*
X002194Y037596D01*
X002173Y037641D01*
X002156Y037688D01*
X002142Y037736D01*
X002132Y037785D01*
X002126Y037835D01*
X002124Y037885D01*
X001004Y037885D02*
X001006Y037968D01*
X001012Y038051D01*
X001022Y038134D01*
X001036Y038216D01*
X001053Y038298D01*
X001075Y038378D01*
X001100Y038457D01*
X001129Y038535D01*
X001162Y038612D01*
X001199Y038687D01*
X001238Y038760D01*
X001282Y038831D01*
X001328Y038900D01*
X001378Y038967D01*
X001431Y039031D01*
X001487Y039093D01*
X001546Y039152D01*
X001608Y039208D01*
X001672Y039261D01*
X001739Y039311D01*
X001808Y039357D01*
X001879Y039401D01*
X001952Y039440D01*
X002027Y039477D01*
X002104Y039510D01*
X002182Y039539D01*
X002261Y039564D01*
X002341Y039586D01*
X002423Y039603D01*
X002505Y039617D01*
X002588Y039627D01*
X002671Y039633D01*
X002754Y039635D01*
X018754Y039635D01*
X018124Y037885D02*
X018126Y037935D01*
X018132Y037985D01*
X018142Y038034D01*
X018156Y038082D01*
X018173Y038129D01*
X018194Y038174D01*
X018219Y038218D01*
X018247Y038259D01*
X018279Y038298D01*
X018313Y038335D01*
X018350Y038369D01*
X018390Y038399D01*
X018432Y038426D01*
X018476Y038450D01*
X018522Y038471D01*
X018569Y038487D01*
X018617Y038500D01*
X018667Y038509D01*
X018716Y038514D01*
X018767Y038515D01*
X018817Y038512D01*
X018866Y038505D01*
X018915Y038494D01*
X018963Y038479D01*
X019009Y038461D01*
X019054Y038439D01*
X019097Y038413D01*
X019138Y038384D01*
X019177Y038352D01*
X019213Y038317D01*
X019245Y038279D01*
X019275Y038239D01*
X019302Y038196D01*
X019325Y038152D01*
X019344Y038106D01*
X019360Y038058D01*
X019372Y038009D01*
X019380Y037960D01*
X019384Y037910D01*
X019384Y037860D01*
X019380Y037810D01*
X019372Y037761D01*
X019360Y037712D01*
X019344Y037664D01*
X019325Y037618D01*
X019302Y037574D01*
X019275Y037531D01*
X019245Y037491D01*
X019213Y037453D01*
X019177Y037418D01*
X019138Y037386D01*
X019097Y037357D01*
X019054Y037331D01*
X019009Y037309D01*
X018963Y037291D01*
X018915Y037276D01*
X018866Y037265D01*
X018817Y037258D01*
X018767Y037255D01*
X018716Y037256D01*
X018667Y037261D01*
X018617Y037270D01*
X018569Y037283D01*
X018522Y037299D01*
X018476Y037320D01*
X018432Y037344D01*
X018390Y037371D01*
X018350Y037401D01*
X018313Y037435D01*
X018279Y037472D01*
X018247Y037511D01*
X018219Y037552D01*
X018194Y037596D01*
X018173Y037641D01*
X018156Y037688D01*
X018142Y037736D01*
X018132Y037785D01*
X018126Y037835D01*
X018124Y037885D01*
X018754Y039635D02*
X018837Y039633D01*
X018920Y039627D01*
X019003Y039617D01*
X019085Y039603D01*
X019167Y039586D01*
X019247Y039564D01*
X019326Y039539D01*
X019404Y039510D01*
X019481Y039477D01*
X019556Y039440D01*
X019629Y039401D01*
X019700Y039357D01*
X019769Y039311D01*
X019836Y039261D01*
X019900Y039208D01*
X019962Y039152D01*
X020021Y039093D01*
X020077Y039031D01*
X020130Y038967D01*
X020180Y038900D01*
X020226Y038831D01*
X020270Y038760D01*
X020309Y038687D01*
X020346Y038612D01*
X020379Y038535D01*
X020408Y038457D01*
X020433Y038378D01*
X020455Y038298D01*
X020472Y038216D01*
X020486Y038134D01*
X020496Y038051D01*
X020502Y037968D01*
X020504Y037885D01*
X020504Y003635D01*
X018124Y003635D02*
X018126Y003685D01*
X018132Y003735D01*
X018142Y003784D01*
X018156Y003832D01*
X018173Y003879D01*
X018194Y003924D01*
X018219Y003968D01*
X018247Y004009D01*
X018279Y004048D01*
X018313Y004085D01*
X018350Y004119D01*
X018390Y004149D01*
X018432Y004176D01*
X018476Y004200D01*
X018522Y004221D01*
X018569Y004237D01*
X018617Y004250D01*
X018667Y004259D01*
X018716Y004264D01*
X018767Y004265D01*
X018817Y004262D01*
X018866Y004255D01*
X018915Y004244D01*
X018963Y004229D01*
X019009Y004211D01*
X019054Y004189D01*
X019097Y004163D01*
X019138Y004134D01*
X019177Y004102D01*
X019213Y004067D01*
X019245Y004029D01*
X019275Y003989D01*
X019302Y003946D01*
X019325Y003902D01*
X019344Y003856D01*
X019360Y003808D01*
X019372Y003759D01*
X019380Y003710D01*
X019384Y003660D01*
X019384Y003610D01*
X019380Y003560D01*
X019372Y003511D01*
X019360Y003462D01*
X019344Y003414D01*
X019325Y003368D01*
X019302Y003324D01*
X019275Y003281D01*
X019245Y003241D01*
X019213Y003203D01*
X019177Y003168D01*
X019138Y003136D01*
X019097Y003107D01*
X019054Y003081D01*
X019009Y003059D01*
X018963Y003041D01*
X018915Y003026D01*
X018866Y003015D01*
X018817Y003008D01*
X018767Y003005D01*
X018716Y003006D01*
X018667Y003011D01*
X018617Y003020D01*
X018569Y003033D01*
X018522Y003049D01*
X018476Y003070D01*
X018432Y003094D01*
X018390Y003121D01*
X018350Y003151D01*
X018313Y003185D01*
X018279Y003222D01*
X018247Y003261D01*
X018219Y003302D01*
X018194Y003346D01*
X018173Y003391D01*
X018156Y003438D01*
X018142Y003486D01*
X018132Y003535D01*
X018126Y003585D01*
X018124Y003635D01*
X018754Y001885D02*
X018837Y001887D01*
X018920Y001893D01*
X019003Y001903D01*
X019085Y001917D01*
X019167Y001934D01*
X019247Y001956D01*
X019326Y001981D01*
X019404Y002010D01*
X019481Y002043D01*
X019556Y002080D01*
X019629Y002119D01*
X019700Y002163D01*
X019769Y002209D01*
X019836Y002259D01*
X019900Y002312D01*
X019962Y002368D01*
X020021Y002427D01*
X020077Y002489D01*
X020130Y002553D01*
X020180Y002620D01*
X020226Y002689D01*
X020270Y002760D01*
X020309Y002833D01*
X020346Y002908D01*
X020379Y002985D01*
X020408Y003063D01*
X020433Y003142D01*
X020455Y003222D01*
X020472Y003304D01*
X020486Y003386D01*
X020496Y003469D01*
X020502Y003552D01*
X020504Y003635D01*
X018754Y001885D02*
X002754Y001885D01*
X002124Y003635D02*
X002126Y003685D01*
X002132Y003735D01*
X002142Y003784D01*
X002156Y003832D01*
X002173Y003879D01*
X002194Y003924D01*
X002219Y003968D01*
X002247Y004009D01*
X002279Y004048D01*
X002313Y004085D01*
X002350Y004119D01*
X002390Y004149D01*
X002432Y004176D01*
X002476Y004200D01*
X002522Y004221D01*
X002569Y004237D01*
X002617Y004250D01*
X002667Y004259D01*
X002716Y004264D01*
X002767Y004265D01*
X002817Y004262D01*
X002866Y004255D01*
X002915Y004244D01*
X002963Y004229D01*
X003009Y004211D01*
X003054Y004189D01*
X003097Y004163D01*
X003138Y004134D01*
X003177Y004102D01*
X003213Y004067D01*
X003245Y004029D01*
X003275Y003989D01*
X003302Y003946D01*
X003325Y003902D01*
X003344Y003856D01*
X003360Y003808D01*
X003372Y003759D01*
X003380Y003710D01*
X003384Y003660D01*
X003384Y003610D01*
X003380Y003560D01*
X003372Y003511D01*
X003360Y003462D01*
X003344Y003414D01*
X003325Y003368D01*
X003302Y003324D01*
X003275Y003281D01*
X003245Y003241D01*
X003213Y003203D01*
X003177Y003168D01*
X003138Y003136D01*
X003097Y003107D01*
X003054Y003081D01*
X003009Y003059D01*
X002963Y003041D01*
X002915Y003026D01*
X002866Y003015D01*
X002817Y003008D01*
X002767Y003005D01*
X002716Y003006D01*
X002667Y003011D01*
X002617Y003020D01*
X002569Y003033D01*
X002522Y003049D01*
X002476Y003070D01*
X002432Y003094D01*
X002390Y003121D01*
X002350Y003151D01*
X002313Y003185D01*
X002279Y003222D01*
X002247Y003261D01*
X002219Y003302D01*
X002194Y003346D01*
X002173Y003391D01*
X002156Y003438D01*
X002142Y003486D01*
X002132Y003535D01*
X002126Y003585D01*
X002124Y003635D01*
X001004Y003635D02*
X001006Y003552D01*
X001012Y003469D01*
X001022Y003386D01*
X001036Y003304D01*
X001053Y003222D01*
X001075Y003142D01*
X001100Y003063D01*
X001129Y002985D01*
X001162Y002908D01*
X001199Y002833D01*
X001238Y002760D01*
X001282Y002689D01*
X001328Y002620D01*
X001378Y002553D01*
X001431Y002489D01*
X001487Y002427D01*
X001546Y002368D01*
X001608Y002312D01*
X001672Y002259D01*
X001739Y002209D01*
X001808Y002163D01*
X001879Y002119D01*
X001952Y002080D01*
X002027Y002043D01*
X002104Y002010D01*
X002182Y001981D01*
X002261Y001956D01*
X002341Y001934D01*
X002423Y001917D01*
X002505Y001903D01*
X002588Y001893D01*
X002671Y001887D01*
X002754Y001885D01*
X002647Y006633D02*
X002649Y006670D01*
X002655Y006707D01*
X002664Y006743D01*
X002678Y006777D01*
X002695Y006810D01*
X002715Y006842D01*
X002738Y006871D01*
X002764Y006897D01*
X002793Y006920D01*
X002824Y006940D01*
X002858Y006957D01*
X002892Y006971D01*
X002928Y006980D01*
X002965Y006986D01*
X003002Y006988D01*
X003039Y006986D01*
X003076Y006980D01*
X003112Y006971D01*
X003146Y006957D01*
X003179Y006940D01*
X003211Y006920D01*
X003240Y006897D01*
X003266Y006871D01*
X003289Y006842D01*
X003309Y006811D01*
X003326Y006777D01*
X003340Y006743D01*
X003349Y006707D01*
X003355Y006670D01*
X003357Y006633D01*
X003355Y006596D01*
X003349Y006559D01*
X003340Y006523D01*
X003326Y006489D01*
X003309Y006456D01*
X003289Y006424D01*
X003266Y006395D01*
X003240Y006369D01*
X003211Y006346D01*
X003180Y006326D01*
X003146Y006309D01*
X003112Y006295D01*
X003076Y006286D01*
X003039Y006280D01*
X003002Y006278D01*
X002965Y006280D01*
X002928Y006286D01*
X002892Y006295D01*
X002858Y006309D01*
X002825Y006326D01*
X002793Y006346D01*
X002764Y006369D01*
X002738Y006395D01*
X002715Y006424D01*
X002695Y006455D01*
X002678Y006489D01*
X002664Y006523D01*
X002655Y006559D01*
X002649Y006596D01*
X002647Y006633D01*
X005151Y009136D02*
X005153Y009173D01*
X005159Y009210D01*
X005168Y009246D01*
X005182Y009280D01*
X005199Y009313D01*
X005219Y009345D01*
X005242Y009374D01*
X005268Y009400D01*
X005297Y009423D01*
X005328Y009443D01*
X005362Y009460D01*
X005396Y009474D01*
X005432Y009483D01*
X005469Y009489D01*
X005506Y009491D01*
X005543Y009489D01*
X005580Y009483D01*
X005616Y009474D01*
X005650Y009460D01*
X005683Y009443D01*
X005715Y009423D01*
X005744Y009400D01*
X005770Y009374D01*
X005793Y009345D01*
X005813Y009314D01*
X005830Y009280D01*
X005844Y009246D01*
X005853Y009210D01*
X005859Y009173D01*
X005861Y009136D01*
X005859Y009099D01*
X005853Y009062D01*
X005844Y009026D01*
X005830Y008992D01*
X005813Y008959D01*
X005793Y008927D01*
X005770Y008898D01*
X005744Y008872D01*
X005715Y008849D01*
X005684Y008829D01*
X005650Y008812D01*
X005616Y008798D01*
X005580Y008789D01*
X005543Y008783D01*
X005506Y008781D01*
X005469Y008783D01*
X005432Y008789D01*
X005396Y008798D01*
X005362Y008812D01*
X005329Y008829D01*
X005297Y008849D01*
X005268Y008872D01*
X005242Y008898D01*
X005219Y008927D01*
X005199Y008958D01*
X005182Y008992D01*
X005168Y009026D01*
X005159Y009062D01*
X005153Y009099D01*
X005151Y009136D01*
X009147Y009136D02*
X009149Y009173D01*
X009155Y009210D01*
X009164Y009246D01*
X009178Y009280D01*
X009195Y009313D01*
X009215Y009345D01*
X009238Y009374D01*
X009264Y009400D01*
X009293Y009423D01*
X009324Y009443D01*
X009358Y009460D01*
X009392Y009474D01*
X009428Y009483D01*
X009465Y009489D01*
X009502Y009491D01*
X009539Y009489D01*
X009576Y009483D01*
X009612Y009474D01*
X009646Y009460D01*
X009679Y009443D01*
X009711Y009423D01*
X009740Y009400D01*
X009766Y009374D01*
X009789Y009345D01*
X009809Y009314D01*
X009826Y009280D01*
X009840Y009246D01*
X009849Y009210D01*
X009855Y009173D01*
X009857Y009136D01*
X009855Y009099D01*
X009849Y009062D01*
X009840Y009026D01*
X009826Y008992D01*
X009809Y008959D01*
X009789Y008927D01*
X009766Y008898D01*
X009740Y008872D01*
X009711Y008849D01*
X009680Y008829D01*
X009646Y008812D01*
X009612Y008798D01*
X009576Y008789D01*
X009539Y008783D01*
X009502Y008781D01*
X009465Y008783D01*
X009428Y008789D01*
X009392Y008798D01*
X009358Y008812D01*
X009325Y008829D01*
X009293Y008849D01*
X009264Y008872D01*
X009238Y008898D01*
X009215Y008927D01*
X009195Y008958D01*
X009178Y008992D01*
X009164Y009026D01*
X009155Y009062D01*
X009149Y009099D01*
X009147Y009136D01*
X011651Y006633D02*
X011653Y006670D01*
X011659Y006707D01*
X011668Y006743D01*
X011682Y006777D01*
X011699Y006810D01*
X011719Y006842D01*
X011742Y006871D01*
X011768Y006897D01*
X011797Y006920D01*
X011828Y006940D01*
X011862Y006957D01*
X011896Y006971D01*
X011932Y006980D01*
X011969Y006986D01*
X012006Y006988D01*
X012043Y006986D01*
X012080Y006980D01*
X012116Y006971D01*
X012150Y006957D01*
X012183Y006940D01*
X012215Y006920D01*
X012244Y006897D01*
X012270Y006871D01*
X012293Y006842D01*
X012313Y006811D01*
X012330Y006777D01*
X012344Y006743D01*
X012353Y006707D01*
X012359Y006670D01*
X012361Y006633D01*
X012359Y006596D01*
X012353Y006559D01*
X012344Y006523D01*
X012330Y006489D01*
X012313Y006456D01*
X012293Y006424D01*
X012270Y006395D01*
X012244Y006369D01*
X012215Y006346D01*
X012184Y006326D01*
X012150Y006309D01*
X012116Y006295D01*
X012080Y006286D01*
X012043Y006280D01*
X012006Y006278D01*
X011969Y006280D01*
X011932Y006286D01*
X011896Y006295D01*
X011862Y006309D01*
X011829Y006326D01*
X011797Y006346D01*
X011768Y006369D01*
X011742Y006395D01*
X011719Y006424D01*
X011699Y006455D01*
X011682Y006489D01*
X011668Y006523D01*
X011659Y006559D01*
X011653Y006596D01*
X011651Y006633D01*
X015647Y009136D02*
X015649Y009173D01*
X015655Y009210D01*
X015664Y009246D01*
X015678Y009280D01*
X015695Y009313D01*
X015715Y009345D01*
X015738Y009374D01*
X015764Y009400D01*
X015793Y009423D01*
X015824Y009443D01*
X015858Y009460D01*
X015892Y009474D01*
X015928Y009483D01*
X015965Y009489D01*
X016002Y009491D01*
X016039Y009489D01*
X016076Y009483D01*
X016112Y009474D01*
X016146Y009460D01*
X016179Y009443D01*
X016211Y009423D01*
X016240Y009400D01*
X016266Y009374D01*
X016289Y009345D01*
X016309Y009314D01*
X016326Y009280D01*
X016340Y009246D01*
X016349Y009210D01*
X016355Y009173D01*
X016357Y009136D01*
X016355Y009099D01*
X016349Y009062D01*
X016340Y009026D01*
X016326Y008992D01*
X016309Y008959D01*
X016289Y008927D01*
X016266Y008898D01*
X016240Y008872D01*
X016211Y008849D01*
X016180Y008829D01*
X016146Y008812D01*
X016112Y008798D01*
X016076Y008789D01*
X016039Y008783D01*
X016002Y008781D01*
X015965Y008783D01*
X015928Y008789D01*
X015892Y008798D01*
X015858Y008812D01*
X015825Y008829D01*
X015793Y008849D01*
X015764Y008872D01*
X015738Y008898D01*
X015715Y008927D01*
X015695Y008958D01*
X015678Y008992D01*
X015664Y009026D01*
X015655Y009062D01*
X015649Y009099D01*
X015647Y009136D01*
X018151Y006633D02*
X018153Y006670D01*
X018159Y006707D01*
X018168Y006743D01*
X018182Y006777D01*
X018199Y006810D01*
X018219Y006842D01*
X018242Y006871D01*
X018268Y006897D01*
X018297Y006920D01*
X018328Y006940D01*
X018362Y006957D01*
X018396Y006971D01*
X018432Y006980D01*
X018469Y006986D01*
X018506Y006988D01*
X018543Y006986D01*
X018580Y006980D01*
X018616Y006971D01*
X018650Y006957D01*
X018683Y006940D01*
X018715Y006920D01*
X018744Y006897D01*
X018770Y006871D01*
X018793Y006842D01*
X018813Y006811D01*
X018830Y006777D01*
X018844Y006743D01*
X018853Y006707D01*
X018859Y006670D01*
X018861Y006633D01*
X018859Y006596D01*
X018853Y006559D01*
X018844Y006523D01*
X018830Y006489D01*
X018813Y006456D01*
X018793Y006424D01*
X018770Y006395D01*
X018744Y006369D01*
X018715Y006346D01*
X018684Y006326D01*
X018650Y006309D01*
X018616Y006295D01*
X018580Y006286D01*
X018543Y006280D01*
X018506Y006278D01*
X018469Y006280D01*
X018432Y006286D01*
X018396Y006295D01*
X018362Y006309D01*
X018329Y006326D01*
X018297Y006346D01*
X018268Y006369D01*
X018242Y006395D01*
X018219Y006424D01*
X018199Y006455D01*
X018182Y006489D01*
X018168Y006523D01*
X018159Y006559D01*
X018153Y006596D01*
X018151Y006633D01*
X018151Y029133D02*
X018153Y029170D01*
X018159Y029207D01*
X018168Y029243D01*
X018182Y029277D01*
X018199Y029310D01*
X018219Y029342D01*
X018242Y029371D01*
X018268Y029397D01*
X018297Y029420D01*
X018328Y029440D01*
X018362Y029457D01*
X018396Y029471D01*
X018432Y029480D01*
X018469Y029486D01*
X018506Y029488D01*
X018543Y029486D01*
X018580Y029480D01*
X018616Y029471D01*
X018650Y029457D01*
X018683Y029440D01*
X018715Y029420D01*
X018744Y029397D01*
X018770Y029371D01*
X018793Y029342D01*
X018813Y029311D01*
X018830Y029277D01*
X018844Y029243D01*
X018853Y029207D01*
X018859Y029170D01*
X018861Y029133D01*
X018859Y029096D01*
X018853Y029059D01*
X018844Y029023D01*
X018830Y028989D01*
X018813Y028956D01*
X018793Y028924D01*
X018770Y028895D01*
X018744Y028869D01*
X018715Y028846D01*
X018684Y028826D01*
X018650Y028809D01*
X018616Y028795D01*
X018580Y028786D01*
X018543Y028780D01*
X018506Y028778D01*
X018469Y028780D01*
X018432Y028786D01*
X018396Y028795D01*
X018362Y028809D01*
X018329Y028826D01*
X018297Y028846D01*
X018268Y028869D01*
X018242Y028895D01*
X018219Y028924D01*
X018199Y028955D01*
X018182Y028989D01*
X018168Y029023D01*
X018159Y029059D01*
X018153Y029096D01*
X018151Y029133D01*
X015647Y031636D02*
X015649Y031673D01*
X015655Y031710D01*
X015664Y031746D01*
X015678Y031780D01*
X015695Y031813D01*
X015715Y031845D01*
X015738Y031874D01*
X015764Y031900D01*
X015793Y031923D01*
X015824Y031943D01*
X015858Y031960D01*
X015892Y031974D01*
X015928Y031983D01*
X015965Y031989D01*
X016002Y031991D01*
X016039Y031989D01*
X016076Y031983D01*
X016112Y031974D01*
X016146Y031960D01*
X016179Y031943D01*
X016211Y031923D01*
X016240Y031900D01*
X016266Y031874D01*
X016289Y031845D01*
X016309Y031814D01*
X016326Y031780D01*
X016340Y031746D01*
X016349Y031710D01*
X016355Y031673D01*
X016357Y031636D01*
X016355Y031599D01*
X016349Y031562D01*
X016340Y031526D01*
X016326Y031492D01*
X016309Y031459D01*
X016289Y031427D01*
X016266Y031398D01*
X016240Y031372D01*
X016211Y031349D01*
X016180Y031329D01*
X016146Y031312D01*
X016112Y031298D01*
X016076Y031289D01*
X016039Y031283D01*
X016002Y031281D01*
X015965Y031283D01*
X015928Y031289D01*
X015892Y031298D01*
X015858Y031312D01*
X015825Y031329D01*
X015793Y031349D01*
X015764Y031372D01*
X015738Y031398D01*
X015715Y031427D01*
X015695Y031458D01*
X015678Y031492D01*
X015664Y031526D01*
X015655Y031562D01*
X015649Y031599D01*
X015647Y031636D01*
X011651Y029133D02*
X011653Y029170D01*
X011659Y029207D01*
X011668Y029243D01*
X011682Y029277D01*
X011699Y029310D01*
X011719Y029342D01*
X011742Y029371D01*
X011768Y029397D01*
X011797Y029420D01*
X011828Y029440D01*
X011862Y029457D01*
X011896Y029471D01*
X011932Y029480D01*
X011969Y029486D01*
X012006Y029488D01*
X012043Y029486D01*
X012080Y029480D01*
X012116Y029471D01*
X012150Y029457D01*
X012183Y029440D01*
X012215Y029420D01*
X012244Y029397D01*
X012270Y029371D01*
X012293Y029342D01*
X012313Y029311D01*
X012330Y029277D01*
X012344Y029243D01*
X012353Y029207D01*
X012359Y029170D01*
X012361Y029133D01*
X012359Y029096D01*
X012353Y029059D01*
X012344Y029023D01*
X012330Y028989D01*
X012313Y028956D01*
X012293Y028924D01*
X012270Y028895D01*
X012244Y028869D01*
X012215Y028846D01*
X012184Y028826D01*
X012150Y028809D01*
X012116Y028795D01*
X012080Y028786D01*
X012043Y028780D01*
X012006Y028778D01*
X011969Y028780D01*
X011932Y028786D01*
X011896Y028795D01*
X011862Y028809D01*
X011829Y028826D01*
X011797Y028846D01*
X011768Y028869D01*
X011742Y028895D01*
X011719Y028924D01*
X011699Y028955D01*
X011682Y028989D01*
X011668Y029023D01*
X011659Y029059D01*
X011653Y029096D01*
X011651Y029133D01*
X009147Y031636D02*
X009149Y031673D01*
X009155Y031710D01*
X009164Y031746D01*
X009178Y031780D01*
X009195Y031813D01*
X009215Y031845D01*
X009238Y031874D01*
X009264Y031900D01*
X009293Y031923D01*
X009324Y031943D01*
X009358Y031960D01*
X009392Y031974D01*
X009428Y031983D01*
X009465Y031989D01*
X009502Y031991D01*
X009539Y031989D01*
X009576Y031983D01*
X009612Y031974D01*
X009646Y031960D01*
X009679Y031943D01*
X009711Y031923D01*
X009740Y031900D01*
X009766Y031874D01*
X009789Y031845D01*
X009809Y031814D01*
X009826Y031780D01*
X009840Y031746D01*
X009849Y031710D01*
X009855Y031673D01*
X009857Y031636D01*
X009855Y031599D01*
X009849Y031562D01*
X009840Y031526D01*
X009826Y031492D01*
X009809Y031459D01*
X009789Y031427D01*
X009766Y031398D01*
X009740Y031372D01*
X009711Y031349D01*
X009680Y031329D01*
X009646Y031312D01*
X009612Y031298D01*
X009576Y031289D01*
X009539Y031283D01*
X009502Y031281D01*
X009465Y031283D01*
X009428Y031289D01*
X009392Y031298D01*
X009358Y031312D01*
X009325Y031329D01*
X009293Y031349D01*
X009264Y031372D01*
X009238Y031398D01*
X009215Y031427D01*
X009195Y031458D01*
X009178Y031492D01*
X009164Y031526D01*
X009155Y031562D01*
X009149Y031599D01*
X009147Y031636D01*
X005151Y029133D02*
X005153Y029170D01*
X005159Y029207D01*
X005168Y029243D01*
X005182Y029277D01*
X005199Y029310D01*
X005219Y029342D01*
X005242Y029371D01*
X005268Y029397D01*
X005297Y029420D01*
X005328Y029440D01*
X005362Y029457D01*
X005396Y029471D01*
X005432Y029480D01*
X005469Y029486D01*
X005506Y029488D01*
X005543Y029486D01*
X005580Y029480D01*
X005616Y029471D01*
X005650Y029457D01*
X005683Y029440D01*
X005715Y029420D01*
X005744Y029397D01*
X005770Y029371D01*
X005793Y029342D01*
X005813Y029311D01*
X005830Y029277D01*
X005844Y029243D01*
X005853Y029207D01*
X005859Y029170D01*
X005861Y029133D01*
X005859Y029096D01*
X005853Y029059D01*
X005844Y029023D01*
X005830Y028989D01*
X005813Y028956D01*
X005793Y028924D01*
X005770Y028895D01*
X005744Y028869D01*
X005715Y028846D01*
X005684Y028826D01*
X005650Y028809D01*
X005616Y028795D01*
X005580Y028786D01*
X005543Y028780D01*
X005506Y028778D01*
X005469Y028780D01*
X005432Y028786D01*
X005396Y028795D01*
X005362Y028809D01*
X005329Y028826D01*
X005297Y028846D01*
X005268Y028869D01*
X005242Y028895D01*
X005219Y028924D01*
X005199Y028955D01*
X005182Y028989D01*
X005168Y029023D01*
X005159Y029059D01*
X005153Y029096D01*
X005151Y029133D01*
X002647Y031636D02*
X002649Y031673D01*
X002655Y031710D01*
X002664Y031746D01*
X002678Y031780D01*
X002695Y031813D01*
X002715Y031845D01*
X002738Y031874D01*
X002764Y031900D01*
X002793Y031923D01*
X002824Y031943D01*
X002858Y031960D01*
X002892Y031974D01*
X002928Y031983D01*
X002965Y031989D01*
X003002Y031991D01*
X003039Y031989D01*
X003076Y031983D01*
X003112Y031974D01*
X003146Y031960D01*
X003179Y031943D01*
X003211Y031923D01*
X003240Y031900D01*
X003266Y031874D01*
X003289Y031845D01*
X003309Y031814D01*
X003326Y031780D01*
X003340Y031746D01*
X003349Y031710D01*
X003355Y031673D01*
X003357Y031636D01*
X003355Y031599D01*
X003349Y031562D01*
X003340Y031526D01*
X003326Y031492D01*
X003309Y031459D01*
X003289Y031427D01*
X003266Y031398D01*
X003240Y031372D01*
X003211Y031349D01*
X003180Y031329D01*
X003146Y031312D01*
X003112Y031298D01*
X003076Y031289D01*
X003039Y031283D01*
X003002Y031281D01*
X002965Y031283D01*
X002928Y031289D01*
X002892Y031298D01*
X002858Y031312D01*
X002825Y031329D01*
X002793Y031349D01*
X002764Y031372D01*
X002738Y031398D01*
X002715Y031427D01*
X002695Y031458D01*
X002678Y031492D01*
X002664Y031526D01*
X002655Y031562D01*
X002649Y031599D01*
X002647Y031636D01*
D11*
X008129Y023385D03*
X008129Y017385D03*
X013379Y017385D03*
X013379Y023385D03*
X013845Y002885D03*
X007663Y002885D03*
D12*
X006754Y019385D03*
X006754Y020385D03*
X006754Y021385D03*
X009754Y024385D03*
X010754Y024385D03*
X011754Y024385D03*
D13*
X013754Y021985D02*
X013754Y021285D01*
X013754Y019485D02*
X013754Y018785D01*
X015526Y018785D02*
X015526Y019485D01*
X015526Y021285D02*
X015526Y021985D01*
D14*
X017254Y022385D03*
X018254Y022385D03*
X019254Y022385D03*
X019254Y018385D03*
X018254Y018385D03*
X017254Y018385D03*
X016754Y012385D03*
X017754Y012385D03*
X015754Y004385D03*
X011754Y004385D03*
X009254Y004385D03*
X005254Y004385D03*
X004754Y012385D03*
X003754Y012385D03*
X003254Y018385D03*
X004254Y018385D03*
X002254Y018385D03*
X002254Y022385D03*
X003254Y022385D03*
X004254Y022385D03*
X010254Y012385D03*
X011254Y012385D03*
X011254Y034885D03*
X010254Y034885D03*
X004754Y034885D03*
X003754Y034885D03*
X016754Y034885D03*
X017754Y034885D03*
D15*
X018550Y033066D02*
X018051Y032568D01*
X019437Y031182D02*
X019936Y031680D01*
X016457Y028201D02*
X015958Y027703D01*
X014572Y029089D02*
X015071Y029587D01*
X013436Y031680D02*
X012937Y031182D01*
X011551Y032568D02*
X012050Y033066D01*
X009957Y028201D02*
X009458Y027703D01*
X008072Y029089D02*
X008571Y029587D01*
X006936Y031680D02*
X006437Y031182D01*
X005051Y032568D02*
X005550Y033066D01*
X003457Y028201D02*
X002958Y027703D01*
X001572Y029089D02*
X002071Y029587D01*
X002958Y010566D02*
X003457Y010068D01*
X002071Y008682D02*
X001572Y009180D01*
X005051Y005701D02*
X005550Y005203D01*
X006936Y006589D02*
X006437Y007087D01*
X008072Y006589D02*
X008571Y007087D01*
X009957Y005701D02*
X009458Y005203D01*
X011551Y010068D02*
X012050Y010566D01*
X013436Y009180D02*
X012937Y008682D01*
X014572Y006589D02*
X015071Y007087D01*
X016457Y005701D02*
X015958Y005203D01*
X018051Y010068D02*
X018550Y010566D01*
X019936Y009180D02*
X019437Y008682D01*
D16*
X012329Y002885D03*
X010754Y002885D03*
X009967Y002885D03*
X009179Y002885D03*
D17*
X008754Y036885D03*
X008754Y037885D03*
X007754Y037885D03*
X007754Y036885D03*
X006754Y036885D03*
X006754Y037885D03*
X009754Y037885D03*
X009754Y036885D03*
X010754Y036885D03*
X010754Y037885D03*
X011754Y037885D03*
X011754Y036885D03*
X012754Y036885D03*
X012754Y037885D03*
X013754Y037885D03*
X013754Y036885D03*
X014754Y036885D03*
X014754Y037885D03*
D18*
X014794Y037922D02*
X017113Y037922D01*
X017113Y038040D02*
X015214Y038040D01*
X015214Y038075D02*
X014945Y038345D01*
X014794Y038345D01*
X014794Y037925D01*
X014714Y037925D01*
X014714Y038345D01*
X014563Y038345D01*
X014294Y038075D01*
X014294Y037925D01*
X014714Y037925D01*
X014714Y037845D01*
X014294Y037845D01*
X014294Y037694D01*
X014563Y037425D01*
X014714Y037425D01*
X014714Y037844D01*
X014794Y037844D01*
X014794Y037425D01*
X014945Y037425D01*
X015214Y037694D01*
X015214Y037845D01*
X014794Y037845D01*
X014794Y037925D01*
X015214Y037925D01*
X015214Y038075D01*
X015130Y038159D02*
X017121Y038159D01*
X017113Y038132D02*
X017113Y038132D01*
X017113Y037637D01*
X017258Y037164D01*
X017537Y036756D01*
X017537Y036756D01*
X017924Y036447D01*
X018385Y036266D01*
X018878Y036229D01*
X019360Y036339D01*
X019789Y036587D01*
X020126Y036950D01*
X020244Y037196D01*
X020244Y032090D01*
X020204Y032119D01*
X020132Y032155D01*
X020056Y032180D01*
X019976Y032193D01*
X019895Y032193D01*
X019816Y032180D01*
X019739Y032155D01*
X019667Y032119D01*
X019602Y032071D01*
X019365Y031834D01*
X019686Y031513D01*
X019605Y031431D01*
X019283Y031753D01*
X019046Y031516D01*
X018999Y031451D01*
X018962Y031379D01*
X018937Y031302D01*
X018925Y031222D01*
X018925Y031142D01*
X018937Y031062D01*
X018954Y031010D01*
X017898Y032066D01*
X017947Y032045D01*
X018155Y032045D01*
X018347Y032125D01*
X018993Y032770D01*
X019072Y032962D01*
X019072Y033170D01*
X018993Y033362D01*
X018846Y033509D01*
X018654Y033589D01*
X018446Y033589D01*
X018254Y033509D01*
X017608Y032864D01*
X017529Y032672D01*
X017529Y032464D01*
X017549Y032415D01*
X016984Y032980D01*
X016984Y034507D01*
X017184Y034707D01*
X017184Y035063D01*
X016932Y035315D01*
X016576Y035315D01*
X016324Y035063D01*
X016324Y034707D01*
X016524Y034507D01*
X016524Y032980D01*
X016524Y032940D01*
X014484Y034980D01*
X014484Y036490D01*
X014559Y036415D01*
X014949Y036415D01*
X015224Y036690D01*
X015224Y037079D01*
X014949Y037355D01*
X014559Y037355D01*
X014484Y037279D01*
X014484Y037289D01*
X014484Y037480D01*
X014224Y037740D01*
X014224Y038079D01*
X013949Y038355D01*
X013559Y038355D01*
X013284Y038079D01*
X013284Y037690D01*
X013559Y037415D01*
X013899Y037415D01*
X014024Y037289D01*
X014024Y037279D01*
X013949Y037355D01*
X013559Y037355D01*
X013484Y037279D01*
X013484Y037480D01*
X013349Y037615D01*
X013224Y037740D01*
X013224Y038079D01*
X012949Y038355D01*
X012559Y038355D01*
X012284Y038079D01*
X012284Y037690D01*
X012559Y037415D01*
X012899Y037415D01*
X013024Y037289D01*
X013024Y037279D01*
X012949Y037355D01*
X012559Y037355D01*
X012484Y037279D01*
X012484Y037480D01*
X012349Y037615D01*
X012224Y037740D01*
X012224Y038079D01*
X011949Y038355D01*
X011559Y038355D01*
X011284Y038079D01*
X011284Y037690D01*
X011559Y037415D01*
X011899Y037415D01*
X012024Y037289D01*
X012024Y037279D01*
X011949Y037355D01*
X011559Y037355D01*
X011484Y037279D01*
X011484Y037289D01*
X011484Y037480D01*
X011224Y037740D01*
X011224Y038079D01*
X010949Y038355D01*
X010559Y038355D01*
X010284Y038079D01*
X010284Y037690D01*
X010559Y037415D01*
X010899Y037415D01*
X011024Y037289D01*
X011024Y037279D01*
X010949Y037355D01*
X010559Y037355D01*
X010484Y037279D01*
X010484Y037480D01*
X010349Y037615D01*
X010224Y037740D01*
X010224Y038079D01*
X009949Y038355D01*
X009559Y038355D01*
X009284Y038079D01*
X009284Y037690D01*
X009559Y037415D01*
X009899Y037415D01*
X010024Y037289D01*
X010024Y037279D01*
X009949Y037355D01*
X009559Y037355D01*
X009484Y037279D01*
X009484Y037480D01*
X009349Y037615D01*
X009224Y037740D01*
X009224Y038079D01*
X008949Y038355D01*
X008559Y038355D01*
X008284Y038079D01*
X008284Y037690D01*
X008559Y037415D01*
X008899Y037415D01*
X009024Y037289D01*
X009024Y037279D01*
X008949Y037355D01*
X008559Y037355D01*
X008284Y037079D01*
X008284Y036690D01*
X008524Y036450D01*
X008524Y035980D01*
X008159Y035615D01*
X005349Y035615D01*
X005159Y035615D01*
X004859Y035315D01*
X004576Y035315D01*
X004324Y035063D01*
X004324Y034707D01*
X004576Y034455D01*
X004932Y034455D01*
X005184Y034707D01*
X005184Y034989D01*
X005349Y035155D01*
X007313Y035155D01*
X005720Y033562D01*
X005654Y033589D01*
X005446Y033589D01*
X005254Y033509D01*
X004608Y032864D01*
X004529Y032672D01*
X004529Y032464D01*
X004608Y032272D01*
X004755Y032125D01*
X004947Y032045D01*
X005089Y032045D01*
X004159Y031115D01*
X004024Y030980D01*
X004024Y022763D01*
X003824Y022563D01*
X003824Y022207D01*
X004076Y021955D01*
X004432Y021955D01*
X004524Y022047D01*
X004524Y018723D01*
X004432Y018815D01*
X004076Y018815D01*
X003824Y018563D01*
X003824Y018207D01*
X004024Y018007D01*
X003470Y018007D01*
X003428Y017965D02*
X003674Y018211D01*
X003674Y018365D01*
X003274Y018365D01*
X003274Y018405D01*
X003234Y018405D01*
X003234Y018805D01*
X003080Y018805D01*
X002834Y018559D01*
X002834Y018405D01*
X003234Y018405D01*
X003234Y018365D01*
X002834Y018365D01*
X002834Y018211D01*
X003080Y017965D01*
X003234Y017965D01*
X003234Y018364D01*
X003274Y018364D01*
X003274Y017965D01*
X003428Y017965D01*
X003274Y018007D02*
X003234Y018007D01*
X003234Y018125D02*
X003274Y018125D01*
X003274Y018244D02*
X003234Y018244D01*
X003234Y018362D02*
X003274Y018362D01*
X003274Y018405D02*
X003674Y018405D01*
X003674Y018559D01*
X003428Y018805D01*
X003274Y018805D01*
X003274Y018405D01*
X003274Y018481D02*
X003234Y018481D01*
X003234Y018599D02*
X003274Y018599D01*
X003274Y018718D02*
X003234Y018718D01*
X003515Y018718D02*
X003979Y018718D01*
X003861Y018599D02*
X003633Y018599D01*
X003674Y018481D02*
X003824Y018481D01*
X003824Y018362D02*
X003674Y018362D01*
X003674Y018244D02*
X003824Y018244D01*
X003905Y018125D02*
X003588Y018125D01*
X004024Y018007D02*
X004024Y012980D01*
X004024Y012789D01*
X004324Y012489D01*
X004324Y012207D01*
X004576Y011955D01*
X004932Y011955D01*
X005024Y012047D01*
X005024Y010480D01*
X003159Y008615D01*
X002593Y008615D01*
X002593Y008786D01*
X002514Y008978D01*
X001868Y009623D01*
X001676Y009703D01*
X001468Y009703D01*
X001276Y009623D01*
X001264Y009611D01*
X001264Y028658D01*
X001276Y028646D01*
X001468Y028566D01*
X001676Y028566D01*
X001868Y028646D01*
X002024Y028802D01*
X002024Y027230D01*
X001774Y026980D01*
X001774Y026789D01*
X001774Y025539D01*
X001909Y025405D01*
X002024Y025289D01*
X002024Y022763D01*
X001824Y022563D01*
X001824Y022207D01*
X002076Y021955D01*
X002432Y021955D01*
X002684Y022207D01*
X002684Y022563D01*
X002484Y022763D01*
X002484Y025289D01*
X002484Y025480D01*
X002234Y025730D01*
X002234Y026789D01*
X002349Y026905D01*
X002484Y027039D01*
X002484Y027505D01*
X002520Y027434D01*
X002557Y027383D01*
X003126Y027952D01*
X003207Y027871D01*
X002638Y027302D01*
X002690Y027265D01*
X002761Y027228D01*
X002838Y027203D01*
X002918Y027190D01*
X002999Y027190D01*
X003078Y027203D01*
X003155Y027228D01*
X003227Y027265D01*
X003292Y027312D01*
X003529Y027549D01*
X003208Y027871D01*
X003289Y027952D01*
X003611Y027630D01*
X003848Y027868D01*
X003895Y027933D01*
X003932Y028005D01*
X003957Y028081D01*
X003969Y028161D01*
X003969Y028242D01*
X003957Y028321D01*
X003932Y028398D01*
X003895Y028470D01*
X003858Y028521D01*
X003289Y027952D01*
X003208Y028034D01*
X003776Y028603D01*
X003725Y028640D01*
X003653Y028676D01*
X003577Y028701D01*
X003497Y028714D01*
X003416Y028714D01*
X003337Y028701D01*
X003260Y028676D01*
X003188Y028640D01*
X003123Y028592D01*
X002886Y028355D01*
X003207Y028034D01*
X003126Y027952D01*
X002804Y028274D01*
X002567Y028037D01*
X002520Y027972D01*
X002484Y027901D01*
X002484Y028789D01*
X003984Y030289D01*
X003984Y030480D01*
X003984Y034507D01*
X004184Y034707D01*
X004184Y035063D01*
X003932Y035315D01*
X003576Y035315D01*
X003324Y035063D01*
X003324Y034707D01*
X003524Y034507D01*
X003524Y031984D01*
X003524Y031985D01*
X003351Y032158D01*
X003125Y032251D01*
X002880Y032251D01*
X002654Y032158D01*
X002481Y031985D01*
X002387Y031759D01*
X002387Y031514D01*
X002481Y031288D01*
X002654Y031115D01*
X002880Y031021D01*
X003125Y031021D01*
X003351Y031115D01*
X003524Y031288D01*
X003524Y031289D01*
X003524Y030480D01*
X002593Y029549D01*
X002593Y029691D01*
X002514Y029883D01*
X002367Y030030D01*
X002175Y030110D01*
X001967Y030110D01*
X001775Y030030D01*
X001264Y029520D01*
X001264Y037156D01*
X001537Y036756D01*
X001537Y036756D01*
X001924Y036447D01*
X002385Y036266D01*
X002878Y036229D01*
X003360Y036339D01*
X003789Y036587D01*
X004126Y036950D01*
X004340Y037395D01*
X004414Y037885D01*
X004340Y038374D01*
X004126Y038820D01*
X003789Y039183D01*
X003456Y039375D01*
X018058Y039375D01*
X017924Y039322D01*
X017537Y039014D01*
X017258Y038605D01*
X017113Y038132D01*
X017157Y038278D02*
X015012Y038278D01*
X014794Y038278D02*
X014714Y038278D01*
X014714Y038159D02*
X014794Y038159D01*
X014794Y038040D02*
X014714Y038040D01*
X014714Y037922D02*
X014224Y037922D01*
X014224Y038040D02*
X014294Y038040D01*
X014378Y038159D02*
X014144Y038159D01*
X014026Y038278D02*
X014496Y038278D01*
X014294Y037803D02*
X014224Y037803D01*
X014279Y037685D02*
X014303Y037685D01*
X014398Y037566D02*
X014422Y037566D01*
X014484Y037448D02*
X014540Y037448D01*
X014534Y037329D02*
X014484Y037329D01*
X014254Y037385D02*
X013754Y037885D01*
X013408Y037566D02*
X013398Y037566D01*
X013484Y037448D02*
X013526Y037448D01*
X013534Y037329D02*
X013484Y037329D01*
X013254Y037385D02*
X013254Y035385D01*
X013504Y035135D01*
X013504Y032885D01*
X015504Y030885D01*
X015504Y030021D01*
X014822Y029338D01*
X014487Y029742D02*
X013222Y029742D01*
X013234Y029730D02*
X013099Y029865D01*
X012484Y030480D01*
X012484Y030943D01*
X012499Y030913D01*
X012536Y030862D01*
X013105Y031431D01*
X013186Y031350D01*
X012617Y030781D01*
X012669Y030744D01*
X012740Y030707D01*
X012817Y030682D01*
X012897Y030669D01*
X012978Y030669D01*
X013057Y030682D01*
X013134Y030707D01*
X013206Y030744D01*
X013271Y030791D01*
X013508Y031028D01*
X013187Y031350D01*
X013268Y031431D01*
X013589Y031109D01*
X013827Y031347D01*
X013874Y031412D01*
X013911Y031484D01*
X013936Y031560D01*
X013948Y031640D01*
X013948Y031721D01*
X013936Y031800D01*
X013911Y031877D01*
X013874Y031949D01*
X013837Y032000D01*
X013268Y031431D01*
X013187Y031513D01*
X013755Y032082D01*
X013704Y032119D01*
X013632Y032155D01*
X013556Y032180D01*
X013476Y032193D01*
X013395Y032193D01*
X013316Y032180D01*
X013239Y032155D01*
X013234Y032153D01*
X013234Y032230D01*
X013234Y034980D01*
X013099Y035115D01*
X012484Y035730D01*
X012484Y036490D01*
X012559Y036415D01*
X012949Y036415D01*
X013024Y036490D01*
X013024Y035480D01*
X013024Y035289D01*
X013274Y035039D01*
X013274Y032980D01*
X013274Y032789D01*
X015274Y030789D01*
X015274Y030116D01*
X015241Y030083D01*
X015175Y030110D01*
X014967Y030110D01*
X014775Y030030D01*
X014129Y029385D01*
X014050Y029193D01*
X014050Y028985D01*
X014129Y028793D01*
X014276Y028646D01*
X014468Y028566D01*
X014676Y028566D01*
X014868Y028646D01*
X015514Y029291D01*
X015593Y029483D01*
X015593Y029691D01*
X015566Y029757D01*
X015734Y029925D01*
X015734Y030116D01*
X015734Y030980D01*
X015599Y031115D01*
X013734Y032980D01*
X013734Y034580D01*
X016062Y032251D01*
X015880Y032251D01*
X015654Y032158D01*
X015481Y031985D01*
X015387Y031759D01*
X015387Y031514D01*
X015481Y031288D01*
X015654Y031115D01*
X015880Y031021D01*
X016125Y031021D01*
X016351Y031115D01*
X016524Y031288D01*
X016617Y031514D01*
X016617Y031696D01*
X017024Y031289D01*
X017024Y024480D01*
X017024Y024440D01*
X013234Y028230D01*
X013234Y029730D01*
X013234Y029624D02*
X014368Y029624D01*
X014250Y029505D02*
X013234Y029505D01*
X013234Y029387D02*
X014131Y029387D01*
X014081Y029268D02*
X013234Y029268D01*
X013234Y029150D02*
X014050Y029150D01*
X014050Y029031D02*
X013234Y029031D01*
X013234Y028913D02*
X014080Y028913D01*
X014129Y028794D02*
X013234Y028794D01*
X013234Y028676D02*
X014247Y028676D01*
X014898Y028676D02*
X016258Y028676D01*
X016260Y028676D02*
X016188Y028640D01*
X016123Y028592D01*
X015886Y028355D01*
X016207Y028034D01*
X016126Y027952D01*
X016207Y027871D01*
X015638Y027302D01*
X015690Y027265D01*
X015761Y027228D01*
X015838Y027203D01*
X015918Y027190D01*
X015999Y027190D01*
X016078Y027203D01*
X016155Y027228D01*
X016227Y027265D01*
X016292Y027312D01*
X016529Y027549D01*
X016208Y027871D01*
X016289Y027952D01*
X016611Y027630D01*
X016848Y027868D01*
X016895Y027933D01*
X016932Y028005D01*
X016957Y028081D01*
X016969Y028161D01*
X016969Y028242D01*
X016957Y028321D01*
X016932Y028398D01*
X016895Y028470D01*
X016858Y028521D01*
X016289Y027952D01*
X016208Y028034D01*
X016776Y028603D01*
X016725Y028640D01*
X016653Y028676D01*
X016577Y028701D01*
X016497Y028714D01*
X016416Y028714D01*
X016337Y028701D01*
X016260Y028676D01*
X016087Y028557D02*
X013234Y028557D01*
X013234Y028438D02*
X015969Y028438D01*
X015921Y028320D02*
X013234Y028320D01*
X013263Y028201D02*
X015732Y028201D01*
X015804Y028274D02*
X015567Y028037D01*
X015520Y027972D01*
X015483Y027900D01*
X015458Y027823D01*
X015446Y027743D01*
X015446Y027663D01*
X015458Y027583D01*
X015483Y027506D01*
X015520Y027434D01*
X015557Y027383D01*
X016126Y027952D01*
X015804Y028274D01*
X015877Y028201D02*
X016040Y028201D01*
X015996Y028083D02*
X016158Y028083D01*
X016257Y028083D02*
X016419Y028083D01*
X016375Y028201D02*
X016538Y028201D01*
X016494Y028320D02*
X016656Y028320D01*
X016612Y028438D02*
X016775Y028438D01*
X016731Y028557D02*
X017024Y028557D01*
X017024Y028676D02*
X016655Y028676D01*
X016911Y028438D02*
X017024Y028438D01*
X017024Y028320D02*
X016957Y028320D01*
X016969Y028201D02*
X017024Y028201D01*
X017024Y028083D02*
X016957Y028083D01*
X016911Y027964D02*
X017024Y027964D01*
X017024Y027846D02*
X016826Y027846D01*
X016707Y027727D02*
X017024Y027727D01*
X017024Y027609D02*
X016470Y027609D01*
X016470Y027490D02*
X017024Y027490D01*
X017024Y027372D02*
X016352Y027372D01*
X016204Y027253D02*
X017024Y027253D01*
X017024Y027134D02*
X014329Y027134D01*
X014211Y027253D02*
X015712Y027253D01*
X015708Y027372D02*
X014092Y027372D01*
X013974Y027490D02*
X015491Y027490D01*
X015454Y027609D02*
X013855Y027609D01*
X013737Y027727D02*
X015446Y027727D01*
X015466Y027846D02*
X013618Y027846D01*
X013500Y027964D02*
X015516Y027964D01*
X015613Y028083D02*
X013381Y028083D01*
X013004Y028135D02*
X017754Y023385D01*
X017754Y019885D01*
X016504Y018635D01*
X016504Y017135D01*
X012754Y013385D01*
X011254Y013385D01*
X010754Y012885D01*
X010754Y006499D01*
X009708Y005452D01*
X010080Y005085D02*
X015441Y005085D01*
X015436Y005099D02*
X015515Y004907D01*
X015618Y004805D01*
X015580Y004805D01*
X015334Y004559D01*
X015334Y004405D01*
X015734Y004405D01*
X015734Y004365D01*
X015334Y004365D01*
X015334Y004211D01*
X015580Y003965D01*
X015734Y003965D01*
X015734Y004364D01*
X015774Y004364D01*
X015774Y003965D01*
X015928Y003965D01*
X016174Y004211D01*
X016174Y004365D01*
X015774Y004365D01*
X015774Y004405D01*
X016174Y004405D01*
X016174Y004559D01*
X016052Y004680D01*
X016062Y004680D01*
X016254Y004760D01*
X016900Y005406D01*
X016979Y005598D01*
X016979Y005805D01*
X016952Y005871D01*
X017849Y006769D01*
X017929Y006849D01*
X017891Y006755D01*
X017891Y006511D01*
X017984Y006285D01*
X018157Y006112D01*
X018383Y006018D01*
X018628Y006018D01*
X018854Y006112D01*
X019027Y006285D01*
X019121Y006511D01*
X019121Y006755D01*
X019027Y006981D01*
X018854Y007154D01*
X018628Y007248D01*
X018383Y007248D01*
X018157Y007154D01*
X017984Y006981D01*
X017984Y008289D01*
X019349Y009655D01*
X019484Y009789D01*
X019484Y011789D01*
X019484Y011980D01*
X018984Y012480D01*
X018984Y018061D01*
X019080Y017965D01*
X019234Y017965D01*
X019234Y018364D01*
X019274Y018364D01*
X019274Y017965D01*
X019428Y017965D01*
X019674Y018211D01*
X019674Y018365D01*
X019274Y018365D01*
X019274Y018405D01*
X019234Y018405D01*
X019234Y018805D01*
X019080Y018805D01*
X018984Y018709D01*
X018984Y022047D01*
X019076Y021955D01*
X019432Y021955D01*
X019684Y022207D01*
X019684Y022563D01*
X019484Y022763D01*
X019484Y030480D01*
X019349Y030615D01*
X019265Y030699D01*
X019317Y030682D01*
X019397Y030669D01*
X019478Y030669D01*
X019557Y030682D01*
X019634Y030707D01*
X019706Y030744D01*
X019771Y030791D01*
X020008Y031028D01*
X019687Y031350D01*
X019768Y031431D01*
X020089Y031109D01*
X020244Y031264D01*
X020244Y017164D01*
X020103Y017167D01*
X020009Y017075D01*
X019919Y017165D01*
X019729Y017165D01*
X019479Y017165D01*
X019344Y017030D01*
X019224Y016910D01*
X019224Y016719D01*
X019224Y016349D01*
X019224Y016180D01*
X019224Y015989D01*
X019449Y015765D01*
X019369Y015685D01*
X019234Y015550D01*
X019234Y015310D01*
X019234Y015119D01*
X019419Y014935D01*
X019364Y014880D01*
X019244Y014760D01*
X019244Y014569D01*
X018984Y014569D01*
X018984Y014687D02*
X019244Y014687D01*
X019244Y014569D02*
X019244Y014329D01*
X019379Y014195D01*
X019485Y014088D01*
X019244Y013847D01*
X019244Y013657D01*
X019379Y013522D01*
X019386Y013522D01*
X019964Y013522D01*
X019964Y013440D01*
X019704Y013180D01*
X019704Y013320D01*
X019569Y013455D01*
X019379Y013455D01*
X019244Y013320D01*
X019244Y012830D01*
X019244Y012639D01*
X019379Y012505D01*
X019679Y012505D01*
X019814Y012639D01*
X020169Y012995D01*
X020244Y012995D01*
X020244Y009611D01*
X020232Y009623D01*
X020040Y009703D01*
X019832Y009703D01*
X019640Y009623D01*
X018994Y008978D01*
X018915Y008786D01*
X018915Y008578D01*
X018994Y008386D01*
X019141Y008239D01*
X019333Y008159D01*
X019541Y008159D01*
X019733Y008239D01*
X020244Y008750D01*
X020244Y004324D01*
X020126Y004570D01*
X019789Y004933D01*
X019360Y005180D01*
X018878Y005290D01*
X018385Y005253D01*
X018385Y005253D01*
X017924Y005072D01*
X017537Y004764D01*
X017537Y004764D01*
X017537Y004764D01*
X017258Y004355D01*
X017113Y003882D01*
X017113Y003387D01*
X017258Y002914D01*
X017537Y002506D01*
X017537Y002506D01*
X017924Y002197D01*
X018058Y002145D01*
X003456Y002145D01*
X003789Y002337D01*
X004126Y002700D01*
X004340Y003145D01*
X004340Y003145D01*
X004414Y003635D01*
X004340Y004124D01*
X004126Y004570D01*
X003789Y004933D01*
X003360Y005180D01*
X002878Y005290D01*
X002385Y005253D01*
X002385Y005253D01*
X001924Y005072D01*
X001537Y004764D01*
X001537Y004764D01*
X001537Y004764D01*
X001264Y004363D01*
X001264Y008750D01*
X001775Y008239D01*
X001967Y008159D01*
X002175Y008159D01*
X002241Y008187D01*
X002273Y008155D01*
X002463Y008155D01*
X003159Y008155D01*
X003349Y008155D01*
X005484Y010289D01*
X005484Y010480D01*
X005484Y012980D01*
X005349Y013115D01*
X004984Y013480D01*
X004984Y026134D01*
X005045Y026073D01*
X005181Y026017D01*
X005327Y026017D01*
X005463Y026073D01*
X005545Y026155D01*
X010159Y026155D01*
X010349Y026155D01*
X010849Y026655D01*
X010984Y026789D01*
X010984Y031789D01*
X010984Y031980D01*
X010484Y032480D01*
X010484Y034507D01*
X010684Y034707D01*
X010684Y035063D01*
X010432Y035315D01*
X010076Y035315D01*
X009824Y035063D01*
X009824Y034707D01*
X010024Y034507D01*
X010024Y032289D01*
X010159Y032155D01*
X010524Y031789D01*
X010524Y026980D01*
X010159Y026615D01*
X005545Y026615D01*
X005463Y026697D01*
X005327Y026753D01*
X005181Y026753D01*
X005045Y026697D01*
X004984Y026635D01*
X004984Y028785D01*
X005157Y028612D01*
X005383Y028518D01*
X005628Y028518D01*
X005854Y028612D01*
X006027Y028785D01*
X006121Y029011D01*
X006121Y029255D01*
X006027Y029481D01*
X005854Y029654D01*
X005628Y029748D01*
X005383Y029748D01*
X005157Y029654D01*
X004984Y029481D01*
X004984Y030789D01*
X008599Y034405D01*
X009099Y034405D01*
X009234Y034539D01*
X010484Y035789D01*
X010484Y035980D01*
X010484Y036490D01*
X010524Y036450D01*
X010524Y035480D01*
X010524Y035289D01*
X010824Y034989D01*
X010824Y034707D01*
X011076Y034455D01*
X011432Y034455D01*
X011684Y034707D01*
X011684Y034880D01*
X012024Y034539D01*
X012024Y033589D01*
X011946Y033589D01*
X011754Y033509D01*
X011108Y032864D01*
X011029Y032672D01*
X011029Y032464D01*
X011108Y032272D01*
X011255Y032125D01*
X011447Y032045D01*
X011655Y032045D01*
X011847Y032125D01*
X012493Y032770D01*
X012524Y032846D01*
X012524Y032480D01*
X011659Y031615D01*
X011524Y031480D01*
X011524Y030480D01*
X011524Y030289D01*
X012065Y029748D01*
X011883Y029748D01*
X011657Y029654D01*
X011484Y029481D01*
X011391Y029255D01*
X011391Y029011D01*
X011484Y028785D01*
X011657Y028612D01*
X011883Y028518D01*
X012128Y028518D01*
X012354Y028612D01*
X012524Y028782D01*
X012524Y027980D01*
X012524Y027789D01*
X014699Y025615D01*
X014659Y025615D01*
X006545Y025615D01*
X006463Y025697D01*
X006327Y025753D01*
X006181Y025753D01*
X006045Y025697D01*
X005942Y025593D01*
X005886Y025458D01*
X005886Y025311D01*
X005942Y025176D01*
X006045Y025073D01*
X006181Y025017D01*
X006327Y025017D01*
X006463Y025073D01*
X006545Y025155D01*
X014659Y025155D01*
X015296Y024518D01*
X015296Y022452D01*
X015231Y022426D01*
X015085Y022279D01*
X015006Y022088D01*
X015006Y021181D01*
X015085Y020990D01*
X015231Y020844D01*
X015422Y020765D01*
X015629Y020765D01*
X015820Y020844D01*
X015966Y020990D01*
X016046Y021181D01*
X016046Y022088D01*
X015966Y022279D01*
X015820Y022426D01*
X015756Y022452D01*
X015756Y024558D01*
X017024Y023289D01*
X017024Y022763D01*
X016824Y022563D01*
X016824Y022207D01*
X017076Y021955D01*
X017432Y021955D01*
X017524Y022047D01*
X017524Y019980D01*
X016409Y018865D01*
X016274Y018730D01*
X016274Y017230D01*
X012659Y013615D01*
X011349Y013615D01*
X011159Y013615D01*
X010659Y013115D01*
X010524Y012980D01*
X010524Y012709D01*
X010428Y012805D01*
X010274Y012805D01*
X010274Y012405D01*
X010234Y012405D01*
X010234Y012805D01*
X010080Y012805D01*
X009834Y012559D01*
X009834Y012405D01*
X010234Y012405D01*
X010234Y012365D01*
X009834Y012365D01*
X009834Y012211D01*
X010080Y011965D01*
X010234Y011965D01*
X010234Y012364D01*
X010274Y012364D01*
X010274Y011965D01*
X010428Y011965D01*
X010524Y012061D01*
X010524Y006594D01*
X010127Y006197D01*
X010061Y006224D01*
X009853Y006224D01*
X009661Y006144D01*
X009015Y005499D01*
X008936Y005307D01*
X008936Y005099D01*
X009015Y004907D01*
X009108Y004815D01*
X009076Y004815D01*
X008824Y004563D01*
X008824Y004207D01*
X009076Y003955D01*
X009432Y003955D01*
X009632Y004155D01*
X009737Y004155D01*
X009737Y003276D01*
X009712Y003266D01*
X009585Y003140D01*
X009573Y003110D01*
X009561Y003140D01*
X009434Y003266D01*
X009409Y003276D01*
X009409Y003364D01*
X009409Y003555D01*
X008484Y004480D01*
X008349Y004615D01*
X005632Y004615D01*
X005566Y004680D01*
X005654Y004680D01*
X005846Y004760D01*
X005993Y004907D01*
X006072Y005099D01*
X006072Y005307D01*
X005993Y005499D01*
X005347Y006144D01*
X005155Y006224D01*
X004947Y006224D01*
X004755Y006144D01*
X004608Y005997D01*
X004529Y005805D01*
X004529Y005598D01*
X004608Y005406D01*
X005199Y004815D01*
X005149Y004815D01*
X004484Y005480D01*
X004484Y006289D01*
X006349Y008155D01*
X006484Y008289D01*
X006484Y012789D01*
X006484Y012980D01*
X005984Y013480D01*
X005984Y020289D01*
X006270Y020576D01*
X006234Y020488D01*
X006234Y020281D01*
X006313Y020090D01*
X006459Y019944D01*
X006620Y019877D01*
X006558Y019857D01*
X006487Y019821D01*
X006422Y019774D01*
X006365Y019717D01*
X006318Y019652D01*
X006281Y019580D01*
X006257Y019504D01*
X006244Y019425D01*
X006244Y019412D01*
X006726Y019412D01*
X006726Y019357D01*
X006244Y019357D01*
X006244Y019345D01*
X006257Y019265D01*
X006281Y019189D01*
X006318Y019117D01*
X006365Y019052D01*
X006422Y018996D01*
X006487Y018949D01*
X006558Y018912D01*
X006635Y018887D01*
X006714Y018875D01*
X006726Y018875D01*
X006726Y019357D01*
X006781Y019357D01*
X006781Y018875D01*
X006794Y018875D01*
X006873Y018887D01*
X006950Y018912D01*
X007021Y018949D01*
X007086Y018996D01*
X007143Y019052D01*
X007190Y019117D01*
X007227Y019189D01*
X007251Y019265D01*
X007264Y019345D01*
X007264Y019357D01*
X006782Y019357D01*
X006782Y019412D01*
X007264Y019412D01*
X007264Y019425D01*
X007251Y019504D01*
X007227Y019580D01*
X007190Y019652D01*
X007143Y019717D01*
X007086Y019774D01*
X007021Y019821D01*
X006950Y019857D01*
X006888Y019877D01*
X007049Y019944D01*
X007195Y020090D01*
X007274Y020281D01*
X007274Y020488D01*
X007195Y020679D01*
X007049Y020826D01*
X006906Y020885D01*
X007049Y020944D01*
X007195Y021090D01*
X007222Y021155D01*
X010659Y021155D01*
X010849Y021155D01*
X011849Y022155D01*
X011984Y022289D01*
X011984Y023917D01*
X012049Y023944D01*
X012195Y024090D01*
X012274Y024281D01*
X012274Y024488D01*
X012195Y024679D01*
X012049Y024826D01*
X011857Y024905D01*
X011651Y024905D01*
X011459Y024826D01*
X011313Y024679D01*
X011254Y024536D01*
X011195Y024679D01*
X011049Y024826D01*
X010857Y024905D01*
X010651Y024905D01*
X010459Y024826D01*
X010313Y024679D01*
X010247Y024519D01*
X010227Y024580D01*
X010190Y024652D01*
X010143Y024717D01*
X010086Y024774D01*
X010021Y024821D01*
X009950Y024857D01*
X009873Y024882D01*
X010596Y024882D01*
X010398Y024764D02*
X010096Y024764D01*
X010194Y024645D02*
X010299Y024645D01*
X010250Y024526D02*
X010244Y024526D01*
X010247Y024251D02*
X010313Y024090D01*
X010459Y023944D01*
X010651Y023865D01*
X010857Y023865D01*
X011049Y023944D01*
X011195Y024090D01*
X011254Y024233D01*
X011313Y024090D01*
X011459Y023944D01*
X011524Y023917D01*
X011524Y022480D01*
X010659Y021615D01*
X007222Y021615D01*
X007195Y021679D01*
X007049Y021826D01*
X006857Y021905D01*
X006651Y021905D01*
X006459Y021826D01*
X006313Y021679D01*
X006234Y021488D01*
X006234Y021281D01*
X006261Y021217D01*
X005524Y020480D01*
X005524Y020289D01*
X005524Y013289D01*
X005659Y013155D01*
X006024Y012789D01*
X006024Y009488D01*
X005854Y009658D01*
X005628Y009751D01*
X005383Y009751D01*
X005157Y009658D01*
X004984Y009485D01*
X004891Y009259D01*
X004891Y009014D01*
X004984Y008788D01*
X005157Y008615D01*
X005383Y008521D01*
X005628Y008521D01*
X005854Y008615D01*
X006024Y008785D01*
X006024Y008480D01*
X004024Y006480D01*
X004024Y006289D01*
X004024Y005289D01*
X004159Y005155D01*
X004824Y004489D01*
X004824Y004207D01*
X005076Y003955D01*
X005432Y003955D01*
X005632Y004155D01*
X008159Y004155D01*
X008949Y003364D01*
X008949Y003276D01*
X008924Y003266D01*
X008798Y003140D01*
X008729Y002974D01*
X008729Y002795D01*
X008798Y002630D01*
X008924Y002503D01*
X009090Y002435D01*
X009269Y002435D01*
X009434Y002503D01*
X009561Y002630D01*
X009573Y002659D01*
X009585Y002630D01*
X009712Y002503D01*
X009877Y002435D01*
X010056Y002435D01*
X010221Y002503D01*
X010348Y002630D01*
X010360Y002659D01*
X010373Y002630D01*
X010499Y002503D01*
X010664Y002435D01*
X010844Y002435D01*
X011009Y002503D01*
X011135Y002630D01*
X011204Y002795D01*
X011204Y002974D01*
X011135Y003140D01*
X011009Y003266D01*
X010844Y003335D01*
X010664Y003335D01*
X010499Y003266D01*
X010373Y003140D01*
X010360Y003110D01*
X010348Y003140D01*
X010221Y003266D01*
X010197Y003276D01*
X010197Y004155D01*
X011376Y004155D01*
X011576Y003955D01*
X011932Y003955D01*
X012184Y004207D01*
X012184Y004563D01*
X011932Y004815D01*
X011576Y004815D01*
X011376Y004615D01*
X009909Y004615D01*
X009632Y004615D01*
X009565Y004682D01*
X009754Y004760D01*
X010400Y005406D01*
X010479Y005598D01*
X010479Y005805D01*
X010452Y005871D01*
X010984Y006403D01*
X010984Y006594D01*
X010984Y012047D01*
X011076Y011955D01*
X011432Y011955D01*
X011632Y012155D01*
X012349Y012155D01*
X012484Y012289D01*
X017484Y017289D01*
X017484Y017480D01*
X017484Y018007D01*
X017684Y018207D01*
X017684Y018563D01*
X017432Y018815D01*
X017076Y018815D01*
X016824Y018563D01*
X016824Y018207D01*
X017024Y018007D01*
X017024Y017480D01*
X016734Y017190D01*
X016734Y017230D01*
X016734Y018539D01*
X017984Y019789D01*
X017984Y019980D01*
X017984Y022047D01*
X018076Y021955D01*
X018432Y021955D01*
X018524Y022047D01*
X018524Y018723D01*
X018432Y018815D01*
X018076Y018815D01*
X017824Y018563D01*
X017824Y018207D01*
X018024Y018007D01*
X018024Y012980D01*
X017859Y012815D01*
X017576Y012815D01*
X017324Y012563D01*
X017324Y012207D01*
X017576Y011955D01*
X017932Y011955D01*
X018184Y012207D01*
X018184Y012489D01*
X018484Y012789D01*
X018484Y012980D01*
X018484Y018007D01*
X018524Y018047D01*
X018524Y012289D01*
X018659Y012155D01*
X019024Y011789D01*
X019024Y010764D01*
X018988Y010835D01*
X018951Y010886D01*
X018382Y010317D01*
X018704Y009995D01*
X018941Y010233D01*
X018988Y010298D01*
X019024Y010368D01*
X019024Y009980D01*
X017524Y008480D01*
X017524Y008289D01*
X017524Y007094D01*
X016627Y006197D01*
X016561Y006224D01*
X016353Y006224D01*
X016161Y006144D01*
X015515Y005499D01*
X015436Y005307D01*
X015436Y005099D01*
X015436Y005204D02*
X010198Y005204D01*
X010317Y005322D02*
X015442Y005322D01*
X015491Y005441D02*
X010414Y005441D01*
X010463Y005560D02*
X015576Y005560D01*
X015694Y005678D02*
X010479Y005678D01*
X010479Y005797D02*
X015813Y005797D01*
X015931Y005915D02*
X010496Y005915D01*
X010614Y006034D02*
X011845Y006034D01*
X011883Y006018D02*
X012128Y006018D01*
X012354Y006112D01*
X012527Y006285D01*
X012621Y006511D01*
X012621Y006755D01*
X012527Y006981D01*
X012354Y007154D01*
X012128Y007248D01*
X011883Y007248D01*
X011657Y007154D01*
X011484Y006981D01*
X011391Y006755D01*
X011391Y006511D01*
X011484Y006285D01*
X011657Y006112D01*
X011883Y006018D01*
X012166Y006034D02*
X016050Y006034D01*
X016180Y006152D02*
X014843Y006152D01*
X014841Y006151D02*
X014906Y006198D01*
X015143Y006435D01*
X014822Y006757D01*
X014903Y006838D01*
X015225Y006516D01*
X015462Y006754D01*
X015509Y006819D01*
X015546Y006891D01*
X015571Y006967D01*
X015583Y007047D01*
X015583Y007128D01*
X015571Y007207D01*
X015546Y007284D01*
X015509Y007356D01*
X015472Y007407D01*
X014903Y006838D01*
X014822Y006920D01*
X015391Y007489D01*
X015339Y007526D01*
X015268Y007562D01*
X015191Y007587D01*
X015111Y007600D01*
X015030Y007600D01*
X014951Y007587D01*
X014874Y007562D01*
X014802Y007526D01*
X014737Y007478D01*
X014500Y007241D01*
X014821Y006920D01*
X014740Y006838D01*
X014821Y006757D01*
X014252Y006188D01*
X014304Y006151D01*
X014376Y006114D01*
X014452Y006089D01*
X014532Y006076D01*
X014613Y006076D01*
X014692Y006089D01*
X014769Y006114D01*
X014841Y006151D01*
X014979Y006271D02*
X016701Y006271D01*
X016819Y006389D02*
X015097Y006389D01*
X015070Y006508D02*
X016938Y006508D01*
X017056Y006626D02*
X015335Y006626D01*
X015453Y006745D02*
X017175Y006745D01*
X017294Y006864D02*
X015532Y006864D01*
X015573Y006982D02*
X017412Y006982D01*
X017524Y007101D02*
X015583Y007101D01*
X015567Y007219D02*
X017524Y007219D01*
X017524Y007338D02*
X015518Y007338D01*
X015402Y007338D02*
X015240Y007338D01*
X015284Y007219D02*
X015121Y007219D01*
X015165Y007101D02*
X015003Y007101D01*
X015047Y006982D02*
X014884Y006982D01*
X014878Y006864D02*
X014928Y006864D01*
X014996Y006745D02*
X014833Y006745D01*
X014810Y006745D02*
X014647Y006745D01*
X014691Y006626D02*
X014528Y006626D01*
X014573Y006508D02*
X014410Y006508D01*
X014454Y006389D02*
X014291Y006389D01*
X014336Y006271D02*
X014173Y006271D01*
X014171Y006269D02*
X014740Y006838D01*
X014418Y007160D01*
X014181Y006923D01*
X014134Y006858D01*
X014097Y006786D01*
X014072Y006709D01*
X014060Y006629D01*
X014060Y006549D01*
X014072Y006469D01*
X014097Y006392D01*
X014134Y006320D01*
X014171Y006269D01*
X014170Y006271D02*
X012513Y006271D01*
X012570Y006389D02*
X014099Y006389D01*
X014066Y006508D02*
X012619Y006508D01*
X012621Y006626D02*
X014060Y006626D01*
X014084Y006745D02*
X012621Y006745D01*
X012576Y006864D02*
X014138Y006864D01*
X014241Y006982D02*
X012526Y006982D01*
X012408Y007101D02*
X014359Y007101D01*
X014478Y007101D02*
X014640Y007101D01*
X014596Y006982D02*
X014759Y006982D01*
X014765Y006864D02*
X014715Y006864D01*
X014952Y006626D02*
X015115Y006626D01*
X015358Y007456D02*
X017524Y007456D01*
X017524Y007575D02*
X015229Y007575D01*
X014912Y007575D02*
X010984Y007575D01*
X010984Y007693D02*
X017524Y007693D01*
X017524Y007812D02*
X010984Y007812D01*
X010984Y007930D02*
X017524Y007930D01*
X017524Y008049D02*
X010984Y008049D01*
X010984Y008168D02*
X012814Y008168D01*
X012833Y008159D02*
X013041Y008159D01*
X013233Y008239D01*
X013879Y008884D01*
X013958Y009076D01*
X013958Y009284D01*
X013879Y009476D01*
X013732Y009623D01*
X013540Y009703D01*
X013332Y009703D01*
X013140Y009623D01*
X012494Y008978D01*
X012415Y008786D01*
X012415Y008578D01*
X012494Y008386D01*
X012641Y008239D01*
X012833Y008159D01*
X013061Y008168D02*
X017524Y008168D01*
X017524Y008286D02*
X013280Y008286D01*
X013399Y008405D02*
X017524Y008405D01*
X017567Y008523D02*
X016129Y008523D01*
X016125Y008521D02*
X016351Y008615D01*
X016524Y008788D01*
X016617Y009014D01*
X016617Y009259D01*
X016524Y009485D01*
X016351Y009658D01*
X016125Y009751D01*
X015880Y009751D01*
X015654Y009658D01*
X015481Y009485D01*
X015387Y009259D01*
X015387Y009014D01*
X015481Y008788D01*
X015654Y008615D01*
X015880Y008521D01*
X016125Y008521D01*
X015876Y008523D02*
X013517Y008523D01*
X013636Y008642D02*
X015627Y008642D01*
X015509Y008760D02*
X013754Y008760D01*
X013873Y008879D02*
X015443Y008879D01*
X015394Y008997D02*
X013925Y008997D01*
X013958Y009116D02*
X015387Y009116D01*
X015387Y009234D02*
X013958Y009234D01*
X013930Y009353D02*
X015426Y009353D01*
X015476Y009471D02*
X013881Y009471D01*
X013765Y009590D02*
X015586Y009590D01*
X015777Y009709D02*
X011917Y009709D01*
X011885Y009677D02*
X012122Y009914D01*
X011801Y010236D01*
X011882Y010317D01*
X012204Y009995D01*
X012441Y010233D01*
X012488Y010298D01*
X012525Y010370D01*
X012550Y010446D01*
X012562Y010526D01*
X012562Y010607D01*
X012550Y010686D01*
X012525Y010763D01*
X012488Y010835D01*
X012451Y010886D01*
X011882Y010317D01*
X011801Y010399D01*
X012370Y010968D01*
X012318Y011005D01*
X012246Y011041D01*
X012170Y011066D01*
X012090Y011079D01*
X012009Y011079D01*
X011930Y011066D01*
X011853Y011041D01*
X011781Y011005D01*
X011716Y010957D01*
X011479Y010720D01*
X011800Y010399D01*
X011719Y010317D01*
X011800Y010236D01*
X011231Y009667D01*
X011283Y009630D01*
X011354Y009593D01*
X011431Y009568D01*
X011511Y009555D01*
X011592Y009555D01*
X011671Y009568D01*
X011748Y009593D01*
X011820Y009630D01*
X011885Y009677D01*
X011739Y009590D02*
X013106Y009590D01*
X012988Y009471D02*
X010984Y009471D01*
X010984Y009353D02*
X012869Y009353D01*
X012751Y009234D02*
X010984Y009234D01*
X010984Y009116D02*
X012632Y009116D01*
X012514Y008997D02*
X010984Y008997D01*
X010984Y008879D02*
X012453Y008879D01*
X012415Y008760D02*
X010984Y008760D01*
X010984Y008642D02*
X012415Y008642D01*
X012437Y008523D02*
X010984Y008523D01*
X010984Y008405D02*
X012486Y008405D01*
X012594Y008286D02*
X010984Y008286D01*
X010984Y007456D02*
X014715Y007456D01*
X014596Y007338D02*
X010984Y007338D01*
X010984Y007219D02*
X011813Y007219D01*
X011603Y007101D02*
X010984Y007101D01*
X010984Y006982D02*
X011485Y006982D01*
X011435Y006864D02*
X010984Y006864D01*
X010984Y006745D02*
X011391Y006745D01*
X011391Y006626D02*
X010984Y006626D01*
X010984Y006508D02*
X011392Y006508D01*
X011441Y006389D02*
X010970Y006389D01*
X010851Y006271D02*
X011498Y006271D01*
X011617Y006152D02*
X010733Y006152D01*
X010438Y006508D02*
X008570Y006508D01*
X008643Y006435D02*
X008322Y006757D01*
X008403Y006838D01*
X008725Y006516D01*
X008962Y006754D01*
X009009Y006819D01*
X009046Y006891D01*
X009071Y006967D01*
X009083Y007047D01*
X009083Y007128D01*
X009071Y007207D01*
X009046Y007284D01*
X009009Y007356D01*
X008972Y007407D01*
X008403Y006838D01*
X008322Y006920D01*
X008891Y007489D01*
X008839Y007526D01*
X008768Y007562D01*
X008691Y007587D01*
X008611Y007600D01*
X008530Y007600D01*
X008451Y007587D01*
X008374Y007562D01*
X008302Y007526D01*
X008237Y007478D01*
X008000Y007241D01*
X008321Y006920D01*
X008240Y006838D01*
X008321Y006757D01*
X007752Y006188D01*
X007804Y006151D01*
X007876Y006114D01*
X007952Y006089D01*
X008032Y006076D01*
X008113Y006076D01*
X008192Y006089D01*
X008269Y006114D01*
X008341Y006151D01*
X008406Y006198D01*
X008643Y006435D01*
X008597Y006389D02*
X010319Y006389D01*
X010201Y006271D02*
X008479Y006271D01*
X008343Y006152D02*
X009680Y006152D01*
X009550Y006034D02*
X005458Y006034D01*
X005576Y005915D02*
X009431Y005915D01*
X009313Y005797D02*
X005695Y005797D01*
X005814Y005678D02*
X009194Y005678D01*
X009076Y005560D02*
X005932Y005560D01*
X006017Y005441D02*
X008991Y005441D01*
X008942Y005322D02*
X006066Y005322D01*
X006072Y005204D02*
X008936Y005204D01*
X008941Y005085D02*
X006067Y005085D01*
X006017Y004967D02*
X008990Y004967D01*
X009074Y004848D02*
X005934Y004848D01*
X005773Y004730D02*
X008991Y004730D01*
X008872Y004611D02*
X008353Y004611D01*
X008471Y004493D02*
X008824Y004493D01*
X008824Y004374D02*
X008590Y004374D01*
X008708Y004256D02*
X008824Y004256D01*
X008827Y004137D02*
X008894Y004137D01*
X008945Y004019D02*
X009012Y004019D01*
X009064Y003900D02*
X009737Y003900D01*
X009737Y004019D02*
X009496Y004019D01*
X009614Y004137D02*
X009737Y004137D01*
X009967Y004347D02*
X010004Y004385D01*
X011754Y004385D01*
X011491Y004730D02*
X009681Y004730D01*
X009842Y004848D02*
X015574Y004848D01*
X015505Y004730D02*
X012017Y004730D01*
X012136Y004611D02*
X015387Y004611D01*
X015334Y004493D02*
X012184Y004493D01*
X012184Y004374D02*
X015734Y004374D01*
X015774Y004374D02*
X017271Y004374D01*
X017258Y004355D02*
X017258Y004355D01*
X017228Y004256D02*
X016174Y004256D01*
X016100Y004137D02*
X017191Y004137D01*
X017155Y004019D02*
X015982Y004019D01*
X015774Y004019D02*
X015734Y004019D01*
X015734Y004137D02*
X015774Y004137D01*
X015774Y004256D02*
X015734Y004256D01*
X015526Y004019D02*
X011996Y004019D01*
X012114Y004137D02*
X015408Y004137D01*
X015334Y004256D02*
X012184Y004256D01*
X011512Y004019D02*
X010197Y004019D01*
X010197Y004137D02*
X011394Y004137D01*
X010910Y003307D02*
X012205Y003307D01*
X012226Y003314D02*
X012160Y003292D01*
X012098Y003261D01*
X012042Y003220D01*
X011993Y003171D01*
X011952Y003115D01*
X011921Y003054D01*
X011900Y002988D01*
X011889Y002919D01*
X011889Y002894D01*
X012320Y002894D01*
X012320Y003325D01*
X012294Y003325D01*
X012226Y003314D01*
X012320Y003307D02*
X012338Y003307D01*
X012338Y003325D02*
X012363Y003325D01*
X012432Y003314D01*
X012498Y003292D01*
X012559Y003261D01*
X012615Y003220D01*
X012664Y003171D01*
X012705Y003115D01*
X012737Y003054D01*
X012758Y002988D01*
X012769Y002919D01*
X012769Y002894D01*
X012338Y002894D01*
X012320Y002894D01*
X012320Y002876D01*
X011889Y002876D01*
X011889Y002850D01*
X011900Y002782D01*
X011921Y002716D01*
X011952Y002654D01*
X011993Y002598D01*
X012042Y002549D01*
X012098Y002508D01*
X012160Y002477D01*
X012226Y002456D01*
X012294Y002445D01*
X012320Y002445D01*
X012320Y002876D01*
X012338Y002876D01*
X012338Y002894D01*
X012338Y003325D01*
X012452Y003307D02*
X013337Y003307D01*
X013347Y003321D02*
X013295Y003252D01*
X013251Y003177D01*
X013218Y003097D01*
X013196Y003014D01*
X013187Y002945D01*
X013784Y002945D01*
X013784Y002825D01*
X013187Y002825D01*
X013196Y002756D01*
X013218Y002672D01*
X013251Y002592D01*
X013295Y002517D01*
X013347Y002449D01*
X013408Y002387D01*
X013477Y002335D01*
X013552Y002291D01*
X013632Y002258D01*
X013716Y002236D01*
X013785Y002227D01*
X013785Y002825D01*
X013904Y002825D01*
X013904Y002227D01*
X013974Y002236D01*
X014057Y002258D01*
X014137Y002291D01*
X014212Y002335D01*
X014281Y002387D01*
X014342Y002449D01*
X014394Y002517D01*
X014438Y002592D01*
X014471Y002672D01*
X014493Y002756D01*
X014502Y002825D01*
X013905Y002825D01*
X013905Y002945D01*
X014502Y002945D01*
X014493Y003014D01*
X014471Y003097D01*
X014438Y003177D01*
X014394Y003252D01*
X014342Y003321D01*
X014281Y003382D01*
X014212Y003435D01*
X014137Y003478D01*
X014057Y003511D01*
X013974Y003533D01*
X013904Y003542D01*
X013904Y002945D01*
X013785Y002945D01*
X013785Y003542D01*
X013716Y003533D01*
X013632Y003511D01*
X013552Y003478D01*
X013477Y003435D01*
X013408Y003382D01*
X013347Y003321D01*
X013466Y003426D02*
X010197Y003426D01*
X010197Y003544D02*
X017113Y003544D01*
X017113Y003426D02*
X014224Y003426D01*
X014352Y003307D02*
X017137Y003307D01*
X017113Y003387D02*
X017113Y003387D01*
X017174Y003189D02*
X014431Y003189D01*
X014478Y003070D02*
X017210Y003070D01*
X017247Y002952D02*
X014501Y002952D01*
X014482Y002715D02*
X017395Y002715D01*
X017314Y002833D02*
X013905Y002833D01*
X013904Y002715D02*
X013785Y002715D01*
X013784Y002833D02*
X012766Y002833D01*
X012769Y002850D02*
X012769Y002876D01*
X012338Y002876D01*
X012338Y002445D01*
X012363Y002445D01*
X012432Y002456D01*
X012498Y002477D01*
X012559Y002508D01*
X012615Y002549D01*
X012664Y002598D01*
X012705Y002654D01*
X012737Y002716D01*
X012758Y002782D01*
X012769Y002850D01*
X012764Y002952D02*
X013188Y002952D01*
X013211Y003070D02*
X012728Y003070D01*
X012647Y003189D02*
X013258Y003189D01*
X013207Y002715D02*
X012736Y002715D01*
X012662Y002596D02*
X013250Y002596D01*
X013325Y002477D02*
X012499Y002477D01*
X012338Y002477D02*
X012320Y002477D01*
X012320Y002596D02*
X012338Y002596D01*
X012338Y002715D02*
X012320Y002715D01*
X012320Y002833D02*
X012338Y002833D01*
X012338Y002952D02*
X012320Y002952D01*
X012320Y003070D02*
X012338Y003070D01*
X012338Y003189D02*
X012320Y003189D01*
X012011Y003189D02*
X011086Y003189D01*
X011164Y003070D02*
X011929Y003070D01*
X011894Y002952D02*
X011204Y002952D01*
X011204Y002833D02*
X011891Y002833D01*
X011922Y002715D02*
X011171Y002715D01*
X011102Y002596D02*
X011995Y002596D01*
X012159Y002477D02*
X010947Y002477D01*
X010561Y002477D02*
X010159Y002477D01*
X010314Y002596D02*
X010406Y002596D01*
X010422Y003189D02*
X010299Y003189D01*
X010197Y003307D02*
X010598Y003307D01*
X010197Y003663D02*
X017113Y003663D01*
X017113Y003781D02*
X010197Y003781D01*
X010197Y003900D02*
X017118Y003900D01*
X017113Y003882D02*
X017113Y003882D01*
X017352Y004493D02*
X016174Y004493D01*
X016121Y004611D02*
X017433Y004611D01*
X017514Y004730D02*
X016181Y004730D01*
X016342Y004848D02*
X017643Y004848D01*
X017792Y004967D02*
X016461Y004967D01*
X016580Y005085D02*
X017957Y005085D01*
X017924Y005072D02*
X017924Y005072D01*
X018259Y005204D02*
X016698Y005204D01*
X016817Y005322D02*
X020244Y005322D01*
X020244Y005204D02*
X019255Y005204D01*
X019360Y005180D02*
X019360Y005180D01*
X019524Y005085D02*
X020244Y005085D01*
X020244Y004967D02*
X019729Y004967D01*
X019789Y004933D02*
X019789Y004933D01*
X019867Y004848D02*
X020244Y004848D01*
X020244Y004730D02*
X019977Y004730D01*
X020087Y004611D02*
X020244Y004611D01*
X020244Y004493D02*
X020163Y004493D01*
X020126Y004570D02*
X020126Y004570D01*
X020220Y004374D02*
X020244Y004374D01*
X020244Y005441D02*
X016914Y005441D01*
X016963Y005560D02*
X020244Y005560D01*
X020244Y005678D02*
X016979Y005678D01*
X016979Y005797D02*
X020244Y005797D01*
X020244Y005915D02*
X016996Y005915D01*
X017114Y006034D02*
X018345Y006034D01*
X018117Y006152D02*
X017233Y006152D01*
X017351Y006271D02*
X017998Y006271D01*
X017941Y006389D02*
X017470Y006389D01*
X017588Y006508D02*
X017892Y006508D01*
X017891Y006626D02*
X017707Y006626D01*
X017825Y006745D02*
X017891Y006745D01*
X017984Y006981D02*
X017984Y006981D01*
X017984Y006982D02*
X017985Y006982D01*
X017984Y007101D02*
X018103Y007101D01*
X017984Y007219D02*
X018313Y007219D01*
X018698Y007219D02*
X020244Y007219D01*
X020244Y007101D02*
X018908Y007101D01*
X019026Y006982D02*
X020244Y006982D01*
X020244Y006864D02*
X019076Y006864D01*
X019121Y006745D02*
X020244Y006745D01*
X020244Y006626D02*
X019121Y006626D01*
X019119Y006508D02*
X020244Y006508D01*
X020244Y006389D02*
X019070Y006389D01*
X019013Y006271D02*
X020244Y006271D01*
X020244Y006152D02*
X018894Y006152D01*
X018666Y006034D02*
X020244Y006034D01*
X020244Y007338D02*
X017984Y007338D01*
X017984Y007456D02*
X020244Y007456D01*
X020244Y007575D02*
X017984Y007575D01*
X017984Y007693D02*
X020244Y007693D01*
X020244Y007812D02*
X017984Y007812D01*
X017984Y007930D02*
X020244Y007930D01*
X020244Y008049D02*
X017984Y008049D01*
X017984Y008168D02*
X019314Y008168D01*
X019561Y008168D02*
X020244Y008168D01*
X020244Y008286D02*
X019780Y008286D01*
X019899Y008405D02*
X020244Y008405D01*
X020244Y008523D02*
X020017Y008523D01*
X020136Y008642D02*
X020244Y008642D01*
X020244Y009709D02*
X019403Y009709D01*
X019484Y009827D02*
X020244Y009827D01*
X020244Y009946D02*
X019484Y009946D01*
X019484Y010064D02*
X020244Y010064D01*
X020244Y010183D02*
X019484Y010183D01*
X019484Y010301D02*
X020244Y010301D01*
X020244Y010420D02*
X019484Y010420D01*
X019484Y010538D02*
X020244Y010538D01*
X020244Y010657D02*
X019484Y010657D01*
X019484Y010775D02*
X020244Y010775D01*
X020244Y010894D02*
X019484Y010894D01*
X019484Y011013D02*
X020244Y011013D01*
X020244Y011131D02*
X019484Y011131D01*
X019484Y011250D02*
X020244Y011250D01*
X020244Y011368D02*
X019484Y011368D01*
X019484Y011487D02*
X020244Y011487D01*
X020244Y011605D02*
X019484Y011605D01*
X019484Y011724D02*
X020244Y011724D01*
X020244Y011842D02*
X019484Y011842D01*
X019484Y011961D02*
X020244Y011961D01*
X020244Y012079D02*
X019384Y012079D01*
X019266Y012198D02*
X020244Y012198D01*
X020244Y012317D02*
X019147Y012317D01*
X019029Y012435D02*
X020244Y012435D01*
X020244Y012554D02*
X019728Y012554D01*
X019847Y012672D02*
X020244Y012672D01*
X020244Y012791D02*
X019965Y012791D01*
X020084Y012909D02*
X020244Y012909D01*
X020194Y013225D02*
X020074Y013225D01*
X019584Y012735D01*
X019474Y012735D01*
X019474Y013225D01*
X019641Y013383D02*
X019908Y013383D01*
X019964Y013502D02*
X018984Y013502D01*
X018984Y013621D02*
X019280Y013621D01*
X019244Y013739D02*
X018984Y013739D01*
X018984Y013858D02*
X019254Y013858D01*
X019373Y013976D02*
X018984Y013976D01*
X018984Y014095D02*
X019479Y014095D01*
X019379Y014195D02*
X019379Y014195D01*
X019360Y014213D02*
X018984Y014213D01*
X018984Y014332D02*
X019244Y014332D01*
X019244Y014450D02*
X018984Y014450D01*
X018984Y014806D02*
X019290Y014806D01*
X019409Y014924D02*
X018984Y014924D01*
X018984Y015043D02*
X019310Y015043D01*
X019234Y015162D02*
X018984Y015162D01*
X018984Y015280D02*
X019234Y015280D01*
X019234Y015399D02*
X018984Y015399D01*
X018984Y015517D02*
X019234Y015517D01*
X019320Y015636D02*
X018984Y015636D01*
X018984Y015754D02*
X019438Y015754D01*
X019341Y015873D02*
X018984Y015873D01*
X018984Y015991D02*
X019224Y015991D01*
X019224Y016110D02*
X018984Y016110D01*
X018984Y016228D02*
X019224Y016228D01*
X019224Y016347D02*
X018984Y016347D01*
X018984Y016466D02*
X019224Y016466D01*
X019224Y016584D02*
X018984Y016584D01*
X018984Y016703D02*
X019224Y016703D01*
X019224Y016821D02*
X018984Y016821D01*
X018984Y016940D02*
X019254Y016940D01*
X019372Y017058D02*
X018984Y017058D01*
X018984Y017177D02*
X020244Y017177D01*
X020244Y017295D02*
X018984Y017295D01*
X018984Y017414D02*
X020244Y017414D01*
X020244Y017532D02*
X018984Y017532D01*
X018984Y017651D02*
X020244Y017651D01*
X020244Y017770D02*
X018984Y017770D01*
X018984Y017888D02*
X020244Y017888D01*
X020244Y018007D02*
X019470Y018007D01*
X019588Y018125D02*
X020244Y018125D01*
X020244Y018244D02*
X019674Y018244D01*
X019674Y018362D02*
X020244Y018362D01*
X020244Y018481D02*
X019674Y018481D01*
X019674Y018405D02*
X019674Y018559D01*
X019428Y018805D01*
X019274Y018805D01*
X019274Y018405D01*
X019674Y018405D01*
X019633Y018599D02*
X020244Y018599D01*
X020244Y018718D02*
X019515Y018718D01*
X019274Y018718D02*
X019234Y018718D01*
X019234Y018599D02*
X019274Y018599D01*
X019274Y018481D02*
X019234Y018481D01*
X019234Y018362D02*
X019274Y018362D01*
X019274Y018244D02*
X019234Y018244D01*
X019234Y018125D02*
X019274Y018125D01*
X019274Y018007D02*
X019234Y018007D01*
X019038Y018007D02*
X018984Y018007D01*
X018524Y018007D02*
X018484Y018007D01*
X018484Y017888D02*
X018524Y017888D01*
X018524Y017770D02*
X018484Y017770D01*
X018484Y017651D02*
X018524Y017651D01*
X018524Y017532D02*
X018484Y017532D01*
X018484Y017414D02*
X018524Y017414D01*
X018524Y017295D02*
X018484Y017295D01*
X018484Y017177D02*
X018524Y017177D01*
X018524Y017058D02*
X018484Y017058D01*
X018484Y016940D02*
X018524Y016940D01*
X018524Y016821D02*
X018484Y016821D01*
X018484Y016703D02*
X018524Y016703D01*
X018524Y016584D02*
X018484Y016584D01*
X018484Y016466D02*
X018524Y016466D01*
X018524Y016347D02*
X018484Y016347D01*
X018484Y016228D02*
X018524Y016228D01*
X018524Y016110D02*
X018484Y016110D01*
X018484Y015991D02*
X018524Y015991D01*
X018524Y015873D02*
X018484Y015873D01*
X018484Y015754D02*
X018524Y015754D01*
X018524Y015636D02*
X018484Y015636D01*
X018484Y015517D02*
X018524Y015517D01*
X018524Y015399D02*
X018484Y015399D01*
X018484Y015280D02*
X018524Y015280D01*
X018524Y015162D02*
X018484Y015162D01*
X018484Y015043D02*
X018524Y015043D01*
X018524Y014924D02*
X018484Y014924D01*
X018484Y014806D02*
X018524Y014806D01*
X018524Y014687D02*
X018484Y014687D01*
X018484Y014569D02*
X018524Y014569D01*
X018524Y014450D02*
X018484Y014450D01*
X018484Y014332D02*
X018524Y014332D01*
X018524Y014213D02*
X018484Y014213D01*
X018484Y014095D02*
X018524Y014095D01*
X018524Y013976D02*
X018484Y013976D01*
X018484Y013858D02*
X018524Y013858D01*
X018524Y013739D02*
X018484Y013739D01*
X018484Y013621D02*
X018524Y013621D01*
X018524Y013502D02*
X018484Y013502D01*
X018484Y013383D02*
X018524Y013383D01*
X018524Y013265D02*
X018484Y013265D01*
X018484Y013146D02*
X018524Y013146D01*
X018524Y013028D02*
X018484Y013028D01*
X018484Y012909D02*
X018524Y012909D01*
X018524Y012791D02*
X018484Y012791D01*
X018524Y012672D02*
X018367Y012672D01*
X018248Y012554D02*
X018524Y012554D01*
X018524Y012435D02*
X018184Y012435D01*
X018184Y012317D02*
X018524Y012317D01*
X018615Y012198D02*
X018175Y012198D01*
X018057Y012079D02*
X018734Y012079D01*
X018853Y011961D02*
X017938Y011961D01*
X017754Y012385D02*
X018254Y012885D01*
X018254Y018385D01*
X017979Y018718D02*
X017529Y018718D01*
X017647Y018599D02*
X017861Y018599D01*
X017824Y018481D02*
X017684Y018481D01*
X017684Y018362D02*
X017824Y018362D01*
X017824Y018244D02*
X017684Y018244D01*
X017602Y018125D02*
X017905Y018125D01*
X018024Y018007D02*
X017484Y018007D01*
X017484Y017888D02*
X018024Y017888D01*
X018024Y017770D02*
X017484Y017770D01*
X017484Y017651D02*
X018024Y017651D01*
X018024Y017532D02*
X017484Y017532D01*
X017484Y017414D02*
X018024Y017414D01*
X018024Y017295D02*
X017484Y017295D01*
X017371Y017177D02*
X018024Y017177D01*
X018024Y017058D02*
X017253Y017058D01*
X017134Y016940D02*
X018024Y016940D01*
X018024Y016821D02*
X017016Y016821D01*
X016897Y016703D02*
X018024Y016703D01*
X018024Y016584D02*
X016779Y016584D01*
X016660Y016466D02*
X018024Y016466D01*
X018024Y016347D02*
X016542Y016347D01*
X016423Y016228D02*
X018024Y016228D01*
X018024Y016110D02*
X016304Y016110D01*
X016186Y015991D02*
X018024Y015991D01*
X018024Y015873D02*
X016067Y015873D01*
X015949Y015754D02*
X018024Y015754D01*
X018024Y015636D02*
X015830Y015636D01*
X015712Y015517D02*
X018024Y015517D01*
X018024Y015399D02*
X015593Y015399D01*
X015475Y015280D02*
X018024Y015280D01*
X018024Y015162D02*
X015356Y015162D01*
X015238Y015043D02*
X018024Y015043D01*
X018024Y014924D02*
X015119Y014924D01*
X015000Y014806D02*
X018024Y014806D01*
X018024Y014687D02*
X014882Y014687D01*
X014763Y014569D02*
X018024Y014569D01*
X018024Y014450D02*
X014645Y014450D01*
X014526Y014332D02*
X018024Y014332D01*
X018024Y014213D02*
X014408Y014213D01*
X014289Y014095D02*
X018024Y014095D01*
X018024Y013976D02*
X014171Y013976D01*
X014052Y013858D02*
X018024Y013858D01*
X018024Y013739D02*
X013934Y013739D01*
X013815Y013621D02*
X018024Y013621D01*
X018024Y013502D02*
X013696Y013502D01*
X013578Y013383D02*
X018024Y013383D01*
X018024Y013265D02*
X013459Y013265D01*
X013341Y013146D02*
X018024Y013146D01*
X018024Y013028D02*
X013222Y013028D01*
X013104Y012909D02*
X017953Y012909D01*
X017552Y012791D02*
X016942Y012791D01*
X016928Y012805D02*
X016774Y012805D01*
X016774Y012405D01*
X016734Y012405D01*
X016734Y012805D01*
X016580Y012805D01*
X016334Y012559D01*
X016334Y012405D01*
X016734Y012405D01*
X016734Y012365D01*
X016334Y012365D01*
X016334Y012211D01*
X016580Y011965D01*
X016734Y011965D01*
X016734Y012364D01*
X016774Y012364D01*
X016774Y011965D01*
X016928Y011965D01*
X017174Y012211D01*
X017174Y012365D01*
X016774Y012365D01*
X016774Y012405D01*
X017174Y012405D01*
X017174Y012559D01*
X016928Y012805D01*
X016774Y012791D02*
X016734Y012791D01*
X016734Y012672D02*
X016774Y012672D01*
X016774Y012554D02*
X016734Y012554D01*
X016734Y012435D02*
X016774Y012435D01*
X016774Y012317D02*
X016734Y012317D01*
X016734Y012198D02*
X016774Y012198D01*
X016774Y012079D02*
X016734Y012079D01*
X016465Y012079D02*
X011557Y012079D01*
X011438Y011961D02*
X017570Y011961D01*
X017451Y012079D02*
X017043Y012079D01*
X017161Y012198D02*
X017333Y012198D01*
X017324Y012317D02*
X017174Y012317D01*
X017174Y012435D02*
X017324Y012435D01*
X017324Y012554D02*
X017174Y012554D01*
X017060Y012672D02*
X017433Y012672D01*
X016566Y012791D02*
X012985Y012791D01*
X012867Y012672D02*
X016448Y012672D01*
X016334Y012554D02*
X012748Y012554D01*
X012630Y012435D02*
X016334Y012435D01*
X016334Y012317D02*
X012511Y012317D01*
X012393Y012198D02*
X016347Y012198D01*
X017660Y010402D02*
X017613Y010336D01*
X017576Y010265D01*
X017551Y010188D01*
X017539Y010108D01*
X017539Y010028D01*
X017551Y009948D01*
X017576Y009871D01*
X017613Y009799D01*
X017650Y009748D01*
X018219Y010317D01*
X018300Y010236D01*
X017731Y009667D01*
X017783Y009630D01*
X017854Y009593D01*
X017931Y009568D01*
X018011Y009555D01*
X018092Y009555D01*
X018171Y009568D01*
X018248Y009593D01*
X018320Y009630D01*
X018385Y009677D01*
X018622Y009914D01*
X018301Y010236D01*
X018382Y010317D01*
X018301Y010399D01*
X018870Y010968D01*
X018818Y011005D01*
X018746Y011041D01*
X018670Y011066D01*
X018590Y011079D01*
X018509Y011079D01*
X018430Y011066D01*
X018353Y011041D01*
X018281Y011005D01*
X018216Y010957D01*
X017979Y010720D01*
X018300Y010399D01*
X018219Y010317D01*
X017897Y010639D01*
X017660Y010402D01*
X017678Y010420D02*
X012541Y010420D01*
X012562Y010538D02*
X017797Y010538D01*
X017998Y010538D02*
X018161Y010538D01*
X018116Y010420D02*
X018279Y010420D01*
X018322Y010420D02*
X018485Y010420D01*
X018440Y010538D02*
X018603Y010538D01*
X018559Y010657D02*
X018722Y010657D01*
X018677Y010775D02*
X018840Y010775D01*
X018796Y010894D02*
X019024Y010894D01*
X019018Y010775D02*
X019024Y010775D01*
X019024Y011013D02*
X018803Y011013D01*
X019024Y011131D02*
X010984Y011131D01*
X010984Y011013D02*
X011797Y011013D01*
X011653Y010894D02*
X010984Y010894D01*
X010984Y010775D02*
X011534Y010775D01*
X011542Y010657D02*
X010984Y010657D01*
X010984Y010538D02*
X011297Y010538D01*
X011397Y010639D02*
X011160Y010402D01*
X011113Y010336D01*
X011076Y010265D01*
X011051Y010188D01*
X011039Y010108D01*
X011039Y010028D01*
X011051Y009948D01*
X011076Y009871D01*
X011113Y009799D01*
X011150Y009748D01*
X011719Y010317D01*
X011397Y010639D01*
X011498Y010538D02*
X011661Y010538D01*
X011616Y010420D02*
X011779Y010420D01*
X011822Y010420D02*
X011985Y010420D01*
X011940Y010538D02*
X012103Y010538D01*
X012059Y010657D02*
X012222Y010657D01*
X012177Y010775D02*
X012340Y010775D01*
X012296Y010894D02*
X018153Y010894D01*
X018034Y010775D02*
X012518Y010775D01*
X012554Y010657D02*
X018042Y010657D01*
X018203Y010301D02*
X018235Y010301D01*
X018247Y010183D02*
X018085Y010183D01*
X018129Y010064D02*
X017966Y010064D01*
X018010Y009946D02*
X017848Y009946D01*
X017892Y009827D02*
X017729Y009827D01*
X017773Y009709D02*
X016228Y009709D01*
X016418Y009590D02*
X017863Y009590D01*
X018239Y009590D02*
X018634Y009590D01*
X018516Y009471D02*
X016529Y009471D01*
X016578Y009353D02*
X018397Y009353D01*
X018278Y009234D02*
X016617Y009234D01*
X016617Y009116D02*
X018160Y009116D01*
X018041Y008997D02*
X016610Y008997D01*
X016561Y008879D02*
X017923Y008879D01*
X017804Y008760D02*
X016496Y008760D01*
X016378Y008642D02*
X017686Y008642D01*
X017754Y008385D02*
X019254Y009885D01*
X019254Y011885D01*
X018754Y012385D01*
X018754Y023385D01*
X017754Y024385D01*
X017754Y031385D01*
X014254Y034885D01*
X014254Y037385D01*
X013984Y037329D02*
X013974Y037329D01*
X013754Y036885D02*
X013754Y034885D01*
X017254Y031385D01*
X017254Y024385D01*
X018254Y023385D01*
X018254Y022385D01*
X017994Y022037D02*
X017984Y022037D01*
X017984Y021919D02*
X018524Y021919D01*
X018514Y022037D02*
X018524Y022037D01*
X018524Y021800D02*
X017984Y021800D01*
X017984Y021681D02*
X018524Y021681D01*
X018524Y021563D02*
X017984Y021563D01*
X017984Y021444D02*
X018524Y021444D01*
X018524Y021326D02*
X017984Y021326D01*
X017984Y021207D02*
X018524Y021207D01*
X018524Y021089D02*
X017984Y021089D01*
X017984Y020970D02*
X018524Y020970D01*
X018524Y020852D02*
X017984Y020852D01*
X017984Y020733D02*
X018524Y020733D01*
X018524Y020615D02*
X017984Y020615D01*
X017984Y020496D02*
X018524Y020496D01*
X018524Y020377D02*
X017984Y020377D01*
X017984Y020259D02*
X018524Y020259D01*
X018524Y020140D02*
X017984Y020140D01*
X017984Y020022D02*
X018524Y020022D01*
X018524Y019903D02*
X017984Y019903D01*
X017979Y019785D02*
X018524Y019785D01*
X018524Y019666D02*
X017861Y019666D01*
X017742Y019548D02*
X018524Y019548D01*
X018524Y019429D02*
X017624Y019429D01*
X017505Y019311D02*
X018524Y019311D01*
X018524Y019192D02*
X017387Y019192D01*
X017268Y019074D02*
X018524Y019074D01*
X018524Y018955D02*
X017149Y018955D01*
X017031Y018836D02*
X018524Y018836D01*
X018984Y018836D02*
X020244Y018836D01*
X020244Y018955D02*
X018984Y018955D01*
X018984Y019074D02*
X020244Y019074D01*
X020244Y019192D02*
X018984Y019192D01*
X018984Y019311D02*
X020244Y019311D01*
X020244Y019429D02*
X018984Y019429D01*
X018984Y019548D02*
X020244Y019548D01*
X020244Y019666D02*
X018984Y019666D01*
X018984Y019785D02*
X020244Y019785D01*
X020244Y019903D02*
X018984Y019903D01*
X018984Y020022D02*
X020244Y020022D01*
X020244Y020140D02*
X018984Y020140D01*
X018984Y020259D02*
X020244Y020259D01*
X020244Y020377D02*
X018984Y020377D01*
X018984Y020496D02*
X020244Y020496D01*
X020244Y020615D02*
X018984Y020615D01*
X018984Y020733D02*
X020244Y020733D01*
X020244Y020852D02*
X018984Y020852D01*
X018984Y020970D02*
X020244Y020970D01*
X020244Y021089D02*
X018984Y021089D01*
X018984Y021207D02*
X020244Y021207D01*
X020244Y021326D02*
X018984Y021326D01*
X018984Y021444D02*
X020244Y021444D01*
X020244Y021563D02*
X018984Y021563D01*
X018984Y021681D02*
X020244Y021681D01*
X020244Y021800D02*
X018984Y021800D01*
X018984Y021919D02*
X020244Y021919D01*
X020244Y022037D02*
X019514Y022037D01*
X019633Y022156D02*
X020244Y022156D01*
X020244Y022274D02*
X019684Y022274D01*
X019684Y022393D02*
X020244Y022393D01*
X020244Y022511D02*
X019684Y022511D01*
X019617Y022630D02*
X020244Y022630D01*
X020244Y022748D02*
X019498Y022748D01*
X019484Y022867D02*
X020244Y022867D01*
X020244Y022985D02*
X019484Y022985D01*
X019484Y023104D02*
X020244Y023104D01*
X020244Y023223D02*
X019484Y023223D01*
X019484Y023341D02*
X020244Y023341D01*
X020244Y023460D02*
X019484Y023460D01*
X019484Y023578D02*
X020244Y023578D01*
X020244Y023697D02*
X019484Y023697D01*
X019484Y023815D02*
X020244Y023815D01*
X020244Y023934D02*
X019484Y023934D01*
X019484Y024052D02*
X020244Y024052D01*
X020244Y024171D02*
X019484Y024171D01*
X019484Y024289D02*
X020244Y024289D01*
X020244Y024408D02*
X019484Y024408D01*
X019484Y024526D02*
X020244Y024526D01*
X020244Y024645D02*
X019484Y024645D01*
X019484Y024764D02*
X020244Y024764D01*
X020244Y024882D02*
X019484Y024882D01*
X019484Y025001D02*
X020244Y025001D01*
X020244Y025119D02*
X019484Y025119D01*
X019484Y025238D02*
X020244Y025238D01*
X020244Y025356D02*
X019484Y025356D01*
X019484Y025475D02*
X020244Y025475D01*
X020244Y025593D02*
X019484Y025593D01*
X019484Y025712D02*
X020244Y025712D01*
X020244Y025830D02*
X019484Y025830D01*
X019484Y025949D02*
X020244Y025949D01*
X020244Y026068D02*
X019484Y026068D01*
X019484Y026186D02*
X020244Y026186D01*
X020244Y026305D02*
X019484Y026305D01*
X019484Y026423D02*
X020244Y026423D01*
X020244Y026542D02*
X019484Y026542D01*
X019484Y026660D02*
X020244Y026660D01*
X020244Y026779D02*
X019484Y026779D01*
X019484Y026897D02*
X020244Y026897D01*
X020244Y027016D02*
X019484Y027016D01*
X019484Y027134D02*
X020244Y027134D01*
X020244Y027253D02*
X019484Y027253D01*
X019484Y027372D02*
X020244Y027372D01*
X020244Y027490D02*
X019484Y027490D01*
X019484Y027609D02*
X020244Y027609D01*
X020244Y027727D02*
X019484Y027727D01*
X019484Y027846D02*
X020244Y027846D01*
X020244Y027964D02*
X019484Y027964D01*
X019484Y028083D02*
X020244Y028083D01*
X020244Y028201D02*
X019484Y028201D01*
X019484Y028320D02*
X020244Y028320D01*
X020244Y028438D02*
X019484Y028438D01*
X019484Y028557D02*
X020244Y028557D01*
X020244Y028676D02*
X019484Y028676D01*
X019484Y028794D02*
X020244Y028794D01*
X020244Y028913D02*
X019484Y028913D01*
X019484Y029031D02*
X020244Y029031D01*
X020244Y029150D02*
X019484Y029150D01*
X019484Y029268D02*
X020244Y029268D01*
X020244Y029387D02*
X019484Y029387D01*
X019484Y029505D02*
X020244Y029505D01*
X020244Y029624D02*
X019484Y029624D01*
X019484Y029742D02*
X020244Y029742D01*
X020244Y029861D02*
X019484Y029861D01*
X019484Y029979D02*
X020244Y029979D01*
X020244Y030098D02*
X019484Y030098D01*
X019484Y030217D02*
X020244Y030217D01*
X020244Y030335D02*
X019484Y030335D01*
X019484Y030454D02*
X020244Y030454D01*
X020244Y030572D02*
X019392Y030572D01*
X019291Y030691D02*
X019273Y030691D01*
X019254Y030385D02*
X019254Y022385D01*
X018994Y022037D02*
X018984Y022037D01*
X017524Y022037D02*
X017514Y022037D01*
X017524Y021919D02*
X016046Y021919D01*
X016046Y022037D02*
X016994Y022037D01*
X016875Y022156D02*
X016018Y022156D01*
X015969Y022274D02*
X016824Y022274D01*
X016824Y022393D02*
X015853Y022393D01*
X015756Y022511D02*
X016824Y022511D01*
X016891Y022630D02*
X015756Y022630D01*
X015756Y022748D02*
X017010Y022748D01*
X017024Y022867D02*
X015756Y022867D01*
X015756Y022985D02*
X017024Y022985D01*
X017024Y023104D02*
X015756Y023104D01*
X015756Y023223D02*
X017024Y023223D01*
X016972Y023341D02*
X015756Y023341D01*
X015756Y023460D02*
X016854Y023460D01*
X016735Y023578D02*
X015756Y023578D01*
X015756Y023697D02*
X016617Y023697D01*
X016498Y023815D02*
X015756Y023815D01*
X015756Y023934D02*
X016380Y023934D01*
X016261Y024052D02*
X015756Y024052D01*
X015756Y024171D02*
X016143Y024171D01*
X016024Y024289D02*
X015756Y024289D01*
X015756Y024408D02*
X015906Y024408D01*
X015787Y024526D02*
X015756Y024526D01*
X015526Y024613D02*
X015526Y021635D01*
X016046Y021681D02*
X017524Y021681D01*
X017524Y021563D02*
X016046Y021563D01*
X016046Y021444D02*
X017524Y021444D01*
X017524Y021326D02*
X016046Y021326D01*
X016046Y021207D02*
X017524Y021207D01*
X017524Y021089D02*
X016007Y021089D01*
X015946Y020970D02*
X017524Y020970D01*
X017524Y020852D02*
X015828Y020852D01*
X015629Y020005D02*
X015422Y020005D01*
X015231Y019926D01*
X015085Y019779D01*
X015006Y019588D01*
X015006Y018681D01*
X015085Y018490D01*
X015231Y018344D01*
X015422Y018265D01*
X015629Y018265D01*
X015820Y018344D01*
X015966Y018490D01*
X016046Y018681D01*
X016046Y019588D01*
X015966Y019779D01*
X015820Y019926D01*
X015629Y020005D01*
X015842Y019903D02*
X017447Y019903D01*
X017524Y020022D02*
X007126Y020022D01*
X007216Y020140D02*
X017524Y020140D01*
X017524Y020259D02*
X007265Y020259D01*
X007274Y020377D02*
X017524Y020377D01*
X017524Y020496D02*
X007271Y020496D01*
X007222Y020615D02*
X017524Y020615D01*
X017524Y020733D02*
X007141Y020733D01*
X006985Y020852D02*
X013482Y020852D01*
X013487Y020849D02*
X013558Y020812D01*
X013635Y020787D01*
X013706Y020776D01*
X013706Y021586D01*
X013802Y021586D01*
X013802Y020776D01*
X013873Y020787D01*
X013950Y020812D01*
X014021Y020849D01*
X014086Y020896D01*
X014143Y020952D01*
X014190Y021017D01*
X014227Y021089D01*
X014251Y021165D01*
X014264Y021245D01*
X014264Y021586D01*
X013803Y021586D01*
X013803Y021683D01*
X014264Y021683D01*
X014264Y022025D01*
X014251Y022104D01*
X014227Y022180D01*
X014190Y022252D01*
X014143Y022317D01*
X014086Y022374D01*
X014021Y022421D01*
X013950Y022457D01*
X013873Y022482D01*
X013802Y022493D01*
X013802Y021683D01*
X013706Y021683D01*
X013706Y022493D01*
X013635Y022482D01*
X013558Y022457D01*
X013487Y022421D01*
X013422Y022374D01*
X013365Y022317D01*
X013318Y022252D01*
X013281Y022180D01*
X013257Y022104D01*
X013244Y022025D01*
X013244Y021683D01*
X013705Y021683D01*
X013705Y021586D01*
X013244Y021586D01*
X013244Y021245D01*
X013257Y021165D01*
X013281Y021089D01*
X013318Y021017D01*
X013365Y020952D01*
X013422Y020896D01*
X013487Y020849D01*
X013352Y020970D02*
X007075Y020970D01*
X007193Y021089D02*
X013281Y021089D01*
X013250Y021207D02*
X010902Y021207D01*
X011020Y021326D02*
X013244Y021326D01*
X013244Y021444D02*
X011139Y021444D01*
X011257Y021563D02*
X013244Y021563D01*
X013244Y021800D02*
X011495Y021800D01*
X011613Y021919D02*
X013244Y021919D01*
X013246Y022037D02*
X011732Y022037D01*
X011850Y022156D02*
X013273Y022156D01*
X013334Y022274D02*
X011969Y022274D01*
X011984Y022393D02*
X013448Y022393D01*
X013706Y022393D02*
X013802Y022393D01*
X013802Y022274D02*
X013706Y022274D01*
X013706Y022156D02*
X013802Y022156D01*
X013802Y022037D02*
X013706Y022037D01*
X013706Y021919D02*
X013802Y021919D01*
X013802Y021800D02*
X013706Y021800D01*
X013705Y021681D02*
X011376Y021681D01*
X011081Y022037D02*
X004984Y022037D01*
X004984Y021919D02*
X010963Y021919D01*
X010844Y021800D02*
X007074Y021800D01*
X007193Y021681D02*
X010726Y021681D01*
X010754Y021385D02*
X011754Y022385D01*
X011754Y024385D01*
X011596Y024882D02*
X010912Y024882D01*
X011110Y024764D02*
X011398Y024764D01*
X011299Y024645D02*
X011209Y024645D01*
X011228Y024171D02*
X011280Y024171D01*
X011351Y024052D02*
X011157Y024052D01*
X011024Y023934D02*
X011484Y023934D01*
X011524Y023815D02*
X008646Y023815D01*
X008697Y023764D02*
X008509Y023953D01*
X008262Y024055D01*
X007996Y024055D01*
X007749Y023953D01*
X007561Y023764D01*
X007459Y023518D01*
X007459Y023251D01*
X007561Y023005D01*
X007749Y022817D01*
X007996Y022715D01*
X008262Y022715D01*
X008509Y022817D01*
X008697Y023005D01*
X008799Y023251D01*
X008799Y023518D01*
X008697Y023764D01*
X008725Y023697D02*
X011524Y023697D01*
X011524Y023578D02*
X008774Y023578D01*
X008799Y023460D02*
X011524Y023460D01*
X011524Y023341D02*
X008799Y023341D01*
X008787Y023223D02*
X011524Y023223D01*
X011524Y023104D02*
X008738Y023104D01*
X008677Y022985D02*
X011524Y022985D01*
X011524Y022867D02*
X008559Y022867D01*
X008343Y022748D02*
X011524Y022748D01*
X011524Y022630D02*
X004984Y022630D01*
X004984Y022748D02*
X007915Y022748D01*
X007699Y022867D02*
X004984Y022867D01*
X004984Y022985D02*
X007581Y022985D01*
X007520Y023104D02*
X004984Y023104D01*
X004984Y023223D02*
X007471Y023223D01*
X007459Y023341D02*
X004984Y023341D01*
X004984Y023460D02*
X007459Y023460D01*
X007484Y023578D02*
X004984Y023578D01*
X004984Y023697D02*
X007533Y023697D01*
X007612Y023815D02*
X004984Y023815D01*
X004984Y023934D02*
X007731Y023934D01*
X007990Y024052D02*
X004984Y024052D01*
X004984Y024171D02*
X009291Y024171D01*
X009281Y024189D02*
X009318Y024117D01*
X009365Y024052D01*
X008268Y024052D01*
X008527Y023934D02*
X009516Y023934D01*
X009487Y023949D02*
X009558Y023912D01*
X009635Y023887D01*
X009714Y023875D01*
X009726Y023875D01*
X009726Y024357D01*
X009244Y024357D01*
X009244Y024345D01*
X009257Y024265D01*
X009281Y024189D01*
X009253Y024289D02*
X004984Y024289D01*
X004984Y024408D02*
X009726Y024408D01*
X009726Y024412D02*
X009726Y024357D01*
X009781Y024357D01*
X009781Y023875D01*
X009794Y023875D01*
X009873Y023887D01*
X009950Y023912D01*
X010021Y023949D01*
X010086Y023996D01*
X010143Y024052D01*
X010351Y024052D01*
X010280Y024171D02*
X010217Y024171D01*
X010227Y024189D02*
X010247Y024251D01*
X010227Y024189D02*
X010190Y024117D01*
X010143Y024052D01*
X009992Y023934D02*
X010484Y023934D01*
X009781Y023934D02*
X009726Y023934D01*
X009726Y024052D02*
X009781Y024052D01*
X009781Y024171D02*
X009726Y024171D01*
X009726Y024289D02*
X009781Y024289D01*
X009781Y024412D02*
X009726Y024412D01*
X009244Y024412D01*
X009244Y024425D01*
X009257Y024504D01*
X009281Y024580D01*
X009318Y024652D01*
X009365Y024717D01*
X009422Y024774D01*
X009487Y024821D01*
X009558Y024857D01*
X009635Y024882D01*
X004984Y024882D01*
X004984Y024764D02*
X009412Y024764D01*
X009314Y024645D02*
X004984Y024645D01*
X004984Y024526D02*
X009264Y024526D01*
X009365Y024052D02*
X009422Y023996D01*
X009487Y023949D01*
X009726Y024412D02*
X009726Y024895D01*
X009714Y024895D01*
X009635Y024882D01*
X009726Y024882D02*
X009781Y024882D01*
X009781Y024895D02*
X009781Y024412D01*
X009781Y024526D02*
X009726Y024526D01*
X009726Y024645D02*
X009781Y024645D01*
X009781Y024764D02*
X009726Y024764D01*
X009781Y024895D02*
X009794Y024895D01*
X009873Y024882D01*
X010381Y026186D02*
X014127Y026186D01*
X014009Y026305D02*
X010499Y026305D01*
X010618Y026423D02*
X013890Y026423D01*
X013772Y026542D02*
X010736Y026542D01*
X010855Y026660D02*
X013653Y026660D01*
X013535Y026779D02*
X010973Y026779D01*
X010984Y026897D02*
X013416Y026897D01*
X013298Y027016D02*
X010984Y027016D01*
X010984Y027134D02*
X013179Y027134D01*
X013060Y027253D02*
X010984Y027253D01*
X010984Y027372D02*
X012942Y027372D01*
X012823Y027490D02*
X010984Y027490D01*
X010984Y027609D02*
X012705Y027609D01*
X012586Y027727D02*
X010984Y027727D01*
X010984Y027846D02*
X012524Y027846D01*
X012524Y027964D02*
X010984Y027964D01*
X010984Y028083D02*
X012524Y028083D01*
X012524Y028201D02*
X010984Y028201D01*
X010984Y028320D02*
X012524Y028320D01*
X012524Y028438D02*
X010984Y028438D01*
X010984Y028557D02*
X011789Y028557D01*
X011593Y028676D02*
X010984Y028676D01*
X010984Y028794D02*
X011480Y028794D01*
X011431Y028913D02*
X010984Y028913D01*
X010984Y029031D02*
X011391Y029031D01*
X011391Y029150D02*
X010984Y029150D01*
X010984Y029268D02*
X011396Y029268D01*
X011445Y029387D02*
X010984Y029387D01*
X010984Y029505D02*
X011508Y029505D01*
X011627Y029624D02*
X010984Y029624D01*
X010984Y029742D02*
X011870Y029742D01*
X011953Y029861D02*
X010984Y029861D01*
X010984Y029979D02*
X011834Y029979D01*
X011715Y030098D02*
X010984Y030098D01*
X010984Y030217D02*
X011597Y030217D01*
X011524Y030335D02*
X010984Y030335D01*
X010984Y030454D02*
X011524Y030454D01*
X011524Y030572D02*
X010984Y030572D01*
X010984Y030691D02*
X011524Y030691D01*
X011524Y030809D02*
X010984Y030809D01*
X010984Y030928D02*
X011524Y030928D01*
X011524Y031046D02*
X010984Y031046D01*
X010984Y031165D02*
X011524Y031165D01*
X011524Y031283D02*
X010984Y031283D01*
X010984Y031402D02*
X011524Y031402D01*
X011565Y031521D02*
X010984Y031521D01*
X010984Y031639D02*
X011683Y031639D01*
X011802Y031758D02*
X010984Y031758D01*
X010984Y031876D02*
X011920Y031876D01*
X012039Y031995D02*
X010969Y031995D01*
X010851Y032113D02*
X011283Y032113D01*
X011148Y032232D02*
X010732Y032232D01*
X010614Y032350D02*
X011076Y032350D01*
X011029Y032469D02*
X010495Y032469D01*
X010484Y032587D02*
X011029Y032587D01*
X011043Y032706D02*
X010484Y032706D01*
X010484Y032825D02*
X011092Y032825D01*
X011187Y032943D02*
X010484Y032943D01*
X010484Y033062D02*
X011306Y033062D01*
X011425Y033180D02*
X010484Y033180D01*
X010484Y033299D02*
X011543Y033299D01*
X011662Y033417D02*
X010484Y033417D01*
X010484Y033536D02*
X011818Y033536D01*
X012024Y033654D02*
X010484Y033654D01*
X010484Y033773D02*
X012024Y033773D01*
X012024Y033891D02*
X010484Y033891D01*
X010484Y034010D02*
X012024Y034010D01*
X012024Y034129D02*
X010484Y034129D01*
X010484Y034247D02*
X012024Y034247D01*
X012024Y034366D02*
X010484Y034366D01*
X010484Y034484D02*
X011046Y034484D01*
X010928Y034603D02*
X010580Y034603D01*
X010684Y034721D02*
X010824Y034721D01*
X010824Y034840D02*
X010684Y034840D01*
X010684Y034958D02*
X010824Y034958D01*
X010737Y035077D02*
X010670Y035077D01*
X010618Y035195D02*
X010551Y035195D01*
X010524Y035314D02*
X010433Y035314D01*
X010524Y035432D02*
X010127Y035432D01*
X010075Y035314D02*
X010008Y035314D01*
X009957Y035195D02*
X009890Y035195D01*
X009838Y035077D02*
X009771Y035077D01*
X009824Y034958D02*
X009653Y034958D01*
X009534Y034840D02*
X009824Y034840D01*
X009824Y034721D02*
X009416Y034721D01*
X009297Y034603D02*
X009928Y034603D01*
X010024Y034484D02*
X009179Y034484D01*
X009004Y034635D02*
X008504Y034635D01*
X004754Y030885D01*
X004754Y013385D01*
X005254Y012885D01*
X005254Y010385D01*
X003254Y008385D01*
X002368Y008385D01*
X001822Y008931D01*
X002139Y009353D02*
X003897Y009353D01*
X004016Y009471D02*
X002020Y009471D01*
X001902Y009590D02*
X003269Y009590D01*
X003260Y009593D02*
X003337Y009568D01*
X003416Y009555D01*
X003497Y009555D01*
X003577Y009568D01*
X003653Y009593D01*
X003725Y009630D01*
X003776Y009667D01*
X003208Y010236D01*
X003289Y010317D01*
X003858Y009748D01*
X003895Y009799D01*
X003932Y009871D01*
X003957Y009948D01*
X003969Y010028D01*
X003969Y010108D01*
X003957Y010188D01*
X003932Y010265D01*
X003895Y010336D01*
X003848Y010402D01*
X003610Y010639D01*
X003289Y010317D01*
X003208Y010399D01*
X003529Y010720D01*
X003292Y010957D01*
X003227Y011005D01*
X003155Y011041D01*
X003078Y011066D01*
X002999Y011079D01*
X002918Y011079D01*
X002838Y011066D01*
X002761Y011041D01*
X002690Y011005D01*
X002638Y010968D01*
X003207Y010399D01*
X003126Y010317D01*
X003207Y010236D01*
X002886Y009914D01*
X003123Y009677D01*
X003188Y009630D01*
X003260Y009593D01*
X003091Y009709D02*
X001264Y009709D01*
X001264Y009827D02*
X002973Y009827D01*
X002917Y009946D02*
X001264Y009946D01*
X001264Y010064D02*
X002736Y010064D01*
X002804Y009995D02*
X002567Y010233D01*
X002520Y010298D01*
X002483Y010370D01*
X002458Y010446D01*
X002446Y010526D01*
X002446Y010607D01*
X002458Y010686D01*
X002483Y010763D01*
X002520Y010835D01*
X002557Y010886D01*
X003126Y010317D01*
X002804Y009995D01*
X002873Y010064D02*
X003036Y010064D01*
X002992Y010183D02*
X003154Y010183D01*
X003260Y010183D02*
X003423Y010183D01*
X003379Y010064D02*
X003542Y010064D01*
X003498Y009946D02*
X003660Y009946D01*
X003616Y009827D02*
X003779Y009827D01*
X003735Y009709D02*
X004253Y009709D01*
X004371Y009827D02*
X003909Y009827D01*
X003956Y009946D02*
X004490Y009946D01*
X004608Y010064D02*
X003969Y010064D01*
X003957Y010183D02*
X004727Y010183D01*
X004845Y010301D02*
X003913Y010301D01*
X003830Y010420D02*
X004964Y010420D01*
X005024Y010538D02*
X003711Y010538D01*
X003510Y010538D02*
X003347Y010538D01*
X003391Y010420D02*
X003229Y010420D01*
X003186Y010420D02*
X003023Y010420D01*
X003068Y010538D02*
X002905Y010538D01*
X002949Y010657D02*
X002786Y010657D01*
X002830Y010775D02*
X002668Y010775D01*
X002712Y010894D02*
X001264Y010894D01*
X001264Y010775D02*
X002490Y010775D01*
X002454Y010657D02*
X001264Y010657D01*
X001264Y010538D02*
X002446Y010538D01*
X002467Y010420D02*
X001264Y010420D01*
X001264Y010301D02*
X002518Y010301D01*
X002617Y010183D02*
X001264Y010183D01*
X001264Y011013D02*
X002705Y011013D01*
X003211Y011013D02*
X005024Y011013D01*
X005024Y011131D02*
X001264Y011131D01*
X001264Y011250D02*
X005024Y011250D01*
X005024Y011368D02*
X001264Y011368D01*
X001264Y011487D02*
X005024Y011487D01*
X005024Y011605D02*
X001264Y011605D01*
X001264Y011724D02*
X005024Y011724D01*
X005024Y011842D02*
X001264Y011842D01*
X001264Y011961D02*
X004570Y011961D01*
X004451Y012079D02*
X004043Y012079D01*
X003928Y011965D02*
X004174Y012211D01*
X004174Y012365D01*
X003774Y012365D01*
X003774Y012405D01*
X003734Y012405D01*
X003734Y012805D01*
X003580Y012805D01*
X003334Y012559D01*
X003334Y012405D01*
X003734Y012405D01*
X003734Y012365D01*
X003334Y012365D01*
X003334Y012211D01*
X003580Y011965D01*
X003734Y011965D01*
X003734Y012364D01*
X003774Y012364D01*
X003774Y011965D01*
X003928Y011965D01*
X003774Y012079D02*
X003734Y012079D01*
X003734Y012198D02*
X003774Y012198D01*
X003774Y012317D02*
X003734Y012317D01*
X003774Y012405D02*
X004174Y012405D01*
X004174Y012559D01*
X003928Y012805D01*
X003774Y012805D01*
X003774Y012405D01*
X003774Y012435D02*
X003734Y012435D01*
X003734Y012554D02*
X003774Y012554D01*
X003774Y012672D02*
X003734Y012672D01*
X003734Y012791D02*
X003774Y012791D01*
X003942Y012791D02*
X004024Y012791D01*
X004024Y012909D02*
X001264Y012909D01*
X001264Y012791D02*
X003566Y012791D01*
X003448Y012672D02*
X001264Y012672D01*
X001264Y012554D02*
X003334Y012554D01*
X003334Y012435D02*
X001264Y012435D01*
X001264Y012317D02*
X003334Y012317D01*
X003347Y012198D02*
X001264Y012198D01*
X001264Y012079D02*
X003465Y012079D01*
X004060Y012672D02*
X004141Y012672D01*
X004174Y012554D02*
X004260Y012554D01*
X004324Y012435D02*
X004174Y012435D01*
X004174Y012317D02*
X004324Y012317D01*
X004333Y012198D02*
X004161Y012198D01*
X004754Y012385D02*
X004254Y012885D01*
X004254Y018385D01*
X004024Y017888D02*
X001264Y017888D01*
X001264Y017770D02*
X004024Y017770D01*
X004024Y017651D02*
X001264Y017651D01*
X001264Y017532D02*
X004024Y017532D01*
X004024Y017414D02*
X001264Y017414D01*
X001264Y017295D02*
X004024Y017295D01*
X004024Y017177D02*
X001264Y017177D01*
X001264Y017058D02*
X004024Y017058D01*
X004024Y016940D02*
X001264Y016940D01*
X001264Y016821D02*
X004024Y016821D01*
X004024Y016703D02*
X001264Y016703D01*
X001264Y016584D02*
X004024Y016584D01*
X004024Y016466D02*
X001264Y016466D01*
X001264Y016347D02*
X004024Y016347D01*
X004024Y016228D02*
X001264Y016228D01*
X001264Y016110D02*
X004024Y016110D01*
X004024Y015991D02*
X001264Y015991D01*
X001264Y015873D02*
X004024Y015873D01*
X004024Y015754D02*
X001264Y015754D01*
X001264Y015636D02*
X004024Y015636D01*
X004024Y015517D02*
X001264Y015517D01*
X001264Y015399D02*
X004024Y015399D01*
X004024Y015280D02*
X001264Y015280D01*
X001264Y015162D02*
X004024Y015162D01*
X004024Y015043D02*
X001264Y015043D01*
X001264Y014924D02*
X004024Y014924D01*
X004024Y014806D02*
X001264Y014806D01*
X001264Y014687D02*
X004024Y014687D01*
X004024Y014569D02*
X001264Y014569D01*
X001264Y014450D02*
X004024Y014450D01*
X004024Y014332D02*
X001264Y014332D01*
X001264Y014213D02*
X004024Y014213D01*
X004024Y014095D02*
X001264Y014095D01*
X001264Y013976D02*
X004024Y013976D01*
X004024Y013858D02*
X001264Y013858D01*
X001264Y013739D02*
X004024Y013739D01*
X004024Y013621D02*
X001264Y013621D01*
X001264Y013502D02*
X004024Y013502D01*
X004024Y013383D02*
X001264Y013383D01*
X001264Y013265D02*
X004024Y013265D01*
X004024Y013146D02*
X001264Y013146D01*
X001264Y013028D02*
X004024Y013028D01*
X004938Y011961D02*
X005024Y011961D01*
X005484Y011961D02*
X006024Y011961D01*
X006024Y012079D02*
X005484Y012079D01*
X005484Y012198D02*
X006024Y012198D01*
X006024Y012317D02*
X005484Y012317D01*
X005484Y012435D02*
X006024Y012435D01*
X006024Y012554D02*
X005484Y012554D01*
X005484Y012672D02*
X006024Y012672D01*
X006023Y012791D02*
X005484Y012791D01*
X005484Y012909D02*
X005904Y012909D01*
X005786Y013028D02*
X005436Y013028D01*
X005318Y013146D02*
X005667Y013146D01*
X005549Y013265D02*
X005199Y013265D01*
X005081Y013383D02*
X005524Y013383D01*
X005524Y013502D02*
X004984Y013502D01*
X004984Y013621D02*
X005524Y013621D01*
X005524Y013739D02*
X004984Y013739D01*
X004984Y013858D02*
X005524Y013858D01*
X005524Y013976D02*
X004984Y013976D01*
X004984Y014095D02*
X005524Y014095D01*
X005524Y014213D02*
X004984Y014213D01*
X004984Y014332D02*
X005524Y014332D01*
X005524Y014450D02*
X004984Y014450D01*
X004984Y014569D02*
X005524Y014569D01*
X005524Y014687D02*
X004984Y014687D01*
X004984Y014806D02*
X005524Y014806D01*
X005524Y014924D02*
X004984Y014924D01*
X004984Y015043D02*
X005524Y015043D01*
X005524Y015162D02*
X004984Y015162D01*
X004984Y015280D02*
X005524Y015280D01*
X005524Y015399D02*
X004984Y015399D01*
X004984Y015517D02*
X005524Y015517D01*
X005524Y015636D02*
X004984Y015636D01*
X004984Y015754D02*
X005524Y015754D01*
X005524Y015873D02*
X004984Y015873D01*
X004984Y015991D02*
X005524Y015991D01*
X005524Y016110D02*
X004984Y016110D01*
X004984Y016228D02*
X005524Y016228D01*
X005524Y016347D02*
X004984Y016347D01*
X004984Y016466D02*
X005524Y016466D01*
X005524Y016584D02*
X004984Y016584D01*
X004984Y016703D02*
X005524Y016703D01*
X005524Y016821D02*
X004984Y016821D01*
X004984Y016940D02*
X005524Y016940D01*
X005524Y017058D02*
X004984Y017058D01*
X004984Y017177D02*
X005524Y017177D01*
X005524Y017295D02*
X004984Y017295D01*
X004984Y017414D02*
X005524Y017414D01*
X005524Y017532D02*
X004984Y017532D01*
X004984Y017651D02*
X005524Y017651D01*
X005524Y017770D02*
X004984Y017770D01*
X004984Y017888D02*
X005524Y017888D01*
X005524Y018007D02*
X004984Y018007D01*
X004984Y018125D02*
X005524Y018125D01*
X005524Y018244D02*
X004984Y018244D01*
X004984Y018362D02*
X005524Y018362D01*
X005524Y018481D02*
X004984Y018481D01*
X004984Y018599D02*
X005524Y018599D01*
X005524Y018718D02*
X004984Y018718D01*
X004984Y018836D02*
X005524Y018836D01*
X005524Y018955D02*
X004984Y018955D01*
X004984Y019074D02*
X005524Y019074D01*
X005524Y019192D02*
X004984Y019192D01*
X004984Y019311D02*
X005524Y019311D01*
X005524Y019429D02*
X004984Y019429D01*
X004984Y019548D02*
X005524Y019548D01*
X005524Y019666D02*
X004984Y019666D01*
X004984Y019785D02*
X005524Y019785D01*
X005524Y019903D02*
X004984Y019903D01*
X004984Y020022D02*
X005524Y020022D01*
X005524Y020140D02*
X004984Y020140D01*
X004984Y020259D02*
X005524Y020259D01*
X005524Y020377D02*
X004984Y020377D01*
X004984Y020496D02*
X005540Y020496D01*
X005659Y020615D02*
X004984Y020615D01*
X004984Y020733D02*
X005777Y020733D01*
X005896Y020852D02*
X004984Y020852D01*
X004984Y020970D02*
X006014Y020970D01*
X006133Y021089D02*
X004984Y021089D01*
X004984Y021207D02*
X006251Y021207D01*
X006234Y021326D02*
X004984Y021326D01*
X004984Y021444D02*
X006234Y021444D01*
X006265Y021563D02*
X004984Y021563D01*
X004984Y021681D02*
X006315Y021681D01*
X006434Y021800D02*
X004984Y021800D01*
X004984Y022156D02*
X011200Y022156D01*
X011318Y022274D02*
X004984Y022274D01*
X004984Y022393D02*
X011437Y022393D01*
X011524Y022511D02*
X004984Y022511D01*
X004524Y022037D02*
X004514Y022037D01*
X004524Y021919D02*
X001264Y021919D01*
X001264Y022037D02*
X001994Y022037D01*
X001875Y022156D02*
X001264Y022156D01*
X001264Y022274D02*
X001824Y022274D01*
X001824Y022393D02*
X001264Y022393D01*
X001264Y022511D02*
X001824Y022511D01*
X001891Y022630D02*
X001264Y022630D01*
X001264Y022748D02*
X002010Y022748D01*
X002024Y022867D02*
X001264Y022867D01*
X001264Y022985D02*
X002024Y022985D01*
X002024Y023104D02*
X001264Y023104D01*
X001264Y023223D02*
X002024Y023223D01*
X002024Y023341D02*
X001264Y023341D01*
X001264Y023460D02*
X002024Y023460D01*
X002024Y023578D02*
X001264Y023578D01*
X001264Y023697D02*
X002024Y023697D01*
X002024Y023815D02*
X001264Y023815D01*
X001264Y023934D02*
X002024Y023934D01*
X002024Y024052D02*
X001264Y024052D01*
X001264Y024171D02*
X002024Y024171D01*
X002024Y024289D02*
X001264Y024289D01*
X001264Y024408D02*
X002024Y024408D01*
X002024Y024526D02*
X001264Y024526D01*
X001264Y024645D02*
X002024Y024645D01*
X002024Y024764D02*
X001264Y024764D01*
X001264Y024882D02*
X002024Y024882D01*
X002024Y025001D02*
X001264Y025001D01*
X001264Y025119D02*
X002024Y025119D01*
X002024Y025238D02*
X001264Y025238D01*
X001264Y025356D02*
X001957Y025356D01*
X001839Y025475D02*
X001264Y025475D01*
X001264Y025593D02*
X001774Y025593D01*
X001774Y025712D02*
X001264Y025712D01*
X001264Y025830D02*
X001774Y025830D01*
X001774Y025949D02*
X001264Y025949D01*
X001264Y026068D02*
X001774Y026068D01*
X001774Y026186D02*
X001264Y026186D01*
X001264Y026305D02*
X001774Y026305D01*
X001774Y026423D02*
X001264Y026423D01*
X001264Y026542D02*
X001774Y026542D01*
X001774Y026660D02*
X001264Y026660D01*
X001264Y026779D02*
X001774Y026779D01*
X001774Y026897D02*
X001264Y026897D01*
X001264Y027016D02*
X001810Y027016D01*
X001929Y027134D02*
X001264Y027134D01*
X001264Y027253D02*
X002024Y027253D01*
X002024Y027372D02*
X001264Y027372D01*
X001264Y027490D02*
X002024Y027490D01*
X002024Y027609D02*
X001264Y027609D01*
X001264Y027727D02*
X002024Y027727D01*
X002024Y027846D02*
X001264Y027846D01*
X001264Y027964D02*
X002024Y027964D01*
X002024Y028083D02*
X001264Y028083D01*
X001264Y028201D02*
X002024Y028201D01*
X002024Y028320D02*
X001264Y028320D01*
X001264Y028438D02*
X002024Y028438D01*
X002024Y028557D02*
X001264Y028557D01*
X001264Y029624D02*
X001368Y029624D01*
X001264Y029742D02*
X001487Y029742D01*
X001605Y029861D02*
X001264Y029861D01*
X001264Y029979D02*
X001724Y029979D01*
X001938Y030098D02*
X001264Y030098D01*
X001264Y030217D02*
X003261Y030217D01*
X003379Y030335D02*
X001264Y030335D01*
X001264Y030454D02*
X003498Y030454D01*
X003524Y030572D02*
X001264Y030572D01*
X001264Y030691D02*
X003524Y030691D01*
X003524Y030809D02*
X001264Y030809D01*
X001264Y030928D02*
X003524Y030928D01*
X003524Y031046D02*
X003185Y031046D01*
X003401Y031165D02*
X003524Y031165D01*
X003519Y031283D02*
X003524Y031283D01*
X003984Y031283D02*
X004328Y031283D01*
X004209Y031165D02*
X003984Y031165D01*
X003984Y031046D02*
X004090Y031046D01*
X004024Y030928D02*
X003984Y030928D01*
X003984Y030809D02*
X004024Y030809D01*
X004024Y030691D02*
X003984Y030691D01*
X003984Y030572D02*
X004024Y030572D01*
X004024Y030454D02*
X003984Y030454D01*
X003984Y030335D02*
X004024Y030335D01*
X004024Y030217D02*
X003911Y030217D01*
X004024Y030098D02*
X003793Y030098D01*
X003674Y029979D02*
X004024Y029979D01*
X004024Y029861D02*
X003555Y029861D01*
X003437Y029742D02*
X004024Y029742D01*
X004024Y029624D02*
X003318Y029624D01*
X003200Y029505D02*
X004024Y029505D01*
X004024Y029387D02*
X003081Y029387D01*
X002963Y029268D02*
X004024Y029268D01*
X004024Y029150D02*
X002844Y029150D01*
X002726Y029031D02*
X004024Y029031D01*
X004024Y028913D02*
X002607Y028913D01*
X002489Y028794D02*
X004024Y028794D01*
X004024Y028676D02*
X003655Y028676D01*
X003731Y028557D02*
X004024Y028557D01*
X004024Y028438D02*
X003911Y028438D01*
X003957Y028320D02*
X004024Y028320D01*
X004024Y028201D02*
X003969Y028201D01*
X003957Y028083D02*
X004024Y028083D01*
X004024Y027964D02*
X003911Y027964D01*
X003826Y027846D02*
X004024Y027846D01*
X004024Y027727D02*
X003707Y027727D01*
X003514Y027727D02*
X003351Y027727D01*
X003395Y027846D02*
X003233Y027846D01*
X003182Y027846D02*
X003020Y027846D01*
X003064Y027727D02*
X002901Y027727D01*
X002945Y027609D02*
X002782Y027609D01*
X002827Y027490D02*
X002664Y027490D01*
X002708Y027372D02*
X002484Y027372D01*
X002484Y027490D02*
X002491Y027490D01*
X002484Y027253D02*
X002712Y027253D01*
X002484Y027134D02*
X004024Y027134D01*
X004024Y027016D02*
X002460Y027016D01*
X002342Y026897D02*
X004024Y026897D01*
X004024Y026779D02*
X002234Y026779D01*
X002234Y026660D02*
X004024Y026660D01*
X004024Y026542D02*
X002234Y026542D01*
X002234Y026423D02*
X004024Y026423D01*
X004024Y026305D02*
X002234Y026305D01*
X002234Y026186D02*
X004024Y026186D01*
X004024Y026068D02*
X002234Y026068D01*
X002234Y025949D02*
X004024Y025949D01*
X004024Y025830D02*
X002234Y025830D01*
X002252Y025712D02*
X004024Y025712D01*
X004024Y025593D02*
X002371Y025593D01*
X002484Y025475D02*
X004024Y025475D01*
X004024Y025356D02*
X002484Y025356D01*
X002484Y025238D02*
X004024Y025238D01*
X004024Y025119D02*
X002484Y025119D01*
X002484Y025001D02*
X004024Y025001D01*
X004024Y024882D02*
X002484Y024882D01*
X002484Y024764D02*
X004024Y024764D01*
X004024Y024645D02*
X002484Y024645D01*
X002484Y024526D02*
X004024Y024526D01*
X004024Y024408D02*
X002484Y024408D01*
X002484Y024289D02*
X004024Y024289D01*
X004024Y024171D02*
X002484Y024171D01*
X002484Y024052D02*
X004024Y024052D01*
X004024Y023934D02*
X002484Y023934D01*
X002484Y023815D02*
X004024Y023815D01*
X004024Y023697D02*
X002484Y023697D01*
X002484Y023578D02*
X004024Y023578D01*
X004024Y023460D02*
X002484Y023460D01*
X002484Y023341D02*
X004024Y023341D01*
X004024Y023223D02*
X002484Y023223D01*
X002484Y023104D02*
X004024Y023104D01*
X004024Y022985D02*
X002484Y022985D01*
X002484Y022867D02*
X004024Y022867D01*
X004010Y022748D02*
X003498Y022748D01*
X003432Y022815D02*
X003684Y022563D01*
X003684Y022207D01*
X003432Y021955D01*
X003076Y021955D01*
X002824Y022207D01*
X002824Y022563D01*
X003076Y022815D01*
X003432Y022815D01*
X003617Y022630D02*
X003891Y022630D01*
X003824Y022511D02*
X003684Y022511D01*
X003684Y022393D02*
X003824Y022393D01*
X003824Y022274D02*
X003684Y022274D01*
X003633Y022156D02*
X003875Y022156D01*
X003994Y022037D02*
X003514Y022037D01*
X002994Y022037D02*
X002514Y022037D01*
X002633Y022156D02*
X002875Y022156D01*
X002824Y022274D02*
X002684Y022274D01*
X002684Y022393D02*
X002824Y022393D01*
X002824Y022511D02*
X002684Y022511D01*
X002617Y022630D02*
X002891Y022630D01*
X003010Y022748D02*
X002498Y022748D01*
X002254Y022385D02*
X002254Y025385D01*
X002004Y025635D01*
X002004Y026885D01*
X002254Y027135D01*
X002254Y028885D01*
X003754Y030385D01*
X003754Y034885D01*
X003457Y035195D02*
X001264Y035195D01*
X001264Y035077D02*
X003338Y035077D01*
X003324Y034958D02*
X001264Y034958D01*
X001264Y034840D02*
X003324Y034840D01*
X003324Y034721D02*
X001264Y034721D01*
X001264Y034603D02*
X003428Y034603D01*
X003524Y034484D02*
X001264Y034484D01*
X001264Y034366D02*
X003524Y034366D01*
X003524Y034247D02*
X001264Y034247D01*
X001264Y034129D02*
X003524Y034129D01*
X003524Y034010D02*
X001264Y034010D01*
X001264Y033891D02*
X003524Y033891D01*
X003524Y033773D02*
X001264Y033773D01*
X001264Y033654D02*
X003524Y033654D01*
X003524Y033536D02*
X001264Y033536D01*
X001264Y033417D02*
X003524Y033417D01*
X003524Y033299D02*
X001264Y033299D01*
X001264Y033180D02*
X003524Y033180D01*
X003524Y033062D02*
X001264Y033062D01*
X001264Y032943D02*
X003524Y032943D01*
X003524Y032825D02*
X001264Y032825D01*
X001264Y032706D02*
X003524Y032706D01*
X003524Y032587D02*
X001264Y032587D01*
X001264Y032469D02*
X003524Y032469D01*
X003524Y032350D02*
X001264Y032350D01*
X001264Y032232D02*
X002833Y032232D01*
X002610Y032113D02*
X001264Y032113D01*
X001264Y031995D02*
X002491Y031995D01*
X002436Y031876D02*
X001264Y031876D01*
X001264Y031758D02*
X002387Y031758D01*
X002387Y031639D02*
X001264Y031639D01*
X001264Y031521D02*
X002387Y031521D01*
X002434Y031402D02*
X001264Y031402D01*
X001264Y031283D02*
X002485Y031283D01*
X002604Y031165D02*
X001264Y031165D01*
X001264Y031046D02*
X002819Y031046D01*
X003142Y030098D02*
X002203Y030098D01*
X002418Y029979D02*
X003024Y029979D01*
X002905Y029861D02*
X002523Y029861D01*
X002572Y029742D02*
X002786Y029742D01*
X002668Y029624D02*
X002593Y029624D01*
X002484Y028676D02*
X003258Y028676D01*
X003087Y028557D02*
X002484Y028557D01*
X002484Y028438D02*
X002969Y028438D01*
X002921Y028320D02*
X002484Y028320D01*
X002484Y028201D02*
X002732Y028201D01*
X002877Y028201D02*
X003040Y028201D01*
X002996Y028083D02*
X003158Y028083D01*
X003257Y028083D02*
X003419Y028083D01*
X003375Y028201D02*
X003538Y028201D01*
X003494Y028320D02*
X003656Y028320D01*
X003612Y028438D02*
X003775Y028438D01*
X003301Y027964D02*
X003277Y027964D01*
X003138Y027964D02*
X003114Y027964D01*
X003352Y027372D02*
X004024Y027372D01*
X004024Y027490D02*
X003470Y027490D01*
X003470Y027609D02*
X004024Y027609D01*
X004024Y027253D02*
X003204Y027253D01*
X002613Y028083D02*
X002484Y028083D01*
X002484Y027964D02*
X002516Y027964D01*
X002024Y028676D02*
X001898Y028676D01*
X002016Y028794D02*
X002024Y028794D01*
X003514Y031995D02*
X003524Y031995D01*
X003524Y032113D02*
X003395Y032113D01*
X003524Y032232D02*
X003172Y032232D01*
X003984Y032232D02*
X004648Y032232D01*
X004576Y032350D02*
X003984Y032350D01*
X003984Y032469D02*
X004529Y032469D01*
X004529Y032587D02*
X003984Y032587D01*
X003984Y032706D02*
X004543Y032706D01*
X004592Y032825D02*
X003984Y032825D01*
X003984Y032943D02*
X004687Y032943D01*
X004806Y033062D02*
X003984Y033062D01*
X003984Y033180D02*
X004925Y033180D01*
X005043Y033299D02*
X003984Y033299D01*
X003984Y033417D02*
X005162Y033417D01*
X005318Y033536D02*
X003984Y033536D01*
X003984Y033654D02*
X005813Y033654D01*
X005931Y033773D02*
X003984Y033773D01*
X003984Y033891D02*
X006050Y033891D01*
X006168Y034010D02*
X003984Y034010D01*
X003984Y034129D02*
X006287Y034129D01*
X006405Y034247D02*
X003984Y034247D01*
X003984Y034366D02*
X006524Y034366D01*
X006642Y034484D02*
X004961Y034484D01*
X005080Y034603D02*
X006761Y034603D01*
X006879Y034721D02*
X005184Y034721D01*
X005184Y034840D02*
X006998Y034840D01*
X007116Y034958D02*
X005184Y034958D01*
X005271Y035077D02*
X007235Y035077D01*
X007618Y035135D02*
X005301Y032817D01*
X005039Y031995D02*
X003984Y031995D01*
X003984Y032113D02*
X004783Y032113D01*
X004920Y031876D02*
X003984Y031876D01*
X003984Y031758D02*
X004802Y031758D01*
X004683Y031639D02*
X003984Y031639D01*
X003984Y031521D02*
X004565Y031521D01*
X004446Y031402D02*
X003984Y031402D01*
X004254Y030885D02*
X004254Y022385D01*
X004524Y021800D02*
X001264Y021800D01*
X001264Y021681D02*
X004524Y021681D01*
X004524Y021563D02*
X001264Y021563D01*
X001264Y021444D02*
X004524Y021444D01*
X004524Y021326D02*
X001264Y021326D01*
X001264Y021207D02*
X004524Y021207D01*
X004524Y021089D02*
X001264Y021089D01*
X001264Y020970D02*
X004524Y020970D01*
X004524Y020852D02*
X001264Y020852D01*
X001264Y020733D02*
X004524Y020733D01*
X004524Y020615D02*
X001264Y020615D01*
X001264Y020496D02*
X004524Y020496D01*
X004524Y020377D02*
X001264Y020377D01*
X001264Y020259D02*
X004524Y020259D01*
X004524Y020140D02*
X001264Y020140D01*
X001264Y020022D02*
X004524Y020022D01*
X004524Y019903D02*
X001264Y019903D01*
X001264Y019785D02*
X004524Y019785D01*
X004524Y019666D02*
X001264Y019666D01*
X001264Y019548D02*
X004524Y019548D01*
X004524Y019429D02*
X001264Y019429D01*
X001264Y019311D02*
X004524Y019311D01*
X004524Y019192D02*
X001264Y019192D01*
X001264Y019074D02*
X004524Y019074D01*
X004524Y018955D02*
X001264Y018955D01*
X001264Y018836D02*
X004524Y018836D01*
X005754Y020385D02*
X006754Y021385D01*
X010754Y021385D01*
X011984Y022511D02*
X015296Y022511D01*
X015296Y022630D02*
X011984Y022630D01*
X011984Y022748D02*
X013165Y022748D01*
X013246Y022715D02*
X013512Y022715D01*
X013759Y022817D01*
X013947Y023005D01*
X014049Y023251D01*
X014049Y023518D01*
X013947Y023764D01*
X013759Y023953D01*
X013512Y024055D01*
X013246Y024055D01*
X012999Y023953D01*
X012811Y023764D01*
X012709Y023518D01*
X012709Y023251D01*
X012811Y023005D01*
X012999Y022817D01*
X013246Y022715D01*
X012949Y022867D02*
X011984Y022867D01*
X011984Y022985D02*
X012831Y022985D01*
X012770Y023104D02*
X011984Y023104D01*
X011984Y023223D02*
X012721Y023223D01*
X012709Y023341D02*
X011984Y023341D01*
X011984Y023460D02*
X012709Y023460D01*
X012734Y023578D02*
X011984Y023578D01*
X011984Y023697D02*
X012783Y023697D01*
X012862Y023815D02*
X011984Y023815D01*
X012024Y023934D02*
X012981Y023934D01*
X013240Y024052D02*
X012157Y024052D01*
X012228Y024171D02*
X015296Y024171D01*
X015296Y024289D02*
X012274Y024289D01*
X012274Y024408D02*
X015296Y024408D01*
X015287Y024526D02*
X012258Y024526D01*
X012209Y024645D02*
X015168Y024645D01*
X015050Y024764D02*
X012110Y024764D01*
X011912Y024882D02*
X014931Y024882D01*
X014813Y025001D02*
X004984Y025001D01*
X004984Y025119D02*
X005999Y025119D01*
X005916Y025238D02*
X004984Y025238D01*
X004984Y025356D02*
X005886Y025356D01*
X005893Y025475D02*
X004984Y025475D01*
X004984Y025593D02*
X005942Y025593D01*
X006082Y025712D02*
X004984Y025712D01*
X004984Y025830D02*
X014483Y025830D01*
X014602Y025712D02*
X006426Y025712D01*
X006254Y025385D02*
X014754Y025385D01*
X015526Y024613D01*
X015296Y024052D02*
X013518Y024052D01*
X013777Y023934D02*
X015296Y023934D01*
X015296Y023815D02*
X013896Y023815D01*
X013975Y023697D02*
X015296Y023697D01*
X015296Y023578D02*
X014024Y023578D01*
X014049Y023460D02*
X015296Y023460D01*
X015296Y023341D02*
X014049Y023341D01*
X014037Y023223D02*
X015296Y023223D01*
X015296Y023104D02*
X013988Y023104D01*
X013927Y022985D02*
X015296Y022985D01*
X015296Y022867D02*
X013809Y022867D01*
X013593Y022748D02*
X015296Y022748D01*
X015198Y022393D02*
X014060Y022393D01*
X014174Y022274D02*
X015083Y022274D01*
X015034Y022156D02*
X014235Y022156D01*
X014262Y022037D02*
X015006Y022037D01*
X015006Y021919D02*
X014264Y021919D01*
X014264Y021800D02*
X015006Y021800D01*
X015006Y021681D02*
X013803Y021681D01*
X013802Y021563D02*
X013706Y021563D01*
X013706Y021444D02*
X013802Y021444D01*
X013802Y021326D02*
X013706Y021326D01*
X013706Y021207D02*
X013802Y021207D01*
X013802Y021089D02*
X013706Y021089D01*
X013706Y020970D02*
X013802Y020970D01*
X013802Y020852D02*
X013706Y020852D01*
X014026Y020852D02*
X015223Y020852D01*
X015105Y020970D02*
X014156Y020970D01*
X014226Y021089D02*
X015044Y021089D01*
X015006Y021207D02*
X014258Y021207D01*
X014264Y021326D02*
X015006Y021326D01*
X015006Y021444D02*
X014264Y021444D01*
X014264Y021563D02*
X015006Y021563D01*
X015209Y019903D02*
X014071Y019903D01*
X014049Y019926D02*
X013857Y020005D01*
X013651Y020005D01*
X013459Y019926D01*
X013313Y019779D01*
X013234Y019588D01*
X013234Y018681D01*
X013313Y018490D01*
X013459Y018344D01*
X013651Y018265D01*
X013857Y018265D01*
X014049Y018344D01*
X014195Y018490D01*
X014274Y018681D01*
X014274Y019588D01*
X014195Y019779D01*
X014049Y019926D01*
X014189Y019785D02*
X015090Y019785D01*
X015038Y019666D02*
X014242Y019666D01*
X014274Y019548D02*
X015006Y019548D01*
X015006Y019429D02*
X014274Y019429D01*
X014274Y019311D02*
X015006Y019311D01*
X015006Y019192D02*
X014274Y019192D01*
X014274Y019074D02*
X015006Y019074D01*
X015006Y018955D02*
X014274Y018955D01*
X014274Y018836D02*
X015006Y018836D01*
X015006Y018718D02*
X014274Y018718D01*
X014240Y018599D02*
X015040Y018599D01*
X015094Y018481D02*
X014185Y018481D01*
X014067Y018362D02*
X015213Y018362D01*
X015839Y018362D02*
X016274Y018362D01*
X016274Y018244D02*
X005984Y018244D01*
X005984Y018362D02*
X013441Y018362D01*
X013323Y018481D02*
X005984Y018481D01*
X005984Y018599D02*
X013268Y018599D01*
X013234Y018718D02*
X005984Y018718D01*
X005984Y018836D02*
X013234Y018836D01*
X013234Y018955D02*
X007030Y018955D01*
X007158Y019074D02*
X013234Y019074D01*
X013234Y019192D02*
X007228Y019192D01*
X007259Y019311D02*
X013234Y019311D01*
X013234Y019429D02*
X007263Y019429D01*
X007237Y019548D02*
X013234Y019548D01*
X013266Y019666D02*
X007180Y019666D01*
X007071Y019785D02*
X013319Y019785D01*
X013437Y019903D02*
X006951Y019903D01*
X006781Y019311D02*
X006726Y019311D01*
X006726Y019192D02*
X006781Y019192D01*
X006781Y019074D02*
X006726Y019074D01*
X006726Y018955D02*
X006781Y018955D01*
X006478Y018955D02*
X005984Y018955D01*
X005984Y019074D02*
X006350Y019074D01*
X006280Y019192D02*
X005984Y019192D01*
X005984Y019311D02*
X006249Y019311D01*
X006245Y019429D02*
X005984Y019429D01*
X005984Y019548D02*
X006271Y019548D01*
X006328Y019666D02*
X005984Y019666D01*
X005984Y019785D02*
X006437Y019785D01*
X006557Y019903D02*
X005984Y019903D01*
X005984Y020022D02*
X006381Y020022D01*
X006292Y020140D02*
X005984Y020140D01*
X005984Y020259D02*
X006243Y020259D01*
X006234Y020377D02*
X006072Y020377D01*
X006191Y020496D02*
X006237Y020496D01*
X005754Y020385D02*
X005754Y013385D01*
X006254Y012885D01*
X006254Y008385D01*
X004254Y006385D01*
X004254Y005385D01*
X005254Y004385D01*
X008254Y004385D01*
X009179Y003460D01*
X009179Y002885D01*
X008847Y003189D02*
X008250Y003189D01*
X008257Y003177D02*
X008213Y003252D01*
X008161Y003321D01*
X008100Y003382D01*
X008031Y003435D01*
X007956Y003478D01*
X007876Y003511D01*
X007792Y003533D01*
X007723Y003542D01*
X007723Y002945D01*
X007603Y002945D01*
X007603Y002825D01*
X007006Y002825D01*
X007015Y002756D01*
X007037Y002672D01*
X007070Y002592D01*
X007114Y002517D01*
X007166Y002449D01*
X007227Y002387D01*
X007296Y002335D01*
X007371Y002291D01*
X007451Y002258D01*
X007534Y002236D01*
X007603Y002227D01*
X007603Y002825D01*
X007723Y002825D01*
X007723Y002227D01*
X007792Y002236D01*
X007876Y002258D01*
X007956Y002291D01*
X008031Y002335D01*
X008100Y002387D01*
X008161Y002449D01*
X008213Y002517D01*
X008257Y002592D01*
X008290Y002672D01*
X008312Y002756D01*
X008321Y002825D01*
X007724Y002825D01*
X007724Y002945D01*
X008321Y002945D01*
X008312Y003014D01*
X008290Y003097D01*
X008257Y003177D01*
X008297Y003070D02*
X008769Y003070D01*
X008729Y002952D02*
X008320Y002952D01*
X008301Y002715D02*
X008763Y002715D01*
X008729Y002833D02*
X007724Y002833D01*
X007723Y002715D02*
X007603Y002715D01*
X007603Y002833D02*
X004190Y002833D01*
X004247Y002952D02*
X007007Y002952D01*
X007006Y002945D02*
X007603Y002945D01*
X007603Y003542D01*
X007534Y003533D01*
X007451Y003511D01*
X007371Y003478D01*
X007296Y003435D01*
X007227Y003382D01*
X007166Y003321D01*
X007114Y003252D01*
X007070Y003177D01*
X007037Y003097D01*
X007015Y003014D01*
X007006Y002945D01*
X007030Y003070D02*
X004304Y003070D01*
X004347Y003189D02*
X007077Y003189D01*
X007156Y003307D02*
X004365Y003307D01*
X004382Y003426D02*
X007284Y003426D01*
X007603Y003426D02*
X007723Y003426D01*
X007723Y003307D02*
X007603Y003307D01*
X007603Y003189D02*
X007723Y003189D01*
X007723Y003070D02*
X007603Y003070D01*
X007603Y002952D02*
X007723Y002952D01*
X007723Y002596D02*
X007603Y002596D01*
X007603Y002477D02*
X007723Y002477D01*
X007723Y002359D02*
X007603Y002359D01*
X007603Y002240D02*
X007723Y002240D01*
X007809Y002240D02*
X013699Y002240D01*
X013785Y002240D02*
X013904Y002240D01*
X013990Y002240D02*
X017870Y002240D01*
X017924Y002197D02*
X017924Y002197D01*
X017721Y002359D02*
X014243Y002359D01*
X014364Y002477D02*
X017572Y002477D01*
X017537Y002506D02*
X017537Y002506D01*
X017476Y002596D02*
X014439Y002596D01*
X013904Y002596D02*
X013785Y002596D01*
X013785Y002477D02*
X013904Y002477D01*
X013904Y002359D02*
X013785Y002359D01*
X013446Y002359D02*
X008062Y002359D01*
X008183Y002477D02*
X008987Y002477D01*
X008832Y002596D02*
X008258Y002596D01*
X008171Y003307D02*
X008949Y003307D01*
X008888Y003426D02*
X008042Y003426D01*
X008295Y004019D02*
X005496Y004019D01*
X005614Y004137D02*
X008176Y004137D01*
X008414Y003900D02*
X004374Y003900D01*
X004356Y004019D02*
X005012Y004019D01*
X004894Y004137D02*
X004334Y004137D01*
X004277Y004256D02*
X004824Y004256D01*
X004824Y004374D02*
X004220Y004374D01*
X004163Y004493D02*
X004821Y004493D01*
X004702Y004611D02*
X004087Y004611D01*
X003977Y004730D02*
X004584Y004730D01*
X004465Y004848D02*
X003867Y004848D01*
X003789Y004933D02*
X003789Y004933D01*
X003729Y004967D02*
X004347Y004967D01*
X004228Y005085D02*
X003524Y005085D01*
X003360Y005180D02*
X003360Y005180D01*
X003255Y005204D02*
X004110Y005204D01*
X004024Y005322D02*
X001264Y005322D01*
X001264Y005204D02*
X002259Y005204D01*
X001957Y005085D02*
X001264Y005085D01*
X001264Y004967D02*
X001792Y004967D01*
X001924Y005072D02*
X001924Y005072D01*
X001643Y004848D02*
X001264Y004848D01*
X001264Y004730D02*
X001514Y004730D01*
X001433Y004611D02*
X001264Y004611D01*
X001264Y004493D02*
X001352Y004493D01*
X001271Y004374D02*
X001264Y004374D01*
X001264Y005441D02*
X004024Y005441D01*
X004024Y005560D02*
X001264Y005560D01*
X001264Y005678D02*
X004024Y005678D01*
X004024Y005797D02*
X001264Y005797D01*
X001264Y005915D02*
X004024Y005915D01*
X004024Y006034D02*
X003162Y006034D01*
X003125Y006018D02*
X003351Y006112D01*
X003524Y006285D01*
X003617Y006511D01*
X003617Y006755D01*
X003524Y006981D01*
X003351Y007154D01*
X003125Y007248D01*
X002880Y007248D01*
X002654Y007154D01*
X002481Y006981D01*
X002387Y006755D01*
X002387Y006511D01*
X002481Y006285D01*
X002654Y006112D01*
X002880Y006018D01*
X003125Y006018D01*
X002842Y006034D02*
X001264Y006034D01*
X001264Y006152D02*
X002613Y006152D01*
X002495Y006271D02*
X001264Y006271D01*
X001264Y006389D02*
X002438Y006389D01*
X002389Y006508D02*
X001264Y006508D01*
X001264Y006626D02*
X002387Y006626D01*
X002387Y006745D02*
X001264Y006745D01*
X001264Y006864D02*
X002432Y006864D01*
X002482Y006982D02*
X001264Y006982D01*
X001264Y007101D02*
X002600Y007101D01*
X002810Y007219D02*
X001264Y007219D01*
X001264Y007338D02*
X004882Y007338D01*
X005000Y007456D02*
X001264Y007456D01*
X001264Y007575D02*
X005119Y007575D01*
X005237Y007693D02*
X001264Y007693D01*
X001264Y007812D02*
X005356Y007812D01*
X005474Y007930D02*
X001264Y007930D01*
X001264Y008049D02*
X005593Y008049D01*
X005712Y008168D02*
X003362Y008168D01*
X003481Y008286D02*
X005830Y008286D01*
X005949Y008405D02*
X003599Y008405D01*
X003718Y008523D02*
X005379Y008523D01*
X005632Y008523D02*
X006024Y008523D01*
X006024Y008642D02*
X005881Y008642D01*
X005999Y008760D02*
X006024Y008760D01*
X006362Y008168D02*
X010524Y008168D01*
X010524Y008286D02*
X006481Y008286D01*
X006484Y008405D02*
X010524Y008405D01*
X010524Y008523D02*
X009629Y008523D01*
X009625Y008521D02*
X009851Y008615D01*
X010024Y008788D01*
X010117Y009014D01*
X010117Y009259D01*
X010024Y009485D01*
X009851Y009658D01*
X009625Y009751D01*
X009380Y009751D01*
X009154Y009658D01*
X008981Y009485D01*
X008887Y009259D01*
X008887Y009014D01*
X008981Y008788D01*
X009154Y008615D01*
X009380Y008521D01*
X009625Y008521D01*
X009376Y008523D02*
X006484Y008523D01*
X006484Y008642D02*
X009127Y008642D01*
X009009Y008760D02*
X006484Y008760D01*
X006484Y008879D02*
X008943Y008879D01*
X008894Y008997D02*
X006484Y008997D01*
X006484Y009116D02*
X008887Y009116D01*
X008887Y009234D02*
X006484Y009234D01*
X006484Y009353D02*
X008926Y009353D01*
X008976Y009471D02*
X006484Y009471D01*
X006484Y009590D02*
X009086Y009590D01*
X009277Y009709D02*
X006484Y009709D01*
X006484Y009827D02*
X010524Y009827D01*
X010524Y009709D02*
X009728Y009709D01*
X009918Y009590D02*
X010524Y009590D01*
X010524Y009471D02*
X010029Y009471D01*
X010078Y009353D02*
X010524Y009353D01*
X010524Y009234D02*
X010117Y009234D01*
X010117Y009116D02*
X010524Y009116D01*
X010524Y008997D02*
X010110Y008997D01*
X010061Y008879D02*
X010524Y008879D01*
X010524Y008760D02*
X009996Y008760D01*
X009878Y008642D02*
X010524Y008642D01*
X010524Y008049D02*
X006244Y008049D01*
X006125Y007930D02*
X010524Y007930D01*
X010524Y007812D02*
X006006Y007812D01*
X005888Y007693D02*
X010524Y007693D01*
X010524Y007575D02*
X008729Y007575D01*
X008858Y007456D02*
X010524Y007456D01*
X010524Y007338D02*
X009018Y007338D01*
X008902Y007338D02*
X008740Y007338D01*
X008784Y007219D02*
X008621Y007219D01*
X008665Y007101D02*
X008503Y007101D01*
X008547Y006982D02*
X008384Y006982D01*
X008378Y006864D02*
X008428Y006864D01*
X008496Y006745D02*
X008333Y006745D01*
X008310Y006745D02*
X008147Y006745D01*
X008191Y006626D02*
X008028Y006626D01*
X008073Y006508D02*
X007910Y006508D01*
X007954Y006389D02*
X007791Y006389D01*
X007836Y006271D02*
X007673Y006271D01*
X007671Y006269D02*
X008240Y006838D01*
X007918Y007160D01*
X007681Y006923D01*
X007634Y006858D01*
X007597Y006786D01*
X007572Y006709D01*
X007560Y006629D01*
X007560Y006549D01*
X007572Y006469D01*
X007597Y006392D01*
X007634Y006320D01*
X007671Y006269D01*
X007670Y006271D02*
X007338Y006271D01*
X007337Y006269D02*
X007374Y006320D01*
X007411Y006392D01*
X007436Y006469D01*
X007448Y006549D01*
X007448Y006629D01*
X007436Y006709D01*
X007411Y006786D01*
X007374Y006858D01*
X007327Y006923D01*
X007089Y007160D01*
X006768Y006838D01*
X007337Y006269D01*
X007335Y006271D02*
X007172Y006271D01*
X007255Y006188D02*
X006687Y006757D01*
X006768Y006838D01*
X006687Y006920D01*
X007008Y007241D01*
X006771Y007478D01*
X006706Y007526D01*
X006634Y007562D01*
X006557Y007587D01*
X006478Y007600D01*
X006397Y007600D01*
X006317Y007587D01*
X006240Y007562D01*
X006169Y007526D01*
X006117Y007489D01*
X006686Y006920D01*
X006605Y006838D01*
X006686Y006757D01*
X006365Y006435D01*
X006602Y006198D01*
X006667Y006151D01*
X006739Y006114D01*
X006816Y006089D01*
X006895Y006076D01*
X006976Y006076D01*
X007056Y006089D01*
X007132Y006114D01*
X007204Y006151D01*
X007255Y006188D01*
X007207Y006152D02*
X007801Y006152D01*
X007599Y006389D02*
X007409Y006389D01*
X007442Y006508D02*
X007566Y006508D01*
X007560Y006626D02*
X007448Y006626D01*
X007424Y006745D02*
X007584Y006745D01*
X007638Y006864D02*
X007370Y006864D01*
X007267Y006982D02*
X007741Y006982D01*
X007859Y007101D02*
X007149Y007101D01*
X007030Y007101D02*
X006868Y007101D01*
X006912Y006982D02*
X006749Y006982D01*
X006743Y006864D02*
X006793Y006864D01*
X006861Y006745D02*
X006698Y006745D01*
X006675Y006745D02*
X006512Y006745D01*
X006556Y006626D02*
X006393Y006626D01*
X006438Y006508D02*
X004702Y006508D01*
X004584Y006389D02*
X006410Y006389D01*
X006529Y006271D02*
X004484Y006271D01*
X004484Y006152D02*
X004774Y006152D01*
X004645Y006034D02*
X004484Y006034D01*
X004484Y005915D02*
X004574Y005915D01*
X004529Y005797D02*
X004484Y005797D01*
X004484Y005678D02*
X004529Y005678D01*
X004544Y005560D02*
X004484Y005560D01*
X004523Y005441D02*
X004594Y005441D01*
X004641Y005322D02*
X004691Y005322D01*
X004760Y005204D02*
X004810Y005204D01*
X004879Y005085D02*
X004928Y005085D01*
X004997Y004967D02*
X005047Y004967D01*
X005116Y004848D02*
X005165Y004848D01*
X005328Y006152D02*
X006665Y006152D01*
X006817Y006626D02*
X006979Y006626D01*
X006935Y006508D02*
X007098Y006508D01*
X007054Y006389D02*
X007217Y006389D01*
X006986Y007219D02*
X008022Y007219D01*
X007978Y007101D02*
X008140Y007101D01*
X008096Y006982D02*
X008259Y006982D01*
X008265Y006864D02*
X008215Y006864D01*
X008452Y006626D02*
X008615Y006626D01*
X008835Y006626D02*
X010524Y006626D01*
X010524Y006745D02*
X008953Y006745D01*
X009032Y006864D02*
X010524Y006864D01*
X010524Y006982D02*
X009073Y006982D01*
X009083Y007101D02*
X010524Y007101D01*
X010524Y007219D02*
X009067Y007219D01*
X008412Y007575D02*
X006596Y007575D01*
X006793Y007456D02*
X008215Y007456D01*
X008096Y007338D02*
X006912Y007338D01*
X006624Y006982D02*
X006461Y006982D01*
X006505Y007101D02*
X006343Y007101D01*
X006387Y007219D02*
X006224Y007219D01*
X006268Y007338D02*
X006106Y007338D01*
X006036Y007407D02*
X005999Y007356D01*
X005962Y007284D01*
X005937Y007207D01*
X005925Y007128D01*
X005925Y007047D01*
X005937Y006967D01*
X005962Y006891D01*
X005999Y006819D01*
X006046Y006754D01*
X006283Y006516D01*
X006605Y006838D01*
X006036Y007407D01*
X005990Y007338D02*
X005532Y007338D01*
X005651Y007456D02*
X006150Y007456D01*
X006279Y007575D02*
X005769Y007575D01*
X005941Y007219D02*
X005414Y007219D01*
X005295Y007101D02*
X005925Y007101D01*
X005935Y006982D02*
X005177Y006982D01*
X005058Y006864D02*
X005976Y006864D01*
X006055Y006745D02*
X004940Y006745D01*
X004821Y006626D02*
X006173Y006626D01*
X006580Y006864D02*
X006630Y006864D01*
X006024Y009590D02*
X005922Y009590D01*
X006024Y009709D02*
X005731Y009709D01*
X006024Y010183D02*
X005377Y010183D01*
X005484Y010301D02*
X006024Y010301D01*
X006024Y010420D02*
X005484Y010420D01*
X005484Y010538D02*
X006024Y010538D01*
X006024Y010657D02*
X005484Y010657D01*
X005484Y010775D02*
X006024Y010775D01*
X006024Y010894D02*
X005484Y010894D01*
X005484Y011013D02*
X006024Y011013D01*
X006024Y011131D02*
X005484Y011131D01*
X005484Y011250D02*
X006024Y011250D01*
X006024Y011368D02*
X005484Y011368D01*
X005484Y011487D02*
X006024Y011487D01*
X006024Y011605D02*
X005484Y011605D01*
X005484Y011724D02*
X006024Y011724D01*
X006024Y011842D02*
X005484Y011842D01*
X005024Y010894D02*
X003355Y010894D01*
X003474Y010775D02*
X005024Y010775D01*
X005024Y010657D02*
X003466Y010657D01*
X003305Y010301D02*
X003273Y010301D01*
X003142Y010301D02*
X003110Y010301D01*
X003644Y009590D02*
X004134Y009590D01*
X004429Y009234D02*
X004891Y009234D01*
X004891Y009116D02*
X004310Y009116D01*
X004192Y008997D02*
X004897Y008997D01*
X004947Y008879D02*
X004073Y008879D01*
X003955Y008760D02*
X005012Y008760D01*
X005130Y008642D02*
X003836Y008642D01*
X003541Y008997D02*
X002494Y008997D01*
X002555Y008879D02*
X003423Y008879D01*
X003304Y008760D02*
X002593Y008760D01*
X002593Y008642D02*
X003186Y008642D01*
X003660Y009116D02*
X002376Y009116D01*
X002257Y009234D02*
X003778Y009234D01*
X004547Y009353D02*
X004930Y009353D01*
X004979Y009471D02*
X004666Y009471D01*
X004785Y009590D02*
X005090Y009590D01*
X004903Y009709D02*
X005280Y009709D01*
X005140Y009946D02*
X006024Y009946D01*
X006024Y010064D02*
X005259Y010064D01*
X005022Y009827D02*
X006024Y009827D01*
X006484Y009946D02*
X010524Y009946D01*
X010524Y010064D02*
X006484Y010064D01*
X006484Y010183D02*
X010524Y010183D01*
X010524Y010301D02*
X006484Y010301D01*
X006484Y010420D02*
X010524Y010420D01*
X010524Y010538D02*
X006484Y010538D01*
X006484Y010657D02*
X010524Y010657D01*
X010524Y010775D02*
X006484Y010775D01*
X006484Y010894D02*
X010524Y010894D01*
X010524Y011013D02*
X006484Y011013D01*
X006484Y011131D02*
X010524Y011131D01*
X010524Y011250D02*
X006484Y011250D01*
X006484Y011368D02*
X010524Y011368D01*
X010524Y011487D02*
X006484Y011487D01*
X006484Y011605D02*
X010524Y011605D01*
X010524Y011724D02*
X006484Y011724D01*
X006484Y011842D02*
X010524Y011842D01*
X010524Y011961D02*
X006484Y011961D01*
X006484Y012079D02*
X009965Y012079D01*
X009847Y012198D02*
X006484Y012198D01*
X006484Y012317D02*
X009834Y012317D01*
X009834Y012435D02*
X006484Y012435D01*
X006484Y012554D02*
X009834Y012554D01*
X009948Y012672D02*
X006484Y012672D01*
X006484Y012791D02*
X010066Y012791D01*
X010234Y012791D02*
X010274Y012791D01*
X010274Y012672D02*
X010234Y012672D01*
X010234Y012554D02*
X010274Y012554D01*
X010274Y012435D02*
X010234Y012435D01*
X010234Y012317D02*
X010274Y012317D01*
X010274Y012198D02*
X010234Y012198D01*
X010234Y012079D02*
X010274Y012079D01*
X010442Y012791D02*
X010524Y012791D01*
X010524Y012909D02*
X006484Y012909D01*
X006436Y013028D02*
X010572Y013028D01*
X010690Y013146D02*
X006318Y013146D01*
X006199Y013265D02*
X010809Y013265D01*
X010927Y013383D02*
X006081Y013383D01*
X005984Y013502D02*
X011046Y013502D01*
X011254Y012385D02*
X012254Y012385D01*
X017254Y017385D01*
X017254Y018385D01*
X017024Y018007D02*
X016734Y018007D01*
X016734Y018125D02*
X016905Y018125D01*
X016824Y018244D02*
X016734Y018244D01*
X016734Y018362D02*
X016824Y018362D01*
X016824Y018481D02*
X016734Y018481D01*
X016794Y018599D02*
X016861Y018599D01*
X016912Y018718D02*
X016979Y018718D01*
X016618Y019074D02*
X016046Y019074D01*
X016046Y019192D02*
X016736Y019192D01*
X016855Y019311D02*
X016046Y019311D01*
X016046Y019429D02*
X016973Y019429D01*
X017092Y019548D02*
X016046Y019548D01*
X016013Y019666D02*
X017210Y019666D01*
X017329Y019785D02*
X015961Y019785D01*
X016046Y018955D02*
X016499Y018955D01*
X016380Y018836D02*
X016046Y018836D01*
X016046Y018718D02*
X016274Y018718D01*
X016274Y018599D02*
X016012Y018599D01*
X015957Y018481D02*
X016274Y018481D01*
X016274Y018125D02*
X005984Y018125D01*
X005984Y018007D02*
X007880Y018007D01*
X007996Y018055D02*
X007749Y017953D01*
X007561Y017764D01*
X007459Y017518D01*
X007459Y017251D01*
X007561Y017005D01*
X007749Y016817D01*
X007996Y016715D01*
X008262Y016715D01*
X008509Y016817D01*
X008697Y017005D01*
X008799Y017251D01*
X008799Y017518D01*
X008697Y017764D01*
X008509Y017953D01*
X008262Y018055D01*
X007996Y018055D01*
X008378Y018007D02*
X013130Y018007D01*
X013246Y018055D02*
X012999Y017953D01*
X012811Y017764D01*
X012709Y017518D01*
X012709Y017251D01*
X012811Y017005D01*
X012999Y016817D01*
X013246Y016715D01*
X013512Y016715D01*
X013759Y016817D01*
X013947Y017005D01*
X014049Y017251D01*
X014049Y017518D01*
X013947Y017764D01*
X013759Y017953D01*
X013512Y018055D01*
X013246Y018055D01*
X012935Y017888D02*
X008573Y017888D01*
X008692Y017770D02*
X012816Y017770D01*
X012764Y017651D02*
X008744Y017651D01*
X008793Y017532D02*
X012715Y017532D01*
X012709Y017414D02*
X008799Y017414D01*
X008799Y017295D02*
X012709Y017295D01*
X012740Y017177D02*
X008768Y017177D01*
X008719Y017058D02*
X012789Y017058D01*
X012876Y016940D02*
X008631Y016940D01*
X008513Y016821D02*
X012995Y016821D01*
X013763Y016821D02*
X015865Y016821D01*
X015747Y016703D02*
X005984Y016703D01*
X005984Y016821D02*
X007745Y016821D01*
X007626Y016940D02*
X005984Y016940D01*
X005984Y017058D02*
X007539Y017058D01*
X007490Y017177D02*
X005984Y017177D01*
X005984Y017295D02*
X007459Y017295D01*
X007459Y017414D02*
X005984Y017414D01*
X005984Y017532D02*
X007465Y017532D01*
X007514Y017651D02*
X005984Y017651D01*
X005984Y017770D02*
X007566Y017770D01*
X007685Y017888D02*
X005984Y017888D01*
X005984Y016584D02*
X015628Y016584D01*
X015510Y016466D02*
X005984Y016466D01*
X005984Y016347D02*
X015391Y016347D01*
X015273Y016228D02*
X005984Y016228D01*
X005984Y016110D02*
X015154Y016110D01*
X015035Y015991D02*
X005984Y015991D01*
X005984Y015873D02*
X014917Y015873D01*
X014798Y015754D02*
X005984Y015754D01*
X005984Y015636D02*
X014680Y015636D01*
X014561Y015517D02*
X005984Y015517D01*
X005984Y015399D02*
X014443Y015399D01*
X014324Y015280D02*
X005984Y015280D01*
X005984Y015162D02*
X014206Y015162D01*
X014087Y015043D02*
X005984Y015043D01*
X005984Y014924D02*
X013969Y014924D01*
X013850Y014806D02*
X005984Y014806D01*
X005984Y014687D02*
X013731Y014687D01*
X013613Y014569D02*
X005984Y014569D01*
X005984Y014450D02*
X013494Y014450D01*
X013376Y014332D02*
X005984Y014332D01*
X005984Y014213D02*
X013257Y014213D01*
X013139Y014095D02*
X005984Y014095D01*
X005984Y013976D02*
X013020Y013976D01*
X012902Y013858D02*
X005984Y013858D01*
X005984Y013739D02*
X012783Y013739D01*
X012665Y013621D02*
X005984Y013621D01*
X003038Y018007D02*
X002470Y018007D01*
X002428Y017965D02*
X002674Y018211D01*
X002674Y018365D01*
X002274Y018365D01*
X002274Y018405D01*
X002234Y018405D01*
X002234Y018805D01*
X002080Y018805D01*
X001834Y018559D01*
X001834Y018405D01*
X002234Y018405D01*
X002234Y018365D01*
X001834Y018365D01*
X001834Y018211D01*
X002080Y017965D01*
X002234Y017965D01*
X002234Y018364D01*
X002274Y018364D01*
X002274Y017965D01*
X002428Y017965D01*
X002274Y018007D02*
X002234Y018007D01*
X002234Y018125D02*
X002274Y018125D01*
X002274Y018244D02*
X002234Y018244D01*
X002234Y018362D02*
X002274Y018362D01*
X002274Y018405D02*
X002674Y018405D01*
X002674Y018559D01*
X002428Y018805D01*
X002274Y018805D01*
X002274Y018405D01*
X002274Y018481D02*
X002234Y018481D01*
X002234Y018599D02*
X002274Y018599D01*
X002274Y018718D02*
X002234Y018718D01*
X001993Y018718D02*
X001264Y018718D01*
X001264Y018599D02*
X001875Y018599D01*
X001834Y018481D02*
X001264Y018481D01*
X001264Y018362D02*
X001834Y018362D01*
X001834Y018244D02*
X001264Y018244D01*
X001264Y018125D02*
X001920Y018125D01*
X002038Y018007D02*
X001264Y018007D01*
X002515Y018718D02*
X002993Y018718D01*
X002875Y018599D02*
X002633Y018599D01*
X002674Y018481D02*
X002834Y018481D01*
X002834Y018362D02*
X002674Y018362D01*
X002674Y018244D02*
X002834Y018244D01*
X002920Y018125D02*
X002588Y018125D01*
X006509Y025119D02*
X014694Y025119D01*
X014364Y025949D02*
X004984Y025949D01*
X004984Y026068D02*
X005058Y026068D01*
X005254Y026385D02*
X010254Y026385D01*
X010754Y026885D01*
X010754Y031885D01*
X010254Y032385D01*
X010254Y034885D01*
X010246Y035551D02*
X010524Y035551D01*
X010524Y035670D02*
X010364Y035670D01*
X010483Y035788D02*
X010524Y035788D01*
X010524Y035907D02*
X010484Y035907D01*
X010484Y036025D02*
X010524Y036025D01*
X010524Y036144D02*
X010484Y036144D01*
X010484Y036262D02*
X010524Y036262D01*
X010524Y036381D02*
X010484Y036381D01*
X010254Y035885D02*
X009004Y034635D01*
X008754Y034885D02*
X008254Y034885D01*
X004254Y030885D01*
X005004Y030809D02*
X006146Y030809D01*
X006117Y030781D02*
X006169Y030744D01*
X006240Y030707D01*
X006317Y030682D01*
X006397Y030669D01*
X006478Y030669D01*
X006557Y030682D01*
X006634Y030707D01*
X006706Y030744D01*
X006771Y030791D01*
X007008Y031028D01*
X006687Y031350D01*
X006768Y031431D01*
X007089Y031109D01*
X007327Y031347D01*
X007374Y031412D01*
X007411Y031484D01*
X007436Y031560D01*
X007448Y031640D01*
X007448Y031721D01*
X007436Y031800D01*
X007411Y031877D01*
X007374Y031949D01*
X007337Y032000D01*
X006768Y031431D01*
X006687Y031513D01*
X007255Y032082D01*
X007204Y032119D01*
X007132Y032155D01*
X007056Y032180D01*
X006976Y032193D01*
X006895Y032193D01*
X006816Y032180D01*
X006739Y032155D01*
X006667Y032119D01*
X006602Y032071D01*
X006365Y031834D01*
X006686Y031513D01*
X006605Y031431D01*
X006686Y031350D01*
X006117Y030781D01*
X006036Y030862D02*
X006605Y031431D01*
X006283Y031753D01*
X006046Y031516D01*
X005999Y031451D01*
X005962Y031379D01*
X005937Y031302D01*
X005925Y031222D01*
X005925Y031142D01*
X005937Y031062D01*
X005962Y030985D01*
X005999Y030913D01*
X006036Y030862D01*
X005991Y030928D02*
X005122Y030928D01*
X005241Y031046D02*
X005942Y031046D01*
X005925Y031165D02*
X005359Y031165D01*
X005478Y031283D02*
X005934Y031283D01*
X005974Y031402D02*
X005597Y031402D01*
X005715Y031521D02*
X006051Y031521D01*
X006170Y031639D02*
X005834Y031639D01*
X005952Y031758D02*
X006441Y031758D01*
X006407Y031876D02*
X006071Y031876D01*
X006189Y031995D02*
X006525Y031995D01*
X006660Y032113D02*
X006308Y032113D01*
X006426Y032232D02*
X009333Y032232D01*
X009380Y032251D02*
X009154Y032158D01*
X008981Y031985D01*
X008887Y031759D01*
X008887Y031514D01*
X008981Y031288D01*
X009154Y031115D01*
X009380Y031021D01*
X009625Y031021D01*
X009851Y031115D01*
X010024Y031288D01*
X010117Y031514D01*
X010117Y031759D01*
X010024Y031985D01*
X009851Y032158D01*
X009625Y032251D01*
X009380Y032251D01*
X009672Y032232D02*
X010082Y032232D01*
X010024Y032350D02*
X006545Y032350D01*
X006663Y032469D02*
X010024Y032469D01*
X010024Y032587D02*
X006782Y032587D01*
X006901Y032706D02*
X010024Y032706D01*
X010024Y032825D02*
X007019Y032825D01*
X007138Y032943D02*
X010024Y032943D01*
X010024Y033062D02*
X007256Y033062D01*
X007375Y033180D02*
X010024Y033180D01*
X010024Y033299D02*
X007493Y033299D01*
X007612Y033417D02*
X010024Y033417D01*
X010024Y033536D02*
X007730Y033536D01*
X007849Y033654D02*
X010024Y033654D01*
X010024Y033773D02*
X007967Y033773D01*
X008086Y033891D02*
X010024Y033891D01*
X010024Y034010D02*
X008204Y034010D01*
X008323Y034129D02*
X010024Y034129D01*
X010024Y034247D02*
X008442Y034247D01*
X008560Y034366D02*
X010024Y034366D01*
X010754Y035385D02*
X011254Y034885D01*
X011580Y034603D02*
X011961Y034603D01*
X012024Y034484D02*
X011461Y034484D01*
X011684Y034721D02*
X011842Y034721D01*
X011724Y034840D02*
X011684Y034840D01*
X012254Y034635D02*
X011254Y035635D01*
X011254Y037385D01*
X010754Y037885D01*
X011144Y038159D02*
X011364Y038159D01*
X011284Y038040D02*
X011224Y038040D01*
X011224Y037922D02*
X011284Y037922D01*
X011284Y037803D02*
X011224Y037803D01*
X011279Y037685D02*
X011289Y037685D01*
X011398Y037566D02*
X011408Y037566D01*
X011484Y037448D02*
X011526Y037448D01*
X011534Y037329D02*
X011484Y037329D01*
X011754Y036885D02*
X011754Y035635D01*
X012754Y034635D01*
X012754Y032385D01*
X011754Y031385D01*
X011754Y030385D01*
X012754Y029385D01*
X012754Y027885D01*
X017254Y023385D01*
X017254Y022385D01*
X017524Y021800D02*
X016046Y021800D01*
X016937Y024526D02*
X017024Y024526D01*
X017024Y024645D02*
X016819Y024645D01*
X016700Y024764D02*
X017024Y024764D01*
X017024Y024882D02*
X016582Y024882D01*
X016463Y025001D02*
X017024Y025001D01*
X017024Y025119D02*
X016345Y025119D01*
X016226Y025238D02*
X017024Y025238D01*
X017024Y025356D02*
X016108Y025356D01*
X015989Y025475D02*
X017024Y025475D01*
X017024Y025593D02*
X015871Y025593D01*
X015752Y025712D02*
X017024Y025712D01*
X017024Y025830D02*
X015633Y025830D01*
X015515Y025949D02*
X017024Y025949D01*
X017024Y026068D02*
X015396Y026068D01*
X015278Y026186D02*
X017024Y026186D01*
X017024Y026305D02*
X015159Y026305D01*
X015041Y026423D02*
X017024Y026423D01*
X017024Y026542D02*
X014922Y026542D01*
X014804Y026660D02*
X017024Y026660D01*
X017024Y026779D02*
X014685Y026779D01*
X014567Y026897D02*
X017024Y026897D01*
X017024Y027016D02*
X014448Y027016D01*
X014246Y026068D02*
X005450Y026068D01*
X005499Y026660D02*
X010204Y026660D01*
X010323Y026779D02*
X004984Y026779D01*
X004984Y026897D02*
X010441Y026897D01*
X010524Y027016D02*
X004984Y027016D01*
X004984Y027134D02*
X010524Y027134D01*
X010524Y027253D02*
X009704Y027253D01*
X009727Y027265D02*
X009792Y027312D01*
X010029Y027549D01*
X009708Y027871D01*
X009789Y027952D01*
X010111Y027630D01*
X010348Y027868D01*
X010395Y027933D01*
X010432Y028005D01*
X010457Y028081D01*
X010469Y028161D01*
X010469Y028242D01*
X010457Y028321D01*
X010432Y028398D01*
X010395Y028470D01*
X010358Y028521D01*
X009789Y027952D01*
X009708Y028034D01*
X010276Y028603D01*
X010225Y028640D01*
X010153Y028676D01*
X010077Y028701D01*
X009997Y028714D01*
X009916Y028714D01*
X009837Y028701D01*
X009760Y028676D01*
X009688Y028640D01*
X009623Y028592D01*
X009386Y028355D01*
X009707Y028034D01*
X009626Y027952D01*
X009707Y027871D01*
X009138Y027302D01*
X009190Y027265D01*
X009261Y027228D01*
X009338Y027203D01*
X009418Y027190D01*
X009499Y027190D01*
X009578Y027203D01*
X009655Y027228D01*
X009727Y027265D01*
X009852Y027372D02*
X010524Y027372D01*
X010524Y027490D02*
X009970Y027490D01*
X009970Y027609D02*
X010524Y027609D01*
X010524Y027727D02*
X010207Y027727D01*
X010326Y027846D02*
X010524Y027846D01*
X010524Y027964D02*
X010411Y027964D01*
X010457Y028083D02*
X010524Y028083D01*
X010524Y028201D02*
X010469Y028201D01*
X010457Y028320D02*
X010524Y028320D01*
X010524Y028438D02*
X010411Y028438D01*
X010275Y028438D02*
X010112Y028438D01*
X010156Y028320D02*
X009994Y028320D01*
X010038Y028201D02*
X009875Y028201D01*
X009919Y028083D02*
X009757Y028083D01*
X009658Y028083D02*
X009496Y028083D01*
X009540Y028201D02*
X009377Y028201D01*
X009304Y028274D02*
X009067Y028037D01*
X009020Y027972D01*
X008983Y027900D01*
X008958Y027823D01*
X008946Y027743D01*
X008946Y027663D01*
X008958Y027583D01*
X008983Y027506D01*
X009020Y027434D01*
X009057Y027383D01*
X009626Y027952D01*
X009304Y028274D01*
X009232Y028201D02*
X004984Y028201D01*
X004984Y028083D02*
X009113Y028083D01*
X009016Y027964D02*
X004984Y027964D01*
X004984Y027846D02*
X008966Y027846D01*
X008946Y027727D02*
X004984Y027727D01*
X004984Y027609D02*
X008954Y027609D01*
X008991Y027490D02*
X004984Y027490D01*
X004984Y027372D02*
X009208Y027372D01*
X009212Y027253D02*
X004984Y027253D01*
X004984Y026660D02*
X005009Y026660D01*
X004984Y028320D02*
X009421Y028320D01*
X009469Y028438D02*
X004984Y028438D01*
X004984Y028557D02*
X005289Y028557D01*
X005093Y028676D02*
X004984Y028676D01*
X004984Y028785D02*
X004984Y028785D01*
X004984Y029481D02*
X004984Y029481D01*
X004984Y029505D02*
X005008Y029505D01*
X004984Y029624D02*
X005127Y029624D01*
X004984Y029742D02*
X005370Y029742D01*
X004984Y029861D02*
X008105Y029861D01*
X007987Y029742D02*
X005642Y029742D01*
X005885Y029624D02*
X007868Y029624D01*
X007750Y029505D02*
X006003Y029505D01*
X006066Y029387D02*
X007631Y029387D01*
X007629Y029385D02*
X007550Y029193D01*
X007550Y028985D01*
X007629Y028793D01*
X007776Y028646D01*
X007968Y028566D01*
X008176Y028566D01*
X008368Y028646D01*
X009014Y029291D01*
X009093Y029483D01*
X009093Y029691D01*
X009014Y029883D01*
X008867Y030030D01*
X008675Y030110D01*
X008467Y030110D01*
X008275Y030030D01*
X007629Y029385D01*
X007581Y029268D02*
X006115Y029268D01*
X006121Y029150D02*
X007550Y029150D01*
X007550Y029031D02*
X006121Y029031D01*
X006080Y028913D02*
X007580Y028913D01*
X007629Y028794D02*
X006031Y028794D01*
X005918Y028676D02*
X007747Y028676D01*
X008398Y028676D02*
X009758Y028676D01*
X009587Y028557D02*
X005722Y028557D01*
X004984Y029979D02*
X008224Y029979D01*
X008438Y030098D02*
X004984Y030098D01*
X004984Y030217D02*
X010524Y030217D01*
X010524Y030335D02*
X004984Y030335D01*
X004984Y030454D02*
X010524Y030454D01*
X010524Y030572D02*
X004984Y030572D01*
X004984Y030691D02*
X006290Y030691D01*
X006264Y030928D02*
X006102Y030928D01*
X006220Y031046D02*
X006383Y031046D01*
X006339Y031165D02*
X006502Y031165D01*
X006457Y031283D02*
X006620Y031283D01*
X006634Y031402D02*
X006576Y031402D01*
X006516Y031521D02*
X006678Y031521D01*
X006694Y031521D02*
X006857Y031521D01*
X006813Y031639D02*
X006976Y031639D01*
X006931Y031758D02*
X007094Y031758D01*
X007050Y031876D02*
X007213Y031876D01*
X007169Y031995D02*
X007331Y031995D01*
X007341Y031995D02*
X008991Y031995D01*
X008936Y031876D02*
X007411Y031876D01*
X007442Y031758D02*
X008887Y031758D01*
X008887Y031639D02*
X007448Y031639D01*
X007423Y031521D02*
X008887Y031521D01*
X008934Y031402D02*
X007367Y031402D01*
X007264Y031283D02*
X008985Y031283D01*
X009104Y031165D02*
X007145Y031165D01*
X007034Y031165D02*
X006871Y031165D01*
X006915Y031283D02*
X006753Y031283D01*
X006739Y031402D02*
X006797Y031402D01*
X006560Y031639D02*
X006397Y031639D01*
X006789Y030809D02*
X010524Y030809D01*
X010524Y030691D02*
X006584Y030691D01*
X006908Y030928D02*
X010524Y030928D01*
X010524Y031046D02*
X009685Y031046D01*
X009901Y031165D02*
X010524Y031165D01*
X010524Y031283D02*
X010019Y031283D01*
X010071Y031402D02*
X010524Y031402D01*
X010524Y031521D02*
X010117Y031521D01*
X010117Y031639D02*
X010524Y031639D01*
X010524Y031758D02*
X010117Y031758D01*
X010069Y031876D02*
X010437Y031876D01*
X010319Y031995D02*
X010014Y031995D01*
X009895Y032113D02*
X010200Y032113D01*
X009319Y031046D02*
X006990Y031046D01*
X007212Y032113D02*
X009110Y032113D01*
X008703Y030098D02*
X010524Y030098D01*
X010524Y029979D02*
X008918Y029979D01*
X009023Y029861D02*
X010524Y029861D01*
X010524Y029742D02*
X009072Y029742D01*
X009093Y029624D02*
X010524Y029624D01*
X010524Y029505D02*
X009093Y029505D01*
X009053Y029387D02*
X010524Y029387D01*
X010524Y029268D02*
X008991Y029268D01*
X008872Y029150D02*
X010524Y029150D01*
X010524Y029031D02*
X008753Y029031D01*
X008635Y028913D02*
X010524Y028913D01*
X010524Y028794D02*
X008516Y028794D01*
X009164Y027490D02*
X009327Y027490D01*
X009283Y027609D02*
X009445Y027609D01*
X009401Y027727D02*
X009564Y027727D01*
X009520Y027846D02*
X009682Y027846D01*
X009733Y027846D02*
X009895Y027846D01*
X009851Y027727D02*
X010014Y027727D01*
X009801Y027964D02*
X009777Y027964D01*
X009638Y027964D02*
X009614Y027964D01*
X010231Y028557D02*
X010524Y028557D01*
X010524Y028676D02*
X010155Y028676D01*
X011819Y032113D02*
X012157Y032113D01*
X012276Y032232D02*
X011954Y032232D01*
X012073Y032350D02*
X012394Y032350D01*
X012513Y032469D02*
X012191Y032469D01*
X012310Y032587D02*
X012524Y032587D01*
X012524Y032706D02*
X012428Y032706D01*
X012515Y032825D02*
X012524Y032825D01*
X012254Y033271D02*
X011801Y032817D01*
X012254Y033271D02*
X012254Y034635D01*
X013004Y034885D02*
X012254Y035635D01*
X012254Y037385D01*
X011754Y037885D01*
X011482Y038278D02*
X011026Y038278D01*
X010482Y038278D02*
X010026Y038278D01*
X010144Y038159D02*
X010364Y038159D01*
X010284Y038040D02*
X010224Y038040D01*
X010224Y037922D02*
X010284Y037922D01*
X010284Y037803D02*
X010224Y037803D01*
X010279Y037685D02*
X010289Y037685D01*
X010398Y037566D02*
X010408Y037566D01*
X010484Y037448D02*
X010526Y037448D01*
X010534Y037329D02*
X010484Y037329D01*
X010254Y037385D02*
X010254Y035885D01*
X009754Y035885D02*
X009754Y036885D01*
X009534Y037329D02*
X009484Y037329D01*
X009484Y037448D02*
X009526Y037448D01*
X009408Y037566D02*
X009398Y037566D01*
X009289Y037685D02*
X009279Y037685D01*
X009284Y037803D02*
X009224Y037803D01*
X009224Y037922D02*
X009284Y037922D01*
X009284Y038040D02*
X009224Y038040D01*
X009144Y038159D02*
X009364Y038159D01*
X009482Y038278D02*
X009026Y038278D01*
X008754Y037885D02*
X009254Y037385D01*
X009254Y035885D01*
X008504Y035135D01*
X007618Y035135D01*
X008254Y035385D02*
X005254Y035385D01*
X004754Y034885D01*
X004546Y034484D02*
X003984Y034484D01*
X004080Y034603D02*
X004428Y034603D01*
X004324Y034721D02*
X004184Y034721D01*
X004184Y034840D02*
X004324Y034840D01*
X004324Y034958D02*
X004184Y034958D01*
X004170Y035077D02*
X004338Y035077D01*
X004457Y035195D02*
X004051Y035195D01*
X003933Y035314D02*
X004575Y035314D01*
X004977Y035432D02*
X001264Y035432D01*
X001264Y035314D02*
X003575Y035314D01*
X003360Y036339D02*
X003360Y036339D01*
X003432Y036381D02*
X008524Y036381D01*
X008524Y036262D02*
X003022Y036262D01*
X002878Y036229D02*
X002878Y036229D01*
X002439Y036262D02*
X001264Y036262D01*
X001264Y036144D02*
X008524Y036144D01*
X008524Y036025D02*
X001264Y036025D01*
X001264Y035907D02*
X008451Y035907D01*
X008332Y035788D02*
X001264Y035788D01*
X001264Y035670D02*
X008214Y035670D01*
X008254Y035385D02*
X008754Y035885D01*
X008754Y036885D01*
X008415Y037211D02*
X008093Y037211D01*
X007974Y037329D02*
X008534Y037329D01*
X008526Y037448D02*
X007982Y037448D01*
X007949Y037415D02*
X008224Y037690D01*
X008224Y038079D01*
X007949Y038355D01*
X007559Y038355D01*
X007284Y038079D01*
X007284Y037690D01*
X007559Y037415D01*
X007949Y037415D01*
X007949Y037355D02*
X007559Y037355D01*
X007284Y037079D01*
X007284Y036690D01*
X007559Y036415D01*
X007949Y036415D01*
X008224Y036690D01*
X008224Y037079D01*
X007949Y037355D01*
X008100Y037566D02*
X008408Y037566D01*
X008289Y037685D02*
X008219Y037685D01*
X008224Y037803D02*
X008284Y037803D01*
X008284Y037922D02*
X008224Y037922D01*
X008224Y038040D02*
X008284Y038040D01*
X008364Y038159D02*
X008144Y038159D01*
X008026Y038278D02*
X008482Y038278D01*
X008974Y037329D02*
X008984Y037329D01*
X008475Y036499D02*
X008033Y036499D01*
X008152Y036618D02*
X008356Y036618D01*
X008284Y036736D02*
X008224Y036736D01*
X008224Y036855D02*
X008284Y036855D01*
X008284Y036974D02*
X008224Y036974D01*
X008211Y037092D02*
X008297Y037092D01*
X007534Y037329D02*
X006974Y037329D01*
X006949Y037355D02*
X006559Y037355D01*
X006284Y037079D01*
X006284Y036690D01*
X006559Y036415D01*
X006949Y036415D01*
X007224Y036690D01*
X007224Y037079D01*
X006949Y037355D01*
X006949Y037415D02*
X007224Y037690D01*
X007224Y038079D01*
X006949Y038355D01*
X006559Y038355D01*
X006284Y038079D01*
X006284Y037690D01*
X006559Y037415D01*
X006949Y037415D01*
X006982Y037448D02*
X007526Y037448D01*
X007408Y037566D02*
X007100Y037566D01*
X007219Y037685D02*
X007289Y037685D01*
X007284Y037803D02*
X007224Y037803D01*
X007224Y037922D02*
X007284Y037922D01*
X007284Y038040D02*
X007224Y038040D01*
X007144Y038159D02*
X007364Y038159D01*
X007482Y038278D02*
X007026Y038278D01*
X006482Y038278D02*
X004355Y038278D01*
X004340Y038374D02*
X004340Y038374D01*
X004330Y038396D02*
X017194Y038396D01*
X017231Y038515D02*
X004273Y038515D01*
X004215Y038633D02*
X017278Y038633D01*
X017258Y038605D02*
X017258Y038605D01*
X017358Y038752D02*
X004158Y038752D01*
X004126Y038820D02*
X004126Y038820D01*
X004079Y038870D02*
X017439Y038870D01*
X017520Y038989D02*
X003969Y038989D01*
X003859Y039107D02*
X017654Y039107D01*
X017537Y039014D02*
X017537Y039014D01*
X017803Y039226D02*
X003714Y039226D01*
X003789Y039183D02*
X003789Y039183D01*
X003509Y039344D02*
X017980Y039344D01*
X017924Y039322D02*
X017924Y039322D01*
X017113Y037803D02*
X015214Y037803D01*
X015205Y037685D02*
X017113Y037685D01*
X017113Y037637D02*
X017113Y037637D01*
X017134Y037566D02*
X015086Y037566D01*
X014968Y037448D02*
X017171Y037448D01*
X017208Y037329D02*
X014974Y037329D01*
X015093Y037211D02*
X017244Y037211D01*
X017258Y037164D02*
X017258Y037164D01*
X017308Y037092D02*
X015211Y037092D01*
X015224Y036974D02*
X017389Y036974D01*
X017469Y036855D02*
X015224Y036855D01*
X015224Y036736D02*
X017561Y036736D01*
X017537Y036756D02*
X017537Y036756D01*
X017710Y036618D02*
X015152Y036618D01*
X015033Y036499D02*
X017858Y036499D01*
X017924Y036447D02*
X017924Y036447D01*
X018093Y036381D02*
X014484Y036381D01*
X014484Y036262D02*
X018439Y036262D01*
X018385Y036266D02*
X018385Y036266D01*
X018878Y036229D02*
X018878Y036229D01*
X019022Y036262D02*
X020244Y036262D01*
X020244Y036144D02*
X014484Y036144D01*
X014484Y036025D02*
X020244Y036025D01*
X020244Y035907D02*
X014484Y035907D01*
X014484Y035788D02*
X020244Y035788D01*
X020244Y035670D02*
X014484Y035670D01*
X014484Y035551D02*
X020244Y035551D01*
X020244Y035432D02*
X014484Y035432D01*
X014484Y035314D02*
X016575Y035314D01*
X016457Y035195D02*
X014484Y035195D01*
X014484Y035077D02*
X016338Y035077D01*
X016324Y034958D02*
X014506Y034958D01*
X014624Y034840D02*
X016324Y034840D01*
X016324Y034721D02*
X014743Y034721D01*
X014861Y034603D02*
X016428Y034603D01*
X016524Y034484D02*
X014980Y034484D01*
X015098Y034366D02*
X016524Y034366D01*
X016524Y034247D02*
X015217Y034247D01*
X015335Y034129D02*
X016524Y034129D01*
X016524Y034010D02*
X015454Y034010D01*
X015573Y033891D02*
X016524Y033891D01*
X016524Y033773D02*
X015691Y033773D01*
X015810Y033654D02*
X016524Y033654D01*
X016524Y033536D02*
X015928Y033536D01*
X016047Y033417D02*
X016524Y033417D01*
X016524Y033299D02*
X016165Y033299D01*
X016284Y033180D02*
X016524Y033180D01*
X016524Y033062D02*
X016402Y033062D01*
X016521Y032943D02*
X016524Y032943D01*
X016754Y032885D02*
X019254Y030385D01*
X018942Y031046D02*
X018918Y031046D01*
X018925Y031165D02*
X018799Y031165D01*
X018680Y031283D02*
X018934Y031283D01*
X018974Y031402D02*
X018562Y031402D01*
X018443Y031521D02*
X019051Y031521D01*
X019170Y031639D02*
X018325Y031639D01*
X018206Y031758D02*
X019441Y031758D01*
X019407Y031876D02*
X018088Y031876D01*
X017969Y031995D02*
X019525Y031995D01*
X019660Y032113D02*
X018319Y032113D01*
X018454Y032232D02*
X020244Y032232D01*
X020244Y032350D02*
X018573Y032350D01*
X018691Y032469D02*
X020244Y032469D01*
X020244Y032587D02*
X018810Y032587D01*
X018928Y032706D02*
X020244Y032706D01*
X020244Y032825D02*
X019015Y032825D01*
X019064Y032943D02*
X020244Y032943D01*
X020244Y033062D02*
X019072Y033062D01*
X019068Y033180D02*
X020244Y033180D01*
X020244Y033299D02*
X019019Y033299D01*
X018938Y033417D02*
X020244Y033417D01*
X020244Y033536D02*
X018782Y033536D01*
X018318Y033536D02*
X016984Y033536D01*
X016984Y033654D02*
X020244Y033654D01*
X020244Y033773D02*
X016984Y033773D01*
X016984Y033891D02*
X020244Y033891D01*
X020244Y034010D02*
X016984Y034010D01*
X016984Y034129D02*
X020244Y034129D01*
X020244Y034247D02*
X016984Y034247D01*
X016984Y034366D02*
X020244Y034366D01*
X020244Y034484D02*
X017961Y034484D01*
X017932Y034455D02*
X018184Y034707D01*
X018184Y035063D01*
X017932Y035315D01*
X017576Y035315D01*
X017324Y035063D01*
X017324Y034707D01*
X017576Y034455D01*
X017932Y034455D01*
X018080Y034603D02*
X020244Y034603D01*
X020244Y034721D02*
X018184Y034721D01*
X018184Y034840D02*
X020244Y034840D01*
X020244Y034958D02*
X018184Y034958D01*
X018170Y035077D02*
X020244Y035077D01*
X020244Y035195D02*
X018051Y035195D01*
X017933Y035314D02*
X020244Y035314D01*
X020244Y036381D02*
X019432Y036381D01*
X019360Y036339D02*
X019360Y036339D01*
X019637Y036499D02*
X020244Y036499D01*
X020244Y036618D02*
X019818Y036618D01*
X019789Y036587D02*
X019789Y036587D01*
X019928Y036736D02*
X020244Y036736D01*
X020244Y036855D02*
X020038Y036855D01*
X020126Y036950D02*
X020126Y036950D01*
X020137Y036974D02*
X020244Y036974D01*
X020244Y037092D02*
X020194Y037092D01*
X018162Y033417D02*
X016984Y033417D01*
X016984Y033299D02*
X018043Y033299D01*
X017925Y033180D02*
X016984Y033180D01*
X016984Y033062D02*
X017806Y033062D01*
X017687Y032943D02*
X017021Y032943D01*
X017139Y032825D02*
X017592Y032825D01*
X017543Y032706D02*
X017258Y032706D01*
X017376Y032587D02*
X017529Y032587D01*
X017529Y032469D02*
X017495Y032469D01*
X016793Y031521D02*
X016617Y031521D01*
X016617Y031639D02*
X016674Y031639D01*
X016571Y031402D02*
X016911Y031402D01*
X017024Y031283D02*
X016519Y031283D01*
X016401Y031165D02*
X017024Y031165D01*
X017024Y031046D02*
X016185Y031046D01*
X015819Y031046D02*
X015668Y031046D01*
X015604Y031165D02*
X015549Y031165D01*
X015485Y031283D02*
X015430Y031283D01*
X015434Y031402D02*
X015312Y031402D01*
X015387Y031521D02*
X015193Y031521D01*
X015075Y031639D02*
X015387Y031639D01*
X015387Y031758D02*
X014956Y031758D01*
X014838Y031876D02*
X015436Y031876D01*
X015491Y031995D02*
X014719Y031995D01*
X014601Y032113D02*
X015610Y032113D01*
X015833Y032232D02*
X014482Y032232D01*
X014364Y032350D02*
X015963Y032350D01*
X015845Y032469D02*
X014245Y032469D01*
X014126Y032587D02*
X015726Y032587D01*
X015608Y032706D02*
X014008Y032706D01*
X013889Y032825D02*
X015489Y032825D01*
X015370Y032943D02*
X013771Y032943D01*
X013734Y033062D02*
X015252Y033062D01*
X015133Y033180D02*
X013734Y033180D01*
X013734Y033299D02*
X015015Y033299D01*
X014896Y033417D02*
X013734Y033417D01*
X013734Y033536D02*
X014778Y033536D01*
X014659Y033654D02*
X013734Y033654D01*
X013734Y033773D02*
X014541Y033773D01*
X014422Y033891D02*
X013734Y033891D01*
X013734Y034010D02*
X014304Y034010D01*
X014185Y034129D02*
X013734Y034129D01*
X013734Y034247D02*
X014066Y034247D01*
X013948Y034366D02*
X013734Y034366D01*
X013734Y034484D02*
X013829Y034484D01*
X013274Y034484D02*
X013234Y034484D01*
X013234Y034366D02*
X013274Y034366D01*
X013274Y034247D02*
X013234Y034247D01*
X013234Y034129D02*
X013274Y034129D01*
X013274Y034010D02*
X013234Y034010D01*
X013234Y033891D02*
X013274Y033891D01*
X013274Y033773D02*
X013234Y033773D01*
X013234Y033654D02*
X013274Y033654D01*
X013274Y033536D02*
X013234Y033536D01*
X013234Y033417D02*
X013274Y033417D01*
X013274Y033299D02*
X013234Y033299D01*
X013234Y033180D02*
X013274Y033180D01*
X013274Y033062D02*
X013234Y033062D01*
X013234Y032943D02*
X013274Y032943D01*
X013274Y032825D02*
X013234Y032825D01*
X013234Y032706D02*
X013357Y032706D01*
X013476Y032587D02*
X013234Y032587D01*
X013234Y032469D02*
X013595Y032469D01*
X013713Y032350D02*
X013234Y032350D01*
X013234Y032232D02*
X013832Y032232D01*
X013950Y032113D02*
X013712Y032113D01*
X013669Y031995D02*
X013831Y031995D01*
X013841Y031995D02*
X014069Y031995D01*
X014187Y031876D02*
X013911Y031876D01*
X013942Y031758D02*
X014306Y031758D01*
X014424Y031639D02*
X013948Y031639D01*
X013923Y031521D02*
X014543Y031521D01*
X014661Y031402D02*
X013867Y031402D01*
X013764Y031283D02*
X014780Y031283D01*
X014899Y031165D02*
X013645Y031165D01*
X013534Y031165D02*
X013371Y031165D01*
X013415Y031283D02*
X013253Y031283D01*
X013239Y031402D02*
X013297Y031402D01*
X013357Y031521D02*
X013194Y031521D01*
X013134Y031402D02*
X013076Y031402D01*
X013120Y031283D02*
X012957Y031283D01*
X013002Y031165D02*
X012839Y031165D01*
X012883Y031046D02*
X012720Y031046D01*
X012764Y030928D02*
X012602Y030928D01*
X012491Y030928D02*
X012484Y030928D01*
X012484Y030809D02*
X012646Y030809D01*
X012790Y030691D02*
X012484Y030691D01*
X012484Y030572D02*
X015274Y030572D01*
X015274Y030454D02*
X012510Y030454D01*
X012629Y030335D02*
X015274Y030335D01*
X015274Y030217D02*
X012747Y030217D01*
X012866Y030098D02*
X014938Y030098D01*
X014724Y029979D02*
X012984Y029979D01*
X013103Y029861D02*
X014605Y029861D01*
X015017Y031046D02*
X013490Y031046D01*
X013408Y030928D02*
X015136Y030928D01*
X015254Y030809D02*
X013289Y030809D01*
X013084Y030691D02*
X015274Y030691D01*
X015734Y030691D02*
X017024Y030691D01*
X017024Y030809D02*
X015734Y030809D01*
X015734Y030928D02*
X017024Y030928D01*
X017024Y030572D02*
X015734Y030572D01*
X015734Y030454D02*
X017024Y030454D01*
X017024Y030335D02*
X015734Y030335D01*
X015734Y030217D02*
X017024Y030217D01*
X017024Y030098D02*
X015734Y030098D01*
X015734Y029979D02*
X017024Y029979D01*
X017024Y029861D02*
X015669Y029861D01*
X015572Y029742D02*
X017024Y029742D01*
X017024Y029624D02*
X015593Y029624D01*
X015593Y029505D02*
X017024Y029505D01*
X017024Y029387D02*
X015553Y029387D01*
X015491Y029268D02*
X017024Y029268D01*
X017024Y029150D02*
X015372Y029150D01*
X015253Y029031D02*
X017024Y029031D01*
X017024Y028913D02*
X015135Y028913D01*
X015016Y028794D02*
X017024Y028794D01*
X016395Y027846D02*
X016233Y027846D01*
X016182Y027846D02*
X016020Y027846D01*
X016064Y027727D02*
X015901Y027727D01*
X015945Y027609D02*
X015782Y027609D01*
X015827Y027490D02*
X015664Y027490D01*
X016114Y027964D02*
X016138Y027964D01*
X016277Y027964D02*
X016301Y027964D01*
X016351Y027727D02*
X016514Y027727D01*
X015256Y030098D02*
X015203Y030098D01*
X013594Y031758D02*
X013431Y031758D01*
X013476Y031639D02*
X013313Y031639D01*
X013004Y032135D02*
X012254Y031385D01*
X012254Y030385D01*
X013004Y029635D01*
X013004Y028135D01*
X012524Y028557D02*
X012222Y028557D01*
X012418Y028676D02*
X012524Y028676D01*
X013550Y031876D02*
X013713Y031876D01*
X013004Y032135D02*
X013004Y034885D01*
X013137Y035077D02*
X013237Y035077D01*
X013234Y034958D02*
X013274Y034958D01*
X013274Y034840D02*
X013234Y034840D01*
X013234Y034721D02*
X013274Y034721D01*
X013274Y034603D02*
X013234Y034603D01*
X013118Y035195D02*
X013019Y035195D01*
X013024Y035314D02*
X012900Y035314D01*
X012781Y035432D02*
X013024Y035432D01*
X013024Y035551D02*
X012663Y035551D01*
X012544Y035670D02*
X013024Y035670D01*
X013024Y035788D02*
X012484Y035788D01*
X012484Y035907D02*
X013024Y035907D01*
X013024Y036025D02*
X012484Y036025D01*
X012484Y036144D02*
X013024Y036144D01*
X013024Y036262D02*
X012484Y036262D01*
X012484Y036381D02*
X013024Y036381D01*
X012984Y037329D02*
X012974Y037329D01*
X013254Y037385D02*
X012754Y037885D01*
X012482Y038278D02*
X012026Y038278D01*
X012144Y038159D02*
X012364Y038159D01*
X012284Y038040D02*
X012224Y038040D01*
X012224Y037922D02*
X012284Y037922D01*
X012284Y037803D02*
X012224Y037803D01*
X012279Y037685D02*
X012289Y037685D01*
X012398Y037566D02*
X012408Y037566D01*
X012484Y037448D02*
X012526Y037448D01*
X012534Y037329D02*
X012484Y037329D01*
X011984Y037329D02*
X011974Y037329D01*
X010984Y037329D02*
X010974Y037329D01*
X010754Y036885D02*
X010754Y035385D01*
X009984Y037329D02*
X009974Y037329D01*
X010254Y037385D02*
X009754Y037885D01*
X009754Y035885D02*
X008754Y034885D01*
X007475Y036499D02*
X007033Y036499D01*
X007152Y036618D02*
X007356Y036618D01*
X007284Y036736D02*
X007224Y036736D01*
X007224Y036855D02*
X007284Y036855D01*
X007284Y036974D02*
X007224Y036974D01*
X007211Y037092D02*
X007297Y037092D01*
X007415Y037211D02*
X007093Y037211D01*
X006534Y037329D02*
X004308Y037329D01*
X004348Y037448D02*
X006526Y037448D01*
X006408Y037566D02*
X004366Y037566D01*
X004384Y037685D02*
X006289Y037685D01*
X006284Y037803D02*
X004402Y037803D01*
X004414Y037885D02*
X004414Y037885D01*
X004408Y037922D02*
X006284Y037922D01*
X006284Y038040D02*
X004391Y038040D01*
X004373Y038159D02*
X006364Y038159D01*
X006415Y037211D02*
X004251Y037211D01*
X004194Y037092D02*
X006297Y037092D01*
X006284Y036974D02*
X004137Y036974D01*
X004038Y036855D02*
X006284Y036855D01*
X006284Y036736D02*
X003928Y036736D01*
X003818Y036618D02*
X006356Y036618D01*
X006475Y036499D02*
X003637Y036499D01*
X003789Y036587D02*
X003789Y036587D01*
X003789Y036587D01*
X002385Y036266D02*
X002385Y036266D01*
X002093Y036381D02*
X001264Y036381D01*
X001264Y036499D02*
X001858Y036499D01*
X001924Y036447D02*
X001924Y036447D01*
X001710Y036618D02*
X001264Y036618D01*
X001264Y036736D02*
X001561Y036736D01*
X001537Y036756D02*
X001537Y036756D01*
X001469Y036855D02*
X001264Y036855D01*
X001264Y036974D02*
X001389Y036974D01*
X001308Y037092D02*
X001264Y037092D01*
X001264Y035551D02*
X005095Y035551D01*
X013026Y038278D02*
X013482Y038278D01*
X013364Y038159D02*
X013144Y038159D01*
X013224Y038040D02*
X013284Y038040D01*
X013284Y037922D02*
X013224Y037922D01*
X013224Y037803D02*
X013284Y037803D01*
X013279Y037685D02*
X013289Y037685D01*
X014714Y037685D02*
X014794Y037685D01*
X014794Y037803D02*
X014714Y037803D01*
X014714Y037566D02*
X014794Y037566D01*
X014794Y037448D02*
X014714Y037448D01*
X016754Y034885D02*
X016754Y032885D01*
X016984Y034484D02*
X017546Y034484D01*
X017428Y034603D02*
X017080Y034603D01*
X017184Y034721D02*
X017324Y034721D01*
X017324Y034840D02*
X017184Y034840D01*
X017184Y034958D02*
X017324Y034958D01*
X017338Y035077D02*
X017170Y035077D01*
X017051Y035195D02*
X017457Y035195D01*
X017575Y035314D02*
X016933Y035314D01*
X019397Y031639D02*
X019560Y031639D01*
X019516Y031521D02*
X019678Y031521D01*
X019739Y031402D02*
X019797Y031402D01*
X019753Y031283D02*
X019915Y031283D01*
X019871Y031165D02*
X020034Y031165D01*
X020145Y031165D02*
X020244Y031165D01*
X020244Y031046D02*
X019990Y031046D01*
X019908Y030928D02*
X020244Y030928D01*
X020244Y030809D02*
X019789Y030809D01*
X019584Y030691D02*
X020244Y030691D01*
X020212Y032113D02*
X020244Y032113D01*
X018993Y018718D02*
X018984Y018718D01*
X019574Y016935D02*
X019454Y016815D01*
X019454Y016445D01*
X019574Y016445D01*
X019454Y016325D01*
X019454Y016085D01*
X019574Y015965D01*
X019824Y015955D02*
X020064Y015955D01*
X020194Y016075D01*
X020194Y016325D01*
X020074Y016445D01*
X020194Y016445D01*
X020074Y016445D02*
X019944Y016445D01*
X019944Y016695D01*
X020194Y016935D01*
X019944Y016815D02*
X019944Y016695D01*
X019944Y016815D02*
X019824Y016935D01*
X019574Y016935D01*
X019574Y016445D02*
X019944Y016445D01*
X019824Y016205D02*
X019824Y015955D01*
X019594Y015585D02*
X019464Y015455D01*
X019464Y015215D01*
X019584Y015095D01*
X019594Y015095D02*
X019714Y015095D01*
X020194Y015585D01*
X020194Y015095D01*
X020074Y014785D02*
X020194Y014665D01*
X020194Y014425D01*
X020074Y014305D01*
X019594Y014305D01*
X019474Y014425D01*
X019474Y014665D01*
X019594Y014785D01*
X020074Y014785D01*
X019594Y014315D01*
X019716Y013995D02*
X019474Y013752D01*
X019481Y013752D02*
X020186Y013752D01*
X020194Y013512D02*
X020194Y013997D01*
X019789Y013265D02*
X019704Y013265D01*
X019386Y013522D02*
X019386Y013522D01*
X019307Y013383D02*
X018984Y013383D01*
X018984Y013265D02*
X019244Y013265D01*
X019244Y013146D02*
X018984Y013146D01*
X018984Y013028D02*
X019244Y013028D01*
X019244Y012909D02*
X018984Y012909D01*
X018984Y012791D02*
X019244Y012791D01*
X019244Y012672D02*
X018984Y012672D01*
X018984Y012554D02*
X019330Y012554D01*
X018971Y011842D02*
X010984Y011842D01*
X010984Y011724D02*
X019024Y011724D01*
X019024Y011605D02*
X010984Y011605D01*
X010984Y011487D02*
X019024Y011487D01*
X019024Y011368D02*
X010984Y011368D01*
X010984Y011250D02*
X019024Y011250D01*
X018990Y010301D02*
X019024Y010301D01*
X019024Y010183D02*
X018891Y010183D01*
X018772Y010064D02*
X019024Y010064D01*
X018990Y009946D02*
X018591Y009946D01*
X018635Y010064D02*
X018472Y010064D01*
X018516Y010183D02*
X018354Y010183D01*
X018366Y010301D02*
X018398Y010301D01*
X018535Y009827D02*
X018871Y009827D01*
X018753Y009709D02*
X018417Y009709D01*
X018810Y009116D02*
X019132Y009116D01*
X019014Y008997D02*
X018692Y008997D01*
X018573Y008879D02*
X018953Y008879D01*
X018915Y008760D02*
X018455Y008760D01*
X018336Y008642D02*
X018915Y008642D01*
X018937Y008523D02*
X018218Y008523D01*
X018099Y008405D02*
X018986Y008405D01*
X019094Y008286D02*
X017984Y008286D01*
X017754Y008385D02*
X017754Y006999D01*
X016207Y005452D01*
X015490Y004967D02*
X009961Y004967D01*
X010004Y004385D02*
X009254Y004385D01*
X009183Y003781D02*
X009737Y003781D01*
X009737Y003663D02*
X009301Y003663D01*
X009409Y003544D02*
X009737Y003544D01*
X009737Y003426D02*
X009409Y003426D01*
X009409Y003307D02*
X009737Y003307D01*
X009634Y003189D02*
X009512Y003189D01*
X009527Y002596D02*
X009619Y002596D01*
X009774Y002477D02*
X009372Y002477D01*
X009967Y002885D02*
X009967Y004347D01*
X008769Y003544D02*
X004400Y003544D01*
X004414Y003635D02*
X004414Y003635D01*
X004410Y003663D02*
X008651Y003663D01*
X008532Y003781D02*
X004392Y003781D01*
X004133Y002715D02*
X007026Y002715D01*
X007069Y002596D02*
X004029Y002596D01*
X004126Y002700D02*
X004126Y002700D01*
X003919Y002477D02*
X007144Y002477D01*
X007265Y002359D02*
X003809Y002359D01*
X003789Y002337D02*
X003789Y002337D01*
X003622Y002240D02*
X007518Y002240D01*
X004763Y007219D02*
X003195Y007219D01*
X003405Y007101D02*
X004645Y007101D01*
X004526Y006982D02*
X003523Y006982D01*
X003573Y006864D02*
X004408Y006864D01*
X004289Y006745D02*
X003617Y006745D01*
X003617Y006626D02*
X004171Y006626D01*
X004052Y006508D02*
X003616Y006508D01*
X003567Y006389D02*
X004024Y006389D01*
X004024Y006271D02*
X003510Y006271D01*
X003391Y006152D02*
X004024Y006152D01*
X002878Y005290D02*
X002878Y005290D01*
X002260Y008168D02*
X002194Y008168D01*
X001947Y008168D02*
X001264Y008168D01*
X001264Y008286D02*
X001728Y008286D01*
X001609Y008405D02*
X001264Y008405D01*
X001264Y008523D02*
X001491Y008523D01*
X001372Y008642D02*
X001264Y008642D01*
X010984Y009590D02*
X011363Y009590D01*
X011273Y009709D02*
X010984Y009709D01*
X010984Y009827D02*
X011099Y009827D01*
X011052Y009946D02*
X010984Y009946D01*
X010984Y010064D02*
X011039Y010064D01*
X011051Y010183D02*
X010984Y010183D01*
X010984Y010301D02*
X011095Y010301D01*
X011178Y010420D02*
X010984Y010420D01*
X011348Y009946D02*
X011510Y009946D01*
X011466Y010064D02*
X011629Y010064D01*
X011585Y010183D02*
X011747Y010183D01*
X011854Y010183D02*
X012016Y010183D01*
X011972Y010064D02*
X012135Y010064D01*
X012091Y009946D02*
X017552Y009946D01*
X017539Y010064D02*
X012272Y010064D01*
X012391Y010183D02*
X017551Y010183D01*
X017595Y010301D02*
X012490Y010301D01*
X012303Y011013D02*
X018297Y011013D01*
X017599Y009827D02*
X012035Y009827D01*
X011898Y010301D02*
X011866Y010301D01*
X011735Y010301D02*
X011703Y010301D01*
X011392Y009827D02*
X011229Y009827D01*
X011070Y011961D02*
X010984Y011961D01*
X012198Y007219D02*
X014522Y007219D01*
X014301Y006152D02*
X012394Y006152D01*
X013785Y003426D02*
X013904Y003426D01*
X013904Y003307D02*
X013785Y003307D01*
X013785Y003189D02*
X013904Y003189D01*
X013904Y003070D02*
X013785Y003070D01*
X013785Y002952D02*
X013904Y002952D01*
X017258Y002914D02*
X017258Y002914D01*
X018878Y005290D02*
X018878Y005290D01*
X018929Y009234D02*
X019251Y009234D01*
X019369Y009353D02*
X019047Y009353D01*
X019166Y009471D02*
X019488Y009471D01*
X019606Y009590D02*
X019285Y009590D01*
X015984Y016940D02*
X013881Y016940D01*
X013969Y017058D02*
X016102Y017058D01*
X016221Y017177D02*
X014018Y017177D01*
X014049Y017295D02*
X016274Y017295D01*
X016274Y017414D02*
X014049Y017414D01*
X014043Y017532D02*
X016274Y017532D01*
X016274Y017651D02*
X013994Y017651D01*
X013942Y017770D02*
X016274Y017770D01*
X016274Y017888D02*
X013823Y017888D01*
X013628Y018007D02*
X016274Y018007D01*
X016734Y017888D02*
X017024Y017888D01*
X017024Y017770D02*
X016734Y017770D01*
X016734Y017651D02*
X017024Y017651D01*
X017024Y017532D02*
X016734Y017532D01*
X016734Y017414D02*
X016958Y017414D01*
X016839Y017295D02*
X016734Y017295D01*
D19*
X006254Y025385D03*
X005254Y026385D03*
M02*
