G75*
G70*
%OFA0B0*%
%FSLAX24Y24*%
%IPPOS*%
%LPD*%
%AMOC8*
5,1,8,0,0,1.08239X$1,22.5*
%
%ADD10C,0.0000*%
%ADD11C,0.1080*%
%ADD12C,0.0780*%
%ADD13C,0.0780*%
%ADD14OC8,0.0600*%
%ADD15C,0.0785*%
%ADD16C,0.0790*%
%ADD17C,0.1340*%
%ADD18C,0.0640*%
%ADD19OC8,0.0680*%
%ADD20C,0.0060*%
D10*
X001004Y003635D02*
X001004Y037885D01*
X002124Y037885D02*
X002126Y037935D01*
X002132Y037985D01*
X002142Y038034D01*
X002156Y038082D01*
X002173Y038129D01*
X002194Y038174D01*
X002219Y038218D01*
X002247Y038259D01*
X002279Y038298D01*
X002313Y038335D01*
X002350Y038369D01*
X002390Y038399D01*
X002432Y038426D01*
X002476Y038450D01*
X002522Y038471D01*
X002569Y038487D01*
X002617Y038500D01*
X002667Y038509D01*
X002716Y038514D01*
X002767Y038515D01*
X002817Y038512D01*
X002866Y038505D01*
X002915Y038494D01*
X002963Y038479D01*
X003009Y038461D01*
X003054Y038439D01*
X003097Y038413D01*
X003138Y038384D01*
X003177Y038352D01*
X003213Y038317D01*
X003245Y038279D01*
X003275Y038239D01*
X003302Y038196D01*
X003325Y038152D01*
X003344Y038106D01*
X003360Y038058D01*
X003372Y038009D01*
X003380Y037960D01*
X003384Y037910D01*
X003384Y037860D01*
X003380Y037810D01*
X003372Y037761D01*
X003360Y037712D01*
X003344Y037664D01*
X003325Y037618D01*
X003302Y037574D01*
X003275Y037531D01*
X003245Y037491D01*
X003213Y037453D01*
X003177Y037418D01*
X003138Y037386D01*
X003097Y037357D01*
X003054Y037331D01*
X003009Y037309D01*
X002963Y037291D01*
X002915Y037276D01*
X002866Y037265D01*
X002817Y037258D01*
X002767Y037255D01*
X002716Y037256D01*
X002667Y037261D01*
X002617Y037270D01*
X002569Y037283D01*
X002522Y037299D01*
X002476Y037320D01*
X002432Y037344D01*
X002390Y037371D01*
X002350Y037401D01*
X002313Y037435D01*
X002279Y037472D01*
X002247Y037511D01*
X002219Y037552D01*
X002194Y037596D01*
X002173Y037641D01*
X002156Y037688D01*
X002142Y037736D01*
X002132Y037785D01*
X002126Y037835D01*
X002124Y037885D01*
X001004Y037885D02*
X001006Y037968D01*
X001012Y038051D01*
X001022Y038134D01*
X001036Y038216D01*
X001053Y038298D01*
X001075Y038378D01*
X001100Y038457D01*
X001129Y038535D01*
X001162Y038612D01*
X001199Y038687D01*
X001238Y038760D01*
X001282Y038831D01*
X001328Y038900D01*
X001378Y038967D01*
X001431Y039031D01*
X001487Y039093D01*
X001546Y039152D01*
X001608Y039208D01*
X001672Y039261D01*
X001739Y039311D01*
X001808Y039357D01*
X001879Y039401D01*
X001952Y039440D01*
X002027Y039477D01*
X002104Y039510D01*
X002182Y039539D01*
X002261Y039564D01*
X002341Y039586D01*
X002423Y039603D01*
X002505Y039617D01*
X002588Y039627D01*
X002671Y039633D01*
X002754Y039635D01*
X018754Y039635D01*
X018124Y037885D02*
X018126Y037935D01*
X018132Y037985D01*
X018142Y038034D01*
X018156Y038082D01*
X018173Y038129D01*
X018194Y038174D01*
X018219Y038218D01*
X018247Y038259D01*
X018279Y038298D01*
X018313Y038335D01*
X018350Y038369D01*
X018390Y038399D01*
X018432Y038426D01*
X018476Y038450D01*
X018522Y038471D01*
X018569Y038487D01*
X018617Y038500D01*
X018667Y038509D01*
X018716Y038514D01*
X018767Y038515D01*
X018817Y038512D01*
X018866Y038505D01*
X018915Y038494D01*
X018963Y038479D01*
X019009Y038461D01*
X019054Y038439D01*
X019097Y038413D01*
X019138Y038384D01*
X019177Y038352D01*
X019213Y038317D01*
X019245Y038279D01*
X019275Y038239D01*
X019302Y038196D01*
X019325Y038152D01*
X019344Y038106D01*
X019360Y038058D01*
X019372Y038009D01*
X019380Y037960D01*
X019384Y037910D01*
X019384Y037860D01*
X019380Y037810D01*
X019372Y037761D01*
X019360Y037712D01*
X019344Y037664D01*
X019325Y037618D01*
X019302Y037574D01*
X019275Y037531D01*
X019245Y037491D01*
X019213Y037453D01*
X019177Y037418D01*
X019138Y037386D01*
X019097Y037357D01*
X019054Y037331D01*
X019009Y037309D01*
X018963Y037291D01*
X018915Y037276D01*
X018866Y037265D01*
X018817Y037258D01*
X018767Y037255D01*
X018716Y037256D01*
X018667Y037261D01*
X018617Y037270D01*
X018569Y037283D01*
X018522Y037299D01*
X018476Y037320D01*
X018432Y037344D01*
X018390Y037371D01*
X018350Y037401D01*
X018313Y037435D01*
X018279Y037472D01*
X018247Y037511D01*
X018219Y037552D01*
X018194Y037596D01*
X018173Y037641D01*
X018156Y037688D01*
X018142Y037736D01*
X018132Y037785D01*
X018126Y037835D01*
X018124Y037885D01*
X018754Y039635D02*
X018837Y039633D01*
X018920Y039627D01*
X019003Y039617D01*
X019085Y039603D01*
X019167Y039586D01*
X019247Y039564D01*
X019326Y039539D01*
X019404Y039510D01*
X019481Y039477D01*
X019556Y039440D01*
X019629Y039401D01*
X019700Y039357D01*
X019769Y039311D01*
X019836Y039261D01*
X019900Y039208D01*
X019962Y039152D01*
X020021Y039093D01*
X020077Y039031D01*
X020130Y038967D01*
X020180Y038900D01*
X020226Y038831D01*
X020270Y038760D01*
X020309Y038687D01*
X020346Y038612D01*
X020379Y038535D01*
X020408Y038457D01*
X020433Y038378D01*
X020455Y038298D01*
X020472Y038216D01*
X020486Y038134D01*
X020496Y038051D01*
X020502Y037968D01*
X020504Y037885D01*
X020504Y003635D01*
X018124Y003635D02*
X018126Y003685D01*
X018132Y003735D01*
X018142Y003784D01*
X018156Y003832D01*
X018173Y003879D01*
X018194Y003924D01*
X018219Y003968D01*
X018247Y004009D01*
X018279Y004048D01*
X018313Y004085D01*
X018350Y004119D01*
X018390Y004149D01*
X018432Y004176D01*
X018476Y004200D01*
X018522Y004221D01*
X018569Y004237D01*
X018617Y004250D01*
X018667Y004259D01*
X018716Y004264D01*
X018767Y004265D01*
X018817Y004262D01*
X018866Y004255D01*
X018915Y004244D01*
X018963Y004229D01*
X019009Y004211D01*
X019054Y004189D01*
X019097Y004163D01*
X019138Y004134D01*
X019177Y004102D01*
X019213Y004067D01*
X019245Y004029D01*
X019275Y003989D01*
X019302Y003946D01*
X019325Y003902D01*
X019344Y003856D01*
X019360Y003808D01*
X019372Y003759D01*
X019380Y003710D01*
X019384Y003660D01*
X019384Y003610D01*
X019380Y003560D01*
X019372Y003511D01*
X019360Y003462D01*
X019344Y003414D01*
X019325Y003368D01*
X019302Y003324D01*
X019275Y003281D01*
X019245Y003241D01*
X019213Y003203D01*
X019177Y003168D01*
X019138Y003136D01*
X019097Y003107D01*
X019054Y003081D01*
X019009Y003059D01*
X018963Y003041D01*
X018915Y003026D01*
X018866Y003015D01*
X018817Y003008D01*
X018767Y003005D01*
X018716Y003006D01*
X018667Y003011D01*
X018617Y003020D01*
X018569Y003033D01*
X018522Y003049D01*
X018476Y003070D01*
X018432Y003094D01*
X018390Y003121D01*
X018350Y003151D01*
X018313Y003185D01*
X018279Y003222D01*
X018247Y003261D01*
X018219Y003302D01*
X018194Y003346D01*
X018173Y003391D01*
X018156Y003438D01*
X018142Y003486D01*
X018132Y003535D01*
X018126Y003585D01*
X018124Y003635D01*
X018754Y001885D02*
X018837Y001887D01*
X018920Y001893D01*
X019003Y001903D01*
X019085Y001917D01*
X019167Y001934D01*
X019247Y001956D01*
X019326Y001981D01*
X019404Y002010D01*
X019481Y002043D01*
X019556Y002080D01*
X019629Y002119D01*
X019700Y002163D01*
X019769Y002209D01*
X019836Y002259D01*
X019900Y002312D01*
X019962Y002368D01*
X020021Y002427D01*
X020077Y002489D01*
X020130Y002553D01*
X020180Y002620D01*
X020226Y002689D01*
X020270Y002760D01*
X020309Y002833D01*
X020346Y002908D01*
X020379Y002985D01*
X020408Y003063D01*
X020433Y003142D01*
X020455Y003222D01*
X020472Y003304D01*
X020486Y003386D01*
X020496Y003469D01*
X020502Y003552D01*
X020504Y003635D01*
X018754Y001885D02*
X002754Y001885D01*
X002124Y003635D02*
X002126Y003685D01*
X002132Y003735D01*
X002142Y003784D01*
X002156Y003832D01*
X002173Y003879D01*
X002194Y003924D01*
X002219Y003968D01*
X002247Y004009D01*
X002279Y004048D01*
X002313Y004085D01*
X002350Y004119D01*
X002390Y004149D01*
X002432Y004176D01*
X002476Y004200D01*
X002522Y004221D01*
X002569Y004237D01*
X002617Y004250D01*
X002667Y004259D01*
X002716Y004264D01*
X002767Y004265D01*
X002817Y004262D01*
X002866Y004255D01*
X002915Y004244D01*
X002963Y004229D01*
X003009Y004211D01*
X003054Y004189D01*
X003097Y004163D01*
X003138Y004134D01*
X003177Y004102D01*
X003213Y004067D01*
X003245Y004029D01*
X003275Y003989D01*
X003302Y003946D01*
X003325Y003902D01*
X003344Y003856D01*
X003360Y003808D01*
X003372Y003759D01*
X003380Y003710D01*
X003384Y003660D01*
X003384Y003610D01*
X003380Y003560D01*
X003372Y003511D01*
X003360Y003462D01*
X003344Y003414D01*
X003325Y003368D01*
X003302Y003324D01*
X003275Y003281D01*
X003245Y003241D01*
X003213Y003203D01*
X003177Y003168D01*
X003138Y003136D01*
X003097Y003107D01*
X003054Y003081D01*
X003009Y003059D01*
X002963Y003041D01*
X002915Y003026D01*
X002866Y003015D01*
X002817Y003008D01*
X002767Y003005D01*
X002716Y003006D01*
X002667Y003011D01*
X002617Y003020D01*
X002569Y003033D01*
X002522Y003049D01*
X002476Y003070D01*
X002432Y003094D01*
X002390Y003121D01*
X002350Y003151D01*
X002313Y003185D01*
X002279Y003222D01*
X002247Y003261D01*
X002219Y003302D01*
X002194Y003346D01*
X002173Y003391D01*
X002156Y003438D01*
X002142Y003486D01*
X002132Y003535D01*
X002126Y003585D01*
X002124Y003635D01*
X001004Y003635D02*
X001006Y003552D01*
X001012Y003469D01*
X001022Y003386D01*
X001036Y003304D01*
X001053Y003222D01*
X001075Y003142D01*
X001100Y003063D01*
X001129Y002985D01*
X001162Y002908D01*
X001199Y002833D01*
X001238Y002760D01*
X001282Y002689D01*
X001328Y002620D01*
X001378Y002553D01*
X001431Y002489D01*
X001487Y002427D01*
X001546Y002368D01*
X001608Y002312D01*
X001672Y002259D01*
X001739Y002209D01*
X001808Y002163D01*
X001879Y002119D01*
X001952Y002080D01*
X002027Y002043D01*
X002104Y002010D01*
X002182Y001981D01*
X002261Y001956D01*
X002341Y001934D01*
X002423Y001917D01*
X002505Y001903D01*
X002588Y001893D01*
X002671Y001887D01*
X002754Y001885D01*
X002647Y006633D02*
X002649Y006670D01*
X002655Y006707D01*
X002664Y006743D01*
X002678Y006777D01*
X002695Y006810D01*
X002715Y006842D01*
X002738Y006871D01*
X002764Y006897D01*
X002793Y006920D01*
X002824Y006940D01*
X002858Y006957D01*
X002892Y006971D01*
X002928Y006980D01*
X002965Y006986D01*
X003002Y006988D01*
X003039Y006986D01*
X003076Y006980D01*
X003112Y006971D01*
X003146Y006957D01*
X003179Y006940D01*
X003211Y006920D01*
X003240Y006897D01*
X003266Y006871D01*
X003289Y006842D01*
X003309Y006811D01*
X003326Y006777D01*
X003340Y006743D01*
X003349Y006707D01*
X003355Y006670D01*
X003357Y006633D01*
X003355Y006596D01*
X003349Y006559D01*
X003340Y006523D01*
X003326Y006489D01*
X003309Y006456D01*
X003289Y006424D01*
X003266Y006395D01*
X003240Y006369D01*
X003211Y006346D01*
X003180Y006326D01*
X003146Y006309D01*
X003112Y006295D01*
X003076Y006286D01*
X003039Y006280D01*
X003002Y006278D01*
X002965Y006280D01*
X002928Y006286D01*
X002892Y006295D01*
X002858Y006309D01*
X002825Y006326D01*
X002793Y006346D01*
X002764Y006369D01*
X002738Y006395D01*
X002715Y006424D01*
X002695Y006455D01*
X002678Y006489D01*
X002664Y006523D01*
X002655Y006559D01*
X002649Y006596D01*
X002647Y006633D01*
X005151Y009136D02*
X005153Y009173D01*
X005159Y009210D01*
X005168Y009246D01*
X005182Y009280D01*
X005199Y009313D01*
X005219Y009345D01*
X005242Y009374D01*
X005268Y009400D01*
X005297Y009423D01*
X005328Y009443D01*
X005362Y009460D01*
X005396Y009474D01*
X005432Y009483D01*
X005469Y009489D01*
X005506Y009491D01*
X005543Y009489D01*
X005580Y009483D01*
X005616Y009474D01*
X005650Y009460D01*
X005683Y009443D01*
X005715Y009423D01*
X005744Y009400D01*
X005770Y009374D01*
X005793Y009345D01*
X005813Y009314D01*
X005830Y009280D01*
X005844Y009246D01*
X005853Y009210D01*
X005859Y009173D01*
X005861Y009136D01*
X005859Y009099D01*
X005853Y009062D01*
X005844Y009026D01*
X005830Y008992D01*
X005813Y008959D01*
X005793Y008927D01*
X005770Y008898D01*
X005744Y008872D01*
X005715Y008849D01*
X005684Y008829D01*
X005650Y008812D01*
X005616Y008798D01*
X005580Y008789D01*
X005543Y008783D01*
X005506Y008781D01*
X005469Y008783D01*
X005432Y008789D01*
X005396Y008798D01*
X005362Y008812D01*
X005329Y008829D01*
X005297Y008849D01*
X005268Y008872D01*
X005242Y008898D01*
X005219Y008927D01*
X005199Y008958D01*
X005182Y008992D01*
X005168Y009026D01*
X005159Y009062D01*
X005153Y009099D01*
X005151Y009136D01*
X009147Y009136D02*
X009149Y009173D01*
X009155Y009210D01*
X009164Y009246D01*
X009178Y009280D01*
X009195Y009313D01*
X009215Y009345D01*
X009238Y009374D01*
X009264Y009400D01*
X009293Y009423D01*
X009324Y009443D01*
X009358Y009460D01*
X009392Y009474D01*
X009428Y009483D01*
X009465Y009489D01*
X009502Y009491D01*
X009539Y009489D01*
X009576Y009483D01*
X009612Y009474D01*
X009646Y009460D01*
X009679Y009443D01*
X009711Y009423D01*
X009740Y009400D01*
X009766Y009374D01*
X009789Y009345D01*
X009809Y009314D01*
X009826Y009280D01*
X009840Y009246D01*
X009849Y009210D01*
X009855Y009173D01*
X009857Y009136D01*
X009855Y009099D01*
X009849Y009062D01*
X009840Y009026D01*
X009826Y008992D01*
X009809Y008959D01*
X009789Y008927D01*
X009766Y008898D01*
X009740Y008872D01*
X009711Y008849D01*
X009680Y008829D01*
X009646Y008812D01*
X009612Y008798D01*
X009576Y008789D01*
X009539Y008783D01*
X009502Y008781D01*
X009465Y008783D01*
X009428Y008789D01*
X009392Y008798D01*
X009358Y008812D01*
X009325Y008829D01*
X009293Y008849D01*
X009264Y008872D01*
X009238Y008898D01*
X009215Y008927D01*
X009195Y008958D01*
X009178Y008992D01*
X009164Y009026D01*
X009155Y009062D01*
X009149Y009099D01*
X009147Y009136D01*
X011651Y006633D02*
X011653Y006670D01*
X011659Y006707D01*
X011668Y006743D01*
X011682Y006777D01*
X011699Y006810D01*
X011719Y006842D01*
X011742Y006871D01*
X011768Y006897D01*
X011797Y006920D01*
X011828Y006940D01*
X011862Y006957D01*
X011896Y006971D01*
X011932Y006980D01*
X011969Y006986D01*
X012006Y006988D01*
X012043Y006986D01*
X012080Y006980D01*
X012116Y006971D01*
X012150Y006957D01*
X012183Y006940D01*
X012215Y006920D01*
X012244Y006897D01*
X012270Y006871D01*
X012293Y006842D01*
X012313Y006811D01*
X012330Y006777D01*
X012344Y006743D01*
X012353Y006707D01*
X012359Y006670D01*
X012361Y006633D01*
X012359Y006596D01*
X012353Y006559D01*
X012344Y006523D01*
X012330Y006489D01*
X012313Y006456D01*
X012293Y006424D01*
X012270Y006395D01*
X012244Y006369D01*
X012215Y006346D01*
X012184Y006326D01*
X012150Y006309D01*
X012116Y006295D01*
X012080Y006286D01*
X012043Y006280D01*
X012006Y006278D01*
X011969Y006280D01*
X011932Y006286D01*
X011896Y006295D01*
X011862Y006309D01*
X011829Y006326D01*
X011797Y006346D01*
X011768Y006369D01*
X011742Y006395D01*
X011719Y006424D01*
X011699Y006455D01*
X011682Y006489D01*
X011668Y006523D01*
X011659Y006559D01*
X011653Y006596D01*
X011651Y006633D01*
X015647Y009136D02*
X015649Y009173D01*
X015655Y009210D01*
X015664Y009246D01*
X015678Y009280D01*
X015695Y009313D01*
X015715Y009345D01*
X015738Y009374D01*
X015764Y009400D01*
X015793Y009423D01*
X015824Y009443D01*
X015858Y009460D01*
X015892Y009474D01*
X015928Y009483D01*
X015965Y009489D01*
X016002Y009491D01*
X016039Y009489D01*
X016076Y009483D01*
X016112Y009474D01*
X016146Y009460D01*
X016179Y009443D01*
X016211Y009423D01*
X016240Y009400D01*
X016266Y009374D01*
X016289Y009345D01*
X016309Y009314D01*
X016326Y009280D01*
X016340Y009246D01*
X016349Y009210D01*
X016355Y009173D01*
X016357Y009136D01*
X016355Y009099D01*
X016349Y009062D01*
X016340Y009026D01*
X016326Y008992D01*
X016309Y008959D01*
X016289Y008927D01*
X016266Y008898D01*
X016240Y008872D01*
X016211Y008849D01*
X016180Y008829D01*
X016146Y008812D01*
X016112Y008798D01*
X016076Y008789D01*
X016039Y008783D01*
X016002Y008781D01*
X015965Y008783D01*
X015928Y008789D01*
X015892Y008798D01*
X015858Y008812D01*
X015825Y008829D01*
X015793Y008849D01*
X015764Y008872D01*
X015738Y008898D01*
X015715Y008927D01*
X015695Y008958D01*
X015678Y008992D01*
X015664Y009026D01*
X015655Y009062D01*
X015649Y009099D01*
X015647Y009136D01*
X018151Y006633D02*
X018153Y006670D01*
X018159Y006707D01*
X018168Y006743D01*
X018182Y006777D01*
X018199Y006810D01*
X018219Y006842D01*
X018242Y006871D01*
X018268Y006897D01*
X018297Y006920D01*
X018328Y006940D01*
X018362Y006957D01*
X018396Y006971D01*
X018432Y006980D01*
X018469Y006986D01*
X018506Y006988D01*
X018543Y006986D01*
X018580Y006980D01*
X018616Y006971D01*
X018650Y006957D01*
X018683Y006940D01*
X018715Y006920D01*
X018744Y006897D01*
X018770Y006871D01*
X018793Y006842D01*
X018813Y006811D01*
X018830Y006777D01*
X018844Y006743D01*
X018853Y006707D01*
X018859Y006670D01*
X018861Y006633D01*
X018859Y006596D01*
X018853Y006559D01*
X018844Y006523D01*
X018830Y006489D01*
X018813Y006456D01*
X018793Y006424D01*
X018770Y006395D01*
X018744Y006369D01*
X018715Y006346D01*
X018684Y006326D01*
X018650Y006309D01*
X018616Y006295D01*
X018580Y006286D01*
X018543Y006280D01*
X018506Y006278D01*
X018469Y006280D01*
X018432Y006286D01*
X018396Y006295D01*
X018362Y006309D01*
X018329Y006326D01*
X018297Y006346D01*
X018268Y006369D01*
X018242Y006395D01*
X018219Y006424D01*
X018199Y006455D01*
X018182Y006489D01*
X018168Y006523D01*
X018159Y006559D01*
X018153Y006596D01*
X018151Y006633D01*
X018151Y029133D02*
X018153Y029170D01*
X018159Y029207D01*
X018168Y029243D01*
X018182Y029277D01*
X018199Y029310D01*
X018219Y029342D01*
X018242Y029371D01*
X018268Y029397D01*
X018297Y029420D01*
X018328Y029440D01*
X018362Y029457D01*
X018396Y029471D01*
X018432Y029480D01*
X018469Y029486D01*
X018506Y029488D01*
X018543Y029486D01*
X018580Y029480D01*
X018616Y029471D01*
X018650Y029457D01*
X018683Y029440D01*
X018715Y029420D01*
X018744Y029397D01*
X018770Y029371D01*
X018793Y029342D01*
X018813Y029311D01*
X018830Y029277D01*
X018844Y029243D01*
X018853Y029207D01*
X018859Y029170D01*
X018861Y029133D01*
X018859Y029096D01*
X018853Y029059D01*
X018844Y029023D01*
X018830Y028989D01*
X018813Y028956D01*
X018793Y028924D01*
X018770Y028895D01*
X018744Y028869D01*
X018715Y028846D01*
X018684Y028826D01*
X018650Y028809D01*
X018616Y028795D01*
X018580Y028786D01*
X018543Y028780D01*
X018506Y028778D01*
X018469Y028780D01*
X018432Y028786D01*
X018396Y028795D01*
X018362Y028809D01*
X018329Y028826D01*
X018297Y028846D01*
X018268Y028869D01*
X018242Y028895D01*
X018219Y028924D01*
X018199Y028955D01*
X018182Y028989D01*
X018168Y029023D01*
X018159Y029059D01*
X018153Y029096D01*
X018151Y029133D01*
X015647Y031636D02*
X015649Y031673D01*
X015655Y031710D01*
X015664Y031746D01*
X015678Y031780D01*
X015695Y031813D01*
X015715Y031845D01*
X015738Y031874D01*
X015764Y031900D01*
X015793Y031923D01*
X015824Y031943D01*
X015858Y031960D01*
X015892Y031974D01*
X015928Y031983D01*
X015965Y031989D01*
X016002Y031991D01*
X016039Y031989D01*
X016076Y031983D01*
X016112Y031974D01*
X016146Y031960D01*
X016179Y031943D01*
X016211Y031923D01*
X016240Y031900D01*
X016266Y031874D01*
X016289Y031845D01*
X016309Y031814D01*
X016326Y031780D01*
X016340Y031746D01*
X016349Y031710D01*
X016355Y031673D01*
X016357Y031636D01*
X016355Y031599D01*
X016349Y031562D01*
X016340Y031526D01*
X016326Y031492D01*
X016309Y031459D01*
X016289Y031427D01*
X016266Y031398D01*
X016240Y031372D01*
X016211Y031349D01*
X016180Y031329D01*
X016146Y031312D01*
X016112Y031298D01*
X016076Y031289D01*
X016039Y031283D01*
X016002Y031281D01*
X015965Y031283D01*
X015928Y031289D01*
X015892Y031298D01*
X015858Y031312D01*
X015825Y031329D01*
X015793Y031349D01*
X015764Y031372D01*
X015738Y031398D01*
X015715Y031427D01*
X015695Y031458D01*
X015678Y031492D01*
X015664Y031526D01*
X015655Y031562D01*
X015649Y031599D01*
X015647Y031636D01*
X011651Y029133D02*
X011653Y029170D01*
X011659Y029207D01*
X011668Y029243D01*
X011682Y029277D01*
X011699Y029310D01*
X011719Y029342D01*
X011742Y029371D01*
X011768Y029397D01*
X011797Y029420D01*
X011828Y029440D01*
X011862Y029457D01*
X011896Y029471D01*
X011932Y029480D01*
X011969Y029486D01*
X012006Y029488D01*
X012043Y029486D01*
X012080Y029480D01*
X012116Y029471D01*
X012150Y029457D01*
X012183Y029440D01*
X012215Y029420D01*
X012244Y029397D01*
X012270Y029371D01*
X012293Y029342D01*
X012313Y029311D01*
X012330Y029277D01*
X012344Y029243D01*
X012353Y029207D01*
X012359Y029170D01*
X012361Y029133D01*
X012359Y029096D01*
X012353Y029059D01*
X012344Y029023D01*
X012330Y028989D01*
X012313Y028956D01*
X012293Y028924D01*
X012270Y028895D01*
X012244Y028869D01*
X012215Y028846D01*
X012184Y028826D01*
X012150Y028809D01*
X012116Y028795D01*
X012080Y028786D01*
X012043Y028780D01*
X012006Y028778D01*
X011969Y028780D01*
X011932Y028786D01*
X011896Y028795D01*
X011862Y028809D01*
X011829Y028826D01*
X011797Y028846D01*
X011768Y028869D01*
X011742Y028895D01*
X011719Y028924D01*
X011699Y028955D01*
X011682Y028989D01*
X011668Y029023D01*
X011659Y029059D01*
X011653Y029096D01*
X011651Y029133D01*
X009147Y031636D02*
X009149Y031673D01*
X009155Y031710D01*
X009164Y031746D01*
X009178Y031780D01*
X009195Y031813D01*
X009215Y031845D01*
X009238Y031874D01*
X009264Y031900D01*
X009293Y031923D01*
X009324Y031943D01*
X009358Y031960D01*
X009392Y031974D01*
X009428Y031983D01*
X009465Y031989D01*
X009502Y031991D01*
X009539Y031989D01*
X009576Y031983D01*
X009612Y031974D01*
X009646Y031960D01*
X009679Y031943D01*
X009711Y031923D01*
X009740Y031900D01*
X009766Y031874D01*
X009789Y031845D01*
X009809Y031814D01*
X009826Y031780D01*
X009840Y031746D01*
X009849Y031710D01*
X009855Y031673D01*
X009857Y031636D01*
X009855Y031599D01*
X009849Y031562D01*
X009840Y031526D01*
X009826Y031492D01*
X009809Y031459D01*
X009789Y031427D01*
X009766Y031398D01*
X009740Y031372D01*
X009711Y031349D01*
X009680Y031329D01*
X009646Y031312D01*
X009612Y031298D01*
X009576Y031289D01*
X009539Y031283D01*
X009502Y031281D01*
X009465Y031283D01*
X009428Y031289D01*
X009392Y031298D01*
X009358Y031312D01*
X009325Y031329D01*
X009293Y031349D01*
X009264Y031372D01*
X009238Y031398D01*
X009215Y031427D01*
X009195Y031458D01*
X009178Y031492D01*
X009164Y031526D01*
X009155Y031562D01*
X009149Y031599D01*
X009147Y031636D01*
X005151Y029133D02*
X005153Y029170D01*
X005159Y029207D01*
X005168Y029243D01*
X005182Y029277D01*
X005199Y029310D01*
X005219Y029342D01*
X005242Y029371D01*
X005268Y029397D01*
X005297Y029420D01*
X005328Y029440D01*
X005362Y029457D01*
X005396Y029471D01*
X005432Y029480D01*
X005469Y029486D01*
X005506Y029488D01*
X005543Y029486D01*
X005580Y029480D01*
X005616Y029471D01*
X005650Y029457D01*
X005683Y029440D01*
X005715Y029420D01*
X005744Y029397D01*
X005770Y029371D01*
X005793Y029342D01*
X005813Y029311D01*
X005830Y029277D01*
X005844Y029243D01*
X005853Y029207D01*
X005859Y029170D01*
X005861Y029133D01*
X005859Y029096D01*
X005853Y029059D01*
X005844Y029023D01*
X005830Y028989D01*
X005813Y028956D01*
X005793Y028924D01*
X005770Y028895D01*
X005744Y028869D01*
X005715Y028846D01*
X005684Y028826D01*
X005650Y028809D01*
X005616Y028795D01*
X005580Y028786D01*
X005543Y028780D01*
X005506Y028778D01*
X005469Y028780D01*
X005432Y028786D01*
X005396Y028795D01*
X005362Y028809D01*
X005329Y028826D01*
X005297Y028846D01*
X005268Y028869D01*
X005242Y028895D01*
X005219Y028924D01*
X005199Y028955D01*
X005182Y028989D01*
X005168Y029023D01*
X005159Y029059D01*
X005153Y029096D01*
X005151Y029133D01*
X002647Y031636D02*
X002649Y031673D01*
X002655Y031710D01*
X002664Y031746D01*
X002678Y031780D01*
X002695Y031813D01*
X002715Y031845D01*
X002738Y031874D01*
X002764Y031900D01*
X002793Y031923D01*
X002824Y031943D01*
X002858Y031960D01*
X002892Y031974D01*
X002928Y031983D01*
X002965Y031989D01*
X003002Y031991D01*
X003039Y031989D01*
X003076Y031983D01*
X003112Y031974D01*
X003146Y031960D01*
X003179Y031943D01*
X003211Y031923D01*
X003240Y031900D01*
X003266Y031874D01*
X003289Y031845D01*
X003309Y031814D01*
X003326Y031780D01*
X003340Y031746D01*
X003349Y031710D01*
X003355Y031673D01*
X003357Y031636D01*
X003355Y031599D01*
X003349Y031562D01*
X003340Y031526D01*
X003326Y031492D01*
X003309Y031459D01*
X003289Y031427D01*
X003266Y031398D01*
X003240Y031372D01*
X003211Y031349D01*
X003180Y031329D01*
X003146Y031312D01*
X003112Y031298D01*
X003076Y031289D01*
X003039Y031283D01*
X003002Y031281D01*
X002965Y031283D01*
X002928Y031289D01*
X002892Y031298D01*
X002858Y031312D01*
X002825Y031329D01*
X002793Y031349D01*
X002764Y031372D01*
X002738Y031398D01*
X002715Y031427D01*
X002695Y031458D01*
X002678Y031492D01*
X002664Y031526D01*
X002655Y031562D01*
X002649Y031599D01*
X002647Y031636D01*
D11*
X008129Y023385D03*
X008129Y017385D03*
X013379Y017385D03*
X013379Y023385D03*
X013845Y002885D03*
X007663Y002885D03*
D12*
X006754Y019385D03*
X006754Y020385D03*
X006754Y021385D03*
X009754Y024385D03*
X010754Y024385D03*
X011754Y024385D03*
D13*
X013754Y021985D02*
X013754Y021285D01*
X013754Y019485D02*
X013754Y018785D01*
X015526Y018785D02*
X015526Y019485D01*
X015526Y021285D02*
X015526Y021985D01*
D14*
X017254Y022385D03*
X018254Y022385D03*
X019254Y022385D03*
X019254Y018385D03*
X018254Y018385D03*
X017254Y018385D03*
X016754Y012385D03*
X017754Y012385D03*
X015754Y004385D03*
X011754Y004385D03*
X009254Y004385D03*
X005254Y004385D03*
X004754Y012385D03*
X003754Y012385D03*
X003254Y018385D03*
X004254Y018385D03*
X002254Y018385D03*
X002254Y022385D03*
X003254Y022385D03*
X004254Y022385D03*
X010254Y012385D03*
X011254Y012385D03*
X011254Y034885D03*
X010254Y034885D03*
X004754Y034885D03*
X003754Y034885D03*
X016754Y034885D03*
X017754Y034885D03*
D15*
X018550Y033066D02*
X018051Y032568D01*
X019437Y031182D02*
X019936Y031680D01*
X016457Y028201D02*
X015958Y027703D01*
X014572Y029089D02*
X015071Y029587D01*
X013436Y031680D02*
X012937Y031182D01*
X011551Y032568D02*
X012050Y033066D01*
X009957Y028201D02*
X009458Y027703D01*
X008072Y029089D02*
X008571Y029587D01*
X006936Y031680D02*
X006437Y031182D01*
X005051Y032568D02*
X005550Y033066D01*
X003457Y028201D02*
X002958Y027703D01*
X001572Y029089D02*
X002071Y029587D01*
X002958Y010566D02*
X003457Y010068D01*
X002071Y008682D02*
X001572Y009180D01*
X005051Y005701D02*
X005550Y005203D01*
X006936Y006589D02*
X006437Y007087D01*
X008072Y006589D02*
X008571Y007087D01*
X009957Y005701D02*
X009458Y005203D01*
X011551Y010068D02*
X012050Y010566D01*
X013436Y009180D02*
X012937Y008682D01*
X014572Y006589D02*
X015071Y007087D01*
X016457Y005701D02*
X015958Y005203D01*
X018051Y010068D02*
X018550Y010566D01*
X019936Y009180D02*
X019437Y008682D01*
D16*
X018506Y006633D03*
X016002Y009136D03*
X012006Y006633D03*
X009502Y009136D03*
X005506Y009136D03*
X003002Y006633D03*
X005506Y029133D03*
X003002Y031636D03*
X009502Y031636D03*
X012006Y029133D03*
X016002Y031636D03*
X018506Y029133D03*
D17*
X018754Y037885D03*
X002754Y037885D03*
X002754Y003635D03*
X018754Y003635D03*
D18*
X012329Y002885D03*
X010754Y002885D03*
X009967Y002885D03*
X009179Y002885D03*
D19*
X008754Y036885D03*
X008754Y037885D03*
X007754Y037885D03*
X007754Y036885D03*
X006754Y036885D03*
X006754Y037885D03*
X009754Y037885D03*
X009754Y036885D03*
X010754Y036885D03*
X010754Y037885D03*
X011754Y037885D03*
X011754Y036885D03*
X012754Y036885D03*
X012754Y037885D03*
X013754Y037885D03*
X013754Y036885D03*
X014754Y036885D03*
X014754Y037885D03*
D20*
X003879Y026395D02*
X003649Y026435D01*
X003617Y026414D02*
X003329Y026414D01*
X003329Y026435D02*
X003329Y026135D01*
X003179Y026035D01*
X003329Y025785D01*
X003379Y025785D01*
X003529Y025685D01*
X003629Y025785D01*
X003529Y025935D01*
X003629Y026185D01*
X003829Y026235D01*
X003829Y026385D01*
X003629Y026385D01*
X003529Y026635D01*
X003679Y026835D01*
X003529Y026935D01*
X003379Y026785D01*
X003179Y026885D01*
X003129Y027085D01*
X002979Y027085D01*
X002929Y026885D01*
X002729Y026785D01*
X002529Y026935D01*
X002429Y026835D01*
X002529Y026635D01*
X002429Y026385D01*
X002229Y026385D01*
X002229Y026235D01*
X002479Y026185D01*
X002529Y025935D01*
X002429Y025785D01*
X002529Y025685D01*
X002679Y025785D01*
X002779Y025735D01*
X002879Y026035D01*
X002729Y026235D01*
X002779Y026485D01*
X002979Y026585D01*
X003179Y026585D01*
X003329Y026435D01*
X003291Y026473D02*
X003594Y026473D01*
X003570Y026531D02*
X003232Y026531D01*
X003329Y026356D02*
X003829Y026356D01*
X003829Y026297D02*
X003329Y026297D01*
X003329Y026239D02*
X003829Y026239D01*
X003879Y026195D02*
X003659Y026155D01*
X003627Y026180D02*
X003329Y026180D01*
X003309Y026122D02*
X003604Y026122D01*
X003580Y026063D02*
X003222Y026063D01*
X003159Y026055D02*
X003309Y025715D01*
X003379Y025755D01*
X003559Y025635D01*
X003699Y025775D01*
X003579Y025955D01*
X003534Y025946D02*
X003232Y025946D01*
X003197Y026005D02*
X003557Y026005D01*
X003561Y025887D02*
X003267Y025887D01*
X003302Y025829D02*
X003600Y025829D01*
X003615Y025770D02*
X003401Y025770D01*
X003488Y025712D02*
X003556Y025712D01*
X003879Y026195D02*
X003879Y026395D01*
X003569Y026625D02*
X003699Y026815D01*
X003559Y026955D01*
X003369Y026825D01*
X003418Y026824D02*
X003671Y026824D01*
X003627Y026766D02*
X002464Y026766D01*
X002434Y026824D02*
X002676Y026824D01*
X002719Y026825D02*
X002519Y026955D01*
X002379Y026815D01*
X002519Y026625D01*
X002522Y026649D02*
X003539Y026649D01*
X003547Y026590D02*
X002511Y026590D01*
X002488Y026531D02*
X002872Y026531D01*
X002777Y026473D02*
X002464Y026473D01*
X002429Y026435D02*
X002209Y026395D01*
X002209Y026195D01*
X002429Y026155D01*
X002480Y026180D02*
X002770Y026180D01*
X002730Y026239D02*
X002229Y026239D01*
X002229Y026297D02*
X002741Y026297D01*
X002753Y026356D02*
X002229Y026356D01*
X002441Y026414D02*
X002765Y026414D01*
X002514Y026623D02*
X002492Y026588D01*
X002472Y026552D01*
X002454Y026514D01*
X002439Y026475D01*
X002427Y026435D01*
X002493Y026707D02*
X003583Y026707D01*
X003607Y026883D02*
X003477Y026883D01*
X003300Y026824D02*
X002808Y026824D01*
X002899Y026895D02*
X002949Y027135D01*
X003139Y027135D01*
X003189Y026895D01*
X003183Y026883D02*
X002925Y026883D01*
X002943Y026941D02*
X003165Y026941D01*
X003150Y027000D02*
X002958Y027000D01*
X002972Y027058D02*
X003136Y027058D01*
X002598Y026883D02*
X002477Y026883D01*
X002492Y026122D02*
X002814Y026122D01*
X002858Y026063D02*
X002503Y026063D01*
X002515Y026005D02*
X002869Y026005D01*
X002849Y025946D02*
X002527Y025946D01*
X002509Y025955D02*
X002379Y025775D01*
X002519Y025635D01*
X002699Y025755D01*
X002779Y025715D01*
X002919Y026055D01*
X002830Y025887D02*
X002498Y025887D01*
X002459Y025829D02*
X002810Y025829D01*
X002791Y025770D02*
X002708Y025770D01*
X002658Y025770D02*
X002443Y025770D01*
X002502Y025712D02*
X002570Y025712D01*
X002720Y026825D02*
X002763Y026848D01*
X002807Y026868D01*
X002853Y026884D01*
X002899Y026896D01*
X002919Y026055D02*
X002891Y026071D01*
X002864Y026090D01*
X002841Y026112D01*
X002820Y026137D01*
X002802Y026165D01*
X002787Y026194D01*
X002777Y026225D01*
X002769Y026256D01*
X002766Y026289D01*
X002767Y026321D01*
X002771Y026354D01*
X002780Y026385D01*
X002792Y026415D01*
X002807Y026444D01*
X002826Y026471D01*
X002848Y026495D01*
X002872Y026516D01*
X002899Y026535D01*
X002928Y026550D01*
X002959Y026561D01*
X002990Y026569D01*
X003023Y026573D01*
X003055Y026573D01*
X003088Y026569D01*
X003119Y026561D01*
X003150Y026550D01*
X003179Y026535D01*
X003206Y026516D01*
X003230Y026495D01*
X003252Y026471D01*
X003271Y026444D01*
X003286Y026415D01*
X003298Y026385D01*
X003307Y026354D01*
X003311Y026321D01*
X003312Y026289D01*
X003309Y026256D01*
X003301Y026225D01*
X003291Y026194D01*
X003276Y026165D01*
X003258Y026137D01*
X003237Y026112D01*
X003214Y026090D01*
X003187Y026071D01*
X003159Y026055D01*
X003367Y026821D02*
X003325Y026844D01*
X003282Y026863D01*
X003237Y026880D01*
X003191Y026892D01*
X003657Y026139D02*
X003642Y026092D01*
X003624Y026046D01*
X003602Y026002D01*
X003577Y025960D01*
X003651Y026437D02*
X003640Y026477D01*
X003626Y026516D01*
X003610Y026553D01*
X003591Y026590D01*
X003570Y026625D01*
X002430Y026156D02*
X002440Y026114D01*
X002453Y026073D01*
X002469Y026033D01*
X002488Y025994D01*
X002510Y025957D01*
M02*
