%
M48
M72
T01C0.0236
T02C0.0276
T03C0.0315
T04C0.0320
T05C0.0354
T06C0.0380
T07C0.0400
T08C0.0551
T09C0.1024
T10C0.1260
%
T01
X16168Y7503
X16668Y6503
X17168Y8503
X18668Y9003
X20168Y10003
X18168Y11003
X17668Y10503
X17168Y12503
X19668Y13003
X21668Y11628
X22168Y11503
X23168Y12003
X23668Y11628
X29168Y13003
X29168Y14003
X29668Y14503
X20668Y8003
X22668Y5503
X29668Y5003
T02
X12498Y7332
X12498Y8119
X12498Y8907
X12498Y9694
X12498Y10481
X12498Y11269
X12498Y12056
X12498Y12844
X12498Y13631
X12498Y14419
X19420Y16753
X20168Y16753
X20955Y16753
X3837Y14419
X3837Y13631
X3837Y12844
X3837Y12056
X3837Y11269
X3837Y10481
X3837Y9694
X3837Y8907
X3837Y8119
X3837Y7332
T03
X36774Y12753
X37561Y12753
T04
X35418Y12753
X36668Y10253
X37668Y10253
X35418Y8753
X35418Y7753
X36418Y7753
X37668Y5253
X38668Y5253
X36418Y3753
X35418Y3753
X35168Y1753
X34168Y1753
X30168Y1753
X29168Y1753
X12668Y5753
X8668Y5753
X7668Y5753
X3668Y5753
X5168Y1753
X6168Y1753
X10168Y1753
X11168Y1753
T05
X16668Y14253
X17668Y14253
X18668Y14253
X19668Y14253
X20668Y14253
X21668Y14253
X22668Y14253
X23668Y14253
T06
X28168Y14003
X28168Y13003
X28168Y12003
X28168Y11003
X28168Y10003
X28168Y9003
X28168Y8003
X28168Y7003
X28168Y6003
X28168Y5003
X28168Y4003
X29168Y4003
X30168Y4003
X31168Y4003
X32168Y4003
X33168Y4003
X34168Y4003
X34168Y5003
X34168Y6003
X34168Y7003
X34168Y8003
X34168Y9003
X34168Y10003
X34168Y11003
X34168Y12003
X33168Y12003
X33168Y13003
X34168Y13003
X34168Y14003
X33168Y14003
X34168Y15003
X34168Y16003
X33168Y16003
X34168Y17003
X28168Y17003
X28168Y16003
X28168Y15003
T07
X24168Y4753
X23168Y4753
X22168Y4753
X21168Y4753
X20168Y4753
X19168Y4753
X18168Y4753
X17168Y4753
X16168Y4753
X16168Y3753
X17168Y3753
X18168Y3753
X19168Y3753
X20168Y3753
X21168Y3753
X22168Y3753
X23168Y3753
X24168Y3753
T08
X22057Y16753
X18278Y16753
T09
X14459Y14253
X25876Y14253
X25876Y2639
X14459Y2639
T10
X2418Y2003
X2418Y16003
X37918Y16003
X37918Y2003
M30
