G75*
G70*
%OFA0B0*%
%FSLAX24Y24*%
%IPPOS*%
%LPD*%
%AMOC8*
5,1,8,0,0,1.08239X$1,22.5*
%
%ADD10C,0.0640*%
%ADD11R,0.0640X0.0640*%
%ADD12C,0.0660*%
%ADD13OC8,0.0600*%
%ADD14C,0.0740*%
%ADD15C,0.1104*%
%ADD16R,0.0297X0.0552*%
%ADD17OC8,0.0710*%
%ADD18C,0.0710*%
%ADD19C,0.1340*%
%ADD20C,0.1080*%
%ADD21C,0.0060*%
%ADD22OC8,0.0680*%
D10*
X003837Y007332D03*
X003837Y008119D03*
X003837Y008907D03*
X003837Y009694D03*
X003837Y010481D03*
X003837Y011269D03*
X003837Y012056D03*
X003837Y012844D03*
X003837Y013631D03*
X012498Y013631D03*
X012498Y012844D03*
X012498Y012056D03*
X012498Y011269D03*
X012498Y010481D03*
X012498Y009694D03*
X012498Y008907D03*
X012498Y008119D03*
X012498Y007332D03*
X012498Y014419D03*
X019420Y016753D03*
X020168Y016753D03*
X020955Y016753D03*
X036774Y012753D03*
X037561Y012753D03*
D11*
X003837Y014419D03*
D12*
X028168Y014003D03*
X028168Y013003D03*
X028168Y012003D03*
X028168Y011003D03*
X028168Y010003D03*
X028168Y009003D03*
X028168Y008003D03*
X028168Y007003D03*
X028168Y006003D03*
X028168Y005003D03*
X028168Y004003D03*
X029168Y004003D03*
X030168Y004003D03*
X031168Y004003D03*
X032168Y004003D03*
X033168Y004003D03*
X034168Y004003D03*
X034168Y005003D03*
X034168Y006003D03*
X034168Y007003D03*
X034168Y008003D03*
X034168Y009003D03*
X034168Y010003D03*
X034168Y011003D03*
X034168Y012003D03*
X033168Y012003D03*
X033168Y013003D03*
X034168Y013003D03*
X034168Y014003D03*
X033168Y014003D03*
X034168Y015003D03*
X034168Y016003D03*
X033168Y016003D03*
X034168Y017003D03*
X028168Y017003D03*
X028168Y016003D03*
X028168Y015003D03*
D13*
X035418Y012753D03*
X035418Y008753D03*
X035418Y007753D03*
X036418Y007753D03*
X036418Y003753D03*
X035418Y003753D03*
X035168Y001753D03*
X034168Y001753D03*
X030168Y001753D03*
X029168Y001753D03*
X012668Y005753D03*
X008668Y005753D03*
X007668Y005753D03*
X003668Y005753D03*
X005168Y001753D03*
X006168Y001753D03*
X010168Y001753D03*
X011168Y001753D03*
D14*
X016668Y014253D03*
X017668Y014253D03*
X018668Y014253D03*
X019668Y014253D03*
X020668Y014253D03*
X021668Y014253D03*
X022668Y014253D03*
X023668Y014253D03*
D15*
X025876Y014253D03*
X014459Y014253D03*
X014459Y002639D03*
X025876Y002639D03*
D16*
X037294Y007241D03*
X038042Y007241D03*
X038042Y008265D03*
X037668Y008265D03*
X037294Y008265D03*
D17*
X036668Y010253D03*
X037668Y005253D03*
D18*
X038668Y005253D03*
X037668Y010253D03*
D19*
X002418Y002003D03*
X002418Y016003D03*
X037918Y016003D03*
X037918Y002003D03*
D20*
X022057Y016753D03*
X018278Y016753D03*
D21*
X014428Y010503D02*
X014238Y010503D01*
X014188Y010263D01*
X014197Y010243D02*
X014488Y010243D01*
X014478Y010263D02*
X014428Y010503D01*
X014418Y010453D02*
X014268Y010453D01*
X014218Y010253D01*
X014018Y010153D01*
X013818Y010303D01*
X013718Y010203D01*
X013818Y010003D01*
X013718Y009753D01*
X013518Y009753D01*
X013518Y009603D01*
X013768Y009553D01*
X013818Y009303D01*
X013718Y009153D01*
X013818Y009053D01*
X013968Y009153D01*
X014068Y009103D01*
X014168Y009403D01*
X014018Y009603D01*
X014068Y009853D01*
X014268Y009953D01*
X014468Y009953D01*
X014618Y009803D01*
X014618Y009503D01*
X014468Y009403D01*
X014618Y009153D01*
X014668Y009153D01*
X014818Y009053D01*
X014918Y009153D01*
X014818Y009303D01*
X014918Y009553D01*
X015118Y009603D01*
X015118Y009753D01*
X014918Y009753D01*
X014818Y010003D01*
X014968Y010203D01*
X014818Y010303D01*
X014668Y010153D01*
X014468Y010253D01*
X014418Y010453D01*
X014426Y010418D02*
X014259Y010418D01*
X014244Y010360D02*
X014441Y010360D01*
X014456Y010301D02*
X014230Y010301D01*
X014080Y010184D02*
X014605Y010184D01*
X014658Y010193D02*
X014848Y010323D01*
X014988Y010183D01*
X014858Y009993D01*
X014822Y010009D02*
X013815Y010009D01*
X013808Y009993D02*
X013668Y010183D01*
X013808Y010323D01*
X014008Y010193D01*
X013976Y010184D02*
X013727Y010184D01*
X013756Y010126D02*
X014909Y010126D01*
X014866Y010067D02*
X013786Y010067D01*
X013796Y009950D02*
X014261Y009950D01*
X014144Y009892D02*
X013773Y009892D01*
X013750Y009833D02*
X014064Y009833D01*
X014052Y009774D02*
X013726Y009774D01*
X013718Y009803D02*
X013498Y009763D01*
X013498Y009563D01*
X013718Y009523D01*
X013770Y009540D02*
X014065Y009540D01*
X014109Y009482D02*
X013782Y009482D01*
X013794Y009423D02*
X014153Y009423D01*
X014208Y009423D02*
X014068Y009083D01*
X013988Y009123D01*
X013808Y009003D01*
X013668Y009143D01*
X013798Y009323D01*
X013817Y009306D02*
X014135Y009306D01*
X014116Y009248D02*
X013781Y009248D01*
X013741Y009189D02*
X014096Y009189D01*
X014077Y009131D02*
X014013Y009131D01*
X013934Y009131D02*
X013740Y009131D01*
X013799Y009072D02*
X013846Y009072D01*
X013805Y009365D02*
X014155Y009365D01*
X014021Y009599D02*
X013539Y009599D01*
X013518Y009657D02*
X014028Y009657D01*
X014040Y009716D02*
X013518Y009716D01*
X013715Y009804D02*
X013727Y009844D01*
X013742Y009883D01*
X013760Y009921D01*
X013780Y009957D01*
X013802Y009992D01*
X014208Y009423D02*
X014180Y009439D01*
X014153Y009458D01*
X014130Y009480D01*
X014109Y009505D01*
X014091Y009533D01*
X014076Y009562D01*
X014066Y009593D01*
X014058Y009624D01*
X014055Y009657D01*
X014056Y009689D01*
X014060Y009722D01*
X014069Y009753D01*
X014081Y009783D01*
X014096Y009812D01*
X014115Y009839D01*
X014137Y009863D01*
X014161Y009884D01*
X014188Y009903D01*
X014217Y009918D01*
X014248Y009929D01*
X014279Y009937D01*
X014312Y009941D01*
X014344Y009941D01*
X014377Y009937D01*
X014408Y009929D01*
X014439Y009918D01*
X014468Y009903D01*
X014495Y009884D01*
X014519Y009863D01*
X014541Y009839D01*
X014560Y009812D01*
X014575Y009783D01*
X014587Y009753D01*
X014596Y009722D01*
X014600Y009689D01*
X014601Y009657D01*
X014598Y009624D01*
X014590Y009593D01*
X014580Y009562D01*
X014565Y009533D01*
X014547Y009505D01*
X014526Y009480D01*
X014503Y009458D01*
X014476Y009439D01*
X014448Y009423D01*
X014598Y009083D01*
X014668Y009123D01*
X014848Y009003D01*
X014988Y009143D01*
X014868Y009323D01*
X014842Y009365D02*
X014491Y009365D01*
X014498Y009423D02*
X014866Y009423D01*
X014889Y009482D02*
X014586Y009482D01*
X014618Y009540D02*
X014912Y009540D01*
X014948Y009523D02*
X015168Y009563D01*
X015168Y009763D01*
X014938Y009803D01*
X014909Y009774D02*
X014618Y009774D01*
X014618Y009716D02*
X015118Y009716D01*
X015118Y009657D02*
X014618Y009657D01*
X014618Y009599D02*
X015100Y009599D01*
X014819Y009306D02*
X014526Y009306D01*
X014561Y009248D02*
X014855Y009248D01*
X014894Y009189D02*
X014596Y009189D01*
X014701Y009131D02*
X014895Y009131D01*
X014836Y009072D02*
X014789Y009072D01*
X014865Y009328D02*
X014890Y009370D01*
X014912Y009414D01*
X014930Y009460D01*
X014945Y009507D01*
X014886Y009833D02*
X014588Y009833D01*
X014529Y009892D02*
X014862Y009892D01*
X014839Y009950D02*
X014471Y009950D01*
X014699Y010184D02*
X014953Y010184D01*
X014908Y010243D02*
X014757Y010243D01*
X014816Y010301D02*
X014820Y010301D01*
X013898Y010243D02*
X013757Y010243D01*
X013816Y010301D02*
X013820Y010301D01*
X014008Y010193D02*
X014051Y010216D01*
X014095Y010236D01*
X014141Y010252D01*
X014187Y010264D01*
X013718Y009524D02*
X013728Y009482D01*
X013741Y009441D01*
X013757Y009401D01*
X013776Y009362D01*
X013798Y009325D01*
X014939Y009805D02*
X014928Y009845D01*
X014914Y009884D01*
X014898Y009921D01*
X014879Y009958D01*
X014858Y009993D01*
X014655Y010189D02*
X014613Y010212D01*
X014570Y010231D01*
X014525Y010248D01*
X014479Y010260D01*
D22*
X016168Y004753D03*
X017168Y004753D03*
X018168Y004753D03*
X019168Y004753D03*
X020168Y004753D03*
X021168Y004753D03*
X022168Y004753D03*
X023168Y004753D03*
X024168Y004753D03*
X024168Y003753D03*
X023168Y003753D03*
X022168Y003753D03*
X021168Y003753D03*
X020168Y003753D03*
X019168Y003753D03*
X018168Y003753D03*
X017168Y003753D03*
X016168Y003753D03*
M02*
