G75*
G70*
%OFA0B0*%
%FSLAX24Y24*%
%IPPOS*%
%LPD*%
%AMOC8*
5,1,8,0,0,1.08239X$1,22.5*
%
%ADD10C,0.0640*%
%ADD11R,0.0640X0.0640*%
%ADD12C,0.0660*%
%ADD13OC8,0.0600*%
%ADD14C,0.0740*%
%ADD15C,0.1104*%
%ADD16OC8,0.0710*%
%ADD17C,0.0710*%
%ADD18C,0.1340*%
%ADD19C,0.1080*%
%ADD20OC8,0.0680*%
D10*
X003837Y007332D03*
X003837Y008119D03*
X003837Y008907D03*
X003837Y009694D03*
X003837Y010481D03*
X003837Y011269D03*
X003837Y012056D03*
X003837Y012844D03*
X003837Y013631D03*
X012498Y013631D03*
X012498Y012844D03*
X012498Y012056D03*
X012498Y011269D03*
X012498Y010481D03*
X012498Y009694D03*
X012498Y008907D03*
X012498Y008119D03*
X012498Y007332D03*
X012498Y014419D03*
X019420Y016753D03*
X020168Y016753D03*
X020955Y016753D03*
X036774Y012753D03*
X037561Y012753D03*
D11*
X003837Y014419D03*
D12*
X028168Y014003D03*
X028168Y013003D03*
X028168Y012003D03*
X028168Y011003D03*
X028168Y010003D03*
X028168Y009003D03*
X028168Y008003D03*
X028168Y007003D03*
X028168Y006003D03*
X028168Y005003D03*
X028168Y004003D03*
X029168Y004003D03*
X030168Y004003D03*
X031168Y004003D03*
X032168Y004003D03*
X033168Y004003D03*
X034168Y004003D03*
X034168Y005003D03*
X034168Y006003D03*
X034168Y007003D03*
X034168Y008003D03*
X034168Y009003D03*
X034168Y010003D03*
X034168Y011003D03*
X034168Y012003D03*
X033168Y012003D03*
X033168Y013003D03*
X034168Y013003D03*
X034168Y014003D03*
X033168Y014003D03*
X034168Y015003D03*
X034168Y016003D03*
X033168Y016003D03*
X034168Y017003D03*
X028168Y017003D03*
X028168Y016003D03*
X028168Y015003D03*
D13*
X035418Y012753D03*
X035418Y008753D03*
X035418Y007753D03*
X036418Y007753D03*
X036418Y003753D03*
X035418Y003753D03*
X035168Y001753D03*
X034168Y001753D03*
X030168Y001753D03*
X029168Y001753D03*
X012668Y005753D03*
X008668Y005753D03*
X007668Y005753D03*
X003668Y005753D03*
X005168Y001753D03*
X006168Y001753D03*
X010168Y001753D03*
X011168Y001753D03*
D14*
X016668Y014253D03*
X017668Y014253D03*
X018668Y014253D03*
X019668Y014253D03*
X020668Y014253D03*
X021668Y014253D03*
X022668Y014253D03*
X023668Y014253D03*
D15*
X025876Y014253D03*
X014459Y014253D03*
X014459Y002639D03*
X025876Y002639D03*
D16*
X037668Y005253D03*
X036668Y010253D03*
D17*
X037668Y010253D03*
X038668Y005253D03*
D18*
X002418Y002003D03*
X002418Y016003D03*
X037918Y016003D03*
X037918Y002003D03*
D19*
X022057Y016753D03*
X018278Y016753D03*
D20*
X018168Y004753D03*
X019168Y004753D03*
X020168Y004753D03*
X021168Y004753D03*
X022168Y004753D03*
X023168Y004753D03*
X024168Y004753D03*
X024168Y003753D03*
X023168Y003753D03*
X022168Y003753D03*
X021168Y003753D03*
X020168Y003753D03*
X019168Y003753D03*
X018168Y003753D03*
X017168Y003753D03*
X016168Y003753D03*
X016168Y004753D03*
X017168Y004753D03*
M02*
