G75*
G70*
%OFA0B0*%
%FSLAX24Y24*%
%IPPOS*%
%LPD*%
%AMOC8*
5,1,8,0,0,1.08239X$1,22.5*
%
%ADD10C,0.0560*%
%ADD11R,0.0560X0.0560*%
%ADD12C,0.0580*%
%ADD13OC8,0.0520*%
%ADD14C,0.0660*%
%ADD15OC8,0.0630*%
%ADD16C,0.0630*%
%ADD17C,0.1000*%
%ADD18C,0.0120*%
%ADD19OC8,0.0600*%
%ADD20C,0.0396*%
%ADD21C,0.0160*%
D10*
X003837Y007332D03*
X003837Y008119D03*
X003837Y008907D03*
X003837Y009694D03*
X003837Y010481D03*
X003837Y011269D03*
X003837Y012056D03*
X003837Y012844D03*
X003837Y013631D03*
X012498Y013631D03*
X012498Y012844D03*
X012498Y012056D03*
X012498Y011269D03*
X012498Y010481D03*
X012498Y009694D03*
X012498Y008907D03*
X012498Y008119D03*
X012498Y007332D03*
X012498Y014419D03*
X019420Y016753D03*
X020168Y016753D03*
X020955Y016753D03*
X036774Y012753D03*
X037561Y012753D03*
D11*
X003837Y014419D03*
D12*
X028168Y014003D03*
X028168Y013003D03*
X028168Y012003D03*
X028168Y011003D03*
X028168Y010003D03*
X028168Y009003D03*
X028168Y008003D03*
X028168Y007003D03*
X028168Y006003D03*
X028168Y005003D03*
X028168Y004003D03*
X029168Y004003D03*
X030168Y004003D03*
X031168Y004003D03*
X032168Y004003D03*
X033168Y004003D03*
X034168Y004003D03*
X034168Y005003D03*
X034168Y006003D03*
X034168Y007003D03*
X034168Y008003D03*
X034168Y009003D03*
X034168Y010003D03*
X034168Y011003D03*
X034168Y012003D03*
X033168Y012003D03*
X033168Y013003D03*
X034168Y013003D03*
X034168Y014003D03*
X033168Y014003D03*
X034168Y015003D03*
X034168Y016003D03*
X033168Y016003D03*
X034168Y017003D03*
X028168Y017003D03*
X028168Y016003D03*
X028168Y015003D03*
D13*
X035418Y012753D03*
X035418Y008753D03*
X035418Y007753D03*
X036418Y007753D03*
X036418Y003753D03*
X035418Y003753D03*
X035168Y001753D03*
X034168Y001753D03*
X030168Y001753D03*
X029168Y001753D03*
X012668Y005753D03*
X008668Y005753D03*
X007668Y005753D03*
X003668Y005753D03*
X005168Y001753D03*
X006168Y001753D03*
X010168Y001753D03*
X011168Y001753D03*
D14*
X016668Y014253D03*
X017668Y014253D03*
X018668Y014253D03*
X019668Y014253D03*
X020668Y014253D03*
X021668Y014253D03*
X022668Y014253D03*
X023668Y014253D03*
D15*
X036668Y010253D03*
X037668Y005253D03*
D16*
X038668Y005253D03*
X037668Y010253D03*
D17*
X022057Y016753D03*
X018278Y016753D03*
D18*
X003452Y000705D02*
X003120Y000513D01*
X037221Y000513D01*
X037088Y000566D01*
X037088Y000566D01*
X036701Y000874D01*
X036701Y000874D01*
X036701Y000874D01*
X036422Y001283D01*
X036422Y001283D01*
X036276Y001756D01*
X036276Y001756D01*
X036276Y002251D01*
X036276Y002251D01*
X036422Y002723D01*
X036422Y002723D01*
X036701Y003132D01*
X036701Y003132D01*
X036701Y003132D01*
X037088Y003441D01*
X037088Y003441D01*
X037548Y003621D01*
X037548Y003621D01*
X038042Y003658D01*
X038042Y003658D01*
X038524Y003548D01*
X038524Y003548D01*
X038952Y003301D01*
X038953Y003301D01*
X039289Y002938D01*
X039289Y002938D01*
X039408Y002692D01*
X039408Y008451D01*
X039408Y008473D01*
X039408Y008503D01*
X039403Y008550D01*
X039367Y008636D01*
X039301Y008703D01*
X039214Y008739D01*
X039168Y008743D01*
X039094Y008743D01*
X039043Y008743D01*
X038991Y008743D01*
X038891Y008743D01*
X038891Y008743D01*
X038612Y008859D01*
X038612Y008859D01*
X038543Y008928D01*
X038543Y007357D01*
X038809Y007090D01*
X038809Y007090D01*
X038879Y007020D01*
X038918Y006928D01*
X038918Y005675D01*
X038942Y005664D01*
X039079Y005528D01*
X039153Y005350D01*
X039153Y005157D01*
X039079Y004978D01*
X038942Y004842D01*
X038764Y004768D01*
X038571Y004768D01*
X038393Y004842D01*
X038256Y004978D01*
X038183Y005157D01*
X038183Y005350D01*
X038256Y005528D01*
X038393Y005664D01*
X038418Y005675D01*
X038418Y006775D01*
X038081Y007112D01*
X038043Y007203D01*
X038043Y007303D01*
X038043Y009942D01*
X037942Y009842D01*
X037764Y009768D01*
X037571Y009768D01*
X037393Y009842D01*
X037256Y009978D01*
X037183Y010157D01*
X037183Y010350D01*
X037256Y010528D01*
X037393Y010664D01*
X037571Y010738D01*
X037764Y010738D01*
X037942Y010664D01*
X038043Y010564D01*
X038043Y012775D01*
X038011Y012806D01*
X038011Y012664D01*
X037943Y012498D01*
X037816Y012372D01*
X037651Y012303D01*
X037472Y012303D01*
X037306Y012372D01*
X037180Y012498D01*
X037161Y012544D01*
X037150Y012523D01*
X037109Y012466D01*
X037060Y012418D01*
X037004Y012377D01*
X036943Y012345D01*
X036877Y012324D01*
X036808Y012313D01*
X036793Y012313D01*
X036793Y012734D01*
X036755Y012734D01*
X036755Y012313D01*
X036739Y012313D01*
X036671Y012324D01*
X036605Y012345D01*
X036543Y012377D01*
X036487Y012418D01*
X036438Y012466D01*
X036398Y012523D01*
X036366Y012584D01*
X036345Y012650D01*
X036334Y012719D01*
X036334Y012734D01*
X036755Y012734D01*
X036755Y012772D01*
X036755Y013193D01*
X036739Y013193D01*
X036671Y013182D01*
X036605Y013161D01*
X036543Y013129D01*
X036487Y013089D01*
X036438Y013040D01*
X036398Y012984D01*
X036366Y012922D01*
X036345Y012856D01*
X036334Y012788D01*
X036334Y012772D01*
X036755Y012772D01*
X036793Y012772D01*
X036793Y013193D01*
X036808Y013193D01*
X036877Y013182D01*
X036943Y013161D01*
X037004Y013129D01*
X037060Y013089D01*
X037109Y013040D01*
X037150Y012984D01*
X037161Y012963D01*
X037180Y013008D01*
X037306Y013135D01*
X037472Y013203D01*
X037614Y013203D01*
X037564Y013253D01*
X037118Y013253D01*
X037026Y013291D01*
X036956Y013362D01*
X035064Y015253D01*
X034562Y015253D01*
X034628Y015095D01*
X034628Y014912D01*
X034557Y014743D01*
X034428Y014613D01*
X034259Y014543D01*
X034076Y014543D01*
X033907Y014613D01*
X033778Y014743D01*
X033708Y014912D01*
X033708Y015095D01*
X033773Y015253D01*
X033618Y015253D01*
X033526Y015291D01*
X033456Y015362D01*
X033270Y015548D01*
X033259Y015543D01*
X033076Y015543D01*
X032907Y015613D01*
X032778Y015743D01*
X032708Y015912D01*
X032708Y016095D01*
X032778Y016264D01*
X032802Y016288D01*
X032717Y016253D01*
X032618Y016253D01*
X028562Y016253D01*
X028628Y016095D01*
X028628Y015912D01*
X028557Y015743D01*
X028428Y015613D01*
X028259Y015543D01*
X028076Y015543D01*
X027907Y015613D01*
X027778Y015743D01*
X027765Y015773D01*
X027763Y015773D01*
X027398Y015408D01*
X027368Y015378D01*
X027513Y015233D01*
X027765Y015233D01*
X027778Y015264D01*
X027907Y015393D01*
X028076Y015463D01*
X028259Y015463D01*
X028428Y015393D01*
X028557Y015264D01*
X028628Y015095D01*
X028628Y014912D01*
X028557Y014743D01*
X028548Y014733D01*
X029377Y014733D01*
X029459Y014815D01*
X029594Y014871D01*
X029741Y014871D01*
X029876Y014815D01*
X029980Y014712D01*
X030036Y014576D01*
X030036Y014430D01*
X029980Y014295D01*
X029918Y014233D01*
X031763Y014233D01*
X031898Y014098D01*
X032263Y013733D01*
X032787Y013733D01*
X032778Y013743D01*
X032708Y013912D01*
X032708Y014095D01*
X032778Y014264D01*
X032907Y014393D01*
X033076Y014463D01*
X033259Y014463D01*
X033428Y014393D01*
X033557Y014264D01*
X033628Y014095D01*
X033628Y013912D01*
X033557Y013743D01*
X033548Y013733D01*
X033572Y013733D01*
X033720Y013881D01*
X033708Y013912D01*
X033708Y014095D01*
X033778Y014264D01*
X033907Y014393D01*
X034076Y014463D01*
X034259Y014463D01*
X034428Y014393D01*
X034557Y014264D01*
X034628Y014095D01*
X034628Y013912D01*
X034557Y013743D01*
X034428Y013613D01*
X034259Y013543D01*
X034076Y013543D01*
X034045Y013556D01*
X033898Y013408D01*
X033898Y013408D01*
X033763Y013273D01*
X033548Y013273D01*
X033557Y013264D01*
X033628Y013095D01*
X033628Y012912D01*
X033557Y012743D01*
X033548Y012733D01*
X033572Y012733D01*
X033720Y012881D01*
X033708Y012912D01*
X033708Y013095D01*
X033627Y013095D01*
X033708Y013095D02*
X033778Y013264D01*
X033907Y013393D01*
X034076Y013463D01*
X034259Y013463D01*
X034428Y013393D01*
X034557Y013264D01*
X034628Y013095D01*
X034628Y012912D01*
X034557Y012743D01*
X034428Y012613D01*
X034259Y012543D01*
X034076Y012543D01*
X034045Y012556D01*
X033898Y012408D01*
X033763Y012273D01*
X033548Y012273D01*
X033557Y012264D01*
X033628Y012095D01*
X033628Y011912D01*
X033557Y011743D01*
X033548Y011733D01*
X033572Y011733D01*
X033720Y011881D01*
X033708Y011912D01*
X033708Y012095D01*
X033778Y012264D01*
X033907Y012393D01*
X034076Y012463D01*
X034259Y012463D01*
X034428Y012393D01*
X034557Y012264D01*
X034628Y012095D01*
X034628Y011912D01*
X034557Y011743D01*
X034428Y011613D01*
X034259Y011543D01*
X034076Y011543D01*
X034045Y011556D01*
X033763Y011273D01*
X033572Y011273D01*
X032572Y011273D01*
X032438Y011408D01*
X031572Y012273D01*
X028548Y012273D01*
X028557Y012264D01*
X028628Y012095D01*
X028628Y011912D01*
X028557Y011743D01*
X028548Y011733D01*
X031572Y011733D01*
X031763Y011733D01*
X032263Y011233D01*
X033765Y011233D01*
X033778Y011264D01*
X033907Y011393D01*
X034076Y011463D01*
X034259Y011463D01*
X034428Y011393D01*
X034557Y011264D01*
X034628Y011095D01*
X034628Y010912D01*
X034557Y010743D01*
X034428Y010613D01*
X034259Y010543D01*
X034076Y010543D01*
X033907Y010613D01*
X033778Y010743D01*
X033765Y010773D01*
X032072Y010773D01*
X031938Y010908D01*
X031572Y011273D01*
X028548Y011273D01*
X028557Y011264D01*
X028628Y011095D01*
X028628Y010912D01*
X028557Y010743D01*
X028548Y010733D01*
X031763Y010733D01*
X031898Y010598D01*
X032263Y010233D01*
X033765Y010233D01*
X033778Y010264D01*
X033907Y010393D01*
X034076Y010463D01*
X034259Y010463D01*
X034428Y010393D01*
X034557Y010264D01*
X034628Y010095D01*
X034628Y009912D01*
X034557Y009743D01*
X034428Y009613D01*
X034259Y009543D01*
X034076Y009543D01*
X033907Y009613D01*
X033778Y009743D01*
X033765Y009773D01*
X032263Y009773D01*
X032072Y009773D01*
X031572Y010273D01*
X028548Y010273D01*
X028557Y010264D01*
X028628Y010095D01*
X028628Y009912D01*
X028557Y009743D01*
X028548Y009733D01*
X031763Y009733D01*
X031898Y009598D01*
X032263Y009233D01*
X033765Y009233D01*
X033778Y009264D01*
X033907Y009393D01*
X034076Y009463D01*
X034259Y009463D01*
X034428Y009393D01*
X034557Y009264D01*
X034628Y009095D01*
X034628Y008912D01*
X034557Y008743D01*
X034428Y008613D01*
X034259Y008543D01*
X034076Y008543D01*
X033907Y008613D01*
X033778Y008743D01*
X033765Y008773D01*
X032263Y008773D01*
X032072Y008773D01*
X031572Y009273D01*
X028548Y009273D01*
X028557Y009264D01*
X028628Y009095D01*
X028628Y008912D01*
X028557Y008743D01*
X028548Y008733D01*
X031763Y008733D01*
X031898Y008598D01*
X032263Y008233D01*
X033765Y008233D01*
X033778Y008264D01*
X033907Y008393D01*
X034076Y008463D01*
X034259Y008463D01*
X034428Y008393D01*
X034557Y008264D01*
X034628Y008095D01*
X034628Y007912D01*
X034557Y007743D01*
X034428Y007613D01*
X034259Y007543D01*
X034076Y007543D01*
X033907Y007613D01*
X033778Y007743D01*
X033765Y007773D01*
X032263Y007773D01*
X032072Y007773D01*
X031572Y008273D01*
X028548Y008273D01*
X028557Y008264D01*
X028628Y008095D01*
X028628Y007912D01*
X028557Y007743D01*
X028548Y007733D01*
X031763Y007733D01*
X031898Y007598D01*
X032263Y007233D01*
X033765Y007233D01*
X033778Y007264D01*
X033907Y007393D01*
X034076Y007463D01*
X034259Y007463D01*
X034428Y007393D01*
X034557Y007264D01*
X034628Y007095D01*
X034628Y006912D01*
X034557Y006743D01*
X034428Y006613D01*
X034259Y006543D01*
X034076Y006543D01*
X033907Y006613D01*
X033778Y006743D01*
X033765Y006773D01*
X032263Y006773D01*
X032072Y006773D01*
X031572Y007273D01*
X028548Y007273D01*
X028557Y007264D01*
X028628Y007095D01*
X028628Y006912D01*
X028557Y006743D01*
X028548Y006733D01*
X031572Y006733D01*
X031763Y006733D01*
X032263Y006233D01*
X033765Y006233D01*
X033778Y006264D01*
X033907Y006393D01*
X034076Y006463D01*
X034259Y006463D01*
X034428Y006393D01*
X034557Y006264D01*
X034628Y006095D01*
X034628Y005912D01*
X034557Y005743D01*
X034428Y005613D01*
X034259Y005543D01*
X034076Y005543D01*
X033907Y005613D01*
X033778Y005743D01*
X033765Y005773D01*
X032072Y005773D01*
X031938Y005908D01*
X031572Y006273D01*
X028548Y006273D01*
X028557Y006264D01*
X028628Y006095D01*
X028628Y005912D01*
X028557Y005743D01*
X028548Y005733D01*
X031572Y005733D01*
X031763Y005733D01*
X032263Y005233D01*
X033765Y005233D01*
X033778Y005264D01*
X033907Y005393D01*
X034076Y005463D01*
X034259Y005463D01*
X034428Y005393D01*
X034557Y005264D01*
X034628Y005095D01*
X034628Y004912D01*
X034557Y004743D01*
X034428Y004613D01*
X034259Y004543D01*
X034076Y004543D01*
X033907Y004613D01*
X033778Y004743D01*
X033765Y004773D01*
X032072Y004773D01*
X031938Y004908D01*
X031572Y005273D01*
X029918Y005273D01*
X029980Y005212D01*
X030036Y005076D01*
X030036Y004930D01*
X029980Y004795D01*
X029876Y004691D01*
X029741Y004635D01*
X029594Y004635D01*
X029459Y004691D01*
X029377Y004773D01*
X029263Y004773D01*
X028615Y004125D01*
X028628Y004095D01*
X028628Y003912D01*
X028557Y003743D01*
X028428Y003613D01*
X028259Y003543D01*
X028076Y003543D01*
X027907Y003613D01*
X027778Y003743D01*
X027708Y003912D01*
X027708Y004095D01*
X027778Y004264D01*
X027907Y004393D01*
X028076Y004463D01*
X028259Y004463D01*
X028290Y004450D01*
X029072Y005233D01*
X029263Y005233D01*
X029377Y005233D01*
X029417Y005273D01*
X028548Y005273D01*
X028557Y005264D01*
X028628Y005095D01*
X028628Y004912D01*
X028557Y004743D01*
X028428Y004613D01*
X028259Y004543D01*
X028076Y004543D01*
X027907Y004613D01*
X027778Y004743D01*
X027708Y004912D01*
X027708Y005095D01*
X027778Y005264D01*
X027787Y005273D01*
X022958Y005273D01*
X022876Y005191D01*
X022741Y005135D01*
X022594Y005135D01*
X022459Y005191D01*
X022355Y005295D01*
X022299Y005430D01*
X022299Y005576D01*
X022355Y005712D01*
X022459Y005815D01*
X022594Y005871D01*
X022741Y005871D01*
X022876Y005815D01*
X022958Y005733D01*
X027787Y005733D01*
X027778Y005743D01*
X027708Y005912D01*
X027708Y006095D01*
X027778Y006264D01*
X027787Y006273D01*
X016958Y006273D01*
X016876Y006191D01*
X016741Y006135D01*
X016594Y006135D01*
X016459Y006191D01*
X016355Y006295D01*
X016299Y006430D01*
X016299Y006576D01*
X016355Y006712D01*
X016459Y006815D01*
X016594Y006871D01*
X016741Y006871D01*
X016876Y006815D01*
X016958Y006733D01*
X027787Y006733D01*
X027778Y006743D01*
X027708Y006912D01*
X027708Y007095D01*
X027778Y007264D01*
X027787Y007273D01*
X016458Y007273D01*
X016376Y007191D01*
X016241Y007135D01*
X016094Y007135D01*
X015959Y007191D01*
X015855Y007295D01*
X015799Y007430D01*
X015799Y007576D01*
X015855Y007712D01*
X015959Y007815D01*
X016094Y007871D01*
X016241Y007871D01*
X016376Y007815D01*
X016458Y007733D01*
X020417Y007733D01*
X020355Y007795D01*
X020299Y007930D01*
X020299Y008076D01*
X020355Y008212D01*
X020417Y008273D01*
X017458Y008273D01*
X017376Y008191D01*
X017241Y008135D01*
X017094Y008135D01*
X016959Y008191D01*
X016855Y008295D01*
X016799Y008430D01*
X016799Y008576D01*
X016855Y008712D01*
X016959Y008815D01*
X017094Y008871D01*
X017241Y008871D01*
X017376Y008815D01*
X017458Y008733D01*
X018417Y008733D01*
X018355Y008795D01*
X018299Y008930D01*
X018299Y009076D01*
X018355Y009212D01*
X018417Y009273D01*
X017763Y009273D01*
X017572Y009273D01*
X016572Y010273D01*
X016438Y010408D01*
X016438Y013807D01*
X016384Y013829D01*
X016244Y013970D01*
X016168Y014154D01*
X016168Y014353D01*
X016244Y014536D01*
X016384Y014677D01*
X016568Y014753D01*
X016767Y014753D01*
X016951Y014677D01*
X017091Y014536D01*
X017168Y014353D01*
X017168Y014154D01*
X017244Y013970D01*
X017384Y013829D01*
X017568Y013753D01*
X017767Y013753D01*
X017951Y013829D01*
X018091Y013970D01*
X018168Y014154D01*
X018244Y013970D01*
X018384Y013829D01*
X018568Y013753D01*
X018767Y013753D01*
X018951Y013829D01*
X019091Y013970D01*
X019168Y014154D01*
X019244Y013970D01*
X019384Y013829D01*
X019438Y013807D01*
X019438Y013658D01*
X019724Y013371D01*
X019594Y013371D01*
X019459Y013315D01*
X019355Y013212D01*
X019299Y013076D01*
X019299Y012930D01*
X019329Y012858D01*
X017272Y012858D01*
X019329Y012858D01*
X019299Y012977D02*
X016898Y012977D01*
X016898Y013095D02*
X019307Y013095D01*
X019358Y013214D02*
X016898Y013214D01*
X016898Y013332D02*
X019501Y013332D01*
X019644Y013451D02*
X016898Y013451D01*
X016898Y013569D02*
X019526Y013569D01*
X019438Y013688D02*
X016898Y013688D01*
X016898Y013807D02*
X017439Y013807D01*
X017288Y013925D02*
X017047Y013925D01*
X017091Y013970D02*
X016951Y013829D01*
X016898Y013807D01*
X016898Y012754D01*
X016959Y012815D01*
X017094Y012871D01*
X017241Y012871D01*
X017272Y012858D01*
X017063Y012858D02*
X016898Y012858D01*
X017168Y012503D02*
X017293Y012628D01*
X026543Y012628D01*
X027418Y013503D01*
X031668Y013503D01*
X032168Y013003D01*
X033168Y013003D01*
X033628Y012977D02*
X033708Y012977D01*
X033697Y012858D02*
X033605Y012858D01*
X033579Y012740D02*
X033555Y012740D01*
X033668Y012503D02*
X032168Y012503D01*
X031668Y013003D01*
X029168Y013003D01*
X028168Y013003D02*
X027293Y013003D01*
X026668Y012378D01*
X022418Y012378D01*
X021668Y011628D01*
X022168Y011503D02*
X023168Y011503D01*
X023418Y011253D01*
X026793Y011253D01*
X027043Y011503D01*
X031668Y011503D01*
X032168Y011003D01*
X034168Y011003D01*
X034599Y010843D02*
X038043Y010843D01*
X038043Y010962D02*
X034628Y010962D01*
X034628Y011080D02*
X038043Y011080D01*
X038043Y011199D02*
X034584Y011199D01*
X034504Y011317D02*
X038043Y011317D01*
X038043Y011436D02*
X034325Y011436D01*
X034286Y011554D02*
X038043Y011554D01*
X038043Y011673D02*
X034488Y011673D01*
X034578Y011791D02*
X038043Y011791D01*
X038043Y011910D02*
X034627Y011910D01*
X034628Y012028D02*
X038043Y012028D01*
X038043Y012147D02*
X034606Y012147D01*
X034556Y012266D02*
X038043Y012266D01*
X038043Y012384D02*
X037829Y012384D01*
X037944Y012503D02*
X038043Y012503D01*
X038043Y012621D02*
X037994Y012621D01*
X038011Y012740D02*
X038043Y012740D01*
X037294Y012384D02*
X037014Y012384D01*
X037136Y012503D02*
X037178Y012503D01*
X036793Y012503D02*
X036755Y012503D01*
X036755Y012621D02*
X036793Y012621D01*
X036755Y012740D02*
X035848Y012740D01*
X035848Y012858D02*
X036345Y012858D01*
X036394Y012977D02*
X035802Y012977D01*
X035848Y012931D02*
X035596Y013183D01*
X035239Y013183D01*
X034988Y012931D01*
X034988Y012575D01*
X035239Y012323D01*
X035596Y012323D01*
X035848Y012575D01*
X035848Y012931D01*
X035683Y013095D02*
X036496Y013095D01*
X036755Y013095D02*
X036793Y013095D01*
X036793Y012977D02*
X036755Y012977D01*
X036755Y012858D02*
X036793Y012858D01*
X037051Y013095D02*
X037267Y013095D01*
X037167Y012977D02*
X037154Y012977D01*
X036985Y013332D02*
X034489Y013332D01*
X034578Y013214D02*
X037603Y013214D01*
X037879Y013645D02*
X038283Y013242D01*
X038283Y013326D01*
X038283Y013374D01*
X038283Y013430D01*
X038283Y013529D01*
X038283Y013529D01*
X038398Y013809D01*
X038398Y013809D01*
X038612Y014022D01*
X038612Y014022D01*
X038891Y014138D01*
X038891Y014138D01*
X038991Y014138D01*
X039116Y014138D01*
X039122Y014138D01*
X039168Y014138D01*
X039214Y014143D01*
X039301Y014179D01*
X039367Y014245D01*
X039403Y014331D01*
X039408Y014378D01*
X039408Y015314D01*
X039289Y015068D01*
X039289Y015068D01*
X038953Y014705D01*
X038952Y014705D01*
X038524Y014458D01*
X038524Y014458D01*
X038042Y014348D01*
X038042Y014348D01*
X037548Y014385D01*
X037548Y014385D01*
X037088Y014566D01*
X037088Y014566D01*
X036701Y014874D01*
X036701Y014874D01*
X036701Y014874D01*
X036422Y015283D01*
X036422Y015283D01*
X036276Y015756D01*
X036276Y015756D01*
X036276Y016251D01*
X036276Y016251D01*
X036422Y016723D01*
X036422Y016723D01*
X036701Y017132D01*
X036701Y017132D01*
X036701Y017132D01*
X037088Y017441D01*
X037088Y017441D01*
X037221Y017493D01*
X003120Y017493D01*
X003452Y017301D01*
X003453Y017301D01*
X003789Y016938D01*
X003789Y016938D01*
X004004Y016492D01*
X004004Y016492D01*
X004078Y016003D01*
X004004Y015514D01*
X004004Y015514D01*
X003789Y015068D01*
X003789Y015068D01*
X003604Y014868D01*
X004187Y014868D01*
X004287Y014769D01*
X004287Y014068D01*
X004187Y013969D01*
X004136Y013969D01*
X004218Y013886D01*
X004229Y013861D01*
X005200Y013861D01*
X007072Y015733D01*
X007263Y015733D01*
X027072Y015733D01*
X027572Y016233D01*
X027763Y016233D01*
X027765Y016233D01*
X027773Y016253D01*
X027271Y016253D01*
X026809Y015791D01*
X026717Y015753D01*
X026618Y015753D01*
X021118Y015753D01*
X021026Y015791D01*
X020956Y015862D01*
X020743Y016074D01*
X020705Y016166D01*
X020705Y016265D01*
X020705Y016370D01*
X020700Y016372D01*
X020573Y016498D01*
X020561Y016528D01*
X020549Y016498D01*
X020422Y016372D01*
X020257Y016303D01*
X020078Y016303D01*
X019913Y016372D01*
X019794Y016491D01*
X019674Y016372D01*
X019509Y016303D01*
X019330Y016303D01*
X019165Y016372D01*
X019038Y016498D01*
X018970Y016664D01*
X018970Y016843D01*
X019038Y017008D01*
X019165Y017135D01*
X019330Y017203D01*
X019509Y017203D01*
X019674Y017135D01*
X019794Y017015D01*
X019913Y017135D01*
X020078Y017203D01*
X020257Y017203D01*
X020422Y017135D01*
X020549Y017008D01*
X020561Y016978D01*
X020573Y017008D01*
X020700Y017135D01*
X020865Y017203D01*
X021044Y017203D01*
X021210Y017135D01*
X021336Y017008D01*
X021404Y016845D01*
X021409Y016882D01*
X021431Y016966D01*
X021464Y017046D01*
X021507Y017121D01*
X021560Y017189D01*
X021621Y017250D01*
X021690Y017303D01*
X021765Y017346D01*
X021845Y017379D01*
X021928Y017402D01*
X021997Y017411D01*
X021997Y016813D01*
X022117Y016813D01*
X022117Y017411D01*
X022186Y017402D01*
X022270Y017379D01*
X022350Y017346D01*
X022425Y017303D01*
X022493Y017250D01*
X022555Y017189D01*
X022607Y017121D01*
X022651Y017046D01*
X022684Y016966D01*
X022706Y016882D01*
X022715Y016813D01*
X022117Y016813D01*
X022117Y016693D01*
X022715Y016693D01*
X022706Y016624D01*
X022684Y016541D01*
X022651Y016461D01*
X022607Y016386D01*
X022555Y016317D01*
X022493Y016256D01*
X022490Y016253D01*
X026564Y016253D01*
X026956Y016645D01*
X027026Y016715D01*
X027118Y016753D01*
X027793Y016753D01*
X027783Y016767D01*
X027751Y016830D01*
X027729Y016898D01*
X027718Y016968D01*
X027718Y016968D01*
X028132Y016968D01*
X028132Y017038D01*
X027718Y017038D01*
X027718Y017039D01*
X027729Y017109D01*
X027751Y017176D01*
X027783Y017239D01*
X027824Y017296D01*
X027874Y017346D01*
X027932Y017388D01*
X027995Y017420D01*
X028062Y017442D01*
X028132Y017453D01*
X028132Y017453D01*
X028132Y017038D01*
X028203Y017038D01*
X028618Y017038D01*
X028618Y017039D01*
X028606Y017109D01*
X028585Y017176D01*
X028552Y017239D01*
X028511Y017296D01*
X028461Y017346D01*
X028403Y017388D01*
X028340Y017420D01*
X028273Y017442D01*
X028203Y017453D01*
X028203Y017453D01*
X028203Y017038D01*
X028203Y016968D01*
X028618Y016968D01*
X028618Y016968D01*
X028606Y016898D01*
X028585Y016830D01*
X028552Y016767D01*
X028542Y016753D01*
X032564Y016753D01*
X032956Y017145D01*
X033026Y017215D01*
X033118Y017253D01*
X033773Y017253D01*
X033778Y017264D01*
X033907Y017393D01*
X034076Y017463D01*
X034259Y017463D01*
X034428Y017393D01*
X034557Y017264D01*
X034628Y017095D01*
X034628Y016912D01*
X034557Y016743D01*
X034428Y016613D01*
X034259Y016543D01*
X034076Y016543D01*
X033907Y016613D01*
X033778Y016743D01*
X033773Y016753D01*
X033271Y016753D01*
X032914Y016396D01*
X033076Y016463D01*
X033259Y016463D01*
X033428Y016393D01*
X033557Y016264D01*
X033628Y016095D01*
X033628Y015912D01*
X033623Y015901D01*
X033771Y015753D01*
X033793Y015753D01*
X033783Y015767D01*
X033751Y015830D01*
X033729Y015898D01*
X033718Y015968D01*
X033718Y015968D01*
X034132Y015968D01*
X034132Y016038D01*
X033718Y016038D01*
X033718Y016039D01*
X033729Y016109D01*
X033751Y016176D01*
X033783Y016239D01*
X033824Y016296D01*
X033525Y016296D01*
X033593Y016177D02*
X033751Y016177D01*
X033721Y016059D02*
X033628Y016059D01*
X033628Y015940D02*
X033722Y015940D01*
X033702Y015822D02*
X033755Y015822D01*
X034132Y016038D02*
X034132Y016453D01*
X034062Y016442D01*
X033995Y016420D01*
X033932Y016388D01*
X033874Y016346D01*
X033824Y016296D01*
X033984Y016415D02*
X033376Y016415D01*
X033170Y016652D02*
X033869Y016652D01*
X034132Y016453D02*
X034132Y016453D01*
X034132Y016415D02*
X034203Y016415D01*
X034203Y016453D02*
X034203Y016453D01*
X034273Y016442D01*
X034340Y016420D01*
X034403Y016388D01*
X034461Y016346D01*
X034511Y016296D01*
X036290Y016296D01*
X036276Y016177D02*
X034584Y016177D01*
X034585Y016176D02*
X034552Y016239D01*
X034511Y016296D01*
X034585Y016176D02*
X034606Y016109D01*
X034618Y016039D01*
X034618Y016038D01*
X034203Y016038D01*
X034203Y015968D01*
X034618Y015968D01*
X034618Y015968D01*
X034606Y015898D01*
X034585Y015830D01*
X034552Y015767D01*
X034542Y015753D01*
X035118Y015753D01*
X035217Y015753D01*
X035309Y015715D01*
X037271Y013753D01*
X037717Y013753D01*
X037809Y013715D01*
X037879Y013645D01*
X037879Y013645D01*
X037836Y013688D02*
X038348Y013688D01*
X038299Y013569D02*
X037955Y013569D01*
X038073Y013451D02*
X038283Y013451D01*
X038283Y013332D02*
X038192Y013332D01*
X038397Y013807D02*
X037218Y013807D01*
X037099Y013925D02*
X038515Y013925D01*
X038663Y014044D02*
X036981Y014044D01*
X036862Y014162D02*
X039261Y014162D01*
X039382Y014281D02*
X036743Y014281D01*
X036625Y014399D02*
X037511Y014399D01*
X037209Y014518D02*
X036506Y014518D01*
X036388Y014636D02*
X036999Y014636D01*
X036850Y014755D02*
X036269Y014755D01*
X036151Y014873D02*
X036701Y014873D01*
X036620Y014992D02*
X036032Y014992D01*
X035914Y015111D02*
X036539Y015111D01*
X036459Y015229D02*
X035795Y015229D01*
X035677Y015348D02*
X036402Y015348D01*
X036365Y015466D02*
X035558Y015466D01*
X035439Y015585D02*
X036329Y015585D01*
X036292Y015703D02*
X035321Y015703D01*
X035088Y015229D02*
X034572Y015229D01*
X034621Y015111D02*
X035207Y015111D01*
X035325Y014992D02*
X034628Y014992D01*
X034612Y014873D02*
X035444Y014873D01*
X035562Y014755D02*
X034563Y014755D01*
X034451Y014636D02*
X035681Y014636D01*
X035799Y014518D02*
X030036Y014518D01*
X030023Y014399D02*
X032922Y014399D01*
X032795Y014281D02*
X029966Y014281D01*
X029668Y014503D02*
X027668Y014503D01*
X026418Y013253D01*
X020168Y013253D01*
X019668Y013753D01*
X019668Y014253D01*
X020122Y014044D02*
X020213Y014044D01*
X020244Y013970D02*
X020384Y013829D01*
X020568Y013753D01*
X020767Y013753D01*
X020951Y013829D01*
X021091Y013970D01*
X021168Y014154D01*
X021244Y013970D01*
X021384Y013829D01*
X021568Y013753D01*
X021767Y013753D01*
X021951Y013829D01*
X022091Y013970D01*
X022168Y014154D01*
X022244Y013970D01*
X022384Y013829D01*
X022568Y013753D01*
X022767Y013753D01*
X022951Y013829D01*
X023091Y013970D01*
X023168Y014154D01*
X023168Y014353D01*
X023091Y014536D01*
X022951Y014677D01*
X022767Y014753D01*
X022568Y014753D01*
X022384Y014677D01*
X022244Y014536D01*
X022168Y014353D01*
X022168Y014154D01*
X022168Y014353D01*
X022091Y014536D01*
X021951Y014677D01*
X021767Y014753D01*
X021568Y014753D01*
X021384Y014677D01*
X021244Y014536D01*
X021168Y014353D01*
X021168Y014154D01*
X021168Y014353D01*
X021091Y014536D01*
X020951Y014677D01*
X020767Y014753D01*
X020568Y014753D01*
X020384Y014677D01*
X020244Y014536D01*
X020168Y014353D01*
X020168Y014154D01*
X020244Y013970D01*
X020288Y013925D02*
X020047Y013925D01*
X020091Y013970D02*
X019951Y013829D01*
X019927Y013819D01*
X020263Y013483D01*
X025718Y013483D01*
X025439Y013599D01*
X025222Y013816D01*
X025104Y014100D01*
X025104Y014407D01*
X025222Y014690D01*
X025439Y014907D01*
X025718Y015023D01*
X014617Y015023D01*
X014896Y014907D01*
X015113Y014690D01*
X015231Y014407D01*
X015231Y014100D01*
X015113Y013816D01*
X014896Y013599D01*
X014612Y013481D01*
X014305Y013481D01*
X014022Y013599D01*
X013805Y013816D01*
X013687Y014100D01*
X013687Y014407D01*
X013805Y014690D01*
X014022Y014907D01*
X014301Y015023D01*
X007513Y015023D01*
X005103Y012614D01*
X004913Y012614D01*
X004229Y012614D01*
X004218Y012589D01*
X004092Y012462D01*
X004062Y012450D01*
X004092Y012438D01*
X004218Y012311D01*
X004287Y012146D01*
X004287Y011967D01*
X004218Y011801D01*
X004092Y011675D01*
X004062Y011663D01*
X004092Y011650D01*
X004218Y011524D01*
X004287Y011358D01*
X004287Y011179D01*
X004218Y011014D01*
X004092Y010887D01*
X004062Y010875D01*
X004092Y010863D01*
X004218Y010736D01*
X004287Y010571D01*
X004287Y010392D01*
X004218Y010227D01*
X004092Y010100D01*
X004062Y010088D01*
X004092Y010076D01*
X004218Y009949D01*
X004287Y009784D01*
X004287Y009605D01*
X004218Y009439D01*
X004092Y009313D01*
X004062Y009300D01*
X004092Y009288D01*
X004218Y009162D01*
X004287Y008996D01*
X004287Y008817D01*
X004218Y008652D01*
X004092Y008525D01*
X004062Y008513D01*
X004092Y008501D01*
X004218Y008374D01*
X004287Y008209D01*
X004287Y008030D01*
X004218Y007864D01*
X004092Y007738D01*
X004046Y007719D01*
X004067Y007708D01*
X004123Y007667D01*
X004172Y007619D01*
X004213Y007562D01*
X004245Y007501D01*
X004266Y007435D01*
X004277Y007366D01*
X004277Y007341D01*
X003846Y007341D01*
X003846Y007323D01*
X004277Y007323D01*
X004277Y007297D01*
X004266Y007229D01*
X004245Y007163D01*
X004213Y007101D01*
X004172Y007045D01*
X004123Y006996D01*
X004067Y006956D01*
X004006Y006924D01*
X003940Y006903D01*
X003871Y006892D01*
X003846Y006892D01*
X003846Y007323D01*
X003828Y007323D01*
X003828Y006892D01*
X003802Y006892D01*
X003734Y006903D01*
X003668Y006924D01*
X003606Y006956D01*
X003550Y006996D01*
X003501Y007045D01*
X003461Y007101D01*
X003429Y007163D01*
X003408Y007229D01*
X003397Y007297D01*
X003397Y007323D01*
X003828Y007323D01*
X003828Y007341D01*
X003397Y007341D01*
X003397Y007366D01*
X003408Y007435D01*
X003429Y007501D01*
X003461Y007562D01*
X003501Y007619D01*
X003550Y007667D01*
X003606Y007708D01*
X003627Y007719D01*
X003582Y007738D01*
X003455Y007864D01*
X003387Y008030D01*
X003387Y008209D01*
X003455Y008374D01*
X003582Y008501D01*
X003611Y008513D01*
X003582Y008525D01*
X003455Y008652D01*
X003387Y008817D01*
X003387Y008996D01*
X003455Y009162D01*
X003582Y009288D01*
X003611Y009300D01*
X003582Y009313D01*
X003455Y009439D01*
X003387Y009605D01*
X003387Y009784D01*
X003455Y009949D01*
X003582Y010076D01*
X003611Y010088D01*
X003582Y010100D01*
X003455Y010227D01*
X003387Y010392D01*
X003387Y010571D01*
X003455Y010736D01*
X003582Y010863D01*
X003611Y010875D01*
X003582Y010887D01*
X003455Y011014D01*
X003387Y011179D01*
X003387Y011358D01*
X003455Y011524D01*
X003582Y011650D01*
X003611Y011663D01*
X003582Y011675D01*
X003455Y011801D01*
X003387Y011967D01*
X003387Y012146D01*
X003455Y012311D01*
X003582Y012438D01*
X003611Y012450D01*
X003582Y012462D01*
X003455Y012589D01*
X003387Y012754D01*
X003387Y012933D01*
X003455Y013099D01*
X003582Y013225D01*
X003611Y013237D01*
X003582Y013250D01*
X003455Y013376D01*
X003387Y013542D01*
X003387Y013721D01*
X003455Y013886D01*
X003538Y013969D01*
X003486Y013969D01*
X003387Y014068D01*
X003387Y014667D01*
X003024Y014458D01*
X002542Y014348D01*
X002048Y014385D01*
X001588Y014566D01*
X001201Y014874D01*
X001201Y014874D01*
X000928Y015275D01*
X000928Y002732D01*
X001201Y003132D01*
X001201Y003132D01*
X001588Y003441D01*
X001588Y003441D01*
X002048Y003621D01*
X002048Y003621D01*
X002542Y003658D01*
X002542Y003658D01*
X003024Y003548D01*
X003024Y003548D01*
X003452Y003301D01*
X003453Y003301D01*
X003789Y002938D01*
X003789Y002938D01*
X004004Y002492D01*
X004004Y002492D01*
X004078Y002003D01*
X004004Y001514D01*
X004004Y001514D01*
X003789Y001068D01*
X003789Y001068D01*
X003453Y000705D01*
X003452Y000705D01*
X003510Y000767D02*
X036835Y000767D01*
X036693Y000885D02*
X003620Y000885D01*
X003730Y001004D02*
X036612Y001004D01*
X036531Y001122D02*
X003815Y001122D01*
X003872Y001241D02*
X036450Y001241D01*
X036398Y001360D02*
X035382Y001360D01*
X035346Y001323D02*
X035598Y001575D01*
X035598Y001858D01*
X035648Y001908D01*
X035648Y002098D01*
X035648Y003375D01*
X035848Y003575D01*
X035848Y003931D01*
X035596Y004183D01*
X035239Y004183D01*
X034988Y003931D01*
X034988Y003575D01*
X035188Y003375D01*
X035188Y002183D01*
X034989Y002183D01*
X034738Y001931D01*
X034738Y001575D01*
X034989Y001323D01*
X035346Y001323D01*
X035501Y001478D02*
X036362Y001478D01*
X036325Y001597D02*
X035598Y001597D01*
X035598Y001715D02*
X036289Y001715D01*
X036276Y001834D02*
X035598Y001834D01*
X035648Y001952D02*
X036276Y001952D01*
X036276Y002071D02*
X035648Y002071D01*
X035648Y002189D02*
X036276Y002189D01*
X036294Y002308D02*
X035648Y002308D01*
X035648Y002426D02*
X036330Y002426D01*
X036367Y002545D02*
X035648Y002545D01*
X035648Y002664D02*
X036404Y002664D01*
X036462Y002782D02*
X035648Y002782D01*
X035648Y002901D02*
X036543Y002901D01*
X036624Y003019D02*
X035648Y003019D01*
X035648Y003138D02*
X036708Y003138D01*
X036856Y003256D02*
X035648Y003256D01*
X035648Y003375D02*
X036202Y003375D01*
X036244Y003333D02*
X035998Y003579D01*
X035998Y003733D01*
X036397Y003733D01*
X036397Y003773D01*
X035998Y003773D01*
X035998Y003927D01*
X036244Y004173D01*
X036397Y004173D01*
X036397Y003773D01*
X036438Y003773D01*
X036838Y003773D01*
X036838Y003927D01*
X036591Y004173D01*
X036438Y004173D01*
X036438Y003773D01*
X036438Y003733D01*
X036838Y003733D01*
X036838Y003579D01*
X036591Y003333D01*
X036438Y003333D01*
X036438Y003733D01*
X036397Y003733D01*
X036397Y003333D01*
X036244Y003333D01*
X036397Y003375D02*
X036438Y003375D01*
X036438Y003493D02*
X036397Y003493D01*
X036397Y003612D02*
X036438Y003612D01*
X036438Y003730D02*
X036397Y003730D01*
X036397Y003849D02*
X036438Y003849D01*
X036438Y003967D02*
X036397Y003967D01*
X036397Y004086D02*
X036438Y004086D01*
X036679Y004086D02*
X039408Y004086D01*
X039408Y003967D02*
X036797Y003967D01*
X036838Y003849D02*
X039408Y003849D01*
X039408Y003730D02*
X036838Y003730D01*
X036838Y003612D02*
X037524Y003612D01*
X037222Y003493D02*
X036752Y003493D01*
X036633Y003375D02*
X037005Y003375D01*
X036083Y003493D02*
X035766Y003493D01*
X035848Y003612D02*
X035998Y003612D01*
X035998Y003730D02*
X035848Y003730D01*
X035848Y003849D02*
X035998Y003849D01*
X036038Y003967D02*
X035811Y003967D01*
X035693Y004086D02*
X036156Y004086D01*
X035418Y003753D02*
X035418Y002003D01*
X035168Y001753D01*
X034738Y001715D02*
X034598Y001715D01*
X034598Y001597D02*
X034738Y001597D01*
X034598Y001575D02*
X034598Y001931D01*
X034346Y002183D01*
X033989Y002183D01*
X033738Y001931D01*
X033738Y001575D01*
X033989Y001323D01*
X034346Y001323D01*
X034598Y001575D01*
X034501Y001478D02*
X034835Y001478D01*
X034953Y001360D02*
X034382Y001360D01*
X033953Y001360D02*
X030368Y001360D01*
X030341Y001333D02*
X030588Y001579D01*
X030588Y001733D01*
X030188Y001733D01*
X030188Y001773D01*
X030588Y001773D01*
X030588Y001927D01*
X030341Y002173D01*
X030188Y002173D01*
X030188Y001773D01*
X030147Y001773D01*
X030147Y001733D01*
X029748Y001733D01*
X029748Y001579D01*
X029994Y001333D01*
X030147Y001333D01*
X030147Y001733D01*
X030188Y001733D01*
X030188Y001333D01*
X030341Y001333D01*
X030188Y001360D02*
X030147Y001360D01*
X030147Y001478D02*
X030188Y001478D01*
X030188Y001597D02*
X030147Y001597D01*
X030147Y001715D02*
X030188Y001715D01*
X030147Y001773D02*
X029748Y001773D01*
X029748Y001927D01*
X029994Y002173D01*
X030147Y002173D01*
X030147Y001773D01*
X030147Y001834D02*
X030188Y001834D01*
X030188Y001952D02*
X030147Y001952D01*
X030147Y002071D02*
X030188Y002071D01*
X030444Y002071D02*
X033877Y002071D01*
X033759Y001952D02*
X030562Y001952D01*
X030588Y001834D02*
X033738Y001834D01*
X033738Y001715D02*
X030588Y001715D01*
X030588Y001597D02*
X033738Y001597D01*
X033835Y001478D02*
X030486Y001478D01*
X029967Y001360D02*
X029382Y001360D01*
X029346Y001323D02*
X029598Y001575D01*
X029598Y001931D01*
X029346Y002183D01*
X028989Y002183D01*
X028738Y001931D01*
X028738Y001575D01*
X028989Y001323D01*
X029346Y001323D01*
X029501Y001478D02*
X029849Y001478D01*
X029748Y001597D02*
X029598Y001597D01*
X029598Y001715D02*
X029748Y001715D01*
X029748Y001834D02*
X029598Y001834D01*
X029576Y001952D02*
X029773Y001952D01*
X029891Y002071D02*
X029458Y002071D01*
X028877Y002071D02*
X026400Y002071D01*
X026313Y001985D02*
X026531Y002202D01*
X026648Y002485D01*
X026648Y002792D01*
X026531Y003076D01*
X026313Y003293D01*
X026030Y003411D01*
X025723Y003411D01*
X025439Y003293D01*
X025222Y003076D01*
X025104Y002792D01*
X025104Y002485D01*
X025222Y002202D01*
X025439Y001985D01*
X025723Y001867D01*
X026030Y001867D01*
X026313Y001985D01*
X026235Y001952D02*
X028759Y001952D01*
X028738Y001834D02*
X021923Y001834D01*
X021923Y001833D02*
X022058Y001968D01*
X022058Y002088D01*
X022413Y002443D01*
X022548Y002578D01*
X022548Y002878D01*
X022413Y003013D01*
X022222Y003013D01*
X021732Y003013D01*
X021598Y002878D01*
X021598Y002688D01*
X021732Y002553D01*
X021872Y002553D01*
X021612Y002293D01*
X021530Y002293D01*
X021530Y002871D01*
X021530Y002878D01*
X021395Y003013D01*
X021205Y003013D01*
X020964Y002772D01*
X020858Y002878D01*
X020723Y003013D01*
X020483Y003013D01*
X020292Y003013D01*
X020172Y002893D01*
X020118Y002838D01*
X019933Y003023D01*
X019742Y003023D01*
X019502Y003023D01*
X019368Y002888D01*
X019288Y002808D01*
X019063Y003033D01*
X018872Y003033D01*
X018632Y003033D01*
X018333Y003033D01*
X018142Y003033D01*
X018022Y002913D01*
X017888Y002778D01*
X017888Y002528D01*
X017888Y002338D01*
X017977Y002249D01*
X017886Y002154D01*
X017890Y001963D01*
X018027Y001831D01*
X018217Y001835D01*
X018378Y002002D01*
X018378Y001968D01*
X018512Y001833D01*
X018703Y001833D01*
X018823Y001833D01*
X018888Y001833D01*
X018892Y001830D01*
X018982Y001833D01*
X019073Y001833D01*
X019077Y001837D01*
X019082Y001837D01*
X019144Y001904D01*
X019208Y001968D01*
X019208Y001973D01*
X019237Y002005D01*
X019237Y001970D01*
X019238Y001969D01*
X019238Y001968D01*
X019302Y001903D01*
X019370Y001834D01*
X019371Y001834D01*
X019372Y001833D01*
X019465Y001833D01*
X019560Y001832D01*
X019561Y001833D01*
X020053Y001833D01*
X020173Y001953D01*
X020292Y001833D01*
X020483Y001833D01*
X020532Y001833D01*
X020723Y001833D01*
X020841Y001952D01*
X020960Y001833D01*
X021635Y001833D01*
X021684Y001882D01*
X021732Y001833D01*
X021923Y001833D01*
X022042Y001952D02*
X025517Y001952D01*
X025353Y002071D02*
X022058Y002071D01*
X022159Y002189D02*
X025234Y002189D01*
X025178Y002308D02*
X022278Y002308D01*
X022396Y002426D02*
X025129Y002426D01*
X025104Y002545D02*
X022515Y002545D01*
X022548Y002664D02*
X025104Y002664D01*
X025104Y002782D02*
X022548Y002782D01*
X022525Y002901D02*
X025149Y002901D01*
X025198Y003019D02*
X019937Y003019D01*
X020055Y002901D02*
X020180Y002901D01*
X020388Y002783D02*
X020268Y002663D01*
X020268Y002183D01*
X020388Y002063D01*
X020628Y002063D01*
X020748Y002183D01*
X020748Y002663D01*
X020628Y002783D01*
X020388Y002783D01*
X020738Y002663D02*
X020268Y002183D01*
X019958Y002063D02*
X019468Y002063D01*
X019958Y002543D01*
X019958Y002663D01*
X019958Y002673D02*
X019838Y002793D01*
X019598Y002793D01*
X019468Y002663D01*
X019380Y002901D02*
X019195Y002901D01*
X019077Y003019D02*
X019498Y003019D01*
X019362Y003283D02*
X018973Y003283D01*
X018698Y003558D01*
X018698Y003948D01*
X018973Y004223D01*
X019362Y004223D01*
X019638Y003948D01*
X019638Y003558D01*
X019362Y003283D01*
X019454Y003375D02*
X019881Y003375D01*
X019973Y003283D02*
X019698Y003558D01*
X019698Y003948D01*
X019973Y004223D01*
X020362Y004223D01*
X020638Y003948D01*
X020638Y003558D01*
X020362Y003283D01*
X019973Y003283D01*
X019763Y003493D02*
X019572Y003493D01*
X019638Y003612D02*
X019698Y003612D01*
X019698Y003730D02*
X019638Y003730D01*
X019638Y003849D02*
X019698Y003849D01*
X019717Y003967D02*
X019618Y003967D01*
X019499Y004086D02*
X019836Y004086D01*
X019954Y004205D02*
X019381Y004205D01*
X019362Y004283D02*
X019638Y004558D01*
X019638Y004948D01*
X019362Y005223D01*
X018973Y005223D01*
X018698Y004948D01*
X018698Y004558D01*
X018973Y004283D01*
X019362Y004283D01*
X019402Y004323D02*
X019933Y004323D01*
X019973Y004283D02*
X019698Y004558D01*
X019698Y004948D01*
X019973Y005223D01*
X020362Y005223D01*
X020638Y004948D01*
X020638Y004558D01*
X020362Y004283D01*
X019973Y004283D01*
X019814Y004442D02*
X019521Y004442D01*
X019638Y004560D02*
X019698Y004560D01*
X019698Y004679D02*
X019638Y004679D01*
X019638Y004797D02*
X019698Y004797D01*
X019698Y004916D02*
X019638Y004916D01*
X019551Y005034D02*
X019784Y005034D01*
X019903Y005153D02*
X019432Y005153D01*
X018903Y005153D02*
X018432Y005153D01*
X018362Y005223D02*
X017973Y005223D01*
X017698Y004948D01*
X017698Y004558D01*
X017973Y004283D01*
X018362Y004283D01*
X018638Y004558D01*
X018638Y004948D01*
X018362Y005223D01*
X018551Y005034D02*
X018784Y005034D01*
X018698Y004916D02*
X018638Y004916D01*
X018638Y004797D02*
X018698Y004797D01*
X018698Y004679D02*
X018638Y004679D01*
X018638Y004560D02*
X018698Y004560D01*
X018814Y004442D02*
X018521Y004442D01*
X018402Y004323D02*
X018933Y004323D01*
X018954Y004205D02*
X018381Y004205D01*
X018362Y004223D02*
X017973Y004223D01*
X017698Y003948D01*
X017698Y003558D01*
X017973Y003283D01*
X018362Y003283D01*
X018638Y003558D01*
X018638Y003948D01*
X018362Y004223D01*
X018499Y004086D02*
X018836Y004086D01*
X018717Y003967D02*
X018618Y003967D01*
X018638Y003849D02*
X018698Y003849D01*
X018698Y003730D02*
X018638Y003730D01*
X018638Y003612D02*
X018698Y003612D01*
X018763Y003493D02*
X018572Y003493D01*
X018454Y003375D02*
X018881Y003375D01*
X018128Y003019D02*
X015137Y003019D01*
X015113Y003076D02*
X014896Y003293D01*
X014612Y003411D01*
X014305Y003411D01*
X014022Y003293D01*
X013805Y003076D01*
X013687Y002792D01*
X013687Y002485D01*
X013805Y002202D01*
X014022Y001985D01*
X014305Y001867D01*
X014612Y001867D01*
X014896Y001985D01*
X015113Y002202D01*
X015231Y002485D01*
X015231Y002792D01*
X015113Y003076D01*
X015052Y003138D02*
X025283Y003138D01*
X025402Y003256D02*
X014933Y003256D01*
X014699Y003375D02*
X015881Y003375D01*
X015973Y003283D02*
X015698Y003558D01*
X015698Y003948D01*
X015973Y004223D01*
X016362Y004223D01*
X016638Y003948D01*
X016638Y003558D01*
X016362Y003283D01*
X015973Y003283D01*
X015763Y003493D02*
X003119Y003493D01*
X003325Y003375D02*
X014219Y003375D01*
X013985Y003256D02*
X003494Y003256D01*
X003604Y003138D02*
X013866Y003138D01*
X013781Y003019D02*
X003714Y003019D01*
X003807Y002901D02*
X013732Y002901D01*
X013687Y002782D02*
X003864Y002782D01*
X003921Y002664D02*
X013687Y002664D01*
X013687Y002545D02*
X003979Y002545D01*
X004014Y002426D02*
X013711Y002426D01*
X013761Y002308D02*
X004032Y002308D01*
X004049Y002189D02*
X013817Y002189D01*
X013936Y002071D02*
X011444Y002071D01*
X011341Y002173D02*
X011188Y002173D01*
X011188Y001773D01*
X011588Y001773D01*
X011588Y001927D01*
X011341Y002173D01*
X011188Y002071D02*
X011147Y002071D01*
X011147Y002173D02*
X011147Y001773D01*
X011147Y001733D01*
X010748Y001733D01*
X010748Y001579D01*
X010994Y001333D01*
X011147Y001333D01*
X011147Y001733D01*
X011188Y001733D01*
X011188Y001773D01*
X011147Y001773D01*
X010748Y001773D01*
X010748Y001927D01*
X010994Y002173D01*
X011147Y002173D01*
X010891Y002071D02*
X010458Y002071D01*
X010346Y002183D02*
X009989Y002183D01*
X009738Y001931D01*
X009738Y001575D01*
X009989Y001323D01*
X010346Y001323D01*
X010598Y001575D01*
X010598Y001931D01*
X010346Y002183D01*
X009877Y002071D02*
X006444Y002071D01*
X006341Y002173D02*
X006188Y002173D01*
X006188Y001773D01*
X006588Y001773D01*
X006588Y001927D01*
X006341Y002173D01*
X006188Y002071D02*
X006147Y002071D01*
X006147Y002173D02*
X005994Y002173D01*
X005748Y001927D01*
X005748Y001773D01*
X006147Y001773D01*
X006147Y001733D01*
X005748Y001733D01*
X005748Y001579D01*
X005994Y001333D01*
X006147Y001333D01*
X006147Y001733D01*
X006188Y001733D01*
X006188Y001773D01*
X006147Y001773D01*
X006147Y002173D01*
X005891Y002071D02*
X005458Y002071D01*
X005346Y002183D02*
X004989Y002183D01*
X004738Y001931D01*
X004738Y001575D01*
X004989Y001323D01*
X005346Y001323D01*
X005598Y001575D01*
X005598Y001931D01*
X005346Y002183D01*
X004877Y002071D02*
X004067Y002071D01*
X004070Y001952D02*
X004759Y001952D01*
X004738Y001834D02*
X004052Y001834D01*
X004034Y001715D02*
X004738Y001715D01*
X004738Y001597D02*
X004016Y001597D01*
X003987Y001478D02*
X004835Y001478D01*
X004953Y001360D02*
X003929Y001360D01*
X003354Y000648D02*
X036984Y000648D01*
X037179Y000530D02*
X003148Y000530D01*
X005382Y001360D02*
X005967Y001360D01*
X005849Y001478D02*
X005501Y001478D01*
X005598Y001597D02*
X005748Y001597D01*
X005748Y001715D02*
X005598Y001715D01*
X005598Y001834D02*
X005748Y001834D01*
X005773Y001952D02*
X005576Y001952D01*
X006147Y001952D02*
X006188Y001952D01*
X006188Y001834D02*
X006147Y001834D01*
X006188Y001733D02*
X006588Y001733D01*
X006588Y001579D01*
X006341Y001333D01*
X006188Y001333D01*
X006188Y001733D01*
X006188Y001715D02*
X006147Y001715D01*
X006147Y001597D02*
X006188Y001597D01*
X006188Y001478D02*
X006147Y001478D01*
X006147Y001360D02*
X006188Y001360D01*
X006368Y001360D02*
X009953Y001360D01*
X009835Y001478D02*
X006486Y001478D01*
X006588Y001597D02*
X009738Y001597D01*
X009738Y001715D02*
X006588Y001715D01*
X006588Y001834D02*
X009738Y001834D01*
X009759Y001952D02*
X006562Y001952D01*
X010382Y001360D02*
X010967Y001360D01*
X010849Y001478D02*
X010501Y001478D01*
X010598Y001597D02*
X010748Y001597D01*
X010748Y001715D02*
X010598Y001715D01*
X010598Y001834D02*
X010748Y001834D01*
X010773Y001952D02*
X010576Y001952D01*
X011147Y001952D02*
X011188Y001952D01*
X011188Y001834D02*
X011147Y001834D01*
X011188Y001733D02*
X011588Y001733D01*
X011588Y001579D01*
X011341Y001333D01*
X011188Y001333D01*
X011188Y001733D01*
X011188Y001715D02*
X011147Y001715D01*
X011147Y001597D02*
X011188Y001597D01*
X011188Y001478D02*
X011147Y001478D01*
X011147Y001360D02*
X011188Y001360D01*
X011368Y001360D02*
X028953Y001360D01*
X028835Y001478D02*
X011486Y001478D01*
X011588Y001597D02*
X028738Y001597D01*
X028738Y001715D02*
X011588Y001715D01*
X011588Y001834D02*
X018024Y001834D01*
X018146Y001834D02*
X018512Y001834D01*
X018393Y001952D02*
X018330Y001952D01*
X018118Y002063D02*
X018358Y002313D01*
X018608Y002313D01*
X018608Y002683D01*
X018608Y002803D01*
X018238Y002803D01*
X018118Y002683D01*
X018118Y002433D01*
X018238Y002313D01*
X018358Y002313D01*
X018608Y002313D02*
X018608Y002183D01*
X018608Y002063D01*
X018728Y002063D02*
X018608Y002183D01*
X018728Y002063D02*
X018978Y002063D01*
X019098Y002193D01*
X019098Y002433D01*
X018848Y002433D01*
X019088Y002683D02*
X018968Y002803D01*
X018728Y002803D01*
X018608Y002683D01*
X018010Y002901D02*
X015186Y002901D01*
X015231Y002782D02*
X017891Y002782D01*
X017888Y002664D02*
X015231Y002664D01*
X015231Y002545D02*
X017888Y002545D01*
X017888Y002426D02*
X015206Y002426D01*
X015157Y002308D02*
X017918Y002308D01*
X017920Y002189D02*
X015101Y002189D01*
X014982Y002071D02*
X017887Y002071D01*
X017901Y001952D02*
X014818Y001952D01*
X014100Y001952D02*
X011562Y001952D01*
X015698Y003612D02*
X002746Y003612D01*
X002024Y003612D02*
X000928Y003612D01*
X000928Y003730D02*
X015698Y003730D01*
X015698Y003849D02*
X000928Y003849D01*
X000928Y003967D02*
X015717Y003967D01*
X015836Y004086D02*
X000928Y004086D01*
X000928Y004205D02*
X015954Y004205D01*
X015973Y004283D02*
X016362Y004283D01*
X016638Y004558D01*
X016638Y004948D01*
X016362Y005223D01*
X015973Y005223D01*
X015698Y004948D01*
X015698Y004558D01*
X015973Y004283D01*
X015933Y004323D02*
X000928Y004323D01*
X000928Y004442D02*
X015814Y004442D01*
X015698Y004560D02*
X000928Y004560D01*
X000928Y004679D02*
X015698Y004679D01*
X015698Y004797D02*
X000928Y004797D01*
X000928Y004916D02*
X015698Y004916D01*
X015784Y005034D02*
X000928Y005034D01*
X000928Y005153D02*
X015903Y005153D01*
X016432Y005153D02*
X016903Y005153D01*
X016973Y005223D02*
X016698Y004948D01*
X016698Y004558D01*
X016973Y004283D01*
X017362Y004283D01*
X017638Y004558D01*
X017638Y004948D01*
X017362Y005223D01*
X016973Y005223D01*
X016784Y005034D02*
X016551Y005034D01*
X016638Y004916D02*
X016698Y004916D01*
X016698Y004797D02*
X016638Y004797D01*
X016638Y004679D02*
X016698Y004679D01*
X016698Y004560D02*
X016638Y004560D01*
X016521Y004442D02*
X016814Y004442D01*
X016933Y004323D02*
X016402Y004323D01*
X016381Y004205D02*
X016954Y004205D01*
X016973Y004223D02*
X016698Y003948D01*
X016698Y003558D01*
X016973Y003283D01*
X017362Y003283D01*
X017638Y003558D01*
X017638Y003948D01*
X017362Y004223D01*
X016973Y004223D01*
X016836Y004086D02*
X016499Y004086D01*
X016618Y003967D02*
X016717Y003967D01*
X016698Y003849D02*
X016638Y003849D01*
X016638Y003730D02*
X016698Y003730D01*
X016698Y003612D02*
X016638Y003612D01*
X016572Y003493D02*
X016763Y003493D01*
X016881Y003375D02*
X016454Y003375D01*
X017454Y003375D02*
X017881Y003375D01*
X017763Y003493D02*
X017572Y003493D01*
X017638Y003612D02*
X017698Y003612D01*
X017698Y003730D02*
X017638Y003730D01*
X017638Y003849D02*
X017698Y003849D01*
X017717Y003967D02*
X017618Y003967D01*
X017499Y004086D02*
X017836Y004086D01*
X017954Y004205D02*
X017381Y004205D01*
X017402Y004323D02*
X017933Y004323D01*
X017814Y004442D02*
X017521Y004442D01*
X017638Y004560D02*
X017698Y004560D01*
X017698Y004679D02*
X017638Y004679D01*
X017638Y004797D02*
X017698Y004797D01*
X017698Y004916D02*
X017638Y004916D01*
X017551Y005034D02*
X017784Y005034D01*
X017903Y005153D02*
X017432Y005153D01*
X016905Y006220D02*
X027759Y006220D01*
X027710Y006101D02*
X012927Y006101D01*
X012846Y006183D02*
X013098Y005931D01*
X013098Y005575D01*
X012846Y005323D01*
X012489Y005323D01*
X012238Y005575D01*
X012238Y005931D01*
X012489Y006183D01*
X012846Y006183D01*
X013046Y005983D02*
X027708Y005983D01*
X027727Y005864D02*
X022758Y005864D01*
X022577Y005864D02*
X013098Y005864D01*
X013098Y005746D02*
X022389Y005746D01*
X022320Y005627D02*
X013098Y005627D01*
X013031Y005509D02*
X022299Y005509D01*
X022316Y005390D02*
X012912Y005390D01*
X012423Y005390D02*
X008912Y005390D01*
X008846Y005323D02*
X009098Y005575D01*
X009098Y005931D01*
X008846Y006183D01*
X008489Y006183D01*
X008238Y005931D01*
X008238Y005575D01*
X008489Y005323D01*
X008846Y005323D01*
X009031Y005509D02*
X012304Y005509D01*
X012238Y005627D02*
X009098Y005627D01*
X009098Y005746D02*
X012238Y005746D01*
X012238Y005864D02*
X009098Y005864D01*
X009046Y005983D02*
X012289Y005983D01*
X012408Y006101D02*
X008927Y006101D01*
X008408Y006101D02*
X007927Y006101D01*
X007846Y006183D02*
X007489Y006183D01*
X007238Y005931D01*
X007238Y005575D01*
X007489Y005323D01*
X007846Y005323D01*
X008098Y005575D01*
X008098Y005931D01*
X007846Y006183D01*
X008046Y005983D02*
X008289Y005983D01*
X008238Y005864D02*
X008098Y005864D01*
X008098Y005746D02*
X008238Y005746D01*
X008238Y005627D02*
X008098Y005627D01*
X008031Y005509D02*
X008304Y005509D01*
X008423Y005390D02*
X007912Y005390D01*
X007423Y005390D02*
X003912Y005390D01*
X003846Y005323D02*
X004098Y005575D01*
X004098Y005931D01*
X003846Y006183D01*
X003489Y006183D01*
X003238Y005931D01*
X003238Y005575D01*
X003489Y005323D01*
X003846Y005323D01*
X004031Y005509D02*
X007304Y005509D01*
X007238Y005627D02*
X004098Y005627D01*
X004098Y005746D02*
X007238Y005746D01*
X007238Y005864D02*
X004098Y005864D01*
X004046Y005983D02*
X007289Y005983D01*
X007408Y006101D02*
X003927Y006101D01*
X003408Y006101D02*
X000928Y006101D01*
X000928Y005983D02*
X003289Y005983D01*
X003238Y005864D02*
X000928Y005864D01*
X000928Y005746D02*
X003238Y005746D01*
X003238Y005627D02*
X000928Y005627D01*
X000928Y005509D02*
X003304Y005509D01*
X003423Y005390D02*
X000928Y005390D01*
X000928Y005271D02*
X022379Y005271D01*
X022362Y005223D02*
X021973Y005223D01*
X021698Y004948D01*
X021698Y004558D01*
X021973Y004283D01*
X022362Y004283D01*
X022638Y004558D01*
X022638Y004948D01*
X022362Y005223D01*
X022432Y005153D02*
X022551Y005153D01*
X022551Y005034D02*
X022784Y005034D01*
X022784Y005153D02*
X022903Y005153D01*
X022973Y005223D02*
X022698Y004948D01*
X022698Y004558D01*
X022973Y004283D01*
X023362Y004283D01*
X023638Y004558D01*
X023638Y004948D01*
X023362Y005223D01*
X022973Y005223D01*
X022956Y005271D02*
X027785Y005271D01*
X027732Y005153D02*
X024432Y005153D01*
X024362Y005223D02*
X023973Y005223D01*
X023698Y004948D01*
X023698Y004558D01*
X023973Y004283D01*
X024362Y004283D01*
X024638Y004558D01*
X024638Y004948D01*
X024362Y005223D01*
X024551Y005034D02*
X027708Y005034D01*
X027708Y004916D02*
X024638Y004916D01*
X024638Y004797D02*
X027755Y004797D01*
X027841Y004679D02*
X024638Y004679D01*
X024638Y004560D02*
X028035Y004560D01*
X028024Y004442D02*
X024521Y004442D01*
X024402Y004323D02*
X027837Y004323D01*
X027753Y004205D02*
X024367Y004205D01*
X024358Y004213D02*
X024208Y004213D01*
X024208Y003793D01*
X024628Y003793D01*
X024628Y003944D01*
X024358Y004213D01*
X024208Y004205D02*
X024127Y004205D01*
X024127Y004213D02*
X023977Y004213D01*
X023708Y003944D01*
X023708Y003793D01*
X024127Y003793D01*
X024127Y003713D01*
X023708Y003713D01*
X023708Y003563D01*
X023977Y003293D01*
X024127Y003293D01*
X024127Y003713D01*
X024208Y003713D01*
X024208Y003793D01*
X024127Y003793D01*
X024127Y004213D01*
X024127Y004086D02*
X024208Y004086D01*
X024208Y003967D02*
X024127Y003967D01*
X024127Y003849D02*
X024208Y003849D01*
X024208Y003730D02*
X027790Y003730D01*
X027734Y003849D02*
X024628Y003849D01*
X024604Y003967D02*
X027708Y003967D01*
X027708Y004086D02*
X024485Y004086D01*
X023968Y004205D02*
X023381Y004205D01*
X023362Y004223D02*
X022973Y004223D01*
X022698Y003948D01*
X022698Y003558D01*
X022973Y003283D01*
X023362Y003283D01*
X023638Y003558D01*
X023638Y003948D01*
X023362Y004223D01*
X023402Y004323D02*
X023933Y004323D01*
X023814Y004442D02*
X023521Y004442D01*
X023638Y004560D02*
X023698Y004560D01*
X023698Y004679D02*
X023638Y004679D01*
X023638Y004797D02*
X023698Y004797D01*
X023698Y004916D02*
X023638Y004916D01*
X023551Y005034D02*
X023784Y005034D01*
X023903Y005153D02*
X023432Y005153D01*
X022698Y004916D02*
X022638Y004916D01*
X022638Y004797D02*
X022698Y004797D01*
X022698Y004679D02*
X022638Y004679D01*
X022638Y004560D02*
X022698Y004560D01*
X022814Y004442D02*
X022521Y004442D01*
X022402Y004323D02*
X022933Y004323D01*
X022954Y004205D02*
X022381Y004205D01*
X022362Y004223D02*
X021973Y004223D01*
X021698Y003948D01*
X021698Y003558D01*
X021973Y003283D01*
X022362Y003283D01*
X022638Y003558D01*
X022638Y003948D01*
X022362Y004223D01*
X022499Y004086D02*
X022836Y004086D01*
X022717Y003967D02*
X022618Y003967D01*
X022638Y003849D02*
X022698Y003849D01*
X022698Y003730D02*
X022638Y003730D01*
X022638Y003612D02*
X022698Y003612D01*
X022763Y003493D02*
X022572Y003493D01*
X022454Y003375D02*
X022881Y003375D01*
X023454Y003375D02*
X023895Y003375D01*
X023777Y003493D02*
X023572Y003493D01*
X023638Y003612D02*
X023708Y003612D01*
X023638Y003730D02*
X024127Y003730D01*
X024208Y003713D02*
X024208Y003293D01*
X024358Y003293D01*
X024628Y003563D01*
X024628Y003713D01*
X024208Y003713D01*
X024208Y003612D02*
X024127Y003612D01*
X024127Y003493D02*
X024208Y003493D01*
X024208Y003375D02*
X024127Y003375D01*
X024440Y003375D02*
X025636Y003375D01*
X026117Y003375D02*
X035188Y003375D01*
X035188Y003256D02*
X026350Y003256D01*
X026469Y003138D02*
X035188Y003138D01*
X035188Y003019D02*
X026554Y003019D01*
X026603Y002901D02*
X035188Y002901D01*
X035188Y002782D02*
X026648Y002782D01*
X026648Y002664D02*
X035188Y002664D01*
X035188Y002545D02*
X026648Y002545D01*
X026624Y002426D02*
X035188Y002426D01*
X035188Y002308D02*
X026574Y002308D01*
X026518Y002189D02*
X035188Y002189D01*
X034877Y002071D02*
X034458Y002071D01*
X034576Y001952D02*
X034759Y001952D01*
X034738Y001834D02*
X034598Y001834D01*
X035069Y003493D02*
X024558Y003493D01*
X024628Y003612D02*
X027910Y003612D01*
X028425Y003612D02*
X028910Y003612D01*
X028907Y003613D02*
X029076Y003543D01*
X029259Y003543D01*
X029428Y003613D01*
X029557Y003743D01*
X029628Y003912D01*
X029628Y004095D01*
X029557Y004264D01*
X029428Y004393D01*
X029259Y004463D01*
X029076Y004463D01*
X028907Y004393D01*
X028778Y004264D01*
X028708Y004095D01*
X028708Y003912D01*
X028778Y003743D01*
X028907Y003613D01*
X028790Y003730D02*
X028545Y003730D01*
X028602Y003849D02*
X028734Y003849D01*
X028708Y003967D02*
X028628Y003967D01*
X028628Y004086D02*
X028708Y004086D01*
X028694Y004205D02*
X028753Y004205D01*
X028813Y004323D02*
X028837Y004323D01*
X028931Y004442D02*
X029024Y004442D01*
X029050Y004560D02*
X034035Y004560D01*
X034076Y004463D02*
X033907Y004393D01*
X033778Y004264D01*
X033708Y004095D01*
X033708Y003912D01*
X033778Y003743D01*
X033907Y003613D01*
X034076Y003543D01*
X034259Y003543D01*
X034428Y003613D01*
X034557Y003743D01*
X034628Y003912D01*
X034628Y004095D01*
X034557Y004264D01*
X034428Y004393D01*
X034259Y004463D01*
X034076Y004463D01*
X034024Y004442D02*
X033311Y004442D01*
X033259Y004463D02*
X033076Y004463D01*
X032907Y004393D01*
X032778Y004264D01*
X032708Y004095D01*
X032708Y003912D01*
X032778Y003743D01*
X032907Y003613D01*
X033076Y003543D01*
X033259Y003543D01*
X033428Y003613D01*
X033557Y003743D01*
X033628Y003912D01*
X033628Y004095D01*
X033557Y004264D01*
X033428Y004393D01*
X033259Y004463D01*
X033024Y004442D02*
X032311Y004442D01*
X032259Y004463D02*
X032428Y004393D01*
X032557Y004264D01*
X032628Y004095D01*
X032628Y003912D01*
X032557Y003743D01*
X032428Y003613D01*
X032259Y003543D01*
X032076Y003543D01*
X031907Y003613D01*
X031778Y003743D01*
X031708Y003912D01*
X031708Y004095D01*
X031778Y004264D01*
X031907Y004393D01*
X032076Y004463D01*
X032259Y004463D01*
X032024Y004442D02*
X031274Y004442D01*
X031273Y004442D02*
X031203Y004453D01*
X031203Y004453D01*
X031203Y004038D01*
X031618Y004038D01*
X031618Y004039D01*
X031606Y004109D01*
X031585Y004176D01*
X031552Y004239D01*
X031511Y004296D01*
X031461Y004346D01*
X031403Y004388D01*
X031340Y004420D01*
X031273Y004442D01*
X031203Y004442D02*
X031132Y004442D01*
X031132Y004453D02*
X031062Y004442D01*
X030995Y004420D01*
X030932Y004388D01*
X030874Y004346D01*
X030824Y004296D01*
X030783Y004239D01*
X030751Y004176D01*
X030729Y004109D01*
X030718Y004039D01*
X030718Y004038D01*
X031132Y004038D01*
X031132Y003968D01*
X030718Y003968D01*
X030718Y003968D01*
X030729Y003898D01*
X030751Y003830D01*
X030783Y003767D01*
X030824Y003710D01*
X030874Y003660D01*
X030932Y003618D01*
X030995Y003586D01*
X031062Y003564D01*
X031132Y003553D01*
X031132Y003553D01*
X031132Y003968D01*
X031203Y003968D01*
X031203Y004038D01*
X031132Y004038D01*
X031132Y004453D01*
X031132Y004453D01*
X031061Y004442D02*
X030311Y004442D01*
X030259Y004463D02*
X030076Y004463D01*
X029907Y004393D01*
X029778Y004264D01*
X029708Y004095D01*
X029708Y003912D01*
X029778Y003743D01*
X029907Y003613D01*
X030076Y003543D01*
X030259Y003543D01*
X030428Y003613D01*
X030557Y003743D01*
X030628Y003912D01*
X030628Y004095D01*
X030557Y004264D01*
X030428Y004393D01*
X030259Y004463D01*
X030024Y004442D02*
X029311Y004442D01*
X029498Y004323D02*
X029837Y004323D01*
X029753Y004205D02*
X029582Y004205D01*
X029628Y004086D02*
X029708Y004086D01*
X029708Y003967D02*
X029628Y003967D01*
X029602Y003849D02*
X029734Y003849D01*
X029790Y003730D02*
X029545Y003730D01*
X029425Y003612D02*
X029910Y003612D01*
X030425Y003612D02*
X030944Y003612D01*
X030809Y003730D02*
X030545Y003730D01*
X030602Y003849D02*
X030744Y003849D01*
X030718Y003967D02*
X030628Y003967D01*
X030628Y004086D02*
X030725Y004086D01*
X030765Y004205D02*
X030582Y004205D01*
X030498Y004323D02*
X030851Y004323D01*
X031132Y004323D02*
X031203Y004323D01*
X031203Y004205D02*
X031132Y004205D01*
X031132Y004086D02*
X031203Y004086D01*
X031203Y003968D02*
X031618Y003968D01*
X031618Y003968D01*
X031606Y003898D01*
X031585Y003830D01*
X031552Y003767D01*
X031511Y003710D01*
X031461Y003660D01*
X031403Y003618D01*
X031340Y003586D01*
X031273Y003564D01*
X031203Y003553D01*
X031203Y003553D01*
X031203Y003968D01*
X031203Y003967D02*
X031132Y003967D01*
X031132Y003849D02*
X031203Y003849D01*
X031203Y003730D02*
X031132Y003730D01*
X031132Y003612D02*
X031203Y003612D01*
X031391Y003612D02*
X031910Y003612D01*
X031790Y003730D02*
X031526Y003730D01*
X031591Y003849D02*
X031734Y003849D01*
X031708Y003967D02*
X031617Y003967D01*
X031610Y004086D02*
X031708Y004086D01*
X031753Y004205D02*
X031570Y004205D01*
X031484Y004323D02*
X031837Y004323D01*
X032048Y004797D02*
X029981Y004797D01*
X030030Y004916D02*
X031930Y004916D01*
X031811Y005034D02*
X030036Y005034D01*
X030004Y005153D02*
X031693Y005153D01*
X031574Y005271D02*
X029920Y005271D01*
X029668Y005003D02*
X029168Y005003D01*
X028168Y004003D01*
X028300Y004560D02*
X028399Y004560D01*
X028494Y004679D02*
X028518Y004679D01*
X028580Y004797D02*
X028636Y004797D01*
X028628Y004916D02*
X028755Y004916D01*
X028874Y005034D02*
X028628Y005034D01*
X028603Y005153D02*
X028992Y005153D01*
X029415Y005271D02*
X028550Y005271D01*
X028559Y005746D02*
X033776Y005746D01*
X033893Y005627D02*
X031869Y005627D01*
X031987Y005509D02*
X037251Y005509D01*
X037193Y005450D02*
X037193Y005273D01*
X037647Y005273D01*
X037647Y005233D01*
X037193Y005233D01*
X037193Y005056D01*
X037471Y004778D01*
X037647Y004778D01*
X037647Y005233D01*
X037688Y005233D01*
X037688Y005273D01*
X038143Y005273D01*
X038143Y005450D01*
X037864Y005728D01*
X037688Y005728D01*
X037688Y005273D01*
X037647Y005273D01*
X037647Y005728D01*
X037471Y005728D01*
X037193Y005450D01*
X037193Y005390D02*
X034431Y005390D01*
X034550Y005271D02*
X037647Y005271D01*
X037688Y005271D02*
X038183Y005271D01*
X038143Y005233D02*
X037688Y005233D01*
X037688Y004778D01*
X037864Y004778D01*
X038143Y005056D01*
X038143Y005233D01*
X038143Y005153D02*
X038184Y005153D01*
X038233Y005034D02*
X038121Y005034D01*
X038002Y004916D02*
X038319Y004916D01*
X038501Y004797D02*
X037883Y004797D01*
X037688Y004797D02*
X037647Y004797D01*
X037647Y004916D02*
X037688Y004916D01*
X037688Y005034D02*
X037647Y005034D01*
X037647Y005153D02*
X037688Y005153D01*
X037688Y005390D02*
X037647Y005390D01*
X037647Y005509D02*
X037688Y005509D01*
X037688Y005627D02*
X037647Y005627D01*
X037370Y005627D02*
X034442Y005627D01*
X034559Y005746D02*
X038418Y005746D01*
X038418Y005864D02*
X034608Y005864D01*
X034628Y005983D02*
X038418Y005983D01*
X038418Y006101D02*
X034625Y006101D01*
X034576Y006220D02*
X038418Y006220D01*
X038418Y006338D02*
X034483Y006338D01*
X034274Y006457D02*
X038418Y006457D01*
X038418Y006575D02*
X034337Y006575D01*
X034509Y006694D02*
X038418Y006694D01*
X038380Y006813D02*
X034586Y006813D01*
X034628Y006931D02*
X038261Y006931D01*
X038143Y007050D02*
X034628Y007050D01*
X034597Y007168D02*
X038057Y007168D01*
X038043Y007287D02*
X034534Y007287D01*
X034399Y007405D02*
X035157Y007405D01*
X035239Y007323D02*
X035596Y007323D01*
X035848Y007575D01*
X035848Y007931D01*
X035596Y008183D01*
X035239Y008183D01*
X034988Y007931D01*
X034988Y007575D01*
X035239Y007323D01*
X035039Y007524D02*
X031972Y007524D01*
X031854Y007642D02*
X033878Y007642D01*
X033770Y007761D02*
X028565Y007761D01*
X028614Y007879D02*
X031966Y007879D01*
X031847Y007998D02*
X028628Y007998D01*
X028619Y008116D02*
X031729Y008116D01*
X031610Y008235D02*
X028569Y008235D01*
X028168Y008003D02*
X020668Y008003D01*
X020299Y007998D02*
X012935Y007998D01*
X012948Y008030D02*
X012948Y008209D01*
X012880Y008374D01*
X012753Y008501D01*
X012724Y008513D01*
X012753Y008525D01*
X012880Y008652D01*
X012948Y008817D01*
X012948Y008996D01*
X012880Y009162D01*
X012753Y009288D01*
X012724Y009300D01*
X012753Y009313D01*
X012880Y009439D01*
X012948Y009605D01*
X012948Y009784D01*
X012880Y009949D01*
X012753Y010076D01*
X012724Y010088D01*
X012753Y010100D01*
X012880Y010227D01*
X012948Y010392D01*
X012948Y010571D01*
X012880Y010736D01*
X012753Y010863D01*
X012724Y010875D01*
X012753Y010887D01*
X012880Y011014D01*
X012948Y011179D01*
X012948Y011358D01*
X012880Y011524D01*
X012753Y011650D01*
X012724Y011663D01*
X012753Y011675D01*
X012880Y011801D01*
X012948Y011967D01*
X012948Y012146D01*
X012880Y012311D01*
X012753Y012438D01*
X012724Y012450D01*
X012753Y012462D01*
X012880Y012589D01*
X012948Y012754D01*
X012948Y012933D01*
X012880Y013099D01*
X012753Y013225D01*
X012724Y013237D01*
X012753Y013250D01*
X012880Y013376D01*
X012948Y013542D01*
X012948Y013721D01*
X012880Y013886D01*
X012753Y014013D01*
X012724Y014025D01*
X012753Y014037D01*
X012880Y014164D01*
X012948Y014329D01*
X012948Y014508D01*
X012880Y014673D01*
X012753Y014800D01*
X012588Y014868D01*
X012409Y014868D01*
X012243Y014800D01*
X012117Y014673D01*
X012048Y014508D01*
X012048Y014329D01*
X012117Y014164D01*
X012243Y014037D01*
X012273Y014025D01*
X012243Y014013D01*
X012117Y013886D01*
X012048Y013721D01*
X012048Y013542D01*
X012117Y013376D01*
X012243Y013250D01*
X012273Y013237D01*
X012243Y013225D01*
X012117Y013099D01*
X012048Y012933D01*
X012048Y012754D01*
X012117Y012589D01*
X012243Y012462D01*
X012273Y012450D01*
X012243Y012438D01*
X012117Y012311D01*
X012048Y012146D01*
X012048Y011967D01*
X012117Y011801D01*
X012243Y011675D01*
X012273Y011663D01*
X012243Y011650D01*
X012117Y011524D01*
X012048Y011358D01*
X012048Y011179D01*
X012117Y011014D01*
X012243Y010887D01*
X012273Y010875D01*
X012243Y010863D01*
X012117Y010736D01*
X012048Y010571D01*
X012048Y010392D01*
X012117Y010227D01*
X012243Y010100D01*
X012273Y010088D01*
X012243Y010076D01*
X012117Y009949D01*
X012048Y009784D01*
X012048Y009605D01*
X012117Y009439D01*
X012243Y009313D01*
X012273Y009300D01*
X012243Y009288D01*
X012117Y009162D01*
X012048Y008996D01*
X012048Y008817D01*
X012117Y008652D01*
X012243Y008525D01*
X012273Y008513D01*
X012243Y008501D01*
X012117Y008374D01*
X012048Y008209D01*
X012048Y008030D01*
X012117Y007864D01*
X012243Y007738D01*
X012273Y007726D01*
X012243Y007713D01*
X012117Y007587D01*
X012048Y007421D01*
X012048Y007242D01*
X012117Y007077D01*
X012243Y006950D01*
X012409Y006882D01*
X012588Y006882D01*
X012753Y006950D01*
X012880Y007077D01*
X012948Y007242D01*
X012948Y007421D01*
X012880Y007587D01*
X012753Y007713D01*
X012724Y007726D01*
X012753Y007738D01*
X012880Y007864D01*
X012948Y008030D01*
X012948Y008116D02*
X020316Y008116D01*
X020379Y008235D02*
X017420Y008235D01*
X017168Y008503D02*
X031668Y008503D01*
X032168Y008003D01*
X034168Y008003D01*
X034628Y007998D02*
X035054Y007998D01*
X034988Y007879D02*
X034614Y007879D01*
X034565Y007761D02*
X034988Y007761D01*
X034988Y007642D02*
X034457Y007642D01*
X033936Y007405D02*
X032091Y007405D01*
X032209Y007287D02*
X033801Y007287D01*
X034168Y007003D02*
X032168Y007003D01*
X031668Y007503D01*
X016168Y007503D01*
X016430Y007761D02*
X020389Y007761D01*
X020320Y007879D02*
X012886Y007879D01*
X012776Y007761D02*
X015905Y007761D01*
X015827Y007642D02*
X012824Y007642D01*
X012906Y007524D02*
X015799Y007524D01*
X015810Y007405D02*
X012948Y007405D01*
X012948Y007287D02*
X015863Y007287D01*
X016014Y007168D02*
X012917Y007168D01*
X012852Y007050D02*
X027708Y007050D01*
X027708Y006931D02*
X012706Y006931D01*
X012290Y006931D02*
X004019Y006931D01*
X003846Y006931D02*
X003828Y006931D01*
X003828Y007050D02*
X003846Y007050D01*
X003846Y007168D02*
X003828Y007168D01*
X003828Y007287D02*
X003846Y007287D01*
X004246Y007168D02*
X012079Y007168D01*
X012048Y007287D02*
X004275Y007287D01*
X004271Y007405D02*
X012048Y007405D01*
X012091Y007524D02*
X004233Y007524D01*
X004149Y007642D02*
X012172Y007642D01*
X012220Y007761D02*
X004115Y007761D01*
X004225Y007879D02*
X012111Y007879D01*
X012061Y007998D02*
X004274Y007998D01*
X004287Y008116D02*
X012048Y008116D01*
X012059Y008235D02*
X004276Y008235D01*
X004227Y008354D02*
X012108Y008354D01*
X012215Y008472D02*
X004120Y008472D01*
X004157Y008591D02*
X012178Y008591D01*
X012093Y008709D02*
X004242Y008709D01*
X004287Y008828D02*
X012048Y008828D01*
X012048Y008946D02*
X004287Y008946D01*
X004258Y009065D02*
X012077Y009065D01*
X012139Y009183D02*
X004196Y009183D01*
X004066Y009302D02*
X012269Y009302D01*
X012135Y009420D02*
X004200Y009420D01*
X004260Y009539D02*
X012075Y009539D01*
X012048Y009658D02*
X004287Y009658D01*
X004287Y009776D02*
X012048Y009776D01*
X012094Y009895D02*
X004241Y009895D01*
X004154Y010013D02*
X012181Y010013D01*
X012212Y010132D02*
X004123Y010132D01*
X004228Y010250D02*
X012107Y010250D01*
X012058Y010369D02*
X004277Y010369D01*
X004287Y010487D02*
X012048Y010487D01*
X012063Y010606D02*
X004272Y010606D01*
X004223Y010724D02*
X012112Y010724D01*
X012223Y010843D02*
X004112Y010843D01*
X004166Y010962D02*
X012169Y010962D01*
X012089Y011080D02*
X004246Y011080D01*
X004287Y011199D02*
X012048Y011199D01*
X012048Y011317D02*
X004287Y011317D01*
X004255Y011436D02*
X012080Y011436D01*
X012147Y011554D02*
X004188Y011554D01*
X004087Y011673D02*
X012248Y011673D01*
X012127Y011791D02*
X004208Y011791D01*
X004263Y011910D02*
X012072Y011910D01*
X012048Y012028D02*
X004287Y012028D01*
X004286Y012147D02*
X012049Y012147D01*
X012098Y012266D02*
X004237Y012266D01*
X004145Y012384D02*
X012190Y012384D01*
X012203Y012503D02*
X004132Y012503D01*
X003837Y012844D02*
X005008Y012844D01*
X007418Y015253D01*
X027168Y015253D01*
X027418Y015003D01*
X028168Y015003D01*
X028628Y014992D02*
X033708Y014992D01*
X033714Y015111D02*
X028621Y015111D01*
X028572Y015229D02*
X033763Y015229D01*
X033470Y015348D02*
X028474Y015348D01*
X028359Y015585D02*
X032976Y015585D01*
X032817Y015703D02*
X028518Y015703D01*
X028590Y015822D02*
X032745Y015822D01*
X032708Y015940D02*
X028628Y015940D01*
X028628Y016059D02*
X032708Y016059D01*
X032742Y016177D02*
X028593Y016177D01*
X028168Y016003D02*
X027668Y016003D01*
X027168Y015503D01*
X007168Y015503D01*
X005296Y013631D01*
X003837Y013631D01*
X003422Y013807D02*
X000928Y013807D01*
X000928Y013925D02*
X003495Y013925D01*
X003411Y014044D02*
X000928Y014044D01*
X000928Y014162D02*
X003387Y014162D01*
X003387Y014281D02*
X000928Y014281D01*
X000928Y014399D02*
X002011Y014399D01*
X001709Y014518D02*
X000928Y014518D01*
X000928Y014636D02*
X001499Y014636D01*
X001350Y014755D02*
X000928Y014755D01*
X000928Y014873D02*
X001201Y014873D01*
X001120Y014992D02*
X000928Y014992D01*
X000928Y015111D02*
X001039Y015111D01*
X000959Y015229D02*
X000928Y015229D01*
X002767Y014399D02*
X003387Y014399D01*
X003387Y014518D02*
X003128Y014518D01*
X003333Y014636D02*
X003387Y014636D01*
X003608Y014873D02*
X006213Y014873D01*
X006094Y014755D02*
X004287Y014755D01*
X004287Y014636D02*
X005976Y014636D01*
X005857Y014518D02*
X004287Y014518D01*
X004287Y014399D02*
X005738Y014399D01*
X005620Y014281D02*
X004287Y014281D01*
X004287Y014162D02*
X005501Y014162D01*
X005383Y014044D02*
X004262Y014044D01*
X004179Y013925D02*
X005264Y013925D01*
X005941Y013451D02*
X012086Y013451D01*
X012048Y013569D02*
X006059Y013569D01*
X006178Y013688D02*
X012048Y013688D01*
X012084Y013807D02*
X006296Y013807D01*
X006415Y013925D02*
X012156Y013925D01*
X012237Y014044D02*
X006533Y014044D01*
X006652Y014162D02*
X012118Y014162D01*
X012068Y014281D02*
X006770Y014281D01*
X006889Y014399D02*
X012048Y014399D01*
X012052Y014518D02*
X007007Y014518D01*
X007126Y014636D02*
X012101Y014636D01*
X012198Y014755D02*
X007245Y014755D01*
X007363Y014873D02*
X013988Y014873D01*
X013869Y014755D02*
X012798Y014755D01*
X012895Y014636D02*
X013782Y014636D01*
X013733Y014518D02*
X012944Y014518D01*
X012948Y014399D02*
X013687Y014399D01*
X013687Y014281D02*
X012928Y014281D01*
X012878Y014162D02*
X013687Y014162D01*
X013710Y014044D02*
X012760Y014044D01*
X012841Y013925D02*
X013759Y013925D01*
X013814Y013807D02*
X012913Y013807D01*
X012948Y013688D02*
X013932Y013688D01*
X014092Y013569D02*
X012948Y013569D01*
X012911Y013451D02*
X016438Y013451D01*
X016438Y013569D02*
X014825Y013569D01*
X014985Y013688D02*
X016438Y013688D01*
X016438Y013807D02*
X015104Y013807D01*
X015158Y013925D02*
X016288Y013925D01*
X016213Y014044D02*
X015207Y014044D01*
X015231Y014162D02*
X016168Y014162D01*
X016168Y014281D02*
X015231Y014281D01*
X015231Y014399D02*
X016187Y014399D01*
X016236Y014518D02*
X015185Y014518D01*
X015136Y014636D02*
X016344Y014636D01*
X016668Y014253D02*
X016668Y010503D01*
X017668Y009503D01*
X031668Y009503D01*
X032168Y009003D01*
X034168Y009003D01*
X034593Y008828D02*
X034988Y008828D01*
X034988Y008931D02*
X034988Y008575D01*
X035239Y008323D01*
X035596Y008323D01*
X035848Y008575D01*
X035848Y008931D01*
X035596Y009183D01*
X035239Y009183D01*
X034988Y008931D01*
X035003Y008946D02*
X034628Y008946D01*
X034628Y009065D02*
X035121Y009065D01*
X035714Y009065D02*
X038043Y009065D01*
X038043Y009183D02*
X034591Y009183D01*
X034519Y009302D02*
X038043Y009302D01*
X038043Y009420D02*
X034362Y009420D01*
X033973Y009420D02*
X032075Y009420D01*
X032194Y009302D02*
X033816Y009302D01*
X033863Y009658D02*
X031838Y009658D01*
X031957Y009539D02*
X038043Y009539D01*
X038043Y009658D02*
X034472Y009658D01*
X034571Y009776D02*
X037552Y009776D01*
X037783Y009776D02*
X038043Y009776D01*
X038043Y009895D02*
X037995Y009895D01*
X037340Y009895D02*
X036981Y009895D01*
X036864Y009778D02*
X036688Y009778D01*
X036688Y010233D01*
X036688Y010273D01*
X037143Y010273D01*
X037143Y010450D01*
X036864Y010728D01*
X036688Y010728D01*
X036688Y010273D01*
X036647Y010273D01*
X036647Y010233D01*
X036193Y010233D01*
X036193Y010056D01*
X036471Y009778D01*
X036647Y009778D01*
X036647Y010233D01*
X036688Y010233D01*
X037143Y010233D01*
X037143Y010056D01*
X036864Y009778D01*
X036688Y009895D02*
X036647Y009895D01*
X036647Y010013D02*
X036688Y010013D01*
X036688Y010132D02*
X036647Y010132D01*
X036647Y010250D02*
X034563Y010250D01*
X034612Y010132D02*
X036193Y010132D01*
X036236Y010013D02*
X034628Y010013D01*
X034620Y009895D02*
X036354Y009895D01*
X037099Y010013D02*
X037242Y010013D01*
X037193Y010132D02*
X037143Y010132D01*
X037183Y010250D02*
X036688Y010250D01*
X036647Y010273D02*
X036647Y010728D01*
X036471Y010728D01*
X036193Y010450D01*
X036193Y010273D01*
X036647Y010273D01*
X036647Y010369D02*
X036688Y010369D01*
X036688Y010487D02*
X036647Y010487D01*
X036647Y010606D02*
X036688Y010606D01*
X036688Y010724D02*
X036647Y010724D01*
X036467Y010724D02*
X034539Y010724D01*
X034411Y010606D02*
X036349Y010606D01*
X036230Y010487D02*
X032009Y010487D01*
X032127Y010369D02*
X033883Y010369D01*
X033772Y010250D02*
X032246Y010250D01*
X032168Y010003D02*
X031668Y010503D01*
X017668Y010503D01*
X016714Y010132D02*
X012785Y010132D01*
X012816Y010013D02*
X016832Y010013D01*
X016951Y009895D02*
X012902Y009895D01*
X012948Y009776D02*
X017069Y009776D01*
X017188Y009658D02*
X012948Y009658D01*
X012921Y009539D02*
X017306Y009539D01*
X017425Y009420D02*
X012861Y009420D01*
X012727Y009302D02*
X017544Y009302D01*
X018299Y009065D02*
X012920Y009065D01*
X012948Y008946D02*
X018299Y008946D01*
X018342Y008828D02*
X017346Y008828D01*
X016989Y008828D02*
X012948Y008828D01*
X012904Y008709D02*
X016854Y008709D01*
X016805Y008591D02*
X012819Y008591D01*
X012782Y008472D02*
X016799Y008472D01*
X016831Y008354D02*
X012888Y008354D01*
X012937Y008235D02*
X016915Y008235D01*
X016321Y007168D02*
X027738Y007168D01*
X027749Y006813D02*
X016879Y006813D01*
X016668Y006503D02*
X031668Y006503D01*
X032168Y006003D01*
X034168Y006003D01*
X033852Y006338D02*
X032158Y006338D01*
X032039Y006457D02*
X034061Y006457D01*
X033998Y006575D02*
X031920Y006575D01*
X031802Y006694D02*
X033826Y006694D01*
X032033Y006813D02*
X028586Y006813D01*
X028628Y006931D02*
X031914Y006931D01*
X031796Y007050D02*
X028628Y007050D01*
X028597Y007168D02*
X031677Y007168D01*
X031626Y006220D02*
X028576Y006220D01*
X028625Y006101D02*
X031744Y006101D01*
X031863Y005983D02*
X028628Y005983D01*
X028608Y005864D02*
X031981Y005864D01*
X031668Y005503D02*
X032168Y005003D01*
X034168Y005003D01*
X034603Y005153D02*
X037193Y005153D01*
X037215Y005034D02*
X034628Y005034D01*
X034628Y004916D02*
X037333Y004916D01*
X037452Y004797D02*
X034580Y004797D01*
X034494Y004679D02*
X039408Y004679D01*
X039408Y004797D02*
X038834Y004797D01*
X039016Y004916D02*
X039408Y004916D01*
X039408Y005034D02*
X039102Y005034D01*
X039151Y005153D02*
X039408Y005153D01*
X039408Y005271D02*
X039153Y005271D01*
X039136Y005390D02*
X039408Y005390D01*
X039408Y005509D02*
X039087Y005509D01*
X038979Y005627D02*
X039408Y005627D01*
X039408Y005746D02*
X038918Y005746D01*
X038918Y005864D02*
X039408Y005864D01*
X039408Y005983D02*
X038918Y005983D01*
X038918Y006101D02*
X039408Y006101D01*
X039408Y006220D02*
X038918Y006220D01*
X038918Y006338D02*
X039408Y006338D01*
X039408Y006457D02*
X038918Y006457D01*
X038918Y006575D02*
X039408Y006575D01*
X039408Y006694D02*
X038918Y006694D01*
X038918Y006813D02*
X039408Y006813D01*
X039408Y006931D02*
X038916Y006931D01*
X038850Y007050D02*
X039408Y007050D01*
X039408Y007168D02*
X038731Y007168D01*
X038612Y007287D02*
X039408Y007287D01*
X039408Y007405D02*
X038543Y007405D01*
X038543Y007524D02*
X039408Y007524D01*
X039408Y007642D02*
X038543Y007642D01*
X038543Y007761D02*
X039408Y007761D01*
X039408Y007879D02*
X038543Y007879D01*
X038543Y007998D02*
X039408Y007998D01*
X039408Y008116D02*
X038543Y008116D01*
X038543Y008235D02*
X039408Y008235D01*
X039408Y008354D02*
X038543Y008354D01*
X038543Y008472D02*
X039408Y008472D01*
X039386Y008591D02*
X038543Y008591D01*
X038543Y008709D02*
X039285Y008709D01*
X038687Y008828D02*
X038543Y008828D01*
X038043Y008828D02*
X035848Y008828D01*
X035848Y008709D02*
X038043Y008709D01*
X038043Y008591D02*
X035848Y008591D01*
X035745Y008472D02*
X038043Y008472D01*
X038043Y008354D02*
X035626Y008354D01*
X035662Y008116D02*
X036173Y008116D01*
X036239Y008183D02*
X035988Y007931D01*
X035988Y007575D01*
X036239Y007323D01*
X036596Y007323D01*
X036848Y007575D01*
X036848Y007931D01*
X036596Y008183D01*
X036239Y008183D01*
X036054Y007998D02*
X035781Y007998D01*
X035848Y007879D02*
X035988Y007879D01*
X035988Y007761D02*
X035848Y007761D01*
X035848Y007642D02*
X035988Y007642D01*
X036039Y007524D02*
X035796Y007524D01*
X035678Y007405D02*
X036157Y007405D01*
X036678Y007405D02*
X038043Y007405D01*
X038043Y007524D02*
X036796Y007524D01*
X036848Y007642D02*
X038043Y007642D01*
X038043Y007761D02*
X036848Y007761D01*
X036848Y007879D02*
X038043Y007879D01*
X038043Y007998D02*
X036781Y007998D01*
X036662Y008116D02*
X038043Y008116D01*
X038043Y008235D02*
X034569Y008235D01*
X034619Y008116D02*
X035173Y008116D01*
X035209Y008354D02*
X034468Y008354D01*
X034374Y008591D02*
X034988Y008591D01*
X034988Y008709D02*
X034524Y008709D01*
X033961Y008591D02*
X031905Y008591D01*
X031787Y008709D02*
X033811Y008709D01*
X033867Y008354D02*
X032142Y008354D01*
X032024Y008472D02*
X035090Y008472D01*
X035832Y008946D02*
X038043Y008946D01*
X037191Y010369D02*
X037143Y010369D01*
X037105Y010487D02*
X037240Y010487D01*
X037334Y010606D02*
X036986Y010606D01*
X036868Y010724D02*
X037538Y010724D01*
X037797Y010724D02*
X038043Y010724D01*
X038043Y010606D02*
X038001Y010606D01*
X036193Y010369D02*
X034452Y010369D01*
X033925Y010606D02*
X031890Y010606D01*
X031771Y010724D02*
X033796Y010724D01*
X033807Y011317D02*
X033831Y011317D01*
X033925Y011436D02*
X034010Y011436D01*
X034044Y011554D02*
X034049Y011554D01*
X033668Y011503D02*
X034168Y012003D01*
X033708Y012028D02*
X033628Y012028D01*
X033627Y011910D02*
X033708Y011910D01*
X033631Y011791D02*
X033578Y011791D01*
X033606Y012147D02*
X033729Y012147D01*
X033779Y012266D02*
X033556Y012266D01*
X033668Y012503D02*
X034168Y013003D01*
X034628Y012977D02*
X035033Y012977D01*
X034988Y012858D02*
X034605Y012858D01*
X034555Y012740D02*
X034988Y012740D01*
X034988Y012621D02*
X034436Y012621D01*
X034437Y012384D02*
X035179Y012384D01*
X035060Y012503D02*
X033992Y012503D01*
X033898Y012384D02*
X033874Y012384D01*
X034627Y013095D02*
X035152Y013095D01*
X035848Y012621D02*
X036354Y012621D01*
X036412Y012503D02*
X035775Y012503D01*
X035657Y012384D02*
X036533Y012384D01*
X036755Y012384D02*
X036793Y012384D01*
X036866Y013451D02*
X034288Y013451D01*
X034323Y013569D02*
X036748Y013569D01*
X036629Y013688D02*
X034503Y013688D01*
X034584Y013807D02*
X036511Y013807D01*
X036392Y013925D02*
X034628Y013925D01*
X034628Y014044D02*
X036274Y014044D01*
X036155Y014162D02*
X034600Y014162D01*
X034540Y014281D02*
X036036Y014281D01*
X035918Y014399D02*
X034413Y014399D01*
X033922Y014399D02*
X033413Y014399D01*
X033540Y014281D02*
X033795Y014281D01*
X033736Y014162D02*
X033600Y014162D01*
X033628Y014044D02*
X033708Y014044D01*
X033708Y013925D02*
X033628Y013925D01*
X033646Y013807D02*
X033584Y013807D01*
X033668Y013503D02*
X034168Y014003D01*
X034047Y013451D02*
X033941Y013451D01*
X033846Y013332D02*
X033822Y013332D01*
X033757Y013214D02*
X033578Y013214D01*
X033668Y013503D02*
X032168Y013503D01*
X031668Y014003D01*
X029168Y014003D01*
X028168Y014003D02*
X027543Y014003D01*
X026543Y013003D01*
X019668Y013003D01*
X020176Y013569D02*
X025510Y013569D01*
X025350Y013688D02*
X020058Y013688D01*
X019939Y013807D02*
X020439Y013807D01*
X020091Y013970D02*
X020168Y014154D01*
X020168Y014353D01*
X020091Y014536D01*
X019951Y014677D01*
X019767Y014753D01*
X019568Y014753D01*
X019384Y014677D01*
X019244Y014536D01*
X019168Y014353D01*
X019168Y014154D01*
X019168Y014353D01*
X019091Y014536D01*
X018951Y014677D01*
X018767Y014753D01*
X018568Y014753D01*
X018384Y014677D01*
X018244Y014536D01*
X018168Y014353D01*
X018168Y014154D01*
X018168Y014353D01*
X018091Y014536D01*
X017951Y014677D01*
X017767Y014753D01*
X017568Y014753D01*
X017384Y014677D01*
X017244Y014536D01*
X017168Y014353D01*
X017168Y014154D01*
X017091Y013970D01*
X017122Y014044D02*
X017213Y014044D01*
X017168Y014162D02*
X017168Y014162D01*
X017168Y014281D02*
X017168Y014281D01*
X017148Y014399D02*
X017187Y014399D01*
X017236Y014518D02*
X017099Y014518D01*
X016991Y014636D02*
X017344Y014636D01*
X017991Y014636D02*
X018344Y014636D01*
X018236Y014518D02*
X018099Y014518D01*
X018148Y014399D02*
X018187Y014399D01*
X018168Y014281D02*
X018168Y014281D01*
X018168Y014162D02*
X018168Y014162D01*
X018122Y014044D02*
X018213Y014044D01*
X018288Y013925D02*
X018047Y013925D01*
X017896Y013807D02*
X018439Y013807D01*
X018896Y013807D02*
X019438Y013807D01*
X019288Y013925D02*
X019047Y013925D01*
X019122Y014044D02*
X019213Y014044D01*
X019168Y014162D02*
X019168Y014162D01*
X019168Y014281D02*
X019168Y014281D01*
X019148Y014399D02*
X019187Y014399D01*
X019236Y014518D02*
X019099Y014518D01*
X018991Y014636D02*
X019344Y014636D01*
X019991Y014636D02*
X020344Y014636D01*
X020236Y014518D02*
X020099Y014518D01*
X020148Y014399D02*
X020187Y014399D01*
X020168Y014281D02*
X020168Y014281D01*
X020168Y014162D02*
X020168Y014162D01*
X020896Y013807D02*
X021439Y013807D01*
X021288Y013925D02*
X021047Y013925D01*
X021122Y014044D02*
X021213Y014044D01*
X021168Y014162D02*
X021168Y014162D01*
X021168Y014281D02*
X021168Y014281D01*
X021148Y014399D02*
X021187Y014399D01*
X021236Y014518D02*
X021099Y014518D01*
X020991Y014636D02*
X021344Y014636D01*
X021991Y014636D02*
X022344Y014636D01*
X022236Y014518D02*
X022099Y014518D01*
X022148Y014399D02*
X022187Y014399D01*
X022168Y014281D02*
X022168Y014281D01*
X022168Y014162D02*
X022168Y014162D01*
X022122Y014044D02*
X022213Y014044D01*
X022288Y013925D02*
X022047Y013925D01*
X021896Y013807D02*
X022439Y013807D01*
X022896Y013807D02*
X023465Y013807D01*
X023479Y013799D02*
X023553Y013775D01*
X023629Y013763D01*
X023639Y013763D01*
X023639Y014224D01*
X023696Y014224D01*
X023696Y013763D01*
X023706Y013763D01*
X023782Y013775D01*
X023856Y013799D01*
X023924Y013834D01*
X023987Y013879D01*
X024041Y013934D01*
X024087Y013996D01*
X024122Y014065D01*
X024145Y014138D01*
X024158Y014215D01*
X024158Y014224D01*
X023696Y014224D01*
X023696Y014282D01*
X023639Y014282D01*
X023639Y014743D01*
X023629Y014743D01*
X023553Y014731D01*
X023479Y014707D01*
X023411Y014672D01*
X023348Y014627D01*
X023294Y014572D01*
X023248Y014510D01*
X023213Y014441D01*
X023190Y014368D01*
X023178Y014292D01*
X023178Y014282D01*
X023639Y014282D01*
X023639Y014224D01*
X023178Y014224D01*
X023178Y014215D01*
X023190Y014138D01*
X023213Y014065D01*
X023248Y013996D01*
X023294Y013934D01*
X023348Y013879D01*
X023411Y013834D01*
X023479Y013799D01*
X023639Y013807D02*
X023696Y013807D01*
X023696Y013925D02*
X023639Y013925D01*
X023639Y014044D02*
X023696Y014044D01*
X023696Y014162D02*
X023639Y014162D01*
X023639Y014281D02*
X023168Y014281D01*
X023168Y014162D02*
X023186Y014162D01*
X023224Y014044D02*
X023122Y014044D01*
X023047Y013925D02*
X023303Y013925D01*
X023696Y014281D02*
X025104Y014281D01*
X025104Y014399D02*
X024135Y014399D01*
X024145Y014368D02*
X024122Y014441D01*
X024087Y014510D01*
X024041Y014572D01*
X023987Y014627D01*
X023924Y014672D01*
X023856Y014707D01*
X023782Y014731D01*
X023706Y014743D01*
X023696Y014743D01*
X023696Y014282D01*
X024158Y014282D01*
X024158Y014292D01*
X024145Y014368D01*
X024081Y014518D02*
X025150Y014518D01*
X025200Y014636D02*
X023974Y014636D01*
X023696Y014636D02*
X023639Y014636D01*
X023639Y014518D02*
X023696Y014518D01*
X023696Y014399D02*
X023639Y014399D01*
X023361Y014636D02*
X022991Y014636D01*
X023099Y014518D02*
X023254Y014518D01*
X023200Y014399D02*
X023148Y014399D01*
X024111Y014044D02*
X025128Y014044D01*
X025104Y014162D02*
X024149Y014162D01*
X024032Y013925D02*
X025177Y013925D01*
X025231Y013807D02*
X023870Y013807D01*
X025286Y014755D02*
X015049Y014755D01*
X014930Y014873D02*
X025405Y014873D01*
X025643Y014992D02*
X014692Y014992D01*
X014226Y014992D02*
X007482Y014992D01*
X006805Y015466D02*
X003981Y015466D01*
X004014Y015585D02*
X006924Y015585D01*
X007042Y015703D02*
X004032Y015703D01*
X004050Y015822D02*
X020995Y015822D01*
X020877Y015940D02*
X004068Y015940D01*
X004069Y016059D02*
X020758Y016059D01*
X020705Y016177D02*
X018601Y016177D01*
X018570Y016160D02*
X018645Y016203D01*
X018714Y016256D01*
X018775Y016317D01*
X018828Y016386D01*
X018871Y016461D01*
X018904Y016541D01*
X018926Y016624D01*
X018936Y016693D01*
X018338Y016693D01*
X018338Y016813D01*
X018936Y016813D01*
X018926Y016882D01*
X018904Y016966D01*
X018871Y017046D01*
X018828Y017121D01*
X018775Y017189D01*
X018714Y017250D01*
X018645Y017303D01*
X018570Y017346D01*
X018490Y017379D01*
X018407Y017402D01*
X018338Y017411D01*
X018338Y016813D01*
X018218Y016813D01*
X018218Y017411D01*
X018149Y017402D01*
X018065Y017379D01*
X017985Y017346D01*
X017910Y017303D01*
X017842Y017250D01*
X017781Y017189D01*
X017728Y017121D01*
X017685Y017046D01*
X017651Y016966D01*
X017629Y016882D01*
X017620Y016813D01*
X018218Y016813D01*
X018218Y016693D01*
X018338Y016693D01*
X018338Y016095D01*
X018407Y016104D01*
X018490Y016127D01*
X018570Y016160D01*
X018754Y016296D02*
X020705Y016296D01*
X020657Y016415D02*
X020465Y016415D01*
X019870Y016415D02*
X019717Y016415D01*
X019122Y016415D02*
X018844Y016415D01*
X018901Y016533D02*
X019024Y016533D01*
X018974Y016652D02*
X018930Y016652D01*
X018970Y016770D02*
X018338Y016770D01*
X018338Y016652D02*
X018218Y016652D01*
X018218Y016693D02*
X018218Y016095D01*
X018149Y016104D01*
X018065Y016127D01*
X017985Y016160D01*
X017910Y016203D01*
X017842Y016256D01*
X017781Y016317D01*
X017728Y016386D01*
X017685Y016461D01*
X017651Y016541D01*
X017629Y016624D01*
X017620Y016693D01*
X018218Y016693D01*
X018218Y016770D02*
X003870Y016770D01*
X003927Y016652D02*
X017625Y016652D01*
X017655Y016533D02*
X003984Y016533D01*
X004016Y016415D02*
X017711Y016415D01*
X017802Y016296D02*
X004033Y016296D01*
X004051Y016177D02*
X017955Y016177D01*
X018218Y016177D02*
X018338Y016177D01*
X018338Y016296D02*
X018218Y016296D01*
X018218Y016415D02*
X018338Y016415D01*
X018338Y016533D02*
X018218Y016533D01*
X018218Y016889D02*
X018338Y016889D01*
X018338Y017007D02*
X018218Y017007D01*
X018218Y017126D02*
X018338Y017126D01*
X018338Y017244D02*
X018218Y017244D01*
X018218Y017363D02*
X018338Y017363D01*
X018530Y017363D02*
X021805Y017363D01*
X021997Y017363D02*
X022117Y017363D01*
X022117Y017244D02*
X021997Y017244D01*
X021997Y017126D02*
X022117Y017126D01*
X022117Y017007D02*
X021997Y017007D01*
X021997Y016889D02*
X022117Y016889D01*
X022117Y016770D02*
X027781Y016770D01*
X027732Y016889D02*
X022704Y016889D01*
X022666Y017007D02*
X028132Y017007D01*
X028203Y017007D02*
X032818Y017007D01*
X032700Y016889D02*
X028604Y016889D01*
X028554Y016770D02*
X032581Y016770D01*
X033051Y016533D02*
X036363Y016533D01*
X036327Y016415D02*
X034351Y016415D01*
X034203Y016453D02*
X034203Y016038D01*
X034132Y016038D01*
X034132Y016059D02*
X034203Y016059D01*
X034203Y016177D02*
X034132Y016177D01*
X034132Y016296D02*
X034203Y016296D01*
X034614Y016059D02*
X036276Y016059D01*
X036276Y015940D02*
X034613Y015940D01*
X034580Y015822D02*
X036276Y015822D01*
X036400Y016652D02*
X034467Y016652D01*
X034569Y016770D02*
X036454Y016770D01*
X036535Y016889D02*
X034618Y016889D01*
X034628Y017007D02*
X036616Y017007D01*
X036696Y017126D02*
X034615Y017126D01*
X034566Y017244D02*
X036841Y017244D01*
X036990Y017363D02*
X034458Y017363D01*
X033877Y017363D02*
X028438Y017363D01*
X028549Y017244D02*
X033097Y017244D01*
X032937Y017126D02*
X028601Y017126D01*
X028203Y017126D02*
X028132Y017126D01*
X028132Y017244D02*
X028203Y017244D01*
X028203Y017363D02*
X028132Y017363D01*
X027897Y017363D02*
X022310Y017363D01*
X022499Y017244D02*
X027787Y017244D01*
X027734Y017126D02*
X022603Y017126D01*
X022710Y016652D02*
X026963Y016652D01*
X026844Y016533D02*
X022680Y016533D01*
X022624Y016415D02*
X026725Y016415D01*
X026607Y016296D02*
X022534Y016296D01*
X021410Y016889D02*
X021386Y016889D01*
X021337Y017007D02*
X021448Y017007D01*
X021511Y017126D02*
X021219Y017126D01*
X021615Y017244D02*
X018720Y017244D01*
X018824Y017126D02*
X019156Y017126D01*
X019038Y017007D02*
X018887Y017007D01*
X018925Y016889D02*
X018989Y016889D01*
X019683Y017126D02*
X019904Y017126D01*
X020431Y017126D02*
X020691Y017126D01*
X020573Y017007D02*
X020549Y017007D01*
X018025Y017363D02*
X003345Y017363D01*
X003505Y017244D02*
X017836Y017244D01*
X017732Y017126D02*
X003615Y017126D01*
X003725Y017007D02*
X017669Y017007D01*
X017631Y016889D02*
X003813Y016889D01*
X003140Y017481D02*
X037191Y017481D01*
X033351Y015466D02*
X027456Y015466D01*
X027398Y015348D02*
X027862Y015348D01*
X027976Y015585D02*
X027574Y015585D01*
X027693Y015703D02*
X027817Y015703D01*
X027161Y015822D02*
X026840Y015822D01*
X026958Y015940D02*
X027280Y015940D01*
X027398Y016059D02*
X027077Y016059D01*
X027195Y016177D02*
X027517Y016177D01*
X028612Y014873D02*
X033723Y014873D01*
X033772Y014755D02*
X029936Y014755D01*
X030011Y014636D02*
X033884Y014636D01*
X032736Y014162D02*
X031834Y014162D01*
X031952Y014044D02*
X032708Y014044D01*
X032708Y013925D02*
X032071Y013925D01*
X032189Y013807D02*
X032751Y013807D01*
X031668Y012503D02*
X032668Y011503D01*
X033668Y011503D01*
X032528Y011317D02*
X032179Y011317D01*
X032060Y011436D02*
X032410Y011436D01*
X032291Y011554D02*
X031942Y011554D01*
X031823Y011673D02*
X032173Y011673D01*
X032054Y011791D02*
X028578Y011791D01*
X028627Y011910D02*
X031936Y011910D01*
X031817Y012028D02*
X028628Y012028D01*
X028606Y012147D02*
X031698Y012147D01*
X031580Y012266D02*
X028556Y012266D01*
X028168Y012003D02*
X027168Y012003D01*
X026793Y011628D01*
X023668Y011628D01*
X023168Y012003D02*
X026668Y012003D01*
X027168Y012503D01*
X031668Y012503D01*
X031647Y011199D02*
X028584Y011199D01*
X028628Y011080D02*
X031765Y011080D01*
X031884Y010962D02*
X028628Y010962D01*
X028599Y010843D02*
X032002Y010843D01*
X031595Y010250D02*
X028563Y010250D01*
X028612Y010132D02*
X031714Y010132D01*
X031832Y010013D02*
X028628Y010013D01*
X028620Y009895D02*
X031951Y009895D01*
X032069Y009776D02*
X028571Y009776D01*
X028168Y010003D02*
X020168Y010003D01*
X018668Y009003D02*
X028168Y009003D01*
X028593Y008828D02*
X032018Y008828D01*
X031899Y008946D02*
X028628Y008946D01*
X028628Y009065D02*
X031781Y009065D01*
X031662Y009183D02*
X028591Y009183D01*
X032168Y010003D02*
X034168Y010003D01*
X033766Y008235D02*
X032261Y008235D01*
X027776Y005746D02*
X022946Y005746D01*
X022668Y005503D02*
X031668Y005503D01*
X032106Y005390D02*
X033904Y005390D01*
X033785Y005271D02*
X032224Y005271D01*
X032498Y004323D02*
X032837Y004323D01*
X032753Y004205D02*
X032582Y004205D01*
X032628Y004086D02*
X032708Y004086D01*
X032708Y003967D02*
X032628Y003967D01*
X032602Y003849D02*
X032734Y003849D01*
X032790Y003730D02*
X032545Y003730D01*
X032425Y003612D02*
X032910Y003612D01*
X033425Y003612D02*
X033910Y003612D01*
X033790Y003730D02*
X033545Y003730D01*
X033602Y003849D02*
X033734Y003849D01*
X033708Y003967D02*
X033628Y003967D01*
X033628Y004086D02*
X033708Y004086D01*
X033753Y004205D02*
X033582Y004205D01*
X033498Y004323D02*
X033837Y004323D01*
X033841Y004679D02*
X029846Y004679D01*
X029489Y004679D02*
X029168Y004679D01*
X034300Y004560D02*
X039408Y004560D01*
X039408Y004442D02*
X034311Y004442D01*
X034498Y004323D02*
X039408Y004323D01*
X039408Y004205D02*
X034582Y004205D01*
X034628Y004086D02*
X035142Y004086D01*
X035024Y003967D02*
X034628Y003967D01*
X034602Y003849D02*
X034988Y003849D01*
X034988Y003730D02*
X034545Y003730D01*
X034425Y003612D02*
X034988Y003612D01*
X038246Y003612D02*
X039408Y003612D01*
X039408Y003493D02*
X038619Y003493D01*
X038825Y003375D02*
X039408Y003375D01*
X039408Y003256D02*
X038994Y003256D01*
X039104Y003138D02*
X039408Y003138D01*
X039408Y003019D02*
X039214Y003019D01*
X039307Y002901D02*
X039408Y002901D01*
X039408Y002782D02*
X039364Y002782D01*
X038199Y005390D02*
X038143Y005390D01*
X038084Y005509D02*
X038248Y005509D01*
X038356Y005627D02*
X037965Y005627D01*
X028168Y011003D02*
X018168Y011003D01*
X016595Y010250D02*
X012890Y010250D01*
X012939Y010369D02*
X016477Y010369D01*
X016438Y010487D02*
X012948Y010487D01*
X012934Y010606D02*
X016438Y010606D01*
X016438Y010724D02*
X012885Y010724D01*
X012773Y010843D02*
X016438Y010843D01*
X016438Y010962D02*
X012827Y010962D01*
X012907Y011080D02*
X016438Y011080D01*
X016438Y011199D02*
X012948Y011199D01*
X012948Y011317D02*
X016438Y011317D01*
X016438Y011436D02*
X012916Y011436D01*
X012849Y011554D02*
X016438Y011554D01*
X016438Y011673D02*
X012748Y011673D01*
X012870Y011791D02*
X016438Y011791D01*
X016438Y011910D02*
X012925Y011910D01*
X012948Y012028D02*
X016438Y012028D01*
X016438Y012147D02*
X012948Y012147D01*
X012899Y012266D02*
X016438Y012266D01*
X016438Y012384D02*
X012807Y012384D01*
X012794Y012503D02*
X016438Y012503D01*
X016438Y012621D02*
X012893Y012621D01*
X012942Y012740D02*
X016438Y012740D01*
X016438Y012858D02*
X012948Y012858D01*
X012930Y012977D02*
X016438Y012977D01*
X016438Y013095D02*
X012881Y013095D01*
X012764Y013214D02*
X016438Y013214D01*
X016438Y013332D02*
X012836Y013332D01*
X012232Y013214D02*
X005704Y013214D01*
X005822Y013332D02*
X012161Y013332D01*
X012115Y013095D02*
X005585Y013095D01*
X005466Y012977D02*
X012066Y012977D01*
X012048Y012858D02*
X005348Y012858D01*
X005229Y012740D02*
X012054Y012740D01*
X012103Y012621D02*
X005111Y012621D01*
X003542Y012503D02*
X000928Y012503D01*
X000928Y012621D02*
X003442Y012621D01*
X003393Y012740D02*
X000928Y012740D01*
X000928Y012858D02*
X003387Y012858D01*
X003405Y012977D02*
X000928Y012977D01*
X000928Y013095D02*
X003454Y013095D01*
X003571Y013214D02*
X000928Y013214D01*
X000928Y013332D02*
X003499Y013332D01*
X003424Y013451D02*
X000928Y013451D01*
X000928Y013569D02*
X003387Y013569D01*
X003387Y013688D02*
X000928Y013688D01*
X000928Y012384D02*
X003528Y012384D01*
X003436Y012266D02*
X000928Y012266D01*
X000928Y012147D02*
X003387Y012147D01*
X003387Y012028D02*
X000928Y012028D01*
X000928Y011910D02*
X003410Y011910D01*
X003465Y011791D02*
X000928Y011791D01*
X000928Y011673D02*
X003587Y011673D01*
X003486Y011554D02*
X000928Y011554D01*
X000928Y011436D02*
X003419Y011436D01*
X003387Y011317D02*
X000928Y011317D01*
X000928Y011199D02*
X003387Y011199D01*
X003428Y011080D02*
X000928Y011080D01*
X000928Y010962D02*
X003508Y010962D01*
X003562Y010843D02*
X000928Y010843D01*
X000928Y010724D02*
X003450Y010724D01*
X003401Y010606D02*
X000928Y010606D01*
X000928Y010487D02*
X003387Y010487D01*
X003396Y010369D02*
X000928Y010369D01*
X000928Y010250D02*
X003446Y010250D01*
X003550Y010132D02*
X000928Y010132D01*
X000928Y010013D02*
X003520Y010013D01*
X003433Y009895D02*
X000928Y009895D01*
X000928Y009776D02*
X003387Y009776D01*
X003387Y009658D02*
X000928Y009658D01*
X000928Y009539D02*
X003414Y009539D01*
X003474Y009420D02*
X000928Y009420D01*
X000928Y009302D02*
X003608Y009302D01*
X003477Y009183D02*
X000928Y009183D01*
X000928Y009065D02*
X003415Y009065D01*
X003387Y008946D02*
X000928Y008946D01*
X000928Y008828D02*
X003387Y008828D01*
X003432Y008709D02*
X000928Y008709D01*
X000928Y008591D02*
X003516Y008591D01*
X003553Y008472D02*
X000928Y008472D01*
X000928Y008354D02*
X003447Y008354D01*
X003398Y008235D02*
X000928Y008235D01*
X000928Y008116D02*
X003387Y008116D01*
X003400Y007998D02*
X000928Y007998D01*
X000928Y007879D02*
X003449Y007879D01*
X003559Y007761D02*
X000928Y007761D01*
X000928Y007642D02*
X003525Y007642D01*
X003441Y007524D02*
X000928Y007524D01*
X000928Y007405D02*
X003403Y007405D01*
X003399Y007287D02*
X000928Y007287D01*
X000928Y007168D02*
X003427Y007168D01*
X003498Y007050D02*
X000928Y007050D01*
X000928Y006931D02*
X003654Y006931D01*
X004176Y007050D02*
X012144Y007050D01*
X016299Y006575D02*
X000928Y006575D01*
X000928Y006457D02*
X016299Y006457D01*
X016337Y006338D02*
X000928Y006338D01*
X000928Y006220D02*
X016430Y006220D01*
X016348Y006694D02*
X000928Y006694D01*
X000928Y006813D02*
X016456Y006813D01*
X020432Y005153D02*
X020903Y005153D01*
X020973Y005223D02*
X020698Y004948D01*
X020698Y004558D01*
X020973Y004283D01*
X021362Y004283D01*
X021638Y004558D01*
X021638Y004948D01*
X021362Y005223D01*
X020973Y005223D01*
X020784Y005034D02*
X020551Y005034D01*
X020638Y004916D02*
X020698Y004916D01*
X020698Y004797D02*
X020638Y004797D01*
X020638Y004679D02*
X020698Y004679D01*
X020698Y004560D02*
X020638Y004560D01*
X020521Y004442D02*
X020814Y004442D01*
X020933Y004323D02*
X020402Y004323D01*
X020381Y004205D02*
X020954Y004205D01*
X020973Y004223D02*
X020698Y003948D01*
X020698Y003558D01*
X020973Y003283D01*
X021362Y003283D01*
X021638Y003558D01*
X021638Y003948D01*
X021362Y004223D01*
X020973Y004223D01*
X020836Y004086D02*
X020499Y004086D01*
X020618Y003967D02*
X020717Y003967D01*
X020698Y003849D02*
X020638Y003849D01*
X020638Y003730D02*
X020698Y003730D01*
X020698Y003612D02*
X020638Y003612D01*
X020572Y003493D02*
X020763Y003493D01*
X020881Y003375D02*
X020454Y003375D01*
X020835Y002901D02*
X021092Y002901D01*
X020974Y002782D02*
X020954Y002782D01*
X021058Y002541D02*
X021300Y002783D01*
X021300Y002776D02*
X021300Y002071D01*
X021540Y002063D02*
X021055Y002063D01*
X020959Y001834D02*
X020723Y001834D01*
X020292Y001834D02*
X020053Y001834D01*
X020172Y001952D02*
X020173Y001952D01*
X019372Y001834D02*
X019073Y001834D01*
X019192Y001952D02*
X019253Y001952D01*
X021530Y002308D02*
X021627Y002308D01*
X021530Y002426D02*
X021746Y002426D01*
X021864Y002545D02*
X021530Y002545D01*
X021530Y002664D02*
X021622Y002664D01*
X021598Y002782D02*
X021530Y002782D01*
X021530Y002871D02*
X021530Y002871D01*
X021508Y002901D02*
X021620Y002901D01*
X021828Y002783D02*
X022318Y002783D01*
X022318Y002673D01*
X021828Y002183D01*
X021828Y002063D01*
X021732Y001834D02*
X021636Y001834D01*
X021454Y003375D02*
X021881Y003375D01*
X021763Y003493D02*
X021572Y003493D01*
X021638Y003612D02*
X021698Y003612D01*
X021698Y003730D02*
X021638Y003730D01*
X021638Y003849D02*
X021698Y003849D01*
X021717Y003967D02*
X021618Y003967D01*
X021499Y004086D02*
X021836Y004086D01*
X021954Y004205D02*
X021381Y004205D01*
X021402Y004323D02*
X021933Y004323D01*
X021814Y004442D02*
X021521Y004442D01*
X021638Y004560D02*
X021698Y004560D01*
X021698Y004679D02*
X021638Y004679D01*
X021638Y004797D02*
X021698Y004797D01*
X021698Y004916D02*
X021638Y004916D01*
X021551Y005034D02*
X021784Y005034D01*
X021903Y005153D02*
X021432Y005153D01*
X023499Y004086D02*
X023850Y004086D01*
X023731Y003967D02*
X023618Y003967D01*
X023638Y003849D02*
X023708Y003849D01*
X018344Y009183D02*
X012858Y009183D01*
X001722Y003493D02*
X000928Y003493D01*
X000928Y003375D02*
X001505Y003375D01*
X001356Y003256D02*
X000928Y003256D01*
X000928Y003138D02*
X001208Y003138D01*
X001124Y003019D02*
X000928Y003019D01*
X000928Y002901D02*
X001043Y002901D01*
X000962Y002782D02*
X000928Y002782D01*
X003719Y014992D02*
X006331Y014992D01*
X006450Y015111D02*
X003810Y015111D01*
X003867Y015229D02*
X006568Y015229D01*
X006687Y015348D02*
X003924Y015348D01*
X028563Y014755D02*
X029399Y014755D01*
X032932Y016415D02*
X032959Y016415D01*
X038267Y014399D02*
X039408Y014399D01*
X039408Y014518D02*
X038628Y014518D01*
X038833Y014636D02*
X039408Y014636D01*
X039408Y014755D02*
X038999Y014755D01*
X039109Y014873D02*
X039408Y014873D01*
X039408Y014992D02*
X039219Y014992D01*
X039310Y015111D02*
X039408Y015111D01*
X039408Y015229D02*
X039367Y015229D01*
D19*
X024168Y004753D03*
X023168Y004753D03*
X022168Y004753D03*
X021168Y004753D03*
X020168Y004753D03*
X019168Y004753D03*
X018168Y004753D03*
X017168Y004753D03*
X016168Y004753D03*
X016168Y003753D03*
X017168Y003753D03*
X018168Y003753D03*
X019168Y003753D03*
X020168Y003753D03*
X021168Y003753D03*
X022168Y003753D03*
X023168Y003753D03*
X024168Y003753D03*
D20*
X022668Y005503D03*
X020668Y008003D03*
X018668Y009003D03*
X017168Y008503D03*
X016168Y007503D03*
X016668Y006503D03*
X020168Y010003D03*
X018168Y011003D03*
X017668Y010503D03*
X017168Y012503D03*
X019668Y013003D03*
X021668Y011628D03*
X022168Y011503D03*
X023168Y012003D03*
X023668Y011628D03*
X029168Y013003D03*
X029168Y014003D03*
X029668Y014503D03*
X029668Y005003D03*
D21*
X038293Y007253D02*
X038668Y006878D01*
X038668Y005253D01*
X038293Y007253D02*
X038293Y012878D01*
X037668Y013503D01*
X037168Y013503D01*
X035168Y015503D01*
X033668Y015503D01*
X033168Y016003D01*
X032668Y016503D02*
X033168Y017003D01*
X034168Y017003D01*
X032668Y016503D02*
X027168Y016503D01*
X026668Y016003D01*
X021168Y016003D01*
X020955Y016216D01*
X020955Y016753D01*
M02*
