G75*
G70*
%OFA0B0*%
%FSLAX24Y24*%
%IPPOS*%
%LPD*%
%AMOC8*
5,1,8,0,0,1.08239X$1,22.5*
%
%ADD10C,0.0560*%
%ADD11R,0.0560X0.0560*%
%ADD12C,0.0580*%
%ADD13OC8,0.0520*%
%ADD14C,0.0660*%
%ADD15R,0.0217X0.0472*%
%ADD16OC8,0.0630*%
%ADD17C,0.0630*%
%ADD18C,0.1000*%
%ADD19OC8,0.0600*%
%ADD20C,0.0396*%
%ADD21C,0.0120*%
%ADD22C,0.0160*%
D10*
X003837Y007332D03*
X003837Y008119D03*
X003837Y008907D03*
X003837Y009694D03*
X003837Y010481D03*
X003837Y011269D03*
X003837Y012056D03*
X003837Y012844D03*
X003837Y013631D03*
X012498Y013631D03*
X012498Y012844D03*
X012498Y012056D03*
X012498Y011269D03*
X012498Y010481D03*
X012498Y009694D03*
X012498Y008907D03*
X012498Y008119D03*
X012498Y007332D03*
X012498Y014419D03*
X019420Y016753D03*
X020168Y016753D03*
X020955Y016753D03*
X036774Y012753D03*
X037561Y012753D03*
D11*
X003837Y014419D03*
D12*
X028168Y014003D03*
X028168Y013003D03*
X028168Y012003D03*
X028168Y011003D03*
X028168Y010003D03*
X028168Y009003D03*
X028168Y008003D03*
X028168Y007003D03*
X028168Y006003D03*
X028168Y005003D03*
X028168Y004003D03*
X029168Y004003D03*
X030168Y004003D03*
X031168Y004003D03*
X032168Y004003D03*
X033168Y004003D03*
X034168Y004003D03*
X034168Y005003D03*
X034168Y006003D03*
X034168Y007003D03*
X034168Y008003D03*
X034168Y009003D03*
X034168Y010003D03*
X034168Y011003D03*
X034168Y012003D03*
X033168Y012003D03*
X033168Y013003D03*
X034168Y013003D03*
X034168Y014003D03*
X033168Y014003D03*
X034168Y015003D03*
X034168Y016003D03*
X033168Y016003D03*
X034168Y017003D03*
X028168Y017003D03*
X028168Y016003D03*
X028168Y015003D03*
D13*
X035418Y012753D03*
X035418Y008753D03*
X035418Y007753D03*
X036418Y007753D03*
X036418Y003753D03*
X035418Y003753D03*
X035168Y001753D03*
X034168Y001753D03*
X030168Y001753D03*
X029168Y001753D03*
X012668Y005753D03*
X008668Y005753D03*
X007668Y005753D03*
X003668Y005753D03*
X005168Y001753D03*
X006168Y001753D03*
X010168Y001753D03*
X011168Y001753D03*
D14*
X016668Y014253D03*
X017668Y014253D03*
X018668Y014253D03*
X019668Y014253D03*
X020668Y014253D03*
X021668Y014253D03*
X022668Y014253D03*
X023668Y014253D03*
D15*
X037294Y008265D03*
X037668Y008265D03*
X038042Y008265D03*
X038042Y007241D03*
X037294Y007241D03*
D16*
X037668Y005253D03*
X036668Y010253D03*
D17*
X037668Y010253D03*
X038668Y005253D03*
D18*
X022057Y016753D03*
X018278Y016753D03*
D19*
X018168Y004753D03*
X019168Y004753D03*
X020168Y004753D03*
X021168Y004753D03*
X022168Y004753D03*
X023168Y004753D03*
X024168Y004753D03*
X024168Y003753D03*
X023168Y003753D03*
X022168Y003753D03*
X021168Y003753D03*
X020168Y003753D03*
X019168Y003753D03*
X018168Y003753D03*
X017168Y003753D03*
X016168Y003753D03*
X016168Y004753D03*
X017168Y004753D03*
D20*
X016668Y006503D03*
X016168Y007503D03*
X017168Y008503D03*
X018668Y009003D03*
X020168Y010003D03*
X018168Y011003D03*
X017668Y010503D03*
X017168Y012503D03*
X019668Y013003D03*
X021668Y011628D03*
X022168Y011503D03*
X023168Y012003D03*
X023668Y011628D03*
X029168Y013003D03*
X029168Y014003D03*
X029668Y014503D03*
X020668Y008003D03*
X022668Y005503D03*
X029668Y005003D03*
D21*
X003453Y000705D02*
X003120Y000513D01*
X037221Y000513D01*
X037088Y000566D01*
X037088Y000566D01*
X036701Y000874D01*
X036701Y000874D01*
X036701Y000874D01*
X036422Y001283D01*
X036422Y001283D01*
X036276Y001756D01*
X036276Y001756D01*
X036276Y002251D01*
X036276Y002251D01*
X036422Y002723D01*
X036422Y002723D01*
X036701Y003132D01*
X036701Y003132D01*
X036701Y003132D01*
X037088Y003441D01*
X037088Y003441D01*
X037548Y003621D01*
X037548Y003621D01*
X038042Y003658D01*
X038042Y003658D01*
X038524Y003548D01*
X038524Y003548D01*
X038952Y003301D01*
X038953Y003301D01*
X039289Y002938D01*
X039289Y002938D01*
X039408Y002692D01*
X039408Y008451D01*
X039408Y008473D01*
X039408Y008503D01*
X039403Y008550D01*
X039367Y008636D01*
X039301Y008703D01*
X039214Y008739D01*
X039168Y008743D01*
X039094Y008743D01*
X039043Y008743D01*
X038991Y008743D01*
X038891Y008743D01*
X038891Y008743D01*
X038612Y008859D01*
X038612Y008859D01*
X038398Y009073D01*
X038398Y009073D01*
X038283Y009352D01*
X038283Y009352D01*
X038283Y009451D01*
X038283Y013326D01*
X038283Y013374D01*
X038283Y013430D01*
X038283Y013529D01*
X038283Y013529D01*
X038398Y013809D01*
X038398Y013809D01*
X038612Y014022D01*
X038612Y014022D01*
X038891Y014138D01*
X038891Y014138D01*
X038991Y014138D01*
X039116Y014138D01*
X039122Y014138D01*
X039168Y014138D01*
X039214Y014143D01*
X039301Y014179D01*
X039367Y014245D01*
X039403Y014331D01*
X039408Y014378D01*
X039408Y015314D01*
X039289Y015068D01*
X039289Y015068D01*
X038953Y014705D01*
X038952Y014705D01*
X038524Y014458D01*
X038524Y014458D01*
X038042Y014348D01*
X038042Y014348D01*
X037548Y014385D01*
X037548Y014385D01*
X037088Y014566D01*
X037088Y014566D01*
X036701Y014874D01*
X036701Y014874D01*
X036701Y014874D01*
X036422Y015283D01*
X036276Y015756D01*
X036276Y016251D01*
X036422Y016723D01*
X036701Y017132D01*
X036701Y017132D01*
X037088Y017441D01*
X037088Y017441D01*
X037221Y017493D01*
X003120Y017493D01*
X003452Y017301D01*
X003453Y017301D01*
X003789Y016938D01*
X003789Y016938D01*
X004004Y016492D01*
X004004Y016492D01*
X004078Y016003D01*
X004004Y015514D01*
X004004Y015514D01*
X003789Y015068D01*
X003789Y015068D01*
X003604Y014868D01*
X003929Y014868D01*
X004456Y015395D01*
X004526Y015465D01*
X004618Y015503D01*
X021717Y015503D01*
X026814Y015503D01*
X027026Y015715D01*
X027118Y015753D01*
X027217Y015753D01*
X027773Y015753D01*
X027708Y015912D01*
X027708Y016095D01*
X027773Y016253D01*
X027271Y016253D01*
X026809Y015791D01*
X026717Y015753D01*
X026618Y015753D01*
X020368Y015753D01*
X020276Y015791D01*
X020206Y015862D01*
X019956Y016112D01*
X019918Y016203D01*
X019918Y016303D01*
X019918Y016370D01*
X019913Y016372D01*
X019794Y016491D01*
X019674Y016372D01*
X019509Y016303D01*
X019330Y016303D01*
X019165Y016372D01*
X019038Y016498D01*
X018970Y016664D01*
X018970Y016843D01*
X019038Y017008D01*
X019165Y017135D01*
X019330Y017203D01*
X019509Y017203D01*
X019674Y017135D01*
X019794Y017015D01*
X019913Y017135D01*
X020078Y017203D01*
X020257Y017203D01*
X020422Y017135D01*
X020549Y017008D01*
X020561Y016978D01*
X020573Y017008D01*
X020700Y017135D01*
X020865Y017203D01*
X021044Y017203D01*
X021210Y017135D01*
X021336Y017008D01*
X021404Y016845D01*
X021409Y016882D01*
X021431Y016966D01*
X021464Y017046D01*
X021507Y017121D01*
X021560Y017189D01*
X021621Y017250D01*
X021690Y017303D01*
X021765Y017346D01*
X021845Y017379D01*
X021928Y017402D01*
X021997Y017411D01*
X021997Y016813D01*
X022117Y016813D01*
X022117Y017411D01*
X022186Y017402D01*
X022270Y017379D01*
X022350Y017346D01*
X022425Y017303D01*
X022493Y017250D01*
X022555Y017189D01*
X022607Y017121D01*
X022651Y017046D01*
X022684Y016966D01*
X022706Y016882D01*
X022715Y016813D01*
X022117Y016813D01*
X022117Y016693D01*
X022715Y016693D01*
X022706Y016624D01*
X022684Y016541D01*
X022651Y016461D01*
X022607Y016386D01*
X022555Y016317D01*
X022493Y016256D01*
X022490Y016253D01*
X026564Y016253D01*
X026956Y016645D01*
X027026Y016715D01*
X027118Y016753D01*
X027793Y016753D01*
X027783Y016767D01*
X027751Y016830D01*
X027729Y016898D01*
X027718Y016968D01*
X027718Y016968D01*
X028132Y016968D01*
X028132Y017038D01*
X027718Y017038D01*
X027718Y017039D01*
X027729Y017109D01*
X027751Y017176D01*
X027783Y017239D01*
X027824Y017296D01*
X027874Y017346D01*
X027932Y017388D01*
X027995Y017420D01*
X028062Y017442D01*
X028132Y017453D01*
X028132Y017453D01*
X028132Y017038D01*
X028203Y017038D01*
X028618Y017038D01*
X028618Y017039D01*
X028606Y017109D01*
X028585Y017176D01*
X028552Y017239D01*
X028511Y017296D01*
X028461Y017346D01*
X028403Y017388D01*
X028340Y017420D01*
X028273Y017442D01*
X028203Y017453D01*
X028203Y017453D01*
X028203Y017038D01*
X028203Y016968D01*
X028618Y016968D01*
X028618Y016968D01*
X028606Y016898D01*
X028585Y016830D01*
X028552Y016767D01*
X028542Y016753D01*
X033773Y016753D01*
X033708Y016912D01*
X033708Y017095D01*
X033778Y017264D01*
X033907Y017393D01*
X034076Y017463D01*
X034259Y017463D01*
X034428Y017393D01*
X034557Y017264D01*
X034628Y017095D01*
X034628Y016912D01*
X034562Y016753D01*
X035118Y016753D01*
X035217Y016753D01*
X035309Y016715D01*
X035809Y016215D01*
X035879Y016145D01*
X035918Y016053D01*
X035918Y014607D01*
X036271Y014253D01*
X037243Y014253D01*
X037342Y014253D01*
X037434Y014215D01*
X037703Y013946D01*
X037773Y013876D01*
X037811Y013784D01*
X037811Y013137D01*
X037816Y013135D01*
X037943Y013008D01*
X038011Y012843D01*
X038011Y012664D01*
X037943Y012498D01*
X037898Y012453D01*
X037898Y010683D01*
X037942Y010664D01*
X038079Y010528D01*
X038153Y010350D01*
X038153Y010157D01*
X038134Y010112D01*
X038272Y009974D01*
X038272Y009784D01*
X038272Y008620D01*
X038320Y008572D01*
X038320Y007958D01*
X038220Y007859D01*
X037863Y007859D01*
X037840Y007881D01*
X037838Y007880D01*
X037797Y007869D01*
X037668Y007869D01*
X037668Y008265D01*
X037667Y008265D01*
X037667Y008661D01*
X037538Y008661D01*
X037524Y008657D01*
X037524Y008722D01*
X037398Y008848D01*
X037263Y008983D01*
X035796Y008983D01*
X035596Y009183D01*
X035239Y009183D01*
X034988Y008931D01*
X034988Y008575D01*
X035188Y008375D01*
X035188Y008131D01*
X034988Y007931D01*
X034988Y007575D01*
X035239Y007323D01*
X035596Y007323D01*
X035848Y007575D01*
X035848Y007931D01*
X035648Y008131D01*
X035648Y008375D01*
X035796Y008523D01*
X037015Y008523D01*
X037015Y007958D01*
X037115Y007859D01*
X037472Y007859D01*
X037495Y007881D01*
X037498Y007880D01*
X037538Y007869D01*
X037667Y007869D01*
X037667Y008265D01*
X037668Y008265D01*
X037668Y008661D01*
X037797Y008661D01*
X037812Y008657D01*
X037812Y009784D01*
X037809Y009787D01*
X037764Y009768D01*
X037571Y009768D01*
X037393Y009842D01*
X037256Y009978D01*
X037183Y010157D01*
X037183Y010350D01*
X037256Y010528D01*
X037393Y010664D01*
X037438Y010683D01*
X037438Y012317D01*
X037306Y012372D01*
X037180Y012498D01*
X037161Y012544D01*
X037150Y012523D01*
X037109Y012466D01*
X037060Y012418D01*
X037004Y012377D01*
X036943Y012345D01*
X036877Y012324D01*
X036808Y012313D01*
X036793Y012313D01*
X036793Y012734D01*
X036755Y012734D01*
X036755Y012313D01*
X036739Y012313D01*
X036671Y012324D01*
X036605Y012345D01*
X036543Y012377D01*
X036487Y012418D01*
X036438Y012466D01*
X036398Y012523D01*
X036366Y012584D01*
X036345Y012650D01*
X036334Y012719D01*
X036334Y012734D01*
X036755Y012734D01*
X036755Y012772D01*
X036755Y013193D01*
X036739Y013193D01*
X036671Y013182D01*
X036605Y013161D01*
X036543Y013129D01*
X036487Y013089D01*
X036438Y013040D01*
X036398Y012984D01*
X036366Y012922D01*
X036345Y012856D01*
X036334Y012788D01*
X036334Y012772D01*
X036755Y012772D01*
X036793Y012772D01*
X036793Y013193D01*
X036808Y013193D01*
X036877Y013182D01*
X036943Y013161D01*
X037004Y013129D01*
X037060Y013089D01*
X037109Y013040D01*
X037150Y012984D01*
X037161Y012963D01*
X037180Y013008D01*
X037306Y013135D01*
X037311Y013137D01*
X037311Y013631D01*
X037189Y013753D01*
X036118Y013753D01*
X036026Y013791D01*
X035956Y013862D01*
X035456Y014362D01*
X035418Y014453D01*
X035418Y014553D01*
X035418Y015900D01*
X035064Y016253D01*
X034542Y016253D01*
X034552Y016239D01*
X034585Y016176D01*
X034606Y016109D01*
X034618Y016039D01*
X034618Y016038D01*
X034203Y016038D01*
X034203Y015968D01*
X034618Y015968D01*
X034618Y015968D01*
X034606Y015898D01*
X034585Y015830D01*
X034552Y015767D01*
X034511Y015710D01*
X034461Y015660D01*
X034403Y015618D01*
X034340Y015586D01*
X034273Y015564D01*
X034203Y015553D01*
X034203Y015553D01*
X034203Y015968D01*
X034132Y015968D01*
X033718Y015968D01*
X033718Y015968D01*
X033729Y015898D01*
X033751Y015830D01*
X033783Y015767D01*
X033824Y015710D01*
X033874Y015660D01*
X033932Y015618D01*
X033995Y015586D01*
X034062Y015564D01*
X034132Y015553D01*
X034132Y015553D01*
X034132Y015968D01*
X034132Y016038D01*
X033718Y016038D01*
X033718Y016039D01*
X033729Y016109D01*
X033751Y016176D01*
X033783Y016239D01*
X033793Y016253D01*
X033562Y016253D01*
X033628Y016095D01*
X033628Y015912D01*
X033557Y015743D01*
X033428Y015613D01*
X033259Y015543D01*
X033076Y015543D01*
X032907Y015613D01*
X032778Y015743D01*
X032708Y015912D01*
X032708Y016095D01*
X032773Y016253D01*
X028562Y016253D01*
X028628Y016095D01*
X028628Y015912D01*
X028562Y015753D01*
X029618Y015753D01*
X029717Y015753D01*
X029809Y015715D01*
X030271Y015253D01*
X033773Y015253D01*
X033778Y015264D01*
X033907Y015393D01*
X034076Y015463D01*
X034259Y015463D01*
X034428Y015393D01*
X034557Y015264D01*
X034628Y015095D01*
X034628Y014912D01*
X034557Y014743D01*
X034428Y014613D01*
X034259Y014543D01*
X034076Y014543D01*
X033907Y014613D01*
X033778Y014743D01*
X033773Y014753D01*
X030418Y014753D01*
X030418Y004553D01*
X030418Y004453D01*
X030418Y004397D01*
X030428Y004393D01*
X030438Y004384D01*
X030438Y010598D01*
X030572Y010733D01*
X032572Y012733D01*
X032763Y012733D01*
X032787Y012733D01*
X032778Y012743D01*
X032708Y012912D01*
X032708Y013095D01*
X030418Y013095D01*
X030418Y012977D02*
X032708Y012977D01*
X032708Y013095D02*
X032778Y013264D01*
X032907Y013393D01*
X033076Y013463D01*
X033259Y013463D01*
X033428Y013393D01*
X033557Y013264D01*
X033628Y013095D01*
X033628Y012912D01*
X033557Y012743D01*
X033548Y012733D01*
X033787Y012733D01*
X033778Y012743D01*
X033708Y012912D01*
X033708Y013095D01*
X033627Y013095D01*
X033708Y013095D02*
X033778Y013264D01*
X033907Y013393D01*
X034076Y013463D01*
X034259Y013463D01*
X034428Y013393D01*
X034557Y013264D01*
X034628Y013095D01*
X034628Y012912D01*
X034557Y012743D01*
X034548Y012733D01*
X034988Y012733D01*
X034988Y012931D01*
X035239Y013183D01*
X035596Y013183D01*
X035848Y012931D01*
X035848Y012575D01*
X035596Y012323D01*
X035313Y012323D01*
X035263Y012273D01*
X034548Y012273D01*
X034557Y012264D01*
X034628Y012095D01*
X034628Y011912D01*
X034557Y011743D01*
X034428Y011613D01*
X034259Y011543D01*
X034076Y011543D01*
X033907Y011613D01*
X033778Y011743D01*
X033708Y011912D01*
X033708Y012095D01*
X033778Y012264D01*
X033787Y012273D01*
X033548Y012273D01*
X033557Y012264D01*
X033628Y012095D01*
X033628Y011912D01*
X033557Y011743D01*
X033428Y011613D01*
X033259Y011543D01*
X033076Y011543D01*
X032907Y011613D01*
X032778Y011743D01*
X032708Y011912D01*
X032708Y012095D01*
X032778Y012264D01*
X032787Y012273D01*
X032763Y012273D01*
X030898Y010408D01*
X030898Y004363D01*
X030932Y004388D01*
X030995Y004420D01*
X031062Y004442D01*
X031132Y004453D01*
X031132Y004453D01*
X031132Y004038D01*
X031203Y004038D01*
X031618Y004038D01*
X031618Y004039D01*
X031606Y004109D01*
X031585Y004176D01*
X031552Y004239D01*
X031511Y004296D01*
X031461Y004346D01*
X031403Y004388D01*
X031340Y004420D01*
X031273Y004442D01*
X031203Y004453D01*
X031203Y004453D01*
X031203Y004038D01*
X031203Y003968D01*
X031618Y003968D01*
X031618Y003968D01*
X031606Y003898D01*
X031585Y003830D01*
X031552Y003767D01*
X031511Y003710D01*
X031461Y003660D01*
X031403Y003618D01*
X031340Y003586D01*
X031273Y003564D01*
X031203Y003553D01*
X031203Y003553D01*
X031203Y003968D01*
X031132Y003968D01*
X031132Y003553D01*
X031132Y003553D01*
X031062Y003564D01*
X030995Y003586D01*
X030932Y003618D01*
X030898Y003643D01*
X030898Y003348D01*
X030898Y003158D01*
X029598Y001858D01*
X029598Y001575D01*
X029346Y001323D01*
X028989Y001323D01*
X028738Y001575D01*
X028738Y001931D01*
X028989Y002183D01*
X029272Y002183D01*
X030438Y003348D01*
X030438Y003623D01*
X030428Y003613D01*
X030259Y003543D01*
X030076Y003543D01*
X029907Y003613D01*
X029778Y003743D01*
X029708Y003912D01*
X029708Y004095D01*
X029773Y004253D01*
X029562Y004253D01*
X029628Y004095D01*
X029628Y003912D01*
X029557Y003743D01*
X029428Y003613D01*
X029259Y003543D01*
X029076Y003543D01*
X028907Y003613D01*
X028778Y003743D01*
X028708Y003912D01*
X028708Y004095D01*
X028773Y004253D01*
X028562Y004253D01*
X028628Y004095D01*
X028628Y003912D01*
X028557Y003743D01*
X028428Y003613D01*
X028259Y003543D01*
X028076Y003543D01*
X027907Y003613D01*
X027778Y003743D01*
X027708Y003912D01*
X027708Y004095D01*
X027773Y004253D01*
X024467Y004253D01*
X024368Y004253D01*
X024295Y004283D01*
X023973Y004283D01*
X023898Y004359D01*
X023898Y004158D01*
X023763Y004023D01*
X023638Y003898D01*
X023638Y003558D01*
X023362Y003283D01*
X022973Y003283D01*
X022698Y003558D01*
X022698Y003948D01*
X022973Y004223D01*
X023312Y004223D01*
X023438Y004348D01*
X023438Y004359D01*
X023362Y004283D01*
X022973Y004283D01*
X022898Y004359D01*
X022898Y004348D01*
X022898Y004158D01*
X022638Y003898D01*
X022638Y003558D01*
X022362Y003283D01*
X021973Y003283D01*
X021698Y003558D01*
X021698Y003948D01*
X021973Y004223D01*
X022312Y004223D01*
X022438Y004348D01*
X022438Y004359D01*
X022362Y004283D01*
X021973Y004283D01*
X021898Y004359D01*
X021898Y004348D01*
X021898Y004158D01*
X021638Y003898D01*
X021638Y003558D01*
X021362Y003283D01*
X020973Y003283D01*
X020698Y003558D01*
X020698Y003948D01*
X020973Y004223D01*
X021312Y004223D01*
X021438Y004348D01*
X021438Y004359D01*
X021362Y004283D01*
X020973Y004283D01*
X020898Y004359D01*
X020898Y004348D01*
X020898Y004158D01*
X020638Y003898D01*
X020638Y003558D01*
X020362Y003283D01*
X019973Y003283D01*
X019698Y003558D01*
X019698Y003948D01*
X019973Y004223D01*
X020312Y004223D01*
X020438Y004348D01*
X020438Y004359D01*
X020362Y004283D01*
X019973Y004283D01*
X019898Y004359D01*
X019898Y004348D01*
X019898Y004158D01*
X019638Y003898D01*
X019638Y003558D01*
X019362Y003283D01*
X018973Y003283D01*
X018698Y003558D01*
X018698Y003948D01*
X018973Y004223D01*
X019312Y004223D01*
X019438Y004348D01*
X019438Y004359D01*
X019362Y004283D01*
X018973Y004283D01*
X018898Y004359D01*
X018898Y004348D01*
X018898Y004158D01*
X018638Y003898D01*
X018638Y003558D01*
X018362Y003283D01*
X017973Y003283D01*
X017698Y003558D01*
X017698Y003948D01*
X017973Y004223D01*
X018312Y004223D01*
X018438Y004348D01*
X018438Y004359D01*
X018362Y004283D01*
X017973Y004283D01*
X017898Y004359D01*
X017898Y004348D01*
X017898Y004158D01*
X017638Y003898D01*
X017638Y003558D01*
X017362Y003283D01*
X016973Y003283D01*
X016698Y003558D01*
X016698Y003948D01*
X016973Y004223D01*
X017312Y004223D01*
X017438Y004348D01*
X017438Y004359D01*
X017362Y004283D01*
X016973Y004283D01*
X016898Y004359D01*
X016898Y004348D01*
X016898Y004158D01*
X016638Y003898D01*
X016638Y003558D01*
X016362Y003283D01*
X015973Y003283D01*
X015698Y003558D01*
X015698Y003948D01*
X015973Y004223D01*
X016312Y004223D01*
X016438Y004348D01*
X016438Y004359D01*
X016362Y004283D01*
X015973Y004283D01*
X015698Y004558D01*
X015698Y004948D01*
X015938Y005188D01*
X015938Y007213D01*
X015855Y007295D01*
X015799Y007430D01*
X015799Y007576D01*
X015855Y007712D01*
X015959Y007815D01*
X016094Y007871D01*
X016241Y007871D01*
X016376Y007815D01*
X016480Y007712D01*
X016536Y007576D01*
X016536Y007430D01*
X016480Y007295D01*
X016398Y007213D01*
X016398Y006754D01*
X016459Y006815D01*
X016594Y006871D01*
X016741Y006871D01*
X016876Y006815D01*
X016938Y006754D01*
X016938Y008213D01*
X016855Y008295D01*
X016799Y008430D01*
X016799Y008576D01*
X016855Y008712D01*
X016959Y008815D01*
X017094Y008871D01*
X017241Y008871D01*
X017376Y008815D01*
X017438Y008754D01*
X017438Y008908D01*
X016938Y009408D01*
X016938Y009598D01*
X016938Y012213D01*
X016855Y012295D01*
X016799Y012430D01*
X016799Y012576D01*
X016855Y012712D01*
X016959Y012815D01*
X017094Y012871D01*
X017241Y012871D01*
X017376Y012815D01*
X017438Y012754D01*
X017438Y013807D01*
X017384Y013829D01*
X017244Y013970D01*
X017168Y014154D01*
X017168Y014353D01*
X017244Y014536D01*
X017384Y014677D01*
X017568Y014753D01*
X017767Y014753D01*
X017951Y014677D01*
X018091Y014536D01*
X018168Y014353D01*
X018168Y014154D01*
X018244Y013970D01*
X018384Y013829D01*
X018568Y013753D01*
X018767Y013753D01*
X018951Y013829D01*
X019091Y013970D01*
X019168Y014154D01*
X019244Y013970D01*
X019384Y013829D01*
X019408Y013819D01*
X018938Y013348D01*
X018938Y013158D01*
X018938Y009254D01*
X018876Y009315D01*
X018741Y009371D01*
X018594Y009371D01*
X018459Y009315D01*
X018398Y009254D01*
X018398Y010713D01*
X018480Y010795D01*
X018536Y010930D01*
X018536Y011076D01*
X018480Y011212D01*
X018376Y011315D01*
X018241Y011371D01*
X018094Y011371D01*
X017959Y011315D01*
X017898Y011254D01*
X017898Y013807D01*
X017951Y013829D01*
X018091Y013970D01*
X018168Y014154D01*
X018168Y014353D01*
X018244Y014536D01*
X018384Y014677D01*
X018568Y014753D01*
X018767Y014753D01*
X018951Y014677D01*
X019091Y014536D01*
X019168Y014353D01*
X019168Y014154D01*
X019168Y014353D01*
X019244Y014536D01*
X019384Y014677D01*
X019568Y014753D01*
X019767Y014753D01*
X019951Y014677D01*
X020091Y014536D01*
X020168Y014353D01*
X020168Y014154D01*
X020244Y013970D01*
X020275Y013939D01*
X020075Y013954D01*
X020091Y013970D01*
X020168Y014154D01*
X020168Y014353D01*
X020244Y014536D01*
X020384Y014677D01*
X020568Y014753D01*
X020767Y014753D01*
X020951Y014677D01*
X021091Y014536D01*
X021168Y014353D01*
X021168Y014154D01*
X021244Y013970D01*
X021355Y013859D01*
X021006Y013885D01*
X021091Y013970D01*
X021168Y014154D01*
X021168Y014353D01*
X021244Y014536D01*
X021384Y014677D01*
X021418Y014691D01*
X021418Y015003D01*
X014665Y015003D01*
X014896Y014907D01*
X015113Y014690D01*
X015231Y014407D01*
X015231Y014100D01*
X015113Y013816D01*
X014896Y013599D01*
X014612Y013481D01*
X014305Y013481D01*
X014022Y013599D01*
X013805Y013816D01*
X013687Y014100D01*
X013687Y014407D01*
X013805Y014690D01*
X014022Y014907D01*
X014253Y015003D01*
X004771Y015003D01*
X004287Y014519D01*
X004287Y014068D01*
X004187Y013969D01*
X004136Y013969D01*
X004218Y013886D01*
X004287Y013721D01*
X004287Y013542D01*
X004218Y013376D01*
X004092Y013250D01*
X004062Y013237D01*
X004092Y013225D01*
X004218Y013099D01*
X004287Y012933D01*
X004287Y012754D01*
X004218Y012589D01*
X004092Y012462D01*
X004062Y012450D01*
X004092Y012438D01*
X004218Y012311D01*
X004287Y012146D01*
X004287Y011967D01*
X004218Y011801D01*
X004092Y011675D01*
X004062Y011663D01*
X004092Y011650D01*
X004218Y011524D01*
X004287Y011358D01*
X004287Y011179D01*
X004218Y011014D01*
X004092Y010887D01*
X004062Y010875D01*
X004092Y010863D01*
X004218Y010736D01*
X004229Y010711D01*
X006344Y010711D01*
X006534Y010711D01*
X007763Y009483D01*
X007898Y009348D01*
X007898Y006131D01*
X008098Y005931D01*
X008098Y005575D01*
X007846Y005323D01*
X007489Y005323D01*
X007238Y005575D01*
X007238Y005931D01*
X007438Y006131D01*
X007438Y009158D01*
X006344Y010251D01*
X004229Y010251D01*
X004218Y010227D01*
X004092Y010100D01*
X004062Y010088D01*
X004092Y010076D01*
X004218Y009949D01*
X004287Y009784D01*
X004287Y009605D01*
X004218Y009439D01*
X004092Y009313D01*
X004062Y009300D01*
X004092Y009288D01*
X004218Y009162D01*
X004287Y008996D01*
X004287Y008817D01*
X004218Y008652D01*
X004092Y008525D01*
X004062Y008513D01*
X004092Y008501D01*
X004218Y008374D01*
X004287Y008209D01*
X004287Y008030D01*
X004218Y007864D01*
X004092Y007738D01*
X004046Y007719D01*
X004067Y007708D01*
X004123Y007667D01*
X004172Y007619D01*
X004213Y007562D01*
X004245Y007501D01*
X004266Y007435D01*
X004277Y007366D01*
X004277Y007341D01*
X003846Y007341D01*
X003846Y007323D01*
X004277Y007323D01*
X004277Y007297D01*
X004266Y007229D01*
X004245Y007163D01*
X004213Y007101D01*
X004172Y007045D01*
X004123Y006996D01*
X004067Y006956D01*
X004006Y006924D01*
X003940Y006903D01*
X003871Y006892D01*
X003846Y006892D01*
X003846Y007323D01*
X003828Y007323D01*
X003828Y006892D01*
X003802Y006892D01*
X003734Y006903D01*
X003668Y006924D01*
X003606Y006956D01*
X003550Y006996D01*
X003501Y007045D01*
X003461Y007101D01*
X003429Y007163D01*
X003408Y007229D01*
X003397Y007297D01*
X003397Y007323D01*
X003828Y007323D01*
X003828Y007341D01*
X003397Y007341D01*
X003397Y007366D01*
X003408Y007435D01*
X003429Y007501D01*
X003461Y007562D01*
X003501Y007619D01*
X003550Y007667D01*
X003606Y007708D01*
X003627Y007719D01*
X003582Y007738D01*
X003455Y007864D01*
X003387Y008030D01*
X003387Y008209D01*
X003455Y008374D01*
X003582Y008501D01*
X003611Y008513D01*
X003582Y008525D01*
X003455Y008652D01*
X003387Y008817D01*
X003387Y008996D01*
X003455Y009162D01*
X003582Y009288D01*
X003611Y009300D01*
X003582Y009313D01*
X003455Y009439D01*
X003387Y009605D01*
X003387Y009784D01*
X003455Y009949D01*
X003582Y010076D01*
X003611Y010088D01*
X003582Y010100D01*
X003455Y010227D01*
X003387Y010392D01*
X003387Y010571D01*
X003455Y010736D01*
X003582Y010863D01*
X003611Y010875D01*
X003582Y010887D01*
X003455Y011014D01*
X003387Y011179D01*
X003387Y011358D01*
X003455Y011524D01*
X003582Y011650D01*
X003611Y011663D01*
X003582Y011675D01*
X003455Y011801D01*
X003387Y011967D01*
X003387Y012146D01*
X003455Y012311D01*
X003582Y012438D01*
X003611Y012450D01*
X003582Y012462D01*
X003455Y012589D01*
X003387Y012754D01*
X003387Y012933D01*
X003455Y013099D01*
X003582Y013225D01*
X003611Y013237D01*
X003582Y013250D01*
X003455Y013376D01*
X003387Y013542D01*
X003387Y013721D01*
X003455Y013886D01*
X003538Y013969D01*
X003486Y013969D01*
X003387Y014068D01*
X003387Y014667D01*
X003024Y014458D01*
X003024Y014458D01*
X002542Y014348D01*
X002542Y014348D01*
X002048Y014385D01*
X002048Y014385D01*
X001588Y014566D01*
X001588Y014566D01*
X001201Y014874D01*
X001201Y014874D01*
X001201Y014874D01*
X000928Y015275D01*
X000928Y002732D01*
X001201Y003132D01*
X001201Y003132D01*
X001588Y003441D01*
X001588Y003441D01*
X002048Y003621D01*
X002048Y003621D01*
X002542Y003658D01*
X002542Y003658D01*
X003024Y003548D01*
X003024Y003548D01*
X003452Y003301D01*
X003453Y003301D01*
X003789Y002938D01*
X003789Y002938D01*
X004004Y002492D01*
X004004Y002492D01*
X004078Y002003D01*
X004004Y001514D01*
X004004Y001514D01*
X003789Y001068D01*
X003453Y000705D01*
X003453Y000705D01*
X003510Y000767D02*
X036835Y000767D01*
X036693Y000885D02*
X003620Y000885D01*
X003730Y001004D02*
X036612Y001004D01*
X036531Y001122D02*
X003815Y001122D01*
X003872Y001241D02*
X036450Y001241D01*
X036398Y001360D02*
X035382Y001360D01*
X035346Y001323D02*
X035598Y001575D01*
X035598Y001931D01*
X035346Y002183D01*
X034989Y002183D01*
X034738Y001931D01*
X034738Y001575D01*
X034989Y001323D01*
X035346Y001323D01*
X035501Y001478D02*
X036362Y001478D01*
X036325Y001597D02*
X035598Y001597D01*
X035598Y001715D02*
X036289Y001715D01*
X036276Y001834D02*
X035598Y001834D01*
X035576Y001952D02*
X036276Y001952D01*
X036276Y002071D02*
X035458Y002071D01*
X034877Y002071D02*
X034458Y002071D01*
X034398Y002131D02*
X034398Y003158D01*
X034988Y003748D01*
X034988Y003575D01*
X035239Y003323D01*
X035596Y003323D01*
X035848Y003575D01*
X035848Y003931D01*
X035756Y004023D01*
X036094Y004023D01*
X035998Y003927D01*
X035998Y003773D01*
X036397Y003773D01*
X036397Y003733D01*
X035998Y003733D01*
X035998Y003579D01*
X036244Y003333D01*
X036397Y003333D01*
X036397Y003733D01*
X036438Y003733D01*
X036438Y003773D01*
X036838Y003773D01*
X036838Y003927D01*
X036741Y004023D01*
X038197Y004023D01*
X038388Y004023D01*
X038763Y004398D01*
X038898Y004533D01*
X038898Y004823D01*
X038942Y004842D01*
X039079Y004978D01*
X039153Y005157D01*
X039153Y005350D01*
X039079Y005528D01*
X038942Y005664D01*
X038898Y005683D01*
X038898Y006098D01*
X038763Y006233D01*
X038272Y006724D01*
X038272Y006886D01*
X038320Y006935D01*
X038320Y007548D01*
X038220Y007648D01*
X037863Y007648D01*
X037763Y007548D01*
X037763Y006935D01*
X037812Y006886D01*
X037812Y006724D01*
X037812Y006534D01*
X038438Y005908D01*
X038438Y005683D01*
X038393Y005664D01*
X038256Y005528D01*
X038183Y005350D01*
X038183Y005157D01*
X038256Y004978D01*
X038393Y004842D01*
X038438Y004823D01*
X038438Y004723D01*
X038197Y004483D01*
X035072Y004483D01*
X034938Y004348D01*
X034628Y004038D01*
X034628Y004095D01*
X034557Y004264D01*
X034428Y004393D01*
X034259Y004463D01*
X034076Y004463D01*
X033907Y004393D01*
X033778Y004264D01*
X033708Y004095D01*
X033708Y003912D01*
X033778Y003743D01*
X033907Y003613D01*
X034076Y003543D01*
X034132Y003543D01*
X033938Y003348D01*
X033938Y003158D01*
X033938Y002131D01*
X033738Y001931D01*
X033738Y001575D01*
X033989Y001323D01*
X034346Y001323D01*
X034598Y001575D01*
X034598Y001931D01*
X034398Y002131D01*
X034398Y002189D02*
X036276Y002189D01*
X036294Y002308D02*
X034398Y002308D01*
X034398Y002426D02*
X036330Y002426D01*
X036367Y002545D02*
X034398Y002545D01*
X034398Y002664D02*
X036404Y002664D01*
X036462Y002782D02*
X034398Y002782D01*
X034398Y002901D02*
X036543Y002901D01*
X036624Y003019D02*
X034398Y003019D01*
X034398Y003138D02*
X036708Y003138D01*
X036856Y003256D02*
X034496Y003256D01*
X034614Y003375D02*
X035188Y003375D01*
X035069Y003493D02*
X034733Y003493D01*
X034851Y003612D02*
X034988Y003612D01*
X034988Y003730D02*
X034970Y003730D01*
X034675Y004086D02*
X034628Y004086D01*
X034582Y004205D02*
X034794Y004205D01*
X034912Y004323D02*
X034498Y004323D01*
X034311Y004442D02*
X035031Y004442D01*
X035168Y004253D02*
X038293Y004253D01*
X038668Y004628D01*
X038668Y005253D01*
X038668Y006003D01*
X038042Y006629D01*
X038042Y007241D01*
X038320Y007287D02*
X039408Y007287D01*
X039408Y007405D02*
X038320Y007405D01*
X038320Y007524D02*
X039408Y007524D01*
X039408Y007642D02*
X038225Y007642D01*
X037858Y007642D02*
X037477Y007642D01*
X037472Y007648D02*
X037115Y007648D01*
X037015Y007548D01*
X037015Y006935D01*
X037064Y006886D01*
X037064Y006733D01*
X036648Y006733D01*
X036648Y007375D01*
X036848Y007575D01*
X036848Y007931D01*
X036596Y008183D01*
X036239Y008183D01*
X035988Y007931D01*
X035988Y007575D01*
X036188Y007375D01*
X036188Y006533D01*
X036322Y006398D01*
X036447Y006273D01*
X036638Y006273D01*
X037263Y006273D01*
X037398Y006408D01*
X037524Y006534D01*
X037524Y006724D01*
X037524Y006886D01*
X037572Y006935D01*
X037572Y007548D01*
X037472Y007648D01*
X037572Y007524D02*
X037763Y007524D01*
X037763Y007405D02*
X037572Y007405D01*
X037572Y007287D02*
X037763Y007287D01*
X037763Y007168D02*
X037572Y007168D01*
X037572Y007050D02*
X037763Y007050D01*
X037767Y006931D02*
X037568Y006931D01*
X037524Y006813D02*
X037812Y006813D01*
X037812Y006694D02*
X037524Y006694D01*
X037524Y006575D02*
X037812Y006575D01*
X037889Y006457D02*
X037447Y006457D01*
X037328Y006338D02*
X038007Y006338D01*
X038126Y006220D02*
X034576Y006220D01*
X034557Y006264D02*
X034428Y006393D01*
X034259Y006463D01*
X034076Y006463D01*
X033907Y006393D01*
X033778Y006264D01*
X033708Y006095D01*
X033708Y005912D01*
X033778Y005743D01*
X033907Y005613D01*
X034076Y005543D01*
X034259Y005543D01*
X034428Y005613D01*
X034557Y005743D01*
X034628Y005912D01*
X034628Y006095D01*
X034557Y006264D01*
X034483Y006338D02*
X036382Y006338D01*
X036264Y006457D02*
X034274Y006457D01*
X034259Y006543D02*
X034428Y006613D01*
X034557Y006743D01*
X034628Y006912D01*
X034628Y007095D01*
X034557Y007264D01*
X034428Y007393D01*
X034259Y007463D01*
X034076Y007463D01*
X033907Y007393D01*
X033778Y007264D01*
X033708Y007095D01*
X033708Y006912D01*
X033778Y006743D01*
X033907Y006613D01*
X034076Y006543D01*
X034259Y006543D01*
X034337Y006575D02*
X036188Y006575D01*
X036188Y006694D02*
X034509Y006694D01*
X034586Y006813D02*
X036188Y006813D01*
X036188Y006931D02*
X034628Y006931D01*
X034628Y007050D02*
X036188Y007050D01*
X036188Y007168D02*
X034597Y007168D01*
X034534Y007287D02*
X036188Y007287D01*
X036157Y007405D02*
X035678Y007405D01*
X035796Y007524D02*
X036039Y007524D01*
X035988Y007642D02*
X035848Y007642D01*
X035848Y007761D02*
X035988Y007761D01*
X035988Y007879D02*
X035848Y007879D01*
X035781Y007998D02*
X036054Y007998D01*
X036173Y008116D02*
X035662Y008116D01*
X035648Y008235D02*
X037015Y008235D01*
X037015Y008116D02*
X036662Y008116D01*
X036781Y007998D02*
X037015Y007998D01*
X037094Y007879D02*
X036848Y007879D01*
X036848Y007761D02*
X039408Y007761D01*
X039408Y007879D02*
X038241Y007879D01*
X038320Y007998D02*
X039408Y007998D01*
X039408Y008116D02*
X038320Y008116D01*
X038320Y008235D02*
X039408Y008235D01*
X039408Y008354D02*
X038320Y008354D01*
X038320Y008472D02*
X039408Y008472D01*
X039386Y008591D02*
X038301Y008591D01*
X038272Y008709D02*
X039285Y008709D01*
X038687Y008828D02*
X038272Y008828D01*
X038272Y008946D02*
X038525Y008946D01*
X038406Y009065D02*
X038272Y009065D01*
X038272Y009183D02*
X038352Y009183D01*
X038303Y009302D02*
X038272Y009302D01*
X038272Y009420D02*
X038283Y009420D01*
X038272Y009539D02*
X038283Y009539D01*
X038272Y009658D02*
X038283Y009658D01*
X038272Y009776D02*
X038283Y009776D01*
X038272Y009895D02*
X038283Y009895D01*
X038283Y010013D02*
X038233Y010013D01*
X038283Y010132D02*
X038142Y010132D01*
X038153Y010250D02*
X038283Y010250D01*
X038283Y010369D02*
X038145Y010369D01*
X038096Y010487D02*
X038283Y010487D01*
X038283Y010606D02*
X038001Y010606D01*
X037898Y010724D02*
X038283Y010724D01*
X038283Y010843D02*
X037898Y010843D01*
X037898Y010962D02*
X038283Y010962D01*
X038283Y011080D02*
X037898Y011080D01*
X037898Y011199D02*
X038283Y011199D01*
X038283Y011317D02*
X037898Y011317D01*
X037898Y011436D02*
X038283Y011436D01*
X038283Y011554D02*
X037898Y011554D01*
X037898Y011673D02*
X038283Y011673D01*
X038283Y011791D02*
X037898Y011791D01*
X037898Y011910D02*
X038283Y011910D01*
X038283Y012028D02*
X037898Y012028D01*
X037898Y012147D02*
X038283Y012147D01*
X038283Y012266D02*
X037898Y012266D01*
X037898Y012384D02*
X038283Y012384D01*
X038283Y012503D02*
X037944Y012503D01*
X037994Y012621D02*
X038283Y012621D01*
X038283Y012740D02*
X038011Y012740D01*
X038005Y012858D02*
X038283Y012858D01*
X038283Y012977D02*
X037956Y012977D01*
X037855Y013095D02*
X038283Y013095D01*
X038283Y013214D02*
X037811Y013214D01*
X037811Y013332D02*
X038283Y013332D01*
X038283Y013451D02*
X037811Y013451D01*
X037811Y013569D02*
X038299Y013569D01*
X038348Y013688D02*
X037811Y013688D01*
X037802Y013807D02*
X038397Y013807D01*
X038515Y013925D02*
X037724Y013925D01*
X037606Y014044D02*
X038663Y014044D01*
X038628Y014518D02*
X039408Y014518D01*
X039408Y014636D02*
X038833Y014636D01*
X038999Y014755D02*
X039408Y014755D01*
X039408Y014873D02*
X039109Y014873D01*
X039219Y014992D02*
X039408Y014992D01*
X039408Y015111D02*
X039310Y015111D01*
X039367Y015229D02*
X039408Y015229D01*
X039408Y014399D02*
X038267Y014399D01*
X037511Y014399D02*
X036125Y014399D01*
X036243Y014281D02*
X039382Y014281D01*
X039261Y014162D02*
X037487Y014162D01*
X037209Y014518D02*
X036006Y014518D01*
X035918Y014636D02*
X036999Y014636D01*
X036850Y014755D02*
X035918Y014755D01*
X035918Y014873D02*
X036701Y014873D01*
X036620Y014992D02*
X035918Y014992D01*
X035918Y015111D02*
X036539Y015111D01*
X036459Y015229D02*
X035918Y015229D01*
X035918Y015348D02*
X036402Y015348D01*
X036365Y015466D02*
X035918Y015466D01*
X035918Y015585D02*
X036329Y015585D01*
X036292Y015703D02*
X035918Y015703D01*
X035918Y015822D02*
X036276Y015822D01*
X036276Y015940D02*
X035918Y015940D01*
X035915Y016059D02*
X036276Y016059D01*
X036276Y016177D02*
X035847Y016177D01*
X035728Y016296D02*
X036290Y016296D01*
X036327Y016415D02*
X035610Y016415D01*
X035491Y016533D02*
X036363Y016533D01*
X036400Y016652D02*
X035373Y016652D01*
X035140Y016177D02*
X034584Y016177D01*
X034614Y016059D02*
X035258Y016059D01*
X035377Y015940D02*
X034613Y015940D01*
X034580Y015822D02*
X035418Y015822D01*
X035418Y015703D02*
X034504Y015703D01*
X034336Y015585D02*
X035418Y015585D01*
X035418Y015466D02*
X030058Y015466D01*
X030177Y015348D02*
X033862Y015348D01*
X033999Y015585D02*
X033359Y015585D01*
X033518Y015703D02*
X033831Y015703D01*
X033755Y015822D02*
X033590Y015822D01*
X033628Y015940D02*
X033722Y015940D01*
X033721Y016059D02*
X033628Y016059D01*
X033593Y016177D02*
X033751Y016177D01*
X034132Y015940D02*
X034203Y015940D01*
X034203Y015822D02*
X034132Y015822D01*
X034132Y015703D02*
X034203Y015703D01*
X034203Y015585D02*
X034132Y015585D01*
X034474Y015348D02*
X035418Y015348D01*
X035418Y015229D02*
X034572Y015229D01*
X034621Y015111D02*
X035418Y015111D01*
X035418Y014992D02*
X034628Y014992D01*
X034612Y014873D02*
X035418Y014873D01*
X035418Y014755D02*
X034563Y014755D01*
X034451Y014636D02*
X035418Y014636D01*
X035418Y014518D02*
X030418Y014518D01*
X030418Y014636D02*
X033884Y014636D01*
X033922Y014399D02*
X033413Y014399D01*
X033428Y014393D02*
X033259Y014463D01*
X033076Y014463D01*
X032907Y014393D01*
X032778Y014264D01*
X032708Y014095D01*
X032708Y013912D01*
X032778Y013743D01*
X032907Y013613D01*
X033076Y013543D01*
X033259Y013543D01*
X033428Y013613D01*
X033557Y013743D01*
X033628Y013912D01*
X033628Y014095D01*
X033557Y014264D01*
X033428Y014393D01*
X033540Y014281D02*
X033795Y014281D01*
X033778Y014264D02*
X033708Y014095D01*
X033708Y013912D01*
X033778Y013743D01*
X033907Y013613D01*
X034076Y013543D01*
X034259Y013543D01*
X034428Y013613D01*
X034557Y013743D01*
X034628Y013912D01*
X034628Y014095D01*
X034557Y014264D01*
X034428Y014393D01*
X034259Y014463D01*
X034076Y014463D01*
X033907Y014393D01*
X033778Y014264D01*
X033736Y014162D02*
X033600Y014162D01*
X033628Y014044D02*
X033708Y014044D01*
X033708Y013925D02*
X033628Y013925D01*
X033584Y013807D02*
X033751Y013807D01*
X033832Y013688D02*
X033503Y013688D01*
X033323Y013569D02*
X034012Y013569D01*
X034047Y013451D02*
X033288Y013451D01*
X033489Y013332D02*
X033846Y013332D01*
X033757Y013214D02*
X033578Y013214D01*
X033628Y012977D02*
X033708Y012977D01*
X033730Y012858D02*
X033605Y012858D01*
X033555Y012740D02*
X033780Y012740D01*
X033779Y012266D02*
X033556Y012266D01*
X033606Y012147D02*
X033729Y012147D01*
X033708Y012028D02*
X033628Y012028D01*
X033627Y011910D02*
X033708Y011910D01*
X033757Y011791D02*
X033578Y011791D01*
X033488Y011673D02*
X033847Y011673D01*
X034049Y011554D02*
X033286Y011554D01*
X033049Y011554D02*
X032044Y011554D01*
X031925Y011436D02*
X034010Y011436D01*
X034076Y011463D02*
X033907Y011393D01*
X033778Y011264D01*
X033708Y011095D01*
X033708Y010912D01*
X033778Y010743D01*
X033907Y010613D01*
X034076Y010543D01*
X034259Y010543D01*
X034428Y010613D01*
X034557Y010743D01*
X034628Y010912D01*
X034628Y011095D01*
X034557Y011264D01*
X034428Y011393D01*
X034259Y011463D01*
X034076Y011463D01*
X034286Y011554D02*
X037438Y011554D01*
X037438Y011436D02*
X034325Y011436D01*
X034504Y011317D02*
X037438Y011317D01*
X037438Y011199D02*
X034584Y011199D01*
X034628Y011080D02*
X037438Y011080D01*
X037438Y010962D02*
X034628Y010962D01*
X034599Y010843D02*
X037438Y010843D01*
X037438Y010724D02*
X036868Y010724D01*
X036864Y010728D02*
X036688Y010728D01*
X036688Y010273D01*
X037143Y010273D01*
X037143Y010450D01*
X036864Y010728D01*
X036986Y010606D02*
X037334Y010606D01*
X037240Y010487D02*
X037105Y010487D01*
X037143Y010369D02*
X037191Y010369D01*
X037183Y010250D02*
X036688Y010250D01*
X036688Y010233D02*
X036688Y010273D01*
X036647Y010273D01*
X036647Y010233D01*
X036193Y010233D01*
X036193Y010056D01*
X036471Y009778D01*
X036647Y009778D01*
X036647Y010233D01*
X036688Y010233D01*
X037143Y010233D01*
X037143Y010056D01*
X036864Y009778D01*
X036688Y009778D01*
X036688Y010233D01*
X036647Y010250D02*
X034563Y010250D01*
X034557Y010264D02*
X034428Y010393D01*
X034259Y010463D01*
X034076Y010463D01*
X033907Y010393D01*
X033778Y010264D01*
X033708Y010095D01*
X033708Y009912D01*
X033778Y009743D01*
X033907Y009613D01*
X034076Y009543D01*
X034259Y009543D01*
X034428Y009613D01*
X034557Y009743D01*
X034628Y009912D01*
X034628Y010095D01*
X034557Y010264D01*
X034612Y010132D02*
X036193Y010132D01*
X036236Y010013D02*
X034628Y010013D01*
X034620Y009895D02*
X036354Y009895D01*
X036647Y009895D02*
X036688Y009895D01*
X036688Y010013D02*
X036647Y010013D01*
X036647Y010132D02*
X036688Y010132D01*
X036647Y010273D02*
X036193Y010273D01*
X036193Y010450D01*
X036471Y010728D01*
X036647Y010728D01*
X036647Y010273D01*
X036647Y010369D02*
X036688Y010369D01*
X036688Y010487D02*
X036647Y010487D01*
X036647Y010606D02*
X036688Y010606D01*
X036688Y010724D02*
X036647Y010724D01*
X036467Y010724D02*
X034539Y010724D01*
X034411Y010606D02*
X036349Y010606D01*
X036230Y010487D02*
X030977Y010487D01*
X030898Y010369D02*
X033883Y010369D01*
X033772Y010250D02*
X030898Y010250D01*
X030898Y010132D02*
X033723Y010132D01*
X033708Y010013D02*
X030898Y010013D01*
X030898Y009895D02*
X033715Y009895D01*
X033764Y009776D02*
X030898Y009776D01*
X030898Y009658D02*
X033863Y009658D01*
X033907Y009393D02*
X034076Y009463D01*
X034259Y009463D01*
X034428Y009393D01*
X034557Y009264D01*
X034628Y009095D01*
X034628Y008912D01*
X034557Y008743D01*
X034428Y008613D01*
X034259Y008543D01*
X034076Y008543D01*
X033907Y008613D01*
X033778Y008743D01*
X033708Y008912D01*
X033708Y009095D01*
X033778Y009264D01*
X033907Y009393D01*
X033973Y009420D02*
X030898Y009420D01*
X030898Y009302D02*
X033816Y009302D01*
X033744Y009183D02*
X030898Y009183D01*
X030898Y009065D02*
X033708Y009065D01*
X033708Y008946D02*
X030898Y008946D01*
X030898Y008828D02*
X033742Y008828D01*
X033811Y008709D02*
X030898Y008709D01*
X030898Y008591D02*
X033961Y008591D01*
X034076Y008463D02*
X033907Y008393D01*
X033778Y008264D01*
X033708Y008095D01*
X033708Y007912D01*
X033778Y007743D01*
X033907Y007613D01*
X034076Y007543D01*
X034259Y007543D01*
X034428Y007613D01*
X034557Y007743D01*
X034628Y007912D01*
X034628Y008095D01*
X034557Y008264D01*
X034428Y008393D01*
X034259Y008463D01*
X034076Y008463D01*
X033867Y008354D02*
X030898Y008354D01*
X030898Y008472D02*
X035090Y008472D01*
X035188Y008354D02*
X034468Y008354D01*
X034569Y008235D02*
X035188Y008235D01*
X035173Y008116D02*
X034619Y008116D01*
X034628Y007998D02*
X035054Y007998D01*
X034988Y007879D02*
X034614Y007879D01*
X034565Y007761D02*
X034988Y007761D01*
X034988Y007642D02*
X034457Y007642D01*
X034399Y007405D02*
X035157Y007405D01*
X035039Y007524D02*
X030898Y007524D01*
X030898Y007642D02*
X033878Y007642D01*
X033770Y007761D02*
X030898Y007761D01*
X030898Y007879D02*
X033721Y007879D01*
X033708Y007998D02*
X030898Y007998D01*
X030898Y008116D02*
X033717Y008116D01*
X033766Y008235D02*
X030898Y008235D01*
X030438Y008235D02*
X030418Y008235D01*
X030418Y008116D02*
X030438Y008116D01*
X030438Y007998D02*
X030418Y007998D01*
X030418Y007879D02*
X030438Y007879D01*
X030438Y007761D02*
X030418Y007761D01*
X030418Y007642D02*
X030438Y007642D01*
X030438Y007524D02*
X030418Y007524D01*
X030418Y007405D02*
X030438Y007405D01*
X030438Y007287D02*
X030418Y007287D01*
X030418Y007168D02*
X030438Y007168D01*
X030438Y007050D02*
X030418Y007050D01*
X030418Y006931D02*
X030438Y006931D01*
X030438Y006813D02*
X030418Y006813D01*
X030418Y006694D02*
X030438Y006694D01*
X030438Y006575D02*
X030418Y006575D01*
X030418Y006457D02*
X030438Y006457D01*
X030438Y006338D02*
X030418Y006338D01*
X030418Y006220D02*
X030438Y006220D01*
X030438Y006101D02*
X030418Y006101D01*
X030418Y005983D02*
X030438Y005983D01*
X030438Y005864D02*
X030418Y005864D01*
X030418Y005746D02*
X030438Y005746D01*
X030438Y005627D02*
X030418Y005627D01*
X030418Y005509D02*
X030438Y005509D01*
X030438Y005390D02*
X030418Y005390D01*
X030418Y005271D02*
X030438Y005271D01*
X030438Y005153D02*
X030418Y005153D01*
X030418Y005034D02*
X030438Y005034D01*
X030438Y004916D02*
X030418Y004916D01*
X030418Y004797D02*
X030438Y004797D01*
X030438Y004679D02*
X030418Y004679D01*
X030418Y004560D02*
X030438Y004560D01*
X030438Y004442D02*
X030418Y004442D01*
X030898Y004442D02*
X031061Y004442D01*
X031132Y004442D02*
X031203Y004442D01*
X031274Y004442D02*
X032024Y004442D01*
X032076Y004463D02*
X031907Y004393D01*
X031778Y004264D01*
X031708Y004095D01*
X031708Y003912D01*
X031778Y003743D01*
X031907Y003613D01*
X032076Y003543D01*
X032259Y003543D01*
X032428Y003613D01*
X032557Y003743D01*
X032628Y003912D01*
X032628Y004095D01*
X032557Y004264D01*
X032428Y004393D01*
X032259Y004463D01*
X032076Y004463D01*
X032311Y004442D02*
X033024Y004442D01*
X033076Y004463D02*
X032907Y004393D01*
X032778Y004264D01*
X032708Y004095D01*
X032708Y003912D01*
X032778Y003743D01*
X032907Y003613D01*
X033076Y003543D01*
X033259Y003543D01*
X033428Y003613D01*
X033557Y003743D01*
X033628Y003912D01*
X033628Y004095D01*
X033557Y004264D01*
X033428Y004393D01*
X033259Y004463D01*
X033076Y004463D01*
X033311Y004442D02*
X034024Y004442D01*
X034076Y004543D02*
X034259Y004543D01*
X034428Y004613D01*
X034557Y004743D01*
X034628Y004912D01*
X034628Y005095D01*
X034557Y005264D01*
X034428Y005393D01*
X034259Y005463D01*
X034076Y005463D01*
X033907Y005393D01*
X033778Y005264D01*
X033708Y005095D01*
X033708Y004912D01*
X033778Y004743D01*
X033907Y004613D01*
X034076Y004543D01*
X034035Y004560D02*
X030898Y004560D01*
X030898Y004679D02*
X033841Y004679D01*
X033755Y004797D02*
X030898Y004797D01*
X030898Y004916D02*
X033708Y004916D01*
X033708Y005034D02*
X030898Y005034D01*
X030898Y005153D02*
X033732Y005153D01*
X033785Y005271D02*
X030898Y005271D01*
X030898Y005390D02*
X033904Y005390D01*
X033893Y005627D02*
X030898Y005627D01*
X030898Y005509D02*
X037251Y005509D01*
X037193Y005450D02*
X037193Y005273D01*
X037647Y005273D01*
X037647Y005233D01*
X037193Y005233D01*
X037193Y005056D01*
X037471Y004778D01*
X037647Y004778D01*
X037647Y005233D01*
X037688Y005233D01*
X037688Y005273D01*
X038143Y005273D01*
X038143Y005450D01*
X037864Y005728D01*
X037688Y005728D01*
X037688Y005273D01*
X037647Y005273D01*
X037647Y005728D01*
X037471Y005728D01*
X037193Y005450D01*
X037193Y005390D02*
X034431Y005390D01*
X034550Y005271D02*
X037647Y005271D01*
X037688Y005271D02*
X038183Y005271D01*
X038143Y005233D02*
X037688Y005233D01*
X037688Y004778D01*
X037864Y004778D01*
X038143Y005056D01*
X038143Y005233D01*
X038143Y005153D02*
X038184Y005153D01*
X038233Y005034D02*
X038121Y005034D01*
X038002Y004916D02*
X038319Y004916D01*
X038438Y004797D02*
X037883Y004797D01*
X037688Y004797D02*
X037647Y004797D01*
X037647Y004916D02*
X037688Y004916D01*
X037688Y005034D02*
X037647Y005034D01*
X037647Y005153D02*
X037688Y005153D01*
X037688Y005390D02*
X037647Y005390D01*
X037647Y005509D02*
X037688Y005509D01*
X037688Y005627D02*
X037647Y005627D01*
X037370Y005627D02*
X034442Y005627D01*
X034559Y005746D02*
X038438Y005746D01*
X038438Y005864D02*
X034608Y005864D01*
X034628Y005983D02*
X038363Y005983D01*
X038244Y006101D02*
X034625Y006101D01*
X034061Y006457D02*
X030898Y006457D01*
X030898Y006575D02*
X033998Y006575D01*
X033826Y006694D02*
X030898Y006694D01*
X030898Y006813D02*
X033749Y006813D01*
X033708Y006931D02*
X030898Y006931D01*
X030898Y007050D02*
X033708Y007050D01*
X033738Y007168D02*
X030898Y007168D01*
X030898Y007287D02*
X033801Y007287D01*
X033936Y007405D02*
X030898Y007405D01*
X030438Y008354D02*
X030418Y008354D01*
X030418Y008472D02*
X030438Y008472D01*
X030438Y008591D02*
X030418Y008591D01*
X030418Y008709D02*
X030438Y008709D01*
X030438Y008828D02*
X030418Y008828D01*
X030418Y008946D02*
X030438Y008946D01*
X030438Y009065D02*
X030418Y009065D01*
X030418Y009183D02*
X030438Y009183D01*
X030438Y009302D02*
X030418Y009302D01*
X030418Y009420D02*
X030438Y009420D01*
X030438Y009539D02*
X030418Y009539D01*
X030418Y009658D02*
X030438Y009658D01*
X030438Y009776D02*
X030418Y009776D01*
X030418Y009895D02*
X030438Y009895D01*
X030438Y010013D02*
X030418Y010013D01*
X030418Y010132D02*
X030438Y010132D01*
X030438Y010250D02*
X030418Y010250D01*
X030418Y010369D02*
X030438Y010369D01*
X030438Y010487D02*
X030418Y010487D01*
X030418Y010606D02*
X030445Y010606D01*
X030418Y010724D02*
X030564Y010724D01*
X030682Y010843D02*
X030418Y010843D01*
X030418Y010962D02*
X030801Y010962D01*
X030919Y011080D02*
X030418Y011080D01*
X030418Y011199D02*
X031038Y011199D01*
X031156Y011317D02*
X030418Y011317D01*
X030418Y011436D02*
X031275Y011436D01*
X031393Y011554D02*
X030418Y011554D01*
X030418Y011673D02*
X031512Y011673D01*
X031631Y011791D02*
X030418Y011791D01*
X030418Y011910D02*
X031749Y011910D01*
X031868Y012028D02*
X030418Y012028D01*
X030418Y012147D02*
X031986Y012147D01*
X032105Y012266D02*
X030418Y012266D01*
X030418Y012384D02*
X032223Y012384D01*
X032342Y012503D02*
X030418Y012503D01*
X030418Y012621D02*
X032460Y012621D01*
X032668Y012503D02*
X030668Y010503D01*
X030668Y003253D01*
X029168Y001753D01*
X029598Y001715D02*
X029748Y001715D01*
X029748Y001733D02*
X029748Y001579D01*
X029994Y001333D01*
X030147Y001333D01*
X030147Y001733D01*
X029748Y001733D01*
X029748Y001773D02*
X030147Y001773D01*
X030147Y001733D01*
X030188Y001733D01*
X030188Y001773D01*
X030588Y001773D01*
X030588Y001927D01*
X030341Y002173D01*
X030188Y002173D01*
X030188Y001773D01*
X030147Y001773D01*
X030147Y002173D01*
X029994Y002173D01*
X029748Y001927D01*
X029748Y001773D01*
X029748Y001834D02*
X029598Y001834D01*
X029692Y001952D02*
X029773Y001952D01*
X029810Y002071D02*
X029891Y002071D01*
X029929Y002189D02*
X033938Y002189D01*
X033938Y002308D02*
X030047Y002308D01*
X030166Y002426D02*
X033938Y002426D01*
X033938Y002545D02*
X030285Y002545D01*
X030403Y002664D02*
X033938Y002664D01*
X033938Y002782D02*
X030522Y002782D01*
X030640Y002901D02*
X033938Y002901D01*
X033938Y003019D02*
X030759Y003019D01*
X030877Y003138D02*
X033938Y003138D01*
X033938Y003256D02*
X030898Y003256D01*
X030898Y003375D02*
X033964Y003375D01*
X034083Y003493D02*
X030898Y003493D01*
X030898Y003612D02*
X030944Y003612D01*
X031132Y003612D02*
X031203Y003612D01*
X031203Y003730D02*
X031132Y003730D01*
X031132Y003849D02*
X031203Y003849D01*
X031203Y003967D02*
X031132Y003967D01*
X031132Y004086D02*
X031203Y004086D01*
X031203Y004205D02*
X031132Y004205D01*
X031132Y004323D02*
X031203Y004323D01*
X031484Y004323D02*
X031837Y004323D01*
X031753Y004205D02*
X031570Y004205D01*
X031610Y004086D02*
X031708Y004086D01*
X031708Y003967D02*
X031617Y003967D01*
X031591Y003849D02*
X031734Y003849D01*
X031790Y003730D02*
X031526Y003730D01*
X031391Y003612D02*
X031910Y003612D01*
X032425Y003612D02*
X032910Y003612D01*
X032790Y003730D02*
X032545Y003730D01*
X032602Y003849D02*
X032734Y003849D01*
X032708Y003967D02*
X032628Y003967D01*
X032628Y004086D02*
X032708Y004086D01*
X032753Y004205D02*
X032582Y004205D01*
X032498Y004323D02*
X032837Y004323D01*
X033498Y004323D02*
X033837Y004323D01*
X033753Y004205D02*
X033582Y004205D01*
X033628Y004086D02*
X033708Y004086D01*
X033708Y003967D02*
X033628Y003967D01*
X033602Y003849D02*
X033734Y003849D01*
X033790Y003730D02*
X033545Y003730D01*
X033425Y003612D02*
X033910Y003612D01*
X034168Y003253D02*
X035168Y004253D01*
X035811Y003967D02*
X036038Y003967D01*
X035998Y003849D02*
X035848Y003849D01*
X035848Y003730D02*
X035998Y003730D01*
X035998Y003612D02*
X035848Y003612D01*
X035766Y003493D02*
X036083Y003493D01*
X036202Y003375D02*
X035647Y003375D01*
X036397Y003375D02*
X036438Y003375D01*
X036438Y003333D02*
X036591Y003333D01*
X036838Y003579D01*
X036838Y003733D01*
X036438Y003733D01*
X036438Y003333D01*
X036438Y003493D02*
X036397Y003493D01*
X036397Y003612D02*
X036438Y003612D01*
X036438Y003730D02*
X036397Y003730D01*
X036752Y003493D02*
X037222Y003493D01*
X037005Y003375D02*
X036633Y003375D01*
X036838Y003612D02*
X037524Y003612D01*
X038246Y003612D02*
X039408Y003612D01*
X039408Y003730D02*
X036838Y003730D01*
X036838Y003849D02*
X039408Y003849D01*
X039408Y003967D02*
X036797Y003967D01*
X038274Y004560D02*
X034300Y004560D01*
X034494Y004679D02*
X038393Y004679D01*
X038688Y004323D02*
X039408Y004323D01*
X039408Y004205D02*
X038569Y004205D01*
X038451Y004086D02*
X039408Y004086D01*
X039408Y004442D02*
X038806Y004442D01*
X038898Y004560D02*
X039408Y004560D01*
X039408Y004679D02*
X038898Y004679D01*
X038898Y004797D02*
X039408Y004797D01*
X039408Y004916D02*
X039016Y004916D01*
X039102Y005034D02*
X039408Y005034D01*
X039408Y005153D02*
X039151Y005153D01*
X039153Y005271D02*
X039408Y005271D01*
X039408Y005390D02*
X039136Y005390D01*
X039087Y005509D02*
X039408Y005509D01*
X039408Y005627D02*
X038979Y005627D01*
X038898Y005746D02*
X039408Y005746D01*
X039408Y005864D02*
X038898Y005864D01*
X038898Y005983D02*
X039408Y005983D01*
X039408Y006101D02*
X038895Y006101D01*
X038776Y006220D02*
X039408Y006220D01*
X039408Y006338D02*
X038658Y006338D01*
X038539Y006457D02*
X039408Y006457D01*
X039408Y006575D02*
X038420Y006575D01*
X038302Y006694D02*
X039408Y006694D01*
X039408Y006813D02*
X038272Y006813D01*
X038316Y006931D02*
X039408Y006931D01*
X039408Y007050D02*
X038320Y007050D01*
X038320Y007168D02*
X039408Y007168D01*
X037842Y007879D02*
X037837Y007879D01*
X037668Y007879D02*
X037667Y007879D01*
X037667Y007998D02*
X037668Y007998D01*
X037667Y008116D02*
X037668Y008116D01*
X037667Y008235D02*
X037668Y008235D01*
X037667Y008354D02*
X037668Y008354D01*
X037667Y008472D02*
X037668Y008472D01*
X037667Y008591D02*
X037668Y008591D01*
X037524Y008709D02*
X037812Y008709D01*
X037812Y008828D02*
X037418Y008828D01*
X037398Y008848D02*
X037398Y008848D01*
X037300Y008946D02*
X037812Y008946D01*
X037812Y009065D02*
X035714Y009065D01*
X035121Y009065D02*
X034628Y009065D01*
X034628Y008946D02*
X035003Y008946D01*
X034988Y008828D02*
X034593Y008828D01*
X034524Y008709D02*
X034988Y008709D01*
X034988Y008591D02*
X034374Y008591D01*
X035418Y008753D02*
X035418Y007753D01*
X035648Y008354D02*
X037015Y008354D01*
X037015Y008472D02*
X035745Y008472D01*
X035418Y008753D02*
X037168Y008753D01*
X037294Y008627D01*
X037294Y008265D01*
X037493Y007879D02*
X037498Y007879D01*
X037110Y007642D02*
X036848Y007642D01*
X036796Y007524D02*
X037015Y007524D01*
X037015Y007405D02*
X036678Y007405D01*
X036648Y007287D02*
X037015Y007287D01*
X037015Y007168D02*
X036648Y007168D01*
X036648Y007050D02*
X037015Y007050D01*
X037019Y006931D02*
X036648Y006931D01*
X036648Y006813D02*
X037064Y006813D01*
X037294Y006629D02*
X037168Y006503D01*
X036543Y006503D01*
X036418Y006628D01*
X036418Y007753D01*
X037294Y007241D02*
X037294Y006629D01*
X037965Y005627D02*
X038356Y005627D01*
X038248Y005509D02*
X038084Y005509D01*
X038143Y005390D02*
X038199Y005390D01*
X037333Y004916D02*
X034628Y004916D01*
X034628Y005034D02*
X037215Y005034D01*
X037193Y005153D02*
X034603Y005153D01*
X034580Y004797D02*
X037452Y004797D01*
X038619Y003493D02*
X039408Y003493D01*
X039408Y003375D02*
X038825Y003375D01*
X038994Y003256D02*
X039408Y003256D01*
X039408Y003138D02*
X039104Y003138D01*
X039214Y003019D02*
X039408Y003019D01*
X039408Y002901D02*
X039307Y002901D01*
X039364Y002782D02*
X039408Y002782D01*
X036984Y000648D02*
X003354Y000648D01*
X003148Y000530D02*
X037179Y000530D01*
X034953Y001360D02*
X034382Y001360D01*
X034501Y001478D02*
X034835Y001478D01*
X034738Y001597D02*
X034598Y001597D01*
X034598Y001715D02*
X034738Y001715D01*
X034738Y001834D02*
X034598Y001834D01*
X034576Y001952D02*
X034759Y001952D01*
X034168Y001753D02*
X034168Y003253D01*
X033877Y002071D02*
X030444Y002071D01*
X030562Y001952D02*
X033759Y001952D01*
X033738Y001834D02*
X030588Y001834D01*
X030588Y001733D02*
X030188Y001733D01*
X030188Y001333D01*
X030341Y001333D01*
X030588Y001579D01*
X030588Y001733D01*
X030588Y001715D02*
X033738Y001715D01*
X033738Y001597D02*
X030588Y001597D01*
X030486Y001478D02*
X033835Y001478D01*
X033953Y001360D02*
X030368Y001360D01*
X030188Y001360D02*
X030147Y001360D01*
X030147Y001478D02*
X030188Y001478D01*
X030188Y001597D02*
X030147Y001597D01*
X030147Y001715D02*
X030188Y001715D01*
X030188Y001834D02*
X030147Y001834D01*
X030147Y001952D02*
X030188Y001952D01*
X030188Y002071D02*
X030147Y002071D01*
X029748Y001597D02*
X029598Y001597D01*
X029501Y001478D02*
X029849Y001478D01*
X029967Y001360D02*
X029382Y001360D01*
X028953Y001360D02*
X011368Y001360D01*
X011341Y001333D02*
X011588Y001579D01*
X011588Y001733D01*
X011188Y001733D01*
X011188Y001773D01*
X011588Y001773D01*
X011588Y001927D01*
X011341Y002173D01*
X011188Y002173D01*
X011188Y001773D01*
X011147Y001773D01*
X011147Y001733D01*
X010748Y001733D01*
X010748Y001579D01*
X010994Y001333D01*
X011147Y001333D01*
X011147Y001733D01*
X011188Y001733D01*
X011188Y001333D01*
X011341Y001333D01*
X011188Y001360D02*
X011147Y001360D01*
X011147Y001478D02*
X011188Y001478D01*
X011188Y001597D02*
X011147Y001597D01*
X011147Y001715D02*
X011188Y001715D01*
X011147Y001773D02*
X010748Y001773D01*
X010748Y001927D01*
X010994Y002173D01*
X011147Y002173D01*
X011147Y001773D01*
X011147Y001834D02*
X011188Y001834D01*
X011188Y001952D02*
X011147Y001952D01*
X011147Y002071D02*
X011188Y002071D01*
X011444Y002071D02*
X013936Y002071D01*
X014022Y001985D02*
X014305Y001867D01*
X014612Y001867D01*
X014896Y001985D01*
X015113Y002202D01*
X015231Y002485D01*
X015231Y002792D01*
X015113Y003076D01*
X014896Y003293D01*
X014612Y003411D01*
X014305Y003411D01*
X014022Y003293D01*
X013805Y003076D01*
X013687Y002792D01*
X013687Y002485D01*
X013805Y002202D01*
X014022Y001985D01*
X014100Y001952D02*
X011562Y001952D01*
X011588Y001834D02*
X028738Y001834D01*
X028738Y001715D02*
X011588Y001715D01*
X011588Y001597D02*
X028738Y001597D01*
X028835Y001478D02*
X011486Y001478D01*
X010967Y001360D02*
X010382Y001360D01*
X010346Y001323D02*
X010598Y001575D01*
X010598Y001931D01*
X010398Y002131D01*
X010398Y005158D01*
X010763Y005523D01*
X012289Y005523D01*
X012489Y005323D01*
X012846Y005323D01*
X013098Y005575D01*
X013098Y005931D01*
X012846Y006183D01*
X012489Y006183D01*
X012289Y005983D01*
X010572Y005983D01*
X009046Y005983D01*
X009098Y005931D02*
X008898Y006131D01*
X008898Y009158D01*
X009991Y010251D01*
X012106Y010251D01*
X012117Y010227D01*
X012243Y010100D01*
X012273Y010088D01*
X012243Y010076D01*
X012117Y009949D01*
X012048Y009784D01*
X012048Y009605D01*
X012117Y009439D01*
X012243Y009313D01*
X012273Y009300D01*
X012243Y009288D01*
X012117Y009162D01*
X012048Y008996D01*
X012048Y008817D01*
X012117Y008652D01*
X012243Y008525D01*
X012273Y008513D01*
X012243Y008501D01*
X012117Y008374D01*
X012048Y008209D01*
X012048Y008030D01*
X012117Y007864D01*
X012243Y007738D01*
X012273Y007726D01*
X012243Y007713D01*
X012117Y007587D01*
X012048Y007421D01*
X012048Y007242D01*
X012117Y007077D01*
X012243Y006950D01*
X012409Y006882D01*
X012588Y006882D01*
X012753Y006950D01*
X012880Y007077D01*
X012948Y007242D01*
X012948Y007421D01*
X012880Y007587D01*
X012753Y007713D01*
X012724Y007726D01*
X012753Y007738D01*
X012880Y007864D01*
X012948Y008030D01*
X012948Y008209D01*
X012880Y008374D01*
X012753Y008501D01*
X012724Y008513D01*
X012753Y008525D01*
X012880Y008652D01*
X012948Y008817D01*
X012948Y008996D01*
X012880Y009162D01*
X012753Y009288D01*
X012724Y009300D01*
X012753Y009313D01*
X012880Y009439D01*
X012948Y009605D01*
X012948Y009784D01*
X012880Y009949D01*
X012753Y010076D01*
X012724Y010088D01*
X012753Y010100D01*
X012880Y010227D01*
X012948Y010392D01*
X012948Y010571D01*
X012880Y010736D01*
X012753Y010863D01*
X012724Y010875D01*
X012753Y010887D01*
X012880Y011014D01*
X012948Y011179D01*
X012948Y011358D01*
X012880Y011524D01*
X012753Y011650D01*
X012724Y011663D01*
X012753Y011675D01*
X012880Y011801D01*
X012948Y011967D01*
X012948Y012146D01*
X012880Y012311D01*
X012753Y012438D01*
X012724Y012450D01*
X012753Y012462D01*
X012880Y012589D01*
X012948Y012754D01*
X012948Y012933D01*
X012880Y013099D01*
X012753Y013225D01*
X012724Y013237D01*
X012753Y013250D01*
X012880Y013376D01*
X012948Y013542D01*
X012948Y013721D01*
X012880Y013886D01*
X012753Y014013D01*
X012724Y014025D01*
X012753Y014037D01*
X012880Y014164D01*
X012948Y014329D01*
X012948Y014508D01*
X012880Y014673D01*
X012753Y014800D01*
X012588Y014868D01*
X012409Y014868D01*
X012243Y014800D01*
X012117Y014673D01*
X012048Y014508D01*
X012048Y014329D01*
X012117Y014164D01*
X012243Y014037D01*
X012273Y014025D01*
X012243Y014013D01*
X012117Y013886D01*
X012048Y013721D01*
X012048Y013542D01*
X012117Y013376D01*
X012243Y013250D01*
X012273Y013237D01*
X012243Y013225D01*
X012117Y013099D01*
X012048Y012933D01*
X012048Y012754D01*
X012117Y012589D01*
X012243Y012462D01*
X012273Y012450D01*
X012243Y012438D01*
X012117Y012311D01*
X012048Y012146D01*
X012048Y011967D01*
X012117Y011801D01*
X012243Y011675D01*
X012273Y011663D01*
X012243Y011650D01*
X012117Y011524D01*
X012048Y011358D01*
X012048Y011179D01*
X012117Y011014D01*
X012243Y010887D01*
X012273Y010875D01*
X012243Y010863D01*
X012117Y010736D01*
X012106Y010711D01*
X009991Y010711D01*
X009801Y010711D01*
X008572Y009483D01*
X008438Y009348D01*
X008438Y006131D01*
X008238Y005931D01*
X008238Y005575D01*
X008489Y005323D01*
X008846Y005323D01*
X009098Y005575D01*
X009098Y005931D01*
X009098Y005864D02*
X010453Y005864D01*
X010438Y005848D02*
X009938Y005348D01*
X009938Y005158D01*
X009938Y002131D01*
X009738Y001931D01*
X009738Y001575D01*
X009989Y001323D01*
X010346Y001323D01*
X010501Y001478D02*
X010849Y001478D01*
X010748Y001597D02*
X010598Y001597D01*
X010598Y001715D02*
X010748Y001715D01*
X010748Y001834D02*
X010598Y001834D01*
X010576Y001952D02*
X010773Y001952D01*
X010891Y002071D02*
X010458Y002071D01*
X010398Y002189D02*
X013817Y002189D01*
X013761Y002308D02*
X010398Y002308D01*
X010398Y002426D02*
X013711Y002426D01*
X013687Y002545D02*
X010398Y002545D01*
X010398Y002664D02*
X013687Y002664D01*
X013687Y002782D02*
X010398Y002782D01*
X010398Y002901D02*
X013732Y002901D01*
X013781Y003019D02*
X010398Y003019D01*
X010398Y003138D02*
X013866Y003138D01*
X013985Y003256D02*
X010398Y003256D01*
X010398Y003375D02*
X014219Y003375D01*
X014699Y003375D02*
X015881Y003375D01*
X015763Y003493D02*
X010398Y003493D01*
X010398Y003612D02*
X015698Y003612D01*
X015698Y003730D02*
X010398Y003730D01*
X010398Y003849D02*
X015698Y003849D01*
X015717Y003967D02*
X010398Y003967D01*
X010398Y004086D02*
X015836Y004086D01*
X015954Y004205D02*
X010398Y004205D01*
X010398Y004323D02*
X015933Y004323D01*
X015814Y004442D02*
X010398Y004442D01*
X010398Y004560D02*
X015698Y004560D01*
X015698Y004679D02*
X010398Y004679D01*
X010398Y004797D02*
X015698Y004797D01*
X015698Y004916D02*
X010398Y004916D01*
X010398Y005034D02*
X015784Y005034D01*
X015903Y005153D02*
X010398Y005153D01*
X010511Y005271D02*
X015938Y005271D01*
X015938Y005390D02*
X012912Y005390D01*
X013031Y005509D02*
X015938Y005509D01*
X015938Y005627D02*
X013098Y005627D01*
X013098Y005746D02*
X015938Y005746D01*
X015938Y005864D02*
X013098Y005864D01*
X013046Y005983D02*
X015938Y005983D01*
X015938Y006101D02*
X012927Y006101D01*
X012668Y005753D02*
X010668Y005753D01*
X010168Y005253D01*
X010168Y001753D01*
X009738Y001715D02*
X006588Y001715D01*
X006588Y001733D02*
X006188Y001733D01*
X006188Y001773D01*
X006588Y001773D01*
X006588Y001927D01*
X006341Y002173D01*
X006188Y002173D01*
X006188Y001773D01*
X006147Y001773D01*
X006147Y001733D01*
X005748Y001733D01*
X005748Y001579D01*
X005994Y001333D01*
X006147Y001333D01*
X006147Y001733D01*
X006188Y001733D01*
X006188Y001333D01*
X006341Y001333D01*
X006588Y001579D01*
X006588Y001733D01*
X006588Y001834D02*
X009738Y001834D01*
X009759Y001952D02*
X006562Y001952D01*
X006444Y002071D02*
X009877Y002071D01*
X009938Y002189D02*
X005398Y002189D01*
X005398Y002131D02*
X005398Y005158D01*
X005398Y005348D01*
X004898Y005848D01*
X004763Y005983D01*
X004046Y005983D01*
X003846Y006183D01*
X003489Y006183D01*
X003238Y005931D01*
X003238Y005575D01*
X003489Y005323D01*
X003846Y005323D01*
X004046Y005523D01*
X004572Y005523D01*
X004938Y005158D01*
X004938Y002131D01*
X004738Y001931D01*
X004738Y001575D01*
X004989Y001323D01*
X005346Y001323D01*
X005598Y001575D01*
X005598Y001931D01*
X005398Y002131D01*
X005458Y002071D02*
X005891Y002071D01*
X005994Y002173D02*
X005748Y001927D01*
X005748Y001773D01*
X006147Y001773D01*
X006147Y002173D01*
X005994Y002173D01*
X006147Y002071D02*
X006188Y002071D01*
X006188Y001952D02*
X006147Y001952D01*
X006147Y001834D02*
X006188Y001834D01*
X006188Y001715D02*
X006147Y001715D01*
X006147Y001597D02*
X006188Y001597D01*
X006188Y001478D02*
X006147Y001478D01*
X006147Y001360D02*
X006188Y001360D01*
X006368Y001360D02*
X009953Y001360D01*
X009835Y001478D02*
X006486Y001478D01*
X006588Y001597D02*
X009738Y001597D01*
X009938Y002308D02*
X005398Y002308D01*
X005398Y002426D02*
X009938Y002426D01*
X009938Y002545D02*
X005398Y002545D01*
X005398Y002664D02*
X009938Y002664D01*
X009938Y002782D02*
X005398Y002782D01*
X005398Y002901D02*
X009938Y002901D01*
X009938Y003019D02*
X005398Y003019D01*
X005398Y003138D02*
X009938Y003138D01*
X009938Y003256D02*
X005398Y003256D01*
X005398Y003375D02*
X009938Y003375D01*
X009938Y003493D02*
X005398Y003493D01*
X005398Y003612D02*
X009938Y003612D01*
X009938Y003730D02*
X005398Y003730D01*
X005398Y003849D02*
X009938Y003849D01*
X009938Y003967D02*
X005398Y003967D01*
X005398Y004086D02*
X009938Y004086D01*
X009938Y004205D02*
X005398Y004205D01*
X005398Y004323D02*
X009938Y004323D01*
X009938Y004442D02*
X005398Y004442D01*
X005398Y004560D02*
X009938Y004560D01*
X009938Y004679D02*
X005398Y004679D01*
X005398Y004797D02*
X009938Y004797D01*
X009938Y004916D02*
X005398Y004916D01*
X005398Y005034D02*
X009938Y005034D01*
X009938Y005153D02*
X005398Y005153D01*
X005398Y005271D02*
X009938Y005271D01*
X009979Y005390D02*
X008912Y005390D01*
X009031Y005509D02*
X010098Y005509D01*
X010216Y005627D02*
X009098Y005627D01*
X009098Y005746D02*
X010335Y005746D01*
X010438Y005848D02*
X010572Y005983D01*
X010748Y005509D02*
X012304Y005509D01*
X012423Y005390D02*
X010630Y005390D01*
X008927Y006101D02*
X012408Y006101D01*
X012290Y006931D02*
X008898Y006931D01*
X008898Y006813D02*
X015938Y006813D01*
X015938Y006931D02*
X012706Y006931D01*
X012852Y007050D02*
X015938Y007050D01*
X015938Y007168D02*
X012917Y007168D01*
X012948Y007287D02*
X015863Y007287D01*
X015810Y007405D02*
X012948Y007405D01*
X012906Y007524D02*
X015799Y007524D01*
X015827Y007642D02*
X012824Y007642D01*
X012776Y007761D02*
X015905Y007761D01*
X016168Y007503D02*
X016168Y004753D01*
X016402Y004323D02*
X016412Y004323D01*
X016668Y004253D02*
X016168Y003753D01*
X016638Y003730D02*
X016698Y003730D01*
X016698Y003612D02*
X016638Y003612D01*
X016572Y003493D02*
X016763Y003493D01*
X016881Y003375D02*
X016454Y003375D01*
X016638Y003849D02*
X016698Y003849D01*
X016707Y003967D02*
X016717Y003967D01*
X016826Y004086D02*
X016836Y004086D01*
X016898Y004205D02*
X016954Y004205D01*
X016933Y004323D02*
X016898Y004323D01*
X016668Y004253D02*
X016668Y006503D01*
X016879Y006813D02*
X016938Y006813D01*
X016938Y006931D02*
X016398Y006931D01*
X016398Y006813D02*
X016456Y006813D01*
X016398Y007050D02*
X016938Y007050D01*
X016938Y007168D02*
X016398Y007168D01*
X016472Y007287D02*
X016938Y007287D01*
X016938Y007405D02*
X016525Y007405D01*
X016536Y007524D02*
X016938Y007524D01*
X016938Y007642D02*
X016508Y007642D01*
X016430Y007761D02*
X016938Y007761D01*
X016938Y007879D02*
X012886Y007879D01*
X012935Y007998D02*
X016938Y007998D01*
X016938Y008116D02*
X012948Y008116D01*
X012937Y008235D02*
X016915Y008235D01*
X016831Y008354D02*
X012888Y008354D01*
X012782Y008472D02*
X016799Y008472D01*
X016805Y008591D02*
X012819Y008591D01*
X012904Y008709D02*
X016854Y008709D01*
X016989Y008828D02*
X012948Y008828D01*
X012948Y008946D02*
X017399Y008946D01*
X017438Y008828D02*
X017346Y008828D01*
X017668Y009003D02*
X017668Y004253D01*
X017168Y003753D01*
X017638Y003730D02*
X017698Y003730D01*
X017698Y003612D02*
X017638Y003612D01*
X017572Y003493D02*
X017763Y003493D01*
X017881Y003375D02*
X017454Y003375D01*
X017638Y003849D02*
X017698Y003849D01*
X017707Y003967D02*
X017717Y003967D01*
X017826Y004086D02*
X017836Y004086D01*
X017898Y004205D02*
X017954Y004205D01*
X017933Y004323D02*
X017898Y004323D01*
X017412Y004323D02*
X017402Y004323D01*
X017168Y004753D02*
X017168Y008503D01*
X017668Y009003D02*
X017168Y009503D01*
X017168Y012503D01*
X016799Y012503D02*
X012794Y012503D01*
X012807Y012384D02*
X016818Y012384D01*
X016885Y012266D02*
X012899Y012266D01*
X012948Y012147D02*
X016938Y012147D01*
X016938Y012028D02*
X012948Y012028D01*
X012925Y011910D02*
X016938Y011910D01*
X016938Y011791D02*
X012870Y011791D01*
X012748Y011673D02*
X016938Y011673D01*
X016938Y011554D02*
X012849Y011554D01*
X012916Y011436D02*
X016938Y011436D01*
X016938Y011317D02*
X012948Y011317D01*
X012948Y011199D02*
X016938Y011199D01*
X016938Y011080D02*
X012907Y011080D01*
X012827Y010962D02*
X016938Y010962D01*
X016938Y010843D02*
X012773Y010843D01*
X012885Y010724D02*
X016938Y010724D01*
X016938Y010606D02*
X012934Y010606D01*
X012948Y010487D02*
X016938Y010487D01*
X016938Y010369D02*
X012939Y010369D01*
X012890Y010250D02*
X016938Y010250D01*
X016938Y010132D02*
X012785Y010132D01*
X012816Y010013D02*
X016938Y010013D01*
X016938Y009895D02*
X012902Y009895D01*
X012948Y009776D02*
X016938Y009776D01*
X016938Y009658D02*
X012948Y009658D01*
X012921Y009539D02*
X016938Y009539D01*
X016938Y009420D02*
X012861Y009420D01*
X012727Y009302D02*
X017044Y009302D01*
X017162Y009183D02*
X012858Y009183D01*
X012920Y009065D02*
X017281Y009065D01*
X018398Y009302D02*
X018446Y009302D01*
X018398Y009420D02*
X018938Y009420D01*
X018938Y009302D02*
X018889Y009302D01*
X018938Y009539D02*
X018398Y009539D01*
X018398Y009658D02*
X018938Y009658D01*
X018938Y009776D02*
X018398Y009776D01*
X018398Y009895D02*
X018938Y009895D01*
X018938Y010013D02*
X018398Y010013D01*
X018398Y010132D02*
X018938Y010132D01*
X018938Y010250D02*
X018398Y010250D01*
X018398Y010369D02*
X018938Y010369D01*
X018938Y010487D02*
X018398Y010487D01*
X018398Y010606D02*
X018938Y010606D01*
X018938Y010724D02*
X018409Y010724D01*
X018500Y010843D02*
X018938Y010843D01*
X018938Y010962D02*
X018536Y010962D01*
X018534Y011080D02*
X018938Y011080D01*
X018938Y011199D02*
X018485Y011199D01*
X018371Y011317D02*
X018938Y011317D01*
X018938Y011436D02*
X017898Y011436D01*
X017898Y011554D02*
X018938Y011554D01*
X018938Y011673D02*
X017898Y011673D01*
X017898Y011791D02*
X018938Y011791D01*
X018938Y011910D02*
X017898Y011910D01*
X017898Y012028D02*
X018938Y012028D01*
X018938Y012147D02*
X017898Y012147D01*
X017898Y012266D02*
X018938Y012266D01*
X018938Y012384D02*
X017898Y012384D01*
X017898Y012503D02*
X018938Y012503D01*
X018938Y012621D02*
X017898Y012621D01*
X017898Y012740D02*
X018938Y012740D01*
X018938Y012858D02*
X017898Y012858D01*
X017898Y012977D02*
X018938Y012977D01*
X018938Y013095D02*
X017898Y013095D01*
X017898Y013214D02*
X018938Y013214D01*
X018938Y013332D02*
X017898Y013332D01*
X017898Y013451D02*
X019040Y013451D01*
X019159Y013569D02*
X017898Y013569D01*
X017898Y013688D02*
X019277Y013688D01*
X019396Y013807D02*
X018896Y013807D01*
X019047Y013925D02*
X019288Y013925D01*
X019213Y014044D02*
X019122Y014044D01*
X019168Y014162D02*
X019168Y014162D01*
X019168Y014281D02*
X019168Y014281D01*
X019148Y014399D02*
X019187Y014399D01*
X019236Y014518D02*
X019099Y014518D01*
X018991Y014636D02*
X019344Y014636D01*
X019991Y014636D02*
X020344Y014636D01*
X020236Y014518D02*
X020099Y014518D01*
X020148Y014399D02*
X020187Y014399D01*
X020168Y014281D02*
X020168Y014281D01*
X020168Y014162D02*
X020168Y014162D01*
X020122Y014044D02*
X020213Y014044D01*
X019668Y013753D02*
X026418Y013253D01*
X026668Y013503D01*
X028668Y013503D01*
X029168Y014003D01*
X029668Y014503D02*
X029668Y005003D01*
X029582Y004205D02*
X029753Y004205D01*
X029708Y004086D02*
X029628Y004086D01*
X029628Y003967D02*
X029708Y003967D01*
X029734Y003849D02*
X029602Y003849D01*
X029545Y003730D02*
X029790Y003730D01*
X029910Y003612D02*
X029425Y003612D01*
X028910Y003612D02*
X028425Y003612D01*
X028545Y003730D02*
X028790Y003730D01*
X028734Y003849D02*
X028602Y003849D01*
X028628Y003967D02*
X028708Y003967D01*
X028708Y004086D02*
X028628Y004086D01*
X028582Y004205D02*
X028753Y004205D01*
X027753Y004205D02*
X024367Y004205D01*
X024358Y004213D02*
X024208Y004213D01*
X024208Y003793D01*
X024628Y003793D01*
X024628Y003944D01*
X024358Y004213D01*
X024208Y004205D02*
X024127Y004205D01*
X024127Y004213D02*
X023977Y004213D01*
X023708Y003944D01*
X023708Y003793D01*
X024127Y003793D01*
X024127Y003713D01*
X023708Y003713D01*
X023708Y003563D01*
X023977Y003293D01*
X024127Y003293D01*
X024127Y003713D01*
X024208Y003713D01*
X024208Y003793D01*
X024127Y003793D01*
X024127Y004213D01*
X024127Y004086D02*
X024208Y004086D01*
X024208Y003967D02*
X024127Y003967D01*
X024127Y003849D02*
X024208Y003849D01*
X024208Y003730D02*
X027790Y003730D01*
X027734Y003849D02*
X024628Y003849D01*
X024604Y003967D02*
X027708Y003967D01*
X027708Y004086D02*
X024485Y004086D01*
X023968Y004205D02*
X023898Y004205D01*
X023898Y004323D02*
X023933Y004323D01*
X023668Y004253D02*
X023668Y011628D01*
X023168Y012003D02*
X023168Y004753D01*
X023402Y004323D02*
X023412Y004323D01*
X023668Y004253D02*
X023168Y003753D01*
X023638Y003730D02*
X024127Y003730D01*
X024208Y003713D02*
X024208Y003293D01*
X024358Y003293D01*
X024628Y003563D01*
X024628Y003713D01*
X024208Y003713D01*
X024208Y003612D02*
X024127Y003612D01*
X024127Y003493D02*
X024208Y003493D01*
X024208Y003375D02*
X024127Y003375D01*
X023895Y003375D02*
X023454Y003375D01*
X023572Y003493D02*
X023777Y003493D01*
X023708Y003612D02*
X023638Y003612D01*
X023638Y003849D02*
X023708Y003849D01*
X023707Y003967D02*
X023731Y003967D01*
X023826Y004086D02*
X023850Y004086D01*
X024628Y003612D02*
X027910Y003612D01*
X026554Y003019D02*
X030108Y003019D01*
X029990Y002901D02*
X026603Y002901D01*
X026648Y002792D02*
X026531Y003076D01*
X026313Y003293D01*
X026030Y003411D01*
X025723Y003411D01*
X025439Y003293D01*
X025222Y003076D01*
X025104Y002792D01*
X025104Y002485D01*
X025222Y002202D01*
X025439Y001985D01*
X025723Y001867D01*
X026030Y001867D01*
X026313Y001985D01*
X026531Y002202D01*
X026648Y002485D01*
X026648Y002792D01*
X026648Y002782D02*
X029871Y002782D01*
X029753Y002664D02*
X026648Y002664D01*
X026648Y002545D02*
X029634Y002545D01*
X029516Y002426D02*
X026624Y002426D01*
X026574Y002308D02*
X029397Y002308D01*
X029279Y002189D02*
X026518Y002189D01*
X026400Y002071D02*
X028877Y002071D01*
X028759Y001952D02*
X026235Y001952D01*
X025517Y001952D02*
X014818Y001952D01*
X014982Y002071D02*
X025353Y002071D01*
X025234Y002189D02*
X015101Y002189D01*
X015157Y002308D02*
X025178Y002308D01*
X025129Y002426D02*
X015206Y002426D01*
X015231Y002545D02*
X025104Y002545D01*
X025104Y002664D02*
X015231Y002664D01*
X015231Y002782D02*
X025104Y002782D01*
X025149Y002901D02*
X015186Y002901D01*
X015137Y003019D02*
X025198Y003019D01*
X025283Y003138D02*
X015052Y003138D01*
X014933Y003256D02*
X025402Y003256D01*
X025636Y003375D02*
X024440Y003375D01*
X024558Y003493D02*
X030438Y003493D01*
X030438Y003375D02*
X026117Y003375D01*
X026350Y003256D02*
X030345Y003256D01*
X030227Y003138D02*
X026469Y003138D01*
X022881Y003375D02*
X022454Y003375D01*
X022572Y003493D02*
X022763Y003493D01*
X022698Y003612D02*
X022638Y003612D01*
X022638Y003730D02*
X022698Y003730D01*
X022698Y003849D02*
X022638Y003849D01*
X022707Y003967D02*
X022717Y003967D01*
X022826Y004086D02*
X022836Y004086D01*
X022898Y004205D02*
X022954Y004205D01*
X022933Y004323D02*
X022898Y004323D01*
X022668Y004253D02*
X022168Y003753D01*
X021836Y004086D02*
X021826Y004086D01*
X021898Y004205D02*
X021954Y004205D01*
X021933Y004323D02*
X021898Y004323D01*
X021668Y004253D02*
X021168Y003753D01*
X021638Y003730D02*
X021698Y003730D01*
X021698Y003612D02*
X021638Y003612D01*
X021572Y003493D02*
X021763Y003493D01*
X021881Y003375D02*
X021454Y003375D01*
X021638Y003849D02*
X021698Y003849D01*
X021707Y003967D02*
X021717Y003967D01*
X021668Y004253D02*
X021668Y011628D01*
X022168Y011503D02*
X022168Y004753D01*
X022402Y004323D02*
X022412Y004323D01*
X022668Y004253D02*
X022668Y005503D01*
X021168Y004753D02*
X021168Y012003D01*
X021668Y012503D01*
X028668Y012503D01*
X029168Y013003D01*
X030418Y012858D02*
X032730Y012858D01*
X032780Y012740D02*
X030418Y012740D01*
X030418Y013214D02*
X032757Y013214D01*
X032846Y013332D02*
X030418Y013332D01*
X030418Y013451D02*
X033047Y013451D01*
X033012Y013569D02*
X030418Y013569D01*
X030418Y013688D02*
X032832Y013688D01*
X032751Y013807D02*
X030418Y013807D01*
X030418Y013925D02*
X032708Y013925D01*
X032708Y014044D02*
X030418Y014044D01*
X030418Y014162D02*
X032736Y014162D01*
X032795Y014281D02*
X030418Y014281D01*
X030418Y014399D02*
X032922Y014399D01*
X034413Y014399D02*
X035440Y014399D01*
X035536Y014281D02*
X034540Y014281D01*
X034600Y014162D02*
X035655Y014162D01*
X035774Y014044D02*
X034628Y014044D01*
X034628Y013925D02*
X035892Y013925D01*
X036011Y013807D02*
X034584Y013807D01*
X034503Y013688D02*
X037254Y013688D01*
X037311Y013569D02*
X034323Y013569D01*
X034288Y013451D02*
X037311Y013451D01*
X037311Y013332D02*
X034489Y013332D01*
X034578Y013214D02*
X037311Y013214D01*
X037267Y013095D02*
X037051Y013095D01*
X037154Y012977D02*
X037167Y012977D01*
X036793Y012977D02*
X036755Y012977D01*
X036755Y013095D02*
X036793Y013095D01*
X036793Y012858D02*
X036755Y012858D01*
X036755Y012740D02*
X035848Y012740D01*
X035848Y012858D02*
X036345Y012858D01*
X036394Y012977D02*
X035802Y012977D01*
X035683Y013095D02*
X036496Y013095D01*
X036354Y012621D02*
X035848Y012621D01*
X035775Y012503D02*
X036412Y012503D01*
X036533Y012384D02*
X035657Y012384D01*
X035418Y012753D02*
X035168Y012503D01*
X032668Y012503D01*
X032755Y012266D02*
X032779Y012266D01*
X032729Y012147D02*
X032637Y012147D01*
X032708Y012028D02*
X032518Y012028D01*
X032400Y011910D02*
X032708Y011910D01*
X032757Y011791D02*
X032281Y011791D01*
X032162Y011673D02*
X032847Y011673D01*
X033751Y011199D02*
X031688Y011199D01*
X031807Y011317D02*
X033831Y011317D01*
X033708Y011080D02*
X031570Y011080D01*
X031451Y010962D02*
X033708Y010962D01*
X033736Y010843D02*
X031333Y010843D01*
X031214Y010724D02*
X033796Y010724D01*
X033925Y010606D02*
X031096Y010606D01*
X030898Y009539D02*
X037812Y009539D01*
X037812Y009420D02*
X034362Y009420D01*
X034519Y009302D02*
X037812Y009302D01*
X037812Y009183D02*
X034591Y009183D01*
X034472Y009658D02*
X037812Y009658D01*
X037812Y009776D02*
X037783Y009776D01*
X037552Y009776D02*
X034571Y009776D01*
X034452Y010369D02*
X036193Y010369D01*
X036981Y009895D02*
X037340Y009895D01*
X037242Y010013D02*
X037099Y010013D01*
X037143Y010132D02*
X037193Y010132D01*
X037668Y010253D02*
X037668Y012647D01*
X037561Y012753D01*
X037294Y012384D02*
X037014Y012384D01*
X037136Y012503D02*
X037178Y012503D01*
X037438Y012266D02*
X034556Y012266D01*
X034606Y012147D02*
X037438Y012147D01*
X037438Y012028D02*
X034628Y012028D01*
X034627Y011910D02*
X037438Y011910D01*
X037438Y011791D02*
X034578Y011791D01*
X034488Y011673D02*
X037438Y011673D01*
X036793Y012384D02*
X036755Y012384D01*
X036755Y012503D02*
X036793Y012503D01*
X036793Y012621D02*
X036755Y012621D01*
X035152Y013095D02*
X034627Y013095D01*
X034628Y012977D02*
X035033Y012977D01*
X034988Y012858D02*
X034605Y012858D01*
X034555Y012740D02*
X034988Y012740D01*
X037668Y010253D02*
X038042Y009879D01*
X038042Y008265D01*
X033852Y006338D02*
X030898Y006338D01*
X030898Y006220D02*
X033759Y006220D01*
X033710Y006101D02*
X030898Y006101D01*
X030898Y005983D02*
X033708Y005983D01*
X033727Y005864D02*
X030898Y005864D01*
X030898Y005746D02*
X033776Y005746D01*
X030438Y003612D02*
X030425Y003612D01*
X021412Y004323D02*
X021402Y004323D01*
X020954Y004205D02*
X020898Y004205D01*
X020898Y004323D02*
X020933Y004323D01*
X020668Y004253D02*
X020168Y003753D01*
X020638Y003730D02*
X020698Y003730D01*
X020698Y003612D02*
X020638Y003612D01*
X020572Y003493D02*
X020763Y003493D01*
X020881Y003375D02*
X020454Y003375D01*
X019881Y003375D02*
X019454Y003375D01*
X019572Y003493D02*
X019763Y003493D01*
X019698Y003612D02*
X019638Y003612D01*
X019638Y003730D02*
X019698Y003730D01*
X019698Y003849D02*
X019638Y003849D01*
X019707Y003967D02*
X019717Y003967D01*
X019826Y004086D02*
X019836Y004086D01*
X019898Y004205D02*
X019954Y004205D01*
X019933Y004323D02*
X019898Y004323D01*
X019668Y004253D02*
X019168Y003753D01*
X018836Y004086D02*
X018826Y004086D01*
X018898Y004205D02*
X018954Y004205D01*
X018933Y004323D02*
X018898Y004323D01*
X018668Y004253D02*
X018168Y003753D01*
X018638Y003730D02*
X018698Y003730D01*
X018698Y003612D02*
X018638Y003612D01*
X018572Y003493D02*
X018763Y003493D01*
X018881Y003375D02*
X018454Y003375D01*
X018638Y003849D02*
X018698Y003849D01*
X018707Y003967D02*
X018717Y003967D01*
X018668Y004253D02*
X018668Y009003D01*
X020168Y010003D02*
X020168Y004753D01*
X020402Y004323D02*
X020412Y004323D01*
X020668Y004253D02*
X020668Y008003D01*
X015938Y006694D02*
X008898Y006694D01*
X008898Y006575D02*
X015938Y006575D01*
X015938Y006457D02*
X008898Y006457D01*
X008898Y006338D02*
X015938Y006338D01*
X015938Y006220D02*
X008898Y006220D01*
X008438Y006220D02*
X007898Y006220D01*
X007898Y006338D02*
X008438Y006338D01*
X008438Y006457D02*
X007898Y006457D01*
X007898Y006575D02*
X008438Y006575D01*
X008438Y006694D02*
X007898Y006694D01*
X007898Y006813D02*
X008438Y006813D01*
X008438Y006931D02*
X007898Y006931D01*
X007898Y007050D02*
X008438Y007050D01*
X008438Y007168D02*
X007898Y007168D01*
X007898Y007287D02*
X008438Y007287D01*
X008438Y007405D02*
X007898Y007405D01*
X007898Y007524D02*
X008438Y007524D01*
X008438Y007642D02*
X007898Y007642D01*
X007898Y007761D02*
X008438Y007761D01*
X008438Y007879D02*
X007898Y007879D01*
X007898Y007998D02*
X008438Y007998D01*
X008438Y008116D02*
X007898Y008116D01*
X007898Y008235D02*
X008438Y008235D01*
X008438Y008354D02*
X007898Y008354D01*
X007898Y008472D02*
X008438Y008472D01*
X008438Y008591D02*
X007898Y008591D01*
X007898Y008709D02*
X008438Y008709D01*
X008438Y008828D02*
X007898Y008828D01*
X007898Y008946D02*
X008438Y008946D01*
X008438Y009065D02*
X007898Y009065D01*
X007898Y009183D02*
X008438Y009183D01*
X008438Y009302D02*
X007898Y009302D01*
X007825Y009420D02*
X008510Y009420D01*
X008628Y009539D02*
X007707Y009539D01*
X007588Y009658D02*
X008747Y009658D01*
X008865Y009776D02*
X007470Y009776D01*
X007351Y009895D02*
X008984Y009895D01*
X009102Y010013D02*
X007233Y010013D01*
X007114Y010132D02*
X009221Y010132D01*
X009339Y010250D02*
X006996Y010250D01*
X006877Y010369D02*
X009458Y010369D01*
X009577Y010487D02*
X006759Y010487D01*
X006640Y010606D02*
X009695Y010606D01*
X009896Y010481D02*
X008668Y009253D01*
X008668Y005753D01*
X008238Y005746D02*
X008098Y005746D01*
X008098Y005864D02*
X008238Y005864D01*
X008289Y005983D02*
X008046Y005983D01*
X007927Y006101D02*
X008408Y006101D01*
X007668Y005753D02*
X007668Y009253D01*
X006439Y010481D01*
X003837Y010481D01*
X003387Y010487D02*
X000928Y010487D01*
X000928Y010369D02*
X003396Y010369D01*
X003446Y010250D02*
X000928Y010250D01*
X000928Y010132D02*
X003550Y010132D01*
X003520Y010013D02*
X000928Y010013D01*
X000928Y009895D02*
X003433Y009895D01*
X003387Y009776D02*
X000928Y009776D01*
X000928Y009658D02*
X003387Y009658D01*
X003414Y009539D02*
X000928Y009539D01*
X000928Y009420D02*
X003474Y009420D01*
X003608Y009302D02*
X000928Y009302D01*
X000928Y009183D02*
X003477Y009183D01*
X003415Y009065D02*
X000928Y009065D01*
X000928Y008946D02*
X003387Y008946D01*
X003387Y008828D02*
X000928Y008828D01*
X000928Y008709D02*
X003432Y008709D01*
X003516Y008591D02*
X000928Y008591D01*
X000928Y008472D02*
X003553Y008472D01*
X003447Y008354D02*
X000928Y008354D01*
X000928Y008235D02*
X003398Y008235D01*
X003387Y008116D02*
X000928Y008116D01*
X000928Y007998D02*
X003400Y007998D01*
X003449Y007879D02*
X000928Y007879D01*
X000928Y007761D02*
X003559Y007761D01*
X003525Y007642D02*
X000928Y007642D01*
X000928Y007524D02*
X003441Y007524D01*
X003403Y007405D02*
X000928Y007405D01*
X000928Y007287D02*
X003399Y007287D01*
X003427Y007168D02*
X000928Y007168D01*
X000928Y007050D02*
X003498Y007050D01*
X003654Y006931D02*
X000928Y006931D01*
X000928Y006813D02*
X007438Y006813D01*
X007438Y006931D02*
X004019Y006931D01*
X003846Y006931D02*
X003828Y006931D01*
X003828Y007050D02*
X003846Y007050D01*
X003846Y007168D02*
X003828Y007168D01*
X003828Y007287D02*
X003846Y007287D01*
X004246Y007168D02*
X007438Y007168D01*
X007438Y007050D02*
X004176Y007050D01*
X004275Y007287D02*
X007438Y007287D01*
X007438Y007405D02*
X004271Y007405D01*
X004233Y007524D02*
X007438Y007524D01*
X007438Y007642D02*
X004149Y007642D01*
X004115Y007761D02*
X007438Y007761D01*
X007438Y007879D02*
X004225Y007879D01*
X004274Y007998D02*
X007438Y007998D01*
X007438Y008116D02*
X004287Y008116D01*
X004276Y008235D02*
X007438Y008235D01*
X007438Y008354D02*
X004227Y008354D01*
X004120Y008472D02*
X007438Y008472D01*
X007438Y008591D02*
X004157Y008591D01*
X004242Y008709D02*
X007438Y008709D01*
X007438Y008828D02*
X004287Y008828D01*
X004287Y008946D02*
X007438Y008946D01*
X007438Y009065D02*
X004258Y009065D01*
X004196Y009183D02*
X007412Y009183D01*
X007294Y009302D02*
X004066Y009302D01*
X004200Y009420D02*
X007175Y009420D01*
X007056Y009539D02*
X004260Y009539D01*
X004287Y009658D02*
X006938Y009658D01*
X006819Y009776D02*
X004287Y009776D01*
X004241Y009895D02*
X006701Y009895D01*
X006582Y010013D02*
X004154Y010013D01*
X004123Y010132D02*
X006464Y010132D01*
X006345Y010250D02*
X004228Y010250D01*
X004223Y010724D02*
X012112Y010724D01*
X012223Y010843D02*
X004112Y010843D01*
X004166Y010962D02*
X012169Y010962D01*
X012089Y011080D02*
X004246Y011080D01*
X004287Y011199D02*
X012048Y011199D01*
X012048Y011317D02*
X004287Y011317D01*
X004255Y011436D02*
X012080Y011436D01*
X012147Y011554D02*
X004188Y011554D01*
X004087Y011673D02*
X012248Y011673D01*
X012127Y011791D02*
X004208Y011791D01*
X004263Y011910D02*
X012072Y011910D01*
X012048Y012028D02*
X004287Y012028D01*
X004286Y012147D02*
X012049Y012147D01*
X012098Y012266D02*
X004237Y012266D01*
X004145Y012384D02*
X012190Y012384D01*
X012203Y012503D02*
X004132Y012503D01*
X004232Y012621D02*
X012103Y012621D01*
X012054Y012740D02*
X004281Y012740D01*
X004287Y012858D02*
X012048Y012858D01*
X012066Y012977D02*
X004269Y012977D01*
X004220Y013095D02*
X012115Y013095D01*
X012232Y013214D02*
X004103Y013214D01*
X004175Y013332D02*
X012161Y013332D01*
X012086Y013451D02*
X004249Y013451D01*
X004287Y013569D02*
X012048Y013569D01*
X012048Y013688D02*
X004287Y013688D01*
X004251Y013807D02*
X012084Y013807D01*
X012156Y013925D02*
X004179Y013925D01*
X004262Y014044D02*
X012237Y014044D01*
X012118Y014162D02*
X004287Y014162D01*
X004287Y014281D02*
X012068Y014281D01*
X012048Y014399D02*
X004287Y014399D01*
X004287Y014518D02*
X012052Y014518D01*
X012101Y014636D02*
X004404Y014636D01*
X004523Y014755D02*
X012198Y014755D01*
X012798Y014755D02*
X013869Y014755D01*
X013782Y014636D02*
X012895Y014636D01*
X012944Y014518D02*
X013733Y014518D01*
X013687Y014399D02*
X012948Y014399D01*
X012928Y014281D02*
X013687Y014281D01*
X013687Y014162D02*
X012878Y014162D01*
X012760Y014044D02*
X013710Y014044D01*
X013759Y013925D02*
X012841Y013925D01*
X012913Y013807D02*
X013814Y013807D01*
X013932Y013688D02*
X012948Y013688D01*
X012948Y013569D02*
X014092Y013569D01*
X014825Y013569D02*
X017438Y013569D01*
X017438Y013451D02*
X012911Y013451D01*
X012836Y013332D02*
X017438Y013332D01*
X017438Y013214D02*
X012764Y013214D01*
X012881Y013095D02*
X017438Y013095D01*
X017438Y012977D02*
X012930Y012977D01*
X012948Y012858D02*
X017063Y012858D01*
X017272Y012858D02*
X017438Y012858D01*
X016884Y012740D02*
X012942Y012740D01*
X012893Y012621D02*
X016818Y012621D01*
X017438Y013688D02*
X014985Y013688D01*
X015104Y013807D02*
X016439Y013807D01*
X016384Y013829D02*
X016568Y013753D01*
X016767Y013753D01*
X016951Y013829D01*
X017091Y013970D01*
X017168Y014154D01*
X017168Y014353D01*
X017091Y014536D01*
X016951Y014677D01*
X016767Y014753D01*
X016568Y014753D01*
X016384Y014677D01*
X016244Y014536D01*
X016168Y014353D01*
X016168Y014154D01*
X016244Y013970D01*
X016384Y013829D01*
X016288Y013925D02*
X015158Y013925D01*
X015207Y014044D02*
X016213Y014044D01*
X016168Y014162D02*
X015231Y014162D01*
X015231Y014281D02*
X016168Y014281D01*
X016187Y014399D02*
X015231Y014399D01*
X015185Y014518D02*
X016236Y014518D01*
X016344Y014636D02*
X015136Y014636D01*
X015049Y014755D02*
X021418Y014755D01*
X021418Y014873D02*
X014930Y014873D01*
X014692Y014992D02*
X021418Y014992D01*
X021918Y014992D02*
X025643Y014992D01*
X025670Y015003D02*
X025439Y014907D01*
X025222Y014690D01*
X025104Y014407D01*
X025104Y014100D01*
X025222Y013816D01*
X025439Y013599D01*
X025564Y013547D01*
X022769Y013754D01*
X022951Y013829D01*
X023091Y013970D01*
X023168Y014154D01*
X023168Y014353D01*
X023091Y014536D01*
X022951Y014677D01*
X022767Y014753D01*
X022568Y014753D01*
X022384Y014677D01*
X022244Y014536D01*
X022168Y014353D01*
X022168Y014154D01*
X022244Y013970D01*
X022384Y013829D01*
X022522Y013772D01*
X021921Y013817D01*
X021951Y013829D01*
X022091Y013970D01*
X022168Y014154D01*
X022168Y014353D01*
X022091Y014536D01*
X021951Y014677D01*
X021918Y014691D01*
X021918Y015003D01*
X025670Y015003D01*
X025405Y014873D02*
X021918Y014873D01*
X021918Y014755D02*
X025286Y014755D01*
X025200Y014636D02*
X023974Y014636D01*
X023987Y014627D02*
X023924Y014672D01*
X023856Y014707D01*
X023782Y014731D01*
X023706Y014743D01*
X023696Y014743D01*
X023696Y014282D01*
X023639Y014282D01*
X023639Y014743D01*
X023629Y014743D01*
X023553Y014731D01*
X023479Y014707D01*
X023411Y014672D01*
X023348Y014627D01*
X023294Y014572D01*
X023248Y014510D01*
X023213Y014441D01*
X023190Y014368D01*
X023178Y014292D01*
X023178Y014282D01*
X023639Y014282D01*
X023639Y014224D01*
X023696Y014224D01*
X023696Y013763D01*
X023706Y013763D01*
X023782Y013775D01*
X023856Y013799D01*
X023924Y013834D01*
X023987Y013879D01*
X024041Y013934D01*
X024087Y013996D01*
X024122Y014065D01*
X024145Y014138D01*
X024158Y014215D01*
X024158Y014224D01*
X023696Y014224D01*
X023696Y014282D01*
X024158Y014282D01*
X024158Y014292D01*
X024145Y014368D01*
X024122Y014441D01*
X024087Y014510D01*
X024041Y014572D01*
X023987Y014627D01*
X024081Y014518D02*
X025150Y014518D01*
X025104Y014399D02*
X024135Y014399D01*
X024149Y014162D02*
X025104Y014162D01*
X025104Y014281D02*
X023696Y014281D01*
X023639Y014281D02*
X023168Y014281D01*
X023178Y014224D02*
X023178Y014215D01*
X023190Y014138D01*
X023213Y014065D01*
X023248Y013996D01*
X023294Y013934D01*
X023348Y013879D01*
X023411Y013834D01*
X023479Y013799D01*
X023553Y013775D01*
X023629Y013763D01*
X023639Y013763D01*
X023639Y014224D01*
X023178Y014224D01*
X023168Y014162D02*
X023186Y014162D01*
X023224Y014044D02*
X023122Y014044D01*
X023047Y013925D02*
X023303Y013925D01*
X023465Y013807D02*
X022896Y013807D01*
X022439Y013807D02*
X022059Y013807D01*
X022047Y013925D02*
X022288Y013925D01*
X022213Y014044D02*
X022122Y014044D01*
X022168Y014162D02*
X022168Y014162D01*
X022168Y014281D02*
X022168Y014281D01*
X022148Y014399D02*
X022187Y014399D01*
X022236Y014518D02*
X022099Y014518D01*
X021991Y014636D02*
X022344Y014636D01*
X022991Y014636D02*
X023361Y014636D01*
X023254Y014518D02*
X023099Y014518D01*
X023148Y014399D02*
X023200Y014399D01*
X023639Y014399D02*
X023696Y014399D01*
X023696Y014518D02*
X023639Y014518D01*
X023639Y014636D02*
X023696Y014636D01*
X023696Y014162D02*
X023639Y014162D01*
X023639Y014044D02*
X023696Y014044D01*
X023696Y013925D02*
X023639Y013925D01*
X023639Y013807D02*
X023696Y013807D01*
X023659Y013688D02*
X025350Y013688D01*
X025260Y013569D02*
X025510Y013569D01*
X025231Y013807D02*
X023870Y013807D01*
X024032Y013925D02*
X025177Y013925D01*
X025128Y014044D02*
X024111Y014044D01*
X021288Y013925D02*
X021047Y013925D01*
X021122Y014044D02*
X021213Y014044D01*
X021168Y014162D02*
X021168Y014162D01*
X021168Y014281D02*
X021168Y014281D01*
X021148Y014399D02*
X021187Y014399D01*
X021236Y014518D02*
X021099Y014518D01*
X020991Y014636D02*
X021344Y014636D01*
X019668Y013753D02*
X019168Y013253D01*
X019168Y004753D01*
X019402Y004323D02*
X019412Y004323D01*
X019668Y004253D02*
X019668Y013003D01*
X018439Y013807D02*
X017898Y013807D01*
X018047Y013925D02*
X018288Y013925D01*
X018213Y014044D02*
X018122Y014044D01*
X018168Y014162D02*
X018168Y014162D01*
X018168Y014281D02*
X018168Y014281D01*
X018148Y014399D02*
X018187Y014399D01*
X018236Y014518D02*
X018099Y014518D01*
X017991Y014636D02*
X018344Y014636D01*
X017668Y014253D02*
X017668Y010503D01*
X018168Y011003D02*
X018168Y004753D01*
X018402Y004323D02*
X018412Y004323D01*
X020638Y003849D02*
X020698Y003849D01*
X020707Y003967D02*
X020717Y003967D01*
X020826Y004086D02*
X020836Y004086D01*
X012144Y007050D02*
X008898Y007050D01*
X008898Y007168D02*
X012079Y007168D01*
X012048Y007287D02*
X008898Y007287D01*
X008898Y007405D02*
X012048Y007405D01*
X012091Y007524D02*
X008898Y007524D01*
X008898Y007642D02*
X012172Y007642D01*
X012220Y007761D02*
X008898Y007761D01*
X008898Y007879D02*
X012111Y007879D01*
X012061Y007998D02*
X008898Y007998D01*
X008898Y008116D02*
X012048Y008116D01*
X012059Y008235D02*
X008898Y008235D01*
X008898Y008354D02*
X012108Y008354D01*
X012215Y008472D02*
X008898Y008472D01*
X008898Y008591D02*
X012178Y008591D01*
X012093Y008709D02*
X008898Y008709D01*
X008898Y008828D02*
X012048Y008828D01*
X012048Y008946D02*
X008898Y008946D01*
X008898Y009065D02*
X012077Y009065D01*
X012139Y009183D02*
X008923Y009183D01*
X009042Y009302D02*
X012269Y009302D01*
X012135Y009420D02*
X009160Y009420D01*
X009279Y009539D02*
X012075Y009539D01*
X012048Y009658D02*
X009397Y009658D01*
X009516Y009776D02*
X012048Y009776D01*
X012094Y009895D02*
X009634Y009895D01*
X009753Y010013D02*
X012181Y010013D01*
X012212Y010132D02*
X009871Y010132D01*
X009990Y010250D02*
X012107Y010250D01*
X012498Y010481D02*
X009896Y010481D01*
X003562Y010843D02*
X000928Y010843D01*
X000928Y010962D02*
X003508Y010962D01*
X003428Y011080D02*
X000928Y011080D01*
X000928Y011199D02*
X003387Y011199D01*
X003387Y011317D02*
X000928Y011317D01*
X000928Y011436D02*
X003419Y011436D01*
X003486Y011554D02*
X000928Y011554D01*
X000928Y011673D02*
X003587Y011673D01*
X003465Y011791D02*
X000928Y011791D01*
X000928Y011910D02*
X003410Y011910D01*
X003387Y012028D02*
X000928Y012028D01*
X000928Y012147D02*
X003387Y012147D01*
X003436Y012266D02*
X000928Y012266D01*
X000928Y012384D02*
X003528Y012384D01*
X003542Y012503D02*
X000928Y012503D01*
X000928Y012621D02*
X003442Y012621D01*
X003393Y012740D02*
X000928Y012740D01*
X000928Y012858D02*
X003387Y012858D01*
X003405Y012977D02*
X000928Y012977D01*
X000928Y013095D02*
X003454Y013095D01*
X003571Y013214D02*
X000928Y013214D01*
X000928Y013332D02*
X003499Y013332D01*
X003424Y013451D02*
X000928Y013451D01*
X000928Y013569D02*
X003387Y013569D01*
X003387Y013688D02*
X000928Y013688D01*
X000928Y013807D02*
X003422Y013807D01*
X003495Y013925D02*
X000928Y013925D01*
X000928Y014044D02*
X003411Y014044D01*
X003387Y014162D02*
X000928Y014162D01*
X000928Y014281D02*
X003387Y014281D01*
X003387Y014399D02*
X002767Y014399D01*
X003128Y014518D02*
X003387Y014518D01*
X003387Y014636D02*
X003333Y014636D01*
X003608Y014873D02*
X003934Y014873D01*
X004053Y014992D02*
X003719Y014992D01*
X003810Y015111D02*
X004171Y015111D01*
X004290Y015229D02*
X003867Y015229D01*
X003924Y015348D02*
X004409Y015348D01*
X004529Y015466D02*
X003981Y015466D01*
X004014Y015585D02*
X026896Y015585D01*
X027014Y015703D02*
X004032Y015703D01*
X004050Y015822D02*
X020245Y015822D01*
X020127Y015940D02*
X004068Y015940D01*
X004069Y016059D02*
X020008Y016059D01*
X019928Y016177D02*
X018601Y016177D01*
X018570Y016160D02*
X018645Y016203D01*
X018714Y016256D01*
X018775Y016317D01*
X018828Y016386D01*
X018871Y016461D01*
X018904Y016541D01*
X018926Y016624D01*
X018936Y016693D01*
X018338Y016693D01*
X018338Y016813D01*
X018936Y016813D01*
X018926Y016882D01*
X018904Y016966D01*
X018871Y017046D01*
X018828Y017121D01*
X018775Y017189D01*
X018714Y017250D01*
X018645Y017303D01*
X018570Y017346D01*
X018490Y017379D01*
X018407Y017402D01*
X018338Y017411D01*
X018338Y016813D01*
X018218Y016813D01*
X018218Y017411D01*
X018149Y017402D01*
X018065Y017379D01*
X017985Y017346D01*
X017910Y017303D01*
X017842Y017250D01*
X017781Y017189D01*
X017728Y017121D01*
X017685Y017046D01*
X017651Y016966D01*
X017629Y016882D01*
X017620Y016813D01*
X018218Y016813D01*
X018218Y016693D01*
X018338Y016693D01*
X018338Y016095D01*
X018407Y016104D01*
X018490Y016127D01*
X018570Y016160D01*
X018754Y016296D02*
X019918Y016296D01*
X019870Y016415D02*
X019717Y016415D01*
X019122Y016415D02*
X018844Y016415D01*
X018901Y016533D02*
X019024Y016533D01*
X018974Y016652D02*
X018930Y016652D01*
X018970Y016770D02*
X018338Y016770D01*
X018338Y016652D02*
X018218Y016652D01*
X018218Y016693D02*
X018218Y016095D01*
X018149Y016104D01*
X018065Y016127D01*
X017985Y016160D01*
X017910Y016203D01*
X017842Y016256D01*
X017781Y016317D01*
X017728Y016386D01*
X017685Y016461D01*
X017651Y016541D01*
X017629Y016624D01*
X017620Y016693D01*
X018218Y016693D01*
X018218Y016770D02*
X003870Y016770D01*
X003927Y016652D02*
X017625Y016652D01*
X017655Y016533D02*
X003984Y016533D01*
X004016Y016415D02*
X017711Y016415D01*
X017802Y016296D02*
X004033Y016296D01*
X004051Y016177D02*
X017955Y016177D01*
X018218Y016177D02*
X018338Y016177D01*
X018338Y016296D02*
X018218Y016296D01*
X018218Y016415D02*
X018338Y016415D01*
X018338Y016533D02*
X018218Y016533D01*
X018218Y016889D02*
X018338Y016889D01*
X018338Y017007D02*
X018218Y017007D01*
X018218Y017126D02*
X018338Y017126D01*
X018338Y017244D02*
X018218Y017244D01*
X018218Y017363D02*
X018338Y017363D01*
X018530Y017363D02*
X021805Y017363D01*
X021997Y017363D02*
X022117Y017363D01*
X022117Y017244D02*
X021997Y017244D01*
X021997Y017126D02*
X022117Y017126D01*
X022117Y017007D02*
X021997Y017007D01*
X021997Y016889D02*
X022117Y016889D01*
X022117Y016770D02*
X027781Y016770D01*
X027732Y016889D02*
X022704Y016889D01*
X022666Y017007D02*
X028132Y017007D01*
X028203Y017007D02*
X033708Y017007D01*
X033717Y016889D02*
X028604Y016889D01*
X028554Y016770D02*
X033766Y016770D01*
X033720Y017126D02*
X028601Y017126D01*
X028549Y017244D02*
X033770Y017244D01*
X033877Y017363D02*
X028438Y017363D01*
X028203Y017363D02*
X028132Y017363D01*
X028132Y017244D02*
X028203Y017244D01*
X028203Y017126D02*
X028132Y017126D01*
X027897Y017363D02*
X022310Y017363D01*
X022499Y017244D02*
X027787Y017244D01*
X027734Y017126D02*
X022603Y017126D01*
X022710Y016652D02*
X026963Y016652D01*
X026844Y016533D02*
X022680Y016533D01*
X022624Y016415D02*
X026725Y016415D01*
X026607Y016296D02*
X022534Y016296D01*
X021410Y016889D02*
X021386Y016889D01*
X021337Y017007D02*
X021448Y017007D01*
X021511Y017126D02*
X021219Y017126D01*
X021615Y017244D02*
X018720Y017244D01*
X018824Y017126D02*
X019156Y017126D01*
X019038Y017007D02*
X018887Y017007D01*
X018925Y016889D02*
X018989Y016889D01*
X019683Y017126D02*
X019904Y017126D01*
X020431Y017126D02*
X020691Y017126D01*
X020573Y017007D02*
X020549Y017007D01*
X018025Y017363D02*
X003345Y017363D01*
X003505Y017244D02*
X017836Y017244D01*
X017732Y017126D02*
X003615Y017126D01*
X003725Y017007D02*
X017669Y017007D01*
X017631Y016889D02*
X003813Y016889D01*
X003140Y017481D02*
X037191Y017481D01*
X036990Y017363D02*
X034458Y017363D01*
X034566Y017244D02*
X036841Y017244D01*
X036696Y017126D02*
X034615Y017126D01*
X034628Y017007D02*
X036616Y017007D01*
X036535Y016889D02*
X034618Y016889D01*
X034569Y016770D02*
X036454Y016770D01*
X032976Y015585D02*
X029939Y015585D01*
X029821Y015703D02*
X032817Y015703D01*
X032745Y015822D02*
X028590Y015822D01*
X028628Y015940D02*
X032708Y015940D01*
X032708Y016059D02*
X028628Y016059D01*
X028593Y016177D02*
X032742Y016177D01*
X027742Y016177D02*
X027195Y016177D01*
X027077Y016059D02*
X027708Y016059D01*
X027708Y015940D02*
X026958Y015940D01*
X026840Y015822D02*
X027745Y015822D01*
X017964Y011317D02*
X017898Y011317D01*
X017438Y013807D02*
X016896Y013807D01*
X017047Y013925D02*
X017288Y013925D01*
X017213Y014044D02*
X017122Y014044D01*
X017168Y014162D02*
X017168Y014162D01*
X017168Y014281D02*
X017168Y014281D01*
X017148Y014399D02*
X017187Y014399D01*
X017236Y014518D02*
X017099Y014518D01*
X016991Y014636D02*
X017344Y014636D01*
X014226Y014992D02*
X004760Y014992D01*
X004641Y014873D02*
X013988Y014873D01*
X003450Y010724D02*
X000928Y010724D01*
X000928Y010606D02*
X003401Y010606D01*
X000928Y006694D02*
X007438Y006694D01*
X007438Y006575D02*
X000928Y006575D01*
X000928Y006457D02*
X007438Y006457D01*
X007438Y006338D02*
X000928Y006338D01*
X000928Y006220D02*
X007438Y006220D01*
X007408Y006101D02*
X003927Y006101D01*
X003408Y006101D02*
X000928Y006101D01*
X000928Y005983D02*
X003289Y005983D01*
X003238Y005864D02*
X000928Y005864D01*
X000928Y005746D02*
X003238Y005746D01*
X003238Y005627D02*
X000928Y005627D01*
X000928Y005509D02*
X003304Y005509D01*
X003423Y005390D02*
X000928Y005390D01*
X000928Y005271D02*
X004824Y005271D01*
X004938Y005153D02*
X000928Y005153D01*
X000928Y005034D02*
X004938Y005034D01*
X004938Y004916D02*
X000928Y004916D01*
X000928Y004797D02*
X004938Y004797D01*
X004938Y004679D02*
X000928Y004679D01*
X000928Y004560D02*
X004938Y004560D01*
X004938Y004442D02*
X000928Y004442D01*
X000928Y004323D02*
X004938Y004323D01*
X004938Y004205D02*
X000928Y004205D01*
X000928Y004086D02*
X004938Y004086D01*
X004938Y003967D02*
X000928Y003967D01*
X000928Y003849D02*
X004938Y003849D01*
X004938Y003730D02*
X000928Y003730D01*
X000928Y003612D02*
X002024Y003612D01*
X001722Y003493D02*
X000928Y003493D01*
X000928Y003375D02*
X001505Y003375D01*
X001356Y003256D02*
X000928Y003256D01*
X000928Y003138D02*
X001208Y003138D01*
X001124Y003019D02*
X000928Y003019D01*
X000928Y002901D02*
X001043Y002901D01*
X000962Y002782D02*
X000928Y002782D01*
X002746Y003612D02*
X004938Y003612D01*
X004938Y003493D02*
X003119Y003493D01*
X003325Y003375D02*
X004938Y003375D01*
X004938Y003256D02*
X003494Y003256D01*
X003604Y003138D02*
X004938Y003138D01*
X004938Y003019D02*
X003714Y003019D01*
X003807Y002901D02*
X004938Y002901D01*
X004938Y002782D02*
X003864Y002782D01*
X003921Y002664D02*
X004938Y002664D01*
X004938Y002545D02*
X003979Y002545D01*
X004014Y002426D02*
X004938Y002426D01*
X004938Y002308D02*
X004032Y002308D01*
X004049Y002189D02*
X004938Y002189D01*
X004877Y002071D02*
X004067Y002071D01*
X004070Y001952D02*
X004759Y001952D01*
X004738Y001834D02*
X004052Y001834D01*
X004034Y001715D02*
X004738Y001715D01*
X004738Y001597D02*
X004016Y001597D01*
X003986Y001478D02*
X004835Y001478D01*
X004953Y001360D02*
X003929Y001360D01*
X005168Y001753D02*
X005168Y005253D01*
X004668Y005753D01*
X003668Y005753D01*
X004031Y005509D02*
X004587Y005509D01*
X004705Y005390D02*
X003912Y005390D01*
X004763Y005983D02*
X007289Y005983D01*
X007238Y005864D02*
X004882Y005864D01*
X005000Y005746D02*
X007238Y005746D01*
X007238Y005627D02*
X005119Y005627D01*
X005237Y005509D02*
X007304Y005509D01*
X007423Y005390D02*
X005356Y005390D01*
X007912Y005390D02*
X008423Y005390D01*
X008304Y005509D02*
X008031Y005509D01*
X008098Y005627D02*
X008238Y005627D01*
X005773Y001952D02*
X005576Y001952D01*
X005598Y001834D02*
X005748Y001834D01*
X005748Y001715D02*
X005598Y001715D01*
X005598Y001597D02*
X005748Y001597D01*
X005849Y001478D02*
X005501Y001478D01*
X005382Y001360D02*
X005967Y001360D01*
X002011Y014399D02*
X000928Y014399D01*
X000928Y014518D02*
X001709Y014518D01*
X001499Y014636D02*
X000928Y014636D01*
X000928Y014755D02*
X001350Y014755D01*
X001201Y014873D02*
X000928Y014873D01*
X000928Y014992D02*
X001120Y014992D01*
X001039Y015111D02*
X000928Y015111D01*
X000928Y015229D02*
X000959Y015229D01*
D22*
X003837Y014422D02*
X004668Y015253D01*
X021668Y015253D01*
X021668Y014253D01*
X021668Y015253D02*
X026918Y015253D01*
X027168Y015503D01*
X029668Y015503D01*
X030168Y015003D01*
X030168Y004503D01*
X024418Y004503D01*
X024168Y004753D01*
X030168Y004503D02*
X030168Y004003D01*
X037561Y012753D02*
X037561Y013734D01*
X037293Y014003D01*
X036168Y014003D01*
X035668Y014503D01*
X035668Y016003D01*
X035168Y016503D01*
X027168Y016503D01*
X026668Y016003D01*
X020418Y016003D01*
X020168Y016253D01*
X020168Y016753D01*
X030168Y015003D02*
X034168Y015003D01*
X003837Y014419D02*
X003837Y014422D01*
M02*
