G75*
G70*
%OFA0B0*%
%FSLAX24Y24*%
%IPPOS*%
%LPD*%
%AMOC8*
5,1,8,0,0,1.08239X$1,22.5*
%
%ADD10C,0.0000*%
%ADD11C,0.1182*%
%ADD12C,0.0640*%
%ADD13R,0.0640X0.0640*%
%ADD14C,0.0660*%
%ADD15OC8,0.0600*%
%ADD16C,0.0740*%
%ADD17C,0.1104*%
%ADD18OC8,0.0710*%
%ADD19C,0.0710*%
%ADD20C,0.1340*%
%ADD21C,0.1080*%
%ADD22C,0.0060*%
%ADD23OC8,0.0680*%
%ADD24C,0.0674*%
%ADD25C,0.0611*%
D10*
X002418Y000253D02*
X037918Y000253D01*
X037288Y002003D02*
X037290Y002053D01*
X037296Y002103D01*
X037306Y002152D01*
X037320Y002200D01*
X037337Y002247D01*
X037358Y002292D01*
X037383Y002336D01*
X037411Y002377D01*
X037443Y002416D01*
X037477Y002453D01*
X037514Y002487D01*
X037554Y002517D01*
X037596Y002544D01*
X037640Y002568D01*
X037686Y002589D01*
X037733Y002605D01*
X037781Y002618D01*
X037831Y002627D01*
X037880Y002632D01*
X037931Y002633D01*
X037981Y002630D01*
X038030Y002623D01*
X038079Y002612D01*
X038127Y002597D01*
X038173Y002579D01*
X038218Y002557D01*
X038261Y002531D01*
X038302Y002502D01*
X038341Y002470D01*
X038377Y002435D01*
X038409Y002397D01*
X038439Y002357D01*
X038466Y002314D01*
X038489Y002270D01*
X038508Y002224D01*
X038524Y002176D01*
X038536Y002127D01*
X038544Y002078D01*
X038548Y002028D01*
X038548Y001978D01*
X038544Y001928D01*
X038536Y001879D01*
X038524Y001830D01*
X038508Y001782D01*
X038489Y001736D01*
X038466Y001692D01*
X038439Y001649D01*
X038409Y001609D01*
X038377Y001571D01*
X038341Y001536D01*
X038302Y001504D01*
X038261Y001475D01*
X038218Y001449D01*
X038173Y001427D01*
X038127Y001409D01*
X038079Y001394D01*
X038030Y001383D01*
X037981Y001376D01*
X037931Y001373D01*
X037880Y001374D01*
X037831Y001379D01*
X037781Y001388D01*
X037733Y001401D01*
X037686Y001417D01*
X037640Y001438D01*
X037596Y001462D01*
X037554Y001489D01*
X037514Y001519D01*
X037477Y001553D01*
X037443Y001590D01*
X037411Y001629D01*
X037383Y001670D01*
X037358Y001714D01*
X037337Y001759D01*
X037320Y001806D01*
X037306Y001854D01*
X037296Y001903D01*
X037290Y001953D01*
X037288Y002003D01*
X037918Y000253D02*
X038001Y000255D01*
X038084Y000261D01*
X038167Y000271D01*
X038249Y000285D01*
X038331Y000302D01*
X038411Y000324D01*
X038490Y000349D01*
X038568Y000378D01*
X038645Y000411D01*
X038720Y000448D01*
X038793Y000487D01*
X038864Y000531D01*
X038933Y000577D01*
X039000Y000627D01*
X039064Y000680D01*
X039126Y000736D01*
X039185Y000795D01*
X039241Y000857D01*
X039294Y000921D01*
X039344Y000988D01*
X039390Y001057D01*
X039434Y001128D01*
X039473Y001201D01*
X039510Y001276D01*
X039543Y001353D01*
X039572Y001431D01*
X039597Y001510D01*
X039619Y001590D01*
X039636Y001672D01*
X039650Y001754D01*
X039660Y001837D01*
X039666Y001920D01*
X039668Y002003D01*
X039668Y016003D01*
X037288Y016003D02*
X037290Y016053D01*
X037296Y016103D01*
X037306Y016152D01*
X037320Y016200D01*
X037337Y016247D01*
X037358Y016292D01*
X037383Y016336D01*
X037411Y016377D01*
X037443Y016416D01*
X037477Y016453D01*
X037514Y016487D01*
X037554Y016517D01*
X037596Y016544D01*
X037640Y016568D01*
X037686Y016589D01*
X037733Y016605D01*
X037781Y016618D01*
X037831Y016627D01*
X037880Y016632D01*
X037931Y016633D01*
X037981Y016630D01*
X038030Y016623D01*
X038079Y016612D01*
X038127Y016597D01*
X038173Y016579D01*
X038218Y016557D01*
X038261Y016531D01*
X038302Y016502D01*
X038341Y016470D01*
X038377Y016435D01*
X038409Y016397D01*
X038439Y016357D01*
X038466Y016314D01*
X038489Y016270D01*
X038508Y016224D01*
X038524Y016176D01*
X038536Y016127D01*
X038544Y016078D01*
X038548Y016028D01*
X038548Y015978D01*
X038544Y015928D01*
X038536Y015879D01*
X038524Y015830D01*
X038508Y015782D01*
X038489Y015736D01*
X038466Y015692D01*
X038439Y015649D01*
X038409Y015609D01*
X038377Y015571D01*
X038341Y015536D01*
X038302Y015504D01*
X038261Y015475D01*
X038218Y015449D01*
X038173Y015427D01*
X038127Y015409D01*
X038079Y015394D01*
X038030Y015383D01*
X037981Y015376D01*
X037931Y015373D01*
X037880Y015374D01*
X037831Y015379D01*
X037781Y015388D01*
X037733Y015401D01*
X037686Y015417D01*
X037640Y015438D01*
X037596Y015462D01*
X037554Y015489D01*
X037514Y015519D01*
X037477Y015553D01*
X037443Y015590D01*
X037411Y015629D01*
X037383Y015670D01*
X037358Y015714D01*
X037337Y015759D01*
X037320Y015806D01*
X037306Y015854D01*
X037296Y015903D01*
X037290Y015953D01*
X037288Y016003D01*
X037918Y017753D02*
X038001Y017751D01*
X038084Y017745D01*
X038167Y017735D01*
X038249Y017721D01*
X038331Y017704D01*
X038411Y017682D01*
X038490Y017657D01*
X038568Y017628D01*
X038645Y017595D01*
X038720Y017558D01*
X038793Y017519D01*
X038864Y017475D01*
X038933Y017429D01*
X039000Y017379D01*
X039064Y017326D01*
X039126Y017270D01*
X039185Y017211D01*
X039241Y017149D01*
X039294Y017085D01*
X039344Y017018D01*
X039390Y016949D01*
X039434Y016878D01*
X039473Y016805D01*
X039510Y016730D01*
X039543Y016653D01*
X039572Y016575D01*
X039597Y016496D01*
X039619Y016416D01*
X039636Y016334D01*
X039650Y016252D01*
X039660Y016169D01*
X039666Y016086D01*
X039668Y016003D01*
X037918Y017753D02*
X002418Y017753D01*
X004117Y016503D02*
X004119Y016550D01*
X004125Y016596D01*
X004135Y016642D01*
X004148Y016687D01*
X004166Y016730D01*
X004187Y016772D01*
X004211Y016812D01*
X004239Y016849D01*
X004270Y016884D01*
X004304Y016917D01*
X004340Y016946D01*
X004379Y016972D01*
X004420Y016995D01*
X004463Y017014D01*
X004507Y017030D01*
X004552Y017042D01*
X004598Y017050D01*
X004645Y017054D01*
X004691Y017054D01*
X004738Y017050D01*
X004784Y017042D01*
X004829Y017030D01*
X004873Y017014D01*
X004916Y016995D01*
X004957Y016972D01*
X004996Y016946D01*
X005032Y016917D01*
X005066Y016884D01*
X005097Y016849D01*
X005125Y016812D01*
X005149Y016772D01*
X005170Y016730D01*
X005188Y016687D01*
X005201Y016642D01*
X005211Y016596D01*
X005217Y016550D01*
X005219Y016503D01*
X005217Y016456D01*
X005211Y016410D01*
X005201Y016364D01*
X005188Y016319D01*
X005170Y016276D01*
X005149Y016234D01*
X005125Y016194D01*
X005097Y016157D01*
X005066Y016122D01*
X005032Y016089D01*
X004996Y016060D01*
X004957Y016034D01*
X004916Y016011D01*
X004873Y015992D01*
X004829Y015976D01*
X004784Y015964D01*
X004738Y015956D01*
X004691Y015952D01*
X004645Y015952D01*
X004598Y015956D01*
X004552Y015964D01*
X004507Y015976D01*
X004463Y015992D01*
X004420Y016011D01*
X004379Y016034D01*
X004340Y016060D01*
X004304Y016089D01*
X004270Y016122D01*
X004239Y016157D01*
X004211Y016194D01*
X004187Y016234D01*
X004166Y016276D01*
X004148Y016319D01*
X004135Y016364D01*
X004125Y016410D01*
X004119Y016456D01*
X004117Y016503D01*
X001788Y016003D02*
X001790Y016053D01*
X001796Y016103D01*
X001806Y016152D01*
X001820Y016200D01*
X001837Y016247D01*
X001858Y016292D01*
X001883Y016336D01*
X001911Y016377D01*
X001943Y016416D01*
X001977Y016453D01*
X002014Y016487D01*
X002054Y016517D01*
X002096Y016544D01*
X002140Y016568D01*
X002186Y016589D01*
X002233Y016605D01*
X002281Y016618D01*
X002331Y016627D01*
X002380Y016632D01*
X002431Y016633D01*
X002481Y016630D01*
X002530Y016623D01*
X002579Y016612D01*
X002627Y016597D01*
X002673Y016579D01*
X002718Y016557D01*
X002761Y016531D01*
X002802Y016502D01*
X002841Y016470D01*
X002877Y016435D01*
X002909Y016397D01*
X002939Y016357D01*
X002966Y016314D01*
X002989Y016270D01*
X003008Y016224D01*
X003024Y016176D01*
X003036Y016127D01*
X003044Y016078D01*
X003048Y016028D01*
X003048Y015978D01*
X003044Y015928D01*
X003036Y015879D01*
X003024Y015830D01*
X003008Y015782D01*
X002989Y015736D01*
X002966Y015692D01*
X002939Y015649D01*
X002909Y015609D01*
X002877Y015571D01*
X002841Y015536D01*
X002802Y015504D01*
X002761Y015475D01*
X002718Y015449D01*
X002673Y015427D01*
X002627Y015409D01*
X002579Y015394D01*
X002530Y015383D01*
X002481Y015376D01*
X002431Y015373D01*
X002380Y015374D01*
X002331Y015379D01*
X002281Y015388D01*
X002233Y015401D01*
X002186Y015417D01*
X002140Y015438D01*
X002096Y015462D01*
X002054Y015489D01*
X002014Y015519D01*
X001977Y015553D01*
X001943Y015590D01*
X001911Y015629D01*
X001883Y015670D01*
X001858Y015714D01*
X001837Y015759D01*
X001820Y015806D01*
X001806Y015854D01*
X001796Y015903D01*
X001790Y015953D01*
X001788Y016003D01*
X000668Y016003D02*
X000670Y016086D01*
X000676Y016169D01*
X000686Y016252D01*
X000700Y016334D01*
X000717Y016416D01*
X000739Y016496D01*
X000764Y016575D01*
X000793Y016653D01*
X000826Y016730D01*
X000863Y016805D01*
X000902Y016878D01*
X000946Y016949D01*
X000992Y017018D01*
X001042Y017085D01*
X001095Y017149D01*
X001151Y017211D01*
X001210Y017270D01*
X001272Y017326D01*
X001336Y017379D01*
X001403Y017429D01*
X001472Y017475D01*
X001543Y017519D01*
X001616Y017558D01*
X001691Y017595D01*
X001768Y017628D01*
X001846Y017657D01*
X001925Y017682D01*
X002005Y017704D01*
X002087Y017721D01*
X002169Y017735D01*
X002252Y017745D01*
X002335Y017751D01*
X002418Y017753D01*
X000668Y016003D02*
X000668Y002003D01*
X001788Y002003D02*
X001790Y002053D01*
X001796Y002103D01*
X001806Y002152D01*
X001820Y002200D01*
X001837Y002247D01*
X001858Y002292D01*
X001883Y002336D01*
X001911Y002377D01*
X001943Y002416D01*
X001977Y002453D01*
X002014Y002487D01*
X002054Y002517D01*
X002096Y002544D01*
X002140Y002568D01*
X002186Y002589D01*
X002233Y002605D01*
X002281Y002618D01*
X002331Y002627D01*
X002380Y002632D01*
X002431Y002633D01*
X002481Y002630D01*
X002530Y002623D01*
X002579Y002612D01*
X002627Y002597D01*
X002673Y002579D01*
X002718Y002557D01*
X002761Y002531D01*
X002802Y002502D01*
X002841Y002470D01*
X002877Y002435D01*
X002909Y002397D01*
X002939Y002357D01*
X002966Y002314D01*
X002989Y002270D01*
X003008Y002224D01*
X003024Y002176D01*
X003036Y002127D01*
X003044Y002078D01*
X003048Y002028D01*
X003048Y001978D01*
X003044Y001928D01*
X003036Y001879D01*
X003024Y001830D01*
X003008Y001782D01*
X002989Y001736D01*
X002966Y001692D01*
X002939Y001649D01*
X002909Y001609D01*
X002877Y001571D01*
X002841Y001536D01*
X002802Y001504D01*
X002761Y001475D01*
X002718Y001449D01*
X002673Y001427D01*
X002627Y001409D01*
X002579Y001394D01*
X002530Y001383D01*
X002481Y001376D01*
X002431Y001373D01*
X002380Y001374D01*
X002331Y001379D01*
X002281Y001388D01*
X002233Y001401D01*
X002186Y001417D01*
X002140Y001438D01*
X002096Y001462D01*
X002054Y001489D01*
X002014Y001519D01*
X001977Y001553D01*
X001943Y001590D01*
X001911Y001629D01*
X001883Y001670D01*
X001858Y001714D01*
X001837Y001759D01*
X001820Y001806D01*
X001806Y001854D01*
X001796Y001903D01*
X001790Y001953D01*
X001788Y002003D01*
X000668Y002003D02*
X000670Y001920D01*
X000676Y001837D01*
X000686Y001754D01*
X000700Y001672D01*
X000717Y001590D01*
X000739Y001510D01*
X000764Y001431D01*
X000793Y001353D01*
X000826Y001276D01*
X000863Y001201D01*
X000902Y001128D01*
X000946Y001057D01*
X000992Y000988D01*
X001042Y000921D01*
X001095Y000857D01*
X001151Y000795D01*
X001210Y000736D01*
X001272Y000680D01*
X001336Y000627D01*
X001403Y000577D01*
X001472Y000531D01*
X001543Y000487D01*
X001616Y000448D01*
X001691Y000411D01*
X001768Y000378D01*
X001846Y000349D01*
X001925Y000324D01*
X002005Y000302D01*
X002087Y000285D01*
X002169Y000271D01*
X002252Y000261D01*
X002335Y000255D01*
X002418Y000253D01*
X007617Y003753D02*
X007619Y003800D01*
X007625Y003846D01*
X007635Y003892D01*
X007648Y003937D01*
X007666Y003980D01*
X007687Y004022D01*
X007711Y004062D01*
X007739Y004099D01*
X007770Y004134D01*
X007804Y004167D01*
X007840Y004196D01*
X007879Y004222D01*
X007920Y004245D01*
X007963Y004264D01*
X008007Y004280D01*
X008052Y004292D01*
X008098Y004300D01*
X008145Y004304D01*
X008191Y004304D01*
X008238Y004300D01*
X008284Y004292D01*
X008329Y004280D01*
X008373Y004264D01*
X008416Y004245D01*
X008457Y004222D01*
X008496Y004196D01*
X008532Y004167D01*
X008566Y004134D01*
X008597Y004099D01*
X008625Y004062D01*
X008649Y004022D01*
X008670Y003980D01*
X008688Y003937D01*
X008701Y003892D01*
X008711Y003846D01*
X008717Y003800D01*
X008719Y003753D01*
X008717Y003706D01*
X008711Y003660D01*
X008701Y003614D01*
X008688Y003569D01*
X008670Y003526D01*
X008649Y003484D01*
X008625Y003444D01*
X008597Y003407D01*
X008566Y003372D01*
X008532Y003339D01*
X008496Y003310D01*
X008457Y003284D01*
X008416Y003261D01*
X008373Y003242D01*
X008329Y003226D01*
X008284Y003214D01*
X008238Y003206D01*
X008191Y003202D01*
X008145Y003202D01*
X008098Y003206D01*
X008052Y003214D01*
X008007Y003226D01*
X007963Y003242D01*
X007920Y003261D01*
X007879Y003284D01*
X007840Y003310D01*
X007804Y003339D01*
X007770Y003372D01*
X007739Y003407D01*
X007711Y003444D01*
X007687Y003484D01*
X007666Y003526D01*
X007648Y003569D01*
X007635Y003614D01*
X007625Y003660D01*
X007619Y003706D01*
X007617Y003753D01*
X013947Y002639D02*
X013949Y002684D01*
X013955Y002728D01*
X013964Y002772D01*
X013978Y002814D01*
X013995Y002855D01*
X014016Y002895D01*
X014040Y002933D01*
X014067Y002968D01*
X014097Y003001D01*
X014130Y003031D01*
X014165Y003058D01*
X014203Y003082D01*
X014243Y003103D01*
X014284Y003120D01*
X014326Y003134D01*
X014370Y003143D01*
X014414Y003149D01*
X014459Y003151D01*
X014504Y003149D01*
X014548Y003143D01*
X014592Y003134D01*
X014634Y003120D01*
X014675Y003103D01*
X014715Y003082D01*
X014753Y003058D01*
X014788Y003031D01*
X014821Y003001D01*
X014851Y002968D01*
X014878Y002933D01*
X014902Y002895D01*
X014923Y002855D01*
X014940Y002814D01*
X014954Y002772D01*
X014963Y002728D01*
X014969Y002684D01*
X014971Y002639D01*
X014969Y002594D01*
X014963Y002550D01*
X014954Y002506D01*
X014940Y002464D01*
X014923Y002423D01*
X014902Y002383D01*
X014878Y002345D01*
X014851Y002310D01*
X014821Y002277D01*
X014788Y002247D01*
X014753Y002220D01*
X014715Y002196D01*
X014675Y002175D01*
X014634Y002158D01*
X014592Y002144D01*
X014548Y002135D01*
X014504Y002129D01*
X014459Y002127D01*
X014414Y002129D01*
X014370Y002135D01*
X014326Y002144D01*
X014284Y002158D01*
X014243Y002175D01*
X014203Y002196D01*
X014165Y002220D01*
X014130Y002247D01*
X014097Y002277D01*
X014067Y002310D01*
X014040Y002345D01*
X014016Y002383D01*
X013995Y002423D01*
X013978Y002464D01*
X013964Y002506D01*
X013955Y002550D01*
X013949Y002594D01*
X013947Y002639D01*
X025364Y002639D02*
X025366Y002684D01*
X025372Y002728D01*
X025381Y002772D01*
X025395Y002814D01*
X025412Y002855D01*
X025433Y002895D01*
X025457Y002933D01*
X025484Y002968D01*
X025514Y003001D01*
X025547Y003031D01*
X025582Y003058D01*
X025620Y003082D01*
X025660Y003103D01*
X025701Y003120D01*
X025743Y003134D01*
X025787Y003143D01*
X025831Y003149D01*
X025876Y003151D01*
X025921Y003149D01*
X025965Y003143D01*
X026009Y003134D01*
X026051Y003120D01*
X026092Y003103D01*
X026132Y003082D01*
X026170Y003058D01*
X026205Y003031D01*
X026238Y003001D01*
X026268Y002968D01*
X026295Y002933D01*
X026319Y002895D01*
X026340Y002855D01*
X026357Y002814D01*
X026371Y002772D01*
X026380Y002728D01*
X026386Y002684D01*
X026388Y002639D01*
X026386Y002594D01*
X026380Y002550D01*
X026371Y002506D01*
X026357Y002464D01*
X026340Y002423D01*
X026319Y002383D01*
X026295Y002345D01*
X026268Y002310D01*
X026238Y002277D01*
X026205Y002247D01*
X026170Y002220D01*
X026132Y002196D01*
X026092Y002175D01*
X026051Y002158D01*
X026009Y002144D01*
X025965Y002135D01*
X025921Y002129D01*
X025876Y002127D01*
X025831Y002129D01*
X025787Y002135D01*
X025743Y002144D01*
X025701Y002158D01*
X025660Y002175D01*
X025620Y002196D01*
X025582Y002220D01*
X025547Y002247D01*
X025514Y002277D01*
X025484Y002310D01*
X025457Y002345D01*
X025433Y002383D01*
X025412Y002423D01*
X025395Y002464D01*
X025381Y002506D01*
X025372Y002550D01*
X025366Y002594D01*
X025364Y002639D01*
X025364Y014253D02*
X025366Y014298D01*
X025372Y014342D01*
X025381Y014386D01*
X025395Y014428D01*
X025412Y014469D01*
X025433Y014509D01*
X025457Y014547D01*
X025484Y014582D01*
X025514Y014615D01*
X025547Y014645D01*
X025582Y014672D01*
X025620Y014696D01*
X025660Y014717D01*
X025701Y014734D01*
X025743Y014748D01*
X025787Y014757D01*
X025831Y014763D01*
X025876Y014765D01*
X025921Y014763D01*
X025965Y014757D01*
X026009Y014748D01*
X026051Y014734D01*
X026092Y014717D01*
X026132Y014696D01*
X026170Y014672D01*
X026205Y014645D01*
X026238Y014615D01*
X026268Y014582D01*
X026295Y014547D01*
X026319Y014509D01*
X026340Y014469D01*
X026357Y014428D01*
X026371Y014386D01*
X026380Y014342D01*
X026386Y014298D01*
X026388Y014253D01*
X026386Y014208D01*
X026380Y014164D01*
X026371Y014120D01*
X026357Y014078D01*
X026340Y014037D01*
X026319Y013997D01*
X026295Y013959D01*
X026268Y013924D01*
X026238Y013891D01*
X026205Y013861D01*
X026170Y013834D01*
X026132Y013810D01*
X026092Y013789D01*
X026051Y013772D01*
X026009Y013758D01*
X025965Y013749D01*
X025921Y013743D01*
X025876Y013741D01*
X025831Y013743D01*
X025787Y013749D01*
X025743Y013758D01*
X025701Y013772D01*
X025660Y013789D01*
X025620Y013810D01*
X025582Y013834D01*
X025547Y013861D01*
X025514Y013891D01*
X025484Y013924D01*
X025457Y013959D01*
X025433Y013997D01*
X025412Y014037D01*
X025395Y014078D01*
X025381Y014120D01*
X025372Y014164D01*
X025366Y014208D01*
X025364Y014253D01*
X013947Y014253D02*
X013949Y014298D01*
X013955Y014342D01*
X013964Y014386D01*
X013978Y014428D01*
X013995Y014469D01*
X014016Y014509D01*
X014040Y014547D01*
X014067Y014582D01*
X014097Y014615D01*
X014130Y014645D01*
X014165Y014672D01*
X014203Y014696D01*
X014243Y014717D01*
X014284Y014734D01*
X014326Y014748D01*
X014370Y014757D01*
X014414Y014763D01*
X014459Y014765D01*
X014504Y014763D01*
X014548Y014757D01*
X014592Y014748D01*
X014634Y014734D01*
X014675Y014717D01*
X014715Y014696D01*
X014753Y014672D01*
X014788Y014645D01*
X014821Y014615D01*
X014851Y014582D01*
X014878Y014547D01*
X014902Y014509D01*
X014923Y014469D01*
X014940Y014428D01*
X014954Y014386D01*
X014963Y014342D01*
X014969Y014298D01*
X014971Y014253D01*
X014969Y014208D01*
X014963Y014164D01*
X014954Y014120D01*
X014940Y014078D01*
X014923Y014037D01*
X014902Y013997D01*
X014878Y013959D01*
X014851Y013924D01*
X014821Y013891D01*
X014788Y013861D01*
X014753Y013834D01*
X014715Y013810D01*
X014675Y013789D01*
X014634Y013772D01*
X014592Y013758D01*
X014548Y013749D01*
X014504Y013743D01*
X014459Y013741D01*
X014414Y013743D01*
X014370Y013749D01*
X014326Y013758D01*
X014284Y013772D01*
X014243Y013789D01*
X014203Y013810D01*
X014165Y013834D01*
X014130Y013861D01*
X014097Y013891D01*
X014067Y013924D01*
X014040Y013959D01*
X014016Y013997D01*
X013995Y014037D01*
X013978Y014078D01*
X013964Y014120D01*
X013955Y014164D01*
X013949Y014208D01*
X013947Y014253D01*
X011117Y016503D02*
X011119Y016550D01*
X011125Y016596D01*
X011135Y016642D01*
X011148Y016687D01*
X011166Y016730D01*
X011187Y016772D01*
X011211Y016812D01*
X011239Y016849D01*
X011270Y016884D01*
X011304Y016917D01*
X011340Y016946D01*
X011379Y016972D01*
X011420Y016995D01*
X011463Y017014D01*
X011507Y017030D01*
X011552Y017042D01*
X011598Y017050D01*
X011645Y017054D01*
X011691Y017054D01*
X011738Y017050D01*
X011784Y017042D01*
X011829Y017030D01*
X011873Y017014D01*
X011916Y016995D01*
X011957Y016972D01*
X011996Y016946D01*
X012032Y016917D01*
X012066Y016884D01*
X012097Y016849D01*
X012125Y016812D01*
X012149Y016772D01*
X012170Y016730D01*
X012188Y016687D01*
X012201Y016642D01*
X012211Y016596D01*
X012217Y016550D01*
X012219Y016503D01*
X012217Y016456D01*
X012211Y016410D01*
X012201Y016364D01*
X012188Y016319D01*
X012170Y016276D01*
X012149Y016234D01*
X012125Y016194D01*
X012097Y016157D01*
X012066Y016122D01*
X012032Y016089D01*
X011996Y016060D01*
X011957Y016034D01*
X011916Y016011D01*
X011873Y015992D01*
X011829Y015976D01*
X011784Y015964D01*
X011738Y015956D01*
X011691Y015952D01*
X011645Y015952D01*
X011598Y015956D01*
X011552Y015964D01*
X011507Y015976D01*
X011463Y015992D01*
X011420Y016011D01*
X011379Y016034D01*
X011340Y016060D01*
X011304Y016089D01*
X011270Y016122D01*
X011239Y016157D01*
X011211Y016194D01*
X011187Y016234D01*
X011166Y016276D01*
X011148Y016319D01*
X011135Y016364D01*
X011125Y016410D01*
X011119Y016456D01*
X011117Y016503D01*
D11*
X011668Y016503D03*
X004668Y016503D03*
X008168Y003753D03*
D12*
X014149Y004878D03*
X014936Y004878D03*
X012498Y007332D03*
X012498Y008119D03*
X012498Y008907D03*
X012498Y009694D03*
X012498Y010481D03*
X012498Y011269D03*
X012498Y012056D03*
X012498Y012844D03*
X012498Y013631D03*
X012498Y014419D03*
X019420Y016753D03*
X020168Y016753D03*
X020955Y016753D03*
X003837Y013631D03*
X003837Y012844D03*
X003837Y012056D03*
X003837Y011269D03*
X003837Y010481D03*
X003837Y009694D03*
X003837Y008907D03*
X003837Y008119D03*
X003837Y007332D03*
D13*
X003837Y014419D03*
D14*
X028168Y014003D03*
X028168Y013003D03*
X028168Y012003D03*
X028168Y011003D03*
X028168Y010003D03*
X028168Y009003D03*
X028168Y008003D03*
X028168Y007003D03*
X028168Y006003D03*
X028168Y005003D03*
X028168Y004003D03*
X029168Y004003D03*
X030168Y004003D03*
X031168Y004003D03*
X032168Y004003D03*
X033168Y004003D03*
X034168Y004003D03*
X034168Y005003D03*
X034168Y006003D03*
X034168Y007003D03*
X034168Y008003D03*
X034168Y009003D03*
X034168Y010003D03*
X034168Y011003D03*
X034168Y012003D03*
X033168Y012003D03*
X033168Y013003D03*
X034168Y013003D03*
X034168Y014003D03*
X033168Y014003D03*
X034168Y015003D03*
X034168Y016003D03*
X033168Y016003D03*
X034168Y017003D03*
X028168Y017003D03*
X028168Y016003D03*
X028168Y015003D03*
D15*
X035668Y012503D03*
X037418Y011003D03*
X036668Y010503D03*
X037418Y010003D03*
X038668Y008503D03*
X035668Y008503D03*
X038668Y012503D03*
X035168Y001753D03*
X034168Y001753D03*
X030168Y001753D03*
X029168Y001753D03*
X012668Y004878D03*
X012668Y006003D03*
X008668Y006003D03*
X007668Y006003D03*
X007668Y004878D03*
X008668Y004878D03*
X003668Y004878D03*
X003668Y006003D03*
X002543Y006003D03*
X001543Y006003D03*
X005168Y001753D03*
X006168Y001753D03*
X010168Y001753D03*
X011168Y001753D03*
D16*
X016668Y014253D03*
X017668Y014253D03*
X018668Y014253D03*
X019668Y014253D03*
X020668Y014253D03*
X021668Y014253D03*
X022668Y014253D03*
X023668Y014253D03*
D17*
X025876Y014253D03*
X014459Y014253D03*
X014459Y002639D03*
X025876Y002639D03*
D18*
X002543Y008503D03*
X002543Y013128D03*
D19*
X001543Y013128D03*
X001543Y008503D03*
D20*
X002418Y002003D03*
X002418Y016003D03*
X037918Y016003D03*
X037918Y002003D03*
D21*
X038152Y006003D03*
X036183Y006003D03*
X022057Y016753D03*
X018278Y016753D03*
D22*
X014428Y010503D02*
X014238Y010503D01*
X014188Y010263D01*
X014197Y010243D02*
X014488Y010243D01*
X014478Y010263D02*
X014428Y010503D01*
X014418Y010453D02*
X014268Y010453D01*
X014218Y010253D01*
X014018Y010153D01*
X013818Y010303D01*
X013718Y010203D01*
X013818Y010003D01*
X013718Y009753D01*
X013518Y009753D01*
X013518Y009603D01*
X013768Y009553D01*
X013818Y009303D01*
X013718Y009153D01*
X013818Y009053D01*
X013968Y009153D01*
X014068Y009103D01*
X014168Y009403D01*
X014018Y009603D01*
X014068Y009853D01*
X014268Y009953D01*
X014468Y009953D01*
X014618Y009803D01*
X014618Y009503D01*
X014468Y009403D01*
X014618Y009153D01*
X014668Y009153D01*
X014818Y009053D01*
X014918Y009153D01*
X014818Y009303D01*
X014918Y009553D01*
X015118Y009603D01*
X015118Y009753D01*
X014918Y009753D01*
X014818Y010003D01*
X014968Y010203D01*
X014818Y010303D01*
X014668Y010153D01*
X014468Y010253D01*
X014418Y010453D01*
X014426Y010418D02*
X014259Y010418D01*
X014244Y010360D02*
X014441Y010360D01*
X014456Y010301D02*
X014230Y010301D01*
X014080Y010184D02*
X014605Y010184D01*
X014658Y010193D02*
X014848Y010323D01*
X014988Y010183D01*
X014858Y009993D01*
X014822Y010009D02*
X013815Y010009D01*
X013808Y009993D02*
X013668Y010183D01*
X013808Y010323D01*
X014008Y010193D01*
X013976Y010184D02*
X013727Y010184D01*
X013756Y010126D02*
X014909Y010126D01*
X014866Y010067D02*
X013786Y010067D01*
X013796Y009950D02*
X014261Y009950D01*
X014144Y009892D02*
X013773Y009892D01*
X013750Y009833D02*
X014064Y009833D01*
X014052Y009774D02*
X013726Y009774D01*
X013718Y009803D02*
X013498Y009763D01*
X013498Y009563D01*
X013718Y009523D01*
X013770Y009540D02*
X014065Y009540D01*
X014109Y009482D02*
X013782Y009482D01*
X013794Y009423D02*
X014153Y009423D01*
X014208Y009423D02*
X014068Y009083D01*
X013988Y009123D01*
X013808Y009003D01*
X013668Y009143D01*
X013798Y009323D01*
X013817Y009306D02*
X014135Y009306D01*
X014116Y009248D02*
X013781Y009248D01*
X013741Y009189D02*
X014096Y009189D01*
X014077Y009131D02*
X014013Y009131D01*
X013934Y009131D02*
X013740Y009131D01*
X013799Y009072D02*
X013846Y009072D01*
X013805Y009365D02*
X014155Y009365D01*
X014021Y009599D02*
X013539Y009599D01*
X013518Y009657D02*
X014028Y009657D01*
X014040Y009716D02*
X013518Y009716D01*
X013715Y009804D02*
X013727Y009844D01*
X013742Y009883D01*
X013760Y009921D01*
X013780Y009957D01*
X013802Y009992D01*
X014208Y009423D02*
X014180Y009439D01*
X014153Y009458D01*
X014130Y009480D01*
X014109Y009505D01*
X014091Y009533D01*
X014076Y009562D01*
X014066Y009593D01*
X014058Y009624D01*
X014055Y009657D01*
X014056Y009689D01*
X014060Y009722D01*
X014069Y009753D01*
X014081Y009783D01*
X014096Y009812D01*
X014115Y009839D01*
X014137Y009863D01*
X014161Y009884D01*
X014188Y009903D01*
X014217Y009918D01*
X014248Y009929D01*
X014279Y009937D01*
X014312Y009941D01*
X014344Y009941D01*
X014377Y009937D01*
X014408Y009929D01*
X014439Y009918D01*
X014468Y009903D01*
X014495Y009884D01*
X014519Y009863D01*
X014541Y009839D01*
X014560Y009812D01*
X014575Y009783D01*
X014587Y009753D01*
X014596Y009722D01*
X014600Y009689D01*
X014601Y009657D01*
X014598Y009624D01*
X014590Y009593D01*
X014580Y009562D01*
X014565Y009533D01*
X014547Y009505D01*
X014526Y009480D01*
X014503Y009458D01*
X014476Y009439D01*
X014448Y009423D01*
X014598Y009083D01*
X014668Y009123D01*
X014848Y009003D01*
X014988Y009143D01*
X014868Y009323D01*
X014842Y009365D02*
X014491Y009365D01*
X014498Y009423D02*
X014866Y009423D01*
X014889Y009482D02*
X014586Y009482D01*
X014618Y009540D02*
X014912Y009540D01*
X014948Y009523D02*
X015168Y009563D01*
X015168Y009763D01*
X014938Y009803D01*
X014909Y009774D02*
X014618Y009774D01*
X014618Y009716D02*
X015118Y009716D01*
X015118Y009657D02*
X014618Y009657D01*
X014618Y009599D02*
X015100Y009599D01*
X014819Y009306D02*
X014526Y009306D01*
X014561Y009248D02*
X014855Y009248D01*
X014894Y009189D02*
X014596Y009189D01*
X014701Y009131D02*
X014895Y009131D01*
X014836Y009072D02*
X014789Y009072D01*
X014865Y009328D02*
X014890Y009370D01*
X014912Y009414D01*
X014930Y009460D01*
X014945Y009507D01*
X014886Y009833D02*
X014588Y009833D01*
X014529Y009892D02*
X014862Y009892D01*
X014839Y009950D02*
X014471Y009950D01*
X014699Y010184D02*
X014953Y010184D01*
X014908Y010243D02*
X014757Y010243D01*
X014816Y010301D02*
X014820Y010301D01*
X013898Y010243D02*
X013757Y010243D01*
X013816Y010301D02*
X013820Y010301D01*
X014008Y010193D02*
X014051Y010216D01*
X014095Y010236D01*
X014141Y010252D01*
X014187Y010264D01*
X013718Y009524D02*
X013728Y009482D01*
X013741Y009441D01*
X013757Y009401D01*
X013776Y009362D01*
X013798Y009325D01*
X014939Y009805D02*
X014928Y009845D01*
X014914Y009884D01*
X014898Y009921D01*
X014879Y009958D01*
X014858Y009993D01*
X014655Y010189D02*
X014613Y010212D01*
X014570Y010231D01*
X014525Y010248D01*
X014479Y010260D01*
D23*
X016168Y004753D03*
X017168Y004753D03*
X018168Y004753D03*
X019168Y004753D03*
X020168Y004753D03*
X021168Y004753D03*
X022168Y004753D03*
X023168Y004753D03*
X024168Y004753D03*
X024168Y003753D03*
X023168Y003753D03*
X022168Y003753D03*
X021168Y003753D03*
X020168Y003753D03*
X019168Y003753D03*
X018168Y003753D03*
X017168Y003753D03*
X016168Y003753D03*
D24*
X036668Y012706D02*
X036668Y013300D01*
X037668Y013300D02*
X037668Y012706D01*
D25*
X033168Y015003D03*
X033168Y005003D03*
M02*
