G75*
G70*
%OFA0B0*%
%FSLAX24Y24*%
%IPPOS*%
%LPD*%
%AMOC8*
5,1,8,0,0,1.08239X$1,22.5*
%
%ADD10C,0.0000*%
%ADD11C,0.0560*%
%ADD12R,0.0560X0.0560*%
%ADD13C,0.0580*%
%ADD14OC8,0.0520*%
%ADD15C,0.0660*%
%ADD16R,0.0217X0.0472*%
%ADD17OC8,0.0630*%
%ADD18C,0.0630*%
%ADD19C,0.1000*%
%ADD20C,0.0120*%
%ADD21OC8,0.0600*%
%ADD22C,0.0594*%
%ADD23C,0.0396*%
%ADD24C,0.0357*%
%ADD25C,0.0160*%
%ADD26C,0.0531*%
D10*
X002418Y000253D02*
X037918Y000253D01*
X037288Y002003D02*
X037290Y002053D01*
X037296Y002103D01*
X037306Y002152D01*
X037320Y002200D01*
X037337Y002247D01*
X037358Y002292D01*
X037383Y002336D01*
X037411Y002377D01*
X037443Y002416D01*
X037477Y002453D01*
X037514Y002487D01*
X037554Y002517D01*
X037596Y002544D01*
X037640Y002568D01*
X037686Y002589D01*
X037733Y002605D01*
X037781Y002618D01*
X037831Y002627D01*
X037880Y002632D01*
X037931Y002633D01*
X037981Y002630D01*
X038030Y002623D01*
X038079Y002612D01*
X038127Y002597D01*
X038173Y002579D01*
X038218Y002557D01*
X038261Y002531D01*
X038302Y002502D01*
X038341Y002470D01*
X038377Y002435D01*
X038409Y002397D01*
X038439Y002357D01*
X038466Y002314D01*
X038489Y002270D01*
X038508Y002224D01*
X038524Y002176D01*
X038536Y002127D01*
X038544Y002078D01*
X038548Y002028D01*
X038548Y001978D01*
X038544Y001928D01*
X038536Y001879D01*
X038524Y001830D01*
X038508Y001782D01*
X038489Y001736D01*
X038466Y001692D01*
X038439Y001649D01*
X038409Y001609D01*
X038377Y001571D01*
X038341Y001536D01*
X038302Y001504D01*
X038261Y001475D01*
X038218Y001449D01*
X038173Y001427D01*
X038127Y001409D01*
X038079Y001394D01*
X038030Y001383D01*
X037981Y001376D01*
X037931Y001373D01*
X037880Y001374D01*
X037831Y001379D01*
X037781Y001388D01*
X037733Y001401D01*
X037686Y001417D01*
X037640Y001438D01*
X037596Y001462D01*
X037554Y001489D01*
X037514Y001519D01*
X037477Y001553D01*
X037443Y001590D01*
X037411Y001629D01*
X037383Y001670D01*
X037358Y001714D01*
X037337Y001759D01*
X037320Y001806D01*
X037306Y001854D01*
X037296Y001903D01*
X037290Y001953D01*
X037288Y002003D01*
X037918Y000253D02*
X038001Y000255D01*
X038084Y000261D01*
X038167Y000271D01*
X038249Y000285D01*
X038331Y000302D01*
X038411Y000324D01*
X038490Y000349D01*
X038568Y000378D01*
X038645Y000411D01*
X038720Y000448D01*
X038793Y000487D01*
X038864Y000531D01*
X038933Y000577D01*
X039000Y000627D01*
X039064Y000680D01*
X039126Y000736D01*
X039185Y000795D01*
X039241Y000857D01*
X039294Y000921D01*
X039344Y000988D01*
X039390Y001057D01*
X039434Y001128D01*
X039473Y001201D01*
X039510Y001276D01*
X039543Y001353D01*
X039572Y001431D01*
X039597Y001510D01*
X039619Y001590D01*
X039636Y001672D01*
X039650Y001754D01*
X039660Y001837D01*
X039666Y001920D01*
X039668Y002003D01*
X039668Y016003D01*
X037288Y016003D02*
X037290Y016053D01*
X037296Y016103D01*
X037306Y016152D01*
X037320Y016200D01*
X037337Y016247D01*
X037358Y016292D01*
X037383Y016336D01*
X037411Y016377D01*
X037443Y016416D01*
X037477Y016453D01*
X037514Y016487D01*
X037554Y016517D01*
X037596Y016544D01*
X037640Y016568D01*
X037686Y016589D01*
X037733Y016605D01*
X037781Y016618D01*
X037831Y016627D01*
X037880Y016632D01*
X037931Y016633D01*
X037981Y016630D01*
X038030Y016623D01*
X038079Y016612D01*
X038127Y016597D01*
X038173Y016579D01*
X038218Y016557D01*
X038261Y016531D01*
X038302Y016502D01*
X038341Y016470D01*
X038377Y016435D01*
X038409Y016397D01*
X038439Y016357D01*
X038466Y016314D01*
X038489Y016270D01*
X038508Y016224D01*
X038524Y016176D01*
X038536Y016127D01*
X038544Y016078D01*
X038548Y016028D01*
X038548Y015978D01*
X038544Y015928D01*
X038536Y015879D01*
X038524Y015830D01*
X038508Y015782D01*
X038489Y015736D01*
X038466Y015692D01*
X038439Y015649D01*
X038409Y015609D01*
X038377Y015571D01*
X038341Y015536D01*
X038302Y015504D01*
X038261Y015475D01*
X038218Y015449D01*
X038173Y015427D01*
X038127Y015409D01*
X038079Y015394D01*
X038030Y015383D01*
X037981Y015376D01*
X037931Y015373D01*
X037880Y015374D01*
X037831Y015379D01*
X037781Y015388D01*
X037733Y015401D01*
X037686Y015417D01*
X037640Y015438D01*
X037596Y015462D01*
X037554Y015489D01*
X037514Y015519D01*
X037477Y015553D01*
X037443Y015590D01*
X037411Y015629D01*
X037383Y015670D01*
X037358Y015714D01*
X037337Y015759D01*
X037320Y015806D01*
X037306Y015854D01*
X037296Y015903D01*
X037290Y015953D01*
X037288Y016003D01*
X037918Y017753D02*
X038001Y017751D01*
X038084Y017745D01*
X038167Y017735D01*
X038249Y017721D01*
X038331Y017704D01*
X038411Y017682D01*
X038490Y017657D01*
X038568Y017628D01*
X038645Y017595D01*
X038720Y017558D01*
X038793Y017519D01*
X038864Y017475D01*
X038933Y017429D01*
X039000Y017379D01*
X039064Y017326D01*
X039126Y017270D01*
X039185Y017211D01*
X039241Y017149D01*
X039294Y017085D01*
X039344Y017018D01*
X039390Y016949D01*
X039434Y016878D01*
X039473Y016805D01*
X039510Y016730D01*
X039543Y016653D01*
X039572Y016575D01*
X039597Y016496D01*
X039619Y016416D01*
X039636Y016334D01*
X039650Y016252D01*
X039660Y016169D01*
X039666Y016086D01*
X039668Y016003D01*
X037918Y017753D02*
X002418Y017753D01*
X004117Y016503D02*
X004119Y016550D01*
X004125Y016596D01*
X004135Y016642D01*
X004148Y016687D01*
X004166Y016730D01*
X004187Y016772D01*
X004211Y016812D01*
X004239Y016849D01*
X004270Y016884D01*
X004304Y016917D01*
X004340Y016946D01*
X004379Y016972D01*
X004420Y016995D01*
X004463Y017014D01*
X004507Y017030D01*
X004552Y017042D01*
X004598Y017050D01*
X004645Y017054D01*
X004691Y017054D01*
X004738Y017050D01*
X004784Y017042D01*
X004829Y017030D01*
X004873Y017014D01*
X004916Y016995D01*
X004957Y016972D01*
X004996Y016946D01*
X005032Y016917D01*
X005066Y016884D01*
X005097Y016849D01*
X005125Y016812D01*
X005149Y016772D01*
X005170Y016730D01*
X005188Y016687D01*
X005201Y016642D01*
X005211Y016596D01*
X005217Y016550D01*
X005219Y016503D01*
X005217Y016456D01*
X005211Y016410D01*
X005201Y016364D01*
X005188Y016319D01*
X005170Y016276D01*
X005149Y016234D01*
X005125Y016194D01*
X005097Y016157D01*
X005066Y016122D01*
X005032Y016089D01*
X004996Y016060D01*
X004957Y016034D01*
X004916Y016011D01*
X004873Y015992D01*
X004829Y015976D01*
X004784Y015964D01*
X004738Y015956D01*
X004691Y015952D01*
X004645Y015952D01*
X004598Y015956D01*
X004552Y015964D01*
X004507Y015976D01*
X004463Y015992D01*
X004420Y016011D01*
X004379Y016034D01*
X004340Y016060D01*
X004304Y016089D01*
X004270Y016122D01*
X004239Y016157D01*
X004211Y016194D01*
X004187Y016234D01*
X004166Y016276D01*
X004148Y016319D01*
X004135Y016364D01*
X004125Y016410D01*
X004119Y016456D01*
X004117Y016503D01*
X001788Y016003D02*
X001790Y016053D01*
X001796Y016103D01*
X001806Y016152D01*
X001820Y016200D01*
X001837Y016247D01*
X001858Y016292D01*
X001883Y016336D01*
X001911Y016377D01*
X001943Y016416D01*
X001977Y016453D01*
X002014Y016487D01*
X002054Y016517D01*
X002096Y016544D01*
X002140Y016568D01*
X002186Y016589D01*
X002233Y016605D01*
X002281Y016618D01*
X002331Y016627D01*
X002380Y016632D01*
X002431Y016633D01*
X002481Y016630D01*
X002530Y016623D01*
X002579Y016612D01*
X002627Y016597D01*
X002673Y016579D01*
X002718Y016557D01*
X002761Y016531D01*
X002802Y016502D01*
X002841Y016470D01*
X002877Y016435D01*
X002909Y016397D01*
X002939Y016357D01*
X002966Y016314D01*
X002989Y016270D01*
X003008Y016224D01*
X003024Y016176D01*
X003036Y016127D01*
X003044Y016078D01*
X003048Y016028D01*
X003048Y015978D01*
X003044Y015928D01*
X003036Y015879D01*
X003024Y015830D01*
X003008Y015782D01*
X002989Y015736D01*
X002966Y015692D01*
X002939Y015649D01*
X002909Y015609D01*
X002877Y015571D01*
X002841Y015536D01*
X002802Y015504D01*
X002761Y015475D01*
X002718Y015449D01*
X002673Y015427D01*
X002627Y015409D01*
X002579Y015394D01*
X002530Y015383D01*
X002481Y015376D01*
X002431Y015373D01*
X002380Y015374D01*
X002331Y015379D01*
X002281Y015388D01*
X002233Y015401D01*
X002186Y015417D01*
X002140Y015438D01*
X002096Y015462D01*
X002054Y015489D01*
X002014Y015519D01*
X001977Y015553D01*
X001943Y015590D01*
X001911Y015629D01*
X001883Y015670D01*
X001858Y015714D01*
X001837Y015759D01*
X001820Y015806D01*
X001806Y015854D01*
X001796Y015903D01*
X001790Y015953D01*
X001788Y016003D01*
X000668Y016003D02*
X000670Y016086D01*
X000676Y016169D01*
X000686Y016252D01*
X000700Y016334D01*
X000717Y016416D01*
X000739Y016496D01*
X000764Y016575D01*
X000793Y016653D01*
X000826Y016730D01*
X000863Y016805D01*
X000902Y016878D01*
X000946Y016949D01*
X000992Y017018D01*
X001042Y017085D01*
X001095Y017149D01*
X001151Y017211D01*
X001210Y017270D01*
X001272Y017326D01*
X001336Y017379D01*
X001403Y017429D01*
X001472Y017475D01*
X001543Y017519D01*
X001616Y017558D01*
X001691Y017595D01*
X001768Y017628D01*
X001846Y017657D01*
X001925Y017682D01*
X002005Y017704D01*
X002087Y017721D01*
X002169Y017735D01*
X002252Y017745D01*
X002335Y017751D01*
X002418Y017753D01*
X000668Y016003D02*
X000668Y002003D01*
X001788Y002003D02*
X001790Y002053D01*
X001796Y002103D01*
X001806Y002152D01*
X001820Y002200D01*
X001837Y002247D01*
X001858Y002292D01*
X001883Y002336D01*
X001911Y002377D01*
X001943Y002416D01*
X001977Y002453D01*
X002014Y002487D01*
X002054Y002517D01*
X002096Y002544D01*
X002140Y002568D01*
X002186Y002589D01*
X002233Y002605D01*
X002281Y002618D01*
X002331Y002627D01*
X002380Y002632D01*
X002431Y002633D01*
X002481Y002630D01*
X002530Y002623D01*
X002579Y002612D01*
X002627Y002597D01*
X002673Y002579D01*
X002718Y002557D01*
X002761Y002531D01*
X002802Y002502D01*
X002841Y002470D01*
X002877Y002435D01*
X002909Y002397D01*
X002939Y002357D01*
X002966Y002314D01*
X002989Y002270D01*
X003008Y002224D01*
X003024Y002176D01*
X003036Y002127D01*
X003044Y002078D01*
X003048Y002028D01*
X003048Y001978D01*
X003044Y001928D01*
X003036Y001879D01*
X003024Y001830D01*
X003008Y001782D01*
X002989Y001736D01*
X002966Y001692D01*
X002939Y001649D01*
X002909Y001609D01*
X002877Y001571D01*
X002841Y001536D01*
X002802Y001504D01*
X002761Y001475D01*
X002718Y001449D01*
X002673Y001427D01*
X002627Y001409D01*
X002579Y001394D01*
X002530Y001383D01*
X002481Y001376D01*
X002431Y001373D01*
X002380Y001374D01*
X002331Y001379D01*
X002281Y001388D01*
X002233Y001401D01*
X002186Y001417D01*
X002140Y001438D01*
X002096Y001462D01*
X002054Y001489D01*
X002014Y001519D01*
X001977Y001553D01*
X001943Y001590D01*
X001911Y001629D01*
X001883Y001670D01*
X001858Y001714D01*
X001837Y001759D01*
X001820Y001806D01*
X001806Y001854D01*
X001796Y001903D01*
X001790Y001953D01*
X001788Y002003D01*
X000668Y002003D02*
X000670Y001920D01*
X000676Y001837D01*
X000686Y001754D01*
X000700Y001672D01*
X000717Y001590D01*
X000739Y001510D01*
X000764Y001431D01*
X000793Y001353D01*
X000826Y001276D01*
X000863Y001201D01*
X000902Y001128D01*
X000946Y001057D01*
X000992Y000988D01*
X001042Y000921D01*
X001095Y000857D01*
X001151Y000795D01*
X001210Y000736D01*
X001272Y000680D01*
X001336Y000627D01*
X001403Y000577D01*
X001472Y000531D01*
X001543Y000487D01*
X001616Y000448D01*
X001691Y000411D01*
X001768Y000378D01*
X001846Y000349D01*
X001925Y000324D01*
X002005Y000302D01*
X002087Y000285D01*
X002169Y000271D01*
X002252Y000261D01*
X002335Y000255D01*
X002418Y000253D01*
X007617Y003753D02*
X007619Y003800D01*
X007625Y003846D01*
X007635Y003892D01*
X007648Y003937D01*
X007666Y003980D01*
X007687Y004022D01*
X007711Y004062D01*
X007739Y004099D01*
X007770Y004134D01*
X007804Y004167D01*
X007840Y004196D01*
X007879Y004222D01*
X007920Y004245D01*
X007963Y004264D01*
X008007Y004280D01*
X008052Y004292D01*
X008098Y004300D01*
X008145Y004304D01*
X008191Y004304D01*
X008238Y004300D01*
X008284Y004292D01*
X008329Y004280D01*
X008373Y004264D01*
X008416Y004245D01*
X008457Y004222D01*
X008496Y004196D01*
X008532Y004167D01*
X008566Y004134D01*
X008597Y004099D01*
X008625Y004062D01*
X008649Y004022D01*
X008670Y003980D01*
X008688Y003937D01*
X008701Y003892D01*
X008711Y003846D01*
X008717Y003800D01*
X008719Y003753D01*
X008717Y003706D01*
X008711Y003660D01*
X008701Y003614D01*
X008688Y003569D01*
X008670Y003526D01*
X008649Y003484D01*
X008625Y003444D01*
X008597Y003407D01*
X008566Y003372D01*
X008532Y003339D01*
X008496Y003310D01*
X008457Y003284D01*
X008416Y003261D01*
X008373Y003242D01*
X008329Y003226D01*
X008284Y003214D01*
X008238Y003206D01*
X008191Y003202D01*
X008145Y003202D01*
X008098Y003206D01*
X008052Y003214D01*
X008007Y003226D01*
X007963Y003242D01*
X007920Y003261D01*
X007879Y003284D01*
X007840Y003310D01*
X007804Y003339D01*
X007770Y003372D01*
X007739Y003407D01*
X007711Y003444D01*
X007687Y003484D01*
X007666Y003526D01*
X007648Y003569D01*
X007635Y003614D01*
X007625Y003660D01*
X007619Y003706D01*
X007617Y003753D01*
X013947Y002639D02*
X013949Y002684D01*
X013955Y002728D01*
X013964Y002772D01*
X013978Y002814D01*
X013995Y002855D01*
X014016Y002895D01*
X014040Y002933D01*
X014067Y002968D01*
X014097Y003001D01*
X014130Y003031D01*
X014165Y003058D01*
X014203Y003082D01*
X014243Y003103D01*
X014284Y003120D01*
X014326Y003134D01*
X014370Y003143D01*
X014414Y003149D01*
X014459Y003151D01*
X014504Y003149D01*
X014548Y003143D01*
X014592Y003134D01*
X014634Y003120D01*
X014675Y003103D01*
X014715Y003082D01*
X014753Y003058D01*
X014788Y003031D01*
X014821Y003001D01*
X014851Y002968D01*
X014878Y002933D01*
X014902Y002895D01*
X014923Y002855D01*
X014940Y002814D01*
X014954Y002772D01*
X014963Y002728D01*
X014969Y002684D01*
X014971Y002639D01*
X014969Y002594D01*
X014963Y002550D01*
X014954Y002506D01*
X014940Y002464D01*
X014923Y002423D01*
X014902Y002383D01*
X014878Y002345D01*
X014851Y002310D01*
X014821Y002277D01*
X014788Y002247D01*
X014753Y002220D01*
X014715Y002196D01*
X014675Y002175D01*
X014634Y002158D01*
X014592Y002144D01*
X014548Y002135D01*
X014504Y002129D01*
X014459Y002127D01*
X014414Y002129D01*
X014370Y002135D01*
X014326Y002144D01*
X014284Y002158D01*
X014243Y002175D01*
X014203Y002196D01*
X014165Y002220D01*
X014130Y002247D01*
X014097Y002277D01*
X014067Y002310D01*
X014040Y002345D01*
X014016Y002383D01*
X013995Y002423D01*
X013978Y002464D01*
X013964Y002506D01*
X013955Y002550D01*
X013949Y002594D01*
X013947Y002639D01*
X025364Y002639D02*
X025366Y002684D01*
X025372Y002728D01*
X025381Y002772D01*
X025395Y002814D01*
X025412Y002855D01*
X025433Y002895D01*
X025457Y002933D01*
X025484Y002968D01*
X025514Y003001D01*
X025547Y003031D01*
X025582Y003058D01*
X025620Y003082D01*
X025660Y003103D01*
X025701Y003120D01*
X025743Y003134D01*
X025787Y003143D01*
X025831Y003149D01*
X025876Y003151D01*
X025921Y003149D01*
X025965Y003143D01*
X026009Y003134D01*
X026051Y003120D01*
X026092Y003103D01*
X026132Y003082D01*
X026170Y003058D01*
X026205Y003031D01*
X026238Y003001D01*
X026268Y002968D01*
X026295Y002933D01*
X026319Y002895D01*
X026340Y002855D01*
X026357Y002814D01*
X026371Y002772D01*
X026380Y002728D01*
X026386Y002684D01*
X026388Y002639D01*
X026386Y002594D01*
X026380Y002550D01*
X026371Y002506D01*
X026357Y002464D01*
X026340Y002423D01*
X026319Y002383D01*
X026295Y002345D01*
X026268Y002310D01*
X026238Y002277D01*
X026205Y002247D01*
X026170Y002220D01*
X026132Y002196D01*
X026092Y002175D01*
X026051Y002158D01*
X026009Y002144D01*
X025965Y002135D01*
X025921Y002129D01*
X025876Y002127D01*
X025831Y002129D01*
X025787Y002135D01*
X025743Y002144D01*
X025701Y002158D01*
X025660Y002175D01*
X025620Y002196D01*
X025582Y002220D01*
X025547Y002247D01*
X025514Y002277D01*
X025484Y002310D01*
X025457Y002345D01*
X025433Y002383D01*
X025412Y002423D01*
X025395Y002464D01*
X025381Y002506D01*
X025372Y002550D01*
X025366Y002594D01*
X025364Y002639D01*
X025364Y014253D02*
X025366Y014298D01*
X025372Y014342D01*
X025381Y014386D01*
X025395Y014428D01*
X025412Y014469D01*
X025433Y014509D01*
X025457Y014547D01*
X025484Y014582D01*
X025514Y014615D01*
X025547Y014645D01*
X025582Y014672D01*
X025620Y014696D01*
X025660Y014717D01*
X025701Y014734D01*
X025743Y014748D01*
X025787Y014757D01*
X025831Y014763D01*
X025876Y014765D01*
X025921Y014763D01*
X025965Y014757D01*
X026009Y014748D01*
X026051Y014734D01*
X026092Y014717D01*
X026132Y014696D01*
X026170Y014672D01*
X026205Y014645D01*
X026238Y014615D01*
X026268Y014582D01*
X026295Y014547D01*
X026319Y014509D01*
X026340Y014469D01*
X026357Y014428D01*
X026371Y014386D01*
X026380Y014342D01*
X026386Y014298D01*
X026388Y014253D01*
X026386Y014208D01*
X026380Y014164D01*
X026371Y014120D01*
X026357Y014078D01*
X026340Y014037D01*
X026319Y013997D01*
X026295Y013959D01*
X026268Y013924D01*
X026238Y013891D01*
X026205Y013861D01*
X026170Y013834D01*
X026132Y013810D01*
X026092Y013789D01*
X026051Y013772D01*
X026009Y013758D01*
X025965Y013749D01*
X025921Y013743D01*
X025876Y013741D01*
X025831Y013743D01*
X025787Y013749D01*
X025743Y013758D01*
X025701Y013772D01*
X025660Y013789D01*
X025620Y013810D01*
X025582Y013834D01*
X025547Y013861D01*
X025514Y013891D01*
X025484Y013924D01*
X025457Y013959D01*
X025433Y013997D01*
X025412Y014037D01*
X025395Y014078D01*
X025381Y014120D01*
X025372Y014164D01*
X025366Y014208D01*
X025364Y014253D01*
X013947Y014253D02*
X013949Y014298D01*
X013955Y014342D01*
X013964Y014386D01*
X013978Y014428D01*
X013995Y014469D01*
X014016Y014509D01*
X014040Y014547D01*
X014067Y014582D01*
X014097Y014615D01*
X014130Y014645D01*
X014165Y014672D01*
X014203Y014696D01*
X014243Y014717D01*
X014284Y014734D01*
X014326Y014748D01*
X014370Y014757D01*
X014414Y014763D01*
X014459Y014765D01*
X014504Y014763D01*
X014548Y014757D01*
X014592Y014748D01*
X014634Y014734D01*
X014675Y014717D01*
X014715Y014696D01*
X014753Y014672D01*
X014788Y014645D01*
X014821Y014615D01*
X014851Y014582D01*
X014878Y014547D01*
X014902Y014509D01*
X014923Y014469D01*
X014940Y014428D01*
X014954Y014386D01*
X014963Y014342D01*
X014969Y014298D01*
X014971Y014253D01*
X014969Y014208D01*
X014963Y014164D01*
X014954Y014120D01*
X014940Y014078D01*
X014923Y014037D01*
X014902Y013997D01*
X014878Y013959D01*
X014851Y013924D01*
X014821Y013891D01*
X014788Y013861D01*
X014753Y013834D01*
X014715Y013810D01*
X014675Y013789D01*
X014634Y013772D01*
X014592Y013758D01*
X014548Y013749D01*
X014504Y013743D01*
X014459Y013741D01*
X014414Y013743D01*
X014370Y013749D01*
X014326Y013758D01*
X014284Y013772D01*
X014243Y013789D01*
X014203Y013810D01*
X014165Y013834D01*
X014130Y013861D01*
X014097Y013891D01*
X014067Y013924D01*
X014040Y013959D01*
X014016Y013997D01*
X013995Y014037D01*
X013978Y014078D01*
X013964Y014120D01*
X013955Y014164D01*
X013949Y014208D01*
X013947Y014253D01*
X011117Y016503D02*
X011119Y016550D01*
X011125Y016596D01*
X011135Y016642D01*
X011148Y016687D01*
X011166Y016730D01*
X011187Y016772D01*
X011211Y016812D01*
X011239Y016849D01*
X011270Y016884D01*
X011304Y016917D01*
X011340Y016946D01*
X011379Y016972D01*
X011420Y016995D01*
X011463Y017014D01*
X011507Y017030D01*
X011552Y017042D01*
X011598Y017050D01*
X011645Y017054D01*
X011691Y017054D01*
X011738Y017050D01*
X011784Y017042D01*
X011829Y017030D01*
X011873Y017014D01*
X011916Y016995D01*
X011957Y016972D01*
X011996Y016946D01*
X012032Y016917D01*
X012066Y016884D01*
X012097Y016849D01*
X012125Y016812D01*
X012149Y016772D01*
X012170Y016730D01*
X012188Y016687D01*
X012201Y016642D01*
X012211Y016596D01*
X012217Y016550D01*
X012219Y016503D01*
X012217Y016456D01*
X012211Y016410D01*
X012201Y016364D01*
X012188Y016319D01*
X012170Y016276D01*
X012149Y016234D01*
X012125Y016194D01*
X012097Y016157D01*
X012066Y016122D01*
X012032Y016089D01*
X011996Y016060D01*
X011957Y016034D01*
X011916Y016011D01*
X011873Y015992D01*
X011829Y015976D01*
X011784Y015964D01*
X011738Y015956D01*
X011691Y015952D01*
X011645Y015952D01*
X011598Y015956D01*
X011552Y015964D01*
X011507Y015976D01*
X011463Y015992D01*
X011420Y016011D01*
X011379Y016034D01*
X011340Y016060D01*
X011304Y016089D01*
X011270Y016122D01*
X011239Y016157D01*
X011211Y016194D01*
X011187Y016234D01*
X011166Y016276D01*
X011148Y016319D01*
X011135Y016364D01*
X011125Y016410D01*
X011119Y016456D01*
X011117Y016503D01*
D11*
X012498Y014419D03*
X012498Y013631D03*
X012498Y012844D03*
X012498Y012056D03*
X012498Y011269D03*
X012498Y010481D03*
X012498Y009694D03*
X012498Y008907D03*
X012498Y008119D03*
X012498Y007332D03*
X014149Y004878D03*
X014936Y004878D03*
X003837Y007332D03*
X003837Y008119D03*
X003837Y008907D03*
X003837Y009694D03*
X003837Y010481D03*
X003837Y011269D03*
X003837Y012056D03*
X003837Y012844D03*
X003837Y013631D03*
X019420Y016753D03*
X020168Y016753D03*
X020955Y016753D03*
D12*
X003837Y014419D03*
D13*
X028168Y014003D03*
X028168Y013003D03*
X028168Y012003D03*
X028168Y011003D03*
X028168Y010003D03*
X028168Y009003D03*
X028168Y008003D03*
X028168Y007003D03*
X028168Y006003D03*
X028168Y005003D03*
X028168Y004003D03*
X029168Y004003D03*
X030168Y004003D03*
X031168Y004003D03*
X032168Y004003D03*
X033168Y004003D03*
X034168Y004003D03*
X034168Y005003D03*
X034168Y006003D03*
X034168Y007003D03*
X034168Y008003D03*
X034168Y009003D03*
X034168Y010003D03*
X034168Y011003D03*
X034168Y012003D03*
X033168Y012003D03*
X033168Y013003D03*
X034168Y013003D03*
X034168Y014003D03*
X033168Y014003D03*
X034168Y015003D03*
X034168Y016003D03*
X033168Y016003D03*
X034168Y017003D03*
X028168Y017003D03*
X028168Y016003D03*
X028168Y015003D03*
D14*
X035668Y012503D03*
X037418Y011003D03*
X036668Y010503D03*
X037418Y010003D03*
X038668Y008503D03*
X035668Y008503D03*
X038668Y012503D03*
X035168Y001753D03*
X034168Y001753D03*
X030168Y001753D03*
X029168Y001753D03*
X012668Y004878D03*
X012668Y006003D03*
X008668Y006003D03*
X007668Y006003D03*
X007668Y004878D03*
X008668Y004878D03*
X003668Y004878D03*
X003668Y006003D03*
X002543Y006003D03*
X001543Y006003D03*
X005168Y001753D03*
X006168Y001753D03*
X010168Y001753D03*
X011168Y001753D03*
D15*
X016668Y014253D03*
X017668Y014253D03*
X018668Y014253D03*
X019668Y014253D03*
X020668Y014253D03*
X021668Y014253D03*
X022668Y014253D03*
X023668Y014253D03*
D16*
X002417Y011265D03*
X002043Y011265D03*
X001669Y011265D03*
X001669Y010241D03*
X002417Y010241D03*
D17*
X002543Y008503D03*
X002543Y013128D03*
D18*
X001543Y013128D03*
X001543Y008503D03*
D19*
X018278Y016753D03*
X022057Y016753D03*
X036183Y006003D03*
X038152Y006003D03*
D20*
X038152Y007987D01*
X038668Y008503D01*
X038668Y010503D01*
X038168Y011003D01*
X037418Y011003D01*
X037712Y011317D02*
X039408Y011317D01*
X039408Y011199D02*
X038297Y011199D01*
X038263Y011233D02*
X037796Y011233D01*
X037596Y011433D01*
X037239Y011433D01*
X036988Y011181D01*
X036988Y010825D01*
X037239Y010573D01*
X037596Y010573D01*
X037796Y010773D01*
X038072Y010773D01*
X038438Y010408D01*
X038438Y008881D01*
X038238Y008681D01*
X038238Y008398D01*
X037922Y008083D01*
X037922Y007892D01*
X037922Y006633D01*
X037772Y006571D01*
X037584Y006383D01*
X037482Y006136D01*
X037482Y005870D01*
X037584Y005624D01*
X037772Y005435D01*
X038019Y005333D01*
X038285Y005333D01*
X038531Y005435D01*
X038720Y005624D01*
X038822Y005870D01*
X038822Y006136D01*
X038720Y006383D01*
X038531Y006571D01*
X038382Y006633D01*
X038382Y007892D01*
X038563Y008073D01*
X038846Y008073D01*
X039098Y008325D01*
X039098Y008681D01*
X038898Y008881D01*
X038898Y010408D01*
X038898Y010598D01*
X038398Y011098D01*
X038263Y011233D01*
X038416Y011080D02*
X039408Y011080D01*
X039408Y010962D02*
X038534Y010962D01*
X038653Y010843D02*
X039408Y010843D01*
X039408Y010724D02*
X038771Y010724D01*
X038890Y010606D02*
X039408Y010606D01*
X039408Y010487D02*
X038898Y010487D01*
X038898Y010369D02*
X039408Y010369D01*
X039408Y010250D02*
X038898Y010250D01*
X038898Y010132D02*
X039408Y010132D01*
X039408Y010013D02*
X038898Y010013D01*
X038898Y009895D02*
X039408Y009895D01*
X039408Y009776D02*
X038898Y009776D01*
X038898Y009658D02*
X039408Y009658D01*
X039408Y009539D02*
X038898Y009539D01*
X038898Y009420D02*
X039408Y009420D01*
X039408Y009302D02*
X038898Y009302D01*
X038898Y009183D02*
X039408Y009183D01*
X039408Y009065D02*
X038898Y009065D01*
X038898Y008946D02*
X039408Y008946D01*
X039408Y008828D02*
X038951Y008828D01*
X039070Y008709D02*
X039408Y008709D01*
X039408Y008591D02*
X039098Y008591D01*
X039098Y008472D02*
X039408Y008472D01*
X039408Y008354D02*
X039098Y008354D01*
X039008Y008235D02*
X039408Y008235D01*
X039408Y008116D02*
X038889Y008116D01*
X038488Y007998D02*
X039408Y007998D01*
X039408Y007879D02*
X038382Y007879D01*
X038382Y007761D02*
X039408Y007761D01*
X039408Y007642D02*
X038382Y007642D01*
X038382Y007524D02*
X039408Y007524D01*
X039408Y007405D02*
X038382Y007405D01*
X038382Y007287D02*
X039408Y007287D01*
X039408Y007168D02*
X038382Y007168D01*
X038382Y007050D02*
X039408Y007050D01*
X039408Y006931D02*
X038382Y006931D01*
X038382Y006813D02*
X039408Y006813D01*
X039408Y006694D02*
X038382Y006694D01*
X038521Y006575D02*
X039408Y006575D01*
X039408Y006457D02*
X038646Y006457D01*
X038738Y006338D02*
X039408Y006338D01*
X039408Y006220D02*
X038787Y006220D01*
X038822Y006101D02*
X039408Y006101D01*
X039408Y005983D02*
X038822Y005983D01*
X038819Y005864D02*
X039408Y005864D01*
X039408Y005746D02*
X038770Y005746D01*
X038721Y005627D02*
X039408Y005627D01*
X039408Y005509D02*
X038605Y005509D01*
X038422Y005390D02*
X039408Y005390D01*
X039408Y005271D02*
X034550Y005271D01*
X034548Y005273D02*
X035588Y005273D01*
X035779Y005273D01*
X035900Y005395D01*
X036050Y005333D01*
X036317Y005333D01*
X036563Y005435D01*
X036751Y005624D01*
X036853Y005870D01*
X036853Y006136D01*
X036751Y006383D01*
X036563Y006571D01*
X036413Y006633D01*
X036413Y007892D01*
X036413Y008083D01*
X036098Y008398D01*
X036098Y008681D01*
X035846Y008933D01*
X035489Y008933D01*
X035238Y008681D01*
X035238Y008325D01*
X035489Y008073D01*
X035772Y008073D01*
X035953Y007892D01*
X035953Y006633D01*
X035804Y006571D01*
X035615Y006383D01*
X035513Y006136D01*
X035513Y005870D01*
X035570Y005733D01*
X034548Y005733D01*
X034557Y005743D01*
X034628Y005912D01*
X034628Y006095D01*
X034557Y006264D01*
X034428Y006393D01*
X034259Y006463D01*
X034076Y006463D01*
X033907Y006393D01*
X033778Y006264D01*
X033765Y006233D01*
X032263Y006233D01*
X031763Y006733D01*
X031572Y006733D01*
X028548Y006733D01*
X028557Y006743D01*
X028628Y006912D01*
X028628Y007095D01*
X028557Y007264D01*
X028548Y007273D01*
X031572Y007273D01*
X032072Y006773D01*
X032263Y006773D01*
X033765Y006773D01*
X033778Y006743D01*
X033907Y006613D01*
X034076Y006543D01*
X034259Y006543D01*
X034428Y006613D01*
X034557Y006743D01*
X034628Y006912D01*
X034628Y007095D01*
X034557Y007264D01*
X034428Y007393D01*
X034259Y007463D01*
X034076Y007463D01*
X033907Y007393D01*
X033778Y007264D01*
X033765Y007233D01*
X032263Y007233D01*
X031763Y007733D01*
X031572Y007733D01*
X028548Y007733D01*
X028557Y007743D01*
X028628Y007912D01*
X028628Y008095D01*
X028557Y008264D01*
X028548Y008273D01*
X031572Y008273D01*
X032072Y007773D01*
X032263Y007773D01*
X033765Y007773D01*
X033778Y007743D01*
X033907Y007613D01*
X034076Y007543D01*
X034259Y007543D01*
X034428Y007613D01*
X034557Y007743D01*
X034628Y007912D01*
X034628Y008095D01*
X034557Y008264D01*
X034428Y008393D01*
X034259Y008463D01*
X034076Y008463D01*
X033907Y008393D01*
X033778Y008264D01*
X033765Y008233D01*
X032263Y008233D01*
X031898Y008598D01*
X031763Y008733D01*
X028548Y008733D01*
X028557Y008743D01*
X028628Y008912D01*
X028628Y009095D01*
X028557Y009264D01*
X028548Y009273D01*
X031572Y009273D01*
X032072Y008773D01*
X032263Y008773D01*
X033765Y008773D01*
X033778Y008743D01*
X033907Y008613D01*
X034076Y008543D01*
X034259Y008543D01*
X034428Y008613D01*
X034557Y008743D01*
X034628Y008912D01*
X034628Y009095D01*
X034557Y009264D01*
X034428Y009393D01*
X034259Y009463D01*
X034076Y009463D01*
X033907Y009393D01*
X033778Y009264D01*
X033765Y009233D01*
X032263Y009233D01*
X031898Y009598D01*
X031763Y009733D01*
X028548Y009733D01*
X028557Y009743D01*
X028628Y009912D01*
X028628Y010095D01*
X028557Y010264D01*
X028548Y010273D01*
X031572Y010273D01*
X032072Y009773D01*
X032263Y009773D01*
X033765Y009773D01*
X033778Y009743D01*
X033907Y009613D01*
X034076Y009543D01*
X034259Y009543D01*
X034428Y009613D01*
X034557Y009743D01*
X034628Y009912D01*
X034628Y010095D01*
X034557Y010264D01*
X034428Y010393D01*
X034259Y010463D01*
X034076Y010463D01*
X033907Y010393D01*
X033778Y010264D01*
X033765Y010233D01*
X032263Y010233D01*
X031898Y010598D01*
X031763Y010733D01*
X028548Y010733D01*
X028557Y010743D01*
X028628Y010912D01*
X028628Y011095D01*
X028557Y011264D01*
X028548Y011273D01*
X031572Y011273D01*
X031938Y010908D01*
X032072Y010773D01*
X033765Y010773D01*
X033778Y010743D01*
X033907Y010613D01*
X034076Y010543D01*
X034259Y010543D01*
X034428Y010613D01*
X034557Y010743D01*
X034628Y010912D01*
X034628Y011095D01*
X034557Y011264D01*
X034428Y011393D01*
X034259Y011463D01*
X034076Y011463D01*
X033907Y011393D01*
X033778Y011264D01*
X033765Y011233D01*
X032263Y011233D01*
X031763Y011733D01*
X031572Y011733D01*
X028548Y011733D01*
X028557Y011743D01*
X028628Y011912D01*
X028628Y012095D01*
X028557Y012264D01*
X028548Y012273D01*
X031572Y012273D01*
X032438Y011408D01*
X032572Y011273D01*
X033572Y011273D01*
X033763Y011273D01*
X034045Y011556D01*
X034076Y011543D01*
X034259Y011543D01*
X034428Y011613D01*
X034557Y011743D01*
X034628Y011912D01*
X034628Y012095D01*
X034557Y012264D01*
X034428Y012393D01*
X034259Y012463D01*
X034076Y012463D01*
X033907Y012393D01*
X033778Y012264D01*
X033708Y012095D01*
X033708Y011912D01*
X033720Y011881D01*
X033572Y011733D01*
X033548Y011733D01*
X033557Y011743D01*
X033628Y011912D01*
X033628Y012095D01*
X033557Y012264D01*
X033548Y012273D01*
X033763Y012273D01*
X033898Y012408D01*
X034045Y012556D01*
X034076Y012543D01*
X034259Y012543D01*
X034428Y012613D01*
X034557Y012743D01*
X034628Y012912D01*
X034628Y013095D01*
X034557Y013264D01*
X034428Y013393D01*
X034259Y013463D01*
X034076Y013463D01*
X033907Y013393D01*
X033778Y013264D01*
X033708Y013095D01*
X033627Y013095D01*
X033628Y013095D02*
X033557Y013264D01*
X033548Y013273D01*
X033763Y013273D01*
X033898Y013408D01*
X034045Y013556D01*
X034076Y013543D01*
X034259Y013543D01*
X034428Y013613D01*
X034557Y013743D01*
X034628Y013912D01*
X034628Y014095D01*
X034557Y014264D01*
X034533Y014288D01*
X034618Y014253D01*
X034717Y014253D01*
X036064Y014253D01*
X036526Y013791D01*
X036585Y013767D01*
X036575Y013767D01*
X036403Y013696D01*
X036272Y013564D01*
X036201Y013393D01*
X036201Y012613D01*
X036272Y012442D01*
X036403Y012311D01*
X036575Y012239D01*
X036760Y012239D01*
X036932Y012311D01*
X037063Y012442D01*
X037134Y012613D01*
X037134Y013393D01*
X037063Y013564D01*
X036932Y013696D01*
X036793Y013753D01*
X037609Y013753D01*
X037561Y013746D01*
X037492Y013723D01*
X037428Y013691D01*
X037370Y013648D01*
X037319Y013598D01*
X037277Y013539D01*
X037244Y013475D01*
X037222Y013407D01*
X037211Y013336D01*
X037211Y013042D01*
X037629Y013042D01*
X037629Y012965D01*
X037211Y012965D01*
X037211Y012670D01*
X037222Y012599D01*
X037244Y012531D01*
X037277Y012467D01*
X037319Y012409D01*
X037370Y012358D01*
X037428Y012316D01*
X037492Y012283D01*
X037561Y012261D01*
X037629Y012250D01*
X037629Y012964D01*
X037706Y012964D01*
X037706Y012250D01*
X037775Y012261D01*
X037843Y012283D01*
X037907Y012316D01*
X037965Y012358D01*
X038016Y012409D01*
X038058Y012467D01*
X038091Y012531D01*
X038113Y012599D01*
X038124Y012670D01*
X038124Y012965D01*
X037706Y012965D01*
X037706Y013042D01*
X038124Y013042D01*
X038124Y013336D01*
X038113Y013407D01*
X038091Y013475D01*
X038058Y013539D01*
X038016Y013598D01*
X037965Y013648D01*
X037907Y013691D01*
X037843Y013723D01*
X037775Y013746D01*
X037726Y013753D01*
X038064Y013753D01*
X038418Y013400D01*
X038418Y012861D01*
X038238Y012681D01*
X038238Y012325D01*
X038489Y012073D01*
X038846Y012073D01*
X039098Y012325D01*
X039098Y012681D01*
X038918Y012861D01*
X038918Y013553D01*
X038879Y013645D01*
X038809Y013715D01*
X038309Y014215D01*
X038217Y014253D01*
X038118Y014253D01*
X036771Y014253D01*
X036379Y014645D01*
X036309Y014715D01*
X036217Y014753D01*
X034771Y014753D01*
X034623Y014901D01*
X034628Y014912D01*
X034628Y015095D01*
X034557Y015264D01*
X034428Y015393D01*
X034259Y015463D01*
X034076Y015463D01*
X033907Y015393D01*
X033778Y015264D01*
X033708Y015095D01*
X033708Y014912D01*
X033778Y014743D01*
X033907Y014613D01*
X034076Y014543D01*
X034259Y014543D01*
X034270Y014548D01*
X034421Y014396D01*
X034259Y014463D01*
X034076Y014463D01*
X033907Y014393D01*
X033778Y014264D01*
X033708Y014095D01*
X033708Y013912D01*
X033720Y013881D01*
X033572Y013733D01*
X033548Y013733D01*
X033557Y013743D01*
X033628Y013912D01*
X033628Y014095D01*
X033557Y014264D01*
X033428Y014393D01*
X033259Y014463D01*
X033076Y014463D01*
X032907Y014393D01*
X032778Y014264D01*
X032708Y014095D01*
X032708Y013912D01*
X032778Y013743D01*
X032787Y013733D01*
X032263Y013733D01*
X031898Y014098D01*
X031763Y014233D01*
X029918Y014233D01*
X029980Y014295D01*
X030036Y014430D01*
X030036Y014576D01*
X029980Y014712D01*
X029876Y014815D01*
X029741Y014871D01*
X029594Y014871D01*
X029459Y014815D01*
X029377Y014733D01*
X028548Y014733D01*
X028557Y014743D01*
X028628Y014912D01*
X028628Y015095D01*
X028557Y015264D01*
X028428Y015393D01*
X028259Y015463D01*
X028076Y015463D01*
X027907Y015393D01*
X027778Y015264D01*
X027765Y015233D01*
X027513Y015233D01*
X027368Y015378D01*
X027398Y015408D01*
X027763Y015773D01*
X027765Y015773D01*
X027778Y015743D01*
X027907Y015613D01*
X028076Y015543D01*
X028259Y015543D01*
X028428Y015613D01*
X028557Y015743D01*
X028628Y015912D01*
X028628Y016095D01*
X028562Y016253D01*
X032618Y016253D01*
X032717Y016253D01*
X032802Y016288D01*
X032778Y016264D01*
X032708Y016095D01*
X032708Y015912D01*
X032778Y015743D01*
X032907Y015613D01*
X033076Y015543D01*
X033259Y015543D01*
X033428Y015613D01*
X033557Y015743D01*
X033628Y015912D01*
X033628Y016095D01*
X033557Y016264D01*
X033428Y016393D01*
X033259Y016463D01*
X033076Y016463D01*
X032914Y016396D01*
X033271Y016753D01*
X033773Y016753D01*
X033778Y016743D01*
X033907Y016613D01*
X034076Y016543D01*
X034259Y016543D01*
X034428Y016613D01*
X034557Y016743D01*
X034628Y016912D01*
X034628Y017095D01*
X034557Y017264D01*
X034428Y017393D01*
X034259Y017463D01*
X034076Y017463D01*
X033907Y017393D01*
X033778Y017264D01*
X033773Y017253D01*
X033118Y017253D01*
X033026Y017215D01*
X032956Y017145D01*
X032564Y016753D01*
X028542Y016753D01*
X028552Y016767D01*
X028585Y016830D01*
X028606Y016898D01*
X028618Y016968D01*
X028203Y016968D01*
X028203Y017038D01*
X028618Y017038D01*
X028618Y017039D01*
X028606Y017109D01*
X028585Y017176D01*
X028552Y017239D01*
X028511Y017296D01*
X028461Y017346D01*
X028403Y017388D01*
X028340Y017420D01*
X028273Y017442D01*
X028203Y017453D01*
X028203Y017453D01*
X028203Y017038D01*
X028132Y017038D01*
X028132Y016968D01*
X027718Y016968D01*
X027718Y016968D01*
X027729Y016898D01*
X027751Y016830D01*
X027783Y016767D01*
X027793Y016753D01*
X027118Y016753D01*
X027026Y016715D01*
X026956Y016645D01*
X026564Y016253D01*
X022490Y016253D01*
X022493Y016256D01*
X022555Y016317D01*
X022607Y016386D01*
X022651Y016461D01*
X022684Y016541D01*
X022706Y016624D01*
X022715Y016693D01*
X022117Y016693D01*
X022117Y016813D01*
X021997Y016813D01*
X021997Y017411D01*
X021928Y017402D01*
X021845Y017379D01*
X021765Y017346D01*
X021690Y017303D01*
X021621Y017250D01*
X021560Y017189D01*
X021507Y017121D01*
X021464Y017046D01*
X021431Y016966D01*
X021409Y016882D01*
X021404Y016845D01*
X021336Y017008D01*
X021210Y017135D01*
X021044Y017203D01*
X020865Y017203D01*
X020700Y017135D01*
X020573Y017008D01*
X020561Y016978D01*
X020549Y017008D01*
X020422Y017135D01*
X020257Y017203D01*
X020078Y017203D01*
X019913Y017135D01*
X019794Y017015D01*
X019674Y017135D01*
X019509Y017203D01*
X019330Y017203D01*
X019165Y017135D01*
X019038Y017008D01*
X018970Y016843D01*
X018970Y016664D01*
X019038Y016498D01*
X019165Y016372D01*
X019330Y016303D01*
X019509Y016303D01*
X019674Y016372D01*
X019794Y016491D01*
X019913Y016372D01*
X020078Y016303D01*
X020257Y016303D01*
X020422Y016372D01*
X020549Y016498D01*
X020561Y016528D01*
X020573Y016498D01*
X020700Y016372D01*
X020705Y016370D01*
X020705Y016265D01*
X020705Y016166D01*
X020743Y016074D01*
X020956Y015862D01*
X021026Y015791D01*
X021118Y015753D01*
X026618Y015753D01*
X026717Y015753D01*
X026809Y015791D01*
X027271Y016253D01*
X027773Y016253D01*
X027765Y016233D01*
X027763Y016233D01*
X027572Y016233D01*
X027072Y015733D01*
X016890Y015733D01*
X016963Y015806D01*
X017016Y015934D01*
X017016Y016072D01*
X016963Y016201D01*
X016865Y016299D01*
X016737Y016352D01*
X016598Y016352D01*
X016470Y016299D01*
X016405Y016233D01*
X012638Y016233D01*
X012447Y016233D01*
X012424Y016210D01*
X012479Y016342D01*
X012479Y016664D01*
X012355Y016963D01*
X012127Y017191D01*
X011829Y017314D01*
X011506Y017314D01*
X011208Y017191D01*
X010980Y016963D01*
X010856Y016664D01*
X010856Y016342D01*
X010980Y016044D01*
X011208Y015815D01*
X011506Y015692D01*
X011829Y015692D01*
X011961Y015747D01*
X010863Y014648D01*
X004287Y014648D01*
X004287Y014769D01*
X004187Y014868D01*
X003604Y014868D01*
X003789Y015068D01*
X004004Y015514D01*
X004070Y015954D01*
X004208Y015815D01*
X004506Y015692D01*
X004829Y015692D01*
X005127Y015815D01*
X005355Y016044D01*
X005479Y016342D01*
X005479Y016664D01*
X005355Y016963D01*
X005127Y017191D01*
X004829Y017314D01*
X004506Y017314D01*
X004208Y017191D01*
X003980Y016963D01*
X003886Y016736D01*
X003789Y016938D01*
X003789Y016938D01*
X003453Y017301D01*
X003452Y017301D01*
X003120Y017493D01*
X037221Y017493D01*
X037088Y017441D01*
X036701Y017132D01*
X036422Y016723D01*
X036276Y016251D01*
X036276Y016251D01*
X036276Y015756D01*
X036276Y015756D01*
X036422Y015283D01*
X036422Y015283D01*
X036701Y014874D01*
X037088Y014566D01*
X037548Y014385D01*
X038042Y014348D01*
X038524Y014458D01*
X038953Y014705D01*
X038953Y014705D01*
X039289Y015068D01*
X039289Y015068D01*
X039408Y015314D01*
X039408Y002692D01*
X039289Y002938D01*
X038952Y003301D01*
X038524Y003548D01*
X038042Y003658D01*
X038042Y003658D01*
X037548Y003621D01*
X037088Y003441D01*
X036701Y003132D01*
X036422Y002723D01*
X036276Y002251D01*
X036276Y002251D01*
X036276Y001756D01*
X036276Y001756D01*
X036422Y001283D01*
X036422Y001283D01*
X036701Y000874D01*
X037088Y000566D01*
X037221Y000513D01*
X034003Y000513D01*
X034263Y000773D01*
X034398Y000908D01*
X034398Y001375D01*
X034598Y001575D01*
X034598Y001931D01*
X034346Y002183D01*
X033989Y002183D01*
X033738Y001931D01*
X033738Y001575D01*
X033938Y001375D01*
X033938Y001098D01*
X033697Y000858D01*
X033360Y000858D01*
X033391Y000934D01*
X033391Y001072D01*
X033338Y001201D01*
X033240Y001299D01*
X033112Y001352D01*
X032973Y001352D01*
X032845Y001299D01*
X032747Y001201D01*
X032709Y001108D01*
X028848Y001108D01*
X029063Y001323D01*
X029346Y001323D01*
X029598Y001575D01*
X029598Y001931D01*
X029346Y002183D01*
X028989Y002183D01*
X028738Y001931D01*
X028738Y001648D01*
X028447Y001358D01*
X013013Y001358D01*
X012898Y001473D01*
X012898Y004500D01*
X013098Y004700D01*
X013098Y005056D01*
X012846Y005308D01*
X012489Y005308D01*
X012238Y005056D01*
X012238Y004700D01*
X012438Y004500D01*
X012438Y001473D01*
X012438Y001283D01*
X012612Y001108D01*
X005388Y001108D01*
X005173Y001323D01*
X005346Y001323D01*
X005598Y001575D01*
X005598Y001931D01*
X005398Y002131D01*
X005398Y005408D01*
X005763Y005773D01*
X007289Y005773D01*
X007489Y005573D01*
X007846Y005573D01*
X008098Y005825D01*
X008098Y006181D01*
X007846Y006433D01*
X007489Y006433D01*
X007289Y006233D01*
X005572Y006233D01*
X005438Y006098D01*
X004938Y005598D01*
X004938Y005408D01*
X004938Y002131D01*
X004898Y002091D01*
X004898Y003783D01*
X004898Y003973D01*
X004098Y004773D01*
X004098Y005056D01*
X003846Y005308D01*
X003489Y005308D01*
X003238Y005056D01*
X003238Y004700D01*
X003489Y004448D01*
X003772Y004448D01*
X004438Y003783D01*
X004438Y003058D01*
X004388Y003108D01*
X002273Y005223D01*
X002273Y005665D01*
X002364Y005573D01*
X002721Y005573D01*
X002973Y005825D01*
X002973Y006181D01*
X002773Y006381D01*
X002773Y006848D01*
X002638Y006983D01*
X002273Y007348D01*
X002273Y008101D01*
X002346Y008028D01*
X002522Y008028D01*
X002522Y008483D01*
X002563Y008483D01*
X002563Y008523D01*
X003018Y008523D01*
X003018Y008700D01*
X002739Y008978D01*
X002563Y008978D01*
X002563Y008523D01*
X002522Y008523D01*
X002522Y008978D01*
X002346Y008978D01*
X002273Y008905D01*
X002273Y009033D01*
X002647Y009407D01*
X002647Y009597D01*
X002647Y009886D01*
X002695Y009935D01*
X002695Y010548D01*
X002595Y010648D01*
X002238Y010648D01*
X002138Y010548D01*
X002138Y009935D01*
X002187Y009886D01*
X002187Y009597D01*
X001947Y009358D01*
X001899Y009309D01*
X001899Y009886D01*
X001947Y009935D01*
X001947Y010548D01*
X001847Y010648D01*
X001490Y010648D01*
X001390Y010548D01*
X001390Y009935D01*
X001439Y009886D01*
X001439Y008985D01*
X001268Y008914D01*
X001131Y008778D01*
X001058Y008600D01*
X001058Y008407D01*
X001131Y008228D01*
X001268Y008092D01*
X001313Y008073D01*
X001313Y007348D01*
X001313Y007158D01*
X001813Y006658D01*
X001813Y006327D01*
X001716Y006423D01*
X001563Y006423D01*
X001563Y006023D01*
X001522Y006023D01*
X001522Y005983D01*
X001123Y005983D01*
X001123Y005829D01*
X001369Y005583D01*
X001522Y005583D01*
X001522Y005983D01*
X001563Y005983D01*
X001563Y005583D01*
X001716Y005583D01*
X001813Y005679D01*
X001813Y005223D01*
X001813Y005033D01*
X004063Y002783D01*
X004063Y002102D01*
X004004Y002492D01*
X004004Y002492D01*
X003789Y002938D01*
X003789Y002938D01*
X003453Y003301D01*
X003452Y003301D01*
X003024Y003548D01*
X002542Y003658D01*
X002542Y003658D01*
X002048Y003621D01*
X001588Y003441D01*
X001201Y003132D01*
X000928Y002732D01*
X000928Y015275D01*
X001201Y014874D01*
X001588Y014566D01*
X002048Y014385D01*
X002542Y014348D01*
X003024Y014458D01*
X003387Y014667D01*
X003387Y014068D01*
X003486Y013969D01*
X003538Y013969D01*
X003455Y013886D01*
X003387Y013721D01*
X003387Y013542D01*
X003455Y013376D01*
X003582Y013250D01*
X003611Y013237D01*
X003582Y013225D01*
X003455Y013099D01*
X003387Y012933D01*
X003387Y012754D01*
X003455Y012589D01*
X003582Y012462D01*
X003611Y012450D01*
X003582Y012438D01*
X003455Y012311D01*
X003387Y012146D01*
X003387Y011967D01*
X003455Y011801D01*
X003582Y011675D01*
X003611Y011663D01*
X003582Y011650D01*
X003455Y011524D01*
X003387Y011358D01*
X003387Y011179D01*
X003455Y011014D01*
X003582Y010887D01*
X003611Y010875D01*
X003582Y010863D01*
X003455Y010736D01*
X003387Y010571D01*
X003387Y010392D01*
X003455Y010227D01*
X003582Y010100D01*
X003611Y010088D01*
X003582Y010076D01*
X003455Y009949D01*
X003387Y009784D01*
X003387Y009605D01*
X003455Y009439D01*
X003582Y009313D01*
X003611Y009300D01*
X003582Y009288D01*
X003455Y009162D01*
X003387Y008996D01*
X003387Y008817D01*
X003455Y008652D01*
X003582Y008525D01*
X003611Y008513D01*
X003582Y008501D01*
X003455Y008374D01*
X003387Y008209D01*
X003387Y008030D01*
X003455Y007864D01*
X003582Y007738D01*
X003627Y007719D01*
X003606Y007708D01*
X003550Y007667D01*
X003501Y007619D01*
X003461Y007562D01*
X003429Y007501D01*
X003408Y007435D01*
X003397Y007366D01*
X003397Y007341D01*
X003828Y007341D01*
X003828Y007323D01*
X003846Y007323D01*
X003846Y007341D01*
X004277Y007341D01*
X004277Y007366D01*
X004266Y007435D01*
X004245Y007501D01*
X004213Y007562D01*
X004172Y007619D01*
X004123Y007667D01*
X004067Y007708D01*
X004046Y007719D01*
X004092Y007738D01*
X004218Y007864D01*
X004287Y008030D01*
X004287Y008209D01*
X004218Y008374D01*
X004092Y008501D01*
X004062Y008513D01*
X004092Y008525D01*
X004218Y008652D01*
X004287Y008817D01*
X004287Y008996D01*
X004218Y009162D01*
X004092Y009288D01*
X004062Y009300D01*
X004092Y009313D01*
X004218Y009439D01*
X004287Y009605D01*
X004287Y009784D01*
X004218Y009949D01*
X004092Y010076D01*
X004062Y010088D01*
X004092Y010100D01*
X004169Y010177D01*
X004438Y009908D01*
X004438Y006598D01*
X004072Y006233D01*
X004046Y006233D01*
X003846Y006433D01*
X003489Y006433D01*
X003238Y006181D01*
X003238Y005825D01*
X003489Y005573D01*
X003846Y005573D01*
X004046Y005773D01*
X004263Y005773D01*
X004398Y005908D01*
X004898Y006408D01*
X004898Y006598D01*
X004898Y010098D01*
X004763Y010233D01*
X004763Y010233D01*
X004419Y010577D01*
X004284Y010711D01*
X004229Y010711D01*
X004218Y010736D01*
X004092Y010863D01*
X004062Y010875D01*
X004092Y010887D01*
X004218Y011014D01*
X004287Y011179D01*
X004287Y011358D01*
X004218Y011524D01*
X004092Y011650D01*
X004062Y011663D01*
X004092Y011675D01*
X004218Y011801D01*
X004287Y011967D01*
X004287Y012146D01*
X004218Y012311D01*
X004092Y012438D01*
X004062Y012450D01*
X004092Y012462D01*
X004218Y012589D01*
X004229Y012614D01*
X010038Y012614D01*
X010228Y012614D01*
X012048Y014434D01*
X012048Y014329D01*
X012117Y014164D01*
X012243Y014037D01*
X012273Y014025D01*
X012243Y014013D01*
X012117Y013886D01*
X012048Y013721D01*
X012048Y013542D01*
X012117Y013376D01*
X012243Y013250D01*
X012273Y013237D01*
X012243Y013225D01*
X012117Y013099D01*
X012048Y012933D01*
X012048Y012754D01*
X012117Y012589D01*
X012243Y012462D01*
X012273Y012450D01*
X012243Y012438D01*
X012117Y012311D01*
X012048Y012146D01*
X012048Y011967D01*
X012117Y011801D01*
X012243Y011675D01*
X012273Y011663D01*
X012243Y011650D01*
X012117Y011524D01*
X012048Y011358D01*
X012048Y011179D01*
X012117Y011014D01*
X012243Y010887D01*
X012273Y010875D01*
X012243Y010863D01*
X012117Y010736D01*
X012106Y010711D01*
X012051Y010711D01*
X011572Y010233D01*
X011438Y010098D01*
X011438Y006598D01*
X011438Y006408D01*
X011938Y005908D01*
X012072Y005773D01*
X012289Y005773D01*
X012489Y005573D01*
X012846Y005573D01*
X013098Y005825D01*
X013098Y006181D01*
X012846Y006433D01*
X012489Y006433D01*
X012289Y006233D01*
X012263Y006233D01*
X011898Y006598D01*
X011898Y009908D01*
X012166Y010177D01*
X012243Y010100D01*
X012273Y010088D01*
X012243Y010076D01*
X012117Y009949D01*
X012048Y009784D01*
X012048Y009605D01*
X012117Y009439D01*
X012243Y009313D01*
X012273Y009300D01*
X012243Y009288D01*
X012117Y009162D01*
X012048Y008996D01*
X012048Y008817D01*
X012117Y008652D01*
X012243Y008525D01*
X012273Y008513D01*
X012243Y008501D01*
X012117Y008374D01*
X012048Y008209D01*
X012048Y008030D01*
X012117Y007864D01*
X012243Y007738D01*
X012273Y007726D01*
X012243Y007713D01*
X012117Y007587D01*
X012048Y007421D01*
X012048Y007242D01*
X012117Y007077D01*
X012243Y006950D01*
X012409Y006882D01*
X012588Y006882D01*
X012753Y006950D01*
X012880Y007077D01*
X012948Y007242D01*
X012948Y007421D01*
X012880Y007587D01*
X012753Y007713D01*
X012724Y007726D01*
X012753Y007738D01*
X012880Y007864D01*
X012948Y008030D01*
X012948Y008209D01*
X012880Y008374D01*
X012753Y008501D01*
X012724Y008513D01*
X012753Y008525D01*
X012880Y008652D01*
X012948Y008817D01*
X012948Y008996D01*
X012880Y009162D01*
X012753Y009288D01*
X012724Y009300D01*
X012753Y009313D01*
X012880Y009439D01*
X012948Y009605D01*
X012948Y009784D01*
X012880Y009949D01*
X012753Y010076D01*
X012724Y010088D01*
X012753Y010100D01*
X012880Y010227D01*
X012948Y010392D01*
X012948Y010571D01*
X012880Y010736D01*
X012753Y010863D01*
X012724Y010875D01*
X012753Y010887D01*
X012880Y011014D01*
X012948Y011179D01*
X012948Y011358D01*
X012880Y011524D01*
X012753Y011650D01*
X012724Y011663D01*
X012753Y011675D01*
X012880Y011801D01*
X012948Y011967D01*
X012948Y012146D01*
X012880Y012311D01*
X012753Y012438D01*
X012724Y012450D01*
X012753Y012462D01*
X012880Y012589D01*
X012948Y012754D01*
X012948Y012933D01*
X012880Y013099D01*
X012753Y013225D01*
X012724Y013237D01*
X012753Y013250D01*
X012880Y013376D01*
X012948Y013542D01*
X012948Y013721D01*
X012880Y013886D01*
X012753Y014013D01*
X012724Y014025D01*
X012753Y014037D01*
X012880Y014164D01*
X012948Y014329D01*
X012948Y014508D01*
X012880Y014673D01*
X012753Y014800D01*
X012588Y014868D01*
X012483Y014868D01*
X012638Y015023D01*
X014301Y015023D01*
X014022Y014907D01*
X013805Y014690D01*
X013687Y014407D01*
X013687Y014100D01*
X013805Y013816D01*
X014022Y013599D01*
X014305Y013481D01*
X014612Y013481D01*
X014896Y013599D01*
X015113Y013816D01*
X015231Y014100D01*
X015231Y014407D01*
X015113Y014690D01*
X014896Y014907D01*
X014617Y015023D01*
X025719Y015023D01*
X025439Y014907D01*
X025222Y014690D01*
X025104Y014407D01*
X025104Y014100D01*
X025222Y013816D01*
X025439Y013599D01*
X025718Y013483D01*
X020263Y013483D01*
X019927Y013819D01*
X019951Y013829D01*
X020091Y013970D01*
X020168Y014154D01*
X020244Y013970D01*
X020384Y013829D01*
X020568Y013753D01*
X020767Y013753D01*
X020951Y013829D01*
X021091Y013970D01*
X021168Y014154D01*
X021244Y013970D01*
X021384Y013829D01*
X021568Y013753D01*
X021767Y013753D01*
X021951Y013829D01*
X022091Y013970D01*
X022168Y014154D01*
X022244Y013970D01*
X022384Y013829D01*
X022568Y013753D01*
X022767Y013753D01*
X022951Y013829D01*
X023091Y013970D01*
X023168Y014154D01*
X023168Y014353D01*
X023091Y014536D01*
X022951Y014677D01*
X022767Y014753D01*
X022568Y014753D01*
X022384Y014677D01*
X022244Y014536D01*
X022168Y014353D01*
X022168Y014154D01*
X022168Y014353D01*
X022091Y014536D01*
X021951Y014677D01*
X021767Y014753D01*
X021568Y014753D01*
X021384Y014677D01*
X021244Y014536D01*
X021168Y014353D01*
X021168Y014154D01*
X021168Y014353D01*
X021091Y014536D01*
X020951Y014677D01*
X020767Y014753D01*
X020568Y014753D01*
X020384Y014677D01*
X020244Y014536D01*
X020168Y014353D01*
X020168Y014154D01*
X020168Y014353D01*
X020091Y014536D01*
X019951Y014677D01*
X019767Y014753D01*
X019568Y014753D01*
X019384Y014677D01*
X019244Y014536D01*
X019168Y014353D01*
X019168Y014154D01*
X019244Y013970D01*
X019384Y013829D01*
X019438Y013807D01*
X019438Y013658D01*
X019724Y013371D01*
X019594Y013371D01*
X019459Y013315D01*
X019355Y013212D01*
X019299Y013076D01*
X019299Y012930D01*
X019329Y012858D01*
X017272Y012858D01*
X019329Y012858D01*
X019299Y012977D02*
X016898Y012977D01*
X016898Y013095D02*
X019307Y013095D01*
X019358Y013214D02*
X016898Y013214D01*
X016898Y013332D02*
X019501Y013332D01*
X019644Y013451D02*
X016898Y013451D01*
X016898Y013569D02*
X019526Y013569D01*
X019438Y013688D02*
X016898Y013688D01*
X016898Y013807D02*
X017439Y013807D01*
X017384Y013829D02*
X017568Y013753D01*
X017767Y013753D01*
X017951Y013829D01*
X018091Y013970D01*
X018168Y014154D01*
X018244Y013970D01*
X018384Y013829D01*
X018568Y013753D01*
X018767Y013753D01*
X018951Y013829D01*
X019091Y013970D01*
X019168Y014154D01*
X019168Y014353D01*
X019091Y014536D01*
X018951Y014677D01*
X018767Y014753D01*
X018568Y014753D01*
X018384Y014677D01*
X018244Y014536D01*
X018168Y014353D01*
X018168Y014154D01*
X018168Y014353D01*
X018091Y014536D01*
X017951Y014677D01*
X017767Y014753D01*
X017568Y014753D01*
X017384Y014677D01*
X017244Y014536D01*
X017168Y014353D01*
X017168Y014154D01*
X017244Y013970D01*
X017384Y013829D01*
X017288Y013925D02*
X017047Y013925D01*
X017091Y013970D02*
X016951Y013829D01*
X016898Y013807D01*
X016898Y012754D01*
X016959Y012815D01*
X017094Y012871D01*
X017241Y012871D01*
X017272Y012858D01*
X017063Y012858D02*
X016898Y012858D01*
X017168Y012503D02*
X017293Y012628D01*
X026543Y012628D01*
X027418Y013503D01*
X031668Y013503D01*
X032168Y013003D01*
X033168Y013003D01*
X033628Y012977D02*
X033708Y012977D01*
X033708Y012912D02*
X033708Y013095D01*
X033628Y013095D02*
X033628Y012912D01*
X033557Y012743D01*
X033548Y012733D01*
X033572Y012733D01*
X033720Y012881D01*
X033708Y012912D01*
X033697Y012858D02*
X033605Y012858D01*
X033579Y012740D02*
X033555Y012740D01*
X033668Y012503D02*
X032168Y012503D01*
X031668Y013003D01*
X029168Y013003D01*
X028168Y013003D02*
X027293Y013003D01*
X026668Y012378D01*
X022418Y012378D01*
X021668Y011628D01*
X022168Y011503D02*
X023168Y011503D01*
X023418Y011253D01*
X026793Y011253D01*
X027043Y011503D01*
X031668Y011503D01*
X032168Y011003D01*
X034168Y011003D01*
X034599Y010843D02*
X035502Y010843D01*
X035438Y010908D02*
X035438Y011098D01*
X035438Y012125D01*
X035238Y012325D01*
X035238Y012681D01*
X035489Y012933D01*
X035846Y012933D01*
X036098Y012681D01*
X036098Y012325D01*
X035898Y012125D01*
X035898Y011098D01*
X036263Y010733D01*
X036289Y010733D01*
X036489Y010933D01*
X036846Y010933D01*
X037098Y010681D01*
X037098Y010325D01*
X036846Y010073D01*
X036489Y010073D01*
X036289Y010273D01*
X036072Y010273D01*
X035938Y010408D01*
X035438Y010908D01*
X035438Y010962D02*
X034628Y010962D01*
X034628Y011080D02*
X035438Y011080D01*
X035438Y011199D02*
X034584Y011199D01*
X034504Y011317D02*
X035438Y011317D01*
X035438Y011436D02*
X034325Y011436D01*
X034286Y011554D02*
X035438Y011554D01*
X035438Y011673D02*
X034488Y011673D01*
X034578Y011791D02*
X035438Y011791D01*
X035438Y011910D02*
X034627Y011910D01*
X034628Y012028D02*
X035438Y012028D01*
X035416Y012147D02*
X034606Y012147D01*
X034556Y012266D02*
X035297Y012266D01*
X035238Y012384D02*
X034437Y012384D01*
X034436Y012621D02*
X035238Y012621D01*
X035238Y012503D02*
X033992Y012503D01*
X033898Y012384D02*
X033874Y012384D01*
X033779Y012266D02*
X033556Y012266D01*
X033606Y012147D02*
X033729Y012147D01*
X033708Y012028D02*
X033628Y012028D01*
X033627Y011910D02*
X033708Y011910D01*
X033631Y011791D02*
X033578Y011791D01*
X033668Y011503D02*
X034168Y012003D01*
X033668Y012503D02*
X034168Y013003D01*
X034489Y013332D02*
X036201Y013332D01*
X036201Y013214D02*
X034578Y013214D01*
X034627Y013095D02*
X036201Y013095D01*
X036201Y012977D02*
X034628Y012977D01*
X034605Y012858D02*
X035415Y012858D01*
X035296Y012740D02*
X034555Y012740D01*
X033846Y013332D02*
X033822Y013332D01*
X033757Y013214D02*
X033578Y013214D01*
X033668Y013503D02*
X032168Y013503D01*
X031668Y014003D01*
X029168Y014003D01*
X029668Y014503D02*
X027668Y014503D01*
X026418Y013253D01*
X020168Y013253D01*
X019668Y013753D01*
X019668Y014253D01*
X020122Y014044D02*
X020213Y014044D01*
X020168Y014162D02*
X020168Y014162D01*
X020168Y014281D02*
X020168Y014281D01*
X020148Y014399D02*
X020187Y014399D01*
X020236Y014518D02*
X020099Y014518D01*
X019991Y014636D02*
X020344Y014636D01*
X020991Y014636D02*
X021344Y014636D01*
X021236Y014518D02*
X021099Y014518D01*
X021148Y014399D02*
X021187Y014399D01*
X021168Y014281D02*
X021168Y014281D01*
X021168Y014162D02*
X021168Y014162D01*
X021122Y014044D02*
X021213Y014044D01*
X021288Y013925D02*
X021047Y013925D01*
X020896Y013807D02*
X021439Y013807D01*
X021896Y013807D02*
X022439Y013807D01*
X022288Y013925D02*
X022047Y013925D01*
X022122Y014044D02*
X022213Y014044D01*
X022168Y014162D02*
X022168Y014162D01*
X022168Y014281D02*
X022168Y014281D01*
X022148Y014399D02*
X022187Y014399D01*
X022236Y014518D02*
X022099Y014518D01*
X021991Y014636D02*
X022344Y014636D01*
X022991Y014636D02*
X023361Y014636D01*
X023348Y014627D02*
X023294Y014572D01*
X023248Y014510D01*
X023213Y014441D01*
X023190Y014368D01*
X023178Y014292D01*
X023178Y014282D01*
X023639Y014282D01*
X023639Y014743D01*
X023629Y014743D01*
X023553Y014731D01*
X023479Y014707D01*
X023411Y014672D01*
X023348Y014627D01*
X023254Y014518D02*
X023099Y014518D01*
X023148Y014399D02*
X023200Y014399D01*
X023168Y014281D02*
X023639Y014281D01*
X023639Y014282D02*
X023639Y014224D01*
X023696Y014224D01*
X023696Y013763D01*
X023706Y013763D01*
X023782Y013775D01*
X023856Y013799D01*
X023924Y013834D01*
X023987Y013879D01*
X024041Y013934D01*
X024087Y013996D01*
X024122Y014065D01*
X024145Y014138D01*
X024158Y014215D01*
X024158Y014224D01*
X023696Y014224D01*
X023696Y014282D01*
X023639Y014282D01*
X023696Y014282D02*
X023696Y014743D01*
X023706Y014743D01*
X023782Y014731D01*
X023856Y014707D01*
X023924Y014672D01*
X023987Y014627D01*
X024041Y014572D01*
X024087Y014510D01*
X024122Y014441D01*
X024145Y014368D01*
X024158Y014292D01*
X024158Y014282D01*
X023696Y014282D01*
X023696Y014281D02*
X025104Y014281D01*
X025104Y014399D02*
X024135Y014399D01*
X024081Y014518D02*
X025150Y014518D01*
X025200Y014636D02*
X023974Y014636D01*
X023696Y014636D02*
X023639Y014636D01*
X023639Y014518D02*
X023696Y014518D01*
X023696Y014399D02*
X023639Y014399D01*
X023639Y014224D02*
X023178Y014224D01*
X023178Y014215D01*
X023190Y014138D01*
X023213Y014065D01*
X023248Y013996D01*
X023294Y013934D01*
X023348Y013879D01*
X023411Y013834D01*
X023479Y013799D01*
X023553Y013775D01*
X023629Y013763D01*
X023639Y013763D01*
X023639Y014224D01*
X023639Y014162D02*
X023696Y014162D01*
X023696Y014044D02*
X023639Y014044D01*
X023639Y013925D02*
X023696Y013925D01*
X023696Y013807D02*
X023639Y013807D01*
X023465Y013807D02*
X022896Y013807D01*
X023047Y013925D02*
X023303Y013925D01*
X023224Y014044D02*
X023122Y014044D01*
X023168Y014162D02*
X023186Y014162D01*
X023870Y013807D02*
X025231Y013807D01*
X025177Y013925D02*
X024032Y013925D01*
X024111Y014044D02*
X025128Y014044D01*
X025104Y014162D02*
X024149Y014162D01*
X025286Y014755D02*
X015049Y014755D01*
X015136Y014636D02*
X016344Y014636D01*
X016384Y014677D02*
X016244Y014536D01*
X016168Y014353D01*
X016168Y014154D01*
X016244Y013970D01*
X016384Y013829D01*
X016438Y013807D01*
X016438Y010408D01*
X016572Y010273D01*
X017572Y009273D01*
X017763Y009273D01*
X018417Y009273D01*
X018355Y009212D01*
X018299Y009076D01*
X018299Y008930D01*
X018355Y008795D01*
X018417Y008733D01*
X017458Y008733D01*
X017376Y008815D01*
X017241Y008871D01*
X017094Y008871D01*
X016959Y008815D01*
X016855Y008712D01*
X016799Y008576D01*
X016799Y008430D01*
X016855Y008295D01*
X016959Y008191D01*
X017094Y008135D01*
X017241Y008135D01*
X017376Y008191D01*
X017458Y008273D01*
X020417Y008273D01*
X020355Y008212D01*
X020299Y008076D01*
X020299Y007930D01*
X020355Y007795D01*
X020417Y007733D01*
X016458Y007733D01*
X016376Y007815D01*
X016241Y007871D01*
X016094Y007871D01*
X015959Y007815D01*
X015855Y007712D01*
X015799Y007576D01*
X015799Y007430D01*
X015855Y007295D01*
X015959Y007191D01*
X016094Y007135D01*
X016241Y007135D01*
X016376Y007191D01*
X016458Y007273D01*
X027787Y007273D01*
X027778Y007264D01*
X027708Y007095D01*
X027708Y006912D01*
X027778Y006743D01*
X027787Y006733D01*
X016958Y006733D01*
X016876Y006815D01*
X016741Y006871D01*
X016594Y006871D01*
X016459Y006815D01*
X016355Y006712D01*
X016299Y006576D01*
X016299Y006430D01*
X016355Y006295D01*
X016459Y006191D01*
X016594Y006135D01*
X016741Y006135D01*
X016876Y006191D01*
X016958Y006273D01*
X027787Y006273D01*
X027778Y006264D01*
X027708Y006095D01*
X027708Y005912D01*
X027778Y005743D01*
X027787Y005733D01*
X022958Y005733D01*
X022876Y005815D01*
X022741Y005871D01*
X022594Y005871D01*
X022459Y005815D01*
X022355Y005712D01*
X022299Y005576D01*
X022299Y005430D01*
X022355Y005295D01*
X022459Y005191D01*
X022594Y005135D01*
X022741Y005135D01*
X022876Y005191D01*
X022958Y005273D01*
X027787Y005273D01*
X027778Y005264D01*
X027708Y005095D01*
X027708Y004912D01*
X027778Y004743D01*
X027907Y004613D01*
X028076Y004543D01*
X028259Y004543D01*
X028428Y004613D01*
X028557Y004743D01*
X028628Y004912D01*
X028628Y005095D01*
X028557Y005264D01*
X028548Y005273D01*
X029417Y005273D01*
X029377Y005233D01*
X029263Y005233D01*
X029072Y005233D01*
X028290Y004450D01*
X028259Y004463D01*
X028076Y004463D01*
X027907Y004393D01*
X027778Y004264D01*
X027708Y004095D01*
X027708Y003912D01*
X027778Y003743D01*
X027907Y003613D01*
X028076Y003543D01*
X028259Y003543D01*
X028428Y003613D01*
X028557Y003743D01*
X028628Y003912D01*
X028628Y004095D01*
X028615Y004125D01*
X029263Y004773D01*
X029377Y004773D01*
X029459Y004691D01*
X029594Y004635D01*
X029741Y004635D01*
X029876Y004691D01*
X029980Y004795D01*
X030036Y004930D01*
X030036Y005076D01*
X029980Y005212D01*
X029918Y005273D01*
X030572Y005273D01*
X031572Y004273D01*
X031763Y004273D01*
X031787Y004273D01*
X031778Y004264D01*
X031708Y004095D01*
X031708Y003912D01*
X031778Y003743D01*
X031907Y003613D01*
X032076Y003543D01*
X032259Y003543D01*
X032428Y003613D01*
X032557Y003743D01*
X032628Y003912D01*
X032628Y004095D01*
X032557Y004264D01*
X032548Y004273D01*
X032787Y004273D01*
X032778Y004264D01*
X032708Y004095D01*
X032708Y003912D01*
X032778Y003743D01*
X032907Y003613D01*
X033076Y003543D01*
X033259Y003543D01*
X033428Y003613D01*
X033557Y003743D01*
X033628Y003912D01*
X033628Y004095D01*
X033557Y004264D01*
X033548Y004273D01*
X033763Y004273D01*
X033898Y004408D01*
X034045Y004556D01*
X034076Y004543D01*
X034259Y004543D01*
X034428Y004613D01*
X034557Y004743D01*
X034628Y004912D01*
X034628Y005095D01*
X034557Y005264D01*
X034548Y005273D01*
X034603Y005153D02*
X039408Y005153D01*
X039408Y005034D02*
X034628Y005034D01*
X034628Y004916D02*
X039408Y004916D01*
X039408Y004797D02*
X034580Y004797D01*
X034494Y004679D02*
X039408Y004679D01*
X039408Y004560D02*
X034300Y004560D01*
X034259Y004463D02*
X034076Y004463D01*
X033907Y004393D01*
X033778Y004264D01*
X033708Y004095D01*
X033708Y003912D01*
X033778Y003743D01*
X033907Y003613D01*
X034076Y003543D01*
X034259Y003543D01*
X034428Y003613D01*
X034557Y003743D01*
X034628Y003912D01*
X034628Y004095D01*
X034557Y004264D01*
X034428Y004393D01*
X034259Y004463D01*
X034311Y004442D02*
X039408Y004442D01*
X039408Y004323D02*
X034498Y004323D01*
X034582Y004205D02*
X039408Y004205D01*
X039408Y004086D02*
X034628Y004086D01*
X034628Y003967D02*
X039408Y003967D01*
X039408Y003849D02*
X034602Y003849D01*
X034545Y003730D02*
X039408Y003730D01*
X039408Y003612D02*
X038246Y003612D01*
X038619Y003493D02*
X039408Y003493D01*
X039408Y003375D02*
X038825Y003375D01*
X038994Y003256D02*
X039408Y003256D01*
X039408Y003138D02*
X039104Y003138D01*
X039214Y003019D02*
X039408Y003019D01*
X039408Y002901D02*
X039307Y002901D01*
X039289Y002938D02*
X039289Y002938D01*
X039364Y002782D02*
X039408Y002782D01*
X037548Y003621D02*
X037548Y003621D01*
X037524Y003612D02*
X034425Y003612D01*
X033910Y003612D02*
X033425Y003612D01*
X033545Y003730D02*
X033790Y003730D01*
X033734Y003849D02*
X033602Y003849D01*
X033628Y003967D02*
X033708Y003967D01*
X033708Y004086D02*
X033628Y004086D01*
X033582Y004205D02*
X033753Y004205D01*
X033813Y004323D02*
X033837Y004323D01*
X033931Y004442D02*
X034024Y004442D01*
X033668Y004503D02*
X031668Y004503D01*
X030668Y005503D01*
X022668Y005503D01*
X022299Y005509D02*
X010398Y005509D01*
X010398Y005598D02*
X009898Y006098D01*
X009763Y006233D01*
X009046Y006233D01*
X008846Y006433D01*
X008489Y006433D01*
X008238Y006181D01*
X008238Y005825D01*
X008489Y005573D01*
X008846Y005573D01*
X009046Y005773D01*
X009572Y005773D01*
X009938Y005408D01*
X009938Y002131D01*
X009738Y001931D01*
X009738Y001575D01*
X009989Y001323D01*
X010346Y001323D01*
X010598Y001575D01*
X010598Y001931D01*
X010398Y002131D01*
X010398Y005408D01*
X010398Y005598D01*
X010369Y005627D02*
X012436Y005627D01*
X012317Y005746D02*
X010250Y005746D01*
X010132Y005864D02*
X011981Y005864D01*
X011863Y005983D02*
X010013Y005983D01*
X009895Y006101D02*
X011744Y006101D01*
X011626Y006220D02*
X009776Y006220D01*
X009668Y006003D02*
X008668Y006003D01*
X008238Y005983D02*
X008098Y005983D01*
X008098Y006101D02*
X008238Y006101D01*
X008276Y006220D02*
X008059Y006220D01*
X007940Y006338D02*
X008395Y006338D01*
X008940Y006338D02*
X011507Y006338D01*
X011438Y006457D02*
X004898Y006457D01*
X004898Y006575D02*
X011438Y006575D01*
X011438Y006694D02*
X004898Y006694D01*
X004898Y006813D02*
X011438Y006813D01*
X011438Y006931D02*
X004898Y006931D01*
X004898Y007050D02*
X011438Y007050D01*
X011438Y007168D02*
X004898Y007168D01*
X004898Y007287D02*
X011438Y007287D01*
X011438Y007405D02*
X004898Y007405D01*
X004898Y007524D02*
X011438Y007524D01*
X011438Y007642D02*
X004898Y007642D01*
X004898Y007761D02*
X011438Y007761D01*
X011438Y007879D02*
X004898Y007879D01*
X004898Y007998D02*
X011438Y007998D01*
X011438Y008116D02*
X004898Y008116D01*
X004898Y008235D02*
X011438Y008235D01*
X011438Y008354D02*
X004898Y008354D01*
X004898Y008472D02*
X011438Y008472D01*
X011438Y008591D02*
X004898Y008591D01*
X004898Y008709D02*
X011438Y008709D01*
X011438Y008828D02*
X004898Y008828D01*
X004898Y008946D02*
X011438Y008946D01*
X011438Y009065D02*
X004898Y009065D01*
X004898Y009183D02*
X011438Y009183D01*
X011438Y009302D02*
X004898Y009302D01*
X004898Y009420D02*
X011438Y009420D01*
X011438Y009539D02*
X004898Y009539D01*
X004898Y009658D02*
X011438Y009658D01*
X011438Y009776D02*
X004898Y009776D01*
X004898Y009895D02*
X011438Y009895D01*
X011438Y010013D02*
X004898Y010013D01*
X004864Y010132D02*
X011471Y010132D01*
X011589Y010250D02*
X004746Y010250D01*
X004627Y010369D02*
X011708Y010369D01*
X011827Y010487D02*
X004509Y010487D01*
X004419Y010577D02*
X004419Y010577D01*
X004390Y010606D02*
X011945Y010606D01*
X012112Y010724D02*
X004223Y010724D01*
X004112Y010843D02*
X012223Y010843D01*
X012169Y010962D02*
X004166Y010962D01*
X004246Y011080D02*
X012089Y011080D01*
X012048Y011199D02*
X004287Y011199D01*
X004287Y011317D02*
X012048Y011317D01*
X012080Y011436D02*
X004255Y011436D01*
X004188Y011554D02*
X012147Y011554D01*
X012248Y011673D02*
X004087Y011673D01*
X004208Y011791D02*
X012127Y011791D01*
X012072Y011910D02*
X004263Y011910D01*
X004287Y012028D02*
X012048Y012028D01*
X012049Y012147D02*
X004286Y012147D01*
X004237Y012266D02*
X012098Y012266D01*
X012190Y012384D02*
X004145Y012384D01*
X004132Y012503D02*
X012203Y012503D01*
X012103Y012621D02*
X010236Y012621D01*
X010354Y012740D02*
X012054Y012740D01*
X012048Y012858D02*
X010473Y012858D01*
X010591Y012977D02*
X012066Y012977D01*
X012115Y013095D02*
X010710Y013095D01*
X010828Y013214D02*
X012232Y013214D01*
X012161Y013332D02*
X010947Y013332D01*
X011066Y013451D02*
X012086Y013451D01*
X012048Y013569D02*
X011184Y013569D01*
X011303Y013688D02*
X012048Y013688D01*
X012084Y013807D02*
X011421Y013807D01*
X011540Y013925D02*
X012156Y013925D01*
X012237Y014044D02*
X011658Y014044D01*
X011777Y014162D02*
X012118Y014162D01*
X012068Y014281D02*
X011895Y014281D01*
X012014Y014399D02*
X012048Y014399D01*
X012488Y014873D02*
X013988Y014873D01*
X013869Y014755D02*
X012798Y014755D01*
X012895Y014636D02*
X013782Y014636D01*
X013733Y014518D02*
X012944Y014518D01*
X012948Y014399D02*
X013687Y014399D01*
X013687Y014281D02*
X012928Y014281D01*
X012878Y014162D02*
X013687Y014162D01*
X013710Y014044D02*
X012760Y014044D01*
X012841Y013925D02*
X013759Y013925D01*
X013814Y013807D02*
X012913Y013807D01*
X012948Y013688D02*
X013932Y013688D01*
X014092Y013569D02*
X012948Y013569D01*
X012911Y013451D02*
X016438Y013451D01*
X016438Y013569D02*
X014825Y013569D01*
X014985Y013688D02*
X016438Y013688D01*
X016438Y013807D02*
X015104Y013807D01*
X015158Y013925D02*
X016288Y013925D01*
X016213Y014044D02*
X015207Y014044D01*
X015231Y014162D02*
X016168Y014162D01*
X016168Y014281D02*
X015231Y014281D01*
X015231Y014399D02*
X016187Y014399D01*
X016236Y014518D02*
X015185Y014518D01*
X014930Y014873D02*
X025405Y014873D01*
X025643Y014992D02*
X014692Y014992D01*
X014226Y014992D02*
X012607Y014992D01*
X012543Y015253D02*
X027168Y015253D01*
X027418Y015003D01*
X028168Y015003D01*
X028628Y014992D02*
X032732Y014992D01*
X032732Y014916D02*
X032732Y015090D01*
X032798Y015250D01*
X032921Y015373D01*
X033081Y015439D01*
X033254Y015439D01*
X033414Y015373D01*
X033537Y015250D01*
X033603Y015090D01*
X033603Y014916D01*
X033537Y014756D01*
X033414Y014634D01*
X033254Y014567D01*
X033081Y014567D01*
X032921Y014634D01*
X032798Y014756D01*
X032732Y014916D01*
X032750Y014873D02*
X028612Y014873D01*
X028563Y014755D02*
X029399Y014755D01*
X029936Y014755D02*
X032800Y014755D01*
X032918Y014636D02*
X030011Y014636D01*
X030036Y014518D02*
X034299Y014518D01*
X034413Y014399D02*
X034418Y014399D01*
X034540Y014281D02*
X034551Y014281D01*
X034600Y014162D02*
X036155Y014162D01*
X036274Y014044D02*
X034628Y014044D01*
X034628Y013925D02*
X036392Y013925D01*
X036511Y013807D02*
X034584Y013807D01*
X034503Y013688D02*
X036395Y013688D01*
X036277Y013569D02*
X034323Y013569D01*
X034288Y013451D02*
X036225Y013451D01*
X036940Y013688D02*
X037424Y013688D01*
X037299Y013569D02*
X037058Y013569D01*
X037110Y013451D02*
X037236Y013451D01*
X037211Y013332D02*
X037134Y013332D01*
X037134Y013214D02*
X037211Y013214D01*
X037211Y013095D02*
X037134Y013095D01*
X037134Y012977D02*
X037629Y012977D01*
X037706Y012977D02*
X038418Y012977D01*
X038418Y013095D02*
X038124Y013095D01*
X038124Y013214D02*
X038418Y013214D01*
X038418Y013332D02*
X038124Y013332D01*
X038099Y013451D02*
X038366Y013451D01*
X038248Y013569D02*
X038036Y013569D01*
X038129Y013688D02*
X037911Y013688D01*
X038481Y014044D02*
X039408Y014044D01*
X039408Y014162D02*
X038362Y014162D01*
X038267Y014399D02*
X039408Y014399D01*
X039408Y014281D02*
X036743Y014281D01*
X036625Y014399D02*
X037511Y014399D01*
X037548Y014385D02*
X037548Y014385D01*
X037209Y014518D02*
X036506Y014518D01*
X036388Y014636D02*
X036999Y014636D01*
X037088Y014566D02*
X037088Y014566D01*
X036850Y014755D02*
X034769Y014755D01*
X034651Y014873D02*
X036701Y014873D01*
X036701Y014874D02*
X036701Y014874D01*
X036701Y014874D01*
X036620Y014992D02*
X034628Y014992D01*
X034621Y015111D02*
X036539Y015111D01*
X036459Y015229D02*
X034572Y015229D01*
X034474Y015348D02*
X036402Y015348D01*
X036365Y015466D02*
X027456Y015466D01*
X027398Y015348D02*
X027862Y015348D01*
X027976Y015585D02*
X027574Y015585D01*
X027693Y015703D02*
X027817Y015703D01*
X027668Y016003D02*
X027168Y015503D01*
X012418Y015503D01*
X010546Y013631D01*
X003837Y013631D01*
X003422Y013807D02*
X000928Y013807D01*
X000928Y013925D02*
X003495Y013925D01*
X003411Y014044D02*
X000928Y014044D01*
X000928Y014162D02*
X003387Y014162D01*
X003387Y014281D02*
X000928Y014281D01*
X000928Y014399D02*
X002011Y014399D01*
X002048Y014385D02*
X002048Y014385D01*
X001709Y014518D02*
X000928Y014518D01*
X000928Y014636D02*
X001499Y014636D01*
X001588Y014566D02*
X001588Y014566D01*
X001350Y014755D02*
X000928Y014755D01*
X000928Y014873D02*
X001201Y014873D01*
X001201Y014874D02*
X001201Y014874D01*
X001201Y014874D01*
X001120Y014992D02*
X000928Y014992D01*
X000928Y015111D02*
X001039Y015111D01*
X000959Y015229D02*
X000928Y015229D01*
X002542Y014348D02*
X002542Y014348D01*
X002767Y014399D02*
X003387Y014399D01*
X003387Y014518D02*
X003128Y014518D01*
X003024Y014458D02*
X003024Y014458D01*
X003333Y014636D02*
X003387Y014636D01*
X003608Y014873D02*
X011088Y014873D01*
X010969Y014755D02*
X004287Y014755D01*
X003789Y015068D02*
X003789Y015068D01*
X003810Y015111D02*
X011325Y015111D01*
X011443Y015229D02*
X003867Y015229D01*
X003924Y015348D02*
X011562Y015348D01*
X011680Y015466D02*
X003981Y015466D01*
X004004Y015514D02*
X004004Y015514D01*
X004014Y015585D02*
X011799Y015585D01*
X011856Y015703D02*
X011917Y015703D01*
X011479Y015703D02*
X004856Y015703D01*
X005133Y015822D02*
X011202Y015822D01*
X011083Y015940D02*
X005252Y015940D01*
X005361Y016059D02*
X010974Y016059D01*
X010924Y016177D02*
X005411Y016177D01*
X005460Y016296D02*
X010875Y016296D01*
X010856Y016415D02*
X005479Y016415D01*
X005479Y016533D02*
X010856Y016533D01*
X010856Y016652D02*
X005479Y016652D01*
X005435Y016770D02*
X010900Y016770D01*
X010949Y016889D02*
X005386Y016889D01*
X005311Y017007D02*
X011024Y017007D01*
X011143Y017126D02*
X005192Y017126D01*
X004998Y017244D02*
X011337Y017244D01*
X011998Y017244D02*
X017836Y017244D01*
X017842Y017250D02*
X017781Y017189D01*
X017728Y017121D01*
X017685Y017046D01*
X017651Y016966D01*
X017629Y016882D01*
X017620Y016813D01*
X018218Y016813D01*
X018218Y017411D01*
X018149Y017402D01*
X018065Y017379D01*
X017985Y017346D01*
X017910Y017303D01*
X017842Y017250D01*
X017732Y017126D02*
X012192Y017126D01*
X012311Y017007D02*
X017669Y017007D01*
X017631Y016889D02*
X012386Y016889D01*
X012435Y016770D02*
X018218Y016770D01*
X018218Y016813D02*
X018218Y016693D01*
X018338Y016693D01*
X018338Y016813D01*
X018936Y016813D01*
X018926Y016882D01*
X018904Y016966D01*
X018871Y017046D01*
X018828Y017121D01*
X018775Y017189D01*
X018714Y017250D01*
X018645Y017303D01*
X018570Y017346D01*
X018490Y017379D01*
X018407Y017402D01*
X018338Y017411D01*
X018338Y016813D01*
X018218Y016813D01*
X018218Y016889D02*
X018338Y016889D01*
X018338Y017007D02*
X018218Y017007D01*
X018218Y017126D02*
X018338Y017126D01*
X018338Y017244D02*
X018218Y017244D01*
X018218Y017363D02*
X018338Y017363D01*
X018530Y017363D02*
X021805Y017363D01*
X021997Y017363D02*
X022117Y017363D01*
X022117Y017411D02*
X022117Y016813D01*
X022715Y016813D01*
X022706Y016882D01*
X022684Y016966D01*
X022651Y017046D01*
X022607Y017121D01*
X022555Y017189D01*
X022493Y017250D01*
X022425Y017303D01*
X022350Y017346D01*
X022270Y017379D01*
X022186Y017402D01*
X022117Y017411D01*
X022117Y017244D02*
X021997Y017244D01*
X021997Y017126D02*
X022117Y017126D01*
X022117Y017007D02*
X021997Y017007D01*
X021997Y016889D02*
X022117Y016889D01*
X022117Y016770D02*
X027781Y016770D01*
X027732Y016889D02*
X022704Y016889D01*
X022666Y017007D02*
X028132Y017007D01*
X028132Y017038D02*
X027718Y017038D01*
X027718Y017039D01*
X027729Y017109D01*
X027751Y017176D01*
X027783Y017239D01*
X027824Y017296D01*
X027874Y017346D01*
X027932Y017388D01*
X027995Y017420D01*
X028062Y017442D01*
X028132Y017453D01*
X028132Y017453D01*
X028132Y017038D01*
X028203Y017007D02*
X032818Y017007D01*
X032700Y016889D02*
X028604Y016889D01*
X028618Y016968D02*
X028618Y016968D01*
X028601Y017126D02*
X032937Y017126D01*
X033097Y017244D02*
X028549Y017244D01*
X028438Y017363D02*
X033877Y017363D01*
X034458Y017363D02*
X036990Y017363D01*
X037088Y017441D02*
X037088Y017441D01*
X037191Y017481D02*
X003140Y017481D01*
X003345Y017363D02*
X018025Y017363D01*
X018720Y017244D02*
X021615Y017244D01*
X021511Y017126D02*
X021219Y017126D01*
X021337Y017007D02*
X021448Y017007D01*
X021410Y016889D02*
X021386Y016889D01*
X020691Y017126D02*
X020431Y017126D01*
X020549Y017007D02*
X020573Y017007D01*
X019904Y017126D02*
X019683Y017126D01*
X019156Y017126D02*
X018824Y017126D01*
X018887Y017007D02*
X019038Y017007D01*
X018989Y016889D02*
X018925Y016889D01*
X018970Y016770D02*
X018338Y016770D01*
X018338Y016693D02*
X018936Y016693D01*
X018926Y016624D01*
X018904Y016541D01*
X018871Y016461D01*
X018828Y016386D01*
X018775Y016317D01*
X018714Y016256D01*
X018645Y016203D01*
X018570Y016160D01*
X018490Y016127D01*
X018407Y016104D01*
X018338Y016095D01*
X018338Y016693D01*
X018338Y016652D02*
X018218Y016652D01*
X018218Y016693D02*
X018218Y016095D01*
X018149Y016104D01*
X018065Y016127D01*
X017985Y016160D01*
X017910Y016203D01*
X017842Y016256D01*
X017781Y016317D01*
X017728Y016386D01*
X017685Y016461D01*
X017651Y016541D01*
X017629Y016624D01*
X017620Y016693D01*
X018218Y016693D01*
X018218Y016533D02*
X018338Y016533D01*
X018338Y016415D02*
X018218Y016415D01*
X018218Y016296D02*
X018338Y016296D01*
X018338Y016177D02*
X018218Y016177D01*
X017955Y016177D02*
X016972Y016177D01*
X017016Y016059D02*
X020758Y016059D01*
X020705Y016177D02*
X018601Y016177D01*
X018754Y016296D02*
X020705Y016296D01*
X020657Y016415D02*
X020465Y016415D01*
X019870Y016415D02*
X019717Y016415D01*
X019122Y016415D02*
X018844Y016415D01*
X018901Y016533D02*
X019024Y016533D01*
X018974Y016652D02*
X018930Y016652D01*
X017802Y016296D02*
X016867Y016296D01*
X016668Y016003D02*
X012543Y016003D01*
X010958Y014419D01*
X003837Y014419D01*
X003719Y014992D02*
X011206Y014992D01*
X012543Y015253D02*
X010133Y012844D01*
X003837Y012844D01*
X003387Y012858D02*
X002944Y012858D01*
X003018Y012931D02*
X003018Y013108D01*
X002563Y013108D01*
X002563Y013148D01*
X003018Y013148D01*
X003018Y013325D01*
X002739Y013603D01*
X002563Y013603D01*
X002563Y013148D01*
X002522Y013148D01*
X002522Y013108D01*
X002068Y013108D01*
X002068Y012931D01*
X002346Y012653D01*
X002522Y012653D01*
X002522Y013108D01*
X002563Y013108D01*
X002563Y012653D01*
X002739Y012653D01*
X003018Y012931D01*
X003018Y012977D02*
X003405Y012977D01*
X003454Y013095D02*
X003018Y013095D01*
X003018Y013214D02*
X003571Y013214D01*
X003499Y013332D02*
X003010Y013332D01*
X002891Y013451D02*
X003424Y013451D01*
X003387Y013569D02*
X002773Y013569D01*
X002563Y013569D02*
X002522Y013569D01*
X002522Y013603D02*
X002346Y013603D01*
X002068Y013325D01*
X002068Y013148D01*
X002522Y013148D01*
X002522Y013603D01*
X002522Y013451D02*
X002563Y013451D01*
X002563Y013332D02*
X002522Y013332D01*
X002522Y013214D02*
X002563Y013214D01*
X002563Y013095D02*
X002522Y013095D01*
X002522Y012977D02*
X002563Y012977D01*
X002563Y012858D02*
X002522Y012858D01*
X002522Y012740D02*
X002563Y012740D01*
X002826Y012740D02*
X003393Y012740D01*
X003442Y012621D02*
X001773Y012621D01*
X001773Y012698D02*
X001817Y012717D01*
X001954Y012853D01*
X002028Y013032D01*
X002028Y013225D01*
X001954Y013403D01*
X001817Y013539D01*
X001639Y013613D01*
X001446Y013613D01*
X001268Y013539D01*
X001131Y013403D01*
X001058Y013225D01*
X001058Y013032D01*
X001131Y012853D01*
X001268Y012717D01*
X001313Y012698D01*
X001313Y012158D01*
X001439Y012032D01*
X001439Y011620D01*
X001390Y011572D01*
X001390Y010958D01*
X001490Y010859D01*
X001847Y010859D01*
X001870Y010881D01*
X001873Y010880D01*
X001913Y010869D01*
X002042Y010869D01*
X002042Y011265D01*
X002042Y011661D01*
X001913Y011661D01*
X001899Y011657D01*
X001899Y012032D01*
X001899Y012222D01*
X001773Y012348D01*
X001773Y012698D01*
X001840Y012740D02*
X002259Y012740D01*
X002141Y012858D02*
X001956Y012858D01*
X002005Y012977D02*
X002068Y012977D01*
X002068Y013095D02*
X002028Y013095D01*
X002028Y013214D02*
X002068Y013214D01*
X002075Y013332D02*
X001983Y013332D01*
X001906Y013451D02*
X002194Y013451D01*
X002312Y013569D02*
X001744Y013569D01*
X001341Y013569D02*
X000928Y013569D01*
X000928Y013451D02*
X001179Y013451D01*
X001102Y013332D02*
X000928Y013332D01*
X000928Y013214D02*
X001058Y013214D01*
X001058Y013095D02*
X000928Y013095D01*
X000928Y012977D02*
X001080Y012977D01*
X001129Y012858D02*
X000928Y012858D01*
X000928Y012740D02*
X001245Y012740D01*
X001313Y012621D02*
X000928Y012621D01*
X000928Y012503D02*
X001313Y012503D01*
X001313Y012384D02*
X000928Y012384D01*
X000928Y012266D02*
X001313Y012266D01*
X001323Y012147D02*
X000928Y012147D01*
X000928Y012028D02*
X001439Y012028D01*
X001439Y011910D02*
X000928Y011910D01*
X000928Y011791D02*
X001439Y011791D01*
X001439Y011673D02*
X000928Y011673D01*
X000928Y011554D02*
X001390Y011554D01*
X001390Y011436D02*
X000928Y011436D01*
X000928Y011317D02*
X001390Y011317D01*
X001390Y011199D02*
X000928Y011199D01*
X000928Y011080D02*
X001390Y011080D01*
X001390Y010962D02*
X000928Y010962D01*
X000928Y010843D02*
X002569Y010843D01*
X002569Y010859D02*
X002569Y010809D01*
X002622Y010681D01*
X002720Y010583D01*
X002848Y010530D01*
X002987Y010530D01*
X003115Y010583D01*
X003213Y010681D01*
X003266Y010809D01*
X003266Y010947D01*
X003213Y011076D01*
X003115Y011174D01*
X003042Y011204D01*
X002898Y011348D01*
X002763Y011483D01*
X002695Y011483D01*
X002695Y011572D01*
X002595Y011671D01*
X002238Y011671D01*
X002215Y011649D01*
X002213Y011650D01*
X002172Y011661D01*
X002043Y011661D01*
X002043Y011265D01*
X002042Y011265D01*
X002043Y011265D01*
X002043Y010869D01*
X002172Y010869D01*
X002213Y010880D01*
X002215Y010881D01*
X002238Y010859D01*
X002569Y010859D01*
X002604Y010724D02*
X000928Y010724D01*
X000928Y010606D02*
X001448Y010606D01*
X001390Y010487D02*
X000928Y010487D01*
X000928Y010369D02*
X001390Y010369D01*
X001390Y010250D02*
X000928Y010250D01*
X000928Y010132D02*
X001390Y010132D01*
X001390Y010013D02*
X000928Y010013D01*
X000928Y009895D02*
X001430Y009895D01*
X001439Y009776D02*
X000928Y009776D01*
X000928Y009658D02*
X001439Y009658D01*
X001439Y009539D02*
X000928Y009539D01*
X000928Y009420D02*
X001439Y009420D01*
X001439Y009302D02*
X000928Y009302D01*
X000928Y009183D02*
X001439Y009183D01*
X001439Y009065D02*
X000928Y009065D01*
X000928Y008946D02*
X001345Y008946D01*
X001181Y008828D02*
X000928Y008828D01*
X000928Y008709D02*
X001103Y008709D01*
X001058Y008591D02*
X000928Y008591D01*
X000928Y008472D02*
X001058Y008472D01*
X001080Y008354D02*
X000928Y008354D01*
X000928Y008235D02*
X001129Y008235D01*
X001243Y008116D02*
X000928Y008116D01*
X000928Y007998D02*
X001313Y007998D01*
X001313Y007879D02*
X000928Y007879D01*
X000928Y007761D02*
X001313Y007761D01*
X001313Y007642D02*
X000928Y007642D01*
X000928Y007524D02*
X001313Y007524D01*
X001313Y007405D02*
X000928Y007405D01*
X000928Y007287D02*
X001313Y007287D01*
X001313Y007168D02*
X000928Y007168D01*
X000928Y007050D02*
X001421Y007050D01*
X001539Y006931D02*
X000928Y006931D01*
X000928Y006813D02*
X001658Y006813D01*
X001776Y006694D02*
X000928Y006694D01*
X000928Y006575D02*
X001813Y006575D01*
X001813Y006457D02*
X000928Y006457D01*
X000928Y006338D02*
X001284Y006338D01*
X001369Y006423D02*
X001123Y006177D01*
X001123Y006023D01*
X001522Y006023D01*
X001522Y006423D01*
X001369Y006423D01*
X001522Y006338D02*
X001563Y006338D01*
X001563Y006220D02*
X001522Y006220D01*
X001522Y006101D02*
X001563Y006101D01*
X001563Y005983D02*
X001522Y005983D01*
X001522Y005864D02*
X001563Y005864D01*
X001563Y005746D02*
X001522Y005746D01*
X001522Y005627D02*
X001563Y005627D01*
X001760Y005627D02*
X001813Y005627D01*
X001813Y005509D02*
X000928Y005509D01*
X000928Y005627D02*
X001325Y005627D01*
X001206Y005746D02*
X000928Y005746D01*
X000928Y005864D02*
X001123Y005864D01*
X001123Y005983D02*
X000928Y005983D01*
X000928Y006101D02*
X001123Y006101D01*
X001165Y006220D02*
X000928Y006220D01*
X001801Y006338D02*
X001813Y006338D01*
X002043Y006753D02*
X002043Y005128D01*
X004293Y002878D01*
X004293Y001503D01*
X005168Y000628D01*
X033793Y000628D01*
X034168Y001003D01*
X034168Y001753D01*
X034598Y001715D02*
X034738Y001715D01*
X034738Y001597D02*
X034598Y001597D01*
X034738Y001575D02*
X034738Y001931D01*
X034989Y002183D01*
X035346Y002183D01*
X035598Y001931D01*
X035598Y001575D01*
X035346Y001323D01*
X034989Y001323D01*
X034738Y001575D01*
X034835Y001478D02*
X034501Y001478D01*
X034398Y001360D02*
X034953Y001360D01*
X035382Y001360D02*
X036398Y001360D01*
X036362Y001478D02*
X035501Y001478D01*
X035598Y001597D02*
X036325Y001597D01*
X036289Y001715D02*
X035598Y001715D01*
X035598Y001834D02*
X036276Y001834D01*
X036276Y001952D02*
X035576Y001952D01*
X035458Y002071D02*
X036276Y002071D01*
X036276Y002189D02*
X026518Y002189D01*
X026531Y002202D02*
X026648Y002485D01*
X026648Y002792D01*
X026531Y003076D01*
X026313Y003293D01*
X026030Y003411D01*
X025723Y003411D01*
X025439Y003293D01*
X025222Y003076D01*
X025104Y002792D01*
X025104Y002485D01*
X025222Y002202D01*
X025439Y001985D01*
X025723Y001867D01*
X026030Y001867D01*
X026313Y001985D01*
X026531Y002202D01*
X026574Y002308D02*
X036294Y002308D01*
X036330Y002426D02*
X026624Y002426D01*
X026648Y002545D02*
X036367Y002545D01*
X036404Y002664D02*
X026648Y002664D01*
X026648Y002782D02*
X036462Y002782D01*
X036422Y002723D02*
X036422Y002723D01*
X036543Y002901D02*
X026603Y002901D01*
X026554Y003019D02*
X036624Y003019D01*
X036701Y003132D02*
X036701Y003132D01*
X036701Y003132D01*
X036708Y003138D02*
X026469Y003138D01*
X026350Y003256D02*
X036856Y003256D01*
X037005Y003375D02*
X026117Y003375D01*
X025636Y003375D02*
X024440Y003375D01*
X024358Y003293D02*
X024628Y003563D01*
X024628Y003713D01*
X024208Y003713D01*
X024208Y003793D01*
X024628Y003793D01*
X024628Y003944D01*
X024358Y004213D01*
X024208Y004213D01*
X024208Y003793D01*
X024127Y003793D01*
X024127Y003713D01*
X023708Y003713D01*
X023708Y003563D01*
X023977Y003293D01*
X024127Y003293D01*
X024127Y003713D01*
X024208Y003713D01*
X024208Y003293D01*
X024358Y003293D01*
X024208Y003375D02*
X024127Y003375D01*
X024127Y003493D02*
X024208Y003493D01*
X024208Y003612D02*
X024127Y003612D01*
X024127Y003730D02*
X023638Y003730D01*
X023708Y003793D02*
X024127Y003793D01*
X024127Y004213D01*
X023977Y004213D01*
X023708Y003944D01*
X023708Y003793D01*
X023708Y003849D02*
X023638Y003849D01*
X023638Y003948D02*
X023638Y003558D01*
X023362Y003283D01*
X022973Y003283D01*
X022698Y003558D01*
X022698Y003948D01*
X022973Y004223D01*
X023362Y004223D01*
X023638Y003948D01*
X023618Y003967D02*
X023731Y003967D01*
X023850Y004086D02*
X023499Y004086D01*
X023381Y004205D02*
X023968Y004205D01*
X023973Y004283D02*
X024362Y004283D01*
X024638Y004558D01*
X024638Y004948D01*
X024362Y005223D01*
X023973Y005223D01*
X023698Y004948D01*
X023698Y004558D01*
X023973Y004283D01*
X023933Y004323D02*
X023402Y004323D01*
X023362Y004283D02*
X023638Y004558D01*
X023638Y004948D01*
X023362Y005223D01*
X022973Y005223D01*
X022698Y004948D01*
X022698Y004558D01*
X022973Y004283D01*
X023362Y004283D01*
X023521Y004442D02*
X023814Y004442D01*
X023698Y004560D02*
X023638Y004560D01*
X023638Y004679D02*
X023698Y004679D01*
X023698Y004797D02*
X023638Y004797D01*
X023638Y004916D02*
X023698Y004916D01*
X023784Y005034D02*
X023551Y005034D01*
X023432Y005153D02*
X023903Y005153D01*
X024432Y005153D02*
X027732Y005153D01*
X027708Y005034D02*
X024551Y005034D01*
X024638Y004916D02*
X027708Y004916D01*
X027755Y004797D02*
X024638Y004797D01*
X024638Y004679D02*
X027841Y004679D01*
X028035Y004560D02*
X024638Y004560D01*
X024521Y004442D02*
X028024Y004442D01*
X027837Y004323D02*
X024402Y004323D01*
X024367Y004205D02*
X027753Y004205D01*
X027708Y004086D02*
X024485Y004086D01*
X024604Y003967D02*
X027708Y003967D01*
X027734Y003849D02*
X024628Y003849D01*
X024628Y003612D02*
X027910Y003612D01*
X027790Y003730D02*
X024208Y003730D01*
X024208Y003849D02*
X024127Y003849D01*
X024127Y003967D02*
X024208Y003967D01*
X024208Y004086D02*
X024127Y004086D01*
X024127Y004205D02*
X024208Y004205D01*
X023708Y003612D02*
X023638Y003612D01*
X023572Y003493D02*
X023777Y003493D01*
X023895Y003375D02*
X023454Y003375D01*
X022881Y003375D02*
X022454Y003375D01*
X022362Y003283D02*
X021973Y003283D01*
X021698Y003558D01*
X021698Y003948D01*
X021973Y004223D01*
X022362Y004223D01*
X022638Y003948D01*
X022638Y003558D01*
X022362Y003283D01*
X022413Y003013D02*
X022222Y003013D01*
X021732Y003013D01*
X021598Y002878D01*
X021598Y002688D01*
X021732Y002553D01*
X021872Y002553D01*
X021612Y002293D01*
X021530Y002293D01*
X021530Y002871D01*
X021530Y002878D01*
X021395Y003013D01*
X021205Y003013D01*
X020964Y002772D01*
X020858Y002878D01*
X020723Y003013D01*
X020483Y003013D01*
X020292Y003013D01*
X020118Y002838D01*
X019933Y003023D01*
X019742Y003023D01*
X019502Y003023D01*
X019368Y002888D01*
X019288Y002808D01*
X019063Y003033D01*
X018872Y003033D01*
X018703Y003033D01*
X018333Y003033D01*
X018142Y003033D01*
X018022Y002913D01*
X017888Y002778D01*
X017888Y002528D01*
X017888Y002338D01*
X017977Y002249D01*
X017886Y002154D01*
X017890Y001963D01*
X018027Y001831D01*
X018217Y001835D01*
X018378Y002002D01*
X018378Y001968D01*
X018512Y001833D01*
X018703Y001833D01*
X018823Y001833D01*
X018888Y001833D01*
X018892Y001830D01*
X018982Y001833D01*
X019073Y001833D01*
X019077Y001837D01*
X019082Y001837D01*
X019144Y001904D01*
X019208Y001968D01*
X019208Y001973D01*
X019237Y002005D01*
X019237Y001970D01*
X019238Y001969D01*
X019238Y001968D01*
X019302Y001903D01*
X019370Y001834D01*
X019371Y001834D01*
X019372Y001833D01*
X019465Y001833D01*
X019560Y001832D01*
X019561Y001833D01*
X020053Y001833D01*
X020173Y001953D01*
X020292Y001833D01*
X020532Y001833D01*
X020723Y001833D01*
X020841Y001952D01*
X020960Y001833D01*
X021635Y001833D01*
X021684Y001882D01*
X021732Y001833D01*
X021923Y001833D01*
X022058Y001968D01*
X022058Y002088D01*
X022413Y002443D01*
X022548Y002578D01*
X022548Y002878D01*
X022413Y003013D01*
X022525Y002901D02*
X025149Y002901D01*
X025104Y002782D02*
X022548Y002782D01*
X022548Y002664D02*
X025104Y002664D01*
X025104Y002545D02*
X022515Y002545D01*
X022396Y002426D02*
X025129Y002426D01*
X025178Y002308D02*
X022278Y002308D01*
X022159Y002189D02*
X025234Y002189D01*
X025353Y002071D02*
X022058Y002071D01*
X022042Y001952D02*
X025517Y001952D01*
X026235Y001952D02*
X028759Y001952D01*
X028738Y001834D02*
X021923Y001834D01*
X021732Y001834D02*
X021636Y001834D01*
X021540Y002063D02*
X021055Y002063D01*
X021300Y002071D02*
X021300Y002776D01*
X021300Y002783D02*
X021058Y002541D01*
X020748Y002663D02*
X020748Y002183D01*
X020628Y002063D01*
X020388Y002063D01*
X020268Y002183D01*
X020738Y002663D01*
X020748Y002663D02*
X020628Y002783D01*
X020388Y002783D01*
X020268Y002663D01*
X020268Y002183D01*
X019958Y002063D02*
X019468Y002063D01*
X019958Y002543D01*
X019958Y002663D01*
X019958Y002673D02*
X019838Y002793D01*
X019598Y002793D01*
X019468Y002663D01*
X019380Y002901D02*
X019195Y002901D01*
X019077Y003019D02*
X019498Y003019D01*
X019362Y003283D02*
X018973Y003283D01*
X018698Y003558D01*
X018698Y003948D01*
X018973Y004223D01*
X019362Y004223D01*
X019638Y003948D01*
X019638Y003558D01*
X019362Y003283D01*
X019454Y003375D02*
X019881Y003375D01*
X019973Y003283D02*
X019698Y003558D01*
X019698Y003948D01*
X019973Y004223D01*
X020362Y004223D01*
X020638Y003948D01*
X020638Y003558D01*
X020362Y003283D01*
X019973Y003283D01*
X019937Y003019D02*
X025198Y003019D01*
X025283Y003138D02*
X015052Y003138D01*
X015113Y003076D02*
X014896Y003293D01*
X014612Y003411D01*
X014305Y003411D01*
X014022Y003293D01*
X013805Y003076D01*
X013687Y002792D01*
X013687Y002485D01*
X013805Y002202D01*
X014022Y001985D01*
X014305Y001867D01*
X014612Y001867D01*
X014896Y001985D01*
X015113Y002202D01*
X015231Y002485D01*
X015231Y002792D01*
X015113Y003076D01*
X015137Y003019D02*
X018128Y003019D01*
X018010Y002901D02*
X015186Y002901D01*
X015231Y002782D02*
X017891Y002782D01*
X017888Y002664D02*
X015231Y002664D01*
X015231Y002545D02*
X017888Y002545D01*
X017888Y002426D02*
X015206Y002426D01*
X015157Y002308D02*
X017918Y002308D01*
X017920Y002189D02*
X015101Y002189D01*
X014982Y002071D02*
X017887Y002071D01*
X017901Y001952D02*
X014818Y001952D01*
X014100Y001952D02*
X012898Y001952D01*
X012898Y001834D02*
X018024Y001834D01*
X018146Y001834D02*
X018512Y001834D01*
X018393Y001952D02*
X018330Y001952D01*
X018118Y002063D02*
X018358Y002313D01*
X018608Y002313D01*
X018608Y002683D01*
X018608Y002803D01*
X018238Y002803D01*
X018118Y002683D01*
X018118Y002433D01*
X018238Y002313D01*
X018358Y002313D01*
X018608Y002313D02*
X018608Y002183D01*
X018608Y002063D01*
X018728Y002063D02*
X018608Y002183D01*
X018728Y002063D02*
X018978Y002063D01*
X019098Y002193D01*
X019098Y002433D01*
X018848Y002433D01*
X019088Y002683D02*
X018968Y002803D01*
X018728Y002803D01*
X018608Y002683D01*
X018362Y003283D02*
X017973Y003283D01*
X017698Y003558D01*
X017698Y003948D01*
X017973Y004223D01*
X018362Y004223D01*
X018638Y003948D01*
X018638Y003558D01*
X018362Y003283D01*
X018454Y003375D02*
X018881Y003375D01*
X018763Y003493D02*
X018572Y003493D01*
X018638Y003612D02*
X018698Y003612D01*
X018698Y003730D02*
X018638Y003730D01*
X018638Y003849D02*
X018698Y003849D01*
X018717Y003967D02*
X018618Y003967D01*
X018499Y004086D02*
X018836Y004086D01*
X018954Y004205D02*
X018381Y004205D01*
X018362Y004283D02*
X018638Y004558D01*
X018638Y004948D01*
X018362Y005223D01*
X017973Y005223D01*
X017698Y004948D01*
X017698Y004558D01*
X017973Y004283D01*
X018362Y004283D01*
X018402Y004323D02*
X018933Y004323D01*
X018973Y004283D02*
X018698Y004558D01*
X018698Y004948D01*
X018973Y005223D01*
X019362Y005223D01*
X019638Y004948D01*
X019638Y004558D01*
X019362Y004283D01*
X018973Y004283D01*
X018814Y004442D02*
X018521Y004442D01*
X018638Y004560D02*
X018698Y004560D01*
X018698Y004679D02*
X018638Y004679D01*
X018638Y004797D02*
X018698Y004797D01*
X018698Y004916D02*
X018638Y004916D01*
X018551Y005034D02*
X018784Y005034D01*
X018903Y005153D02*
X018432Y005153D01*
X017903Y005153D02*
X017432Y005153D01*
X017362Y005223D02*
X016973Y005223D01*
X016698Y004948D01*
X016698Y004558D01*
X016973Y004283D01*
X017362Y004283D01*
X017638Y004558D01*
X017638Y004948D01*
X017362Y005223D01*
X017551Y005034D02*
X017784Y005034D01*
X017698Y004916D02*
X017638Y004916D01*
X017638Y004797D02*
X017698Y004797D01*
X017698Y004679D02*
X017638Y004679D01*
X017638Y004560D02*
X017698Y004560D01*
X017814Y004442D02*
X017521Y004442D01*
X017402Y004323D02*
X017933Y004323D01*
X017954Y004205D02*
X017381Y004205D01*
X017362Y004223D02*
X016973Y004223D01*
X016698Y003948D01*
X016698Y003558D01*
X016973Y003283D01*
X017362Y003283D01*
X017638Y003558D01*
X017638Y003948D01*
X017362Y004223D01*
X017499Y004086D02*
X017836Y004086D01*
X017717Y003967D02*
X017618Y003967D01*
X017638Y003849D02*
X017698Y003849D01*
X017698Y003730D02*
X017638Y003730D01*
X017638Y003612D02*
X017698Y003612D01*
X017763Y003493D02*
X017572Y003493D01*
X017454Y003375D02*
X017881Y003375D01*
X016881Y003375D02*
X016454Y003375D01*
X016362Y003283D02*
X015973Y003283D01*
X015698Y003558D01*
X015698Y003948D01*
X015973Y004223D01*
X016362Y004223D01*
X016638Y003948D01*
X016638Y003558D01*
X016362Y003283D01*
X016572Y003493D02*
X016763Y003493D01*
X016698Y003612D02*
X016638Y003612D01*
X016638Y003730D02*
X016698Y003730D01*
X016698Y003849D02*
X016638Y003849D01*
X016618Y003967D02*
X016717Y003967D01*
X016836Y004086D02*
X016499Y004086D01*
X016381Y004205D02*
X016954Y004205D01*
X016933Y004323D02*
X016402Y004323D01*
X016362Y004283D02*
X015973Y004283D01*
X015698Y004558D01*
X015698Y004948D01*
X015973Y005223D01*
X016362Y005223D01*
X016638Y004948D01*
X016638Y004558D01*
X016362Y004283D01*
X016521Y004442D02*
X016814Y004442D01*
X016698Y004560D02*
X016638Y004560D01*
X016638Y004679D02*
X016698Y004679D01*
X016698Y004797D02*
X016638Y004797D01*
X016638Y004916D02*
X016698Y004916D01*
X016784Y005034D02*
X016551Y005034D01*
X016432Y005153D02*
X016903Y005153D01*
X015903Y005153D02*
X015280Y005153D01*
X015272Y005165D02*
X015223Y005214D01*
X015167Y005254D01*
X015105Y005286D01*
X015039Y005307D01*
X014971Y005318D01*
X014955Y005318D01*
X014955Y004897D01*
X014917Y004897D01*
X014917Y005318D01*
X014902Y005318D01*
X014833Y005307D01*
X014767Y005286D01*
X014706Y005254D01*
X014650Y005214D01*
X014601Y005165D01*
X014560Y005109D01*
X014549Y005088D01*
X014530Y005133D01*
X014404Y005260D01*
X014238Y005328D01*
X014059Y005328D01*
X013894Y005260D01*
X013767Y005133D01*
X013699Y004968D01*
X013699Y004789D01*
X013767Y004623D01*
X013894Y004497D01*
X014059Y004428D01*
X014238Y004428D01*
X014404Y004497D01*
X014530Y004623D01*
X014549Y004669D01*
X014560Y004648D01*
X014601Y004591D01*
X014650Y004543D01*
X014706Y004502D01*
X014767Y004470D01*
X014833Y004449D01*
X014902Y004438D01*
X014917Y004438D01*
X014917Y004859D01*
X014955Y004859D01*
X014955Y004438D01*
X014971Y004438D01*
X015039Y004449D01*
X015105Y004470D01*
X015167Y004502D01*
X015223Y004543D01*
X015272Y004591D01*
X015313Y004648D01*
X015344Y004709D01*
X015365Y004775D01*
X015376Y004844D01*
X015376Y004859D01*
X014955Y004859D01*
X014955Y004897D01*
X015376Y004897D01*
X015376Y004913D01*
X015365Y004981D01*
X015344Y005047D01*
X015313Y005109D01*
X015272Y005165D01*
X015348Y005034D02*
X015784Y005034D01*
X015698Y004916D02*
X015376Y004916D01*
X015369Y004797D02*
X015698Y004797D01*
X015698Y004679D02*
X015328Y004679D01*
X015241Y004560D02*
X015698Y004560D01*
X015814Y004442D02*
X014993Y004442D01*
X014955Y004442D02*
X014917Y004442D01*
X014879Y004442D02*
X014271Y004442D01*
X014467Y004560D02*
X014632Y004560D01*
X014917Y004560D02*
X014955Y004560D01*
X014955Y004679D02*
X014917Y004679D01*
X014917Y004797D02*
X014955Y004797D01*
X014955Y004916D02*
X014917Y004916D01*
X014917Y005034D02*
X014955Y005034D01*
X014955Y005153D02*
X014917Y005153D01*
X014917Y005271D02*
X014955Y005271D01*
X015133Y005271D02*
X022379Y005271D01*
X022362Y005223D02*
X021973Y005223D01*
X021698Y004948D01*
X021698Y004558D01*
X021973Y004283D01*
X022362Y004283D01*
X022638Y004558D01*
X022638Y004948D01*
X022362Y005223D01*
X022432Y005153D02*
X022551Y005153D01*
X022551Y005034D02*
X022784Y005034D01*
X022784Y005153D02*
X022903Y005153D01*
X022956Y005271D02*
X027785Y005271D01*
X028550Y005271D02*
X029415Y005271D01*
X029168Y005003D02*
X028168Y004003D01*
X028602Y003849D02*
X028734Y003849D01*
X028708Y003912D02*
X028778Y003743D01*
X028907Y003613D01*
X029076Y003543D01*
X029259Y003543D01*
X029428Y003613D01*
X029557Y003743D01*
X029628Y003912D01*
X029628Y004095D01*
X029557Y004264D01*
X029428Y004393D01*
X029259Y004463D01*
X029076Y004463D01*
X028907Y004393D01*
X028778Y004264D01*
X028708Y004095D01*
X028708Y003912D01*
X028708Y003967D02*
X028628Y003967D01*
X028628Y004086D02*
X028708Y004086D01*
X028694Y004205D02*
X028753Y004205D01*
X028813Y004323D02*
X028837Y004323D01*
X028931Y004442D02*
X029024Y004442D01*
X029050Y004560D02*
X031285Y004560D01*
X031273Y004442D02*
X031203Y004453D01*
X031203Y004453D01*
X031203Y004038D01*
X031618Y004038D01*
X031618Y004039D01*
X031606Y004109D01*
X031585Y004176D01*
X031552Y004239D01*
X031511Y004296D01*
X031461Y004346D01*
X031403Y004388D01*
X031340Y004420D01*
X031273Y004442D01*
X031274Y004442D02*
X031404Y004442D01*
X031484Y004323D02*
X031522Y004323D01*
X031570Y004205D02*
X031753Y004205D01*
X031708Y004086D02*
X031610Y004086D01*
X031618Y003968D02*
X031203Y003968D01*
X031203Y004038D01*
X031132Y004038D01*
X031132Y003968D01*
X030718Y003968D01*
X030718Y003968D01*
X030729Y003898D01*
X030751Y003830D01*
X030783Y003767D01*
X030824Y003710D01*
X030874Y003660D01*
X030932Y003618D01*
X030995Y003586D01*
X031062Y003564D01*
X031132Y003553D01*
X031132Y003553D01*
X031132Y003968D01*
X031203Y003968D01*
X031203Y003553D01*
X031273Y003564D01*
X031340Y003586D01*
X031403Y003618D01*
X031461Y003660D01*
X031511Y003710D01*
X031552Y003767D01*
X031585Y003830D01*
X031606Y003898D01*
X031618Y003968D01*
X031618Y003968D01*
X031617Y003967D02*
X031708Y003967D01*
X031734Y003849D02*
X031591Y003849D01*
X031526Y003730D02*
X031790Y003730D01*
X031910Y003612D02*
X031391Y003612D01*
X031203Y003612D02*
X031132Y003612D01*
X031203Y003553D02*
X031203Y003553D01*
X031203Y003730D02*
X031132Y003730D01*
X031132Y003849D02*
X031203Y003849D01*
X031203Y003967D02*
X031132Y003967D01*
X031132Y004038D02*
X030718Y004038D01*
X030718Y004039D01*
X030729Y004109D01*
X030751Y004176D01*
X030783Y004239D01*
X030824Y004296D01*
X030874Y004346D01*
X030932Y004388D01*
X030995Y004420D01*
X031062Y004442D01*
X031132Y004453D01*
X031132Y004453D01*
X031132Y004038D01*
X031132Y004086D02*
X031203Y004086D01*
X031203Y004205D02*
X031132Y004205D01*
X031132Y004323D02*
X031203Y004323D01*
X031203Y004442D02*
X031132Y004442D01*
X031061Y004442D02*
X030311Y004442D01*
X030259Y004463D02*
X030076Y004463D01*
X029907Y004393D01*
X029778Y004264D01*
X029708Y004095D01*
X029708Y003912D01*
X029778Y003743D01*
X029907Y003613D01*
X030076Y003543D01*
X030259Y003543D01*
X030428Y003613D01*
X030557Y003743D01*
X030628Y003912D01*
X030628Y004095D01*
X030557Y004264D01*
X030428Y004393D01*
X030259Y004463D01*
X030024Y004442D02*
X029311Y004442D01*
X029498Y004323D02*
X029837Y004323D01*
X029753Y004205D02*
X029582Y004205D01*
X029628Y004086D02*
X029708Y004086D01*
X029708Y003967D02*
X029628Y003967D01*
X029602Y003849D02*
X029734Y003849D01*
X029790Y003730D02*
X029545Y003730D01*
X029425Y003612D02*
X029910Y003612D01*
X030425Y003612D02*
X030944Y003612D01*
X030809Y003730D02*
X030545Y003730D01*
X030602Y003849D02*
X030744Y003849D01*
X030718Y003967D02*
X030628Y003967D01*
X030628Y004086D02*
X030725Y004086D01*
X030765Y004205D02*
X030582Y004205D01*
X030498Y004323D02*
X030851Y004323D01*
X031167Y004679D02*
X029846Y004679D01*
X029981Y004797D02*
X031048Y004797D01*
X030930Y004916D02*
X030030Y004916D01*
X030036Y005034D02*
X030811Y005034D01*
X030693Y005153D02*
X030004Y005153D01*
X029920Y005271D02*
X030574Y005271D01*
X029668Y005003D02*
X029168Y005003D01*
X028992Y005153D02*
X028603Y005153D01*
X028628Y005034D02*
X028874Y005034D01*
X028755Y004916D02*
X028628Y004916D01*
X028636Y004797D02*
X028580Y004797D01*
X028518Y004679D02*
X028494Y004679D01*
X028399Y004560D02*
X028300Y004560D01*
X029168Y004679D02*
X029489Y004679D01*
X028790Y003730D02*
X028545Y003730D01*
X028425Y003612D02*
X028910Y003612D01*
X029994Y002173D02*
X029748Y001927D01*
X029748Y001773D01*
X030147Y001773D01*
X030147Y001733D01*
X029748Y001733D01*
X029748Y001579D01*
X029994Y001333D01*
X030147Y001333D01*
X030147Y001733D01*
X030188Y001733D01*
X030188Y001773D01*
X030588Y001773D01*
X030588Y001927D01*
X030341Y002173D01*
X030188Y002173D01*
X030188Y001773D01*
X030147Y001773D01*
X030147Y002173D01*
X029994Y002173D01*
X029891Y002071D02*
X029458Y002071D01*
X029576Y001952D02*
X029773Y001952D01*
X029748Y001834D02*
X029598Y001834D01*
X029598Y001715D02*
X029748Y001715D01*
X029748Y001597D02*
X029598Y001597D01*
X029501Y001478D02*
X029849Y001478D01*
X029967Y001360D02*
X029382Y001360D01*
X028981Y001241D02*
X032788Y001241D01*
X032715Y001122D02*
X028862Y001122D01*
X028543Y001128D02*
X029168Y001753D01*
X028738Y001715D02*
X012898Y001715D01*
X012898Y001597D02*
X028686Y001597D01*
X028567Y001478D02*
X012898Y001478D01*
X013011Y001360D02*
X028449Y001360D01*
X028543Y001128D02*
X012918Y001128D01*
X012668Y001378D01*
X012668Y004878D01*
X012958Y004560D02*
X013830Y004560D01*
X013744Y004679D02*
X013076Y004679D01*
X013098Y004797D02*
X013699Y004797D01*
X013699Y004916D02*
X013098Y004916D01*
X013098Y005034D02*
X013727Y005034D01*
X013787Y005153D02*
X013001Y005153D01*
X012882Y005271D02*
X013923Y005271D01*
X014375Y005271D02*
X014739Y005271D01*
X014592Y005153D02*
X014510Y005153D01*
X013098Y005864D02*
X022577Y005864D01*
X022758Y005864D02*
X027727Y005864D01*
X027708Y005983D02*
X013098Y005983D01*
X013098Y006101D02*
X027710Y006101D01*
X027759Y006220D02*
X016905Y006220D01*
X016430Y006220D02*
X013059Y006220D01*
X012940Y006338D02*
X016337Y006338D01*
X016299Y006457D02*
X012039Y006457D01*
X011920Y006575D02*
X016299Y006575D01*
X016348Y006694D02*
X011898Y006694D01*
X011898Y006813D02*
X016456Y006813D01*
X016668Y006503D02*
X031668Y006503D01*
X032168Y006003D01*
X034168Y006003D01*
X034628Y005983D02*
X035513Y005983D01*
X035513Y006101D02*
X034625Y006101D01*
X034576Y006220D02*
X035548Y006220D01*
X035597Y006338D02*
X034483Y006338D01*
X034274Y006457D02*
X035690Y006457D01*
X035814Y006575D02*
X034337Y006575D01*
X034509Y006694D02*
X035953Y006694D01*
X035953Y006813D02*
X034586Y006813D01*
X034628Y006931D02*
X035953Y006931D01*
X035953Y007050D02*
X034628Y007050D01*
X034597Y007168D02*
X035953Y007168D01*
X035953Y007287D02*
X034534Y007287D01*
X034399Y007405D02*
X035953Y007405D01*
X035953Y007524D02*
X031972Y007524D01*
X031854Y007642D02*
X033878Y007642D01*
X033770Y007761D02*
X028565Y007761D01*
X028614Y007879D02*
X031966Y007879D01*
X031847Y007998D02*
X028628Y007998D01*
X028619Y008116D02*
X031729Y008116D01*
X031610Y008235D02*
X028569Y008235D01*
X028168Y008003D02*
X020668Y008003D01*
X020299Y007998D02*
X012935Y007998D01*
X012948Y008116D02*
X020316Y008116D01*
X020379Y008235D02*
X017420Y008235D01*
X017168Y008503D02*
X031668Y008503D01*
X032168Y008003D01*
X034168Y008003D01*
X034628Y007998D02*
X035847Y007998D01*
X035953Y007879D02*
X034614Y007879D01*
X034565Y007761D02*
X035953Y007761D01*
X035953Y007642D02*
X034457Y007642D01*
X033936Y007405D02*
X032091Y007405D01*
X032209Y007287D02*
X033801Y007287D01*
X034168Y007003D02*
X032168Y007003D01*
X031668Y007503D01*
X016168Y007503D01*
X016430Y007761D02*
X020389Y007761D01*
X020320Y007879D02*
X012886Y007879D01*
X012776Y007761D02*
X015905Y007761D01*
X015827Y007642D02*
X012824Y007642D01*
X012906Y007524D02*
X015799Y007524D01*
X015810Y007405D02*
X012948Y007405D01*
X012948Y007287D02*
X015863Y007287D01*
X016014Y007168D02*
X012917Y007168D01*
X012852Y007050D02*
X027708Y007050D01*
X027708Y006931D02*
X012706Y006931D01*
X012290Y006931D02*
X011898Y006931D01*
X011898Y007050D02*
X012144Y007050D01*
X012079Y007168D02*
X011898Y007168D01*
X011898Y007287D02*
X012048Y007287D01*
X012048Y007405D02*
X011898Y007405D01*
X011898Y007524D02*
X012091Y007524D01*
X012172Y007642D02*
X011898Y007642D01*
X011898Y007761D02*
X012220Y007761D01*
X012111Y007879D02*
X011898Y007879D01*
X011898Y007998D02*
X012061Y007998D01*
X012048Y008116D02*
X011898Y008116D01*
X011898Y008235D02*
X012059Y008235D01*
X012108Y008354D02*
X011898Y008354D01*
X011898Y008472D02*
X012215Y008472D01*
X012178Y008591D02*
X011898Y008591D01*
X011898Y008709D02*
X012093Y008709D01*
X012048Y008828D02*
X011898Y008828D01*
X011898Y008946D02*
X012048Y008946D01*
X012077Y009065D02*
X011898Y009065D01*
X011898Y009183D02*
X012139Y009183D01*
X012269Y009302D02*
X011898Y009302D01*
X011898Y009420D02*
X012135Y009420D01*
X012075Y009539D02*
X011898Y009539D01*
X011898Y009658D02*
X012048Y009658D01*
X012048Y009776D02*
X011898Y009776D01*
X011898Y009895D02*
X012094Y009895D01*
X012181Y010013D02*
X012003Y010013D01*
X012121Y010132D02*
X012212Y010132D01*
X012785Y010132D02*
X016714Y010132D01*
X016832Y010013D02*
X012816Y010013D01*
X012902Y009895D02*
X016951Y009895D01*
X017069Y009776D02*
X012948Y009776D01*
X012948Y009658D02*
X017188Y009658D01*
X017306Y009539D02*
X012921Y009539D01*
X012861Y009420D02*
X017425Y009420D01*
X017544Y009302D02*
X012727Y009302D01*
X012858Y009183D02*
X018344Y009183D01*
X018299Y009065D02*
X012920Y009065D01*
X012948Y008946D02*
X018299Y008946D01*
X018342Y008828D02*
X017346Y008828D01*
X016989Y008828D02*
X012948Y008828D01*
X012904Y008709D02*
X016854Y008709D01*
X016805Y008591D02*
X012819Y008591D01*
X012782Y008472D02*
X016799Y008472D01*
X016831Y008354D02*
X012888Y008354D01*
X012937Y008235D02*
X016915Y008235D01*
X016321Y007168D02*
X027738Y007168D01*
X027749Y006813D02*
X016879Y006813D01*
X019432Y005153D02*
X019903Y005153D01*
X019973Y005223D02*
X019698Y004948D01*
X019698Y004558D01*
X019973Y004283D01*
X020362Y004283D01*
X020638Y004558D01*
X020638Y004948D01*
X020362Y005223D01*
X019973Y005223D01*
X019784Y005034D02*
X019551Y005034D01*
X019638Y004916D02*
X019698Y004916D01*
X019698Y004797D02*
X019638Y004797D01*
X019638Y004679D02*
X019698Y004679D01*
X019698Y004560D02*
X019638Y004560D01*
X019521Y004442D02*
X019814Y004442D01*
X019933Y004323D02*
X019402Y004323D01*
X019381Y004205D02*
X019954Y004205D01*
X019836Y004086D02*
X019499Y004086D01*
X019618Y003967D02*
X019717Y003967D01*
X019698Y003849D02*
X019638Y003849D01*
X019638Y003730D02*
X019698Y003730D01*
X019698Y003612D02*
X019638Y003612D01*
X019572Y003493D02*
X019763Y003493D01*
X020454Y003375D02*
X020881Y003375D01*
X020973Y003283D02*
X021362Y003283D01*
X021638Y003558D01*
X021638Y003948D01*
X021362Y004223D01*
X020973Y004223D01*
X020698Y003948D01*
X020698Y003558D01*
X020973Y003283D01*
X020763Y003493D02*
X020572Y003493D01*
X020638Y003612D02*
X020698Y003612D01*
X020698Y003730D02*
X020638Y003730D01*
X020638Y003849D02*
X020698Y003849D01*
X020717Y003967D02*
X020618Y003967D01*
X020499Y004086D02*
X020836Y004086D01*
X020954Y004205D02*
X020381Y004205D01*
X020402Y004323D02*
X020933Y004323D01*
X020973Y004283D02*
X021362Y004283D01*
X021638Y004558D01*
X021638Y004948D01*
X021362Y005223D01*
X020973Y005223D01*
X020698Y004948D01*
X020698Y004558D01*
X020973Y004283D01*
X020814Y004442D02*
X020521Y004442D01*
X020638Y004560D02*
X020698Y004560D01*
X020698Y004679D02*
X020638Y004679D01*
X020638Y004797D02*
X020698Y004797D01*
X020698Y004916D02*
X020638Y004916D01*
X020551Y005034D02*
X020784Y005034D01*
X020903Y005153D02*
X020432Y005153D01*
X021432Y005153D02*
X021903Y005153D01*
X021784Y005034D02*
X021551Y005034D01*
X021638Y004916D02*
X021698Y004916D01*
X021698Y004797D02*
X021638Y004797D01*
X021638Y004679D02*
X021698Y004679D01*
X021698Y004560D02*
X021638Y004560D01*
X021521Y004442D02*
X021814Y004442D01*
X021933Y004323D02*
X021402Y004323D01*
X021381Y004205D02*
X021954Y004205D01*
X021836Y004086D02*
X021499Y004086D01*
X021618Y003967D02*
X021717Y003967D01*
X021698Y003849D02*
X021638Y003849D01*
X021638Y003730D02*
X021698Y003730D01*
X021698Y003612D02*
X021638Y003612D01*
X021572Y003493D02*
X021763Y003493D01*
X021881Y003375D02*
X021454Y003375D01*
X022572Y003493D02*
X022763Y003493D01*
X022698Y003612D02*
X022638Y003612D01*
X022638Y003730D02*
X022698Y003730D01*
X022698Y003849D02*
X022638Y003849D01*
X022618Y003967D02*
X022717Y003967D01*
X022836Y004086D02*
X022499Y004086D01*
X022381Y004205D02*
X022954Y004205D01*
X022933Y004323D02*
X022402Y004323D01*
X022521Y004442D02*
X022814Y004442D01*
X022698Y004560D02*
X022638Y004560D01*
X022638Y004679D02*
X022698Y004679D01*
X022698Y004797D02*
X022638Y004797D01*
X022638Y004916D02*
X022698Y004916D01*
X022316Y005390D02*
X010398Y005390D01*
X010398Y005271D02*
X012453Y005271D01*
X012334Y005153D02*
X010398Y005153D01*
X010398Y005034D02*
X012238Y005034D01*
X012238Y004916D02*
X010398Y004916D01*
X010398Y004797D02*
X012238Y004797D01*
X012259Y004679D02*
X010398Y004679D01*
X010398Y004560D02*
X012377Y004560D01*
X012438Y004442D02*
X010398Y004442D01*
X010398Y004323D02*
X012438Y004323D01*
X012438Y004205D02*
X010398Y004205D01*
X010398Y004086D02*
X012438Y004086D01*
X012438Y003967D02*
X010398Y003967D01*
X010398Y003849D02*
X012438Y003849D01*
X012438Y003730D02*
X010398Y003730D01*
X010398Y003612D02*
X012438Y003612D01*
X012438Y003493D02*
X010398Y003493D01*
X010398Y003375D02*
X012438Y003375D01*
X012438Y003256D02*
X010398Y003256D01*
X010398Y003138D02*
X012438Y003138D01*
X012438Y003019D02*
X010398Y003019D01*
X010398Y002901D02*
X012438Y002901D01*
X012438Y002782D02*
X010398Y002782D01*
X010398Y002664D02*
X012438Y002664D01*
X012438Y002545D02*
X010398Y002545D01*
X010398Y002426D02*
X012438Y002426D01*
X012438Y002308D02*
X010398Y002308D01*
X010398Y002189D02*
X012438Y002189D01*
X012438Y002071D02*
X011444Y002071D01*
X011341Y002173D02*
X011188Y002173D01*
X011188Y001773D01*
X011588Y001773D01*
X011588Y001927D01*
X011341Y002173D01*
X011188Y002071D02*
X011147Y002071D01*
X011147Y002173D02*
X011147Y001773D01*
X011147Y001733D01*
X010748Y001733D01*
X010748Y001579D01*
X010994Y001333D01*
X011147Y001333D01*
X011147Y001733D01*
X011188Y001733D01*
X011188Y001773D01*
X011147Y001773D01*
X010748Y001773D01*
X010748Y001927D01*
X010994Y002173D01*
X011147Y002173D01*
X010891Y002071D02*
X010458Y002071D01*
X010576Y001952D02*
X010773Y001952D01*
X010748Y001834D02*
X010598Y001834D01*
X010598Y001715D02*
X010748Y001715D01*
X010748Y001597D02*
X010598Y001597D01*
X010501Y001478D02*
X010849Y001478D01*
X010967Y001360D02*
X010382Y001360D01*
X009953Y001360D02*
X006368Y001360D01*
X006341Y001333D02*
X006588Y001579D01*
X006588Y001733D01*
X006188Y001733D01*
X006188Y001773D01*
X006588Y001773D01*
X006588Y001927D01*
X006341Y002173D01*
X006188Y002173D01*
X006188Y001773D01*
X006147Y001773D01*
X006147Y001733D01*
X005748Y001733D01*
X005748Y001579D01*
X005994Y001333D01*
X006147Y001333D01*
X006147Y001733D01*
X006188Y001733D01*
X006188Y001333D01*
X006341Y001333D01*
X006188Y001360D02*
X006147Y001360D01*
X006147Y001478D02*
X006188Y001478D01*
X006188Y001597D02*
X006147Y001597D01*
X006147Y001715D02*
X006188Y001715D01*
X006147Y001773D02*
X005748Y001773D01*
X005748Y001927D01*
X005994Y002173D01*
X006147Y002173D01*
X006147Y001773D01*
X006147Y001834D02*
X006188Y001834D01*
X006188Y001952D02*
X006147Y001952D01*
X006147Y002071D02*
X006188Y002071D01*
X006444Y002071D02*
X009877Y002071D01*
X009938Y002189D02*
X005398Y002189D01*
X005398Y002308D02*
X009938Y002308D01*
X009938Y002426D02*
X005398Y002426D01*
X005398Y002545D02*
X009938Y002545D01*
X009938Y002664D02*
X005398Y002664D01*
X005398Y002782D02*
X009938Y002782D01*
X009938Y002901D02*
X005398Y002901D01*
X005398Y003019D02*
X007820Y003019D01*
X007708Y003065D02*
X008006Y002942D01*
X008329Y002942D01*
X008627Y003065D01*
X008855Y003294D01*
X008979Y003592D01*
X008979Y003914D01*
X008855Y004213D01*
X008627Y004441D01*
X008609Y004448D01*
X008846Y004448D01*
X009098Y004700D01*
X009098Y005056D01*
X008846Y005308D01*
X008489Y005308D01*
X008238Y005056D01*
X008238Y004700D01*
X008405Y004533D01*
X008329Y004564D01*
X008006Y004564D01*
X007930Y004533D01*
X008098Y004700D01*
X008098Y005056D01*
X007846Y005308D01*
X007489Y005308D01*
X007238Y005056D01*
X007238Y004700D01*
X007489Y004448D01*
X007726Y004448D01*
X007708Y004441D01*
X007480Y004213D01*
X007356Y003914D01*
X007356Y003592D01*
X007480Y003294D01*
X007708Y003065D01*
X007636Y003138D02*
X005398Y003138D01*
X005398Y003256D02*
X007517Y003256D01*
X007446Y003375D02*
X005398Y003375D01*
X005398Y003493D02*
X007397Y003493D01*
X007356Y003612D02*
X005398Y003612D01*
X005398Y003730D02*
X007356Y003730D01*
X007356Y003849D02*
X005398Y003849D01*
X005398Y003967D02*
X007378Y003967D01*
X007427Y004086D02*
X005398Y004086D01*
X005398Y004205D02*
X007477Y004205D01*
X007590Y004323D02*
X005398Y004323D01*
X005398Y004442D02*
X007710Y004442D01*
X007958Y004560D02*
X007996Y004560D01*
X008076Y004679D02*
X008259Y004679D01*
X008238Y004797D02*
X008098Y004797D01*
X008098Y004916D02*
X008238Y004916D01*
X008238Y005034D02*
X008098Y005034D01*
X008001Y005153D02*
X008334Y005153D01*
X008453Y005271D02*
X007882Y005271D01*
X007453Y005271D02*
X005398Y005271D01*
X005398Y005153D02*
X007334Y005153D01*
X007238Y005034D02*
X005398Y005034D01*
X005398Y004916D02*
X007238Y004916D01*
X007238Y004797D02*
X005398Y004797D01*
X005398Y004679D02*
X007259Y004679D01*
X007377Y004560D02*
X005398Y004560D01*
X004938Y004560D02*
X004311Y004560D01*
X004429Y004442D02*
X004938Y004442D01*
X004938Y004323D02*
X004548Y004323D01*
X004666Y004205D02*
X004938Y004205D01*
X004938Y004086D02*
X004785Y004086D01*
X004898Y003967D02*
X004938Y003967D01*
X004938Y003849D02*
X004898Y003849D01*
X004898Y003730D02*
X004938Y003730D01*
X004938Y003612D02*
X004898Y003612D01*
X004898Y003493D02*
X004938Y003493D01*
X004938Y003375D02*
X004898Y003375D01*
X004898Y003256D02*
X004938Y003256D01*
X004938Y003138D02*
X004898Y003138D01*
X004898Y003019D02*
X004938Y003019D01*
X004938Y002901D02*
X004898Y002901D01*
X004898Y002782D02*
X004938Y002782D01*
X004938Y002664D02*
X004898Y002664D01*
X004898Y002545D02*
X004938Y002545D01*
X004938Y002426D02*
X004898Y002426D01*
X004898Y002308D02*
X004938Y002308D01*
X004938Y002189D02*
X004898Y002189D01*
X005458Y002071D02*
X005891Y002071D01*
X005773Y001952D02*
X005576Y001952D01*
X005598Y001834D02*
X005748Y001834D01*
X005748Y001715D02*
X005598Y001715D01*
X005598Y001597D02*
X005748Y001597D01*
X005849Y001478D02*
X005501Y001478D01*
X005382Y001360D02*
X005967Y001360D01*
X005373Y001122D02*
X012598Y001122D01*
X012479Y001241D02*
X005255Y001241D01*
X005293Y000878D02*
X032918Y000878D01*
X033043Y001003D01*
X033391Y001004D02*
X033843Y001004D01*
X033938Y001122D02*
X033370Y001122D01*
X033297Y001241D02*
X033938Y001241D01*
X033938Y001360D02*
X030368Y001360D01*
X030341Y001333D02*
X030588Y001579D01*
X030588Y001733D01*
X030188Y001733D01*
X030188Y001333D01*
X030341Y001333D01*
X030188Y001360D02*
X030147Y001360D01*
X030147Y001478D02*
X030188Y001478D01*
X030188Y001597D02*
X030147Y001597D01*
X030147Y001715D02*
X030188Y001715D01*
X030188Y001834D02*
X030147Y001834D01*
X030147Y001952D02*
X030188Y001952D01*
X030188Y002071D02*
X030147Y002071D01*
X030444Y002071D02*
X033877Y002071D01*
X033759Y001952D02*
X030562Y001952D01*
X030588Y001834D02*
X033738Y001834D01*
X033738Y001715D02*
X030588Y001715D01*
X030588Y001597D02*
X033738Y001597D01*
X033835Y001478D02*
X030486Y001478D01*
X028877Y002071D02*
X026400Y002071D01*
X025402Y003256D02*
X014933Y003256D01*
X014699Y003375D02*
X015881Y003375D01*
X015763Y003493D02*
X012898Y003493D01*
X012898Y003375D02*
X014219Y003375D01*
X013985Y003256D02*
X012898Y003256D01*
X012898Y003138D02*
X013866Y003138D01*
X013781Y003019D02*
X012898Y003019D01*
X012898Y002901D02*
X013732Y002901D01*
X013687Y002782D02*
X012898Y002782D01*
X012898Y002664D02*
X013687Y002664D01*
X013687Y002545D02*
X012898Y002545D01*
X012898Y002426D02*
X013711Y002426D01*
X013761Y002308D02*
X012898Y002308D01*
X012898Y002189D02*
X013817Y002189D01*
X013936Y002071D02*
X012898Y002071D01*
X012438Y001952D02*
X011562Y001952D01*
X011588Y001834D02*
X012438Y001834D01*
X012438Y001715D02*
X011588Y001715D01*
X011588Y001733D02*
X011188Y001733D01*
X011188Y001333D01*
X011341Y001333D01*
X011588Y001579D01*
X011588Y001733D01*
X011588Y001597D02*
X012438Y001597D01*
X012438Y001478D02*
X011486Y001478D01*
X011368Y001360D02*
X012438Y001360D01*
X011188Y001360D02*
X011147Y001360D01*
X011147Y001478D02*
X011188Y001478D01*
X011188Y001597D02*
X011147Y001597D01*
X011147Y001715D02*
X011188Y001715D01*
X011188Y001834D02*
X011147Y001834D01*
X011147Y001952D02*
X011188Y001952D01*
X010168Y001753D02*
X010168Y005503D01*
X009668Y006003D01*
X009600Y005746D02*
X009018Y005746D01*
X008900Y005627D02*
X009718Y005627D01*
X009837Y005509D02*
X005498Y005509D01*
X005398Y005390D02*
X009938Y005390D01*
X009938Y005271D02*
X008882Y005271D01*
X009001Y005153D02*
X009938Y005153D01*
X009938Y005034D02*
X009098Y005034D01*
X009098Y004916D02*
X009938Y004916D01*
X009938Y004797D02*
X009098Y004797D01*
X009076Y004679D02*
X009938Y004679D01*
X009938Y004560D02*
X008958Y004560D01*
X008745Y004323D02*
X009938Y004323D01*
X009938Y004205D02*
X008859Y004205D01*
X008908Y004086D02*
X009938Y004086D01*
X009938Y003967D02*
X008957Y003967D01*
X008979Y003849D02*
X009938Y003849D01*
X009938Y003730D02*
X008979Y003730D01*
X008979Y003612D02*
X009938Y003612D01*
X009938Y003493D02*
X008938Y003493D01*
X008889Y003375D02*
X009938Y003375D01*
X009938Y003256D02*
X008818Y003256D01*
X008699Y003138D02*
X009938Y003138D01*
X009938Y003019D02*
X008515Y003019D01*
X009759Y001952D02*
X006562Y001952D01*
X006588Y001834D02*
X009738Y001834D01*
X009738Y001715D02*
X006588Y001715D01*
X006588Y001597D02*
X009738Y001597D01*
X009835Y001478D02*
X006486Y001478D01*
X005293Y000878D02*
X004668Y001503D01*
X004668Y003878D01*
X003668Y004878D01*
X003377Y004560D02*
X002936Y004560D01*
X003054Y004442D02*
X003779Y004442D01*
X003897Y004323D02*
X003173Y004323D01*
X003291Y004205D02*
X004016Y004205D01*
X004134Y004086D02*
X003410Y004086D01*
X003528Y003967D02*
X004253Y003967D01*
X004371Y003849D02*
X003647Y003849D01*
X003766Y003730D02*
X004438Y003730D01*
X004438Y003612D02*
X003884Y003612D01*
X004003Y003493D02*
X004438Y003493D01*
X004438Y003375D02*
X004121Y003375D01*
X004240Y003256D02*
X004438Y003256D01*
X004438Y003138D02*
X004358Y003138D01*
X004063Y002782D02*
X003864Y002782D01*
X003807Y002901D02*
X003945Y002901D01*
X003826Y003019D02*
X003714Y003019D01*
X003708Y003138D02*
X003604Y003138D01*
X003589Y003256D02*
X003494Y003256D01*
X003471Y003375D02*
X003325Y003375D01*
X003352Y003493D02*
X003119Y003493D01*
X003024Y003548D02*
X003024Y003548D01*
X003115Y003730D02*
X000928Y003730D01*
X000928Y003612D02*
X002024Y003612D01*
X002048Y003621D02*
X002048Y003621D01*
X001722Y003493D02*
X000928Y003493D01*
X000928Y003375D02*
X001505Y003375D01*
X001588Y003441D02*
X001588Y003441D01*
X001356Y003256D02*
X000928Y003256D01*
X000928Y003138D02*
X001208Y003138D01*
X001201Y003132D02*
X001201Y003132D01*
X001201Y003132D01*
X001124Y003019D02*
X000928Y003019D01*
X000928Y002901D02*
X001043Y002901D01*
X000962Y002782D02*
X000928Y002782D01*
X002746Y003612D02*
X003234Y003612D01*
X002996Y003849D02*
X000928Y003849D01*
X000928Y003967D02*
X002878Y003967D01*
X002759Y004086D02*
X000928Y004086D01*
X000928Y004205D02*
X002641Y004205D01*
X002522Y004323D02*
X000928Y004323D01*
X000928Y004442D02*
X002404Y004442D01*
X002285Y004560D02*
X000928Y004560D01*
X000928Y004679D02*
X002167Y004679D01*
X002048Y004797D02*
X000928Y004797D01*
X000928Y004916D02*
X001930Y004916D01*
X001813Y005034D02*
X000928Y005034D01*
X000928Y005153D02*
X001813Y005153D01*
X001813Y005271D02*
X000928Y005271D01*
X000928Y005390D02*
X001813Y005390D01*
X002273Y005390D02*
X004938Y005390D01*
X004938Y005271D02*
X003882Y005271D01*
X004001Y005153D02*
X004938Y005153D01*
X004938Y005034D02*
X004098Y005034D01*
X004098Y004916D02*
X004938Y004916D01*
X004938Y004797D02*
X004098Y004797D01*
X004192Y004679D02*
X004938Y004679D01*
X003453Y005271D02*
X002273Y005271D01*
X002343Y005153D02*
X003334Y005153D01*
X003238Y005034D02*
X002462Y005034D01*
X002580Y004916D02*
X003238Y004916D01*
X003238Y004797D02*
X002699Y004797D01*
X002817Y004679D02*
X003259Y004679D01*
X003436Y005627D02*
X002775Y005627D01*
X002893Y005746D02*
X003317Y005746D01*
X003238Y005864D02*
X002973Y005864D01*
X002973Y005983D02*
X003238Y005983D01*
X003238Y006101D02*
X002973Y006101D01*
X002934Y006220D02*
X003276Y006220D01*
X003395Y006338D02*
X002815Y006338D01*
X002773Y006457D02*
X004296Y006457D01*
X004415Y006575D02*
X002773Y006575D01*
X002773Y006694D02*
X004438Y006694D01*
X004438Y006813D02*
X002773Y006813D01*
X002690Y006931D02*
X003654Y006931D01*
X003668Y006924D02*
X003734Y006903D01*
X003802Y006892D01*
X003828Y006892D01*
X003828Y007323D01*
X003397Y007323D01*
X003397Y007297D01*
X003408Y007229D01*
X003429Y007163D01*
X003461Y007101D01*
X003501Y007045D01*
X003550Y006996D01*
X003606Y006956D01*
X003668Y006924D01*
X003828Y006931D02*
X003846Y006931D01*
X003846Y006892D02*
X003871Y006892D01*
X003940Y006903D01*
X004006Y006924D01*
X004067Y006956D01*
X004123Y006996D01*
X004172Y007045D01*
X004213Y007101D01*
X004245Y007163D01*
X004266Y007229D01*
X004277Y007297D01*
X004277Y007323D01*
X003846Y007323D01*
X003846Y006892D01*
X003846Y007050D02*
X003828Y007050D01*
X003828Y007168D02*
X003846Y007168D01*
X003846Y007287D02*
X003828Y007287D01*
X003427Y007168D02*
X002453Y007168D01*
X002571Y007050D02*
X003498Y007050D01*
X004019Y006931D02*
X004438Y006931D01*
X004438Y007050D02*
X004176Y007050D01*
X004246Y007168D02*
X004438Y007168D01*
X004438Y007287D02*
X004275Y007287D01*
X004271Y007405D02*
X004438Y007405D01*
X004438Y007524D02*
X004233Y007524D01*
X004149Y007642D02*
X004438Y007642D01*
X004438Y007761D02*
X004115Y007761D01*
X004225Y007879D02*
X004438Y007879D01*
X004438Y007998D02*
X004274Y007998D01*
X004287Y008116D02*
X004438Y008116D01*
X004438Y008235D02*
X004276Y008235D01*
X004227Y008354D02*
X004438Y008354D01*
X004438Y008472D02*
X004120Y008472D01*
X004157Y008591D02*
X004438Y008591D01*
X004438Y008709D02*
X004242Y008709D01*
X004287Y008828D02*
X004438Y008828D01*
X004438Y008946D02*
X004287Y008946D01*
X004258Y009065D02*
X004438Y009065D01*
X004438Y009183D02*
X004196Y009183D01*
X004066Y009302D02*
X004438Y009302D01*
X004438Y009420D02*
X004200Y009420D01*
X004260Y009539D02*
X004438Y009539D01*
X004438Y009658D02*
X004287Y009658D01*
X004287Y009776D02*
X004438Y009776D01*
X004438Y009895D02*
X004241Y009895D01*
X004154Y010013D02*
X004332Y010013D01*
X004214Y010132D02*
X004123Y010132D01*
X004189Y010481D02*
X004668Y010003D01*
X004668Y006503D01*
X004168Y006003D01*
X003668Y006003D01*
X004018Y005746D02*
X005085Y005746D01*
X005203Y005864D02*
X004354Y005864D01*
X004472Y005983D02*
X005322Y005983D01*
X005440Y006101D02*
X004591Y006101D01*
X004709Y006220D02*
X005559Y006220D01*
X005668Y006003D02*
X007668Y006003D01*
X008018Y005746D02*
X008317Y005746D01*
X008238Y005864D02*
X008098Y005864D01*
X007900Y005627D02*
X008436Y005627D01*
X007436Y005627D02*
X005617Y005627D01*
X005735Y005746D02*
X007317Y005746D01*
X007395Y006338D02*
X004828Y006338D01*
X004178Y006338D02*
X003940Y006338D01*
X002543Y006003D02*
X002543Y006753D01*
X002043Y007253D01*
X002043Y009128D01*
X002417Y009502D01*
X002417Y010241D01*
X002695Y010250D02*
X003446Y010250D01*
X003396Y010369D02*
X002695Y010369D01*
X002695Y010487D02*
X003387Y010487D01*
X003401Y010606D02*
X003138Y010606D01*
X003231Y010724D02*
X003450Y010724D01*
X003562Y010843D02*
X003266Y010843D01*
X003260Y010962D02*
X003508Y010962D01*
X003428Y011080D02*
X003208Y011080D01*
X003054Y011199D02*
X003387Y011199D01*
X003387Y011317D02*
X002929Y011317D01*
X002810Y011436D02*
X003419Y011436D01*
X003486Y011554D02*
X002695Y011554D01*
X002668Y011253D02*
X002428Y011253D01*
X002417Y011265D01*
X002668Y011253D02*
X002918Y011003D01*
X002918Y010878D01*
X002697Y010606D02*
X002637Y010606D01*
X002196Y010606D02*
X001889Y010606D01*
X001947Y010487D02*
X002138Y010487D01*
X002138Y010369D02*
X001947Y010369D01*
X001947Y010250D02*
X002138Y010250D01*
X002138Y010132D02*
X001947Y010132D01*
X001947Y010013D02*
X002138Y010013D01*
X002178Y009895D02*
X001907Y009895D01*
X001899Y009776D02*
X002187Y009776D01*
X002187Y009658D02*
X001899Y009658D01*
X001899Y009539D02*
X002128Y009539D01*
X002010Y009420D02*
X001899Y009420D01*
X002304Y009065D02*
X003415Y009065D01*
X003387Y008946D02*
X002771Y008946D01*
X002890Y008828D02*
X003387Y008828D01*
X003432Y008709D02*
X003008Y008709D01*
X003018Y008591D02*
X003516Y008591D01*
X003553Y008472D02*
X003018Y008472D01*
X003018Y008483D02*
X002563Y008483D01*
X002563Y008028D01*
X002739Y008028D01*
X003018Y008306D01*
X003018Y008483D01*
X003018Y008354D02*
X003447Y008354D01*
X003398Y008235D02*
X002946Y008235D01*
X002828Y008116D02*
X003387Y008116D01*
X003400Y007998D02*
X002273Y007998D01*
X002273Y007879D02*
X003449Y007879D01*
X003559Y007761D02*
X002273Y007761D01*
X002273Y007642D02*
X003525Y007642D01*
X003441Y007524D02*
X002273Y007524D01*
X002273Y007405D02*
X003403Y007405D01*
X003399Y007287D02*
X002334Y007287D01*
X002043Y006753D02*
X001543Y007253D01*
X001543Y008503D01*
X001669Y008629D01*
X001669Y010241D01*
X002695Y010132D02*
X003550Y010132D01*
X003520Y010013D02*
X002695Y010013D01*
X002655Y009895D02*
X003433Y009895D01*
X003387Y009776D02*
X002647Y009776D01*
X002647Y009658D02*
X003387Y009658D01*
X003414Y009539D02*
X002647Y009539D01*
X002647Y009420D02*
X003474Y009420D01*
X003608Y009302D02*
X002542Y009302D01*
X002423Y009183D02*
X003477Y009183D01*
X002563Y008946D02*
X002522Y008946D01*
X002522Y008828D02*
X002563Y008828D01*
X002563Y008709D02*
X002522Y008709D01*
X002522Y008591D02*
X002563Y008591D01*
X002563Y008472D02*
X002522Y008472D01*
X002522Y008354D02*
X002563Y008354D01*
X002563Y008235D02*
X002522Y008235D01*
X002522Y008116D02*
X002563Y008116D01*
X002314Y008946D02*
X002273Y008946D01*
X003837Y010481D02*
X004189Y010481D01*
X002043Y010962D02*
X002042Y010962D01*
X002042Y011080D02*
X002043Y011080D01*
X002042Y011199D02*
X002043Y011199D01*
X002042Y011317D02*
X002043Y011317D01*
X002042Y011436D02*
X002043Y011436D01*
X002042Y011554D02*
X002043Y011554D01*
X001899Y011673D02*
X003587Y011673D01*
X003465Y011791D02*
X001899Y011791D01*
X001899Y011910D02*
X003410Y011910D01*
X003387Y012028D02*
X001899Y012028D01*
X001899Y012147D02*
X003387Y012147D01*
X003436Y012266D02*
X001855Y012266D01*
X001773Y012384D02*
X003528Y012384D01*
X003542Y012503D02*
X001773Y012503D01*
X001543Y012253D02*
X001543Y013128D01*
X000928Y013688D02*
X003387Y013688D01*
X001669Y012127D02*
X001543Y012253D01*
X001669Y012127D02*
X001669Y011265D01*
X004032Y015703D02*
X004479Y015703D01*
X004202Y015822D02*
X004050Y015822D01*
X004068Y015940D02*
X004083Y015940D01*
X003900Y016770D02*
X003870Y016770D01*
X003813Y016889D02*
X003949Y016889D01*
X004024Y017007D02*
X003725Y017007D01*
X003615Y017126D02*
X004143Y017126D01*
X004337Y017244D02*
X003505Y017244D01*
X012479Y016652D02*
X017625Y016652D01*
X017655Y016533D02*
X012479Y016533D01*
X012479Y016415D02*
X017711Y016415D01*
X017016Y015940D02*
X020877Y015940D01*
X020995Y015822D02*
X016970Y015822D01*
X016468Y016296D02*
X012460Y016296D01*
X016384Y014677D02*
X016568Y014753D01*
X016767Y014753D01*
X016951Y014677D01*
X017091Y014536D01*
X017168Y014353D01*
X017168Y014154D01*
X017091Y013970D01*
X017122Y014044D02*
X017213Y014044D01*
X017168Y014162D02*
X017168Y014162D01*
X017168Y014281D02*
X017168Y014281D01*
X017148Y014399D02*
X017187Y014399D01*
X017236Y014518D02*
X017099Y014518D01*
X016991Y014636D02*
X017344Y014636D01*
X017991Y014636D02*
X018344Y014636D01*
X018236Y014518D02*
X018099Y014518D01*
X018148Y014399D02*
X018187Y014399D01*
X018168Y014281D02*
X018168Y014281D01*
X018168Y014162D02*
X018168Y014162D01*
X018122Y014044D02*
X018213Y014044D01*
X018288Y013925D02*
X018047Y013925D01*
X017896Y013807D02*
X018439Y013807D01*
X018896Y013807D02*
X019438Y013807D01*
X019288Y013925D02*
X019047Y013925D01*
X019122Y014044D02*
X019213Y014044D01*
X019168Y014162D02*
X019168Y014162D01*
X019168Y014281D02*
X019168Y014281D01*
X019148Y014399D02*
X019187Y014399D01*
X019236Y014518D02*
X019099Y014518D01*
X018991Y014636D02*
X019344Y014636D01*
X020047Y013925D02*
X020288Y013925D01*
X020439Y013807D02*
X019939Y013807D01*
X020058Y013688D02*
X025350Y013688D01*
X025510Y013569D02*
X020176Y013569D01*
X019668Y013003D02*
X026543Y013003D01*
X027543Y014003D01*
X028168Y014003D01*
X028621Y015111D02*
X032740Y015111D01*
X032790Y015229D02*
X028572Y015229D01*
X028474Y015348D02*
X032896Y015348D01*
X032976Y015585D02*
X028359Y015585D01*
X028518Y015703D02*
X032817Y015703D01*
X032745Y015822D02*
X028590Y015822D01*
X028628Y015940D02*
X032708Y015940D01*
X032708Y016059D02*
X028628Y016059D01*
X028593Y016177D02*
X032742Y016177D01*
X032932Y016415D02*
X032959Y016415D01*
X033051Y016533D02*
X036363Y016533D01*
X036327Y016415D02*
X034351Y016415D01*
X034340Y016420D02*
X034273Y016442D01*
X034203Y016453D01*
X034203Y016453D01*
X034203Y016038D01*
X034618Y016038D01*
X034618Y016039D01*
X034606Y016109D01*
X034585Y016176D01*
X034552Y016239D01*
X034511Y016296D01*
X036290Y016296D01*
X036276Y016177D02*
X034584Y016177D01*
X034614Y016059D02*
X036276Y016059D01*
X036276Y015940D02*
X034613Y015940D01*
X034618Y015968D02*
X034618Y015968D01*
X034203Y015968D01*
X034203Y016038D01*
X034132Y016038D01*
X034132Y015968D01*
X033718Y015968D01*
X033718Y015968D01*
X033729Y015898D01*
X033751Y015830D01*
X033783Y015767D01*
X033824Y015710D01*
X033874Y015660D01*
X033932Y015618D01*
X033995Y015586D01*
X034062Y015564D01*
X034132Y015553D01*
X034132Y015553D01*
X034132Y015968D01*
X034203Y015968D01*
X034203Y015553D01*
X034273Y015564D01*
X034340Y015586D01*
X034403Y015618D01*
X034461Y015660D01*
X034511Y015710D01*
X034552Y015767D01*
X034585Y015830D01*
X034606Y015898D01*
X034618Y015968D01*
X034580Y015822D02*
X036276Y015822D01*
X036292Y015703D02*
X034504Y015703D01*
X034336Y015585D02*
X036329Y015585D01*
X036379Y014645D02*
X036379Y014645D01*
X038628Y014518D02*
X039408Y014518D01*
X039408Y014636D02*
X038833Y014636D01*
X038999Y014755D02*
X039408Y014755D01*
X039408Y014873D02*
X039109Y014873D01*
X039219Y014992D02*
X039408Y014992D01*
X039408Y015111D02*
X039310Y015111D01*
X039367Y015229D02*
X039408Y015229D01*
X039408Y013925D02*
X038599Y013925D01*
X038718Y013807D02*
X039408Y013807D01*
X039408Y013688D02*
X038836Y013688D01*
X038911Y013569D02*
X039408Y013569D01*
X039408Y013451D02*
X038918Y013451D01*
X038918Y013332D02*
X039408Y013332D01*
X039408Y013214D02*
X038918Y013214D01*
X038918Y013095D02*
X039408Y013095D01*
X039408Y012977D02*
X038918Y012977D01*
X038921Y012858D02*
X039408Y012858D01*
X039408Y012740D02*
X039039Y012740D01*
X039098Y012621D02*
X039408Y012621D01*
X039408Y012503D02*
X039098Y012503D01*
X039098Y012384D02*
X039408Y012384D01*
X039408Y012266D02*
X039038Y012266D01*
X038919Y012147D02*
X039408Y012147D01*
X039408Y012028D02*
X035898Y012028D01*
X035898Y011910D02*
X039408Y011910D01*
X039408Y011791D02*
X035898Y011791D01*
X035898Y011673D02*
X039408Y011673D01*
X039408Y011554D02*
X035898Y011554D01*
X035898Y011436D02*
X039408Y011436D01*
X038416Y012147D02*
X035919Y012147D01*
X036038Y012266D02*
X036512Y012266D01*
X036330Y012384D02*
X036098Y012384D01*
X036098Y012503D02*
X036247Y012503D01*
X036201Y012621D02*
X036098Y012621D01*
X036039Y012740D02*
X036201Y012740D01*
X036201Y012858D02*
X035921Y012858D01*
X035668Y012503D02*
X035668Y011003D01*
X036168Y010503D01*
X036668Y010503D01*
X037098Y010487D02*
X038358Y010487D01*
X038438Y010369D02*
X037646Y010369D01*
X037591Y010423D02*
X037438Y010423D01*
X037438Y010023D01*
X037838Y010023D01*
X037838Y010177D01*
X037591Y010423D01*
X037438Y010369D02*
X037397Y010369D01*
X037397Y010423D02*
X037397Y010023D01*
X037397Y009983D01*
X036998Y009983D01*
X036998Y009829D01*
X037244Y009583D01*
X037397Y009583D01*
X037397Y009983D01*
X037438Y009983D01*
X037438Y010023D01*
X037397Y010023D01*
X036998Y010023D01*
X036998Y010177D01*
X037244Y010423D01*
X037397Y010423D01*
X037397Y010250D02*
X037438Y010250D01*
X037438Y010132D02*
X037397Y010132D01*
X037397Y010013D02*
X034628Y010013D01*
X034620Y009895D02*
X036998Y009895D01*
X037051Y009776D02*
X034571Y009776D01*
X034472Y009658D02*
X037169Y009658D01*
X037397Y009658D02*
X037438Y009658D01*
X037438Y009583D02*
X037591Y009583D01*
X037838Y009829D01*
X037838Y009983D01*
X037438Y009983D01*
X037438Y009583D01*
X037438Y009776D02*
X037397Y009776D01*
X037397Y009895D02*
X037438Y009895D01*
X037438Y010013D02*
X038438Y010013D01*
X038438Y009895D02*
X037838Y009895D01*
X037784Y009776D02*
X038438Y009776D01*
X038438Y009658D02*
X037666Y009658D01*
X037838Y010132D02*
X038438Y010132D01*
X038438Y010250D02*
X037764Y010250D01*
X037628Y010606D02*
X038240Y010606D01*
X038121Y010724D02*
X037747Y010724D01*
X037207Y010606D02*
X037098Y010606D01*
X037088Y010724D02*
X037054Y010724D01*
X036988Y010843D02*
X036936Y010843D01*
X036988Y010962D02*
X036034Y010962D01*
X035916Y011080D02*
X036988Y011080D01*
X037005Y011199D02*
X035898Y011199D01*
X035898Y011317D02*
X037124Y011317D01*
X036399Y010843D02*
X036153Y010843D01*
X035621Y010724D02*
X034539Y010724D01*
X034411Y010606D02*
X035740Y010606D01*
X035858Y010487D02*
X032009Y010487D01*
X032127Y010369D02*
X033883Y010369D01*
X033772Y010250D02*
X032246Y010250D01*
X032168Y010003D02*
X031668Y010503D01*
X017668Y010503D01*
X016668Y010503D02*
X017668Y009503D01*
X031668Y009503D01*
X032168Y009003D01*
X034168Y009003D01*
X034593Y008828D02*
X035384Y008828D01*
X035266Y008709D02*
X034524Y008709D01*
X034374Y008591D02*
X035238Y008591D01*
X035238Y008472D02*
X032024Y008472D01*
X032142Y008354D02*
X033867Y008354D01*
X033766Y008235D02*
X032261Y008235D01*
X031905Y008591D02*
X033961Y008591D01*
X033811Y008709D02*
X031787Y008709D01*
X032018Y008828D02*
X028593Y008828D01*
X028628Y008946D02*
X031899Y008946D01*
X031781Y009065D02*
X028628Y009065D01*
X028591Y009183D02*
X031662Y009183D01*
X032075Y009420D02*
X033973Y009420D01*
X033816Y009302D02*
X032194Y009302D01*
X031957Y009539D02*
X038438Y009539D01*
X038438Y009420D02*
X034362Y009420D01*
X034519Y009302D02*
X038438Y009302D01*
X038438Y009183D02*
X034591Y009183D01*
X034628Y009065D02*
X038438Y009065D01*
X038438Y008946D02*
X034628Y008946D01*
X034468Y008354D02*
X035238Y008354D01*
X035328Y008235D02*
X034569Y008235D01*
X034619Y008116D02*
X035446Y008116D01*
X035668Y008503D02*
X036183Y007987D01*
X036183Y006003D01*
X035683Y005503D01*
X031668Y005503D01*
X031168Y006003D01*
X028168Y006003D01*
X027776Y005746D02*
X022946Y005746D01*
X022389Y005746D02*
X013018Y005746D01*
X012900Y005627D02*
X022320Y005627D01*
X024558Y003493D02*
X037222Y003493D01*
X037088Y003441D02*
X037088Y003441D01*
X034877Y002071D02*
X034458Y002071D01*
X034576Y001952D02*
X034759Y001952D01*
X034738Y001834D02*
X034598Y001834D01*
X034398Y001241D02*
X036450Y001241D01*
X036531Y001122D02*
X034398Y001122D01*
X034398Y001004D02*
X036612Y001004D01*
X036693Y000885D02*
X034375Y000885D01*
X034256Y000767D02*
X036835Y000767D01*
X036701Y000874D02*
X036701Y000874D01*
X036701Y000874D01*
X036984Y000648D02*
X034138Y000648D01*
X034019Y000530D02*
X037179Y000530D01*
X037088Y000566D02*
X037088Y000566D01*
X033725Y000885D02*
X033371Y000885D01*
X032910Y003612D02*
X032425Y003612D01*
X032545Y003730D02*
X032790Y003730D01*
X032734Y003849D02*
X032602Y003849D01*
X032628Y003967D02*
X032708Y003967D01*
X032708Y004086D02*
X032628Y004086D01*
X032582Y004205D02*
X032753Y004205D01*
X033668Y004503D02*
X034168Y005003D01*
X034559Y005746D02*
X035565Y005746D01*
X035516Y005864D02*
X034608Y005864D01*
X034061Y006457D02*
X032039Y006457D01*
X031920Y006575D02*
X033998Y006575D01*
X033826Y006694D02*
X031802Y006694D01*
X032033Y006813D02*
X028586Y006813D01*
X028628Y006931D02*
X031914Y006931D01*
X031796Y007050D02*
X028628Y007050D01*
X028597Y007168D02*
X031677Y007168D01*
X032158Y006338D02*
X033852Y006338D01*
X035895Y005390D02*
X035913Y005390D01*
X036454Y005390D02*
X037881Y005390D01*
X037699Y005509D02*
X036636Y005509D01*
X036753Y005627D02*
X037582Y005627D01*
X037533Y005746D02*
X036802Y005746D01*
X036851Y005864D02*
X037484Y005864D01*
X037482Y005983D02*
X036853Y005983D01*
X036853Y006101D02*
X037482Y006101D01*
X037516Y006220D02*
X036819Y006220D01*
X036770Y006338D02*
X037565Y006338D01*
X037658Y006457D02*
X036677Y006457D01*
X036552Y006575D02*
X037783Y006575D01*
X037922Y006694D02*
X036413Y006694D01*
X036413Y006813D02*
X037922Y006813D01*
X037922Y006931D02*
X036413Y006931D01*
X036413Y007050D02*
X037922Y007050D01*
X037922Y007168D02*
X036413Y007168D01*
X036413Y007287D02*
X037922Y007287D01*
X037922Y007405D02*
X036413Y007405D01*
X036413Y007524D02*
X037922Y007524D01*
X037922Y007642D02*
X036413Y007642D01*
X036413Y007761D02*
X037922Y007761D01*
X037922Y007879D02*
X036413Y007879D01*
X036413Y007998D02*
X037922Y007998D01*
X037956Y008116D02*
X036379Y008116D01*
X036261Y008235D02*
X038074Y008235D01*
X038193Y008354D02*
X036142Y008354D01*
X036098Y008472D02*
X038238Y008472D01*
X038238Y008591D02*
X036098Y008591D01*
X036070Y008709D02*
X038266Y008709D01*
X038384Y008828D02*
X035951Y008828D01*
X034168Y010003D02*
X032168Y010003D01*
X031951Y009895D02*
X028620Y009895D01*
X028628Y010013D02*
X031832Y010013D01*
X031714Y010132D02*
X028612Y010132D01*
X028563Y010250D02*
X031595Y010250D01*
X031890Y010606D02*
X033925Y010606D01*
X033796Y010724D02*
X031771Y010724D01*
X032002Y010843D02*
X028599Y010843D01*
X028628Y010962D02*
X031884Y010962D01*
X031765Y011080D02*
X028628Y011080D01*
X028584Y011199D02*
X031647Y011199D01*
X031942Y011554D02*
X032291Y011554D01*
X032410Y011436D02*
X032060Y011436D01*
X032179Y011317D02*
X032528Y011317D01*
X032668Y011503D02*
X033668Y011503D01*
X033807Y011317D02*
X033831Y011317D01*
X033925Y011436D02*
X034010Y011436D01*
X034044Y011554D02*
X034049Y011554D01*
X032668Y011503D02*
X031668Y012503D01*
X027168Y012503D01*
X026668Y012003D01*
X023168Y012003D01*
X023668Y011628D02*
X026793Y011628D01*
X027168Y012003D01*
X028168Y012003D01*
X028628Y012028D02*
X031817Y012028D01*
X031936Y011910D02*
X028627Y011910D01*
X028578Y011791D02*
X032054Y011791D01*
X032173Y011673D02*
X031823Y011673D01*
X031698Y012147D02*
X028606Y012147D01*
X028556Y012266D02*
X031580Y012266D01*
X033668Y013503D02*
X034168Y014003D01*
X033736Y014162D02*
X033600Y014162D01*
X033628Y014044D02*
X033708Y014044D01*
X033708Y013925D02*
X033628Y013925D01*
X033646Y013807D02*
X033584Y013807D01*
X033540Y014281D02*
X033795Y014281D01*
X033922Y014399D02*
X033413Y014399D01*
X033417Y014636D02*
X033884Y014636D01*
X033772Y014755D02*
X033536Y014755D01*
X033585Y014873D02*
X033723Y014873D01*
X033708Y014992D02*
X033603Y014992D01*
X033595Y015111D02*
X033714Y015111D01*
X033763Y015229D02*
X033546Y015229D01*
X033439Y015348D02*
X033862Y015348D01*
X033999Y015585D02*
X033359Y015585D01*
X033518Y015703D02*
X033831Y015703D01*
X033755Y015822D02*
X033590Y015822D01*
X033628Y015940D02*
X033722Y015940D01*
X033718Y016038D02*
X034132Y016038D01*
X034132Y016453D01*
X034062Y016442D01*
X033995Y016420D01*
X033932Y016388D01*
X033874Y016346D01*
X033824Y016296D01*
X033525Y016296D01*
X033593Y016177D02*
X033751Y016177D01*
X033751Y016176D02*
X033729Y016109D01*
X033718Y016039D01*
X033718Y016038D01*
X033721Y016059D02*
X033628Y016059D01*
X033751Y016176D02*
X033783Y016239D01*
X033824Y016296D01*
X033984Y016415D02*
X033376Y016415D01*
X033169Y016652D02*
X033869Y016652D01*
X034132Y016453D02*
X034132Y016453D01*
X034132Y016415D02*
X034203Y016415D01*
X034203Y016296D02*
X034132Y016296D01*
X034132Y016177D02*
X034203Y016177D01*
X034203Y016059D02*
X034132Y016059D01*
X034132Y015940D02*
X034203Y015940D01*
X034203Y015822D02*
X034132Y015822D01*
X034132Y015703D02*
X034203Y015703D01*
X034203Y015585D02*
X034132Y015585D01*
X034203Y015553D02*
X034203Y015553D01*
X034511Y016296D02*
X034461Y016346D01*
X034403Y016388D01*
X034340Y016420D01*
X034467Y016652D02*
X036400Y016652D01*
X036422Y016723D02*
X036422Y016723D01*
X036454Y016770D02*
X034569Y016770D01*
X034618Y016889D02*
X036535Y016889D01*
X036616Y017007D02*
X034628Y017007D01*
X034615Y017126D02*
X036696Y017126D01*
X036701Y017132D02*
X036701Y017132D01*
X036841Y017244D02*
X034566Y017244D01*
X032581Y016770D02*
X028554Y016770D01*
X028203Y017126D02*
X028132Y017126D01*
X028132Y017244D02*
X028203Y017244D01*
X028203Y017363D02*
X028132Y017363D01*
X027897Y017363D02*
X022310Y017363D01*
X022499Y017244D02*
X027787Y017244D01*
X027734Y017126D02*
X022603Y017126D01*
X022710Y016652D02*
X026963Y016652D01*
X026844Y016533D02*
X022680Y016533D01*
X022624Y016415D02*
X026725Y016415D01*
X026607Y016296D02*
X022534Y016296D01*
X026840Y015822D02*
X027161Y015822D01*
X027280Y015940D02*
X026958Y015940D01*
X027077Y016059D02*
X027398Y016059D01*
X027517Y016177D02*
X027195Y016177D01*
X027668Y016003D02*
X028168Y016003D01*
X030023Y014399D02*
X032922Y014399D01*
X032795Y014281D02*
X029966Y014281D01*
X031834Y014162D02*
X032736Y014162D01*
X032708Y014044D02*
X031952Y014044D01*
X032071Y013925D02*
X032708Y013925D01*
X032751Y013807D02*
X032189Y013807D01*
X033941Y013451D02*
X034047Y013451D01*
X036823Y012266D02*
X037546Y012266D01*
X037629Y012266D02*
X037706Y012266D01*
X037789Y012266D02*
X038297Y012266D01*
X038238Y012384D02*
X037991Y012384D01*
X038076Y012503D02*
X038238Y012503D01*
X038238Y012621D02*
X038117Y012621D01*
X038124Y012740D02*
X038296Y012740D01*
X038415Y012858D02*
X038124Y012858D01*
X037706Y012858D02*
X037629Y012858D01*
X037629Y012740D02*
X037706Y012740D01*
X037706Y012621D02*
X037629Y012621D01*
X037629Y012503D02*
X037706Y012503D01*
X037706Y012384D02*
X037629Y012384D01*
X037344Y012384D02*
X037006Y012384D01*
X037088Y012503D02*
X037259Y012503D01*
X037219Y012621D02*
X037134Y012621D01*
X037134Y012740D02*
X037211Y012740D01*
X037211Y012858D02*
X037134Y012858D01*
X037098Y010369D02*
X037189Y010369D01*
X037071Y010250D02*
X037023Y010250D01*
X036998Y010132D02*
X036904Y010132D01*
X036431Y010132D02*
X034612Y010132D01*
X034563Y010250D02*
X036312Y010250D01*
X035977Y010369D02*
X034452Y010369D01*
X033863Y009658D02*
X031838Y009658D01*
X032069Y009776D02*
X028571Y009776D01*
X028168Y010003D02*
X020168Y010003D01*
X018668Y009003D02*
X028168Y009003D01*
X028168Y011003D02*
X018168Y011003D01*
X016668Y010503D02*
X016668Y014253D01*
X016438Y013332D02*
X012836Y013332D01*
X012764Y013214D02*
X016438Y013214D01*
X016438Y013095D02*
X012881Y013095D01*
X012930Y012977D02*
X016438Y012977D01*
X016438Y012858D02*
X012948Y012858D01*
X012942Y012740D02*
X016438Y012740D01*
X016438Y012621D02*
X012893Y012621D01*
X012794Y012503D02*
X016438Y012503D01*
X016438Y012384D02*
X012807Y012384D01*
X012899Y012266D02*
X016438Y012266D01*
X016438Y012147D02*
X012948Y012147D01*
X012948Y012028D02*
X016438Y012028D01*
X016438Y011910D02*
X012925Y011910D01*
X012870Y011791D02*
X016438Y011791D01*
X016438Y011673D02*
X012748Y011673D01*
X012849Y011554D02*
X016438Y011554D01*
X016438Y011436D02*
X012916Y011436D01*
X012948Y011317D02*
X016438Y011317D01*
X016438Y011199D02*
X012948Y011199D01*
X012907Y011080D02*
X016438Y011080D01*
X016438Y010962D02*
X012827Y010962D01*
X012773Y010843D02*
X016438Y010843D01*
X016438Y010724D02*
X012885Y010724D01*
X012934Y010606D02*
X016438Y010606D01*
X016438Y010487D02*
X012948Y010487D01*
X012939Y010369D02*
X016477Y010369D01*
X016595Y010250D02*
X012890Y010250D01*
X012498Y010481D02*
X012146Y010481D01*
X011668Y010003D01*
X011668Y006503D01*
X012168Y006003D01*
X012668Y006003D01*
X012395Y006338D02*
X012158Y006338D01*
X012898Y004442D02*
X014027Y004442D01*
X012898Y004323D02*
X015933Y004323D01*
X015954Y004205D02*
X012898Y004205D01*
X012898Y004086D02*
X015836Y004086D01*
X015717Y003967D02*
X012898Y003967D01*
X012898Y003849D02*
X015698Y003849D01*
X015698Y003730D02*
X012898Y003730D01*
X012898Y003612D02*
X015698Y003612D01*
X019073Y001834D02*
X019372Y001834D01*
X019253Y001952D02*
X019192Y001952D01*
X020053Y001834D02*
X020292Y001834D01*
X020173Y001952D02*
X020172Y001952D01*
X020723Y001834D02*
X020959Y001834D01*
X021530Y002308D02*
X021627Y002308D01*
X021530Y002426D02*
X021746Y002426D01*
X021864Y002545D02*
X021530Y002545D01*
X021530Y002664D02*
X021622Y002664D01*
X021598Y002782D02*
X021530Y002782D01*
X021530Y002871D02*
X021530Y002871D01*
X021508Y002901D02*
X021620Y002901D01*
X021828Y002783D02*
X022318Y002783D01*
X022318Y002673D01*
X021828Y002183D01*
X021828Y002063D01*
X021092Y002901D02*
X020835Y002901D01*
X020954Y002782D02*
X020974Y002782D01*
X020180Y002901D02*
X020055Y002901D01*
X009938Y004442D02*
X008625Y004442D01*
X008377Y004560D02*
X008339Y004560D01*
X005668Y006003D02*
X005168Y005503D01*
X005168Y001753D01*
X004063Y002189D02*
X004049Y002189D01*
X004063Y002308D02*
X004032Y002308D01*
X004014Y002426D02*
X004063Y002426D01*
X004063Y002545D02*
X003979Y002545D01*
X003921Y002664D02*
X004063Y002664D01*
X003900Y005627D02*
X004966Y005627D01*
X004938Y005509D02*
X002273Y005509D01*
X002273Y005627D02*
X002311Y005627D01*
D21*
X016168Y004753D03*
X017168Y004753D03*
X018168Y004753D03*
X019168Y004753D03*
X020168Y004753D03*
X021168Y004753D03*
X022168Y004753D03*
X023168Y004753D03*
X024168Y004753D03*
X024168Y003753D03*
X023168Y003753D03*
X022168Y003753D03*
X021168Y003753D03*
X020168Y003753D03*
X019168Y003753D03*
X018168Y003753D03*
X017168Y003753D03*
X016168Y003753D03*
D22*
X036668Y012706D02*
X036668Y013300D01*
X037668Y013300D02*
X037668Y012706D01*
D23*
X029668Y014503D03*
X029168Y014003D03*
X029168Y013003D03*
X023668Y011628D03*
X023168Y012003D03*
X022168Y011503D03*
X021668Y011628D03*
X019668Y013003D03*
X017168Y012503D03*
X018168Y011003D03*
X017668Y010503D03*
X020168Y010003D03*
X018668Y009003D03*
X017168Y008503D03*
X016168Y007503D03*
X016668Y006503D03*
X020668Y008003D03*
X022668Y005503D03*
X029668Y005003D03*
D24*
X033043Y001003D03*
X002918Y010878D03*
X002043Y010628D03*
X016668Y016003D03*
D25*
X020955Y016216D02*
X021168Y016003D01*
X026668Y016003D01*
X027168Y016503D01*
X032668Y016503D01*
X033168Y017003D01*
X034168Y017003D01*
X034168Y015003D02*
X034668Y014503D01*
X036168Y014503D01*
X036668Y014003D01*
X038168Y014003D01*
X038668Y013503D01*
X038668Y012503D01*
X020955Y016216D02*
X020955Y016753D01*
D26*
X033168Y015003D03*
X033168Y005003D03*
M02*
