G75*
G70*
%OFA0B0*%
%FSLAX24Y24*%
%IPPOS*%
%LPD*%
%AMOC8*
5,1,8,0,0,1.08239X$1,22.5*
%
%ADD10C,0.0000*%
%ADD11R,0.0217X0.0472*%
D10*
X002418Y000253D02*
X037918Y000253D01*
X037288Y002003D02*
X037290Y002053D01*
X037296Y002103D01*
X037306Y002152D01*
X037320Y002200D01*
X037337Y002247D01*
X037358Y002292D01*
X037383Y002336D01*
X037411Y002377D01*
X037443Y002416D01*
X037477Y002453D01*
X037514Y002487D01*
X037554Y002517D01*
X037596Y002544D01*
X037640Y002568D01*
X037686Y002589D01*
X037733Y002605D01*
X037781Y002618D01*
X037831Y002627D01*
X037880Y002632D01*
X037931Y002633D01*
X037981Y002630D01*
X038030Y002623D01*
X038079Y002612D01*
X038127Y002597D01*
X038173Y002579D01*
X038218Y002557D01*
X038261Y002531D01*
X038302Y002502D01*
X038341Y002470D01*
X038377Y002435D01*
X038409Y002397D01*
X038439Y002357D01*
X038466Y002314D01*
X038489Y002270D01*
X038508Y002224D01*
X038524Y002176D01*
X038536Y002127D01*
X038544Y002078D01*
X038548Y002028D01*
X038548Y001978D01*
X038544Y001928D01*
X038536Y001879D01*
X038524Y001830D01*
X038508Y001782D01*
X038489Y001736D01*
X038466Y001692D01*
X038439Y001649D01*
X038409Y001609D01*
X038377Y001571D01*
X038341Y001536D01*
X038302Y001504D01*
X038261Y001475D01*
X038218Y001449D01*
X038173Y001427D01*
X038127Y001409D01*
X038079Y001394D01*
X038030Y001383D01*
X037981Y001376D01*
X037931Y001373D01*
X037880Y001374D01*
X037831Y001379D01*
X037781Y001388D01*
X037733Y001401D01*
X037686Y001417D01*
X037640Y001438D01*
X037596Y001462D01*
X037554Y001489D01*
X037514Y001519D01*
X037477Y001553D01*
X037443Y001590D01*
X037411Y001629D01*
X037383Y001670D01*
X037358Y001714D01*
X037337Y001759D01*
X037320Y001806D01*
X037306Y001854D01*
X037296Y001903D01*
X037290Y001953D01*
X037288Y002003D01*
X037918Y000253D02*
X038001Y000255D01*
X038084Y000261D01*
X038167Y000271D01*
X038249Y000285D01*
X038331Y000302D01*
X038411Y000324D01*
X038490Y000349D01*
X038568Y000378D01*
X038645Y000411D01*
X038720Y000448D01*
X038793Y000487D01*
X038864Y000531D01*
X038933Y000577D01*
X039000Y000627D01*
X039064Y000680D01*
X039126Y000736D01*
X039185Y000795D01*
X039241Y000857D01*
X039294Y000921D01*
X039344Y000988D01*
X039390Y001057D01*
X039434Y001128D01*
X039473Y001201D01*
X039510Y001276D01*
X039543Y001353D01*
X039572Y001431D01*
X039597Y001510D01*
X039619Y001590D01*
X039636Y001672D01*
X039650Y001754D01*
X039660Y001837D01*
X039666Y001920D01*
X039668Y002003D01*
X039668Y016003D01*
X037288Y016003D02*
X037290Y016053D01*
X037296Y016103D01*
X037306Y016152D01*
X037320Y016200D01*
X037337Y016247D01*
X037358Y016292D01*
X037383Y016336D01*
X037411Y016377D01*
X037443Y016416D01*
X037477Y016453D01*
X037514Y016487D01*
X037554Y016517D01*
X037596Y016544D01*
X037640Y016568D01*
X037686Y016589D01*
X037733Y016605D01*
X037781Y016618D01*
X037831Y016627D01*
X037880Y016632D01*
X037931Y016633D01*
X037981Y016630D01*
X038030Y016623D01*
X038079Y016612D01*
X038127Y016597D01*
X038173Y016579D01*
X038218Y016557D01*
X038261Y016531D01*
X038302Y016502D01*
X038341Y016470D01*
X038377Y016435D01*
X038409Y016397D01*
X038439Y016357D01*
X038466Y016314D01*
X038489Y016270D01*
X038508Y016224D01*
X038524Y016176D01*
X038536Y016127D01*
X038544Y016078D01*
X038548Y016028D01*
X038548Y015978D01*
X038544Y015928D01*
X038536Y015879D01*
X038524Y015830D01*
X038508Y015782D01*
X038489Y015736D01*
X038466Y015692D01*
X038439Y015649D01*
X038409Y015609D01*
X038377Y015571D01*
X038341Y015536D01*
X038302Y015504D01*
X038261Y015475D01*
X038218Y015449D01*
X038173Y015427D01*
X038127Y015409D01*
X038079Y015394D01*
X038030Y015383D01*
X037981Y015376D01*
X037931Y015373D01*
X037880Y015374D01*
X037831Y015379D01*
X037781Y015388D01*
X037733Y015401D01*
X037686Y015417D01*
X037640Y015438D01*
X037596Y015462D01*
X037554Y015489D01*
X037514Y015519D01*
X037477Y015553D01*
X037443Y015590D01*
X037411Y015629D01*
X037383Y015670D01*
X037358Y015714D01*
X037337Y015759D01*
X037320Y015806D01*
X037306Y015854D01*
X037296Y015903D01*
X037290Y015953D01*
X037288Y016003D01*
X037918Y017753D02*
X038001Y017751D01*
X038084Y017745D01*
X038167Y017735D01*
X038249Y017721D01*
X038331Y017704D01*
X038411Y017682D01*
X038490Y017657D01*
X038568Y017628D01*
X038645Y017595D01*
X038720Y017558D01*
X038793Y017519D01*
X038864Y017475D01*
X038933Y017429D01*
X039000Y017379D01*
X039064Y017326D01*
X039126Y017270D01*
X039185Y017211D01*
X039241Y017149D01*
X039294Y017085D01*
X039344Y017018D01*
X039390Y016949D01*
X039434Y016878D01*
X039473Y016805D01*
X039510Y016730D01*
X039543Y016653D01*
X039572Y016575D01*
X039597Y016496D01*
X039619Y016416D01*
X039636Y016334D01*
X039650Y016252D01*
X039660Y016169D01*
X039666Y016086D01*
X039668Y016003D01*
X037918Y017753D02*
X002418Y017753D01*
X004117Y016503D02*
X004119Y016550D01*
X004125Y016596D01*
X004135Y016642D01*
X004148Y016687D01*
X004166Y016730D01*
X004187Y016772D01*
X004211Y016812D01*
X004239Y016849D01*
X004270Y016884D01*
X004304Y016917D01*
X004340Y016946D01*
X004379Y016972D01*
X004420Y016995D01*
X004463Y017014D01*
X004507Y017030D01*
X004552Y017042D01*
X004598Y017050D01*
X004645Y017054D01*
X004691Y017054D01*
X004738Y017050D01*
X004784Y017042D01*
X004829Y017030D01*
X004873Y017014D01*
X004916Y016995D01*
X004957Y016972D01*
X004996Y016946D01*
X005032Y016917D01*
X005066Y016884D01*
X005097Y016849D01*
X005125Y016812D01*
X005149Y016772D01*
X005170Y016730D01*
X005188Y016687D01*
X005201Y016642D01*
X005211Y016596D01*
X005217Y016550D01*
X005219Y016503D01*
X005217Y016456D01*
X005211Y016410D01*
X005201Y016364D01*
X005188Y016319D01*
X005170Y016276D01*
X005149Y016234D01*
X005125Y016194D01*
X005097Y016157D01*
X005066Y016122D01*
X005032Y016089D01*
X004996Y016060D01*
X004957Y016034D01*
X004916Y016011D01*
X004873Y015992D01*
X004829Y015976D01*
X004784Y015964D01*
X004738Y015956D01*
X004691Y015952D01*
X004645Y015952D01*
X004598Y015956D01*
X004552Y015964D01*
X004507Y015976D01*
X004463Y015992D01*
X004420Y016011D01*
X004379Y016034D01*
X004340Y016060D01*
X004304Y016089D01*
X004270Y016122D01*
X004239Y016157D01*
X004211Y016194D01*
X004187Y016234D01*
X004166Y016276D01*
X004148Y016319D01*
X004135Y016364D01*
X004125Y016410D01*
X004119Y016456D01*
X004117Y016503D01*
X001788Y016003D02*
X001790Y016053D01*
X001796Y016103D01*
X001806Y016152D01*
X001820Y016200D01*
X001837Y016247D01*
X001858Y016292D01*
X001883Y016336D01*
X001911Y016377D01*
X001943Y016416D01*
X001977Y016453D01*
X002014Y016487D01*
X002054Y016517D01*
X002096Y016544D01*
X002140Y016568D01*
X002186Y016589D01*
X002233Y016605D01*
X002281Y016618D01*
X002331Y016627D01*
X002380Y016632D01*
X002431Y016633D01*
X002481Y016630D01*
X002530Y016623D01*
X002579Y016612D01*
X002627Y016597D01*
X002673Y016579D01*
X002718Y016557D01*
X002761Y016531D01*
X002802Y016502D01*
X002841Y016470D01*
X002877Y016435D01*
X002909Y016397D01*
X002939Y016357D01*
X002966Y016314D01*
X002989Y016270D01*
X003008Y016224D01*
X003024Y016176D01*
X003036Y016127D01*
X003044Y016078D01*
X003048Y016028D01*
X003048Y015978D01*
X003044Y015928D01*
X003036Y015879D01*
X003024Y015830D01*
X003008Y015782D01*
X002989Y015736D01*
X002966Y015692D01*
X002939Y015649D01*
X002909Y015609D01*
X002877Y015571D01*
X002841Y015536D01*
X002802Y015504D01*
X002761Y015475D01*
X002718Y015449D01*
X002673Y015427D01*
X002627Y015409D01*
X002579Y015394D01*
X002530Y015383D01*
X002481Y015376D01*
X002431Y015373D01*
X002380Y015374D01*
X002331Y015379D01*
X002281Y015388D01*
X002233Y015401D01*
X002186Y015417D01*
X002140Y015438D01*
X002096Y015462D01*
X002054Y015489D01*
X002014Y015519D01*
X001977Y015553D01*
X001943Y015590D01*
X001911Y015629D01*
X001883Y015670D01*
X001858Y015714D01*
X001837Y015759D01*
X001820Y015806D01*
X001806Y015854D01*
X001796Y015903D01*
X001790Y015953D01*
X001788Y016003D01*
X000668Y016003D02*
X000670Y016086D01*
X000676Y016169D01*
X000686Y016252D01*
X000700Y016334D01*
X000717Y016416D01*
X000739Y016496D01*
X000764Y016575D01*
X000793Y016653D01*
X000826Y016730D01*
X000863Y016805D01*
X000902Y016878D01*
X000946Y016949D01*
X000992Y017018D01*
X001042Y017085D01*
X001095Y017149D01*
X001151Y017211D01*
X001210Y017270D01*
X001272Y017326D01*
X001336Y017379D01*
X001403Y017429D01*
X001472Y017475D01*
X001543Y017519D01*
X001616Y017558D01*
X001691Y017595D01*
X001768Y017628D01*
X001846Y017657D01*
X001925Y017682D01*
X002005Y017704D01*
X002087Y017721D01*
X002169Y017735D01*
X002252Y017745D01*
X002335Y017751D01*
X002418Y017753D01*
X000668Y016003D02*
X000668Y002003D01*
X001788Y002003D02*
X001790Y002053D01*
X001796Y002103D01*
X001806Y002152D01*
X001820Y002200D01*
X001837Y002247D01*
X001858Y002292D01*
X001883Y002336D01*
X001911Y002377D01*
X001943Y002416D01*
X001977Y002453D01*
X002014Y002487D01*
X002054Y002517D01*
X002096Y002544D01*
X002140Y002568D01*
X002186Y002589D01*
X002233Y002605D01*
X002281Y002618D01*
X002331Y002627D01*
X002380Y002632D01*
X002431Y002633D01*
X002481Y002630D01*
X002530Y002623D01*
X002579Y002612D01*
X002627Y002597D01*
X002673Y002579D01*
X002718Y002557D01*
X002761Y002531D01*
X002802Y002502D01*
X002841Y002470D01*
X002877Y002435D01*
X002909Y002397D01*
X002939Y002357D01*
X002966Y002314D01*
X002989Y002270D01*
X003008Y002224D01*
X003024Y002176D01*
X003036Y002127D01*
X003044Y002078D01*
X003048Y002028D01*
X003048Y001978D01*
X003044Y001928D01*
X003036Y001879D01*
X003024Y001830D01*
X003008Y001782D01*
X002989Y001736D01*
X002966Y001692D01*
X002939Y001649D01*
X002909Y001609D01*
X002877Y001571D01*
X002841Y001536D01*
X002802Y001504D01*
X002761Y001475D01*
X002718Y001449D01*
X002673Y001427D01*
X002627Y001409D01*
X002579Y001394D01*
X002530Y001383D01*
X002481Y001376D01*
X002431Y001373D01*
X002380Y001374D01*
X002331Y001379D01*
X002281Y001388D01*
X002233Y001401D01*
X002186Y001417D01*
X002140Y001438D01*
X002096Y001462D01*
X002054Y001489D01*
X002014Y001519D01*
X001977Y001553D01*
X001943Y001590D01*
X001911Y001629D01*
X001883Y001670D01*
X001858Y001714D01*
X001837Y001759D01*
X001820Y001806D01*
X001806Y001854D01*
X001796Y001903D01*
X001790Y001953D01*
X001788Y002003D01*
X000668Y002003D02*
X000670Y001920D01*
X000676Y001837D01*
X000686Y001754D01*
X000700Y001672D01*
X000717Y001590D01*
X000739Y001510D01*
X000764Y001431D01*
X000793Y001353D01*
X000826Y001276D01*
X000863Y001201D01*
X000902Y001128D01*
X000946Y001057D01*
X000992Y000988D01*
X001042Y000921D01*
X001095Y000857D01*
X001151Y000795D01*
X001210Y000736D01*
X001272Y000680D01*
X001336Y000627D01*
X001403Y000577D01*
X001472Y000531D01*
X001543Y000487D01*
X001616Y000448D01*
X001691Y000411D01*
X001768Y000378D01*
X001846Y000349D01*
X001925Y000324D01*
X002005Y000302D01*
X002087Y000285D01*
X002169Y000271D01*
X002252Y000261D01*
X002335Y000255D01*
X002418Y000253D01*
X007617Y003753D02*
X007619Y003800D01*
X007625Y003846D01*
X007635Y003892D01*
X007648Y003937D01*
X007666Y003980D01*
X007687Y004022D01*
X007711Y004062D01*
X007739Y004099D01*
X007770Y004134D01*
X007804Y004167D01*
X007840Y004196D01*
X007879Y004222D01*
X007920Y004245D01*
X007963Y004264D01*
X008007Y004280D01*
X008052Y004292D01*
X008098Y004300D01*
X008145Y004304D01*
X008191Y004304D01*
X008238Y004300D01*
X008284Y004292D01*
X008329Y004280D01*
X008373Y004264D01*
X008416Y004245D01*
X008457Y004222D01*
X008496Y004196D01*
X008532Y004167D01*
X008566Y004134D01*
X008597Y004099D01*
X008625Y004062D01*
X008649Y004022D01*
X008670Y003980D01*
X008688Y003937D01*
X008701Y003892D01*
X008711Y003846D01*
X008717Y003800D01*
X008719Y003753D01*
X008717Y003706D01*
X008711Y003660D01*
X008701Y003614D01*
X008688Y003569D01*
X008670Y003526D01*
X008649Y003484D01*
X008625Y003444D01*
X008597Y003407D01*
X008566Y003372D01*
X008532Y003339D01*
X008496Y003310D01*
X008457Y003284D01*
X008416Y003261D01*
X008373Y003242D01*
X008329Y003226D01*
X008284Y003214D01*
X008238Y003206D01*
X008191Y003202D01*
X008145Y003202D01*
X008098Y003206D01*
X008052Y003214D01*
X008007Y003226D01*
X007963Y003242D01*
X007920Y003261D01*
X007879Y003284D01*
X007840Y003310D01*
X007804Y003339D01*
X007770Y003372D01*
X007739Y003407D01*
X007711Y003444D01*
X007687Y003484D01*
X007666Y003526D01*
X007648Y003569D01*
X007635Y003614D01*
X007625Y003660D01*
X007619Y003706D01*
X007617Y003753D01*
X013947Y002639D02*
X013949Y002684D01*
X013955Y002728D01*
X013964Y002772D01*
X013978Y002814D01*
X013995Y002855D01*
X014016Y002895D01*
X014040Y002933D01*
X014067Y002968D01*
X014097Y003001D01*
X014130Y003031D01*
X014165Y003058D01*
X014203Y003082D01*
X014243Y003103D01*
X014284Y003120D01*
X014326Y003134D01*
X014370Y003143D01*
X014414Y003149D01*
X014459Y003151D01*
X014504Y003149D01*
X014548Y003143D01*
X014592Y003134D01*
X014634Y003120D01*
X014675Y003103D01*
X014715Y003082D01*
X014753Y003058D01*
X014788Y003031D01*
X014821Y003001D01*
X014851Y002968D01*
X014878Y002933D01*
X014902Y002895D01*
X014923Y002855D01*
X014940Y002814D01*
X014954Y002772D01*
X014963Y002728D01*
X014969Y002684D01*
X014971Y002639D01*
X014969Y002594D01*
X014963Y002550D01*
X014954Y002506D01*
X014940Y002464D01*
X014923Y002423D01*
X014902Y002383D01*
X014878Y002345D01*
X014851Y002310D01*
X014821Y002277D01*
X014788Y002247D01*
X014753Y002220D01*
X014715Y002196D01*
X014675Y002175D01*
X014634Y002158D01*
X014592Y002144D01*
X014548Y002135D01*
X014504Y002129D01*
X014459Y002127D01*
X014414Y002129D01*
X014370Y002135D01*
X014326Y002144D01*
X014284Y002158D01*
X014243Y002175D01*
X014203Y002196D01*
X014165Y002220D01*
X014130Y002247D01*
X014097Y002277D01*
X014067Y002310D01*
X014040Y002345D01*
X014016Y002383D01*
X013995Y002423D01*
X013978Y002464D01*
X013964Y002506D01*
X013955Y002550D01*
X013949Y002594D01*
X013947Y002639D01*
X025364Y002639D02*
X025366Y002684D01*
X025372Y002728D01*
X025381Y002772D01*
X025395Y002814D01*
X025412Y002855D01*
X025433Y002895D01*
X025457Y002933D01*
X025484Y002968D01*
X025514Y003001D01*
X025547Y003031D01*
X025582Y003058D01*
X025620Y003082D01*
X025660Y003103D01*
X025701Y003120D01*
X025743Y003134D01*
X025787Y003143D01*
X025831Y003149D01*
X025876Y003151D01*
X025921Y003149D01*
X025965Y003143D01*
X026009Y003134D01*
X026051Y003120D01*
X026092Y003103D01*
X026132Y003082D01*
X026170Y003058D01*
X026205Y003031D01*
X026238Y003001D01*
X026268Y002968D01*
X026295Y002933D01*
X026319Y002895D01*
X026340Y002855D01*
X026357Y002814D01*
X026371Y002772D01*
X026380Y002728D01*
X026386Y002684D01*
X026388Y002639D01*
X026386Y002594D01*
X026380Y002550D01*
X026371Y002506D01*
X026357Y002464D01*
X026340Y002423D01*
X026319Y002383D01*
X026295Y002345D01*
X026268Y002310D01*
X026238Y002277D01*
X026205Y002247D01*
X026170Y002220D01*
X026132Y002196D01*
X026092Y002175D01*
X026051Y002158D01*
X026009Y002144D01*
X025965Y002135D01*
X025921Y002129D01*
X025876Y002127D01*
X025831Y002129D01*
X025787Y002135D01*
X025743Y002144D01*
X025701Y002158D01*
X025660Y002175D01*
X025620Y002196D01*
X025582Y002220D01*
X025547Y002247D01*
X025514Y002277D01*
X025484Y002310D01*
X025457Y002345D01*
X025433Y002383D01*
X025412Y002423D01*
X025395Y002464D01*
X025381Y002506D01*
X025372Y002550D01*
X025366Y002594D01*
X025364Y002639D01*
X025364Y014253D02*
X025366Y014298D01*
X025372Y014342D01*
X025381Y014386D01*
X025395Y014428D01*
X025412Y014469D01*
X025433Y014509D01*
X025457Y014547D01*
X025484Y014582D01*
X025514Y014615D01*
X025547Y014645D01*
X025582Y014672D01*
X025620Y014696D01*
X025660Y014717D01*
X025701Y014734D01*
X025743Y014748D01*
X025787Y014757D01*
X025831Y014763D01*
X025876Y014765D01*
X025921Y014763D01*
X025965Y014757D01*
X026009Y014748D01*
X026051Y014734D01*
X026092Y014717D01*
X026132Y014696D01*
X026170Y014672D01*
X026205Y014645D01*
X026238Y014615D01*
X026268Y014582D01*
X026295Y014547D01*
X026319Y014509D01*
X026340Y014469D01*
X026357Y014428D01*
X026371Y014386D01*
X026380Y014342D01*
X026386Y014298D01*
X026388Y014253D01*
X026386Y014208D01*
X026380Y014164D01*
X026371Y014120D01*
X026357Y014078D01*
X026340Y014037D01*
X026319Y013997D01*
X026295Y013959D01*
X026268Y013924D01*
X026238Y013891D01*
X026205Y013861D01*
X026170Y013834D01*
X026132Y013810D01*
X026092Y013789D01*
X026051Y013772D01*
X026009Y013758D01*
X025965Y013749D01*
X025921Y013743D01*
X025876Y013741D01*
X025831Y013743D01*
X025787Y013749D01*
X025743Y013758D01*
X025701Y013772D01*
X025660Y013789D01*
X025620Y013810D01*
X025582Y013834D01*
X025547Y013861D01*
X025514Y013891D01*
X025484Y013924D01*
X025457Y013959D01*
X025433Y013997D01*
X025412Y014037D01*
X025395Y014078D01*
X025381Y014120D01*
X025372Y014164D01*
X025366Y014208D01*
X025364Y014253D01*
X013947Y014253D02*
X013949Y014298D01*
X013955Y014342D01*
X013964Y014386D01*
X013978Y014428D01*
X013995Y014469D01*
X014016Y014509D01*
X014040Y014547D01*
X014067Y014582D01*
X014097Y014615D01*
X014130Y014645D01*
X014165Y014672D01*
X014203Y014696D01*
X014243Y014717D01*
X014284Y014734D01*
X014326Y014748D01*
X014370Y014757D01*
X014414Y014763D01*
X014459Y014765D01*
X014504Y014763D01*
X014548Y014757D01*
X014592Y014748D01*
X014634Y014734D01*
X014675Y014717D01*
X014715Y014696D01*
X014753Y014672D01*
X014788Y014645D01*
X014821Y014615D01*
X014851Y014582D01*
X014878Y014547D01*
X014902Y014509D01*
X014923Y014469D01*
X014940Y014428D01*
X014954Y014386D01*
X014963Y014342D01*
X014969Y014298D01*
X014971Y014253D01*
X014969Y014208D01*
X014963Y014164D01*
X014954Y014120D01*
X014940Y014078D01*
X014923Y014037D01*
X014902Y013997D01*
X014878Y013959D01*
X014851Y013924D01*
X014821Y013891D01*
X014788Y013861D01*
X014753Y013834D01*
X014715Y013810D01*
X014675Y013789D01*
X014634Y013772D01*
X014592Y013758D01*
X014548Y013749D01*
X014504Y013743D01*
X014459Y013741D01*
X014414Y013743D01*
X014370Y013749D01*
X014326Y013758D01*
X014284Y013772D01*
X014243Y013789D01*
X014203Y013810D01*
X014165Y013834D01*
X014130Y013861D01*
X014097Y013891D01*
X014067Y013924D01*
X014040Y013959D01*
X014016Y013997D01*
X013995Y014037D01*
X013978Y014078D01*
X013964Y014120D01*
X013955Y014164D01*
X013949Y014208D01*
X013947Y014253D01*
X011117Y016503D02*
X011119Y016550D01*
X011125Y016596D01*
X011135Y016642D01*
X011148Y016687D01*
X011166Y016730D01*
X011187Y016772D01*
X011211Y016812D01*
X011239Y016849D01*
X011270Y016884D01*
X011304Y016917D01*
X011340Y016946D01*
X011379Y016972D01*
X011420Y016995D01*
X011463Y017014D01*
X011507Y017030D01*
X011552Y017042D01*
X011598Y017050D01*
X011645Y017054D01*
X011691Y017054D01*
X011738Y017050D01*
X011784Y017042D01*
X011829Y017030D01*
X011873Y017014D01*
X011916Y016995D01*
X011957Y016972D01*
X011996Y016946D01*
X012032Y016917D01*
X012066Y016884D01*
X012097Y016849D01*
X012125Y016812D01*
X012149Y016772D01*
X012170Y016730D01*
X012188Y016687D01*
X012201Y016642D01*
X012211Y016596D01*
X012217Y016550D01*
X012219Y016503D01*
X012217Y016456D01*
X012211Y016410D01*
X012201Y016364D01*
X012188Y016319D01*
X012170Y016276D01*
X012149Y016234D01*
X012125Y016194D01*
X012097Y016157D01*
X012066Y016122D01*
X012032Y016089D01*
X011996Y016060D01*
X011957Y016034D01*
X011916Y016011D01*
X011873Y015992D01*
X011829Y015976D01*
X011784Y015964D01*
X011738Y015956D01*
X011691Y015952D01*
X011645Y015952D01*
X011598Y015956D01*
X011552Y015964D01*
X011507Y015976D01*
X011463Y015992D01*
X011420Y016011D01*
X011379Y016034D01*
X011340Y016060D01*
X011304Y016089D01*
X011270Y016122D01*
X011239Y016157D01*
X011211Y016194D01*
X011187Y016234D01*
X011166Y016276D01*
X011148Y016319D01*
X011135Y016364D01*
X011125Y016410D01*
X011119Y016456D01*
X011117Y016503D01*
D11*
X002417Y011265D03*
X002043Y011265D03*
X001669Y011265D03*
X001669Y010241D03*
X002417Y010241D03*
M02*
