G75*
G70*
%OFA0B0*%
%FSLAX24Y24*%
%IPPOS*%
%LPD*%
%AMOC8*
5,1,8,0,0,1.08239X$1,22.5*
%
%ADD10C,0.1000*%
%ADD11C,0.0700*%
%ADD12C,0.0700*%
%ADD13OC8,0.0520*%
%ADD14C,0.0705*%
%ADD15C,0.0560*%
%ADD16OC8,0.0600*%
%ADD17C,0.0120*%
%ADD18C,0.0396*%
D10*
X007663Y002885D03*
X013845Y002885D03*
X013379Y017385D03*
X013379Y023385D03*
X008129Y023385D03*
X008129Y017385D03*
D11*
X006754Y019385D03*
X006754Y020385D03*
X006754Y021385D03*
X009754Y024385D03*
X010754Y024385D03*
X011754Y024385D03*
D12*
X013754Y021985D02*
X013754Y021285D01*
X013754Y019485D02*
X013754Y018785D01*
X015526Y018785D02*
X015526Y019485D01*
X015526Y021285D02*
X015526Y021985D01*
D13*
X017254Y022385D03*
X018254Y022385D03*
X019254Y022385D03*
X019254Y018385D03*
X018254Y018385D03*
X017254Y018385D03*
X016754Y012385D03*
X017754Y012385D03*
X015754Y004385D03*
X011754Y004385D03*
X009254Y004385D03*
X005254Y004385D03*
X004754Y012385D03*
X003754Y012385D03*
X003254Y018385D03*
X004254Y018385D03*
X002254Y018385D03*
X002254Y022385D03*
X003254Y022385D03*
X004254Y022385D03*
X010254Y012385D03*
X011254Y012385D03*
X011254Y034885D03*
X010254Y034885D03*
X004754Y034885D03*
X003754Y034885D03*
X016754Y034885D03*
X017754Y034885D03*
D14*
X018550Y033066D02*
X018051Y032568D01*
X019437Y031182D02*
X019936Y031680D01*
X016457Y028201D02*
X015958Y027703D01*
X014572Y029089D02*
X015071Y029587D01*
X013436Y031680D02*
X012937Y031182D01*
X011551Y032568D02*
X012050Y033066D01*
X009957Y028201D02*
X009458Y027703D01*
X008072Y029089D02*
X008571Y029587D01*
X006936Y031680D02*
X006437Y031182D01*
X005051Y032568D02*
X005550Y033066D01*
X003457Y028201D02*
X002958Y027703D01*
X001572Y029089D02*
X002071Y029587D01*
X002958Y010566D02*
X003457Y010068D01*
X002071Y008682D02*
X001572Y009180D01*
X005051Y005701D02*
X005550Y005203D01*
X006936Y006589D02*
X006437Y007087D01*
X008072Y006589D02*
X008571Y007087D01*
X009957Y005701D02*
X009458Y005203D01*
X011551Y010068D02*
X012050Y010566D01*
X013436Y009180D02*
X012937Y008682D01*
X014572Y006589D02*
X015071Y007087D01*
X016457Y005701D02*
X015958Y005203D01*
X018051Y010068D02*
X018550Y010566D01*
X019936Y009180D02*
X019437Y008682D01*
D15*
X012329Y002885D03*
X010754Y002885D03*
X009967Y002885D03*
X009179Y002885D03*
D16*
X008754Y036885D03*
X008754Y037885D03*
X007754Y037885D03*
X007754Y036885D03*
X006754Y036885D03*
X006754Y037885D03*
X009754Y037885D03*
X009754Y036885D03*
X010754Y036885D03*
X010754Y037885D03*
X011754Y037885D03*
X011754Y036885D03*
X012754Y036885D03*
X012754Y037885D03*
X013754Y037885D03*
X013754Y036885D03*
X014754Y036885D03*
X014754Y037885D03*
D17*
X001264Y008750D02*
X001264Y004363D01*
X001537Y004764D01*
X001537Y004764D01*
X001537Y004764D01*
X001924Y005072D01*
X001924Y005072D01*
X002385Y005253D01*
X002385Y005253D01*
X002878Y005290D01*
X002878Y005290D01*
X003360Y005180D01*
X003360Y005180D01*
X003789Y004933D01*
X003789Y004933D01*
X004126Y004570D01*
X004340Y004124D01*
X004414Y003635D01*
X004414Y003635D01*
X004340Y003145D01*
X004340Y003145D01*
X004126Y002700D01*
X004126Y002700D01*
X003789Y002337D01*
X003789Y002337D01*
X003456Y002145D01*
X018058Y002145D01*
X017924Y002197D01*
X017924Y002197D01*
X017537Y002506D01*
X017537Y002506D01*
X017258Y002914D01*
X017258Y002914D01*
X017113Y003387D01*
X017113Y003387D01*
X017113Y003882D01*
X017113Y003882D01*
X017258Y004355D01*
X017258Y004355D01*
X017537Y004764D01*
X017537Y004764D01*
X017537Y004764D01*
X017924Y005072D01*
X017924Y005072D01*
X018385Y005253D01*
X018385Y005253D01*
X018878Y005290D01*
X018878Y005290D01*
X019360Y005180D01*
X019360Y005180D01*
X019789Y004933D01*
X019789Y004933D01*
X020126Y004570D01*
X020126Y004570D01*
X020244Y004324D01*
X020244Y008750D01*
X019733Y008239D01*
X019541Y008159D01*
X019333Y008159D01*
X019141Y008239D01*
X018994Y008386D01*
X018915Y008578D01*
X018915Y008786D01*
X018994Y008978D01*
X019640Y009623D01*
X019832Y009703D01*
X020040Y009703D01*
X020232Y009623D01*
X020244Y009611D01*
X020244Y031264D01*
X020089Y031109D01*
X019768Y031431D01*
X019687Y031350D01*
X020008Y031028D01*
X019771Y030791D01*
X019706Y030744D01*
X019634Y030707D01*
X019557Y030682D01*
X019478Y030669D01*
X019397Y030669D01*
X019317Y030682D01*
X019240Y030707D01*
X019169Y030744D01*
X019117Y030781D01*
X019686Y031350D01*
X019605Y031431D01*
X019036Y030862D01*
X018999Y030913D01*
X018962Y030985D01*
X018937Y031062D01*
X018925Y031142D01*
X018925Y031222D01*
X018937Y031302D01*
X018962Y031379D01*
X018999Y031451D01*
X019046Y031516D01*
X019283Y031753D01*
X019605Y031431D01*
X019686Y031513D01*
X019365Y031834D01*
X019602Y032071D01*
X019667Y032119D01*
X019739Y032155D01*
X019816Y032180D01*
X019895Y032193D01*
X019976Y032193D01*
X020056Y032180D01*
X020132Y032155D01*
X020204Y032119D01*
X020244Y032090D01*
X020244Y037196D01*
X020126Y036950D01*
X020126Y036950D01*
X019789Y036587D01*
X019789Y036587D01*
X019360Y036339D01*
X019360Y036339D01*
X018878Y036229D01*
X018878Y036229D01*
X018385Y036266D01*
X018385Y036266D01*
X017984Y036424D01*
X017984Y035263D01*
X018184Y035063D01*
X018184Y034707D01*
X017932Y034455D01*
X017576Y034455D01*
X017324Y034707D01*
X017324Y035063D01*
X017524Y035263D01*
X017524Y036289D01*
X016659Y037155D01*
X015149Y037155D01*
X015224Y037079D01*
X015224Y036690D01*
X014984Y036450D01*
X014984Y030980D01*
X014984Y030789D01*
X011984Y027789D01*
X011984Y024852D01*
X012049Y024826D01*
X012195Y024679D01*
X012274Y024488D01*
X012274Y024281D01*
X012195Y024090D01*
X012049Y023944D01*
X011857Y023865D01*
X011651Y023865D01*
X011459Y023944D01*
X011313Y024090D01*
X011254Y024233D01*
X011195Y024090D01*
X011049Y023944D01*
X010857Y023865D01*
X010651Y023865D01*
X010459Y023944D01*
X010313Y024090D01*
X010247Y024251D01*
X010227Y024189D01*
X010190Y024117D01*
X010143Y024052D01*
X010351Y024052D01*
X010280Y024171D02*
X010217Y024171D01*
X010143Y024052D02*
X010086Y023996D01*
X010021Y023949D01*
X009950Y023912D01*
X009873Y023887D01*
X009794Y023875D01*
X009781Y023875D01*
X009781Y024357D01*
X009726Y024357D01*
X009244Y024357D01*
X009244Y024345D01*
X009257Y024265D01*
X009281Y024189D01*
X009318Y024117D01*
X009365Y024052D01*
X008268Y024052D01*
X008262Y024055D02*
X007996Y024055D01*
X007749Y023953D01*
X007561Y023764D01*
X007484Y023578D01*
X007484Y029289D01*
X007984Y029789D01*
X007984Y029980D01*
X007984Y036450D01*
X008024Y036490D01*
X008024Y030980D01*
X008024Y030789D01*
X008724Y030089D01*
X008675Y030110D01*
X008467Y030110D01*
X008275Y030030D01*
X007629Y029385D01*
X007550Y029193D01*
X007550Y028985D01*
X007629Y028793D01*
X007776Y028646D01*
X007968Y028566D01*
X008176Y028566D01*
X008368Y028646D01*
X009014Y029291D01*
X009024Y029316D01*
X009024Y028480D01*
X008659Y028115D01*
X008524Y027980D01*
X008524Y026480D01*
X008524Y026289D01*
X009963Y024851D01*
X009950Y024857D01*
X009873Y024882D01*
X009931Y024882D01*
X009873Y024882D02*
X009794Y024895D01*
X009781Y024895D01*
X009781Y024412D01*
X009726Y024412D01*
X009726Y024357D01*
X009726Y023875D01*
X009714Y023875D01*
X009635Y023887D01*
X009558Y023912D01*
X009487Y023949D01*
X009422Y023996D01*
X009365Y024052D01*
X009291Y024171D02*
X007484Y024171D01*
X007484Y024289D02*
X009253Y024289D01*
X009244Y024412D02*
X009726Y024412D01*
X009726Y024895D01*
X009714Y024895D01*
X009635Y024882D01*
X007484Y024882D01*
X007484Y024764D02*
X009412Y024764D01*
X009422Y024774D02*
X009365Y024717D01*
X009318Y024652D01*
X009281Y024580D01*
X009257Y024504D01*
X009244Y024425D01*
X009244Y024412D01*
X009264Y024526D02*
X007484Y024526D01*
X007484Y024408D02*
X009726Y024408D01*
X009726Y024526D02*
X009781Y024526D01*
X009781Y024645D02*
X009726Y024645D01*
X009726Y024764D02*
X009781Y024764D01*
X009781Y024882D02*
X009726Y024882D01*
X009635Y024882D02*
X009558Y024857D01*
X009487Y024821D01*
X009422Y024774D01*
X009314Y024645D02*
X007484Y024645D01*
X007484Y025001D02*
X009813Y025001D01*
X009694Y025119D02*
X007484Y025119D01*
X007484Y025238D02*
X009576Y025238D01*
X009457Y025356D02*
X007484Y025356D01*
X007484Y025475D02*
X009339Y025475D01*
X009220Y025593D02*
X007484Y025593D01*
X007484Y025712D02*
X009102Y025712D01*
X008983Y025830D02*
X007484Y025830D01*
X007484Y025949D02*
X008864Y025949D01*
X008746Y026068D02*
X007484Y026068D01*
X007484Y026186D02*
X008627Y026186D01*
X008524Y026305D02*
X007484Y026305D01*
X007484Y026423D02*
X008524Y026423D01*
X008524Y026542D02*
X007484Y026542D01*
X007484Y026660D02*
X008524Y026660D01*
X008524Y026779D02*
X007484Y026779D01*
X007484Y026897D02*
X008524Y026897D01*
X008524Y027016D02*
X007484Y027016D01*
X007484Y027134D02*
X008524Y027134D01*
X008524Y027253D02*
X007484Y027253D01*
X007484Y027372D02*
X008524Y027372D01*
X008524Y027490D02*
X007484Y027490D01*
X007484Y027609D02*
X008524Y027609D01*
X008524Y027727D02*
X007484Y027727D01*
X007484Y027846D02*
X008524Y027846D01*
X008524Y027964D02*
X007484Y027964D01*
X007484Y028083D02*
X008627Y028083D01*
X008745Y028201D02*
X007484Y028201D01*
X007484Y028320D02*
X008864Y028320D01*
X008982Y028438D02*
X007484Y028438D01*
X007484Y028557D02*
X009024Y028557D01*
X009024Y028676D02*
X008398Y028676D01*
X008516Y028794D02*
X009024Y028794D01*
X009024Y028913D02*
X008635Y028913D01*
X008753Y029031D02*
X009024Y029031D01*
X009024Y029150D02*
X008872Y029150D01*
X008991Y029268D02*
X009024Y029268D01*
X009254Y029885D02*
X009254Y028385D01*
X008754Y027885D01*
X008754Y026385D01*
X010754Y024385D01*
X011110Y024764D02*
X011398Y024764D01*
X011459Y024826D02*
X011313Y024679D01*
X011254Y024536D01*
X011195Y024679D01*
X011049Y024826D01*
X010857Y024905D01*
X010651Y024905D01*
X010586Y024878D01*
X008984Y026480D01*
X008984Y027505D01*
X009020Y027434D01*
X009057Y027383D01*
X009626Y027952D01*
X009707Y027871D01*
X009138Y027302D01*
X009190Y027265D01*
X009261Y027228D01*
X009338Y027203D01*
X009418Y027190D01*
X009499Y027190D01*
X009578Y027203D01*
X009655Y027228D01*
X009727Y027265D01*
X009792Y027312D01*
X010029Y027549D01*
X009708Y027871D01*
X009789Y027952D01*
X010111Y027630D01*
X010348Y027868D01*
X010395Y027933D01*
X010432Y028005D01*
X010457Y028081D01*
X010469Y028161D01*
X010469Y028242D01*
X010457Y028321D01*
X010432Y028398D01*
X010395Y028470D01*
X010358Y028521D01*
X009789Y027952D01*
X009708Y028034D01*
X010276Y028603D01*
X010225Y028640D01*
X010153Y028676D01*
X010077Y028701D01*
X009997Y028714D01*
X009916Y028714D01*
X009837Y028701D01*
X009760Y028676D01*
X009688Y028640D01*
X009623Y028592D01*
X009484Y028454D01*
X009484Y028480D01*
X009484Y029980D01*
X009349Y030115D01*
X008484Y030980D01*
X008484Y036490D01*
X008559Y036415D01*
X008949Y036415D01*
X009224Y036690D01*
X009224Y037079D01*
X008949Y037355D01*
X008559Y037355D01*
X008459Y037255D01*
X008349Y037365D01*
X008124Y037590D01*
X008224Y037690D01*
X008224Y038079D01*
X007949Y038355D01*
X007609Y038355D01*
X007484Y038480D01*
X007349Y038615D01*
X005349Y038615D01*
X005159Y038615D01*
X004524Y037980D01*
X004524Y037789D01*
X004524Y036480D01*
X004159Y036115D01*
X002659Y036115D01*
X002524Y035980D01*
X002159Y035615D01*
X002024Y035480D01*
X002024Y030980D01*
X002024Y030789D01*
X002524Y030289D01*
X002524Y029859D01*
X002514Y029883D01*
X002367Y030030D01*
X002175Y030110D01*
X001967Y030110D01*
X001775Y030030D01*
X001264Y029520D01*
X001264Y037156D01*
X001537Y036756D01*
X001537Y036756D01*
X001924Y036447D01*
X002385Y036266D01*
X002878Y036229D01*
X003360Y036339D01*
X003789Y036587D01*
X004126Y036950D01*
X004340Y037395D01*
X004414Y037885D01*
X004340Y038374D01*
X004126Y038820D01*
X003789Y039183D01*
X003456Y039375D01*
X018058Y039375D01*
X017924Y039322D01*
X017537Y039014D01*
X017258Y038605D01*
X017113Y038132D01*
X017113Y037637D01*
X017240Y037224D01*
X016984Y037480D01*
X016849Y037615D01*
X015134Y037615D01*
X015214Y037694D01*
X015214Y037845D01*
X014794Y037845D01*
X014794Y037925D01*
X014714Y037925D01*
X014714Y038345D01*
X014563Y038345D01*
X014294Y038075D01*
X014294Y037925D01*
X014714Y037925D01*
X014714Y037845D01*
X014294Y037845D01*
X014294Y037694D01*
X014374Y037615D01*
X014149Y037615D01*
X014224Y037690D01*
X014224Y038079D01*
X013949Y038355D01*
X013559Y038355D01*
X013284Y038079D01*
X013284Y037690D01*
X013359Y037615D01*
X013159Y037615D01*
X013024Y037480D01*
X012899Y037355D01*
X012559Y037355D01*
X012284Y037079D01*
X012284Y036690D01*
X012559Y036415D01*
X012949Y036415D01*
X013224Y036690D01*
X013224Y037029D01*
X013349Y037155D01*
X013359Y037155D01*
X013284Y037079D01*
X013284Y036690D01*
X013559Y036415D01*
X013949Y036415D01*
X014224Y036690D01*
X014224Y037079D01*
X014149Y037155D01*
X014359Y037155D01*
X014284Y037079D01*
X014284Y036690D01*
X014524Y036450D01*
X014524Y030980D01*
X012621Y029076D01*
X012621Y029255D01*
X012527Y029481D01*
X012354Y029654D01*
X012128Y029748D01*
X011883Y029748D01*
X011657Y029654D01*
X011484Y029481D01*
X011391Y029255D01*
X011391Y029011D01*
X011484Y028785D01*
X011657Y028612D01*
X011883Y028518D01*
X012062Y028518D01*
X011659Y028115D01*
X011524Y027980D01*
X011524Y024852D01*
X011459Y024826D01*
X011524Y024882D02*
X010912Y024882D01*
X010596Y024882D02*
X010582Y024882D01*
X010463Y025001D02*
X011524Y025001D01*
X011524Y025119D02*
X010345Y025119D01*
X010226Y025238D02*
X011524Y025238D01*
X011524Y025356D02*
X010108Y025356D01*
X009989Y025475D02*
X011524Y025475D01*
X011524Y025593D02*
X009871Y025593D01*
X009752Y025712D02*
X011524Y025712D01*
X011524Y025830D02*
X009633Y025830D01*
X009515Y025949D02*
X011524Y025949D01*
X011524Y026068D02*
X009396Y026068D01*
X009278Y026186D02*
X011524Y026186D01*
X011524Y026305D02*
X009159Y026305D01*
X009041Y026423D02*
X011524Y026423D01*
X011524Y026542D02*
X008984Y026542D01*
X008984Y026660D02*
X011524Y026660D01*
X011524Y026779D02*
X008984Y026779D01*
X008984Y026897D02*
X011524Y026897D01*
X011524Y027016D02*
X008984Y027016D01*
X008984Y027134D02*
X011524Y027134D01*
X011524Y027253D02*
X009704Y027253D01*
X009852Y027372D02*
X011524Y027372D01*
X011524Y027490D02*
X009970Y027490D01*
X009970Y027609D02*
X011524Y027609D01*
X011524Y027727D02*
X010207Y027727D01*
X010326Y027846D02*
X011524Y027846D01*
X011524Y027964D02*
X010411Y027964D01*
X010457Y028083D02*
X011627Y028083D01*
X011745Y028201D02*
X010469Y028201D01*
X010457Y028320D02*
X011864Y028320D01*
X011983Y028438D02*
X010411Y028438D01*
X010275Y028438D02*
X010112Y028438D01*
X010156Y028320D02*
X009994Y028320D01*
X010038Y028201D02*
X009875Y028201D01*
X009919Y028083D02*
X009757Y028083D01*
X009777Y027964D02*
X009801Y027964D01*
X009733Y027846D02*
X009895Y027846D01*
X009851Y027727D02*
X010014Y027727D01*
X009682Y027846D02*
X009520Y027846D01*
X009564Y027727D02*
X009401Y027727D01*
X009445Y027609D02*
X009283Y027609D01*
X009327Y027490D02*
X009164Y027490D01*
X009208Y027372D02*
X008984Y027372D01*
X008984Y027490D02*
X008991Y027490D01*
X008984Y027253D02*
X009212Y027253D01*
X009484Y028557D02*
X009587Y028557D01*
X009484Y028676D02*
X009758Y028676D01*
X009484Y028794D02*
X011480Y028794D01*
X011431Y028913D02*
X009484Y028913D01*
X009484Y029031D02*
X011391Y029031D01*
X011391Y029150D02*
X009484Y029150D01*
X009484Y029268D02*
X011396Y029268D01*
X011445Y029387D02*
X009484Y029387D01*
X009484Y029505D02*
X011508Y029505D01*
X011627Y029624D02*
X009484Y029624D01*
X009484Y029742D02*
X011870Y029742D01*
X012142Y029742D02*
X013286Y029742D01*
X013168Y029624D02*
X012385Y029624D01*
X012503Y029505D02*
X013049Y029505D01*
X012931Y029387D02*
X012566Y029387D01*
X012615Y029268D02*
X012812Y029268D01*
X012694Y029150D02*
X012621Y029150D01*
X012870Y028676D02*
X014247Y028676D01*
X014276Y028646D02*
X014468Y028566D01*
X014676Y028566D01*
X014868Y028646D01*
X015514Y029291D01*
X015593Y029483D01*
X015593Y029691D01*
X015514Y029883D01*
X015367Y030030D01*
X015175Y030110D01*
X014967Y030110D01*
X014775Y030030D01*
X014129Y029385D01*
X014050Y029193D01*
X014050Y028985D01*
X014129Y028793D01*
X014276Y028646D01*
X014129Y028794D02*
X012989Y028794D01*
X013107Y028913D02*
X014080Y028913D01*
X014050Y029031D02*
X013226Y029031D01*
X013344Y029150D02*
X014050Y029150D01*
X014081Y029268D02*
X013463Y029268D01*
X013581Y029387D02*
X014131Y029387D01*
X014250Y029505D02*
X013700Y029505D01*
X013818Y029624D02*
X014368Y029624D01*
X014487Y029742D02*
X013937Y029742D01*
X014055Y029861D02*
X014605Y029861D01*
X014724Y029979D02*
X014174Y029979D01*
X014293Y030098D02*
X014938Y030098D01*
X015203Y030098D02*
X020244Y030098D01*
X020244Y029979D02*
X015418Y029979D01*
X015523Y029861D02*
X020244Y029861D01*
X020244Y029742D02*
X018642Y029742D01*
X018628Y029748D02*
X018383Y029748D01*
X018157Y029654D01*
X017984Y029481D01*
X017891Y029255D01*
X017891Y029011D01*
X017984Y028785D01*
X018157Y028612D01*
X018383Y028518D01*
X018628Y028518D01*
X018854Y028612D01*
X019027Y028785D01*
X019121Y029011D01*
X019121Y029255D01*
X019027Y029481D01*
X018854Y029654D01*
X018628Y029748D01*
X018370Y029742D02*
X015572Y029742D01*
X015593Y029624D02*
X018127Y029624D01*
X018008Y029505D02*
X015593Y029505D01*
X015553Y029387D02*
X017945Y029387D01*
X017896Y029268D02*
X015491Y029268D01*
X015372Y029150D02*
X017891Y029150D01*
X017891Y029031D02*
X015253Y029031D01*
X015135Y028913D02*
X017931Y028913D01*
X017980Y028794D02*
X015016Y028794D01*
X014898Y028676D02*
X016258Y028676D01*
X016260Y028676D02*
X016188Y028640D01*
X016123Y028592D01*
X015886Y028355D01*
X016207Y028034D01*
X016126Y027952D01*
X016207Y027871D01*
X015638Y027302D01*
X015690Y027265D01*
X015761Y027228D01*
X015838Y027203D01*
X015918Y027190D01*
X015999Y027190D01*
X016078Y027203D01*
X016155Y027228D01*
X016227Y027265D01*
X016292Y027312D01*
X016529Y027549D01*
X016208Y027871D01*
X016289Y027952D01*
X016611Y027630D01*
X016848Y027868D01*
X016895Y027933D01*
X016932Y028005D01*
X016957Y028081D01*
X016969Y028161D01*
X016969Y028242D01*
X016957Y028321D01*
X016932Y028398D01*
X016895Y028470D01*
X016858Y028521D01*
X016289Y027952D01*
X016208Y028034D01*
X016776Y028603D01*
X016725Y028640D01*
X016653Y028676D01*
X016577Y028701D01*
X016497Y028714D01*
X016416Y028714D01*
X016337Y028701D01*
X016260Y028676D01*
X016087Y028557D02*
X012751Y028557D01*
X012633Y028438D02*
X015969Y028438D01*
X015921Y028320D02*
X012514Y028320D01*
X012396Y028201D02*
X015732Y028201D01*
X015804Y028274D02*
X015567Y028037D01*
X015520Y027972D01*
X015483Y027900D01*
X015458Y027823D01*
X015446Y027743D01*
X015446Y027663D01*
X015458Y027583D01*
X015483Y027506D01*
X015520Y027434D01*
X015557Y027383D01*
X016126Y027952D01*
X015804Y028274D01*
X015877Y028201D02*
X016040Y028201D01*
X015996Y028083D02*
X016158Y028083D01*
X016257Y028083D02*
X016419Y028083D01*
X016375Y028201D02*
X016538Y028201D01*
X016494Y028320D02*
X016656Y028320D01*
X016612Y028438D02*
X016775Y028438D01*
X016731Y028557D02*
X018289Y028557D01*
X018093Y028676D02*
X016655Y028676D01*
X016911Y028438D02*
X020244Y028438D01*
X020244Y028320D02*
X016957Y028320D01*
X016969Y028201D02*
X020244Y028201D01*
X020244Y028083D02*
X016957Y028083D01*
X016911Y027964D02*
X020244Y027964D01*
X020244Y027846D02*
X016826Y027846D01*
X016707Y027727D02*
X020244Y027727D01*
X020244Y027609D02*
X016470Y027609D01*
X016470Y027490D02*
X020244Y027490D01*
X020244Y027372D02*
X016352Y027372D01*
X016204Y027253D02*
X020244Y027253D01*
X020244Y027134D02*
X011984Y027134D01*
X011984Y027016D02*
X020244Y027016D01*
X020244Y026897D02*
X011984Y026897D01*
X011984Y026779D02*
X020244Y026779D01*
X020244Y026660D02*
X011984Y026660D01*
X011984Y026542D02*
X020244Y026542D01*
X020244Y026423D02*
X011984Y026423D01*
X011984Y026305D02*
X020244Y026305D01*
X020244Y026186D02*
X011984Y026186D01*
X011984Y026068D02*
X020244Y026068D01*
X020244Y025949D02*
X011984Y025949D01*
X011984Y025830D02*
X020244Y025830D01*
X020244Y025712D02*
X011984Y025712D01*
X011984Y025593D02*
X020244Y025593D01*
X020244Y025475D02*
X011984Y025475D01*
X011984Y025356D02*
X020244Y025356D01*
X020244Y025238D02*
X011984Y025238D01*
X011984Y025119D02*
X020244Y025119D01*
X020244Y025001D02*
X011984Y025001D01*
X011984Y024882D02*
X020244Y024882D01*
X020244Y024764D02*
X012110Y024764D01*
X012209Y024645D02*
X020244Y024645D01*
X020244Y024526D02*
X012258Y024526D01*
X012274Y024408D02*
X020244Y024408D01*
X020244Y024289D02*
X012274Y024289D01*
X012228Y024171D02*
X020244Y024171D01*
X020244Y024052D02*
X013518Y024052D01*
X013512Y024055D02*
X013246Y024055D01*
X012999Y023953D01*
X012811Y023764D01*
X012709Y023518D01*
X012709Y023251D01*
X012811Y023005D01*
X012999Y022817D01*
X013246Y022715D01*
X013512Y022715D01*
X013759Y022817D01*
X013947Y023005D01*
X014049Y023251D01*
X014049Y023518D01*
X013947Y023764D01*
X013759Y023953D01*
X013512Y024055D01*
X013240Y024052D02*
X012157Y024052D01*
X012024Y023934D02*
X012981Y023934D01*
X012862Y023815D02*
X008646Y023815D01*
X008697Y023764D02*
X008509Y023953D01*
X008262Y024055D01*
X007990Y024052D02*
X007484Y024052D01*
X007484Y023934D02*
X007731Y023934D01*
X007612Y023815D02*
X007484Y023815D01*
X007484Y023697D02*
X007533Y023697D01*
X007484Y023191D02*
X007561Y023005D01*
X007749Y022817D01*
X007996Y022715D01*
X008262Y022715D01*
X008509Y022817D01*
X008697Y023005D01*
X008799Y023251D01*
X008799Y023518D01*
X008697Y023764D01*
X008725Y023697D02*
X012783Y023697D01*
X012734Y023578D02*
X008774Y023578D01*
X008799Y023460D02*
X012709Y023460D01*
X012709Y023341D02*
X008799Y023341D01*
X008787Y023223D02*
X012721Y023223D01*
X012770Y023104D02*
X008738Y023104D01*
X008677Y022985D02*
X012831Y022985D01*
X012949Y022867D02*
X008559Y022867D01*
X008343Y022748D02*
X013165Y022748D01*
X013422Y022374D02*
X013365Y022317D01*
X013318Y022252D01*
X013281Y022180D01*
X013257Y022104D01*
X013244Y022025D01*
X013244Y021683D01*
X013705Y021683D01*
X013705Y021586D01*
X013244Y021586D01*
X013244Y021245D01*
X013257Y021165D01*
X013281Y021089D01*
X013318Y021017D01*
X013365Y020952D01*
X013422Y020896D01*
X013487Y020849D01*
X013558Y020812D01*
X013635Y020787D01*
X013706Y020776D01*
X013706Y021586D01*
X013802Y021586D01*
X013802Y020776D01*
X013873Y020787D01*
X013950Y020812D01*
X014021Y020849D01*
X014086Y020896D01*
X014143Y020952D01*
X014190Y021017D01*
X014227Y021089D01*
X014251Y021165D01*
X014264Y021245D01*
X014264Y021586D01*
X013803Y021586D01*
X013803Y021683D01*
X014264Y021683D01*
X014264Y022025D01*
X014251Y022104D01*
X014227Y022180D01*
X014190Y022252D01*
X014143Y022317D01*
X014086Y022374D01*
X014021Y022421D01*
X013950Y022457D01*
X013873Y022482D01*
X013802Y022493D01*
X013802Y021683D01*
X013706Y021683D01*
X013706Y022493D01*
X013635Y022482D01*
X013558Y022457D01*
X013487Y022421D01*
X013422Y022374D01*
X013448Y022393D02*
X007484Y022393D01*
X007484Y022511D02*
X016824Y022511D01*
X016824Y022563D02*
X016824Y022207D01*
X017076Y021955D01*
X017432Y021955D01*
X017684Y022207D01*
X017684Y022563D01*
X017432Y022815D01*
X017076Y022815D01*
X016824Y022563D01*
X016891Y022630D02*
X007484Y022630D01*
X007484Y022748D02*
X007915Y022748D01*
X007699Y022867D02*
X007484Y022867D01*
X007484Y022985D02*
X007581Y022985D01*
X007520Y023104D02*
X007484Y023104D01*
X007484Y023191D02*
X007484Y021980D01*
X007734Y021730D01*
X007734Y021539D01*
X007734Y021230D01*
X007734Y021039D01*
X007247Y020553D01*
X007274Y020488D01*
X007274Y020281D01*
X007195Y020090D01*
X007049Y019944D01*
X006888Y019877D01*
X006950Y019857D01*
X007021Y019821D01*
X007086Y019774D01*
X007143Y019717D01*
X007190Y019652D01*
X007227Y019580D01*
X007251Y019504D01*
X007264Y019425D01*
X007264Y019412D01*
X006782Y019412D01*
X006782Y019357D01*
X007264Y019357D01*
X007264Y019345D01*
X007251Y019265D01*
X007227Y019189D01*
X007190Y019117D01*
X007143Y019052D01*
X007086Y018996D01*
X007021Y018949D01*
X006950Y018912D01*
X006873Y018887D01*
X006794Y018875D01*
X006781Y018875D01*
X006781Y019357D01*
X006726Y019357D01*
X006244Y019357D01*
X006244Y019345D01*
X006257Y019265D01*
X006281Y019189D01*
X006318Y019117D01*
X006365Y019052D01*
X006422Y018996D01*
X006487Y018949D01*
X006558Y018912D01*
X006635Y018887D01*
X006714Y018875D01*
X006726Y018875D01*
X006726Y019357D01*
X006726Y019412D01*
X006244Y019412D01*
X006244Y019425D01*
X006257Y019504D01*
X006281Y019580D01*
X006318Y019652D01*
X006365Y019717D01*
X006422Y019774D01*
X006487Y019821D01*
X006558Y019857D01*
X006620Y019877D01*
X006459Y019944D01*
X006313Y020090D01*
X006234Y020281D01*
X006234Y020488D01*
X006313Y020679D01*
X006459Y020826D01*
X006602Y020885D01*
X006459Y020944D01*
X006313Y021090D01*
X006234Y021281D01*
X006234Y021488D01*
X006313Y021679D01*
X006459Y021826D01*
X006651Y021905D01*
X006857Y021905D01*
X007024Y021836D01*
X007024Y029480D01*
X007159Y029615D01*
X007524Y029980D01*
X007524Y036450D01*
X007284Y036690D01*
X007284Y037079D01*
X007359Y037155D01*
X007349Y037155D01*
X007224Y037029D01*
X007224Y036690D01*
X006949Y036415D01*
X006559Y036415D01*
X006484Y036490D01*
X006484Y032980D01*
X006484Y032789D01*
X005984Y032289D01*
X005984Y031421D01*
X005999Y031451D01*
X006046Y031516D01*
X006283Y031753D01*
X006605Y031431D01*
X006686Y031513D01*
X006365Y031834D01*
X006602Y032071D01*
X006667Y032119D01*
X006739Y032155D01*
X006816Y032180D01*
X006895Y032193D01*
X006976Y032193D01*
X007056Y032180D01*
X007132Y032155D01*
X007204Y032119D01*
X007255Y032082D01*
X006687Y031513D01*
X006768Y031431D01*
X007089Y031109D01*
X007327Y031347D01*
X007374Y031412D01*
X007411Y031484D01*
X007436Y031560D01*
X007448Y031640D01*
X007448Y031721D01*
X007436Y031800D01*
X007411Y031877D01*
X007374Y031949D01*
X007337Y032000D01*
X006768Y031431D01*
X006687Y031350D01*
X007008Y031028D01*
X006771Y030791D01*
X006706Y030744D01*
X006634Y030707D01*
X006557Y030682D01*
X006478Y030669D01*
X006397Y030669D01*
X006317Y030682D01*
X006265Y030699D01*
X006349Y030615D01*
X006484Y030480D01*
X006484Y025675D01*
X006566Y025593D01*
X006622Y025458D01*
X006622Y025311D01*
X006566Y025176D01*
X006463Y025073D01*
X006327Y025017D01*
X006181Y025017D01*
X006045Y025073D01*
X005942Y025176D01*
X005886Y025311D01*
X005886Y025458D01*
X005942Y025593D01*
X006024Y025675D01*
X006024Y028782D01*
X005854Y028612D01*
X005628Y028518D01*
X005383Y028518D01*
X005157Y028612D01*
X004984Y028785D01*
X004891Y029011D01*
X004891Y029255D01*
X004984Y029481D01*
X005157Y029654D01*
X005383Y029748D01*
X005628Y029748D01*
X005854Y029654D01*
X006024Y029484D01*
X006024Y030289D01*
X005524Y030789D01*
X005524Y030980D01*
X005524Y032302D01*
X005347Y032125D01*
X005155Y032045D01*
X004947Y032045D01*
X004755Y032125D01*
X004608Y032272D01*
X004529Y032464D01*
X004529Y032672D01*
X004608Y032864D01*
X005254Y033509D01*
X005446Y033589D01*
X005654Y033589D01*
X005846Y033509D01*
X005993Y033362D01*
X006024Y033287D01*
X006024Y037480D01*
X006159Y037615D01*
X006284Y037740D01*
X006284Y038079D01*
X006359Y038155D01*
X005349Y038155D01*
X004984Y037789D01*
X004984Y036289D01*
X004849Y036155D01*
X004349Y035655D01*
X004159Y035655D01*
X002849Y035655D01*
X002484Y035289D01*
X002484Y031988D01*
X002654Y032158D01*
X002880Y032251D01*
X003125Y032251D01*
X003351Y032158D01*
X003524Y031985D01*
X003617Y031759D01*
X003617Y031514D01*
X003524Y031288D01*
X003351Y031115D01*
X003125Y031021D01*
X002880Y031021D01*
X002654Y031115D01*
X002484Y031285D01*
X002484Y030980D01*
X002849Y030615D01*
X002984Y030480D01*
X002984Y029480D01*
X002984Y029289D01*
X002484Y028789D01*
X002484Y027901D01*
X002520Y027972D01*
X002567Y028037D01*
X002804Y028274D01*
X003126Y027952D01*
X003207Y028034D01*
X002886Y028355D01*
X003123Y028592D01*
X003188Y028640D01*
X003260Y028676D01*
X003337Y028701D01*
X003416Y028714D01*
X003497Y028714D01*
X003577Y028701D01*
X003653Y028676D01*
X003725Y028640D01*
X003776Y028603D01*
X003208Y028034D01*
X003289Y027952D01*
X003611Y027630D01*
X003848Y027868D01*
X003895Y027933D01*
X003932Y028005D01*
X003957Y028081D01*
X003969Y028161D01*
X003969Y028242D01*
X003957Y028321D01*
X003932Y028398D01*
X003895Y028470D01*
X003858Y028521D01*
X003289Y027952D01*
X003208Y027871D01*
X003529Y027549D01*
X003292Y027312D01*
X003227Y027265D01*
X003155Y027228D01*
X003078Y027203D01*
X002999Y027190D01*
X002918Y027190D01*
X002838Y027203D01*
X002761Y027228D01*
X002709Y027255D01*
X002849Y027115D01*
X002984Y026980D01*
X002984Y022723D01*
X003076Y022815D01*
X003359Y022815D01*
X003524Y022980D01*
X003524Y025789D01*
X003524Y025980D01*
X004024Y026480D01*
X004159Y026615D01*
X004963Y026615D01*
X005045Y026697D01*
X005181Y026753D01*
X005327Y026753D01*
X005463Y026697D01*
X005566Y026593D01*
X005622Y026458D01*
X005622Y026311D01*
X005566Y026176D01*
X005463Y026073D01*
X005327Y026017D01*
X005181Y026017D01*
X005045Y026073D01*
X004963Y026155D01*
X004349Y026155D01*
X003984Y025789D01*
X003984Y022789D01*
X003849Y022655D01*
X003684Y022489D01*
X003684Y022207D01*
X003432Y021955D01*
X003076Y021955D01*
X002984Y022047D01*
X002984Y018709D01*
X003080Y018805D01*
X003234Y018805D01*
X003234Y018405D01*
X003274Y018405D01*
X003274Y018805D01*
X003428Y018805D01*
X003674Y018559D01*
X003674Y018405D01*
X003274Y018405D01*
X003274Y018365D01*
X003674Y018365D01*
X003674Y018211D01*
X003428Y017965D01*
X003274Y017965D01*
X003274Y018364D01*
X003234Y018364D01*
X003234Y017965D01*
X003080Y017965D01*
X002984Y018061D01*
X002984Y011480D01*
X002984Y011289D01*
X002709Y011015D01*
X002761Y011041D01*
X002838Y011066D01*
X002918Y011079D01*
X002999Y011079D01*
X003078Y011066D01*
X003155Y011041D01*
X003227Y011005D01*
X003292Y010957D01*
X003529Y010720D01*
X003208Y010399D01*
X003289Y010317D01*
X003858Y009748D01*
X003895Y009799D01*
X003932Y009871D01*
X003957Y009948D01*
X003969Y010028D01*
X003969Y010108D01*
X003957Y010188D01*
X003932Y010265D01*
X003895Y010336D01*
X003848Y010402D01*
X003610Y010639D01*
X003289Y010317D01*
X003208Y010236D01*
X003776Y009667D01*
X003725Y009630D01*
X003653Y009593D01*
X003577Y009568D01*
X003497Y009555D01*
X003416Y009555D01*
X003337Y009568D01*
X003260Y009593D01*
X003188Y009630D01*
X003123Y009677D01*
X002886Y009914D01*
X003207Y010236D01*
X003126Y010317D01*
X002804Y009995D01*
X002567Y010233D01*
X002520Y010298D01*
X002484Y010368D01*
X002484Y009980D01*
X008349Y004115D01*
X008916Y004115D01*
X008824Y004207D01*
X008824Y004563D01*
X009076Y004815D01*
X009108Y004815D01*
X009015Y004907D01*
X008936Y005099D01*
X008936Y005307D01*
X009015Y005499D01*
X009661Y006144D01*
X009853Y006224D01*
X010061Y006224D01*
X010253Y006144D01*
X010400Y005997D01*
X010479Y005805D01*
X010479Y005598D01*
X010400Y005406D01*
X009754Y004760D01*
X009565Y004682D01*
X009684Y004563D01*
X009684Y004207D01*
X009592Y004115D01*
X010159Y004115D01*
X010349Y004115D01*
X010849Y003615D01*
X010984Y003480D01*
X010984Y003276D01*
X011009Y003266D01*
X011135Y003140D01*
X011204Y002974D01*
X011204Y002795D01*
X011135Y002630D01*
X011009Y002503D01*
X010844Y002435D01*
X010664Y002435D01*
X010499Y002503D01*
X010373Y002630D01*
X010360Y002659D01*
X010348Y002630D01*
X010221Y002503D01*
X010056Y002435D01*
X009877Y002435D01*
X009712Y002503D01*
X009585Y002630D01*
X009573Y002659D01*
X009561Y002630D01*
X009434Y002503D01*
X009269Y002435D01*
X009090Y002435D01*
X008924Y002503D01*
X008798Y002630D01*
X008729Y002795D01*
X008729Y002974D01*
X008798Y003140D01*
X008924Y003266D01*
X009090Y003335D01*
X009269Y003335D01*
X009434Y003266D01*
X009561Y003140D01*
X009573Y003110D01*
X009585Y003140D01*
X009712Y003266D01*
X009877Y003335D01*
X010056Y003335D01*
X010221Y003266D01*
X010348Y003140D01*
X010360Y003110D01*
X010373Y003140D01*
X010499Y003266D01*
X010524Y003276D01*
X010524Y003289D01*
X010159Y003655D01*
X008159Y003655D01*
X008024Y003789D01*
X002024Y009789D01*
X002024Y009980D01*
X002024Y010980D01*
X002159Y011115D01*
X002524Y011480D01*
X002524Y018061D01*
X002428Y017965D01*
X002274Y017965D01*
X002274Y018364D01*
X002234Y018364D01*
X002234Y017965D01*
X002080Y017965D01*
X001834Y018211D01*
X001834Y018365D01*
X002234Y018365D01*
X002234Y018405D01*
X002234Y018805D01*
X002080Y018805D01*
X001834Y018559D01*
X001834Y018405D01*
X002234Y018405D01*
X002274Y018405D01*
X002274Y018805D01*
X002428Y018805D01*
X002524Y018709D01*
X002524Y022047D01*
X002432Y021955D01*
X002076Y021955D01*
X001824Y022207D01*
X001824Y022563D01*
X002076Y022815D01*
X002432Y022815D01*
X002524Y022723D01*
X002524Y026789D01*
X002024Y027289D01*
X002024Y027480D01*
X002024Y028802D01*
X001868Y028646D01*
X001676Y028566D01*
X001468Y028566D01*
X001276Y028646D01*
X001264Y028658D01*
X001264Y009611D01*
X001276Y009623D01*
X001468Y009703D01*
X001676Y009703D01*
X001868Y009623D01*
X002514Y008978D01*
X002593Y008786D01*
X002593Y008578D01*
X002514Y008386D01*
X002367Y008239D01*
X002175Y008159D01*
X001967Y008159D01*
X001775Y008239D01*
X001264Y008750D01*
X001264Y008642D02*
X001372Y008642D01*
X001264Y008523D02*
X001491Y008523D01*
X001609Y008405D02*
X001264Y008405D01*
X001264Y008286D02*
X001728Y008286D01*
X001947Y008168D02*
X001264Y008168D01*
X001264Y008049D02*
X003764Y008049D01*
X003646Y008168D02*
X002194Y008168D01*
X002414Y008286D02*
X003527Y008286D01*
X003409Y008405D02*
X002521Y008405D01*
X002571Y008523D02*
X003290Y008523D01*
X003172Y008642D02*
X002593Y008642D01*
X002593Y008760D02*
X003053Y008760D01*
X002935Y008879D02*
X002555Y008879D01*
X002494Y008997D02*
X002816Y008997D01*
X002698Y009116D02*
X002376Y009116D01*
X002257Y009234D02*
X002579Y009234D01*
X002461Y009353D02*
X002139Y009353D01*
X002020Y009471D02*
X002342Y009471D01*
X002223Y009590D02*
X001902Y009590D01*
X002105Y009709D02*
X001264Y009709D01*
X001264Y009827D02*
X002024Y009827D01*
X002024Y009946D02*
X001264Y009946D01*
X001264Y010064D02*
X002024Y010064D01*
X002024Y010183D02*
X001264Y010183D01*
X001264Y010301D02*
X002024Y010301D01*
X002024Y010420D02*
X001264Y010420D01*
X001264Y010538D02*
X002024Y010538D01*
X002024Y010657D02*
X001264Y010657D01*
X001264Y010775D02*
X002024Y010775D01*
X002024Y010894D02*
X001264Y010894D01*
X001264Y011013D02*
X002057Y011013D01*
X002175Y011131D02*
X001264Y011131D01*
X001264Y011250D02*
X002294Y011250D01*
X002412Y011368D02*
X001264Y011368D01*
X001264Y011487D02*
X002524Y011487D01*
X002524Y011605D02*
X001264Y011605D01*
X001264Y011724D02*
X002524Y011724D01*
X002524Y011842D02*
X001264Y011842D01*
X001264Y011961D02*
X002524Y011961D01*
X002524Y012079D02*
X001264Y012079D01*
X001264Y012198D02*
X002524Y012198D01*
X002524Y012317D02*
X001264Y012317D01*
X001264Y012435D02*
X002524Y012435D01*
X002524Y012554D02*
X001264Y012554D01*
X001264Y012672D02*
X002524Y012672D01*
X002524Y012791D02*
X001264Y012791D01*
X001264Y012909D02*
X002524Y012909D01*
X002524Y013028D02*
X001264Y013028D01*
X001264Y013146D02*
X002524Y013146D01*
X002524Y013265D02*
X001264Y013265D01*
X001264Y013383D02*
X002524Y013383D01*
X002524Y013502D02*
X001264Y013502D01*
X001264Y013621D02*
X002524Y013621D01*
X002524Y013739D02*
X001264Y013739D01*
X001264Y013858D02*
X002524Y013858D01*
X002524Y013976D02*
X001264Y013976D01*
X001264Y014095D02*
X002524Y014095D01*
X002524Y014213D02*
X001264Y014213D01*
X001264Y014332D02*
X002524Y014332D01*
X002524Y014450D02*
X001264Y014450D01*
X001264Y014569D02*
X002524Y014569D01*
X002524Y014687D02*
X001264Y014687D01*
X001264Y014806D02*
X002524Y014806D01*
X002524Y014924D02*
X001264Y014924D01*
X001264Y015043D02*
X002524Y015043D01*
X002524Y015162D02*
X001264Y015162D01*
X001264Y015280D02*
X002524Y015280D01*
X002524Y015399D02*
X001264Y015399D01*
X001264Y015517D02*
X002524Y015517D01*
X002524Y015636D02*
X001264Y015636D01*
X001264Y015754D02*
X002524Y015754D01*
X002524Y015873D02*
X001264Y015873D01*
X001264Y015991D02*
X002524Y015991D01*
X002524Y016110D02*
X001264Y016110D01*
X001264Y016228D02*
X002524Y016228D01*
X002524Y016347D02*
X001264Y016347D01*
X001264Y016466D02*
X002524Y016466D01*
X002524Y016584D02*
X001264Y016584D01*
X001264Y016703D02*
X002524Y016703D01*
X002524Y016821D02*
X001264Y016821D01*
X001264Y016940D02*
X002524Y016940D01*
X002524Y017058D02*
X001264Y017058D01*
X001264Y017177D02*
X002524Y017177D01*
X002524Y017295D02*
X001264Y017295D01*
X001264Y017414D02*
X002524Y017414D01*
X002524Y017532D02*
X001264Y017532D01*
X001264Y017651D02*
X002524Y017651D01*
X002524Y017770D02*
X001264Y017770D01*
X001264Y017888D02*
X002524Y017888D01*
X002524Y018007D02*
X002470Y018007D01*
X002274Y018007D02*
X002234Y018007D01*
X002234Y018125D02*
X002274Y018125D01*
X002274Y018244D02*
X002234Y018244D01*
X002234Y018362D02*
X002274Y018362D01*
X002274Y018481D02*
X002234Y018481D01*
X002234Y018599D02*
X002274Y018599D01*
X002274Y018718D02*
X002234Y018718D01*
X001993Y018718D02*
X001264Y018718D01*
X001264Y018836D02*
X002524Y018836D01*
X002515Y018718D02*
X002524Y018718D01*
X002524Y018955D02*
X001264Y018955D01*
X001264Y019074D02*
X002524Y019074D01*
X002524Y019192D02*
X001264Y019192D01*
X001264Y019311D02*
X002524Y019311D01*
X002524Y019429D02*
X001264Y019429D01*
X001264Y019548D02*
X002524Y019548D01*
X002524Y019666D02*
X001264Y019666D01*
X001264Y019785D02*
X002524Y019785D01*
X002524Y019903D02*
X001264Y019903D01*
X001264Y020022D02*
X002524Y020022D01*
X002524Y020140D02*
X001264Y020140D01*
X001264Y020259D02*
X002524Y020259D01*
X002524Y020377D02*
X001264Y020377D01*
X001264Y020496D02*
X002524Y020496D01*
X002524Y020615D02*
X001264Y020615D01*
X001264Y020733D02*
X002524Y020733D01*
X002524Y020852D02*
X001264Y020852D01*
X001264Y020970D02*
X002524Y020970D01*
X002524Y021089D02*
X001264Y021089D01*
X001264Y021207D02*
X002524Y021207D01*
X002524Y021326D02*
X001264Y021326D01*
X001264Y021444D02*
X002524Y021444D01*
X002524Y021563D02*
X001264Y021563D01*
X001264Y021681D02*
X002524Y021681D01*
X002524Y021800D02*
X001264Y021800D01*
X001264Y021919D02*
X002524Y021919D01*
X002514Y022037D02*
X002524Y022037D01*
X002984Y022037D02*
X002994Y022037D01*
X002984Y021919D02*
X007024Y021919D01*
X007024Y022037D02*
X004514Y022037D01*
X004432Y021955D02*
X004684Y022207D01*
X004684Y022563D01*
X004432Y022815D01*
X004076Y022815D01*
X003824Y022563D01*
X003824Y022207D01*
X004076Y021955D01*
X004432Y021955D01*
X004633Y022156D02*
X007024Y022156D01*
X007024Y022274D02*
X004684Y022274D01*
X004684Y022393D02*
X007024Y022393D01*
X007024Y022511D02*
X004684Y022511D01*
X004617Y022630D02*
X007024Y022630D01*
X007024Y022748D02*
X004498Y022748D01*
X004010Y022748D02*
X003943Y022748D01*
X003984Y022867D02*
X007024Y022867D01*
X007024Y022985D02*
X003984Y022985D01*
X003984Y023104D02*
X007024Y023104D01*
X007024Y023223D02*
X003984Y023223D01*
X003984Y023341D02*
X007024Y023341D01*
X007024Y023460D02*
X003984Y023460D01*
X003984Y023578D02*
X007024Y023578D01*
X007024Y023697D02*
X003984Y023697D01*
X003984Y023815D02*
X007024Y023815D01*
X007024Y023934D02*
X003984Y023934D01*
X003984Y024052D02*
X007024Y024052D01*
X007024Y024171D02*
X003984Y024171D01*
X003984Y024289D02*
X007024Y024289D01*
X007024Y024408D02*
X003984Y024408D01*
X003984Y024526D02*
X007024Y024526D01*
X007024Y024645D02*
X003984Y024645D01*
X003984Y024764D02*
X007024Y024764D01*
X007024Y024882D02*
X003984Y024882D01*
X003984Y025001D02*
X007024Y025001D01*
X007024Y025119D02*
X006509Y025119D01*
X006592Y025238D02*
X007024Y025238D01*
X007024Y025356D02*
X006622Y025356D01*
X006615Y025475D02*
X007024Y025475D01*
X007024Y025593D02*
X006566Y025593D01*
X006484Y025712D02*
X007024Y025712D01*
X007024Y025830D02*
X006484Y025830D01*
X006484Y025949D02*
X007024Y025949D01*
X007024Y026068D02*
X006484Y026068D01*
X006484Y026186D02*
X007024Y026186D01*
X007024Y026305D02*
X006484Y026305D01*
X006484Y026423D02*
X007024Y026423D01*
X007024Y026542D02*
X006484Y026542D01*
X006484Y026660D02*
X007024Y026660D01*
X007024Y026779D02*
X006484Y026779D01*
X006484Y026897D02*
X007024Y026897D01*
X007024Y027016D02*
X006484Y027016D01*
X006484Y027134D02*
X007024Y027134D01*
X007024Y027253D02*
X006484Y027253D01*
X006484Y027372D02*
X007024Y027372D01*
X007024Y027490D02*
X006484Y027490D01*
X006484Y027609D02*
X007024Y027609D01*
X007024Y027727D02*
X006484Y027727D01*
X006484Y027846D02*
X007024Y027846D01*
X007024Y027964D02*
X006484Y027964D01*
X006484Y028083D02*
X007024Y028083D01*
X007024Y028201D02*
X006484Y028201D01*
X006484Y028320D02*
X007024Y028320D01*
X007024Y028438D02*
X006484Y028438D01*
X006484Y028557D02*
X007024Y028557D01*
X007024Y028676D02*
X006484Y028676D01*
X006484Y028794D02*
X007024Y028794D01*
X007024Y028913D02*
X006484Y028913D01*
X006484Y029031D02*
X007024Y029031D01*
X007024Y029150D02*
X006484Y029150D01*
X006484Y029268D02*
X007024Y029268D01*
X007024Y029387D02*
X006484Y029387D01*
X006484Y029505D02*
X007049Y029505D01*
X007168Y029624D02*
X006484Y029624D01*
X006484Y029742D02*
X007286Y029742D01*
X007405Y029861D02*
X006484Y029861D01*
X006484Y029979D02*
X007524Y029979D01*
X007524Y030098D02*
X006484Y030098D01*
X006484Y030217D02*
X007524Y030217D01*
X007524Y030335D02*
X006484Y030335D01*
X006484Y030454D02*
X007524Y030454D01*
X007524Y030572D02*
X006392Y030572D01*
X006291Y030691D02*
X006273Y030691D01*
X006254Y030385D02*
X006254Y025385D01*
X006024Y025712D02*
X003984Y025712D01*
X003984Y025593D02*
X005942Y025593D01*
X005893Y025475D02*
X003984Y025475D01*
X003984Y025356D02*
X005886Y025356D01*
X005916Y025238D02*
X003984Y025238D01*
X003984Y025119D02*
X005999Y025119D01*
X006024Y025830D02*
X004025Y025830D01*
X004144Y025949D02*
X006024Y025949D01*
X006024Y026068D02*
X005450Y026068D01*
X005570Y026186D02*
X006024Y026186D01*
X006024Y026305D02*
X005619Y026305D01*
X005622Y026423D02*
X006024Y026423D01*
X006024Y026542D02*
X005587Y026542D01*
X005499Y026660D02*
X006024Y026660D01*
X006024Y026779D02*
X002984Y026779D01*
X002984Y026897D02*
X006024Y026897D01*
X006024Y027016D02*
X002948Y027016D01*
X002829Y027134D02*
X006024Y027134D01*
X006024Y027253D02*
X003204Y027253D01*
X003352Y027372D02*
X006024Y027372D01*
X006024Y027490D02*
X003470Y027490D01*
X003470Y027609D02*
X006024Y027609D01*
X006024Y027727D02*
X003707Y027727D01*
X003826Y027846D02*
X006024Y027846D01*
X006024Y027964D02*
X003911Y027964D01*
X003957Y028083D02*
X006024Y028083D01*
X006024Y028201D02*
X003969Y028201D01*
X003957Y028320D02*
X006024Y028320D01*
X006024Y028438D02*
X003911Y028438D01*
X003775Y028438D02*
X003612Y028438D01*
X003656Y028320D02*
X003494Y028320D01*
X003538Y028201D02*
X003375Y028201D01*
X003419Y028083D02*
X003257Y028083D01*
X003158Y028083D02*
X002996Y028083D01*
X003040Y028201D02*
X002877Y028201D01*
X002921Y028320D02*
X002484Y028320D01*
X002484Y028438D02*
X002969Y028438D01*
X003087Y028557D02*
X002484Y028557D01*
X002484Y028676D02*
X003258Y028676D01*
X003655Y028676D02*
X005093Y028676D01*
X004980Y028794D02*
X002489Y028794D01*
X002607Y028913D02*
X004931Y028913D01*
X004891Y029031D02*
X002726Y029031D01*
X002844Y029150D02*
X004891Y029150D01*
X004896Y029268D02*
X002963Y029268D01*
X002984Y029387D02*
X004945Y029387D01*
X005008Y029505D02*
X002984Y029505D01*
X002984Y029624D02*
X005127Y029624D01*
X005370Y029742D02*
X002984Y029742D01*
X002984Y029861D02*
X006024Y029861D01*
X006024Y029979D02*
X002984Y029979D01*
X002984Y030098D02*
X006024Y030098D01*
X006024Y030217D02*
X002984Y030217D01*
X002984Y030335D02*
X005978Y030335D01*
X005860Y030454D02*
X002984Y030454D01*
X002892Y030572D02*
X005741Y030572D01*
X005623Y030691D02*
X002773Y030691D01*
X002655Y030809D02*
X005524Y030809D01*
X005524Y030928D02*
X002536Y030928D01*
X002484Y031046D02*
X002819Y031046D01*
X002604Y031165D02*
X002484Y031165D01*
X002484Y031283D02*
X002485Y031283D01*
X002254Y030885D02*
X002754Y030385D01*
X002754Y029385D01*
X002254Y028885D01*
X002254Y027385D01*
X002754Y026885D01*
X002754Y011385D01*
X002254Y010885D01*
X002254Y009885D01*
X008254Y003885D01*
X010254Y003885D01*
X010754Y003385D01*
X010754Y002885D01*
X011171Y002715D02*
X011922Y002715D01*
X011921Y002716D02*
X011952Y002654D01*
X011993Y002598D01*
X012042Y002549D01*
X012098Y002508D01*
X012160Y002477D01*
X012226Y002456D01*
X012294Y002445D01*
X012320Y002445D01*
X012320Y002876D01*
X011889Y002876D01*
X011889Y002850D01*
X011900Y002782D01*
X011921Y002716D01*
X011891Y002833D02*
X011204Y002833D01*
X011204Y002952D02*
X011894Y002952D01*
X011889Y002919D02*
X011900Y002988D01*
X011921Y003054D01*
X011952Y003115D01*
X011993Y003171D01*
X012042Y003220D01*
X012098Y003261D01*
X012160Y003292D01*
X012226Y003314D01*
X012294Y003325D01*
X012320Y003325D01*
X012320Y002894D01*
X012338Y002894D01*
X012338Y003325D01*
X012363Y003325D01*
X012432Y003314D01*
X012498Y003292D01*
X012559Y003261D01*
X012615Y003220D01*
X012664Y003171D01*
X012705Y003115D01*
X012737Y003054D01*
X012758Y002988D01*
X012769Y002919D01*
X012769Y002894D01*
X012338Y002894D01*
X012338Y002876D01*
X012769Y002876D01*
X012769Y002850D01*
X012758Y002782D01*
X012737Y002716D01*
X012705Y002654D01*
X012664Y002598D01*
X012615Y002549D01*
X012559Y002508D01*
X012498Y002477D01*
X012432Y002456D01*
X012363Y002445D01*
X012338Y002445D01*
X012338Y002876D01*
X012320Y002876D01*
X012320Y002894D01*
X011889Y002894D01*
X011889Y002919D01*
X011929Y003070D02*
X011164Y003070D01*
X011086Y003189D02*
X012011Y003189D01*
X012205Y003307D02*
X010984Y003307D01*
X010984Y003426D02*
X013466Y003426D01*
X013477Y003435D02*
X013408Y003382D01*
X013347Y003321D01*
X013295Y003252D01*
X013251Y003177D01*
X013218Y003097D01*
X013196Y003014D01*
X013187Y002945D01*
X013784Y002945D01*
X013784Y002825D01*
X013187Y002825D01*
X013196Y002756D01*
X013218Y002672D01*
X013251Y002592D01*
X013295Y002517D01*
X013347Y002449D01*
X013408Y002387D01*
X013477Y002335D01*
X013552Y002291D01*
X013632Y002258D01*
X013716Y002236D01*
X013785Y002227D01*
X013785Y002825D01*
X013904Y002825D01*
X013904Y002227D01*
X013974Y002236D01*
X014057Y002258D01*
X014137Y002291D01*
X014212Y002335D01*
X014281Y002387D01*
X014342Y002449D01*
X014394Y002517D01*
X014438Y002592D01*
X014471Y002672D01*
X014493Y002756D01*
X014502Y002825D01*
X013905Y002825D01*
X013905Y002945D01*
X014502Y002945D01*
X014493Y003014D01*
X014471Y003097D01*
X014438Y003177D01*
X014394Y003252D01*
X014342Y003321D01*
X014281Y003382D01*
X014212Y003435D01*
X014137Y003478D01*
X014057Y003511D01*
X013974Y003533D01*
X013904Y003542D01*
X013904Y002945D01*
X013785Y002945D01*
X013785Y003542D01*
X013716Y003533D01*
X013632Y003511D01*
X013552Y003478D01*
X013477Y003435D01*
X013337Y003307D02*
X012452Y003307D01*
X012338Y003307D02*
X012320Y003307D01*
X012320Y003189D02*
X012338Y003189D01*
X012338Y003070D02*
X012320Y003070D01*
X012320Y002952D02*
X012338Y002952D01*
X012338Y002833D02*
X012320Y002833D01*
X012320Y002715D02*
X012338Y002715D01*
X012338Y002596D02*
X012320Y002596D01*
X012320Y002477D02*
X012338Y002477D01*
X012499Y002477D02*
X013325Y002477D01*
X013250Y002596D02*
X012662Y002596D01*
X012736Y002715D02*
X013207Y002715D01*
X013188Y002952D02*
X012764Y002952D01*
X012766Y002833D02*
X013784Y002833D01*
X013785Y002715D02*
X013904Y002715D01*
X013905Y002833D02*
X017314Y002833D01*
X017247Y002952D02*
X014501Y002952D01*
X014478Y003070D02*
X017210Y003070D01*
X017174Y003189D02*
X014431Y003189D01*
X014352Y003307D02*
X017137Y003307D01*
X017113Y003426D02*
X014224Y003426D01*
X013904Y003426D02*
X013785Y003426D01*
X013785Y003307D02*
X013904Y003307D01*
X013904Y003189D02*
X013785Y003189D01*
X013785Y003070D02*
X013904Y003070D01*
X013904Y002952D02*
X013785Y002952D01*
X013785Y002596D02*
X013904Y002596D01*
X013904Y002477D02*
X013785Y002477D01*
X013785Y002359D02*
X013904Y002359D01*
X013904Y002240D02*
X013785Y002240D01*
X013699Y002240D02*
X007809Y002240D01*
X007792Y002236D02*
X007876Y002258D01*
X007956Y002291D01*
X008031Y002335D01*
X008100Y002387D01*
X008161Y002449D01*
X008213Y002517D01*
X008257Y002592D01*
X008290Y002672D01*
X008312Y002756D01*
X008321Y002825D01*
X007724Y002825D01*
X007724Y002945D01*
X008321Y002945D01*
X008312Y003014D01*
X008290Y003097D01*
X008257Y003177D01*
X008213Y003252D01*
X008161Y003321D01*
X008100Y003382D01*
X008031Y003435D01*
X007956Y003478D01*
X007876Y003511D01*
X007792Y003533D01*
X007723Y003542D01*
X007723Y002945D01*
X007603Y002945D01*
X007603Y002825D01*
X007006Y002825D01*
X007015Y002756D01*
X007037Y002672D01*
X007070Y002592D01*
X007114Y002517D01*
X007166Y002449D01*
X007227Y002387D01*
X007296Y002335D01*
X007371Y002291D01*
X007451Y002258D01*
X007534Y002236D01*
X007603Y002227D01*
X007603Y002825D01*
X007723Y002825D01*
X007723Y002227D01*
X007792Y002236D01*
X007723Y002240D02*
X007603Y002240D01*
X007518Y002240D02*
X003622Y002240D01*
X003809Y002359D02*
X007265Y002359D01*
X007144Y002477D02*
X003919Y002477D01*
X004029Y002596D02*
X007069Y002596D01*
X007026Y002715D02*
X004133Y002715D01*
X004190Y002833D02*
X007603Y002833D01*
X007603Y002945D02*
X007006Y002945D01*
X007015Y003014D01*
X007037Y003097D01*
X007070Y003177D01*
X007114Y003252D01*
X007166Y003321D01*
X007227Y003382D01*
X007296Y003435D01*
X007371Y003478D01*
X007451Y003511D01*
X007534Y003533D01*
X007603Y003542D01*
X007603Y002945D01*
X007603Y002952D02*
X007723Y002952D01*
X007723Y003070D02*
X007603Y003070D01*
X007603Y003189D02*
X007723Y003189D01*
X007723Y003307D02*
X007603Y003307D01*
X007603Y003426D02*
X007723Y003426D01*
X007914Y003900D02*
X004374Y003900D01*
X004356Y004019D02*
X005012Y004019D01*
X005076Y003955D02*
X005432Y003955D01*
X005684Y004207D01*
X005684Y004563D01*
X005566Y004680D01*
X005654Y004680D01*
X005846Y004760D01*
X005993Y004907D01*
X006072Y005099D01*
X006072Y005307D01*
X005993Y005499D01*
X005347Y006144D01*
X005155Y006224D01*
X004947Y006224D01*
X004755Y006144D01*
X004608Y005997D01*
X004529Y005805D01*
X004529Y005598D01*
X004608Y005406D01*
X005199Y004815D01*
X005076Y004815D01*
X004824Y004563D01*
X004824Y004207D01*
X005076Y003955D01*
X004894Y004137D02*
X004334Y004137D01*
X004277Y004256D02*
X004824Y004256D01*
X004824Y004374D02*
X004220Y004374D01*
X004163Y004493D02*
X004824Y004493D01*
X004872Y004611D02*
X004087Y004611D01*
X003977Y004730D02*
X004991Y004730D01*
X005165Y004848D02*
X003867Y004848D01*
X003729Y004967D02*
X005047Y004967D01*
X004928Y005085D02*
X003524Y005085D01*
X003255Y005204D02*
X004810Y005204D01*
X004691Y005322D02*
X001264Y005322D01*
X001264Y005204D02*
X002259Y005204D01*
X001957Y005085D02*
X001264Y005085D01*
X001264Y004967D02*
X001792Y004967D01*
X001643Y004848D02*
X001264Y004848D01*
X001264Y004730D02*
X001514Y004730D01*
X001433Y004611D02*
X001264Y004611D01*
X001264Y004493D02*
X001352Y004493D01*
X001271Y004374D02*
X001264Y004374D01*
X001264Y005441D02*
X004594Y005441D01*
X004544Y005560D02*
X001264Y005560D01*
X001264Y005678D02*
X004529Y005678D01*
X004529Y005797D02*
X001264Y005797D01*
X001264Y005915D02*
X004574Y005915D01*
X004645Y006034D02*
X003162Y006034D01*
X003125Y006018D02*
X003351Y006112D01*
X003524Y006285D01*
X003617Y006511D01*
X003617Y006755D01*
X003524Y006981D01*
X003351Y007154D01*
X003125Y007248D01*
X002880Y007248D01*
X002654Y007154D01*
X002481Y006981D01*
X002387Y006755D01*
X002387Y006511D01*
X002481Y006285D01*
X002654Y006112D01*
X002880Y006018D01*
X003125Y006018D01*
X002842Y006034D02*
X001264Y006034D01*
X001264Y006152D02*
X002613Y006152D01*
X002495Y006271D02*
X001264Y006271D01*
X001264Y006389D02*
X002438Y006389D01*
X002389Y006508D02*
X001264Y006508D01*
X001264Y006626D02*
X002387Y006626D01*
X002387Y006745D02*
X001264Y006745D01*
X001264Y006864D02*
X002432Y006864D01*
X002482Y006982D02*
X001264Y006982D01*
X001264Y007101D02*
X002600Y007101D01*
X002810Y007219D02*
X001264Y007219D01*
X001264Y007338D02*
X004476Y007338D01*
X004357Y007456D02*
X001264Y007456D01*
X001264Y007575D02*
X004239Y007575D01*
X004120Y007693D02*
X001264Y007693D01*
X001264Y007812D02*
X004002Y007812D01*
X003883Y007930D02*
X001264Y007930D01*
X002518Y009946D02*
X002917Y009946D01*
X002873Y010064D02*
X003036Y010064D01*
X002992Y010183D02*
X003154Y010183D01*
X003260Y010183D02*
X003423Y010183D01*
X003379Y010064D02*
X003542Y010064D01*
X003498Y009946D02*
X003660Y009946D01*
X003616Y009827D02*
X003779Y009827D01*
X003735Y009709D02*
X005280Y009709D01*
X005383Y009751D02*
X005157Y009658D01*
X004984Y009485D01*
X004891Y009259D01*
X004891Y009014D01*
X004984Y008788D01*
X005157Y008615D01*
X005383Y008521D01*
X005628Y008521D01*
X005854Y008615D01*
X006027Y008788D01*
X006121Y009014D01*
X006121Y009259D01*
X006027Y009485D01*
X005854Y009658D01*
X005628Y009751D01*
X005383Y009751D01*
X005731Y009709D02*
X009277Y009709D01*
X009380Y009751D02*
X009154Y009658D01*
X008981Y009485D01*
X008887Y009259D01*
X008887Y009014D01*
X008981Y008788D01*
X009154Y008615D01*
X009380Y008521D01*
X009625Y008521D01*
X009851Y008615D01*
X010024Y008788D01*
X010117Y009014D01*
X010117Y009259D01*
X010024Y009485D01*
X009851Y009658D01*
X009625Y009751D01*
X009380Y009751D01*
X009086Y009590D02*
X005922Y009590D01*
X006032Y009471D02*
X008976Y009471D01*
X008926Y009353D02*
X006081Y009353D01*
X006121Y009234D02*
X008887Y009234D01*
X008887Y009116D02*
X006121Y009116D01*
X006114Y008997D02*
X008894Y008997D01*
X008943Y008879D02*
X006065Y008879D01*
X005999Y008760D02*
X009009Y008760D01*
X009127Y008642D02*
X005881Y008642D01*
X005632Y008523D02*
X009376Y008523D01*
X009629Y008523D02*
X012437Y008523D01*
X012415Y008578D02*
X012494Y008386D01*
X012641Y008239D01*
X012833Y008159D01*
X013041Y008159D01*
X013233Y008239D01*
X013879Y008884D01*
X013958Y009076D01*
X013958Y009284D01*
X013879Y009476D01*
X013732Y009623D01*
X013540Y009703D01*
X013332Y009703D01*
X013140Y009623D01*
X012494Y008978D01*
X012415Y008786D01*
X012415Y008578D01*
X012415Y008642D02*
X009878Y008642D01*
X009996Y008760D02*
X012415Y008760D01*
X012453Y008879D02*
X010061Y008879D01*
X010110Y008997D02*
X012514Y008997D01*
X012632Y009116D02*
X010117Y009116D01*
X010117Y009234D02*
X012751Y009234D01*
X012869Y009353D02*
X010078Y009353D01*
X010029Y009471D02*
X012988Y009471D01*
X013106Y009590D02*
X011739Y009590D01*
X011748Y009593D02*
X011820Y009630D01*
X011885Y009677D01*
X012122Y009914D01*
X011801Y010236D01*
X011882Y010317D01*
X012204Y009995D01*
X012441Y010233D01*
X012488Y010298D01*
X012525Y010370D01*
X012550Y010446D01*
X012562Y010526D01*
X012562Y010607D01*
X012550Y010686D01*
X012525Y010763D01*
X012488Y010835D01*
X012451Y010886D01*
X011882Y010317D01*
X011801Y010399D01*
X012370Y010968D01*
X012318Y011005D01*
X012246Y011041D01*
X012170Y011066D01*
X012090Y011079D01*
X012009Y011079D01*
X011930Y011066D01*
X011853Y011041D01*
X011781Y011005D01*
X011716Y010957D01*
X011479Y010720D01*
X011800Y010399D01*
X011719Y010317D01*
X011800Y010236D01*
X011231Y009667D01*
X011283Y009630D01*
X011354Y009593D01*
X011431Y009568D01*
X011511Y009555D01*
X011592Y009555D01*
X011671Y009568D01*
X011748Y009593D01*
X011917Y009709D02*
X015777Y009709D01*
X015880Y009751D02*
X015654Y009658D01*
X015481Y009485D01*
X015387Y009259D01*
X015387Y009014D01*
X015481Y008788D01*
X015654Y008615D01*
X015880Y008521D01*
X016125Y008521D01*
X016351Y008615D01*
X016524Y008788D01*
X016617Y009014D01*
X016617Y009259D01*
X016524Y009485D01*
X016351Y009658D01*
X016125Y009751D01*
X015880Y009751D01*
X015586Y009590D02*
X013765Y009590D01*
X013881Y009471D02*
X015476Y009471D01*
X015426Y009353D02*
X013930Y009353D01*
X013958Y009234D02*
X015387Y009234D01*
X015387Y009116D02*
X013958Y009116D01*
X013925Y008997D02*
X015394Y008997D01*
X015443Y008879D02*
X013873Y008879D01*
X013754Y008760D02*
X015509Y008760D01*
X015627Y008642D02*
X013636Y008642D01*
X013517Y008523D02*
X015876Y008523D01*
X016129Y008523D02*
X018937Y008523D01*
X018915Y008642D02*
X016378Y008642D01*
X016496Y008760D02*
X018915Y008760D01*
X018953Y008879D02*
X016561Y008879D01*
X016610Y008997D02*
X019014Y008997D01*
X019132Y009116D02*
X016617Y009116D01*
X016617Y009234D02*
X019251Y009234D01*
X019369Y009353D02*
X016578Y009353D01*
X016529Y009471D02*
X019488Y009471D01*
X019606Y009590D02*
X018239Y009590D01*
X018248Y009593D02*
X018320Y009630D01*
X018385Y009677D01*
X018622Y009914D01*
X018301Y010236D01*
X018382Y010317D01*
X018704Y009995D01*
X018941Y010233D01*
X018988Y010298D01*
X019025Y010370D01*
X019050Y010446D01*
X019062Y010526D01*
X019062Y010607D01*
X019050Y010686D01*
X019025Y010763D01*
X018988Y010835D01*
X018951Y010886D01*
X018382Y010317D01*
X018301Y010399D01*
X018870Y010968D01*
X018818Y011005D01*
X018746Y011041D01*
X018670Y011066D01*
X018590Y011079D01*
X018509Y011079D01*
X018430Y011066D01*
X018353Y011041D01*
X018281Y011005D01*
X018216Y010957D01*
X017979Y010720D01*
X018300Y010399D01*
X018219Y010317D01*
X018300Y010236D01*
X017731Y009667D01*
X017783Y009630D01*
X017854Y009593D01*
X017931Y009568D01*
X018011Y009555D01*
X018092Y009555D01*
X018171Y009568D01*
X018248Y009593D01*
X018417Y009709D02*
X020244Y009709D01*
X020244Y009827D02*
X018535Y009827D01*
X018591Y009946D02*
X020244Y009946D01*
X020244Y010064D02*
X018772Y010064D01*
X018635Y010064D02*
X018472Y010064D01*
X018516Y010183D02*
X018354Y010183D01*
X018247Y010183D02*
X018085Y010183D01*
X018129Y010064D02*
X017966Y010064D01*
X018010Y009946D02*
X017848Y009946D01*
X017892Y009827D02*
X017729Y009827D01*
X017650Y009748D02*
X018219Y010317D01*
X017897Y010639D01*
X017660Y010402D01*
X017613Y010336D01*
X017576Y010265D01*
X017551Y010188D01*
X017539Y010108D01*
X017539Y010028D01*
X017551Y009948D01*
X017576Y009871D01*
X017613Y009799D01*
X017650Y009748D01*
X017599Y009827D02*
X012035Y009827D01*
X012091Y009946D02*
X017552Y009946D01*
X017539Y010064D02*
X012272Y010064D01*
X012135Y010064D02*
X011972Y010064D01*
X012016Y010183D02*
X011854Y010183D01*
X011747Y010183D02*
X011585Y010183D01*
X011629Y010064D02*
X011466Y010064D01*
X011510Y009946D02*
X011348Y009946D01*
X011392Y009827D02*
X011229Y009827D01*
X011150Y009748D02*
X011719Y010317D01*
X011397Y010639D01*
X011160Y010402D01*
X011113Y010336D01*
X011076Y010265D01*
X011051Y010188D01*
X011039Y010108D01*
X011039Y010028D01*
X011051Y009948D01*
X011076Y009871D01*
X011113Y009799D01*
X011150Y009748D01*
X011099Y009827D02*
X003909Y009827D01*
X003956Y009946D02*
X011052Y009946D01*
X011039Y010064D02*
X003969Y010064D01*
X003957Y010183D02*
X011051Y010183D01*
X011095Y010301D02*
X003913Y010301D01*
X003830Y010420D02*
X011178Y010420D01*
X011297Y010538D02*
X003711Y010538D01*
X003510Y010538D02*
X003347Y010538D01*
X003391Y010420D02*
X003229Y010420D01*
X003273Y010301D02*
X003305Y010301D01*
X003142Y010301D02*
X003110Y010301D01*
X002973Y009827D02*
X002637Y009827D01*
X002755Y009709D02*
X003091Y009709D01*
X003269Y009590D02*
X002874Y009590D01*
X002992Y009471D02*
X004979Y009471D01*
X004930Y009353D02*
X003111Y009353D01*
X003230Y009234D02*
X004891Y009234D01*
X004891Y009116D02*
X003348Y009116D01*
X003467Y008997D02*
X004897Y008997D01*
X004947Y008879D02*
X003585Y008879D01*
X003704Y008760D02*
X005012Y008760D01*
X005130Y008642D02*
X003822Y008642D01*
X003941Y008523D02*
X005379Y008523D01*
X005090Y009590D02*
X003644Y009590D01*
X004059Y008405D02*
X012486Y008405D01*
X012594Y008286D02*
X004178Y008286D01*
X004296Y008168D02*
X012814Y008168D01*
X013061Y008168D02*
X019314Y008168D01*
X019561Y008168D02*
X020244Y008168D01*
X020244Y008286D02*
X019780Y008286D01*
X019899Y008405D02*
X020244Y008405D01*
X020244Y008523D02*
X020017Y008523D01*
X020136Y008642D02*
X020244Y008642D01*
X020244Y008049D02*
X004415Y008049D01*
X004534Y007930D02*
X020244Y007930D01*
X020244Y007812D02*
X004652Y007812D01*
X004771Y007693D02*
X020244Y007693D01*
X020244Y007575D02*
X015229Y007575D01*
X015191Y007587D02*
X015111Y007600D01*
X015030Y007600D01*
X014951Y007587D01*
X014874Y007562D01*
X014802Y007526D01*
X014737Y007478D01*
X014500Y007241D01*
X014821Y006920D01*
X014740Y006838D01*
X014821Y006757D01*
X014252Y006188D01*
X014304Y006151D01*
X014376Y006114D01*
X014452Y006089D01*
X014532Y006076D01*
X014613Y006076D01*
X014692Y006089D01*
X014769Y006114D01*
X014841Y006151D01*
X014906Y006198D01*
X015143Y006435D01*
X014822Y006757D01*
X014903Y006838D01*
X015225Y006516D01*
X015462Y006754D01*
X015509Y006819D01*
X015546Y006891D01*
X015571Y006967D01*
X015583Y007047D01*
X015583Y007128D01*
X015571Y007207D01*
X015546Y007284D01*
X015509Y007356D01*
X015472Y007407D01*
X014903Y006838D01*
X014822Y006920D01*
X015391Y007489D01*
X015339Y007526D01*
X015268Y007562D01*
X015191Y007587D01*
X015358Y007456D02*
X020244Y007456D01*
X020244Y007338D02*
X015518Y007338D01*
X015402Y007338D02*
X015240Y007338D01*
X015284Y007219D02*
X015121Y007219D01*
X015165Y007101D02*
X015003Y007101D01*
X015047Y006982D02*
X014884Y006982D01*
X014878Y006864D02*
X014928Y006864D01*
X014996Y006745D02*
X014833Y006745D01*
X014810Y006745D02*
X014647Y006745D01*
X014691Y006626D02*
X014528Y006626D01*
X014573Y006508D02*
X014410Y006508D01*
X014454Y006389D02*
X014291Y006389D01*
X014336Y006271D02*
X014173Y006271D01*
X014171Y006269D02*
X014740Y006838D01*
X014418Y007160D01*
X014181Y006923D01*
X014134Y006858D01*
X014097Y006786D01*
X014072Y006709D01*
X014060Y006629D01*
X014060Y006549D01*
X014072Y006469D01*
X014097Y006392D01*
X014134Y006320D01*
X014171Y006269D01*
X014170Y006271D02*
X012513Y006271D01*
X012527Y006285D02*
X012621Y006511D01*
X012621Y006755D01*
X012527Y006981D01*
X012354Y007154D01*
X012128Y007248D01*
X011883Y007248D01*
X011657Y007154D01*
X011484Y006981D01*
X011391Y006755D01*
X011391Y006511D01*
X011484Y006285D01*
X011657Y006112D01*
X011883Y006018D01*
X012128Y006018D01*
X012354Y006112D01*
X012527Y006285D01*
X012570Y006389D02*
X014099Y006389D01*
X014066Y006508D02*
X012619Y006508D01*
X012621Y006626D02*
X014060Y006626D01*
X014084Y006745D02*
X012621Y006745D01*
X012576Y006864D02*
X014138Y006864D01*
X014241Y006982D02*
X012526Y006982D01*
X012408Y007101D02*
X014359Y007101D01*
X014478Y007101D02*
X014640Y007101D01*
X014596Y006982D02*
X014759Y006982D01*
X014765Y006864D02*
X014715Y006864D01*
X014952Y006626D02*
X015115Y006626D01*
X015070Y006508D02*
X017892Y006508D01*
X017891Y006511D02*
X017984Y006285D01*
X018157Y006112D01*
X018383Y006018D01*
X018628Y006018D01*
X018854Y006112D01*
X019027Y006285D01*
X019121Y006511D01*
X019121Y006755D01*
X019027Y006981D01*
X018854Y007154D01*
X018628Y007248D01*
X018383Y007248D01*
X018157Y007154D01*
X017984Y006981D01*
X017891Y006755D01*
X017891Y006511D01*
X017891Y006626D02*
X015335Y006626D01*
X015453Y006745D02*
X017891Y006745D01*
X017935Y006864D02*
X015532Y006864D01*
X015573Y006982D02*
X017985Y006982D01*
X018103Y007101D02*
X015583Y007101D01*
X015567Y007219D02*
X018313Y007219D01*
X018698Y007219D02*
X020244Y007219D01*
X020244Y007101D02*
X018908Y007101D01*
X019026Y006982D02*
X020244Y006982D01*
X020244Y006864D02*
X019076Y006864D01*
X019121Y006745D02*
X020244Y006745D01*
X020244Y006626D02*
X019121Y006626D01*
X019119Y006508D02*
X020244Y006508D01*
X020244Y006389D02*
X019070Y006389D01*
X019013Y006271D02*
X020244Y006271D01*
X020244Y006152D02*
X018894Y006152D01*
X018666Y006034D02*
X020244Y006034D01*
X020244Y005915D02*
X016934Y005915D01*
X016900Y005997D02*
X016753Y006144D01*
X016561Y006224D01*
X016353Y006224D01*
X016161Y006144D01*
X015515Y005499D01*
X015436Y005307D01*
X015436Y005099D01*
X015515Y004907D01*
X015618Y004805D01*
X015580Y004805D01*
X015334Y004559D01*
X015334Y004405D01*
X015734Y004405D01*
X015734Y004365D01*
X015334Y004365D01*
X015334Y004211D01*
X015580Y003965D01*
X015734Y003965D01*
X015734Y004364D01*
X015774Y004364D01*
X015774Y003965D01*
X015928Y003965D01*
X016174Y004211D01*
X016174Y004365D01*
X015774Y004365D01*
X015774Y004405D01*
X016174Y004405D01*
X016174Y004559D01*
X016052Y004680D01*
X016062Y004680D01*
X016254Y004760D01*
X016900Y005406D01*
X016979Y005598D01*
X016979Y005805D01*
X016900Y005997D01*
X016863Y006034D02*
X018345Y006034D01*
X018117Y006152D02*
X016734Y006152D01*
X016979Y005797D02*
X020244Y005797D01*
X020244Y005678D02*
X016979Y005678D01*
X016963Y005560D02*
X020244Y005560D01*
X020244Y005441D02*
X016914Y005441D01*
X016817Y005322D02*
X020244Y005322D01*
X020244Y005204D02*
X019255Y005204D01*
X019524Y005085D02*
X020244Y005085D01*
X020244Y004967D02*
X019729Y004967D01*
X019867Y004848D02*
X020244Y004848D01*
X020244Y004730D02*
X019977Y004730D01*
X020087Y004611D02*
X020244Y004611D01*
X020244Y004493D02*
X020163Y004493D01*
X020220Y004374D02*
X020244Y004374D01*
X019094Y008286D02*
X013280Y008286D01*
X013399Y008405D02*
X018986Y008405D01*
X018891Y010183D02*
X020244Y010183D01*
X020244Y010301D02*
X018990Y010301D01*
X019041Y010420D02*
X020244Y010420D01*
X020244Y010538D02*
X019062Y010538D01*
X019054Y010657D02*
X020244Y010657D01*
X020244Y010775D02*
X019018Y010775D01*
X018840Y010775D02*
X018677Y010775D01*
X018722Y010657D02*
X018559Y010657D01*
X018603Y010538D02*
X018440Y010538D01*
X018485Y010420D02*
X018322Y010420D01*
X018279Y010420D02*
X018116Y010420D01*
X018161Y010538D02*
X017998Y010538D01*
X018042Y010657D02*
X012554Y010657D01*
X012562Y010538D02*
X017797Y010538D01*
X017678Y010420D02*
X012541Y010420D01*
X012490Y010301D02*
X017595Y010301D01*
X017551Y010183D02*
X012391Y010183D01*
X012103Y010538D02*
X011940Y010538D01*
X011985Y010420D02*
X011822Y010420D01*
X011779Y010420D02*
X011616Y010420D01*
X011661Y010538D02*
X011498Y010538D01*
X011542Y010657D02*
X003466Y010657D01*
X003474Y010775D02*
X011534Y010775D01*
X011653Y010894D02*
X003355Y010894D01*
X003211Y011013D02*
X011797Y011013D01*
X012059Y010657D02*
X012222Y010657D01*
X012177Y010775D02*
X012340Y010775D01*
X012296Y010894D02*
X018153Y010894D01*
X018034Y010775D02*
X012518Y010775D01*
X012303Y011013D02*
X018297Y011013D01*
X018803Y011013D02*
X020244Y011013D01*
X020244Y011131D02*
X002826Y011131D01*
X002944Y011250D02*
X020244Y011250D01*
X020244Y011368D02*
X002984Y011368D01*
X002984Y011487D02*
X020244Y011487D01*
X020244Y011605D02*
X002984Y011605D01*
X002984Y011724D02*
X020244Y011724D01*
X020244Y011842D02*
X002984Y011842D01*
X002984Y011961D02*
X004570Y011961D01*
X004576Y011955D02*
X004932Y011955D01*
X005184Y012207D01*
X005184Y012563D01*
X004932Y012815D01*
X004576Y012815D01*
X004324Y012563D01*
X004324Y012207D01*
X004576Y011955D01*
X004451Y012079D02*
X004043Y012079D01*
X003928Y011965D02*
X004174Y012211D01*
X004174Y012365D01*
X003774Y012365D01*
X003774Y012405D01*
X003734Y012405D01*
X003734Y012805D01*
X003580Y012805D01*
X003334Y012559D01*
X003334Y012405D01*
X003734Y012405D01*
X003734Y012365D01*
X003334Y012365D01*
X003334Y012211D01*
X003580Y011965D01*
X003734Y011965D01*
X003734Y012364D01*
X003774Y012364D01*
X003774Y011965D01*
X003928Y011965D01*
X003774Y012079D02*
X003734Y012079D01*
X003734Y012198D02*
X003774Y012198D01*
X003774Y012317D02*
X003734Y012317D01*
X003774Y012405D02*
X004174Y012405D01*
X004174Y012559D01*
X003928Y012805D01*
X003774Y012805D01*
X003774Y012405D01*
X003774Y012435D02*
X003734Y012435D01*
X003734Y012554D02*
X003774Y012554D01*
X003774Y012672D02*
X003734Y012672D01*
X003734Y012791D02*
X003774Y012791D01*
X003942Y012791D02*
X004552Y012791D01*
X004433Y012672D02*
X004060Y012672D01*
X004174Y012554D02*
X004324Y012554D01*
X004324Y012435D02*
X004174Y012435D01*
X004174Y012317D02*
X004324Y012317D01*
X004333Y012198D02*
X004161Y012198D01*
X003465Y012079D02*
X002984Y012079D01*
X002984Y012198D02*
X003347Y012198D01*
X003334Y012317D02*
X002984Y012317D01*
X002984Y012435D02*
X003334Y012435D01*
X003334Y012554D02*
X002984Y012554D01*
X002984Y012672D02*
X003448Y012672D01*
X003566Y012791D02*
X002984Y012791D01*
X002984Y012909D02*
X020244Y012909D01*
X020244Y012791D02*
X017956Y012791D01*
X017932Y012815D02*
X017576Y012815D01*
X017324Y012563D01*
X017324Y012207D01*
X017576Y011955D01*
X017932Y011955D01*
X018184Y012207D01*
X018184Y012563D01*
X017932Y012815D01*
X018075Y012672D02*
X020244Y012672D01*
X020244Y012554D02*
X018184Y012554D01*
X018184Y012435D02*
X020244Y012435D01*
X020244Y012317D02*
X018184Y012317D01*
X018175Y012198D02*
X020244Y012198D01*
X020244Y012079D02*
X018057Y012079D01*
X017938Y011961D02*
X020244Y011961D01*
X020244Y013028D02*
X002984Y013028D01*
X002984Y013146D02*
X020244Y013146D01*
X020244Y013265D02*
X002984Y013265D01*
X002984Y013383D02*
X020244Y013383D01*
X020244Y013502D02*
X002984Y013502D01*
X002984Y013621D02*
X020244Y013621D01*
X020244Y013739D02*
X002984Y013739D01*
X002984Y013858D02*
X020244Y013858D01*
X020244Y013976D02*
X002984Y013976D01*
X002984Y014095D02*
X020244Y014095D01*
X020244Y014213D02*
X002984Y014213D01*
X002984Y014332D02*
X020244Y014332D01*
X020244Y014450D02*
X002984Y014450D01*
X002984Y014569D02*
X020244Y014569D01*
X020244Y014687D02*
X002984Y014687D01*
X002984Y014806D02*
X020244Y014806D01*
X020244Y014924D02*
X002984Y014924D01*
X002984Y015043D02*
X020244Y015043D01*
X020244Y015162D02*
X002984Y015162D01*
X002984Y015280D02*
X020244Y015280D01*
X020244Y015399D02*
X002984Y015399D01*
X002984Y015517D02*
X020244Y015517D01*
X020244Y015636D02*
X002984Y015636D01*
X002984Y015754D02*
X020244Y015754D01*
X020244Y015873D02*
X002984Y015873D01*
X002984Y015991D02*
X020244Y015991D01*
X020244Y016110D02*
X002984Y016110D01*
X002984Y016228D02*
X020244Y016228D01*
X020244Y016347D02*
X002984Y016347D01*
X002984Y016466D02*
X020244Y016466D01*
X020244Y016584D02*
X002984Y016584D01*
X002984Y016703D02*
X020244Y016703D01*
X020244Y016821D02*
X013763Y016821D01*
X013759Y016817D02*
X013947Y017005D01*
X014049Y017251D01*
X014049Y017518D01*
X013947Y017764D01*
X013759Y017953D01*
X013512Y018055D01*
X013246Y018055D01*
X012999Y017953D01*
X012811Y017764D01*
X012709Y017518D01*
X012709Y017251D01*
X012811Y017005D01*
X012999Y016817D01*
X013246Y016715D01*
X013512Y016715D01*
X013759Y016817D01*
X013881Y016940D02*
X020244Y016940D01*
X020244Y017058D02*
X013969Y017058D01*
X014018Y017177D02*
X020244Y017177D01*
X020244Y017295D02*
X014049Y017295D01*
X014049Y017414D02*
X020244Y017414D01*
X020244Y017532D02*
X014043Y017532D01*
X013994Y017651D02*
X020244Y017651D01*
X020244Y017770D02*
X013942Y017770D01*
X013823Y017888D02*
X020244Y017888D01*
X020244Y018007D02*
X019470Y018007D01*
X019428Y017965D02*
X019674Y018211D01*
X019674Y018365D01*
X019274Y018365D01*
X019274Y018405D01*
X019234Y018405D01*
X019234Y018805D01*
X019080Y018805D01*
X018834Y018559D01*
X018834Y018405D01*
X019234Y018405D01*
X019234Y018365D01*
X018834Y018365D01*
X018834Y018211D01*
X019080Y017965D01*
X019234Y017965D01*
X019234Y018364D01*
X019274Y018364D01*
X019274Y017965D01*
X019428Y017965D01*
X019274Y018007D02*
X019234Y018007D01*
X019234Y018125D02*
X019274Y018125D01*
X019274Y018244D02*
X019234Y018244D01*
X019234Y018362D02*
X019274Y018362D01*
X019274Y018405D02*
X019674Y018405D01*
X019674Y018559D01*
X019428Y018805D01*
X019274Y018805D01*
X019274Y018405D01*
X019274Y018481D02*
X019234Y018481D01*
X019234Y018599D02*
X019274Y018599D01*
X019274Y018718D02*
X019234Y018718D01*
X018993Y018718D02*
X018529Y018718D01*
X018432Y018815D02*
X018684Y018563D01*
X018684Y018207D01*
X018432Y017955D01*
X018076Y017955D01*
X017824Y018207D01*
X017824Y018563D01*
X018076Y018815D01*
X018432Y018815D01*
X018647Y018599D02*
X018875Y018599D01*
X018834Y018481D02*
X018684Y018481D01*
X018684Y018362D02*
X018834Y018362D01*
X018834Y018244D02*
X018684Y018244D01*
X018603Y018125D02*
X018920Y018125D01*
X019038Y018007D02*
X018484Y018007D01*
X018024Y018007D02*
X017484Y018007D01*
X017432Y017955D02*
X017684Y018207D01*
X017684Y018563D01*
X017432Y018815D01*
X017076Y018815D01*
X016824Y018563D01*
X016824Y018207D01*
X017076Y017955D01*
X017432Y017955D01*
X017603Y018125D02*
X017905Y018125D01*
X017824Y018244D02*
X017684Y018244D01*
X017684Y018362D02*
X017824Y018362D01*
X017824Y018481D02*
X017684Y018481D01*
X017647Y018599D02*
X017861Y018599D01*
X017979Y018718D02*
X017529Y018718D01*
X017024Y018007D02*
X013628Y018007D01*
X013651Y018265D02*
X013459Y018344D01*
X013313Y018490D01*
X013234Y018681D01*
X013234Y019588D01*
X013313Y019779D01*
X013459Y019926D01*
X013651Y020005D01*
X013857Y020005D01*
X014049Y019926D01*
X014195Y019779D01*
X014274Y019588D01*
X014274Y018681D01*
X014195Y018490D01*
X014049Y018344D01*
X013857Y018265D01*
X013651Y018265D01*
X013441Y018362D02*
X004684Y018362D01*
X004684Y018244D02*
X016824Y018244D01*
X016824Y018362D02*
X015839Y018362D01*
X015820Y018344D02*
X015966Y018490D01*
X016046Y018681D01*
X016046Y019588D01*
X015966Y019779D01*
X015820Y019926D01*
X015629Y020005D01*
X015422Y020005D01*
X015231Y019926D01*
X015085Y019779D01*
X015006Y019588D01*
X015006Y018681D01*
X015085Y018490D01*
X015231Y018344D01*
X015422Y018265D01*
X015629Y018265D01*
X015820Y018344D01*
X015957Y018481D02*
X016824Y018481D01*
X016861Y018599D02*
X016012Y018599D01*
X016046Y018718D02*
X016979Y018718D01*
X016905Y018125D02*
X004603Y018125D01*
X004684Y018207D02*
X004432Y017955D01*
X004076Y017955D01*
X003824Y018207D01*
X003824Y018563D01*
X004076Y018815D01*
X004432Y018815D01*
X004684Y018563D01*
X004684Y018207D01*
X004684Y018481D02*
X013323Y018481D01*
X013268Y018599D02*
X004647Y018599D01*
X004529Y018718D02*
X013234Y018718D01*
X013234Y018836D02*
X002984Y018836D01*
X002984Y018718D02*
X002993Y018718D01*
X002984Y018955D02*
X006478Y018955D01*
X006350Y019074D02*
X002984Y019074D01*
X002984Y019192D02*
X006280Y019192D01*
X006249Y019311D02*
X002984Y019311D01*
X002984Y019429D02*
X006245Y019429D01*
X006271Y019548D02*
X002984Y019548D01*
X002984Y019666D02*
X006328Y019666D01*
X006437Y019785D02*
X002984Y019785D01*
X002984Y019903D02*
X006557Y019903D01*
X006381Y020022D02*
X002984Y020022D01*
X002984Y020140D02*
X006292Y020140D01*
X006243Y020259D02*
X002984Y020259D01*
X002984Y020377D02*
X006234Y020377D01*
X006237Y020496D02*
X002984Y020496D01*
X002984Y020615D02*
X006286Y020615D01*
X006367Y020733D02*
X002984Y020733D01*
X002984Y020852D02*
X006523Y020852D01*
X006433Y020970D02*
X002984Y020970D01*
X002984Y021089D02*
X006315Y021089D01*
X006265Y021207D02*
X002984Y021207D01*
X002984Y021326D02*
X006234Y021326D01*
X006234Y021444D02*
X002984Y021444D01*
X002984Y021563D02*
X006265Y021563D01*
X006315Y021681D02*
X002984Y021681D01*
X002984Y021800D02*
X006434Y021800D01*
X007504Y021135D02*
X006754Y020385D01*
X006951Y019903D02*
X013437Y019903D01*
X013319Y019785D02*
X007071Y019785D01*
X007180Y019666D02*
X013266Y019666D01*
X013234Y019548D02*
X007237Y019548D01*
X007263Y019429D02*
X013234Y019429D01*
X013234Y019311D02*
X007259Y019311D01*
X007228Y019192D02*
X013234Y019192D01*
X013234Y019074D02*
X007158Y019074D01*
X007030Y018955D02*
X013234Y018955D01*
X013130Y018007D02*
X008378Y018007D01*
X008262Y018055D02*
X007996Y018055D01*
X007749Y017953D01*
X007561Y017764D01*
X007459Y017518D01*
X007459Y017251D01*
X007561Y017005D01*
X007749Y016817D01*
X007996Y016715D01*
X008262Y016715D01*
X008509Y016817D01*
X008697Y017005D01*
X008799Y017251D01*
X008799Y017518D01*
X008697Y017764D01*
X008509Y017953D01*
X008262Y018055D01*
X008573Y017888D02*
X012935Y017888D01*
X012816Y017770D02*
X008692Y017770D01*
X008744Y017651D02*
X012764Y017651D01*
X012715Y017532D02*
X008793Y017532D01*
X008799Y017414D02*
X012709Y017414D01*
X012709Y017295D02*
X008799Y017295D01*
X008768Y017177D02*
X012740Y017177D01*
X012789Y017058D02*
X008719Y017058D01*
X008631Y016940D02*
X012876Y016940D01*
X012995Y016821D02*
X008513Y016821D01*
X007745Y016821D02*
X002984Y016821D01*
X002984Y016940D02*
X007626Y016940D01*
X007539Y017058D02*
X002984Y017058D01*
X002984Y017177D02*
X007490Y017177D01*
X007459Y017295D02*
X002984Y017295D01*
X002984Y017414D02*
X007459Y017414D01*
X007465Y017532D02*
X002984Y017532D01*
X002984Y017651D02*
X007514Y017651D01*
X007566Y017770D02*
X002984Y017770D01*
X002984Y017888D02*
X007685Y017888D01*
X007880Y018007D02*
X004484Y018007D01*
X004024Y018007D02*
X003470Y018007D01*
X003588Y018125D02*
X003905Y018125D01*
X003824Y018244D02*
X003674Y018244D01*
X003674Y018362D02*
X003824Y018362D01*
X003824Y018481D02*
X003674Y018481D01*
X003633Y018599D02*
X003861Y018599D01*
X003979Y018718D02*
X003515Y018718D01*
X003274Y018718D02*
X003234Y018718D01*
X003234Y018599D02*
X003274Y018599D01*
X003274Y018481D02*
X003234Y018481D01*
X003234Y018362D02*
X003274Y018362D01*
X003274Y018244D02*
X003234Y018244D01*
X003234Y018125D02*
X003274Y018125D01*
X003274Y018007D02*
X003234Y018007D01*
X003038Y018007D02*
X002984Y018007D01*
X002038Y018007D02*
X001264Y018007D01*
X001264Y018125D02*
X001920Y018125D01*
X001834Y018244D02*
X001264Y018244D01*
X001264Y018362D02*
X001834Y018362D01*
X001834Y018481D02*
X001264Y018481D01*
X001264Y018599D02*
X001875Y018599D01*
X001994Y022037D02*
X001264Y022037D01*
X001264Y022156D02*
X001875Y022156D01*
X001824Y022274D02*
X001264Y022274D01*
X001264Y022393D02*
X001824Y022393D01*
X001824Y022511D02*
X001264Y022511D01*
X001264Y022630D02*
X001891Y022630D01*
X002010Y022748D02*
X001264Y022748D01*
X001264Y022867D02*
X002524Y022867D01*
X002524Y022985D02*
X001264Y022985D01*
X001264Y023104D02*
X002524Y023104D01*
X002524Y023223D02*
X001264Y023223D01*
X001264Y023341D02*
X002524Y023341D01*
X002524Y023460D02*
X001264Y023460D01*
X001264Y023578D02*
X002524Y023578D01*
X002524Y023697D02*
X001264Y023697D01*
X001264Y023815D02*
X002524Y023815D01*
X002524Y023934D02*
X001264Y023934D01*
X001264Y024052D02*
X002524Y024052D01*
X002524Y024171D02*
X001264Y024171D01*
X001264Y024289D02*
X002524Y024289D01*
X002524Y024408D02*
X001264Y024408D01*
X001264Y024526D02*
X002524Y024526D01*
X002524Y024645D02*
X001264Y024645D01*
X001264Y024764D02*
X002524Y024764D01*
X002524Y024882D02*
X001264Y024882D01*
X001264Y025001D02*
X002524Y025001D01*
X002524Y025119D02*
X001264Y025119D01*
X001264Y025238D02*
X002524Y025238D01*
X002524Y025356D02*
X001264Y025356D01*
X001264Y025475D02*
X002524Y025475D01*
X002524Y025593D02*
X001264Y025593D01*
X001264Y025712D02*
X002524Y025712D01*
X002524Y025830D02*
X001264Y025830D01*
X001264Y025949D02*
X002524Y025949D01*
X002524Y026068D02*
X001264Y026068D01*
X001264Y026186D02*
X002524Y026186D01*
X002524Y026305D02*
X001264Y026305D01*
X001264Y026423D02*
X002524Y026423D01*
X002524Y026542D02*
X001264Y026542D01*
X001264Y026660D02*
X002524Y026660D01*
X002524Y026779D02*
X001264Y026779D01*
X001264Y026897D02*
X002416Y026897D01*
X002298Y027016D02*
X001264Y027016D01*
X001264Y027134D02*
X002179Y027134D01*
X002060Y027253D02*
X001264Y027253D01*
X001264Y027372D02*
X002024Y027372D01*
X002024Y027490D02*
X001264Y027490D01*
X001264Y027609D02*
X002024Y027609D01*
X002024Y027727D02*
X001264Y027727D01*
X001264Y027846D02*
X002024Y027846D01*
X002024Y027964D02*
X001264Y027964D01*
X001264Y028083D02*
X002024Y028083D01*
X002024Y028201D02*
X001264Y028201D01*
X001264Y028320D02*
X002024Y028320D01*
X002024Y028438D02*
X001264Y028438D01*
X001264Y028557D02*
X002024Y028557D01*
X002024Y028676D02*
X001898Y028676D01*
X002016Y028794D02*
X002024Y028794D01*
X002484Y028201D02*
X002732Y028201D01*
X002613Y028083D02*
X002484Y028083D01*
X002484Y027964D02*
X002516Y027964D01*
X002711Y027253D02*
X002712Y027253D01*
X002984Y026660D02*
X005009Y026660D01*
X005254Y026385D02*
X004254Y026385D01*
X003754Y025885D01*
X003754Y022885D01*
X003254Y022385D01*
X003514Y022037D02*
X003994Y022037D01*
X003875Y022156D02*
X003633Y022156D01*
X003684Y022274D02*
X003824Y022274D01*
X003824Y022393D02*
X003684Y022393D01*
X003706Y022511D02*
X003824Y022511D01*
X003824Y022630D02*
X003891Y022630D01*
X003524Y022985D02*
X002984Y022985D01*
X002984Y022867D02*
X003411Y022867D01*
X003524Y023104D02*
X002984Y023104D01*
X002984Y023223D02*
X003524Y023223D01*
X003524Y023341D02*
X002984Y023341D01*
X002984Y023460D02*
X003524Y023460D01*
X003524Y023578D02*
X002984Y023578D01*
X002984Y023697D02*
X003524Y023697D01*
X003524Y023815D02*
X002984Y023815D01*
X002984Y023934D02*
X003524Y023934D01*
X003524Y024052D02*
X002984Y024052D01*
X002984Y024171D02*
X003524Y024171D01*
X003524Y024289D02*
X002984Y024289D01*
X002984Y024408D02*
X003524Y024408D01*
X003524Y024526D02*
X002984Y024526D01*
X002984Y024645D02*
X003524Y024645D01*
X003524Y024764D02*
X002984Y024764D01*
X002984Y024882D02*
X003524Y024882D01*
X003524Y025001D02*
X002984Y025001D01*
X002984Y025119D02*
X003524Y025119D01*
X003524Y025238D02*
X002984Y025238D01*
X002984Y025356D02*
X003524Y025356D01*
X003524Y025475D02*
X002984Y025475D01*
X002984Y025593D02*
X003524Y025593D01*
X003524Y025712D02*
X002984Y025712D01*
X002984Y025830D02*
X003524Y025830D01*
X003524Y025949D02*
X002984Y025949D01*
X002984Y026068D02*
X003612Y026068D01*
X003730Y026186D02*
X002984Y026186D01*
X002984Y026305D02*
X003849Y026305D01*
X003967Y026423D02*
X002984Y026423D01*
X002984Y026542D02*
X004086Y026542D01*
X004262Y026068D02*
X005058Y026068D01*
X005289Y028557D02*
X003731Y028557D01*
X003301Y027964D02*
X003277Y027964D01*
X003233Y027846D02*
X003395Y027846D01*
X003351Y027727D02*
X003514Y027727D01*
X003138Y027964D02*
X003114Y027964D01*
X002523Y029861D02*
X002524Y029861D01*
X002524Y029979D02*
X002418Y029979D01*
X002524Y030098D02*
X002203Y030098D01*
X001938Y030098D02*
X001264Y030098D01*
X001264Y029979D02*
X001724Y029979D01*
X001605Y029861D02*
X001264Y029861D01*
X001264Y029742D02*
X001487Y029742D01*
X001368Y029624D02*
X001264Y029624D01*
X001264Y030217D02*
X002524Y030217D01*
X002478Y030335D02*
X001264Y030335D01*
X001264Y030454D02*
X002360Y030454D01*
X002241Y030572D02*
X001264Y030572D01*
X001264Y030691D02*
X002123Y030691D01*
X002024Y030809D02*
X001264Y030809D01*
X001264Y030928D02*
X002024Y030928D01*
X002024Y031046D02*
X001264Y031046D01*
X001264Y031165D02*
X002024Y031165D01*
X002024Y031283D02*
X001264Y031283D01*
X001264Y031402D02*
X002024Y031402D01*
X002024Y031521D02*
X001264Y031521D01*
X001264Y031639D02*
X002024Y031639D01*
X002024Y031758D02*
X001264Y031758D01*
X001264Y031876D02*
X002024Y031876D01*
X002024Y031995D02*
X001264Y031995D01*
X001264Y032113D02*
X002024Y032113D01*
X002024Y032232D02*
X001264Y032232D01*
X001264Y032350D02*
X002024Y032350D01*
X002024Y032469D02*
X001264Y032469D01*
X001264Y032587D02*
X002024Y032587D01*
X002024Y032706D02*
X001264Y032706D01*
X001264Y032825D02*
X002024Y032825D01*
X002024Y032943D02*
X001264Y032943D01*
X001264Y033062D02*
X002024Y033062D01*
X002024Y033180D02*
X001264Y033180D01*
X001264Y033299D02*
X002024Y033299D01*
X002024Y033417D02*
X001264Y033417D01*
X001264Y033536D02*
X002024Y033536D01*
X002024Y033654D02*
X001264Y033654D01*
X001264Y033773D02*
X002024Y033773D01*
X002024Y033891D02*
X001264Y033891D01*
X001264Y034010D02*
X002024Y034010D01*
X002024Y034129D02*
X001264Y034129D01*
X001264Y034247D02*
X002024Y034247D01*
X002024Y034366D02*
X001264Y034366D01*
X001264Y034484D02*
X002024Y034484D01*
X002024Y034603D02*
X001264Y034603D01*
X001264Y034721D02*
X002024Y034721D01*
X002024Y034840D02*
X001264Y034840D01*
X001264Y034958D02*
X002024Y034958D01*
X002024Y035077D02*
X001264Y035077D01*
X001264Y035195D02*
X002024Y035195D01*
X002024Y035314D02*
X001264Y035314D01*
X001264Y035432D02*
X002024Y035432D01*
X002095Y035551D02*
X001264Y035551D01*
X001264Y035670D02*
X002214Y035670D01*
X002159Y035615D02*
X002159Y035615D01*
X002332Y035788D02*
X001264Y035788D01*
X001264Y035907D02*
X002451Y035907D01*
X002569Y036025D02*
X001264Y036025D01*
X001264Y036144D02*
X004188Y036144D01*
X004306Y036262D02*
X003022Y036262D01*
X002878Y036229D02*
X002878Y036229D01*
X002754Y035885D02*
X004254Y035885D01*
X004754Y036385D01*
X004754Y037885D01*
X005254Y038385D01*
X007254Y038385D01*
X007754Y037885D01*
X008144Y038159D02*
X008364Y038159D01*
X008284Y038079D02*
X008284Y037690D01*
X008559Y037415D01*
X008949Y037415D01*
X009224Y037690D01*
X009224Y038079D01*
X008949Y038355D01*
X008559Y038355D01*
X008284Y038079D01*
X008284Y038040D02*
X008224Y038040D01*
X008224Y037922D02*
X008284Y037922D01*
X008284Y037803D02*
X008224Y037803D01*
X008219Y037685D02*
X008289Y037685D01*
X008408Y037566D02*
X008148Y037566D01*
X008266Y037448D02*
X008526Y037448D01*
X008534Y037329D02*
X008385Y037329D01*
X008254Y037135D02*
X008254Y030885D01*
X009254Y029885D01*
X009484Y029861D02*
X013405Y029861D01*
X013524Y029979D02*
X009484Y029979D01*
X009366Y030098D02*
X013642Y030098D01*
X013761Y030217D02*
X009247Y030217D01*
X009129Y030335D02*
X013879Y030335D01*
X013998Y030454D02*
X009010Y030454D01*
X008892Y030572D02*
X014116Y030572D01*
X014235Y030691D02*
X013084Y030691D01*
X013057Y030682D02*
X013134Y030707D01*
X013206Y030744D01*
X013271Y030791D01*
X013508Y031028D01*
X013187Y031350D01*
X013268Y031431D01*
X013589Y031109D01*
X013827Y031347D01*
X013874Y031412D01*
X013911Y031484D01*
X013936Y031560D01*
X013948Y031640D01*
X013948Y031721D01*
X013936Y031800D01*
X013911Y031877D01*
X013874Y031949D01*
X013837Y032000D01*
X013268Y031431D01*
X013187Y031513D01*
X013755Y032082D01*
X013704Y032119D01*
X013632Y032155D01*
X013556Y032180D01*
X013476Y032193D01*
X013395Y032193D01*
X013316Y032180D01*
X013239Y032155D01*
X013167Y032119D01*
X013102Y032071D01*
X012865Y031834D01*
X013186Y031513D01*
X013105Y031431D01*
X013186Y031350D01*
X012617Y030781D01*
X012669Y030744D01*
X012740Y030707D01*
X012817Y030682D01*
X012897Y030669D01*
X012978Y030669D01*
X013057Y030682D01*
X013289Y030809D02*
X014353Y030809D01*
X014472Y030928D02*
X013408Y030928D01*
X013490Y031046D02*
X014524Y031046D01*
X014524Y031165D02*
X013645Y031165D01*
X013534Y031165D02*
X013371Y031165D01*
X013415Y031283D02*
X013253Y031283D01*
X013239Y031402D02*
X013297Y031402D01*
X013357Y031521D02*
X013194Y031521D01*
X013178Y031521D02*
X013016Y031521D01*
X013060Y031639D02*
X012897Y031639D01*
X012941Y031758D02*
X010117Y031758D01*
X010117Y031759D02*
X010024Y031985D01*
X009851Y032158D01*
X009625Y032251D01*
X009380Y032251D01*
X009154Y032158D01*
X008981Y031985D01*
X008887Y031759D01*
X008887Y031514D01*
X008981Y031288D01*
X009154Y031115D01*
X009380Y031021D01*
X009625Y031021D01*
X009851Y031115D01*
X010024Y031288D01*
X010117Y031514D01*
X010117Y031759D01*
X010117Y031639D02*
X012670Y031639D01*
X012783Y031753D02*
X012546Y031516D01*
X012499Y031451D01*
X012462Y031379D01*
X012437Y031302D01*
X012425Y031222D01*
X012425Y031142D01*
X012437Y031062D01*
X012462Y030985D01*
X012499Y030913D01*
X012536Y030862D01*
X013105Y031431D01*
X012783Y031753D01*
X012907Y031876D02*
X010069Y031876D01*
X010014Y031995D02*
X013025Y031995D01*
X013160Y032113D02*
X011819Y032113D01*
X011847Y032125D02*
X011655Y032045D01*
X011447Y032045D01*
X011255Y032125D01*
X011108Y032272D01*
X011029Y032464D01*
X011029Y032672D01*
X011108Y032864D01*
X011754Y033509D01*
X011946Y033589D01*
X012154Y033589D01*
X012346Y033509D01*
X012493Y033362D01*
X012572Y033170D01*
X012572Y032962D01*
X012493Y032770D01*
X011847Y032125D01*
X011954Y032232D02*
X014524Y032232D01*
X014524Y032350D02*
X012073Y032350D01*
X012191Y032469D02*
X014524Y032469D01*
X014524Y032587D02*
X012310Y032587D01*
X012428Y032706D02*
X014524Y032706D01*
X014524Y032825D02*
X012515Y032825D01*
X012564Y032943D02*
X014524Y032943D01*
X014524Y033062D02*
X012572Y033062D01*
X012568Y033180D02*
X014524Y033180D01*
X014524Y033299D02*
X012519Y033299D01*
X012438Y033417D02*
X014524Y033417D01*
X014524Y033536D02*
X012282Y033536D01*
X011818Y033536D02*
X008484Y033536D01*
X008484Y033654D02*
X014524Y033654D01*
X014524Y033773D02*
X008484Y033773D01*
X008484Y033891D02*
X014524Y033891D01*
X014524Y034010D02*
X008484Y034010D01*
X008484Y034129D02*
X014524Y034129D01*
X014524Y034247D02*
X008484Y034247D01*
X008484Y034366D02*
X014524Y034366D01*
X014524Y034484D02*
X011461Y034484D01*
X011432Y034455D02*
X011684Y034707D01*
X011684Y035063D01*
X011432Y035315D01*
X011076Y035315D01*
X010824Y035063D01*
X010824Y034707D01*
X011076Y034455D01*
X011432Y034455D01*
X011580Y034603D02*
X014524Y034603D01*
X014524Y034721D02*
X011684Y034721D01*
X011684Y034840D02*
X014524Y034840D01*
X014524Y034958D02*
X011684Y034958D01*
X011670Y035077D02*
X014524Y035077D01*
X014524Y035195D02*
X011551Y035195D01*
X011433Y035314D02*
X014524Y035314D01*
X014524Y035432D02*
X008484Y035432D01*
X008484Y035314D02*
X010075Y035314D01*
X010076Y035315D02*
X009824Y035063D01*
X009824Y034707D01*
X010076Y034455D01*
X010432Y034455D01*
X010684Y034707D01*
X010684Y035063D01*
X010432Y035315D01*
X010076Y035315D01*
X009957Y035195D02*
X008484Y035195D01*
X008484Y035077D02*
X009838Y035077D01*
X009824Y034958D02*
X008484Y034958D01*
X008484Y034840D02*
X009824Y034840D01*
X009824Y034721D02*
X008484Y034721D01*
X008484Y034603D02*
X009928Y034603D01*
X010046Y034484D02*
X008484Y034484D01*
X008024Y034484D02*
X007984Y034484D01*
X007984Y034366D02*
X008024Y034366D01*
X008024Y034247D02*
X007984Y034247D01*
X007984Y034129D02*
X008024Y034129D01*
X008024Y034010D02*
X007984Y034010D01*
X007984Y033891D02*
X008024Y033891D01*
X008024Y033773D02*
X007984Y033773D01*
X007984Y033654D02*
X008024Y033654D01*
X008024Y033536D02*
X007984Y033536D01*
X007984Y033417D02*
X008024Y033417D01*
X008024Y033299D02*
X007984Y033299D01*
X007984Y033180D02*
X008024Y033180D01*
X008024Y033062D02*
X007984Y033062D01*
X007984Y032943D02*
X008024Y032943D01*
X008024Y032825D02*
X007984Y032825D01*
X007984Y032706D02*
X008024Y032706D01*
X008024Y032587D02*
X007984Y032587D01*
X007984Y032469D02*
X008024Y032469D01*
X008024Y032350D02*
X007984Y032350D01*
X007984Y032232D02*
X008024Y032232D01*
X008024Y032113D02*
X007984Y032113D01*
X007984Y031995D02*
X008024Y031995D01*
X008024Y031876D02*
X007984Y031876D01*
X007984Y031758D02*
X008024Y031758D01*
X008024Y031639D02*
X007984Y031639D01*
X007984Y031521D02*
X008024Y031521D01*
X008024Y031402D02*
X007984Y031402D01*
X007984Y031283D02*
X008024Y031283D01*
X008024Y031165D02*
X007984Y031165D01*
X007984Y031046D02*
X008024Y031046D01*
X008024Y030928D02*
X007984Y030928D01*
X007984Y030809D02*
X008024Y030809D01*
X007984Y030691D02*
X008123Y030691D01*
X008241Y030572D02*
X007984Y030572D01*
X007984Y030454D02*
X008360Y030454D01*
X008478Y030335D02*
X007984Y030335D01*
X007984Y030217D02*
X008597Y030217D01*
X008703Y030098D02*
X008715Y030098D01*
X008438Y030098D02*
X007984Y030098D01*
X007984Y029979D02*
X008224Y029979D01*
X008105Y029861D02*
X007984Y029861D01*
X007987Y029742D02*
X007937Y029742D01*
X007868Y029624D02*
X007818Y029624D01*
X007750Y029505D02*
X007700Y029505D01*
X007631Y029387D02*
X007581Y029387D01*
X007581Y029268D02*
X007484Y029268D01*
X007484Y029150D02*
X007550Y029150D01*
X007550Y029031D02*
X007484Y029031D01*
X007484Y028913D02*
X007580Y028913D01*
X007629Y028794D02*
X007484Y028794D01*
X007484Y028676D02*
X007747Y028676D01*
X007254Y029385D02*
X007754Y029885D01*
X007754Y036885D01*
X007984Y036381D02*
X008024Y036381D01*
X008024Y036262D02*
X007984Y036262D01*
X007984Y036144D02*
X008024Y036144D01*
X008024Y036025D02*
X007984Y036025D01*
X007984Y035907D02*
X008024Y035907D01*
X008024Y035788D02*
X007984Y035788D01*
X007984Y035670D02*
X008024Y035670D01*
X008024Y035551D02*
X007984Y035551D01*
X007984Y035432D02*
X008024Y035432D01*
X008024Y035314D02*
X007984Y035314D01*
X007984Y035195D02*
X008024Y035195D01*
X008024Y035077D02*
X007984Y035077D01*
X007984Y034958D02*
X008024Y034958D01*
X008024Y034840D02*
X007984Y034840D01*
X007984Y034721D02*
X008024Y034721D01*
X008024Y034603D02*
X007984Y034603D01*
X008484Y035551D02*
X014524Y035551D01*
X014524Y035670D02*
X008484Y035670D01*
X008484Y035788D02*
X014524Y035788D01*
X014524Y035907D02*
X008484Y035907D01*
X008484Y036025D02*
X014524Y036025D01*
X014524Y036144D02*
X008484Y036144D01*
X008484Y036262D02*
X014524Y036262D01*
X014524Y036381D02*
X008484Y036381D01*
X008254Y037135D02*
X008004Y037385D01*
X007254Y037385D01*
X006754Y036885D01*
X007033Y036499D02*
X007475Y036499D01*
X007524Y036381D02*
X006484Y036381D01*
X006484Y036262D02*
X007524Y036262D01*
X007524Y036144D02*
X006484Y036144D01*
X006484Y036025D02*
X007524Y036025D01*
X007524Y035907D02*
X006484Y035907D01*
X006484Y035788D02*
X007524Y035788D01*
X007524Y035670D02*
X006484Y035670D01*
X006484Y035551D02*
X007524Y035551D01*
X007524Y035432D02*
X006484Y035432D01*
X006484Y035314D02*
X007524Y035314D01*
X007524Y035195D02*
X006484Y035195D01*
X006484Y035077D02*
X007524Y035077D01*
X007524Y034958D02*
X006484Y034958D01*
X006484Y034840D02*
X007524Y034840D01*
X007524Y034721D02*
X006484Y034721D01*
X006484Y034603D02*
X007524Y034603D01*
X007524Y034484D02*
X006484Y034484D01*
X006484Y034366D02*
X007524Y034366D01*
X007524Y034247D02*
X006484Y034247D01*
X006484Y034129D02*
X007524Y034129D01*
X007524Y034010D02*
X006484Y034010D01*
X006484Y033891D02*
X007524Y033891D01*
X007524Y033773D02*
X006484Y033773D01*
X006484Y033654D02*
X007524Y033654D01*
X007524Y033536D02*
X006484Y033536D01*
X006484Y033417D02*
X007524Y033417D01*
X007524Y033299D02*
X006484Y033299D01*
X006484Y033180D02*
X007524Y033180D01*
X007524Y033062D02*
X006484Y033062D01*
X006484Y032943D02*
X007524Y032943D01*
X007524Y032825D02*
X006484Y032825D01*
X006401Y032706D02*
X007524Y032706D01*
X007524Y032587D02*
X006282Y032587D01*
X006163Y032469D02*
X007524Y032469D01*
X007524Y032350D02*
X006045Y032350D01*
X005984Y032232D02*
X007524Y032232D01*
X007524Y032113D02*
X007212Y032113D01*
X007169Y031995D02*
X007331Y031995D01*
X007341Y031995D02*
X007524Y031995D01*
X007524Y031876D02*
X007411Y031876D01*
X007442Y031758D02*
X007524Y031758D01*
X007524Y031639D02*
X007448Y031639D01*
X007423Y031521D02*
X007524Y031521D01*
X007524Y031402D02*
X007367Y031402D01*
X007264Y031283D02*
X007524Y031283D01*
X007524Y031165D02*
X007145Y031165D01*
X007034Y031165D02*
X006871Y031165D01*
X006915Y031283D02*
X006753Y031283D01*
X006739Y031402D02*
X006797Y031402D01*
X006857Y031521D02*
X006694Y031521D01*
X006678Y031521D02*
X006516Y031521D01*
X006560Y031639D02*
X006397Y031639D01*
X006441Y031758D02*
X005984Y031758D01*
X005984Y031876D02*
X006407Y031876D01*
X006525Y031995D02*
X005984Y031995D01*
X005984Y032113D02*
X006660Y032113D01*
X006813Y031639D02*
X006976Y031639D01*
X006931Y031758D02*
X007094Y031758D01*
X007050Y031876D02*
X007213Y031876D01*
X006990Y031046D02*
X007524Y031046D01*
X007524Y030928D02*
X006908Y030928D01*
X006789Y030809D02*
X007524Y030809D01*
X007524Y030691D02*
X006584Y030691D01*
X006254Y030385D02*
X005754Y030885D01*
X005754Y032385D01*
X006254Y032885D01*
X006254Y037385D01*
X006754Y037885D01*
X006284Y037922D02*
X005116Y037922D01*
X004998Y037803D02*
X006284Y037803D01*
X006229Y037685D02*
X004984Y037685D01*
X004984Y037566D02*
X006110Y037566D01*
X006024Y037448D02*
X004984Y037448D01*
X004984Y037329D02*
X006024Y037329D01*
X006024Y037211D02*
X004984Y037211D01*
X004984Y037092D02*
X006024Y037092D01*
X006024Y036974D02*
X004984Y036974D01*
X004984Y036855D02*
X006024Y036855D01*
X006024Y036736D02*
X004984Y036736D01*
X004984Y036618D02*
X006024Y036618D01*
X006024Y036499D02*
X004984Y036499D01*
X004984Y036381D02*
X006024Y036381D01*
X006024Y036262D02*
X004957Y036262D01*
X004838Y036144D02*
X006024Y036144D01*
X006024Y036025D02*
X004720Y036025D01*
X004601Y035907D02*
X006024Y035907D01*
X006024Y035788D02*
X004483Y035788D01*
X004364Y035670D02*
X006024Y035670D01*
X006024Y035551D02*
X002746Y035551D01*
X002627Y035432D02*
X006024Y035432D01*
X006024Y035314D02*
X004933Y035314D01*
X004932Y035315D02*
X004576Y035315D01*
X004324Y035063D01*
X004324Y034707D01*
X004576Y034455D01*
X004932Y034455D01*
X005184Y034707D01*
X005184Y035063D01*
X004932Y035315D01*
X005051Y035195D02*
X006024Y035195D01*
X006024Y035077D02*
X005170Y035077D01*
X005184Y034958D02*
X006024Y034958D01*
X006024Y034840D02*
X005184Y034840D01*
X005184Y034721D02*
X006024Y034721D01*
X006024Y034603D02*
X005080Y034603D01*
X004961Y034484D02*
X006024Y034484D01*
X006024Y034366D02*
X002484Y034366D01*
X002484Y034484D02*
X003546Y034484D01*
X003576Y034455D02*
X003932Y034455D01*
X004184Y034707D01*
X004184Y035063D01*
X003932Y035315D01*
X003576Y035315D01*
X003324Y035063D01*
X003324Y034707D01*
X003576Y034455D01*
X003428Y034603D02*
X002484Y034603D01*
X002484Y034721D02*
X003324Y034721D01*
X003324Y034840D02*
X002484Y034840D01*
X002484Y034958D02*
X003324Y034958D01*
X003338Y035077D02*
X002484Y035077D01*
X002484Y035195D02*
X003457Y035195D01*
X003575Y035314D02*
X002508Y035314D01*
X002254Y035385D02*
X002754Y035885D01*
X002439Y036262D02*
X001264Y036262D01*
X001264Y036381D02*
X002093Y036381D01*
X001924Y036447D02*
X001924Y036447D01*
X001858Y036499D02*
X001264Y036499D01*
X001264Y036618D02*
X001710Y036618D01*
X001561Y036736D02*
X001264Y036736D01*
X001264Y036855D02*
X001469Y036855D01*
X001537Y036756D02*
X001537Y036756D01*
X001389Y036974D02*
X001264Y036974D01*
X001264Y037092D02*
X001308Y037092D01*
X002254Y035385D02*
X002254Y030885D01*
X002484Y031995D02*
X002491Y031995D01*
X002484Y032113D02*
X002610Y032113D01*
X002484Y032232D02*
X002833Y032232D01*
X003172Y032232D02*
X004648Y032232D01*
X004576Y032350D02*
X002484Y032350D01*
X002484Y032469D02*
X004529Y032469D01*
X004529Y032587D02*
X002484Y032587D01*
X002484Y032706D02*
X004543Y032706D01*
X004592Y032825D02*
X002484Y032825D01*
X002484Y032943D02*
X004687Y032943D01*
X004806Y033062D02*
X002484Y033062D01*
X002484Y033180D02*
X004925Y033180D01*
X005043Y033299D02*
X002484Y033299D01*
X002484Y033417D02*
X005162Y033417D01*
X005318Y033536D02*
X002484Y033536D01*
X002484Y033654D02*
X006024Y033654D01*
X006024Y033536D02*
X005782Y033536D01*
X005938Y033417D02*
X006024Y033417D01*
X006019Y033299D02*
X006024Y033299D01*
X006024Y033773D02*
X002484Y033773D01*
X002484Y033891D02*
X006024Y033891D01*
X006024Y034010D02*
X002484Y034010D01*
X002484Y034129D02*
X006024Y034129D01*
X006024Y034247D02*
X002484Y034247D01*
X002385Y036266D02*
X002385Y036266D01*
X003360Y036339D02*
X003360Y036339D01*
X003432Y036381D02*
X004425Y036381D01*
X004524Y036499D02*
X003637Y036499D01*
X003789Y036587D02*
X003789Y036587D01*
X003789Y036587D01*
X003818Y036618D02*
X004524Y036618D01*
X004524Y036736D02*
X003928Y036736D01*
X004038Y036855D02*
X004524Y036855D01*
X004524Y036974D02*
X004137Y036974D01*
X004194Y037092D02*
X004524Y037092D01*
X004524Y037211D02*
X004251Y037211D01*
X004308Y037329D02*
X004524Y037329D01*
X004524Y037448D02*
X004348Y037448D01*
X004366Y037566D02*
X004524Y037566D01*
X004524Y037685D02*
X004384Y037685D01*
X004402Y037803D02*
X004524Y037803D01*
X004524Y037922D02*
X004408Y037922D01*
X004414Y037885D02*
X004414Y037885D01*
X004391Y038040D02*
X004584Y038040D01*
X004703Y038159D02*
X004373Y038159D01*
X004355Y038278D02*
X004822Y038278D01*
X004940Y038396D02*
X004330Y038396D01*
X004340Y038374D02*
X004340Y038374D01*
X004273Y038515D02*
X005059Y038515D01*
X005235Y038040D02*
X006284Y038040D01*
X007287Y037092D02*
X007297Y037092D01*
X007284Y036974D02*
X007224Y036974D01*
X007224Y036855D02*
X007284Y036855D01*
X007284Y036736D02*
X007224Y036736D01*
X007152Y036618D02*
X007356Y036618D01*
X008026Y038278D02*
X008482Y038278D01*
X009026Y038278D02*
X009482Y038278D01*
X009559Y038355D02*
X009284Y038079D01*
X009284Y037690D01*
X009559Y037415D01*
X009949Y037415D01*
X010224Y037690D01*
X010224Y038079D01*
X009949Y038355D01*
X009559Y038355D01*
X009364Y038159D02*
X009144Y038159D01*
X009224Y038040D02*
X009284Y038040D01*
X009284Y037922D02*
X009224Y037922D01*
X009224Y037803D02*
X009284Y037803D01*
X009289Y037685D02*
X009219Y037685D01*
X009100Y037566D02*
X009408Y037566D01*
X009526Y037448D02*
X008982Y037448D01*
X008974Y037329D02*
X009534Y037329D01*
X009559Y037355D02*
X009284Y037079D01*
X009284Y036690D01*
X009559Y036415D01*
X009949Y036415D01*
X010224Y036690D01*
X010224Y037079D01*
X009949Y037355D01*
X009559Y037355D01*
X009415Y037211D02*
X009093Y037211D01*
X009211Y037092D02*
X009297Y037092D01*
X009284Y036974D02*
X009224Y036974D01*
X009224Y036855D02*
X009284Y036855D01*
X009284Y036736D02*
X009224Y036736D01*
X009152Y036618D02*
X009356Y036618D01*
X009475Y036499D02*
X009033Y036499D01*
X010033Y036499D02*
X010475Y036499D01*
X010559Y036415D02*
X010284Y036690D01*
X010284Y037079D01*
X010559Y037355D01*
X010949Y037355D01*
X011224Y037079D01*
X011224Y036690D01*
X010949Y036415D01*
X010559Y036415D01*
X010356Y036618D02*
X010152Y036618D01*
X010224Y036736D02*
X010284Y036736D01*
X010284Y036855D02*
X010224Y036855D01*
X010224Y036974D02*
X010284Y036974D01*
X010297Y037092D02*
X010211Y037092D01*
X010093Y037211D02*
X010415Y037211D01*
X010534Y037329D02*
X009974Y037329D01*
X009982Y037448D02*
X010526Y037448D01*
X010559Y037415D02*
X010284Y037690D01*
X010284Y038079D01*
X010559Y038355D01*
X010949Y038355D01*
X011224Y038079D01*
X011224Y037690D01*
X010949Y037415D01*
X010559Y037415D01*
X010408Y037566D02*
X010100Y037566D01*
X010219Y037685D02*
X010289Y037685D01*
X010284Y037803D02*
X010224Y037803D01*
X010224Y037922D02*
X010284Y037922D01*
X010284Y038040D02*
X010224Y038040D01*
X010144Y038159D02*
X010364Y038159D01*
X010482Y038278D02*
X010026Y038278D01*
X011026Y038278D02*
X011482Y038278D01*
X011559Y038355D02*
X011284Y038079D01*
X011284Y037690D01*
X011559Y037415D01*
X011949Y037415D01*
X012224Y037690D01*
X012224Y038079D01*
X011949Y038355D01*
X011559Y038355D01*
X011364Y038159D02*
X011144Y038159D01*
X011224Y038040D02*
X011284Y038040D01*
X011284Y037922D02*
X011224Y037922D01*
X011224Y037803D02*
X011284Y037803D01*
X011289Y037685D02*
X011219Y037685D01*
X011100Y037566D02*
X011408Y037566D01*
X011526Y037448D02*
X010982Y037448D01*
X010974Y037329D02*
X011534Y037329D01*
X011559Y037355D02*
X011284Y037079D01*
X011284Y036690D01*
X011559Y036415D01*
X011949Y036415D01*
X012224Y036690D01*
X012224Y037079D01*
X011949Y037355D01*
X011559Y037355D01*
X011415Y037211D02*
X011093Y037211D01*
X011211Y037092D02*
X011297Y037092D01*
X011284Y036974D02*
X011224Y036974D01*
X011224Y036855D02*
X011284Y036855D01*
X011284Y036736D02*
X011224Y036736D01*
X011152Y036618D02*
X011356Y036618D01*
X011475Y036499D02*
X011033Y036499D01*
X011075Y035314D02*
X010433Y035314D01*
X010551Y035195D02*
X010957Y035195D01*
X010838Y035077D02*
X010670Y035077D01*
X010684Y034958D02*
X010824Y034958D01*
X010824Y034840D02*
X010684Y034840D01*
X010684Y034721D02*
X010824Y034721D01*
X010928Y034603D02*
X010580Y034603D01*
X010461Y034484D02*
X011046Y034484D01*
X011662Y033417D02*
X008484Y033417D01*
X008484Y033299D02*
X011543Y033299D01*
X011425Y033180D02*
X008484Y033180D01*
X008484Y033062D02*
X011306Y033062D01*
X011187Y032943D02*
X008484Y032943D01*
X008484Y032825D02*
X011092Y032825D01*
X011043Y032706D02*
X008484Y032706D01*
X008484Y032587D02*
X011029Y032587D01*
X011029Y032469D02*
X008484Y032469D01*
X008484Y032350D02*
X011076Y032350D01*
X011148Y032232D02*
X009672Y032232D01*
X009333Y032232D02*
X008484Y032232D01*
X008484Y032113D02*
X009110Y032113D01*
X008991Y031995D02*
X008484Y031995D01*
X008484Y031876D02*
X008936Y031876D01*
X008887Y031758D02*
X008484Y031758D01*
X008484Y031639D02*
X008887Y031639D01*
X008887Y031521D02*
X008484Y031521D01*
X008484Y031402D02*
X008934Y031402D01*
X008985Y031283D02*
X008484Y031283D01*
X008484Y031165D02*
X009104Y031165D01*
X009319Y031046D02*
X008484Y031046D01*
X008536Y030928D02*
X012491Y030928D01*
X012602Y030928D02*
X012764Y030928D01*
X012720Y031046D02*
X012883Y031046D01*
X012839Y031165D02*
X013002Y031165D01*
X012957Y031283D02*
X013120Y031283D01*
X013134Y031402D02*
X013076Y031402D01*
X013313Y031639D02*
X013476Y031639D01*
X013431Y031758D02*
X013594Y031758D01*
X013550Y031876D02*
X013713Y031876D01*
X013669Y031995D02*
X013831Y031995D01*
X013841Y031995D02*
X014524Y031995D01*
X014524Y032113D02*
X013712Y032113D01*
X013911Y031876D02*
X014524Y031876D01*
X014524Y031758D02*
X013942Y031758D01*
X013948Y031639D02*
X014524Y031639D01*
X014524Y031521D02*
X013923Y031521D01*
X013867Y031402D02*
X014524Y031402D01*
X014524Y031283D02*
X013764Y031283D01*
X012790Y030691D02*
X008773Y030691D01*
X008655Y030809D02*
X012646Y030809D01*
X012442Y031046D02*
X009685Y031046D01*
X009901Y031165D02*
X012425Y031165D01*
X012434Y031283D02*
X010019Y031283D01*
X010071Y031402D02*
X012474Y031402D01*
X012551Y031521D02*
X010117Y031521D01*
X009895Y032113D02*
X011283Y032113D01*
X011593Y028676D02*
X010155Y028676D01*
X010231Y028557D02*
X011789Y028557D01*
X011754Y027885D02*
X011754Y024385D01*
X011484Y023934D02*
X011024Y023934D01*
X011157Y024052D02*
X011351Y024052D01*
X011280Y024171D02*
X011228Y024171D01*
X011209Y024645D02*
X011299Y024645D01*
X010484Y023934D02*
X009992Y023934D01*
X009781Y023934D02*
X009726Y023934D01*
X009726Y024052D02*
X009781Y024052D01*
X009781Y024171D02*
X009726Y024171D01*
X009726Y024289D02*
X009781Y024289D01*
X009516Y023934D02*
X008527Y023934D01*
X007484Y022274D02*
X013334Y022274D01*
X013273Y022156D02*
X007484Y022156D01*
X007484Y022037D02*
X013246Y022037D01*
X013244Y021919D02*
X007545Y021919D01*
X007664Y021800D02*
X013244Y021800D01*
X013244Y021563D02*
X007734Y021563D01*
X007734Y021681D02*
X013705Y021681D01*
X013803Y021681D02*
X015006Y021681D01*
X015006Y021563D02*
X014264Y021563D01*
X014264Y021444D02*
X015006Y021444D01*
X015006Y021326D02*
X014264Y021326D01*
X014258Y021207D02*
X015006Y021207D01*
X015006Y021181D02*
X015085Y020990D01*
X015231Y020844D01*
X015422Y020765D01*
X015629Y020765D01*
X015820Y020844D01*
X015966Y020990D01*
X016046Y021181D01*
X016046Y022088D01*
X015966Y022279D01*
X015820Y022426D01*
X015629Y022505D01*
X015422Y022505D01*
X015231Y022426D01*
X015085Y022279D01*
X015006Y022088D01*
X015006Y021181D01*
X015044Y021089D02*
X014226Y021089D01*
X014156Y020970D02*
X015105Y020970D01*
X015223Y020852D02*
X014026Y020852D01*
X013802Y020852D02*
X013706Y020852D01*
X013706Y020970D02*
X013802Y020970D01*
X013802Y021089D02*
X013706Y021089D01*
X013706Y021207D02*
X013802Y021207D01*
X013802Y021326D02*
X013706Y021326D01*
X013706Y021444D02*
X013802Y021444D01*
X013802Y021563D02*
X013706Y021563D01*
X013706Y021800D02*
X013802Y021800D01*
X013802Y021919D02*
X013706Y021919D01*
X013706Y022037D02*
X013802Y022037D01*
X013802Y022156D02*
X013706Y022156D01*
X013706Y022274D02*
X013802Y022274D01*
X013802Y022393D02*
X013706Y022393D01*
X013593Y022748D02*
X017010Y022748D01*
X016824Y022393D02*
X015853Y022393D01*
X015969Y022274D02*
X016824Y022274D01*
X016875Y022156D02*
X016018Y022156D01*
X016046Y022037D02*
X016994Y022037D01*
X017514Y022037D02*
X017994Y022037D01*
X018076Y021955D02*
X017824Y022207D01*
X017824Y022563D01*
X018076Y022815D01*
X018432Y022815D01*
X018684Y022563D01*
X018684Y022207D01*
X018432Y021955D01*
X018076Y021955D01*
X017875Y022156D02*
X017633Y022156D01*
X017684Y022274D02*
X017824Y022274D01*
X017824Y022393D02*
X017684Y022393D01*
X017684Y022511D02*
X017824Y022511D01*
X017891Y022630D02*
X017617Y022630D01*
X017498Y022748D02*
X018010Y022748D01*
X018498Y022748D02*
X019010Y022748D01*
X019076Y022815D02*
X018824Y022563D01*
X018824Y022207D01*
X019076Y021955D01*
X019432Y021955D01*
X019684Y022207D01*
X019684Y022563D01*
X019432Y022815D01*
X019076Y022815D01*
X018891Y022630D02*
X018617Y022630D01*
X018684Y022511D02*
X018824Y022511D01*
X018824Y022393D02*
X018684Y022393D01*
X018684Y022274D02*
X018824Y022274D01*
X018875Y022156D02*
X018633Y022156D01*
X018514Y022037D02*
X018994Y022037D01*
X019514Y022037D02*
X020244Y022037D01*
X020244Y021919D02*
X016046Y021919D01*
X016046Y021800D02*
X020244Y021800D01*
X020244Y021681D02*
X016046Y021681D01*
X016046Y021563D02*
X020244Y021563D01*
X020244Y021444D02*
X016046Y021444D01*
X016046Y021326D02*
X020244Y021326D01*
X020244Y021207D02*
X016046Y021207D01*
X016007Y021089D02*
X020244Y021089D01*
X020244Y020970D02*
X015946Y020970D01*
X015828Y020852D02*
X020244Y020852D01*
X020244Y020733D02*
X007428Y020733D01*
X007546Y020852D02*
X013482Y020852D01*
X013352Y020970D02*
X007665Y020970D01*
X007734Y021089D02*
X013281Y021089D01*
X013250Y021207D02*
X007734Y021207D01*
X007734Y021326D02*
X013244Y021326D01*
X013244Y021444D02*
X007734Y021444D01*
X007504Y021635D02*
X007504Y021135D01*
X007504Y021635D02*
X007254Y021885D01*
X007254Y029385D01*
X006024Y029505D02*
X006003Y029505D01*
X006024Y029624D02*
X005885Y029624D01*
X006024Y029742D02*
X005642Y029742D01*
X005918Y028676D02*
X006024Y028676D01*
X006024Y028557D02*
X005722Y028557D01*
X005524Y031046D02*
X003185Y031046D01*
X003401Y031165D02*
X005524Y031165D01*
X005524Y031283D02*
X003519Y031283D01*
X003571Y031402D02*
X005524Y031402D01*
X005524Y031521D02*
X003617Y031521D01*
X003617Y031639D02*
X005524Y031639D01*
X005524Y031758D02*
X003617Y031758D01*
X003569Y031876D02*
X005524Y031876D01*
X005524Y031995D02*
X003514Y031995D01*
X003395Y032113D02*
X004783Y032113D01*
X005319Y032113D02*
X005524Y032113D01*
X005524Y032232D02*
X005454Y032232D01*
X005984Y031639D02*
X006170Y031639D01*
X006051Y031521D02*
X005984Y031521D01*
X004546Y034484D02*
X003961Y034484D01*
X004080Y034603D02*
X004428Y034603D01*
X004324Y034721D02*
X004184Y034721D01*
X004184Y034840D02*
X004324Y034840D01*
X004324Y034958D02*
X004184Y034958D01*
X004170Y035077D02*
X004338Y035077D01*
X004457Y035195D02*
X004051Y035195D01*
X003933Y035314D02*
X004575Y035314D01*
X004215Y038633D02*
X017278Y038633D01*
X017258Y038605D02*
X017258Y038605D01*
X017231Y038515D02*
X007449Y038515D01*
X007568Y038396D02*
X017194Y038396D01*
X017157Y038278D02*
X015012Y038278D01*
X014945Y038345D02*
X014794Y038345D01*
X014794Y037925D01*
X015214Y037925D01*
X015214Y038075D01*
X014945Y038345D01*
X014794Y038278D02*
X014714Y038278D01*
X014714Y038159D02*
X014794Y038159D01*
X014794Y038040D02*
X014714Y038040D01*
X014714Y037922D02*
X014224Y037922D01*
X014224Y038040D02*
X014294Y038040D01*
X014378Y038159D02*
X014144Y038159D01*
X014026Y038278D02*
X014496Y038278D01*
X014794Y037922D02*
X017113Y037922D01*
X017113Y038040D02*
X015214Y038040D01*
X015130Y038159D02*
X017121Y038159D01*
X017113Y038132D02*
X017113Y038132D01*
X017113Y037803D02*
X015214Y037803D01*
X015205Y037685D02*
X017113Y037685D01*
X017113Y037637D02*
X017113Y037637D01*
X017134Y037566D02*
X016898Y037566D01*
X016984Y037480D02*
X016984Y037480D01*
X017016Y037448D02*
X017171Y037448D01*
X017135Y037329D02*
X017208Y037329D01*
X017077Y036736D02*
X015224Y036736D01*
X015224Y036855D02*
X016959Y036855D01*
X016840Y036974D02*
X015224Y036974D01*
X015211Y037092D02*
X016721Y037092D01*
X016754Y037385D02*
X017754Y036385D01*
X017754Y034885D01*
X017457Y035195D02*
X017051Y035195D01*
X017170Y035077D02*
X017338Y035077D01*
X017324Y034958D02*
X017184Y034958D01*
X017184Y035063D02*
X016932Y035315D01*
X016576Y035315D01*
X016324Y035063D01*
X016324Y034707D01*
X016576Y034455D01*
X016932Y034455D01*
X017184Y034707D01*
X017184Y035063D01*
X017184Y034840D02*
X017324Y034840D01*
X017324Y034721D02*
X017184Y034721D01*
X017080Y034603D02*
X017428Y034603D01*
X017546Y034484D02*
X016961Y034484D01*
X016546Y034484D02*
X014984Y034484D01*
X014984Y034366D02*
X020244Y034366D01*
X020244Y034484D02*
X017961Y034484D01*
X018080Y034603D02*
X020244Y034603D01*
X020244Y034721D02*
X018184Y034721D01*
X018184Y034840D02*
X020244Y034840D01*
X020244Y034958D02*
X018184Y034958D01*
X018170Y035077D02*
X020244Y035077D01*
X020244Y035195D02*
X018051Y035195D01*
X017984Y035314D02*
X020244Y035314D01*
X020244Y035432D02*
X017984Y035432D01*
X017984Y035551D02*
X020244Y035551D01*
X020244Y035670D02*
X017984Y035670D01*
X017984Y035788D02*
X020244Y035788D01*
X020244Y035907D02*
X017984Y035907D01*
X017984Y036025D02*
X020244Y036025D01*
X020244Y036144D02*
X017984Y036144D01*
X017984Y036262D02*
X018439Y036262D01*
X018093Y036381D02*
X017984Y036381D01*
X017524Y036262D02*
X014984Y036262D01*
X014984Y036144D02*
X017524Y036144D01*
X017524Y036025D02*
X014984Y036025D01*
X014984Y035907D02*
X017524Y035907D01*
X017524Y035788D02*
X014984Y035788D01*
X014984Y035670D02*
X017524Y035670D01*
X017524Y035551D02*
X014984Y035551D01*
X014984Y035432D02*
X017524Y035432D01*
X017524Y035314D02*
X016933Y035314D01*
X016575Y035314D02*
X014984Y035314D01*
X014984Y035195D02*
X016457Y035195D01*
X016338Y035077D02*
X014984Y035077D01*
X014984Y034958D02*
X016324Y034958D01*
X016324Y034840D02*
X014984Y034840D01*
X014984Y034721D02*
X016324Y034721D01*
X016428Y034603D02*
X014984Y034603D01*
X014984Y034247D02*
X020244Y034247D01*
X020244Y034129D02*
X014984Y034129D01*
X014984Y034010D02*
X020244Y034010D01*
X020244Y033891D02*
X014984Y033891D01*
X014984Y033773D02*
X020244Y033773D01*
X020244Y033654D02*
X014984Y033654D01*
X014984Y033536D02*
X018318Y033536D01*
X018254Y033509D02*
X018446Y033589D01*
X018654Y033589D01*
X018846Y033509D01*
X018993Y033362D01*
X019072Y033170D01*
X019072Y032962D01*
X018993Y032770D01*
X018347Y032125D01*
X018155Y032045D01*
X017947Y032045D01*
X017755Y032125D01*
X017608Y032272D01*
X017529Y032464D01*
X017529Y032672D01*
X017608Y032864D01*
X018254Y033509D01*
X018162Y033417D02*
X014984Y033417D01*
X014984Y033299D02*
X018043Y033299D01*
X017925Y033180D02*
X014984Y033180D01*
X014984Y033062D02*
X017806Y033062D01*
X017687Y032943D02*
X014984Y032943D01*
X014984Y032825D02*
X017592Y032825D01*
X017543Y032706D02*
X014984Y032706D01*
X014984Y032587D02*
X017529Y032587D01*
X017529Y032469D02*
X014984Y032469D01*
X014984Y032350D02*
X017576Y032350D01*
X017648Y032232D02*
X016172Y032232D01*
X016125Y032251D02*
X015880Y032251D01*
X015654Y032158D01*
X015481Y031985D01*
X015387Y031759D01*
X015387Y031514D01*
X015481Y031288D01*
X015654Y031115D01*
X015880Y031021D01*
X016125Y031021D01*
X016351Y031115D01*
X016524Y031288D01*
X016617Y031514D01*
X016617Y031759D01*
X016524Y031985D01*
X016351Y032158D01*
X016125Y032251D01*
X015833Y032232D02*
X014984Y032232D01*
X014984Y032113D02*
X015610Y032113D01*
X015491Y031995D02*
X014984Y031995D01*
X014984Y031876D02*
X015436Y031876D01*
X015387Y031758D02*
X014984Y031758D01*
X014984Y031639D02*
X015387Y031639D01*
X015387Y031521D02*
X014984Y031521D01*
X014984Y031402D02*
X015434Y031402D01*
X015485Y031283D02*
X014984Y031283D01*
X014984Y031165D02*
X015604Y031165D01*
X015819Y031046D02*
X014984Y031046D01*
X014984Y030928D02*
X018991Y030928D01*
X019102Y030928D02*
X019264Y030928D01*
X019220Y031046D02*
X019383Y031046D01*
X019339Y031165D02*
X019502Y031165D01*
X019457Y031283D02*
X019620Y031283D01*
X019634Y031402D02*
X019576Y031402D01*
X019516Y031521D02*
X019678Y031521D01*
X019739Y031402D02*
X019797Y031402D01*
X019753Y031283D02*
X019915Y031283D01*
X019871Y031165D02*
X020034Y031165D01*
X020145Y031165D02*
X020244Y031165D01*
X020244Y031046D02*
X019990Y031046D01*
X019908Y030928D02*
X020244Y030928D01*
X020244Y030809D02*
X019789Y030809D01*
X019584Y030691D02*
X020244Y030691D01*
X020244Y030572D02*
X014767Y030572D01*
X014885Y030691D02*
X019290Y030691D01*
X019146Y030809D02*
X014984Y030809D01*
X014754Y030885D02*
X011754Y027885D01*
X011984Y027727D02*
X015446Y027727D01*
X015454Y027609D02*
X011984Y027609D01*
X011984Y027490D02*
X015491Y027490D01*
X015664Y027490D02*
X015827Y027490D01*
X015782Y027609D02*
X015945Y027609D01*
X015901Y027727D02*
X016064Y027727D01*
X016020Y027846D02*
X016182Y027846D01*
X016233Y027846D02*
X016395Y027846D01*
X016351Y027727D02*
X016514Y027727D01*
X016301Y027964D02*
X016277Y027964D01*
X016138Y027964D02*
X016114Y027964D01*
X015708Y027372D02*
X011984Y027372D01*
X011984Y027253D02*
X015712Y027253D01*
X015466Y027846D02*
X012040Y027846D01*
X012159Y027964D02*
X015516Y027964D01*
X015613Y028083D02*
X012277Y028083D01*
X013777Y023934D02*
X020244Y023934D01*
X020244Y023815D02*
X013896Y023815D01*
X013975Y023697D02*
X020244Y023697D01*
X020244Y023578D02*
X014024Y023578D01*
X014049Y023460D02*
X020244Y023460D01*
X020244Y023341D02*
X014049Y023341D01*
X014037Y023223D02*
X020244Y023223D01*
X020244Y023104D02*
X013988Y023104D01*
X013927Y022985D02*
X020244Y022985D01*
X020244Y022867D02*
X013809Y022867D01*
X014060Y022393D02*
X015198Y022393D01*
X015083Y022274D02*
X014174Y022274D01*
X014235Y022156D02*
X015034Y022156D01*
X015006Y022037D02*
X014262Y022037D01*
X014264Y021919D02*
X015006Y021919D01*
X015006Y021800D02*
X014264Y021800D01*
X014071Y019903D02*
X015209Y019903D01*
X015090Y019785D02*
X014189Y019785D01*
X014242Y019666D02*
X015038Y019666D01*
X015006Y019548D02*
X014274Y019548D01*
X014274Y019429D02*
X015006Y019429D01*
X015006Y019311D02*
X014274Y019311D01*
X014274Y019192D02*
X015006Y019192D01*
X015006Y019074D02*
X014274Y019074D01*
X014274Y018955D02*
X015006Y018955D01*
X015006Y018836D02*
X014274Y018836D01*
X014274Y018718D02*
X015006Y018718D01*
X015040Y018599D02*
X014240Y018599D01*
X014185Y018481D02*
X015094Y018481D01*
X015213Y018362D02*
X014067Y018362D01*
X015842Y019903D02*
X020244Y019903D01*
X020244Y019785D02*
X015961Y019785D01*
X016013Y019666D02*
X020244Y019666D01*
X020244Y019548D02*
X016046Y019548D01*
X016046Y019429D02*
X020244Y019429D01*
X020244Y019311D02*
X016046Y019311D01*
X016046Y019192D02*
X020244Y019192D01*
X020244Y019074D02*
X016046Y019074D01*
X016046Y018955D02*
X020244Y018955D01*
X020244Y018836D02*
X016046Y018836D01*
X016580Y012805D02*
X016334Y012559D01*
X016334Y012405D01*
X016734Y012405D01*
X016734Y012805D01*
X016580Y012805D01*
X016566Y012791D02*
X011456Y012791D01*
X011432Y012815D02*
X011076Y012815D01*
X010824Y012563D01*
X010824Y012207D01*
X011076Y011955D01*
X011432Y011955D01*
X011684Y012207D01*
X011684Y012563D01*
X011432Y012815D01*
X011575Y012672D02*
X016448Y012672D01*
X016334Y012554D02*
X011684Y012554D01*
X011684Y012435D02*
X016334Y012435D01*
X016334Y012365D02*
X016334Y012211D01*
X016580Y011965D01*
X016734Y011965D01*
X016734Y012364D01*
X016774Y012364D01*
X016774Y011965D01*
X016928Y011965D01*
X017174Y012211D01*
X017174Y012365D01*
X016774Y012365D01*
X016774Y012405D01*
X016734Y012405D01*
X016734Y012365D01*
X016334Y012365D01*
X016334Y012317D02*
X011684Y012317D01*
X011675Y012198D02*
X016347Y012198D01*
X016465Y012079D02*
X011557Y012079D01*
X011438Y011961D02*
X017570Y011961D01*
X017451Y012079D02*
X017043Y012079D01*
X017161Y012198D02*
X017333Y012198D01*
X017324Y012317D02*
X017174Y012317D01*
X017174Y012405D02*
X017174Y012559D01*
X016928Y012805D01*
X016774Y012805D01*
X016774Y012405D01*
X017174Y012405D01*
X017174Y012435D02*
X017324Y012435D01*
X017324Y012554D02*
X017174Y012554D01*
X017060Y012672D02*
X017433Y012672D01*
X017552Y012791D02*
X016942Y012791D01*
X016774Y012791D02*
X016734Y012791D01*
X016734Y012672D02*
X016774Y012672D01*
X016774Y012554D02*
X016734Y012554D01*
X016734Y012435D02*
X016774Y012435D01*
X016774Y012317D02*
X016734Y012317D01*
X016734Y012198D02*
X016774Y012198D01*
X016774Y012079D02*
X016734Y012079D01*
X016228Y009709D02*
X017773Y009709D01*
X017863Y009590D02*
X016418Y009590D01*
X014912Y007575D02*
X008729Y007575D01*
X008691Y007587D02*
X008611Y007600D01*
X008530Y007600D01*
X008451Y007587D01*
X008374Y007562D01*
X008302Y007526D01*
X008237Y007478D01*
X008000Y007241D01*
X008321Y006920D01*
X008240Y006838D01*
X008321Y006757D01*
X007752Y006188D01*
X007804Y006151D01*
X007876Y006114D01*
X007952Y006089D01*
X008032Y006076D01*
X008113Y006076D01*
X008192Y006089D01*
X008269Y006114D01*
X008341Y006151D01*
X008406Y006198D01*
X008643Y006435D01*
X008322Y006757D01*
X008403Y006838D01*
X008725Y006516D01*
X008962Y006754D01*
X009009Y006819D01*
X009046Y006891D01*
X009071Y006967D01*
X009083Y007047D01*
X009083Y007128D01*
X009071Y007207D01*
X009046Y007284D01*
X009009Y007356D01*
X008972Y007407D01*
X008403Y006838D01*
X008322Y006920D01*
X008891Y007489D01*
X008839Y007526D01*
X008768Y007562D01*
X008691Y007587D01*
X008858Y007456D02*
X014715Y007456D01*
X014596Y007338D02*
X009018Y007338D01*
X008902Y007338D02*
X008740Y007338D01*
X008784Y007219D02*
X008621Y007219D01*
X008665Y007101D02*
X008503Y007101D01*
X008547Y006982D02*
X008384Y006982D01*
X008378Y006864D02*
X008428Y006864D01*
X008496Y006745D02*
X008333Y006745D01*
X008310Y006745D02*
X008147Y006745D01*
X008191Y006626D02*
X008028Y006626D01*
X008073Y006508D02*
X007910Y006508D01*
X007954Y006389D02*
X007791Y006389D01*
X007836Y006271D02*
X007673Y006271D01*
X007671Y006269D02*
X008240Y006838D01*
X007918Y007160D01*
X007681Y006923D01*
X007634Y006858D01*
X007597Y006786D01*
X007572Y006709D01*
X007560Y006629D01*
X007560Y006549D01*
X007572Y006469D01*
X007597Y006392D01*
X007634Y006320D01*
X007671Y006269D01*
X007670Y006271D02*
X007338Y006271D01*
X007337Y006269D02*
X007374Y006320D01*
X007411Y006392D01*
X007436Y006469D01*
X007448Y006549D01*
X007448Y006629D01*
X007436Y006709D01*
X007411Y006786D01*
X007374Y006858D01*
X007327Y006923D01*
X007089Y007160D01*
X006768Y006838D01*
X007337Y006269D01*
X007335Y006271D02*
X007172Y006271D01*
X007255Y006188D02*
X006687Y006757D01*
X006768Y006838D01*
X006687Y006920D01*
X007008Y007241D01*
X006771Y007478D01*
X006706Y007526D01*
X006634Y007562D01*
X006557Y007587D01*
X006478Y007600D01*
X006397Y007600D01*
X006317Y007587D01*
X006240Y007562D01*
X006169Y007526D01*
X006117Y007489D01*
X006686Y006920D01*
X006605Y006838D01*
X006686Y006757D01*
X006365Y006435D01*
X006602Y006198D01*
X006667Y006151D01*
X006739Y006114D01*
X006816Y006089D01*
X006895Y006076D01*
X006976Y006076D01*
X007056Y006089D01*
X007132Y006114D01*
X007204Y006151D01*
X007255Y006188D01*
X007207Y006152D02*
X007801Y006152D01*
X007599Y006389D02*
X007409Y006389D01*
X007442Y006508D02*
X007566Y006508D01*
X007560Y006626D02*
X007448Y006626D01*
X007424Y006745D02*
X007584Y006745D01*
X007638Y006864D02*
X007370Y006864D01*
X007267Y006982D02*
X007741Y006982D01*
X007859Y007101D02*
X007149Y007101D01*
X007030Y007101D02*
X006868Y007101D01*
X006912Y006982D02*
X006749Y006982D01*
X006743Y006864D02*
X006793Y006864D01*
X006861Y006745D02*
X006698Y006745D01*
X006675Y006745D02*
X006512Y006745D01*
X006556Y006626D02*
X006393Y006626D01*
X006438Y006508D02*
X005956Y006508D01*
X005837Y006626D02*
X006173Y006626D01*
X006283Y006516D02*
X006046Y006754D01*
X005999Y006819D01*
X005962Y006891D01*
X005937Y006967D01*
X005925Y007047D01*
X005925Y007128D01*
X005937Y007207D01*
X005962Y007284D01*
X005999Y007356D01*
X006036Y007407D01*
X006605Y006838D01*
X006283Y006516D01*
X006410Y006389D02*
X006075Y006389D01*
X006193Y006271D02*
X006529Y006271D01*
X006665Y006152D02*
X006312Y006152D01*
X006430Y006034D02*
X009550Y006034D01*
X009431Y005915D02*
X006549Y005915D01*
X006667Y005797D02*
X009313Y005797D01*
X009194Y005678D02*
X006786Y005678D01*
X006904Y005560D02*
X009076Y005560D01*
X008991Y005441D02*
X007023Y005441D01*
X007141Y005322D02*
X008942Y005322D01*
X008936Y005204D02*
X007260Y005204D01*
X007379Y005085D02*
X008941Y005085D01*
X008990Y004967D02*
X007497Y004967D01*
X007616Y004848D02*
X009074Y004848D01*
X008991Y004730D02*
X007734Y004730D01*
X007853Y004611D02*
X008872Y004611D01*
X008824Y004493D02*
X007971Y004493D01*
X008090Y004374D02*
X008824Y004374D01*
X008824Y004256D02*
X008208Y004256D01*
X008327Y004137D02*
X008894Y004137D01*
X009023Y003307D02*
X008171Y003307D01*
X008250Y003189D02*
X008847Y003189D01*
X008769Y003070D02*
X008297Y003070D01*
X008320Y002952D02*
X008729Y002952D01*
X008729Y002833D02*
X007724Y002833D01*
X007723Y002715D02*
X007603Y002715D01*
X007603Y002596D02*
X007723Y002596D01*
X007723Y002477D02*
X007603Y002477D01*
X007603Y002359D02*
X007723Y002359D01*
X008062Y002359D02*
X013446Y002359D01*
X013211Y003070D02*
X012728Y003070D01*
X012647Y003189D02*
X013258Y003189D01*
X013990Y002240D02*
X017870Y002240D01*
X017721Y002359D02*
X014243Y002359D01*
X014364Y002477D02*
X017572Y002477D01*
X017537Y002506D02*
X017537Y002506D01*
X017476Y002596D02*
X014439Y002596D01*
X014482Y002715D02*
X017395Y002715D01*
X017113Y003544D02*
X010920Y003544D01*
X010801Y003663D02*
X017113Y003663D01*
X017113Y003781D02*
X010683Y003781D01*
X010564Y003900D02*
X017118Y003900D01*
X017155Y004019D02*
X015982Y004019D01*
X016100Y004137D02*
X017191Y004137D01*
X017228Y004256D02*
X016174Y004256D01*
X016174Y004493D02*
X017352Y004493D01*
X017433Y004611D02*
X016121Y004611D01*
X016181Y004730D02*
X017514Y004730D01*
X017643Y004848D02*
X016342Y004848D01*
X016461Y004967D02*
X017792Y004967D01*
X017957Y005085D02*
X016580Y005085D01*
X016698Y005204D02*
X018259Y005204D01*
X017998Y006271D02*
X014979Y006271D01*
X015097Y006389D02*
X017941Y006389D01*
X017271Y004374D02*
X015774Y004374D01*
X015734Y004374D02*
X012184Y004374D01*
X012184Y004256D02*
X015334Y004256D01*
X015408Y004137D02*
X012114Y004137D01*
X012184Y004207D02*
X011932Y003955D01*
X011576Y003955D01*
X011324Y004207D01*
X011324Y004563D01*
X011576Y004815D01*
X011932Y004815D01*
X012184Y004563D01*
X012184Y004207D01*
X011996Y004019D02*
X015526Y004019D01*
X015734Y004019D02*
X015774Y004019D01*
X015774Y004137D02*
X015734Y004137D01*
X015734Y004256D02*
X015774Y004256D01*
X015505Y004730D02*
X012017Y004730D01*
X012136Y004611D02*
X015387Y004611D01*
X015334Y004493D02*
X012184Y004493D01*
X011491Y004730D02*
X009681Y004730D01*
X009636Y004611D02*
X011372Y004611D01*
X011324Y004493D02*
X009684Y004493D01*
X009684Y004374D02*
X011324Y004374D01*
X011324Y004256D02*
X009684Y004256D01*
X009614Y004137D02*
X011394Y004137D01*
X011512Y004019D02*
X010445Y004019D01*
X010269Y003544D02*
X004400Y003544D01*
X004410Y003663D02*
X008151Y003663D01*
X008032Y003781D02*
X004392Y003781D01*
X004382Y003426D02*
X007284Y003426D01*
X007156Y003307D02*
X004365Y003307D01*
X004347Y003189D02*
X007077Y003189D01*
X007030Y003070D02*
X004304Y003070D01*
X004247Y002952D02*
X007007Y002952D01*
X007676Y004137D02*
X005614Y004137D01*
X005684Y004256D02*
X007558Y004256D01*
X007439Y004374D02*
X005684Y004374D01*
X005684Y004493D02*
X007321Y004493D01*
X007202Y004611D02*
X005636Y004611D01*
X005773Y004730D02*
X007084Y004730D01*
X006965Y004848D02*
X005934Y004848D01*
X006017Y004967D02*
X006847Y004967D01*
X006728Y005085D02*
X006067Y005085D01*
X006072Y005204D02*
X006610Y005204D01*
X006491Y005322D02*
X006066Y005322D01*
X006017Y005441D02*
X006372Y005441D01*
X006254Y005560D02*
X005932Y005560D01*
X005814Y005678D02*
X006135Y005678D01*
X006017Y005797D02*
X005695Y005797D01*
X005576Y005915D02*
X005898Y005915D01*
X005780Y006034D02*
X005458Y006034D01*
X005328Y006152D02*
X005661Y006152D01*
X005543Y006271D02*
X003510Y006271D01*
X003567Y006389D02*
X005424Y006389D01*
X005306Y006508D02*
X003616Y006508D01*
X003617Y006626D02*
X005187Y006626D01*
X005068Y006745D02*
X003617Y006745D01*
X003573Y006864D02*
X004950Y006864D01*
X004831Y006982D02*
X003523Y006982D01*
X003405Y007101D02*
X004713Y007101D01*
X004594Y007219D02*
X003195Y007219D01*
X003391Y006152D02*
X004774Y006152D01*
X005363Y007101D02*
X005925Y007101D01*
X005941Y007219D02*
X005245Y007219D01*
X005126Y007338D02*
X005990Y007338D01*
X006106Y007338D02*
X006268Y007338D01*
X006224Y007219D02*
X006387Y007219D01*
X006343Y007101D02*
X006505Y007101D01*
X006461Y006982D02*
X006624Y006982D01*
X006630Y006864D02*
X006580Y006864D01*
X006817Y006626D02*
X006979Y006626D01*
X006935Y006508D02*
X007098Y006508D01*
X007054Y006389D02*
X007217Y006389D01*
X006986Y007219D02*
X008022Y007219D01*
X007978Y007101D02*
X008140Y007101D01*
X008096Y006982D02*
X008259Y006982D01*
X008265Y006864D02*
X008215Y006864D01*
X008452Y006626D02*
X008615Y006626D01*
X008570Y006508D02*
X011392Y006508D01*
X011391Y006626D02*
X008835Y006626D01*
X008953Y006745D02*
X011391Y006745D01*
X011435Y006864D02*
X009032Y006864D01*
X009073Y006982D02*
X011485Y006982D01*
X011603Y007101D02*
X009083Y007101D01*
X009067Y007219D02*
X011813Y007219D01*
X012198Y007219D02*
X014522Y007219D01*
X014301Y006152D02*
X012394Y006152D01*
X012166Y006034D02*
X016050Y006034D01*
X015931Y005915D02*
X010434Y005915D01*
X010479Y005797D02*
X015813Y005797D01*
X015694Y005678D02*
X010479Y005678D01*
X010463Y005560D02*
X015576Y005560D01*
X015491Y005441D02*
X010414Y005441D01*
X010317Y005322D02*
X015442Y005322D01*
X015436Y005204D02*
X010198Y005204D01*
X010080Y005085D02*
X015441Y005085D01*
X015490Y004967D02*
X009961Y004967D01*
X009842Y004848D02*
X015574Y004848D01*
X016180Y006152D02*
X014843Y006152D01*
X012159Y002477D02*
X010947Y002477D01*
X011102Y002596D02*
X011995Y002596D01*
X010561Y002477D02*
X010159Y002477D01*
X010314Y002596D02*
X010406Y002596D01*
X010422Y003189D02*
X010299Y003189D01*
X010122Y003307D02*
X010506Y003307D01*
X010388Y003426D02*
X008042Y003426D01*
X007795Y004019D02*
X005496Y004019D01*
X005719Y006745D02*
X006055Y006745D01*
X005976Y006864D02*
X005600Y006864D01*
X005482Y006982D02*
X005935Y006982D01*
X006150Y007456D02*
X005008Y007456D01*
X004889Y007575D02*
X006279Y007575D01*
X006596Y007575D02*
X008412Y007575D01*
X008215Y007456D02*
X006793Y007456D01*
X006912Y007338D02*
X008096Y007338D01*
X008597Y006389D02*
X011441Y006389D01*
X011498Y006271D02*
X008479Y006271D01*
X008343Y006152D02*
X009680Y006152D01*
X010234Y006152D02*
X011617Y006152D01*
X011845Y006034D02*
X010363Y006034D01*
X009811Y003307D02*
X009335Y003307D01*
X009512Y003189D02*
X009634Y003189D01*
X009619Y002596D02*
X009527Y002596D01*
X009372Y002477D02*
X009774Y002477D01*
X008987Y002477D02*
X008183Y002477D01*
X008258Y002596D02*
X008832Y002596D01*
X008763Y002715D02*
X008301Y002715D01*
X009918Y009590D02*
X011363Y009590D01*
X011273Y009709D02*
X009728Y009709D01*
X010080Y011965D02*
X010234Y011965D01*
X010234Y012364D01*
X010274Y012364D01*
X010274Y011965D01*
X010428Y011965D01*
X010674Y012211D01*
X010674Y012365D01*
X010274Y012365D01*
X010274Y012405D01*
X010234Y012405D01*
X010234Y012805D01*
X010080Y012805D01*
X009834Y012559D01*
X009834Y012405D01*
X010234Y012405D01*
X010234Y012365D01*
X009834Y012365D01*
X009834Y012211D01*
X010080Y011965D01*
X009965Y012079D02*
X005057Y012079D01*
X004938Y011961D02*
X011070Y011961D01*
X010951Y012079D02*
X010543Y012079D01*
X010661Y012198D02*
X010833Y012198D01*
X010824Y012317D02*
X010674Y012317D01*
X010674Y012405D02*
X010674Y012559D01*
X010428Y012805D01*
X010274Y012805D01*
X010274Y012405D01*
X010674Y012405D01*
X010674Y012435D02*
X010824Y012435D01*
X010824Y012554D02*
X010674Y012554D01*
X010560Y012672D02*
X010933Y012672D01*
X011052Y012791D02*
X010442Y012791D01*
X010274Y012791D02*
X010234Y012791D01*
X010234Y012672D02*
X010274Y012672D01*
X010274Y012554D02*
X010234Y012554D01*
X010234Y012435D02*
X010274Y012435D01*
X010274Y012317D02*
X010234Y012317D01*
X010234Y012198D02*
X010274Y012198D01*
X010274Y012079D02*
X010234Y012079D01*
X009847Y012198D02*
X005175Y012198D01*
X005184Y012317D02*
X009834Y012317D01*
X009834Y012435D02*
X005184Y012435D01*
X005184Y012554D02*
X009834Y012554D01*
X009948Y012672D02*
X005075Y012672D01*
X004956Y012791D02*
X010066Y012791D01*
X011703Y010301D02*
X011735Y010301D01*
X011866Y010301D02*
X011898Y010301D01*
X007126Y020022D02*
X020244Y020022D01*
X020244Y020140D02*
X007216Y020140D01*
X007265Y020259D02*
X020244Y020259D01*
X020244Y020377D02*
X007274Y020377D01*
X007271Y020496D02*
X020244Y020496D01*
X020244Y020615D02*
X007309Y020615D01*
X006781Y019311D02*
X006726Y019311D01*
X006726Y019192D02*
X006781Y019192D01*
X006781Y019074D02*
X006726Y019074D01*
X006726Y018955D02*
X006781Y018955D01*
X003010Y022748D02*
X002984Y022748D01*
X002524Y022748D02*
X002498Y022748D01*
X002484Y010301D02*
X002518Y010301D01*
X002484Y010183D02*
X002617Y010183D01*
X002736Y010064D02*
X002484Y010064D01*
X014411Y030217D02*
X020244Y030217D01*
X020244Y030335D02*
X014530Y030335D01*
X014648Y030454D02*
X020244Y030454D01*
X020244Y029624D02*
X018885Y029624D01*
X019003Y029505D02*
X020244Y029505D01*
X020244Y029387D02*
X019066Y029387D01*
X019115Y029268D02*
X020244Y029268D01*
X020244Y029150D02*
X019121Y029150D01*
X019121Y029031D02*
X020244Y029031D01*
X020244Y028913D02*
X019080Y028913D01*
X019031Y028794D02*
X020244Y028794D01*
X020244Y028676D02*
X018918Y028676D01*
X018722Y028557D02*
X020244Y028557D01*
X018942Y031046D02*
X016185Y031046D01*
X016401Y031165D02*
X018925Y031165D01*
X018934Y031283D02*
X016519Y031283D01*
X016571Y031402D02*
X018974Y031402D01*
X019051Y031521D02*
X016617Y031521D01*
X016617Y031639D02*
X019170Y031639D01*
X019397Y031639D02*
X019560Y031639D01*
X019441Y031758D02*
X016617Y031758D01*
X016569Y031876D02*
X019407Y031876D01*
X019525Y031995D02*
X016514Y031995D01*
X016395Y032113D02*
X017783Y032113D01*
X018319Y032113D02*
X019660Y032113D01*
X020212Y032113D02*
X020244Y032113D01*
X020244Y032232D02*
X018454Y032232D01*
X018573Y032350D02*
X020244Y032350D01*
X020244Y032469D02*
X018691Y032469D01*
X018810Y032587D02*
X020244Y032587D01*
X020244Y032706D02*
X018928Y032706D01*
X019015Y032825D02*
X020244Y032825D01*
X020244Y032943D02*
X019064Y032943D01*
X019072Y033062D02*
X020244Y033062D01*
X020244Y033180D02*
X019068Y033180D01*
X019019Y033299D02*
X020244Y033299D01*
X020244Y033417D02*
X018938Y033417D01*
X018782Y033536D02*
X020244Y033536D01*
X020244Y036262D02*
X019022Y036262D01*
X019432Y036381D02*
X020244Y036381D01*
X020244Y036499D02*
X019637Y036499D01*
X019818Y036618D02*
X020244Y036618D01*
X020244Y036736D02*
X019928Y036736D01*
X020038Y036855D02*
X020244Y036855D01*
X020244Y036974D02*
X020137Y036974D01*
X020194Y037092D02*
X020244Y037092D01*
X017980Y039344D02*
X003509Y039344D01*
X003714Y039226D02*
X017803Y039226D01*
X017924Y039322D02*
X017924Y039322D01*
X017654Y039107D02*
X003859Y039107D01*
X003789Y039183D02*
X003789Y039183D01*
X003969Y038989D02*
X017520Y038989D01*
X017537Y039014D02*
X017537Y039014D01*
X017439Y038870D02*
X004079Y038870D01*
X004126Y038820D02*
X004126Y038820D01*
X004158Y038752D02*
X017358Y038752D01*
X016754Y037385D02*
X013254Y037385D01*
X012754Y036885D01*
X012475Y036499D02*
X012033Y036499D01*
X012152Y036618D02*
X012356Y036618D01*
X012284Y036736D02*
X012224Y036736D01*
X012224Y036855D02*
X012284Y036855D01*
X012284Y036974D02*
X012224Y036974D01*
X012211Y037092D02*
X012297Y037092D01*
X012415Y037211D02*
X012093Y037211D01*
X011974Y037329D02*
X012534Y037329D01*
X012559Y037415D02*
X012284Y037690D01*
X012284Y038079D01*
X012559Y038355D01*
X012949Y038355D01*
X013224Y038079D01*
X013224Y037690D01*
X012949Y037415D01*
X012559Y037415D01*
X012526Y037448D02*
X011982Y037448D01*
X012100Y037566D02*
X012408Y037566D01*
X012289Y037685D02*
X012219Y037685D01*
X012224Y037803D02*
X012284Y037803D01*
X012284Y037922D02*
X012224Y037922D01*
X012224Y038040D02*
X012284Y038040D01*
X012364Y038159D02*
X012144Y038159D01*
X012026Y038278D02*
X012482Y038278D01*
X013026Y038278D02*
X013482Y038278D01*
X013364Y038159D02*
X013144Y038159D01*
X013224Y038040D02*
X013284Y038040D01*
X013284Y037922D02*
X013224Y037922D01*
X013224Y037803D02*
X013284Y037803D01*
X013289Y037685D02*
X013219Y037685D01*
X013110Y037566D02*
X013100Y037566D01*
X012992Y037448D02*
X012982Y037448D01*
X013287Y037092D02*
X013297Y037092D01*
X013284Y036974D02*
X013224Y036974D01*
X013224Y036855D02*
X013284Y036855D01*
X013284Y036736D02*
X013224Y036736D01*
X013152Y036618D02*
X013356Y036618D01*
X013475Y036499D02*
X013033Y036499D01*
X014033Y036499D02*
X014475Y036499D01*
X014356Y036618D02*
X014152Y036618D01*
X014224Y036736D02*
X014284Y036736D01*
X014284Y036855D02*
X014224Y036855D01*
X014224Y036974D02*
X014284Y036974D01*
X014297Y037092D02*
X014211Y037092D01*
X014219Y037685D02*
X014303Y037685D01*
X014294Y037803D02*
X014224Y037803D01*
X014754Y036885D02*
X014754Y030885D01*
X014984Y036381D02*
X017433Y036381D01*
X017314Y036499D02*
X015033Y036499D01*
X015152Y036618D02*
X017196Y036618D01*
X019498Y022748D02*
X020244Y022748D01*
X020244Y022630D02*
X019617Y022630D01*
X019684Y022511D02*
X020244Y022511D01*
X020244Y022393D02*
X019684Y022393D01*
X019684Y022274D02*
X020244Y022274D01*
X020244Y022156D02*
X019633Y022156D01*
X019515Y018718D02*
X020244Y018718D01*
X020244Y018599D02*
X019633Y018599D01*
X019674Y018481D02*
X020244Y018481D01*
X020244Y018362D02*
X019674Y018362D01*
X019674Y018244D02*
X020244Y018244D01*
X020244Y018125D02*
X019588Y018125D01*
X020244Y010894D02*
X018796Y010894D01*
X018398Y010301D02*
X018366Y010301D01*
X018235Y010301D02*
X018203Y010301D01*
D18*
X006254Y025385D03*
X005254Y026385D03*
M02*
