%
M48
M72
T01C0.0236
T02C0.0276
T03C0.0320
T04C0.0350
T05C0.0400
T06C0.0433
T07C0.0470
T08C0.0550
T09C0.0551
T10C0.0710
T11C0.1260
%
T01
X6254Y25385
X5254Y26385
T02
X9179Y2885
X9967Y2885
X10754Y2885
X12329Y2885
T03
X11754Y4385
X9254Y4385
X5254Y4385
X4754Y12385
X3754Y12385
X3254Y18385
X4254Y18385
X2254Y18385
X2254Y22385
X3254Y22385
X4254Y22385
X10254Y12385
X11254Y12385
X15754Y4385
X16754Y12385
X17754Y12385
X17254Y18385
X18254Y18385
X19254Y18385
X19254Y22385
X18254Y22385
X17254Y22385
X16754Y34885
X17754Y34885
X11254Y34885
X10254Y34885
X4754Y34885
X3754Y34885
T04
X9754Y24385
X10754Y24385
X11754Y24385
X6754Y21385
X6754Y20385
X6754Y19385
T05
X6754Y36885
X6754Y37885
X7754Y37885
X7754Y36885
X8754Y36885
X8754Y37885
X9754Y37885
X9754Y36885
X10754Y36885
X10754Y37885
X11754Y37885
X11754Y36885
X12754Y36885
X12754Y37885
X13754Y37885
X13754Y36885
X14754Y36885
X14754Y37885
T06
X15526Y21635
X15526Y19135
X13754Y19135
X13754Y21635
T07
X16207Y27952
X14822Y29338
X13186Y31431
X11801Y32817
X9707Y27952
X8322Y29338
X6686Y31431
X5301Y32817
X3207Y27952
X1822Y29338
X3207Y10317
X1822Y8931
X5301Y5452
X6686Y6838
X8322Y6838
X9707Y5452
X11801Y10317
X13186Y8931
X14822Y6838
X16207Y5452
X18301Y10317
X19686Y8931
X19686Y31431
X18301Y32817
T08
X13379Y23385
X13379Y17385
X8129Y17385
X8129Y23385
T09
X7663Y2885
X13845Y2885
T10
X12006Y6633
X9502Y9136
X5506Y9136
X3002Y6633
X5506Y29133
X3002Y31636
X9502Y31636
X12006Y29133
X16002Y31636
X18506Y29133
X16002Y9136
X18506Y6633
T11
X2754Y3635
X18754Y3635
X18754Y37885
X2754Y37885
M30
