%
M48
METRIC,000.000
T01C0.50
T02C0.60
T03C0.70
T04C0.80
T05C0.81
T06C0.90
T07C0.97
T08C1.00
T09C1.02
T10C1.40
T11C2.60
T12C2.80
T13C3.20
T14C0.89
T15C1.10
T16C1.19
T17C1.80
%
T01
X017070Y042452
X058663Y004352
X093588Y017369
X095810Y018004
X022167Y044607
X021167Y044607
X020167Y044607
X019167Y044607
X018167Y044607
X017909Y046861
X018909Y046861
X019909Y046861
X020909Y046861
X021909Y046861
X084167Y044607
X083167Y044607
X082167Y044607
X081167Y044607
X080167Y044607
X079909Y046861
X080909Y046861
X081909Y046861
X082909Y046861
X083909Y046861
X052167Y044607
X051167Y044607
X050167Y044607
X049167Y044607
X048167Y044607
X047909Y046861
X048909Y046861
X049909Y046861
X050909Y046861
X051909Y046861
T02
X058663Y028482
X059933Y025942
X057393Y023402
X053583Y022132
X049773Y019592
X054853Y017052
X056123Y018322
X057393Y013242
X051043Y011972
X045963Y015464
X044693Y015782
X042153Y014512
X040883Y015464
X026913Y009432
X025643Y008162
X026913Y011972
X048503Y024672
X043423Y031022
X025643Y032292
X062467Y085846
X059927Y083306
T03
X069255Y026376
X069255Y024377
X069255Y022376
X069255Y020377
X069255Y018378
X069255Y016376
X069255Y014377
X069255Y012376
X069255Y010377
X069255Y008375
X091254Y008375
X091254Y010377
X091254Y012376
X091254Y014377
X091254Y016376
X091254Y018378
X091254Y020377
X091254Y022376
X091254Y024377
X091254Y026376
X051673Y002447
X049773Y002447
X047774Y002447
X002777Y075877
X002777Y073875
X002777Y071876
X002777Y067876
T04
X063062Y031657
X065061Y031657
T05
X087873Y040547
X085333Y040547
X011673Y040547
X014213Y040547
X024373Y040547
X026913Y040547
X072633Y040547
X075173Y040547
X081523Y032609
X078983Y032609
X078983Y029752
X081523Y029752
X091683Y029752
X094540Y029752
X097080Y029752
X091683Y032609
X094540Y023402
X097080Y023402
X097080Y011654
X094540Y011654
X010403Y013242
X005958Y017052
X007863Y018322
X005958Y019592
X002783Y023402
X010403Y023402
X002783Y013242
X068823Y029752
X068823Y032609
X084057Y089656
X084057Y087116
X052307Y088386
X052307Y090926
X052307Y093466
X042147Y093466
X042147Y090926
X042147Y088386
X026907Y089656
X026907Y087116
X006587Y085846
X006587Y075686
X006587Y069336
X026907Y073146
X026907Y070606
X006587Y059176
X026907Y056636
X026907Y054096
X042147Y052826
X042147Y055366
X042147Y050286
X052307Y050286
X052307Y052826
X052307Y055366
X084057Y056636
X084057Y054096
X084057Y073146
X084057Y070606
T06
X016753Y032292
X040883Y008797
X043423Y008797
X045963Y008797
X048503Y008797
X051043Y008797
X053583Y008797
X056123Y008797
X058663Y008797
X016753Y006892
T07
X014213Y034832
X016753Y034832
X019293Y034832
X021833Y034832
X024373Y034832
X026913Y034832
X029453Y034832
X029453Y032292
X029453Y029752
X029453Y027212
X029453Y024672
X029453Y022132
X029453Y019592
X029453Y017052
X029453Y014512
X029453Y011972
X029453Y009432
X029453Y006892
X029453Y004352
X029453Y001812
X016753Y004352
X014213Y004352
X014213Y006892
X014213Y009432
X016753Y009432
X016753Y011972
X014213Y011972
X014213Y014512
X016753Y014512
X014213Y017052
X014213Y019592
X014213Y022132
X014213Y024672
X014213Y027212
X014213Y029752
X014213Y032292
X014213Y001812
T08
X004093Y029752
X009095Y029752
X007863Y011972
X005323Y011972
T09
X039613Y035467
X042153Y035467
X044693Y035467
X047233Y035467
X049773Y035467
X052313Y035467
X054853Y035467
X057393Y035467
X059933Y035467
X059933Y032927
X057393Y032927
X054853Y032927
X052313Y032927
X049773Y032927
X047233Y032927
X044693Y032927
X042153Y032927
X039613Y032927
X089137Y061716
X091677Y061716
X091677Y064256
X089137Y064256
X089137Y066796
X091677Y066796
X091677Y069336
X089137Y069336
X089137Y071876
X091677Y071876
X091677Y074416
X089137Y074416
X089137Y076956
X091677Y076956
X091677Y079496
X089137Y079496
X089137Y082036
X091677Y082036
T10
X054573Y002447
X044975Y002447
X039607Y078544
X054847Y078544
X054847Y065209
X039607Y065209
X002777Y064025
X002777Y079728
T11
X035274Y038296
X064274Y038296
X064274Y008797
X035274Y008797
T12
X080253Y035467
X071363Y003082
X089143Y003082
T13
X094858Y039912
X094858Y004352
X004688Y004352
X004688Y039912
X004682Y092196
X004682Y051556
X091677Y051556
X091677Y092196
T14
X049767Y082036
X047227Y082036
X044687Y082036
X057387Y074416
X057387Y071876
X057387Y069336
T15
X050402Y064256
X044052Y064256
X044052Y059756
X050402Y059756
T16
X018134Y094564
X021655Y091046
X012818Y082209
X012818Y078054
X009297Y074536
X018134Y065699
X021655Y069217
X012818Y061544
X009297Y058026
X018134Y049189
X021655Y052707
X066447Y058026
X069968Y061544
X075284Y065699
X066447Y074536
X069968Y078054
X075284Y082209
X066447Y091046
X069968Y094564
X078805Y085727
X078805Y069217
X078805Y052707
X075284Y049189
X009297Y085727
T17
X012297Y091567
X018655Y085206
X018655Y075057
X012297Y068696
X018655Y058547
X012297Y052186
X069447Y052186
X075805Y058547
X069447Y068696
X075805Y075057
X069447Y085206
X075805Y091567
M30