%MOIN*%
%OFA0B0*%
%FSLAX44Y44*%
%IPPOS*%
%LPD*%
%ADD10C,0*%
D10*
X00001213Y00036285D02*
X00001213Y00036285D01*
X00001214Y00036336D01*
X00001219Y00036385D01*
X00001228Y00036435D01*
X00001241Y00036483D01*
X00001257Y00036530D01*
X00001278Y00036576D01*
X00001302Y00036620D01*
X00001329Y00036662D01*
X00001359Y00036702D01*
X00001393Y00036739D01*
X00001430Y00036773D01*
X00001469Y00036805D01*
X00001510Y00036833D01*
X00001554Y00036858D01*
X00001599Y00036879D01*
X00001646Y00036896D01*
X00001694Y00036910D01*
X00001743Y00036920D01*
X00001793Y00036926D01*
X00001843Y00036928D01*
X00001893Y00036926D01*
X00001943Y00036920D01*
X00001992Y00036910D01*
X00002040Y00036896D01*
X00002087Y00036879D01*
X00002132Y00036858D01*
X00002176Y00036833D01*
X00002217Y00036805D01*
X00002256Y00036773D01*
X00002293Y00036739D01*
X00002327Y00036702D01*
X00002357Y00036662D01*
X00002384Y00036620D01*
X00002408Y00036576D01*
X00002429Y00036530D01*
X00002445Y00036483D01*
X00002458Y00036435D01*
X00002467Y00036385D01*
X00002472Y00036336D01*
X00002473Y00036285D01*
X00002470Y00036235D01*
X00002463Y00036186D01*
X00002452Y00036137D01*
X00002437Y00036089D01*
X00002419Y00036043D01*
X00002397Y00035998D01*
X00002371Y00035955D01*
X00002342Y00035914D01*
X00002310Y00035875D01*
X00002275Y00035839D01*
X00002237Y00035807D01*
X00002197Y00035777D01*
X00002154Y00035750D01*
X00002110Y00035727D01*
X00002064Y00035708D01*
X00002016Y00035692D01*
X00001967Y00035680D01*
X00001918Y00035672D01*
X00001868Y00035668D01*
X00001818Y00035668D01*
X00001768Y00035672D01*
X00001719Y00035680D01*
X00001670Y00035692D01*
X00001622Y00035708D01*
X00001576Y00035727D01*
X00001532Y00035750D01*
X00001489Y00035777D01*
X00001449Y00035807D01*
X00001411Y00035839D01*
X00001376Y00035875D01*
X00001344Y00035914D01*
X00001315Y00035955D01*
X00001289Y00035998D01*
X00001267Y00036043D01*
X00001249Y00036089D01*
X00001234Y00036137D01*
X00001223Y00036186D01*
X00001216Y00036235D01*
X00001213Y00036285D01*
X00001213Y00020285D02*
X00001213Y00020285D01*
X00001214Y00020336D01*
X00001219Y00020385D01*
X00001228Y00020435D01*
X00001241Y00020483D01*
X00001257Y00020530D01*
X00001278Y00020576D01*
X00001302Y00020620D01*
X00001329Y00020662D01*
X00001359Y00020702D01*
X00001393Y00020739D01*
X00001430Y00020773D01*
X00001469Y00020805D01*
X00001510Y00020833D01*
X00001554Y00020858D01*
X00001599Y00020879D01*
X00001646Y00020896D01*
X00001694Y00020910D01*
X00001743Y00020920D01*
X00001793Y00020926D01*
X00001843Y00020928D01*
X00001893Y00020926D01*
X00001943Y00020920D01*
X00001992Y00020910D01*
X00002040Y00020896D01*
X00002087Y00020879D01*
X00002132Y00020858D01*
X00002176Y00020833D01*
X00002217Y00020805D01*
X00002256Y00020773D01*
X00002293Y00020739D01*
X00002327Y00020702D01*
X00002357Y00020662D01*
X00002384Y00020620D01*
X00002408Y00020576D01*
X00002429Y00020530D01*
X00002445Y00020483D01*
X00002458Y00020435D01*
X00002467Y00020385D01*
X00002472Y00020336D01*
X00002473Y00020285D01*
X00002470Y00020235D01*
X00002463Y00020186D01*
X00002452Y00020137D01*
X00002437Y00020089D01*
X00002419Y00020043D01*
X00002397Y00019998D01*
X00002371Y00019955D01*
X00002342Y00019914D01*
X00002310Y00019875D01*
X00002275Y00019839D01*
X00002237Y00019807D01*
X00002197Y00019777D01*
X00002154Y00019750D01*
X00002110Y00019727D01*
X00002064Y00019708D01*
X00002016Y00019692D01*
X00001967Y00019680D01*
X00001918Y00019672D01*
X00001868Y00019668D01*
X00001818Y00019668D01*
X00001768Y00019672D01*
X00001719Y00019680D01*
X00001670Y00019692D01*
X00001622Y00019708D01*
X00001576Y00019727D01*
X00001532Y00019750D01*
X00001489Y00019777D01*
X00001449Y00019807D01*
X00001411Y00019839D01*
X00001376Y00019875D01*
X00001344Y00019914D01*
X00001315Y00019955D01*
X00001289Y00019998D01*
X00001267Y00020043D01*
X00001249Y00020089D01*
X00001234Y00020137D01*
X00001223Y00020186D01*
X00001216Y00020235D01*
X00001213Y00020285D01*
X00004486Y00020546D02*
X00004486Y00020546D01*
X00004488Y00020583D01*
X00004494Y00020620D01*
X00004503Y00020656D01*
X00004517Y00020690D01*
X00004534Y00020723D01*
X00004554Y00020755D01*
X00004577Y00020784D01*
X00004603Y00020810D01*
X00004632Y00020833D01*
X00004663Y00020853D01*
X00004697Y00020870D01*
X00004731Y00020884D01*
X00004767Y00020893D01*
X00004804Y00020899D01*
X00004841Y00020901D01*
X00004878Y00020899D01*
X00004915Y00020893D01*
X00004951Y00020884D01*
X00004985Y00020870D01*
X00005018Y00020853D01*
X00005050Y00020833D01*
X00005079Y00020810D01*
X00005105Y00020784D01*
X00005128Y00020755D01*
X00005148Y00020724D01*
X00005165Y00020690D01*
X00005179Y00020656D01*
X00005188Y00020620D01*
X00005194Y00020583D01*
X00005196Y00020546D01*
X00005194Y00020509D01*
X00005188Y00020472D01*
X00005179Y00020436D01*
X00005165Y00020402D01*
X00005148Y00020369D01*
X00005128Y00020337D01*
X00005105Y00020308D01*
X00005079Y00020282D01*
X00005050Y00020259D01*
X00005019Y00020239D01*
X00004985Y00020222D01*
X00004951Y00020208D01*
X00004915Y00020199D01*
X00004878Y00020193D01*
X00004841Y00020191D01*
X00004804Y00020193D01*
X00004767Y00020199D01*
X00004731Y00020208D01*
X00004697Y00020222D01*
X00004664Y00020239D01*
X00004632Y00020259D01*
X00004603Y00020282D01*
X00004577Y00020308D01*
X00004554Y00020337D01*
X00004534Y00020368D01*
X00004517Y00020402D01*
X00004503Y00020436D01*
X00004494Y00020472D01*
X00004488Y00020509D01*
X00004486Y00020546D01*
X00004486Y00027046D02*
X00004486Y00027046D01*
X00004488Y00027083D01*
X00004494Y00027120D01*
X00004503Y00027156D01*
X00004517Y00027190D01*
X00004534Y00027223D01*
X00004554Y00027255D01*
X00004577Y00027284D01*
X00004603Y00027310D01*
X00004632Y00027333D01*
X00004663Y00027353D01*
X00004697Y00027370D01*
X00004731Y00027384D01*
X00004767Y00027393D01*
X00004804Y00027399D01*
X00004841Y00027401D01*
X00004878Y00027399D01*
X00004915Y00027393D01*
X00004951Y00027384D01*
X00004985Y00027370D01*
X00005018Y00027353D01*
X00005050Y00027333D01*
X00005079Y00027310D01*
X00005105Y00027284D01*
X00005128Y00027255D01*
X00005148Y00027224D01*
X00005165Y00027190D01*
X00005179Y00027156D01*
X00005188Y00027120D01*
X00005194Y00027083D01*
X00005196Y00027046D01*
X00005194Y00027009D01*
X00005188Y00026972D01*
X00005179Y00026936D01*
X00005165Y00026902D01*
X00005148Y00026869D01*
X00005128Y00026837D01*
X00005105Y00026808D01*
X00005079Y00026782D01*
X00005050Y00026759D01*
X00005019Y00026739D01*
X00004985Y00026722D01*
X00004951Y00026708D01*
X00004915Y00026699D01*
X00004878Y00026693D01*
X00004841Y00026691D01*
X00004804Y00026693D01*
X00004767Y00026699D01*
X00004731Y00026708D01*
X00004697Y00026722D01*
X00004664Y00026739D01*
X00004632Y00026759D01*
X00004603Y00026782D01*
X00004577Y00026808D01*
X00004554Y00026837D01*
X00004534Y00026868D01*
X00004517Y00026902D01*
X00004503Y00026936D01*
X00004494Y00026972D01*
X00004488Y00027009D01*
X00004486Y00027046D01*
X00004486Y00036050D02*
X00004486Y00036050D01*
X00004488Y00036087D01*
X00004494Y00036124D01*
X00004503Y00036160D01*
X00004517Y00036194D01*
X00004534Y00036227D01*
X00004554Y00036259D01*
X00004577Y00036288D01*
X00004603Y00036314D01*
X00004632Y00036337D01*
X00004663Y00036357D01*
X00004697Y00036374D01*
X00004731Y00036388D01*
X00004767Y00036397D01*
X00004804Y00036403D01*
X00004841Y00036405D01*
X00004878Y00036403D01*
X00004915Y00036397D01*
X00004951Y00036388D01*
X00004985Y00036374D01*
X00005018Y00036357D01*
X00005050Y00036337D01*
X00005079Y00036314D01*
X00005105Y00036288D01*
X00005128Y00036259D01*
X00005148Y00036228D01*
X00005165Y00036194D01*
X00005179Y00036160D01*
X00005188Y00036124D01*
X00005194Y00036087D01*
X00005196Y00036050D01*
X00005194Y00036013D01*
X00005188Y00035976D01*
X00005179Y00035940D01*
X00005165Y00035906D01*
X00005148Y00035873D01*
X00005128Y00035841D01*
X00005105Y00035812D01*
X00005079Y00035786D01*
X00005050Y00035763D01*
X00005019Y00035743D01*
X00004985Y00035726D01*
X00004951Y00035712D01*
X00004915Y00035703D01*
X00004878Y00035697D01*
X00004841Y00035695D01*
X00004804Y00035697D01*
X00004767Y00035703D01*
X00004731Y00035712D01*
X00004697Y00035726D01*
X00004664Y00035743D01*
X00004632Y00035763D01*
X00004603Y00035786D01*
X00004577Y00035812D01*
X00004554Y00035841D01*
X00004534Y00035872D01*
X00004517Y00035906D01*
X00004503Y00035940D01*
X00004494Y00035976D01*
X00004488Y00036013D01*
X00004486Y00036050D01*
X00006989Y00023050D02*
X00006989Y00023050D01*
X00006991Y00023087D01*
X00006997Y00023124D01*
X00007006Y00023160D01*
X00007020Y00023194D01*
X00007037Y00023227D01*
X00007057Y00023259D01*
X00007080Y00023288D01*
X00007106Y00023314D01*
X00007135Y00023337D01*
X00007166Y00023357D01*
X00007200Y00023374D01*
X00007234Y00023388D01*
X00007270Y00023397D01*
X00007307Y00023403D01*
X00007344Y00023405D01*
X00007381Y00023403D01*
X00007418Y00023397D01*
X00007454Y00023388D01*
X00007488Y00023374D01*
X00007521Y00023357D01*
X00007553Y00023337D01*
X00007582Y00023314D01*
X00007608Y00023288D01*
X00007631Y00023259D01*
X00007651Y00023228D01*
X00007668Y00023194D01*
X00007682Y00023160D01*
X00007691Y00023124D01*
X00007697Y00023087D01*
X00007699Y00023050D01*
X00007697Y00023013D01*
X00007691Y00022976D01*
X00007682Y00022940D01*
X00007668Y00022906D01*
X00007651Y00022873D01*
X00007631Y00022841D01*
X00007608Y00022812D01*
X00007582Y00022786D01*
X00007553Y00022763D01*
X00007522Y00022743D01*
X00007488Y00022726D01*
X00007454Y00022712D01*
X00007418Y00022703D01*
X00007381Y00022697D01*
X00007344Y00022695D01*
X00007307Y00022697D01*
X00007270Y00022703D01*
X00007234Y00022712D01*
X00007200Y00022726D01*
X00007167Y00022743D01*
X00007135Y00022763D01*
X00007106Y00022786D01*
X00007080Y00022812D01*
X00007057Y00022841D01*
X00007037Y00022872D01*
X00007020Y00022906D01*
X00007006Y00022940D01*
X00006997Y00022976D01*
X00006991Y00023013D01*
X00006989Y00023050D01*
X00006989Y00029550D02*
X00006989Y00029550D01*
X00006991Y00029587D01*
X00006997Y00029624D01*
X00007006Y00029660D01*
X00007020Y00029694D01*
X00007037Y00029727D01*
X00007057Y00029759D01*
X00007080Y00029788D01*
X00007106Y00029814D01*
X00007135Y00029837D01*
X00007166Y00029857D01*
X00007200Y00029874D01*
X00007234Y00029888D01*
X00007270Y00029897D01*
X00007307Y00029903D01*
X00007344Y00029905D01*
X00007381Y00029903D01*
X00007418Y00029897D01*
X00007454Y00029888D01*
X00007488Y00029874D01*
X00007521Y00029857D01*
X00007553Y00029837D01*
X00007582Y00029814D01*
X00007608Y00029788D01*
X00007631Y00029759D01*
X00007651Y00029728D01*
X00007668Y00029694D01*
X00007682Y00029660D01*
X00007691Y00029624D01*
X00007697Y00029587D01*
X00007699Y00029550D01*
X00007697Y00029513D01*
X00007691Y00029476D01*
X00007682Y00029440D01*
X00007668Y00029406D01*
X00007651Y00029373D01*
X00007631Y00029341D01*
X00007608Y00029312D01*
X00007582Y00029286D01*
X00007553Y00029263D01*
X00007522Y00029243D01*
X00007488Y00029226D01*
X00007454Y00029212D01*
X00007418Y00029203D01*
X00007381Y00029197D01*
X00007344Y00029195D01*
X00007307Y00029197D01*
X00007270Y00029203D01*
X00007234Y00029212D01*
X00007200Y00029226D01*
X00007167Y00029243D01*
X00007135Y00029263D01*
X00007106Y00029286D01*
X00007080Y00029312D01*
X00007057Y00029341D01*
X00007037Y00029372D01*
X00007020Y00029406D01*
X00007006Y00029440D01*
X00006997Y00029476D01*
X00006991Y00029513D01*
X00006989Y00029550D01*
X00006989Y00033546D02*
X00006989Y00033546D01*
X00006991Y00033583D01*
X00006997Y00033620D01*
X00007006Y00033656D01*
X00007020Y00033690D01*
X00007037Y00033723D01*
X00007057Y00033755D01*
X00007080Y00033784D01*
X00007106Y00033810D01*
X00007135Y00033833D01*
X00007166Y00033853D01*
X00007200Y00033870D01*
X00007234Y00033884D01*
X00007270Y00033893D01*
X00007307Y00033899D01*
X00007344Y00033901D01*
X00007381Y00033899D01*
X00007418Y00033893D01*
X00007454Y00033884D01*
X00007488Y00033870D01*
X00007521Y00033853D01*
X00007553Y00033833D01*
X00007582Y00033810D01*
X00007608Y00033784D01*
X00007631Y00033755D01*
X00007651Y00033724D01*
X00007668Y00033690D01*
X00007682Y00033656D01*
X00007691Y00033620D01*
X00007697Y00033583D01*
X00007699Y00033546D01*
X00007697Y00033509D01*
X00007691Y00033472D01*
X00007682Y00033436D01*
X00007668Y00033402D01*
X00007651Y00033369D01*
X00007631Y00033337D01*
X00007608Y00033308D01*
X00007582Y00033282D01*
X00007553Y00033259D01*
X00007522Y00033239D01*
X00007488Y00033222D01*
X00007454Y00033208D01*
X00007418Y00033199D01*
X00007381Y00033193D01*
X00007344Y00033191D01*
X00007307Y00033193D01*
X00007270Y00033199D01*
X00007234Y00033208D01*
X00007200Y00033222D01*
X00007167Y00033239D01*
X00007135Y00033259D01*
X00007106Y00033282D01*
X00007080Y00033308D01*
X00007057Y00033337D01*
X00007037Y00033368D01*
X00007020Y00033402D01*
X00007006Y00033436D01*
X00006997Y00033472D01*
X00006991Y00033509D01*
X00006989Y00033546D01*
X00026986Y00033546D02*
X00026986Y00033546D01*
X00026988Y00033583D01*
X00026994Y00033620D01*
X00027003Y00033656D01*
X00027017Y00033690D01*
X00027034Y00033723D01*
X00027054Y00033755D01*
X00027077Y00033784D01*
X00027103Y00033810D01*
X00027132Y00033833D01*
X00027163Y00033853D01*
X00027197Y00033870D01*
X00027231Y00033884D01*
X00027267Y00033893D01*
X00027304Y00033899D01*
X00027341Y00033901D01*
X00027378Y00033899D01*
X00027415Y00033893D01*
X00027451Y00033884D01*
X00027485Y00033870D01*
X00027518Y00033853D01*
X00027550Y00033833D01*
X00027579Y00033810D01*
X00027605Y00033784D01*
X00027628Y00033755D01*
X00027648Y00033724D01*
X00027665Y00033690D01*
X00027679Y00033656D01*
X00027688Y00033620D01*
X00027694Y00033583D01*
X00027696Y00033546D01*
X00027694Y00033509D01*
X00027688Y00033472D01*
X00027679Y00033436D01*
X00027665Y00033402D01*
X00027648Y00033369D01*
X00027628Y00033337D01*
X00027605Y00033308D01*
X00027579Y00033282D01*
X00027550Y00033259D01*
X00027519Y00033239D01*
X00027485Y00033222D01*
X00027451Y00033208D01*
X00027415Y00033199D01*
X00027378Y00033193D01*
X00027341Y00033191D01*
X00027304Y00033193D01*
X00027267Y00033199D01*
X00027231Y00033208D01*
X00027197Y00033222D01*
X00027164Y00033239D01*
X00027132Y00033259D01*
X00027103Y00033282D01*
X00027077Y00033308D01*
X00027054Y00033337D01*
X00027034Y00033368D01*
X00027017Y00033402D01*
X00027003Y00033436D01*
X00026994Y00033472D01*
X00026988Y00033509D01*
X00026986Y00033546D01*
X00026986Y00027046D02*
X00026986Y00027046D01*
X00026988Y00027083D01*
X00026994Y00027120D01*
X00027003Y00027156D01*
X00027017Y00027190D01*
X00027034Y00027223D01*
X00027054Y00027255D01*
X00027077Y00027284D01*
X00027103Y00027310D01*
X00027132Y00027333D01*
X00027163Y00027353D01*
X00027197Y00027370D01*
X00027231Y00027384D01*
X00027267Y00027393D01*
X00027304Y00027399D01*
X00027341Y00027401D01*
X00027378Y00027399D01*
X00027415Y00027393D01*
X00027451Y00027384D01*
X00027485Y00027370D01*
X00027518Y00027353D01*
X00027550Y00027333D01*
X00027579Y00027310D01*
X00027605Y00027284D01*
X00027628Y00027255D01*
X00027648Y00027224D01*
X00027665Y00027190D01*
X00027679Y00027156D01*
X00027688Y00027120D01*
X00027694Y00027083D01*
X00027696Y00027046D01*
X00027694Y00027009D01*
X00027688Y00026972D01*
X00027679Y00026936D01*
X00027665Y00026902D01*
X00027648Y00026869D01*
X00027628Y00026837D01*
X00027605Y00026808D01*
X00027579Y00026782D01*
X00027550Y00026759D01*
X00027519Y00026739D01*
X00027485Y00026722D01*
X00027451Y00026708D01*
X00027415Y00026699D01*
X00027378Y00026693D01*
X00027341Y00026691D01*
X00027304Y00026693D01*
X00027267Y00026699D01*
X00027231Y00026708D01*
X00027197Y00026722D01*
X00027164Y00026739D01*
X00027132Y00026759D01*
X00027103Y00026782D01*
X00027077Y00026808D01*
X00027054Y00026837D01*
X00027034Y00026868D01*
X00027017Y00026902D01*
X00027003Y00026936D01*
X00026994Y00026972D01*
X00026988Y00027009D01*
X00026986Y00027046D01*
X00026986Y00020546D02*
X00026986Y00020546D01*
X00026988Y00020583D01*
X00026994Y00020620D01*
X00027003Y00020656D01*
X00027017Y00020690D01*
X00027034Y00020723D01*
X00027054Y00020755D01*
X00027077Y00020784D01*
X00027103Y00020810D01*
X00027132Y00020833D01*
X00027163Y00020853D01*
X00027197Y00020870D01*
X00027231Y00020884D01*
X00027267Y00020893D01*
X00027304Y00020899D01*
X00027341Y00020901D01*
X00027378Y00020899D01*
X00027415Y00020893D01*
X00027451Y00020884D01*
X00027485Y00020870D01*
X00027518Y00020853D01*
X00027550Y00020833D01*
X00027579Y00020810D01*
X00027605Y00020784D01*
X00027628Y00020755D01*
X00027648Y00020724D01*
X00027665Y00020690D01*
X00027679Y00020656D01*
X00027688Y00020620D01*
X00027694Y00020583D01*
X00027696Y00020546D01*
X00027694Y00020509D01*
X00027688Y00020472D01*
X00027679Y00020436D01*
X00027665Y00020402D01*
X00027648Y00020369D01*
X00027628Y00020337D01*
X00027605Y00020308D01*
X00027579Y00020282D01*
X00027550Y00020259D01*
X00027519Y00020239D01*
X00027485Y00020222D01*
X00027451Y00020208D01*
X00027415Y00020199D01*
X00027378Y00020193D01*
X00027341Y00020191D01*
X00027304Y00020193D01*
X00027267Y00020199D01*
X00027231Y00020208D01*
X00027197Y00020222D01*
X00027164Y00020239D01*
X00027132Y00020259D01*
X00027103Y00020282D01*
X00027077Y00020308D01*
X00027054Y00020337D01*
X00027034Y00020368D01*
X00027017Y00020402D01*
X00027003Y00020436D01*
X00026994Y00020472D01*
X00026988Y00020509D01*
X00026986Y00020546D01*
X00029489Y00036050D02*
X00029489Y00036050D01*
X00029491Y00036087D01*
X00029497Y00036124D01*
X00029506Y00036160D01*
X00029520Y00036194D01*
X00029537Y00036227D01*
X00029557Y00036259D01*
X00029580Y00036288D01*
X00029606Y00036314D01*
X00029635Y00036337D01*
X00029666Y00036357D01*
X00029700Y00036374D01*
X00029734Y00036388D01*
X00029770Y00036397D01*
X00029807Y00036403D01*
X00029844Y00036405D01*
X00029881Y00036403D01*
X00029918Y00036397D01*
X00029954Y00036388D01*
X00029988Y00036374D01*
X00030021Y00036357D01*
X00030053Y00036337D01*
X00030082Y00036314D01*
X00030108Y00036288D01*
X00030131Y00036259D01*
X00030151Y00036228D01*
X00030168Y00036194D01*
X00030182Y00036160D01*
X00030191Y00036124D01*
X00030197Y00036087D01*
X00030199Y00036050D01*
X00030197Y00036013D01*
X00030191Y00035976D01*
X00030182Y00035940D01*
X00030168Y00035906D01*
X00030151Y00035873D01*
X00030131Y00035841D01*
X00030108Y00035812D01*
X00030082Y00035786D01*
X00030053Y00035763D01*
X00030022Y00035743D01*
X00029988Y00035726D01*
X00029954Y00035712D01*
X00029918Y00035703D01*
X00029881Y00035697D01*
X00029844Y00035695D01*
X00029807Y00035697D01*
X00029770Y00035703D01*
X00029734Y00035712D01*
X00029700Y00035726D01*
X00029667Y00035743D01*
X00029635Y00035763D01*
X00029606Y00035786D01*
X00029580Y00035812D01*
X00029557Y00035841D01*
X00029537Y00035872D01*
X00029520Y00035906D01*
X00029506Y00035940D01*
X00029497Y00035976D01*
X00029491Y00036013D01*
X00029489Y00036050D01*
X00029489Y00029550D02*
X00029489Y00029550D01*
X00029491Y00029587D01*
X00029497Y00029624D01*
X00029506Y00029660D01*
X00029520Y00029694D01*
X00029537Y00029727D01*
X00029557Y00029759D01*
X00029580Y00029788D01*
X00029606Y00029814D01*
X00029635Y00029837D01*
X00029666Y00029857D01*
X00029700Y00029874D01*
X00029734Y00029888D01*
X00029770Y00029897D01*
X00029807Y00029903D01*
X00029844Y00029905D01*
X00029881Y00029903D01*
X00029918Y00029897D01*
X00029954Y00029888D01*
X00029988Y00029874D01*
X00030021Y00029857D01*
X00030053Y00029837D01*
X00030082Y00029814D01*
X00030108Y00029788D01*
X00030131Y00029759D01*
X00030151Y00029728D01*
X00030168Y00029694D01*
X00030182Y00029660D01*
X00030191Y00029624D01*
X00030197Y00029587D01*
X00030199Y00029550D01*
X00030197Y00029513D01*
X00030191Y00029476D01*
X00030182Y00029440D01*
X00030168Y00029406D01*
X00030151Y00029373D01*
X00030131Y00029341D01*
X00030108Y00029312D01*
X00030082Y00029286D01*
X00030053Y00029263D01*
X00030022Y00029243D01*
X00029988Y00029226D01*
X00029954Y00029212D01*
X00029918Y00029203D01*
X00029881Y00029197D01*
X00029844Y00029195D01*
X00029807Y00029197D01*
X00029770Y00029203D01*
X00029734Y00029212D01*
X00029700Y00029226D01*
X00029667Y00029243D01*
X00029635Y00029263D01*
X00029606Y00029286D01*
X00029580Y00029312D01*
X00029557Y00029341D01*
X00029537Y00029372D01*
X00029520Y00029406D01*
X00029506Y00029440D01*
X00029497Y00029476D01*
X00029491Y00029513D01*
X00029489Y00029550D01*
X00029489Y00023050D02*
X00029489Y00023050D01*
X00029491Y00023087D01*
X00029497Y00023124D01*
X00029506Y00023160D01*
X00029520Y00023194D01*
X00029537Y00023227D01*
X00029557Y00023259D01*
X00029580Y00023288D01*
X00029606Y00023314D01*
X00029635Y00023337D01*
X00029666Y00023357D01*
X00029700Y00023374D01*
X00029734Y00023388D01*
X00029770Y00023397D01*
X00029807Y00023403D01*
X00029844Y00023405D01*
X00029881Y00023403D01*
X00029918Y00023397D01*
X00029954Y00023388D01*
X00029988Y00023374D01*
X00030021Y00023357D01*
X00030053Y00023337D01*
X00030082Y00023314D01*
X00030108Y00023288D01*
X00030131Y00023259D01*
X00030151Y00023228D01*
X00030168Y00023194D01*
X00030182Y00023160D01*
X00030191Y00023124D01*
X00030197Y00023087D01*
X00030199Y00023050D01*
X00030197Y00023013D01*
X00030191Y00022976D01*
X00030182Y00022940D01*
X00030168Y00022906D01*
X00030151Y00022873D01*
X00030131Y00022841D01*
X00030108Y00022812D01*
X00030082Y00022786D01*
X00030053Y00022763D01*
X00030022Y00022743D01*
X00029988Y00022726D01*
X00029954Y00022712D01*
X00029918Y00022703D01*
X00029881Y00022697D01*
X00029844Y00022695D01*
X00029807Y00022697D01*
X00029770Y00022703D01*
X00029734Y00022712D01*
X00029700Y00022726D01*
X00029667Y00022743D01*
X00029635Y00022763D01*
X00029606Y00022786D01*
X00029580Y00022812D01*
X00029557Y00022841D01*
X00029537Y00022872D01*
X00029520Y00022906D01*
X00029506Y00022940D01*
X00029497Y00022976D01*
X00029491Y00023013D01*
X00029489Y00023050D01*
X00035463Y00020285D02*
X00035463Y00020285D01*
X00035464Y00020336D01*
X00035469Y00020385D01*
X00035478Y00020435D01*
X00035491Y00020483D01*
X00035507Y00020530D01*
X00035528Y00020576D01*
X00035552Y00020620D01*
X00035579Y00020662D01*
X00035609Y00020702D01*
X00035643Y00020739D01*
X00035680Y00020773D01*
X00035719Y00020805D01*
X00035760Y00020833D01*
X00035804Y00020858D01*
X00035849Y00020879D01*
X00035896Y00020896D01*
X00035944Y00020910D01*
X00035993Y00020920D01*
X00036043Y00020926D01*
X00036093Y00020928D01*
X00036143Y00020926D01*
X00036193Y00020920D01*
X00036242Y00020910D01*
X00036290Y00020896D01*
X00036337Y00020879D01*
X00036382Y00020858D01*
X00036426Y00020833D01*
X00036467Y00020805D01*
X00036506Y00020773D01*
X00036543Y00020739D01*
X00036577Y00020702D01*
X00036607Y00020662D01*
X00036634Y00020620D01*
X00036658Y00020576D01*
X00036679Y00020530D01*
X00036695Y00020483D01*
X00036708Y00020435D01*
X00036717Y00020385D01*
X00036722Y00020336D01*
X00036723Y00020285D01*
X00036720Y00020235D01*
X00036713Y00020186D01*
X00036702Y00020137D01*
X00036687Y00020089D01*
X00036669Y00020043D01*
X00036647Y00019998D01*
X00036621Y00019955D01*
X00036592Y00019914D01*
X00036560Y00019875D01*
X00036525Y00019839D01*
X00036487Y00019807D01*
X00036447Y00019777D01*
X00036404Y00019750D01*
X00036360Y00019727D01*
X00036314Y00019708D01*
X00036266Y00019692D01*
X00036217Y00019680D01*
X00036168Y00019672D01*
X00036118Y00019668D01*
X00036068Y00019668D01*
X00036018Y00019672D01*
X00035969Y00019680D01*
X00035920Y00019692D01*
X00035872Y00019708D01*
X00035826Y00019727D01*
X00035782Y00019750D01*
X00035739Y00019777D01*
X00035699Y00019807D01*
X00035661Y00019839D01*
X00035626Y00019875D01*
X00035594Y00019914D01*
X00035565Y00019955D01*
X00035539Y00019998D01*
X00035517Y00020043D01*
X00035499Y00020089D01*
X00035484Y00020137D01*
X00035473Y00020186D01*
X00035466Y00020235D01*
X00035463Y00020285D01*
X00035463Y00036285D02*
X00035463Y00036285D01*
X00035464Y00036336D01*
X00035469Y00036385D01*
X00035478Y00036435D01*
X00035491Y00036483D01*
X00035507Y00036530D01*
X00035528Y00036576D01*
X00035552Y00036620D01*
X00035579Y00036662D01*
X00035609Y00036702D01*
X00035643Y00036739D01*
X00035680Y00036773D01*
X00035719Y00036805D01*
X00035760Y00036833D01*
X00035804Y00036858D01*
X00035849Y00036879D01*
X00035896Y00036896D01*
X00035944Y00036910D01*
X00035993Y00036920D01*
X00036043Y00036926D01*
X00036093Y00036928D01*
X00036143Y00036926D01*
X00036193Y00036920D01*
X00036242Y00036910D01*
X00036290Y00036896D01*
X00036337Y00036879D01*
X00036382Y00036858D01*
X00036426Y00036833D01*
X00036467Y00036805D01*
X00036506Y00036773D01*
X00036543Y00036739D01*
X00036577Y00036702D01*
X00036607Y00036662D01*
X00036634Y00036620D01*
X00036658Y00036576D01*
X00036679Y00036530D01*
X00036695Y00036483D01*
X00036708Y00036435D01*
X00036717Y00036385D01*
X00036722Y00036336D01*
X00036723Y00036285D01*
X00036720Y00036235D01*
X00036713Y00036186D01*
X00036702Y00036137D01*
X00036687Y00036089D01*
X00036669Y00036043D01*
X00036647Y00035998D01*
X00036621Y00035955D01*
X00036592Y00035914D01*
X00036560Y00035875D01*
X00036525Y00035839D01*
X00036487Y00035807D01*
X00036447Y00035777D01*
X00036404Y00035750D01*
X00036360Y00035727D01*
X00036314Y00035708D01*
X00036266Y00035692D01*
X00036217Y00035680D01*
X00036168Y00035672D01*
X00036118Y00035668D01*
X00036068Y00035668D01*
X00036018Y00035672D01*
X00035969Y00035680D01*
X00035920Y00035692D01*
X00035872Y00035708D01*
X00035826Y00035727D01*
X00035782Y00035750D01*
X00035739Y00035777D01*
X00035699Y00035807D01*
X00035661Y00035839D01*
X00035626Y00035875D01*
X00035594Y00035914D01*
X00035565Y00035955D01*
X00035539Y00035998D01*
X00035517Y00036043D01*
X00035499Y00036089D01*
X00035484Y00036137D01*
X00035473Y00036186D01*
X00035466Y00036235D01*
X00035463Y00036285D01*
X00037332Y00016343D02*
X00037332Y00016343D01*
X00037383Y00016342D01*
X00037432Y00016337D01*
X00037482Y00016328D01*
X00037530Y00016315D01*
X00037577Y00016299D01*
X00037623Y00016278D01*
X00037667Y00016254D01*
X00037709Y00016227D01*
X00037749Y00016197D01*
X00037786Y00016163D01*
X00037820Y00016126D01*
X00037852Y00016087D01*
X00037880Y00016046D01*
X00037905Y00016002D01*
X00037926Y00015957D01*
X00037943Y00015910D01*
X00037957Y00015862D01*
X00037967Y00015813D01*
X00037973Y00015763D01*
X00037975Y00015713D01*
X00037973Y00015663D01*
X00037967Y00015613D01*
X00037957Y00015564D01*
X00037943Y00015516D01*
X00037926Y00015469D01*
X00037905Y00015424D01*
X00037880Y00015380D01*
X00037852Y00015339D01*
X00037820Y00015300D01*
X00037786Y00015263D01*
X00037749Y00015229D01*
X00037709Y00015199D01*
X00037667Y00015172D01*
X00037623Y00015148D01*
X00037577Y00015127D01*
X00037530Y00015111D01*
X00037482Y00015098D01*
X00037432Y00015089D01*
X00037383Y00015084D01*
X00037332Y00015083D01*
X00037282Y00015086D01*
X00037233Y00015093D01*
X00037184Y00015104D01*
X00037136Y00015119D01*
X00037090Y00015137D01*
X00037045Y00015159D01*
X00037002Y00015185D01*
X00036961Y00015214D01*
X00036922Y00015246D01*
X00036886Y00015281D01*
X00036854Y00015319D01*
X00036824Y00015359D01*
X00036797Y00015402D01*
X00036774Y00015446D01*
X00036755Y00015492D01*
X00036739Y00015540D01*
X00036727Y00015589D01*
X00036719Y00015638D01*
X00036715Y00015688D01*
X00036715Y00015738D01*
X00036719Y00015788D01*
X00036727Y00015837D01*
X00036739Y00015886D01*
X00036755Y00015934D01*
X00036774Y00015980D01*
X00036797Y00016024D01*
X00036824Y00016067D01*
X00036854Y00016107D01*
X00036886Y00016145D01*
X00036922Y00016180D01*
X00036961Y00016212D01*
X00037002Y00016241D01*
X00037045Y00016267D01*
X00037090Y00016289D01*
X00037136Y00016307D01*
X00037184Y00016322D01*
X00037233Y00016333D01*
X00037282Y00016340D01*
X00037332Y00016343D01*
X00001832Y00016343D02*
X00001832Y00016343D01*
X00001883Y00016342D01*
X00001932Y00016337D01*
X00001982Y00016328D01*
X00002030Y00016315D01*
X00002077Y00016299D01*
X00002123Y00016278D01*
X00002167Y00016254D01*
X00002209Y00016227D01*
X00002249Y00016197D01*
X00002286Y00016163D01*
X00002320Y00016126D01*
X00002352Y00016087D01*
X00002380Y00016046D01*
X00002405Y00016002D01*
X00002426Y00015957D01*
X00002443Y00015910D01*
X00002457Y00015862D01*
X00002467Y00015813D01*
X00002473Y00015763D01*
X00002475Y00015713D01*
X00002473Y00015663D01*
X00002467Y00015613D01*
X00002457Y00015564D01*
X00002443Y00015516D01*
X00002426Y00015469D01*
X00002405Y00015424D01*
X00002380Y00015380D01*
X00002352Y00015339D01*
X00002320Y00015300D01*
X00002286Y00015263D01*
X00002249Y00015229D01*
X00002209Y00015199D01*
X00002167Y00015172D01*
X00002123Y00015148D01*
X00002077Y00015127D01*
X00002030Y00015111D01*
X00001982Y00015098D01*
X00001932Y00015089D01*
X00001883Y00015084D01*
X00001832Y00015083D01*
X00001782Y00015086D01*
X00001733Y00015093D01*
X00001684Y00015104D01*
X00001636Y00015119D01*
X00001590Y00015137D01*
X00001545Y00015159D01*
X00001502Y00015185D01*
X00001461Y00015214D01*
X00001422Y00015246D01*
X00001386Y00015281D01*
X00001354Y00015319D01*
X00001324Y00015359D01*
X00001297Y00015402D01*
X00001274Y00015446D01*
X00001255Y00015492D01*
X00001239Y00015540D01*
X00001227Y00015589D01*
X00001219Y00015638D01*
X00001215Y00015688D01*
X00001215Y00015738D01*
X00001219Y00015788D01*
X00001227Y00015837D01*
X00001239Y00015886D01*
X00001255Y00015934D01*
X00001274Y00015980D01*
X00001297Y00016024D01*
X00001324Y00016067D01*
X00001354Y00016107D01*
X00001386Y00016145D01*
X00001422Y00016180D01*
X00001461Y00016212D01*
X00001502Y00016241D01*
X00001545Y00016267D01*
X00001590Y00016289D01*
X00001636Y00016307D01*
X00001684Y00016322D01*
X00001733Y00016333D01*
X00001782Y00016340D01*
X00001832Y00016343D01*
X00013887Y00015589D02*
X00013887Y00015589D01*
X00013932Y00015587D01*
X00013976Y00015581D01*
X00014020Y00015572D01*
X00014062Y00015558D01*
X00014103Y00015541D01*
X00014143Y00015520D01*
X00014181Y00015496D01*
X00014216Y00015469D01*
X00014249Y00015439D01*
X00014279Y00015406D01*
X00014306Y00015371D01*
X00014330Y00015333D01*
X00014351Y00015293D01*
X00014368Y00015252D01*
X00014382Y00015210D01*
X00014391Y00015166D01*
X00014397Y00015122D01*
X00014399Y00015077D01*
X00014397Y00015032D01*
X00014391Y00014988D01*
X00014382Y00014944D01*
X00014368Y00014902D01*
X00014351Y00014861D01*
X00014330Y00014821D01*
X00014306Y00014783D01*
X00014279Y00014748D01*
X00014249Y00014715D01*
X00014216Y00014685D01*
X00014181Y00014658D01*
X00014143Y00014634D01*
X00014103Y00014613D01*
X00014062Y00014596D01*
X00014020Y00014582D01*
X00013976Y00014573D01*
X00013932Y00014567D01*
X00013887Y00014565D01*
X00013842Y00014567D01*
X00013798Y00014573D01*
X00013754Y00014582D01*
X00013712Y00014596D01*
X00013671Y00014613D01*
X00013631Y00014634D01*
X00013593Y00014658D01*
X00013558Y00014685D01*
X00013525Y00014715D01*
X00013495Y00014748D01*
X00013468Y00014783D01*
X00013444Y00014821D01*
X00013423Y00014861D01*
X00013406Y00014902D01*
X00013392Y00014944D01*
X00013383Y00014988D01*
X00013377Y00015032D01*
X00013375Y00015077D01*
X00013377Y00015122D01*
X00013383Y00015166D01*
X00013392Y00015210D01*
X00013406Y00015252D01*
X00013423Y00015293D01*
X00013444Y00015333D01*
X00013468Y00015371D01*
X00013495Y00015406D01*
X00013525Y00015439D01*
X00013558Y00015469D01*
X00013593Y00015496D01*
X00013631Y00015520D01*
X00013671Y00015541D01*
X00013712Y00015558D01*
X00013754Y00015572D01*
X00013798Y00015581D01*
X00013842Y00015587D01*
X00013887Y00015589D01*
X00025304Y00015589D02*
X00025304Y00015589D01*
X00025349Y00015587D01*
X00025393Y00015581D01*
X00025437Y00015572D01*
X00025479Y00015558D01*
X00025520Y00015541D01*
X00025560Y00015520D01*
X00025598Y00015496D01*
X00025633Y00015469D01*
X00025666Y00015439D01*
X00025696Y00015406D01*
X00025723Y00015371D01*
X00025747Y00015333D01*
X00025768Y00015293D01*
X00025785Y00015252D01*
X00025799Y00015210D01*
X00025808Y00015166D01*
X00025814Y00015122D01*
X00025816Y00015077D01*
X00025814Y00015032D01*
X00025808Y00014988D01*
X00025799Y00014944D01*
X00025785Y00014902D01*
X00025768Y00014861D01*
X00025747Y00014821D01*
X00025723Y00014783D01*
X00025696Y00014748D01*
X00025666Y00014715D01*
X00025633Y00014685D01*
X00025598Y00014658D01*
X00025560Y00014634D01*
X00025520Y00014613D01*
X00025479Y00014596D01*
X00025437Y00014582D01*
X00025393Y00014573D01*
X00025349Y00014567D01*
X00025304Y00014565D01*
X00025259Y00014567D01*
X00025215Y00014573D01*
X00025171Y00014582D01*
X00025129Y00014596D01*
X00025088Y00014613D01*
X00025048Y00014634D01*
X00025010Y00014658D01*
X00024975Y00014685D01*
X00024942Y00014715D01*
X00024912Y00014748D01*
X00024885Y00014783D01*
X00024861Y00014821D01*
X00024840Y00014861D01*
X00024823Y00014902D01*
X00024809Y00014944D01*
X00024800Y00014988D01*
X00024794Y00015032D01*
X00024792Y00015077D01*
X00024794Y00015122D01*
X00024800Y00015166D01*
X00024809Y00015210D01*
X00024823Y00015252D01*
X00024840Y00015293D01*
X00024861Y00015333D01*
X00024885Y00015371D01*
X00024912Y00015406D01*
X00024942Y00015439D01*
X00024975Y00015469D01*
X00025010Y00015496D01*
X00025048Y00015520D01*
X00025088Y00015541D01*
X00025129Y00015558D01*
X00025171Y00015572D01*
X00025215Y00015581D01*
X00025259Y00015587D01*
X00025304Y00015589D01*
X00031618Y00014514D02*
X00031618Y00014514D01*
X00031665Y00014510D01*
X00031711Y00014502D01*
X00031756Y00014490D01*
X00031800Y00014474D01*
X00031843Y00014455D01*
X00031884Y00014432D01*
X00031923Y00014406D01*
X00031959Y00014377D01*
X00031993Y00014344D01*
X00032024Y00014309D01*
X00032052Y00014272D01*
X00032076Y00014232D01*
X00032097Y00014190D01*
X00032115Y00014147D01*
X00032128Y00014102D01*
X00032138Y00014056D01*
X00032144Y00014010D01*
X00032146Y00013963D01*
X00032144Y00013916D01*
X00032138Y00013870D01*
X00032128Y00013824D01*
X00032115Y00013779D01*
X00032097Y00013736D01*
X00032076Y00013694D01*
X00032052Y00013654D01*
X00032024Y00013617D01*
X00031993Y00013582D01*
X00031959Y00013549D01*
X00031923Y00013520D01*
X00031884Y00013494D01*
X00031843Y00013471D01*
X00031800Y00013452D01*
X00031756Y00013436D01*
X00031711Y00013424D01*
X00031665Y00013416D01*
X00031618Y00013412D01*
X00031572Y00013412D01*
X00031525Y00013416D01*
X00031479Y00013424D01*
X00031434Y00013436D01*
X00031390Y00013452D01*
X00031347Y00013471D01*
X00031306Y00013494D01*
X00031267Y00013520D01*
X00031231Y00013549D01*
X00031197Y00013582D01*
X00031166Y00013617D01*
X00031138Y00013654D01*
X00031114Y00013694D01*
X00031093Y00013736D01*
X00031075Y00013779D01*
X00031062Y00013824D01*
X00031052Y00013870D01*
X00031046Y00013916D01*
X00031044Y00013963D01*
X00031046Y00014010D01*
X00031052Y00014056D01*
X00031062Y00014102D01*
X00031075Y00014147D01*
X00031093Y00014190D01*
X00031114Y00014232D01*
X00031138Y00014272D01*
X00031166Y00014309D01*
X00031197Y00014344D01*
X00031231Y00014377D01*
X00031267Y00014406D01*
X00031306Y00014432D01*
X00031347Y00014455D01*
X00031390Y00014474D01*
X00031434Y00014490D01*
X00031479Y00014502D01*
X00031525Y00014510D01*
X00031572Y00014514D01*
X00031618Y00014514D01*
X00025304Y00003975D02*
X00025304Y00003975D01*
X00025349Y00003973D01*
X00025393Y00003967D01*
X00025437Y00003958D01*
X00025479Y00003944D01*
X00025520Y00003927D01*
X00025560Y00003906D01*
X00025598Y00003882D01*
X00025633Y00003855D01*
X00025666Y00003825D01*
X00025696Y00003792D01*
X00025723Y00003757D01*
X00025747Y00003719D01*
X00025768Y00003679D01*
X00025785Y00003638D01*
X00025799Y00003596D01*
X00025808Y00003552D01*
X00025814Y00003508D01*
X00025816Y00003463D01*
X00025814Y00003418D01*
X00025808Y00003374D01*
X00025799Y00003330D01*
X00025785Y00003288D01*
X00025768Y00003247D01*
X00025747Y00003207D01*
X00025723Y00003169D01*
X00025696Y00003134D01*
X00025666Y00003101D01*
X00025633Y00003071D01*
X00025598Y00003044D01*
X00025560Y00003020D01*
X00025520Y00002999D01*
X00025479Y00002982D01*
X00025437Y00002968D01*
X00025393Y00002959D01*
X00025349Y00002953D01*
X00025304Y00002951D01*
X00025259Y00002953D01*
X00025215Y00002959D01*
X00025171Y00002968D01*
X00025129Y00002982D01*
X00025088Y00002999D01*
X00025048Y00003020D01*
X00025010Y00003044D01*
X00024975Y00003071D01*
X00024942Y00003101D01*
X00024912Y00003134D01*
X00024885Y00003169D01*
X00024861Y00003207D01*
X00024840Y00003247D01*
X00024823Y00003288D01*
X00024809Y00003330D01*
X00024800Y00003374D01*
X00024794Y00003418D01*
X00024792Y00003463D01*
X00024794Y00003508D01*
X00024800Y00003552D01*
X00024809Y00003596D01*
X00024823Y00003638D01*
X00024840Y00003679D01*
X00024861Y00003719D01*
X00024885Y00003757D01*
X00024912Y00003792D01*
X00024942Y00003825D01*
X00024975Y00003855D01*
X00025010Y00003882D01*
X00025048Y00003906D01*
X00025088Y00003927D01*
X00025129Y00003944D01*
X00025171Y00003958D01*
X00025215Y00003967D01*
X00025259Y00003973D01*
X00025304Y00003975D01*
X00013887Y00003975D02*
X00013887Y00003975D01*
X00013932Y00003973D01*
X00013976Y00003967D01*
X00014020Y00003958D01*
X00014062Y00003944D01*
X00014103Y00003927D01*
X00014143Y00003906D01*
X00014181Y00003882D01*
X00014216Y00003855D01*
X00014249Y00003825D01*
X00014279Y00003792D01*
X00014306Y00003757D01*
X00014330Y00003719D01*
X00014351Y00003679D01*
X00014368Y00003638D01*
X00014382Y00003596D01*
X00014391Y00003552D01*
X00014397Y00003508D01*
X00014399Y00003463D01*
X00014397Y00003418D01*
X00014391Y00003374D01*
X00014382Y00003330D01*
X00014368Y00003288D01*
X00014351Y00003247D01*
X00014330Y00003207D01*
X00014306Y00003169D01*
X00014279Y00003134D01*
X00014249Y00003101D01*
X00014216Y00003071D01*
X00014181Y00003044D01*
X00014143Y00003020D01*
X00014103Y00002999D01*
X00014062Y00002982D01*
X00014020Y00002968D01*
X00013976Y00002959D01*
X00013932Y00002953D01*
X00013887Y00002951D01*
X00013842Y00002953D01*
X00013798Y00002959D01*
X00013754Y00002968D01*
X00013712Y00002982D01*
X00013671Y00002999D01*
X00013631Y00003020D01*
X00013593Y00003044D01*
X00013558Y00003071D01*
X00013525Y00003101D01*
X00013495Y00003134D01*
X00013468Y00003169D01*
X00013444Y00003207D01*
X00013423Y00003247D01*
X00013406Y00003288D01*
X00013392Y00003330D01*
X00013383Y00003374D01*
X00013377Y00003418D01*
X00013375Y00003463D01*
X00013377Y00003508D01*
X00013383Y00003552D01*
X00013392Y00003596D01*
X00013406Y00003638D01*
X00013423Y00003679D01*
X00013444Y00003719D01*
X00013468Y00003757D01*
X00013495Y00003792D01*
X00013525Y00003825D01*
X00013558Y00003855D01*
X00013593Y00003882D01*
X00013631Y00003906D01*
X00013671Y00003927D01*
X00013712Y00003944D01*
X00013754Y00003958D01*
X00013798Y00003967D01*
X00013842Y00003973D01*
X00013887Y00003975D01*
X00037332Y00002343D02*
X00037332Y00002343D01*
X00037383Y00002342D01*
X00037432Y00002337D01*
X00037482Y00002328D01*
X00037530Y00002315D01*
X00037577Y00002299D01*
X00037623Y00002278D01*
X00037667Y00002254D01*
X00037709Y00002227D01*
X00037749Y00002197D01*
X00037786Y00002163D01*
X00037820Y00002126D01*
X00037852Y00002087D01*
X00037880Y00002046D01*
X00037905Y00002002D01*
X00037926Y00001957D01*
X00037943Y00001910D01*
X00037957Y00001862D01*
X00037967Y00001813D01*
X00037973Y00001763D01*
X00037975Y00001713D01*
X00037973Y00001663D01*
X00037967Y00001613D01*
X00037957Y00001564D01*
X00037943Y00001516D01*
X00037926Y00001469D01*
X00037905Y00001424D01*
X00037880Y00001380D01*
X00037852Y00001339D01*
X00037820Y00001300D01*
X00037786Y00001263D01*
X00037749Y00001229D01*
X00037709Y00001199D01*
X00037667Y00001172D01*
X00037623Y00001148D01*
X00037577Y00001127D01*
X00037530Y00001111D01*
X00037482Y00001098D01*
X00037432Y00001089D01*
X00037383Y00001084D01*
X00037332Y00001083D01*
X00037282Y00001086D01*
X00037233Y00001093D01*
X00037184Y00001104D01*
X00037136Y00001119D01*
X00037090Y00001137D01*
X00037045Y00001159D01*
X00037002Y00001185D01*
X00036961Y00001214D01*
X00036922Y00001246D01*
X00036886Y00001281D01*
X00036854Y00001319D01*
X00036824Y00001359D01*
X00036797Y00001402D01*
X00036774Y00001446D01*
X00036755Y00001492D01*
X00036739Y00001540D01*
X00036727Y00001589D01*
X00036719Y00001638D01*
X00036715Y00001688D01*
X00036715Y00001738D01*
X00036719Y00001788D01*
X00036727Y00001837D01*
X00036739Y00001886D01*
X00036755Y00001934D01*
X00036774Y00001980D01*
X00036797Y00002024D01*
X00036824Y00002067D01*
X00036854Y00002107D01*
X00036886Y00002145D01*
X00036922Y00002180D01*
X00036961Y00002212D01*
X00037002Y00002241D01*
X00037045Y00002267D01*
X00037090Y00002289D01*
X00037136Y00002307D01*
X00037184Y00002322D01*
X00037233Y00002333D01*
X00037282Y00002340D01*
X00037332Y00002343D01*
X00001832Y00002343D02*
X00001832Y00002343D01*
X00001883Y00002342D01*
X00001932Y00002337D01*
X00001982Y00002328D01*
X00002030Y00002315D01*
X00002077Y00002299D01*
X00002123Y00002278D01*
X00002167Y00002254D01*
X00002209Y00002227D01*
X00002249Y00002197D01*
X00002286Y00002163D01*
X00002320Y00002126D01*
X00002352Y00002087D01*
X00002380Y00002046D01*
X00002405Y00002002D01*
X00002426Y00001957D01*
X00002443Y00001910D01*
X00002457Y00001862D01*
X00002467Y00001813D01*
X00002473Y00001763D01*
X00002475Y00001713D01*
X00002473Y00001663D01*
X00002467Y00001613D01*
X00002457Y00001564D01*
X00002443Y00001516D01*
X00002426Y00001469D01*
X00002405Y00001424D01*
X00002380Y00001380D01*
X00002352Y00001339D01*
X00002320Y00001300D01*
X00002286Y00001263D01*
X00002249Y00001229D01*
X00002209Y00001199D01*
X00002167Y00001172D01*
X00002123Y00001148D01*
X00002077Y00001127D01*
X00002030Y00001111D01*
X00001982Y00001098D01*
X00001932Y00001089D01*
X00001883Y00001084D01*
X00001832Y00001083D01*
X00001782Y00001086D01*
X00001733Y00001093D01*
X00001684Y00001104D01*
X00001636Y00001119D01*
X00001590Y00001137D01*
X00001545Y00001159D01*
X00001502Y00001185D01*
X00001461Y00001214D01*
X00001422Y00001246D01*
X00001386Y00001281D01*
X00001354Y00001319D01*
X00001324Y00001359D01*
X00001297Y00001402D01*
X00001274Y00001446D01*
X00001255Y00001492D01*
X00001239Y00001540D01*
X00001227Y00001589D01*
X00001219Y00001638D01*
X00001215Y00001688D01*
X00001215Y00001738D01*
X00001219Y00001788D01*
X00001227Y00001837D01*
X00001239Y00001886D01*
X00001255Y00001934D01*
X00001274Y00001980D01*
X00001297Y00002024D01*
X00001324Y00002067D01*
X00001354Y00002107D01*
X00001386Y00002145D01*
X00001422Y00002180D01*
X00001461Y00002212D01*
X00001502Y00002241D01*
X00001545Y00002267D01*
X00001590Y00002289D01*
X00001636Y00002307D01*
X00001684Y00002322D01*
X00001733Y00002333D01*
X00001782Y00002340D01*
X00001832Y00002343D01*
X00028118Y00001764D02*
X00028118Y00001764D01*
X00028165Y00001760D01*
X00028211Y00001752D01*
X00028256Y00001740D01*
X00028300Y00001724D01*
X00028343Y00001705D01*
X00028384Y00001682D01*
X00028423Y00001656D01*
X00028459Y00001627D01*
X00028493Y00001594D01*
X00028524Y00001559D01*
X00028552Y00001522D01*
X00028576Y00001482D01*
X00028597Y00001440D01*
X00028615Y00001397D01*
X00028628Y00001352D01*
X00028638Y00001306D01*
X00028644Y00001260D01*
X00028646Y00001213D01*
X00028644Y00001166D01*
X00028638Y00001120D01*
X00028628Y00001074D01*
X00028615Y00001029D01*
X00028597Y00000986D01*
X00028576Y00000944D01*
X00028552Y00000904D01*
X00028524Y00000867D01*
X00028493Y00000832D01*
X00028459Y00000799D01*
X00028423Y00000770D01*
X00028384Y00000744D01*
X00028343Y00000721D01*
X00028300Y00000702D01*
X00028256Y00000686D01*
X00028211Y00000674D01*
X00028165Y00000666D01*
X00028118Y00000662D01*
X00028072Y00000662D01*
X00028025Y00000666D01*
X00027979Y00000674D01*
X00027934Y00000686D01*
X00027890Y00000702D01*
X00027847Y00000721D01*
X00027806Y00000744D01*
X00027767Y00000770D01*
X00027731Y00000799D01*
X00027697Y00000832D01*
X00027666Y00000867D01*
X00027638Y00000904D01*
X00027614Y00000944D01*
X00027593Y00000986D01*
X00027575Y00001029D01*
X00027562Y00001074D01*
X00027552Y00001120D01*
X00027546Y00001166D01*
X00027544Y00001213D01*
X00027546Y00001260D01*
X00027552Y00001306D01*
X00027562Y00001352D01*
X00027575Y00001397D01*
X00027593Y00001440D01*
X00027614Y00001482D01*
X00027638Y00001522D01*
X00027666Y00001559D01*
X00027697Y00001594D01*
X00027731Y00001627D01*
X00027767Y00001656D01*
X00027806Y00001682D01*
X00027847Y00001705D01*
X00027890Y00001724D01*
X00027934Y00001740D01*
X00027979Y00001752D01*
X00028025Y00001760D01*
X00028072Y00001764D01*
X00028118Y00001764D01*
X00035118Y00001764D02*
X00035118Y00001764D01*
X00035165Y00001760D01*
X00035211Y00001752D01*
X00035256Y00001740D01*
X00035300Y00001724D01*
X00035343Y00001705D01*
X00035384Y00001682D01*
X00035423Y00001656D01*
X00035459Y00001627D01*
X00035493Y00001594D01*
X00035524Y00001559D01*
X00035552Y00001522D01*
X00035576Y00001482D01*
X00035597Y00001440D01*
X00035615Y00001397D01*
X00035628Y00001352D01*
X00035638Y00001306D01*
X00035644Y00001260D01*
X00035646Y00001213D01*
X00035644Y00001166D01*
X00035638Y00001120D01*
X00035628Y00001074D01*
X00035615Y00001029D01*
X00035597Y00000986D01*
X00035576Y00000944D01*
X00035552Y00000904D01*
X00035524Y00000867D01*
X00035493Y00000832D01*
X00035459Y00000799D01*
X00035423Y00000770D01*
X00035384Y00000744D01*
X00035343Y00000721D01*
X00035300Y00000702D01*
X00035256Y00000686D01*
X00035211Y00000674D01*
X00035165Y00000666D01*
X00035118Y00000662D01*
X00035072Y00000662D01*
X00035025Y00000666D01*
X00034979Y00000674D01*
X00034934Y00000686D01*
X00034890Y00000702D01*
X00034847Y00000721D01*
X00034806Y00000744D01*
X00034767Y00000770D01*
X00034731Y00000799D01*
X00034697Y00000832D01*
X00034666Y00000867D01*
X00034638Y00000904D01*
X00034614Y00000944D01*
X00034593Y00000986D01*
X00034575Y00001029D01*
X00034562Y00001074D01*
X00034552Y00001120D01*
X00034546Y00001166D01*
X00034544Y00001213D01*
X00034546Y00001260D01*
X00034552Y00001306D01*
X00034562Y00001352D01*
X00034575Y00001397D01*
X00034593Y00001440D01*
X00034614Y00001482D01*
X00034638Y00001522D01*
X00034666Y00001559D01*
X00034697Y00001594D01*
X00034731Y00001627D01*
X00034767Y00001656D01*
X00034806Y00001682D01*
X00034847Y00001705D01*
X00034890Y00001724D01*
X00034934Y00001740D01*
X00034979Y00001752D01*
X00035025Y00001760D01*
X00035072Y00001764D01*
X00035118Y00001764D01*
X00001845Y00017463D02*
X00001845Y00017463D01*
X00001762Y00017461D01*
X00001679Y00017455D01*
X00001596Y00017445D01*
X00001514Y00017431D01*
X00001432Y00017414D01*
X00001352Y00017392D01*
X00001273Y00017367D01*
X00001195Y00017338D01*
X00001118Y00017305D01*
X00001043Y00017268D01*
X00000970Y00017229D01*
X00000899Y00017185D01*
X00000830Y00017139D01*
X00000763Y00017089D01*
X00000699Y00017036D01*
X00000637Y00016980D01*
X00000578Y00016921D01*
X00000522Y00016859D01*
X00000469Y00016795D01*
X00000419Y00016728D01*
X00000373Y00016659D01*
X00000329Y00016588D01*
X00000290Y00016515D01*
X00000253Y00016440D01*
X00000220Y00016363D01*
X00000191Y00016285D01*
X00000166Y00016206D01*
X00000144Y00016126D01*
X00000127Y00016044D01*
X00000113Y00015962D01*
X00000103Y00015879D01*
X00000097Y00015796D01*
X00000095Y00015713D01*
X00000095Y00001713D01*
X00000097Y00001630D01*
X00000103Y00001547D01*
X00000113Y00001464D01*
X00000127Y00001382D01*
X00000144Y00001300D01*
X00000166Y00001220D01*
X00000191Y00001141D01*
X00000220Y00001063D01*
X00000253Y00000986D01*
X00000290Y00000911D01*
X00000329Y00000838D01*
X00000373Y00000767D01*
X00000419Y00000698D01*
X00000469Y00000631D01*
X00000522Y00000567D01*
X00000578Y00000505D01*
X00000637Y00000446D01*
X00000699Y00000390D01*
X00000763Y00000337D01*
X00000830Y00000287D01*
X00000899Y00000241D01*
X00000970Y00000197D01*
X00001043Y00000158D01*
X00001118Y00000121D01*
X00001195Y00000088D01*
X00001273Y00000059D01*
X00001352Y00000034D01*
X00001432Y00000012D01*
X00001514Y-00000004D01*
X00001596Y-00000018D01*
X00001679Y-00000028D01*
X00001762Y-00000034D01*
X00001845Y-00000036D01*
X00037345Y-00000036D01*
X00037428Y-00000034D01*
X00037511Y-00000028D01*
X00037594Y-00000018D01*
X00037676Y-00000004D01*
X00037758Y00000012D01*
X00037838Y00000034D01*
X00037917Y00000059D01*
X00037995Y00000088D01*
X00038072Y00000121D01*
X00038147Y00000158D01*
X00038220Y00000197D01*
X00038291Y00000241D01*
X00038360Y00000287D01*
X00038427Y00000337D01*
X00038491Y00000390D01*
X00038553Y00000446D01*
X00038612Y00000505D01*
X00038668Y00000567D01*
X00038721Y00000631D01*
X00038771Y00000698D01*
X00038817Y00000767D01*
X00038861Y00000838D01*
X00038900Y00000911D01*
X00038937Y00000986D01*
X00038970Y00001063D01*
X00038999Y00001141D01*
X00039024Y00001220D01*
X00039046Y00001300D01*
X00039063Y00001382D01*
X00039077Y00001464D01*
X00039087Y00001547D01*
X00039093Y00001630D01*
X00039095Y00001713D01*
X00039095Y00015713D01*
X00039093Y00015796D01*
X00039087Y00015879D01*
X00039077Y00015962D01*
X00039063Y00016044D01*
X00039046Y00016126D01*
X00039024Y00016206D01*
X00038999Y00016285D01*
X00038970Y00016363D01*
X00038937Y00016440D01*
X00038900Y00016515D01*
X00038861Y00016588D01*
X00038817Y00016659D01*
X00038771Y00016728D01*
X00038721Y00016795D01*
X00038668Y00016859D01*
X00038612Y00016921D01*
X00038553Y00016980D01*
X00038491Y00017036D01*
X00038427Y00017089D01*
X00038360Y00017139D01*
X00038291Y00017185D01*
X00038220Y00017229D01*
X00038147Y00017268D01*
X00038072Y00017305D01*
X00037995Y00017338D01*
X00037917Y00017367D01*
X00037838Y00017392D01*
X00037758Y00017414D01*
X00037676Y00017431D01*
X00037594Y00017445D01*
X00037511Y00017455D01*
X00037428Y00017461D01*
X00037345Y00017463D01*
X00033271Y00017463D01*
X00033234Y00017465D01*
X00033196Y00017470D01*
X00033159Y00017479D01*
X00033124Y00017492D01*
X00033089Y00017508D01*
X00033057Y00017527D01*
X00033026Y00017549D01*
X00032998Y00017574D01*
X00032972Y00017601D01*
X00032949Y00017631D01*
X00032928Y00017663D01*
X00032911Y00017697D01*
X00032898Y00017732D01*
X00032888Y00017769D01*
X00032881Y00017806D01*
X00032878Y00017843D01*
X00032878Y00017881D01*
X00032883Y00017919D01*
X00032890Y00017956D01*
X00032902Y00017992D01*
X00033010Y00018289D01*
X00033019Y00018311D01*
X00033029Y00018333D01*
X00033041Y00018354D01*
X00033054Y00018374D01*
X00033068Y00018394D01*
X00033083Y00018412D01*
X00033099Y00018430D01*
X00033117Y00018447D01*
X00033135Y00018462D01*
X00033154Y00018476D01*
X00033174Y00018490D01*
X00033195Y00018502D01*
X00033217Y00018512D01*
X00033239Y00018521D01*
X00033262Y00018529D01*
X00033285Y00018536D01*
X00033308Y00018541D01*
X00033332Y00018545D01*
X00033356Y00018547D01*
X00033380Y00018548D01*
X00036093Y00018548D01*
X00036176Y00018550D01*
X00036259Y00018556D01*
X00036342Y00018566D01*
X00036424Y00018580D01*
X00036506Y00018597D01*
X00036586Y00018619D01*
X00036665Y00018644D01*
X00036743Y00018673D01*
X00036820Y00018706D01*
X00036895Y00018743D01*
X00036968Y00018782D01*
X00037039Y00018826D01*
X00037108Y00018872D01*
X00037175Y00018922D01*
X00037239Y00018975D01*
X00037301Y00019031D01*
X00037360Y00019090D01*
X00037416Y00019152D01*
X00037469Y00019216D01*
X00037519Y00019283D01*
X00037565Y00019352D01*
X00037609Y00019423D01*
X00037648Y00019496D01*
X00037685Y00019571D01*
X00037718Y00019648D01*
X00037747Y00019726D01*
X00037772Y00019805D01*
X00037794Y00019885D01*
X00037811Y00019967D01*
X00037825Y00020049D01*
X00037835Y00020132D01*
X00037841Y00020215D01*
X00037843Y00020298D01*
X00037843Y00036298D01*
X00037841Y00036381D01*
X00037835Y00036464D01*
X00037825Y00036547D01*
X00037811Y00036629D01*
X00037794Y00036711D01*
X00037772Y00036791D01*
X00037747Y00036870D01*
X00037718Y00036948D01*
X00037685Y00037025D01*
X00037648Y00037100D01*
X00037609Y00037173D01*
X00037565Y00037244D01*
X00037519Y00037313D01*
X00037469Y00037380D01*
X00037416Y00037444D01*
X00037360Y00037506D01*
X00037301Y00037565D01*
X00037239Y00037621D01*
X00037175Y00037674D01*
X00037108Y00037724D01*
X00037039Y00037770D01*
X00036968Y00037814D01*
X00036895Y00037853D01*
X00036820Y00037890D01*
X00036743Y00037923D01*
X00036665Y00037952D01*
X00036586Y00037977D01*
X00036506Y00037999D01*
X00036424Y00038016D01*
X00036342Y00038030D01*
X00036259Y00038040D01*
X00036176Y00038046D01*
X00036093Y00038048D01*
X00001843Y00038048D01*
X00001760Y00038046D01*
X00001677Y00038040D01*
X00001594Y00038030D01*
X00001512Y00038016D01*
X00001430Y00037999D01*
X00001350Y00037977D01*
X00001271Y00037952D01*
X00001193Y00037923D01*
X00001116Y00037890D01*
X00001041Y00037853D01*
X00000968Y00037814D01*
X00000897Y00037770D01*
X00000828Y00037724D01*
X00000761Y00037674D01*
X00000697Y00037621D01*
X00000635Y00037565D01*
X00000576Y00037506D01*
X00000520Y00037444D01*
X00000467Y00037380D01*
X00000417Y00037313D01*
X00000371Y00037244D01*
X00000327Y00037173D01*
X00000288Y00037100D01*
X00000251Y00037025D01*
X00000218Y00036948D01*
X00000189Y00036870D01*
X00000164Y00036791D01*
X00000142Y00036711D01*
X00000125Y00036629D01*
X00000111Y00036547D01*
X00000101Y00036464D01*
X00000095Y00036381D01*
X00000093Y00036298D01*
X00000093Y00020298D01*
X00000095Y00020215D01*
X00000101Y00020132D01*
X00000111Y00020049D01*
X00000125Y00019967D01*
X00000142Y00019885D01*
X00000164Y00019805D01*
X00000189Y00019726D01*
X00000218Y00019648D01*
X00000251Y00019571D01*
X00000288Y00019496D01*
X00000327Y00019423D01*
X00000371Y00019352D01*
X00000417Y00019283D01*
X00000467Y00019216D01*
X00000520Y00019152D01*
X00000576Y00019090D01*
X00000635Y00019031D01*
X00000697Y00018975D01*
X00000761Y00018922D01*
X00000828Y00018872D01*
X00000897Y00018826D01*
X00000968Y00018782D01*
X00001041Y00018743D01*
X00001116Y00018706D01*
X00001193Y00018673D01*
X00001271Y00018644D01*
X00001350Y00018619D01*
X00001430Y00018597D01*
X00001512Y00018580D01*
X00001594Y00018566D01*
X00001677Y00018556D01*
X00001760Y00018550D01*
X00001843Y00018548D01*
X00006777Y00018548D01*
X00006801Y00018547D01*
X00006824Y00018545D01*
X00006848Y00018541D01*
X00006872Y00018536D01*
X00006895Y00018529D01*
X00006917Y00018521D01*
X00006940Y00018512D01*
X00006961Y00018502D01*
X00006982Y00018490D01*
X00007002Y00018476D01*
X00007021Y00018462D01*
X00007040Y00018447D01*
X00007057Y00018430D01*
X00007073Y00018412D01*
X00007089Y00018394D01*
X00007103Y00018374D01*
X00007115Y00018354D01*
X00007127Y00018333D01*
X00007137Y00018311D01*
X00007146Y00018289D01*
X00007255Y00017992D01*
X00007266Y00017956D01*
X00007274Y00017919D01*
X00007278Y00017881D01*
X00007279Y00017843D01*
X00007276Y00017806D01*
X00007269Y00017769D01*
X00007259Y00017732D01*
X00007245Y00017697D01*
X00007228Y00017663D01*
X00007208Y00017631D01*
X00007185Y00017601D01*
X00007159Y00017574D01*
X00007130Y00017549D01*
X00007100Y00017527D01*
X00007067Y00017508D01*
X00007033Y00017492D01*
X00006997Y00017479D01*
X00006960Y00017470D01*
X00006923Y00017465D01*
X00006885Y00017463D01*
X00001845Y00017463D01*
X00031186Y00018548D02*
X00031186Y00018548D01*
X00031210Y00018547D01*
X00031234Y00018545D01*
X00031258Y00018541D01*
X00031281Y00018536D01*
X00031304Y00018529D01*
X00031327Y00018521D01*
X00031349Y00018512D01*
X00031371Y00018502D01*
X00031391Y00018490D01*
X00031412Y00018476D01*
X00031431Y00018462D01*
X00031449Y00018447D01*
X00031467Y00018430D01*
X00031483Y00018412D01*
X00031498Y00018394D01*
X00031512Y00018374D01*
X00031525Y00018354D01*
X00031537Y00018333D01*
X00031547Y00018311D01*
X00031556Y00018289D01*
X00031664Y00017992D01*
X00031676Y00017956D01*
X00031683Y00017919D01*
X00031688Y00017881D01*
X00031688Y00017843D01*
X00031685Y00017806D01*
X00031678Y00017769D01*
X00031668Y00017732D01*
X00031654Y00017697D01*
X00031637Y00017663D01*
X00031617Y00017631D01*
X00031594Y00017601D01*
X00031568Y00017574D01*
X00031540Y00017549D01*
X00031509Y00017527D01*
X00031477Y00017508D01*
X00031442Y00017492D01*
X00031407Y00017479D01*
X00031370Y00017470D01*
X00031332Y00017465D01*
X00031295Y00017463D01*
X00020673Y00017463D01*
X00020635Y00017465D01*
X00020598Y00017470D01*
X00020561Y00017479D01*
X00020525Y00017492D01*
X00020491Y00017508D01*
X00020458Y00017527D01*
X00020428Y00017549D01*
X00020399Y00017574D01*
X00020373Y00017601D01*
X00020350Y00017631D01*
X00020330Y00017663D01*
X00020313Y00017697D01*
X00020299Y00017732D01*
X00020289Y00017769D01*
X00020282Y00017806D01*
X00020279Y00017843D01*
X00020280Y00017881D01*
X00020284Y00017919D01*
X00020292Y00017956D01*
X00020303Y00017992D01*
X00020412Y00018289D01*
X00020421Y00018311D01*
X00020431Y00018333D01*
X00020443Y00018354D01*
X00020455Y00018374D01*
X00020469Y00018394D01*
X00020485Y00018412D01*
X00020501Y00018430D01*
X00020518Y00018447D01*
X00020537Y00018462D01*
X00020556Y00018476D01*
X00020576Y00018490D01*
X00020597Y00018502D01*
X00020618Y00018512D01*
X00020641Y00018521D01*
X00020663Y00018529D01*
X00020686Y00018536D01*
X00020710Y00018541D01*
X00020734Y00018545D01*
X00020758Y00018547D01*
X00020782Y00018548D01*
X00031186Y00018548D01*
X00008862Y00017463D02*
X00008862Y00017463D01*
X00008824Y00017465D01*
X00008787Y00017470D01*
X00008750Y00017479D01*
X00008714Y00017492D01*
X00008680Y00017508D01*
X00008647Y00017527D01*
X00008617Y00017549D01*
X00008588Y00017574D01*
X00008562Y00017601D01*
X00008539Y00017631D01*
X00008519Y00017663D01*
X00008502Y00017697D01*
X00008488Y00017732D01*
X00008478Y00017769D01*
X00008471Y00017806D01*
X00008468Y00017843D01*
X00008469Y00017881D01*
X00008473Y00017919D01*
X00008481Y00017956D01*
X00008492Y00017992D01*
X00008601Y00018289D01*
X00008610Y00018311D01*
X00008620Y00018333D01*
X00008632Y00018354D01*
X00008644Y00018374D01*
X00008658Y00018394D01*
X00008674Y00018412D01*
X00008690Y00018430D01*
X00008707Y00018447D01*
X00008726Y00018462D01*
X00008745Y00018476D01*
X00008765Y00018490D01*
X00008786Y00018502D01*
X00008807Y00018512D01*
X00008830Y00018521D01*
X00008852Y00018529D01*
X00008875Y00018536D01*
X00008899Y00018541D01*
X00008923Y00018545D01*
X00008946Y00018547D01*
X00008970Y00018548D01*
X00018588Y00018548D01*
X00018612Y00018547D01*
X00018635Y00018545D01*
X00018659Y00018541D01*
X00018683Y00018536D01*
X00018706Y00018529D01*
X00018728Y00018521D01*
X00018751Y00018512D01*
X00018772Y00018502D01*
X00018793Y00018490D01*
X00018813Y00018476D01*
X00018832Y00018462D01*
X00018851Y00018447D01*
X00018868Y00018430D01*
X00018884Y00018412D01*
X00018900Y00018394D01*
X00018914Y00018374D01*
X00018927Y00018354D01*
X00018938Y00018333D01*
X00018948Y00018311D01*
X00018957Y00018289D01*
X00019066Y00017992D01*
X00019077Y00017956D01*
X00019085Y00017919D01*
X00019089Y00017881D01*
X00019090Y00017843D01*
X00019087Y00017806D01*
X00019080Y00017769D01*
X00019070Y00017732D01*
X00019056Y00017697D01*
X00019039Y00017663D01*
X00019019Y00017631D01*
X00018996Y00017601D01*
X00018970Y00017574D01*
X00018941Y00017549D01*
X00018911Y00017527D01*
X00018878Y00017508D01*
X00018844Y00017492D01*
X00018808Y00017479D01*
X00018771Y00017470D01*
X00018734Y00017465D01*
X00018696Y00017463D01*
X00008862Y00017463D01*
M02*