%
M48
M72
T01C0.0197
T02C0.0236
T03C0.0276
T04C0.0315
T05C0.0320
T06C0.0350
T07C0.0354
T08C0.0380
T09C0.0394
T10C0.0400
T11C0.0433
T12C0.0470
T13C0.0550
T14C0.0551
T15C0.0710
T16C0.1024
T17C0.1102
T18C0.1260
%
T01
X34512Y22499
X17887Y37249
X4137Y32124
X3262Y31874
T02
X23887Y26749
X21887Y29249
X21387Y31249
X19887Y30249
X18387Y29749
X17387Y28749
X17887Y27749
X18387Y33749
X19387Y32249
X18887Y31749
X20887Y34249
X22887Y32874
X23387Y32749
X24387Y33249
X24887Y32874
X30387Y35249
X30887Y35749
X30387Y34249
X30887Y26249
X26387Y16249
X25387Y15249
T03
X5262Y20624
X5762Y20624
X6262Y20624
X6762Y20624
X20762Y20624
X21262Y20624
X21762Y20624
X22262Y20624
X22262Y21374
X21762Y21374
X21262Y21374
X20762Y21374
X6762Y21374
X6262Y21374
X5762Y21374
X5262Y21374
X2887Y9174
X2887Y10749
X2887Y11537
X2887Y12324
X13718Y28578
X13718Y29365
X13718Y30153
X13718Y30940
X13718Y31727
X13718Y32515
X13718Y33302
X13718Y34090
X13718Y34877
X13718Y35664
X5056Y35664
X5056Y34877
X5056Y34090
X5056Y33302
X5056Y32515
X5056Y31727
X5056Y30940
X5056Y30153
X5056Y29365
X5056Y28578
X20639Y37999
X21387Y37999
X22174Y37999
X34762Y20624
X34762Y21374
X35262Y21374
X35762Y21374
X36262Y21374
X36262Y20624
X35762Y20624
X35262Y20624
T04
X16156Y26124
X15368Y26124
T05
X6387Y22999
X7387Y22999
X4387Y16249
X4387Y12249
X4387Y9749
X12387Y11249
X12387Y10249
X4387Y5749
X12387Y4749
X12387Y3749
X18387Y3249
X18387Y2249
X18387Y4249
X22387Y4249
X22387Y3249
X22387Y2249
X34887Y4749
X34887Y3749
X34887Y11249
X34887Y10249
X35387Y22999
X36387Y22999
X31387Y22999
X30387Y22999
X22387Y19249
X22387Y18249
X22387Y17249
X18387Y17249
X18387Y18249
X18387Y19249
X13887Y26124
X13887Y27249
X9887Y27249
X8887Y27249
X8887Y26124
X9887Y26124
X11387Y22999
X12387Y22999
X12387Y17749
X12387Y16749
X4887Y26124
X4887Y27249
X3762Y27249
X2762Y27249
X2762Y29749
X3762Y29749
X3762Y34374
X2762Y34374
X36887Y33749
X37887Y31749
X38637Y31249
X38637Y32249
X39887Y33749
X39887Y29749
X36887Y29749
X34887Y17749
X34887Y16749
T06
X19387Y14749
X20387Y14749
X21387Y14749
X24387Y11749
X24387Y10749
X24387Y9749
T07
X34387Y26249
X24887Y35499
X23887Y35499
X22887Y35499
X21887Y35499
X20887Y35499
X19887Y35499
X18887Y35499
X17887Y35499
X34387Y36249
T08
X29387Y25249
X30387Y25249
X31387Y25249
X32387Y25249
X33387Y25249
X34387Y25249
X35387Y25249
X35387Y26249
X35387Y27249
X35387Y28249
X35387Y29249
X35387Y30249
X35387Y31249
X35387Y32249
X35387Y33249
X35387Y34249
X34387Y34249
X34387Y33249
X34387Y35249
X35387Y35249
X35387Y36249
X35387Y37249
X35387Y38249
X34387Y37249
X29387Y37249
X29387Y38249
X29387Y36249
X29387Y35249
X29387Y34249
X29387Y33249
X29387Y32249
X29387Y31249
X29387Y30249
X29387Y29249
X29387Y28249
X29387Y27249
X29387Y26249
T09
X37403Y27249
X39371Y27249
X38887Y34249
X37887Y34249
T10
X22387Y24999
X23387Y24999
X23387Y25999
X22387Y25999
X21387Y25999
X21387Y24999
X20387Y24999
X19387Y24999
X19387Y25999
X20387Y25999
X18387Y25999
X18387Y24999
X17387Y24999
X17387Y25999
X24387Y25999
X24387Y24999
X25387Y24999
X25387Y25999
X36887Y6749
X36887Y7749
X37887Y7749
X37887Y6749
X37887Y8749
X37887Y9749
X36887Y9749
X36887Y8749
X36887Y10749
X36887Y11749
X37887Y11749
X37887Y10749
X37887Y12749
X37887Y13749
X36887Y13749
X36887Y12749
X36887Y14749
X37887Y14749
T11
X19137Y5977
X19137Y7749
X21637Y7749
X21637Y5977
T12
X8934Y19682
X10320Y18296
X6841Y14817
X6841Y13182
X5455Y11796
X6841Y6682
X5455Y5296
X8934Y1817
X10320Y3203
X8934Y8317
X10320Y9703
X5455Y16203
X29341Y19682
X27955Y18296
X31434Y14817
X32820Y16203
X29341Y13182
X27955Y11796
X31434Y8317
X32820Y9703
X29341Y6682
X27955Y5296
X31434Y1817
X32820Y3203
T13
X17387Y8124
X17387Y13374
X23387Y13374
X23387Y8124
T14
X2887Y7659
X23277Y37999
X19497Y37999
X2887Y13840
T15
X6635Y18501
X9139Y15998
X9139Y12001
X6635Y9498
X9139Y5501
X6635Y2998
X31639Y18501
X29135Y15998
X31639Y12001
X29135Y9498
X31639Y5501
X29135Y2998
T16
X27096Y23885
X27096Y35499
X15678Y35499
X15678Y23885
T17
X12887Y37749
X5887Y37749
X9387Y24999
T18
X3637Y2749
X37887Y2749
X37887Y18749
X39137Y23249
X39137Y37249
X3637Y37249
X3637Y23249
X3637Y18749
M30
