G75*
G70*
%OFA0B0*%
%FSLAX24Y24*%
%IPPOS*%
%LPD*%
%AMOC8*
5,1,8,0,0,1.08239X$1,22.5*
%
%ADD10C,0.0000*%
%ADD11C,0.1182*%
%ADD12C,0.0356*%
%ADD13C,0.0001*%
%ADD14C,0.0640*%
%ADD15R,0.0640X0.0640*%
%ADD16C,0.0660*%
%ADD17OC8,0.0600*%
%ADD18C,0.0740*%
%ADD19C,0.1104*%
%ADD20OC8,0.0710*%
%ADD21C,0.0710*%
%ADD22C,0.1340*%
%ADD23C,0.1080*%
%ADD24C,0.0060*%
%ADD25OC8,0.0680*%
%ADD26C,0.0674*%
%ADD27C,0.0780*%
%ADD28C,0.0780*%
%ADD29C,0.0785*%
%ADD30C,0.0790*%
%ADD31C,0.0611*%
D10*
X001887Y002749D02*
X001887Y018749D01*
X003007Y018749D02*
X003009Y018799D01*
X003015Y018849D01*
X003025Y018898D01*
X003039Y018946D01*
X003056Y018993D01*
X003077Y019038D01*
X003102Y019082D01*
X003130Y019123D01*
X003162Y019162D01*
X003196Y019199D01*
X003233Y019233D01*
X003273Y019263D01*
X003315Y019290D01*
X003359Y019314D01*
X003405Y019335D01*
X003452Y019351D01*
X003500Y019364D01*
X003550Y019373D01*
X003599Y019378D01*
X003650Y019379D01*
X003700Y019376D01*
X003749Y019369D01*
X003798Y019358D01*
X003846Y019343D01*
X003892Y019325D01*
X003937Y019303D01*
X003980Y019277D01*
X004021Y019248D01*
X004060Y019216D01*
X004096Y019181D01*
X004128Y019143D01*
X004158Y019103D01*
X004185Y019060D01*
X004208Y019016D01*
X004227Y018970D01*
X004243Y018922D01*
X004255Y018873D01*
X004263Y018824D01*
X004267Y018774D01*
X004267Y018724D01*
X004263Y018674D01*
X004255Y018625D01*
X004243Y018576D01*
X004227Y018528D01*
X004208Y018482D01*
X004185Y018438D01*
X004158Y018395D01*
X004128Y018355D01*
X004096Y018317D01*
X004060Y018282D01*
X004021Y018250D01*
X003980Y018221D01*
X003937Y018195D01*
X003892Y018173D01*
X003846Y018155D01*
X003798Y018140D01*
X003749Y018129D01*
X003700Y018122D01*
X003650Y018119D01*
X003599Y018120D01*
X003550Y018125D01*
X003500Y018134D01*
X003452Y018147D01*
X003405Y018163D01*
X003359Y018184D01*
X003315Y018208D01*
X003273Y018235D01*
X003233Y018265D01*
X003196Y018299D01*
X003162Y018336D01*
X003130Y018375D01*
X003102Y018416D01*
X003077Y018460D01*
X003056Y018505D01*
X003039Y018552D01*
X003025Y018600D01*
X003015Y018649D01*
X003009Y018699D01*
X003007Y018749D01*
X001887Y018749D02*
X001889Y018832D01*
X001895Y018915D01*
X001905Y018998D01*
X001919Y019080D01*
X001936Y019162D01*
X001958Y019242D01*
X001983Y019321D01*
X002012Y019399D01*
X002045Y019476D01*
X002082Y019551D01*
X002121Y019624D01*
X002165Y019695D01*
X002211Y019764D01*
X002261Y019831D01*
X002314Y019895D01*
X002370Y019957D01*
X002429Y020016D01*
X002491Y020072D01*
X002555Y020125D01*
X002622Y020175D01*
X002691Y020221D01*
X002762Y020265D01*
X002835Y020304D01*
X002910Y020341D01*
X002987Y020374D01*
X003065Y020403D01*
X003144Y020428D01*
X003224Y020450D01*
X003306Y020467D01*
X003388Y020481D01*
X003471Y020491D01*
X003554Y020497D01*
X003637Y020499D01*
X004637Y020499D01*
X004637Y021499D01*
X007387Y021499D01*
X020137Y021499D01*
X020137Y020499D01*
X022887Y020499D01*
X022887Y021499D01*
X020137Y021499D01*
X020637Y020999D02*
X020635Y020955D01*
X020629Y020912D01*
X020620Y020870D01*
X020607Y020828D01*
X020590Y020788D01*
X020570Y020749D01*
X020547Y020712D01*
X020520Y020678D01*
X020491Y020645D01*
X020458Y020616D01*
X020424Y020589D01*
X020387Y020566D01*
X020348Y020546D01*
X020308Y020529D01*
X020266Y020516D01*
X020224Y020507D01*
X020181Y020501D01*
X020137Y020499D01*
X007387Y020499D01*
X004637Y020499D01*
X004681Y020501D01*
X004724Y020507D01*
X004766Y020516D01*
X004808Y020529D01*
X004848Y020546D01*
X004887Y020566D01*
X004924Y020589D01*
X004958Y020616D01*
X004991Y020645D01*
X005020Y020678D01*
X005047Y020712D01*
X005070Y020749D01*
X005090Y020788D01*
X005107Y020828D01*
X005120Y020870D01*
X005129Y020912D01*
X005135Y020955D01*
X005137Y020999D01*
X005124Y020624D02*
X005126Y020647D01*
X005132Y020670D01*
X005142Y020691D01*
X005155Y020711D01*
X005171Y020728D01*
X005190Y020742D01*
X005211Y020752D01*
X005233Y020759D01*
X005256Y020762D01*
X005280Y020761D01*
X005302Y020756D01*
X005324Y020747D01*
X005344Y020735D01*
X005362Y020719D01*
X005376Y020701D01*
X005388Y020681D01*
X005396Y020659D01*
X005400Y020636D01*
X005400Y020612D01*
X005396Y020589D01*
X005388Y020567D01*
X005376Y020547D01*
X005362Y020529D01*
X005344Y020513D01*
X005324Y020501D01*
X005302Y020492D01*
X005280Y020487D01*
X005256Y020486D01*
X005233Y020489D01*
X005211Y020496D01*
X005190Y020506D01*
X005171Y020520D01*
X005155Y020537D01*
X005142Y020557D01*
X005132Y020578D01*
X005126Y020601D01*
X005124Y020624D01*
X005137Y020999D02*
X005135Y021043D01*
X005129Y021086D01*
X005120Y021128D01*
X005107Y021170D01*
X005090Y021210D01*
X005070Y021249D01*
X005047Y021286D01*
X005020Y021320D01*
X004991Y021353D01*
X004958Y021382D01*
X004924Y021409D01*
X004887Y021432D01*
X004848Y021452D01*
X004808Y021469D01*
X004766Y021482D01*
X004724Y021491D01*
X004681Y021497D01*
X004637Y021499D01*
X003637Y021499D01*
X005124Y021374D02*
X005126Y021397D01*
X005132Y021420D01*
X005142Y021441D01*
X005155Y021461D01*
X005171Y021478D01*
X005190Y021492D01*
X005211Y021502D01*
X005233Y021509D01*
X005256Y021512D01*
X005280Y021511D01*
X005302Y021506D01*
X005324Y021497D01*
X005344Y021485D01*
X005362Y021469D01*
X005376Y021451D01*
X005388Y021431D01*
X005396Y021409D01*
X005400Y021386D01*
X005400Y021362D01*
X005396Y021339D01*
X005388Y021317D01*
X005376Y021297D01*
X005362Y021279D01*
X005344Y021263D01*
X005324Y021251D01*
X005302Y021242D01*
X005280Y021237D01*
X005256Y021236D01*
X005233Y021239D01*
X005211Y021246D01*
X005190Y021256D01*
X005171Y021270D01*
X005155Y021287D01*
X005142Y021307D01*
X005132Y021328D01*
X005126Y021351D01*
X005124Y021374D01*
X005624Y021374D02*
X005626Y021397D01*
X005632Y021420D01*
X005642Y021441D01*
X005655Y021461D01*
X005671Y021478D01*
X005690Y021492D01*
X005711Y021502D01*
X005733Y021509D01*
X005756Y021512D01*
X005780Y021511D01*
X005802Y021506D01*
X005824Y021497D01*
X005844Y021485D01*
X005862Y021469D01*
X005876Y021451D01*
X005888Y021431D01*
X005896Y021409D01*
X005900Y021386D01*
X005900Y021362D01*
X005896Y021339D01*
X005888Y021317D01*
X005876Y021297D01*
X005862Y021279D01*
X005844Y021263D01*
X005824Y021251D01*
X005802Y021242D01*
X005780Y021237D01*
X005756Y021236D01*
X005733Y021239D01*
X005711Y021246D01*
X005690Y021256D01*
X005671Y021270D01*
X005655Y021287D01*
X005642Y021307D01*
X005632Y021328D01*
X005626Y021351D01*
X005624Y021374D01*
X006124Y021374D02*
X006126Y021397D01*
X006132Y021420D01*
X006142Y021441D01*
X006155Y021461D01*
X006171Y021478D01*
X006190Y021492D01*
X006211Y021502D01*
X006233Y021509D01*
X006256Y021512D01*
X006280Y021511D01*
X006302Y021506D01*
X006324Y021497D01*
X006344Y021485D01*
X006362Y021469D01*
X006376Y021451D01*
X006388Y021431D01*
X006396Y021409D01*
X006400Y021386D01*
X006400Y021362D01*
X006396Y021339D01*
X006388Y021317D01*
X006376Y021297D01*
X006362Y021279D01*
X006344Y021263D01*
X006324Y021251D01*
X006302Y021242D01*
X006280Y021237D01*
X006256Y021236D01*
X006233Y021239D01*
X006211Y021246D01*
X006190Y021256D01*
X006171Y021270D01*
X006155Y021287D01*
X006142Y021307D01*
X006132Y021328D01*
X006126Y021351D01*
X006124Y021374D01*
X006624Y021374D02*
X006626Y021397D01*
X006632Y021420D01*
X006642Y021441D01*
X006655Y021461D01*
X006671Y021478D01*
X006690Y021492D01*
X006711Y021502D01*
X006733Y021509D01*
X006756Y021512D01*
X006780Y021511D01*
X006802Y021506D01*
X006824Y021497D01*
X006844Y021485D01*
X006862Y021469D01*
X006876Y021451D01*
X006888Y021431D01*
X006896Y021409D01*
X006900Y021386D01*
X006900Y021362D01*
X006896Y021339D01*
X006888Y021317D01*
X006876Y021297D01*
X006862Y021279D01*
X006844Y021263D01*
X006824Y021251D01*
X006802Y021242D01*
X006780Y021237D01*
X006756Y021236D01*
X006733Y021239D01*
X006711Y021246D01*
X006690Y021256D01*
X006671Y021270D01*
X006655Y021287D01*
X006642Y021307D01*
X006632Y021328D01*
X006626Y021351D01*
X006624Y021374D01*
X006624Y020624D02*
X006626Y020647D01*
X006632Y020670D01*
X006642Y020691D01*
X006655Y020711D01*
X006671Y020728D01*
X006690Y020742D01*
X006711Y020752D01*
X006733Y020759D01*
X006756Y020762D01*
X006780Y020761D01*
X006802Y020756D01*
X006824Y020747D01*
X006844Y020735D01*
X006862Y020719D01*
X006876Y020701D01*
X006888Y020681D01*
X006896Y020659D01*
X006900Y020636D01*
X006900Y020612D01*
X006896Y020589D01*
X006888Y020567D01*
X006876Y020547D01*
X006862Y020529D01*
X006844Y020513D01*
X006824Y020501D01*
X006802Y020492D01*
X006780Y020487D01*
X006756Y020486D01*
X006733Y020489D01*
X006711Y020496D01*
X006690Y020506D01*
X006671Y020520D01*
X006655Y020537D01*
X006642Y020557D01*
X006632Y020578D01*
X006626Y020601D01*
X006624Y020624D01*
X006124Y020624D02*
X006126Y020647D01*
X006132Y020670D01*
X006142Y020691D01*
X006155Y020711D01*
X006171Y020728D01*
X006190Y020742D01*
X006211Y020752D01*
X006233Y020759D01*
X006256Y020762D01*
X006280Y020761D01*
X006302Y020756D01*
X006324Y020747D01*
X006344Y020735D01*
X006362Y020719D01*
X006376Y020701D01*
X006388Y020681D01*
X006396Y020659D01*
X006400Y020636D01*
X006400Y020612D01*
X006396Y020589D01*
X006388Y020567D01*
X006376Y020547D01*
X006362Y020529D01*
X006344Y020513D01*
X006324Y020501D01*
X006302Y020492D01*
X006280Y020487D01*
X006256Y020486D01*
X006233Y020489D01*
X006211Y020496D01*
X006190Y020506D01*
X006171Y020520D01*
X006155Y020537D01*
X006142Y020557D01*
X006132Y020578D01*
X006126Y020601D01*
X006124Y020624D01*
X005624Y020624D02*
X005626Y020647D01*
X005632Y020670D01*
X005642Y020691D01*
X005655Y020711D01*
X005671Y020728D01*
X005690Y020742D01*
X005711Y020752D01*
X005733Y020759D01*
X005756Y020762D01*
X005780Y020761D01*
X005802Y020756D01*
X005824Y020747D01*
X005844Y020735D01*
X005862Y020719D01*
X005876Y020701D01*
X005888Y020681D01*
X005896Y020659D01*
X005900Y020636D01*
X005900Y020612D01*
X005896Y020589D01*
X005888Y020567D01*
X005876Y020547D01*
X005862Y020529D01*
X005844Y020513D01*
X005824Y020501D01*
X005802Y020492D01*
X005780Y020487D01*
X005756Y020486D01*
X005733Y020489D01*
X005711Y020496D01*
X005690Y020506D01*
X005671Y020520D01*
X005655Y020537D01*
X005642Y020557D01*
X005632Y020578D01*
X005626Y020601D01*
X005624Y020624D01*
X007387Y020499D02*
X007387Y021499D01*
X006887Y020999D02*
X006889Y020955D01*
X006895Y020912D01*
X006904Y020870D01*
X006917Y020828D01*
X006934Y020788D01*
X006954Y020749D01*
X006977Y020712D01*
X007004Y020678D01*
X007033Y020645D01*
X007066Y020616D01*
X007100Y020589D01*
X007137Y020566D01*
X007176Y020546D01*
X007216Y020529D01*
X007258Y020516D01*
X007300Y020507D01*
X007343Y020501D01*
X007387Y020499D01*
X006887Y020999D02*
X006889Y021043D01*
X006895Y021086D01*
X006904Y021128D01*
X006917Y021170D01*
X006934Y021210D01*
X006954Y021249D01*
X006977Y021286D01*
X007004Y021320D01*
X007033Y021353D01*
X007066Y021382D01*
X007100Y021409D01*
X007137Y021432D01*
X007176Y021452D01*
X007216Y021469D01*
X007258Y021482D01*
X007300Y021491D01*
X007343Y021497D01*
X007387Y021499D01*
X006280Y018501D02*
X006282Y018538D01*
X006288Y018575D01*
X006297Y018611D01*
X006311Y018645D01*
X006328Y018678D01*
X006348Y018710D01*
X006371Y018739D01*
X006397Y018765D01*
X006426Y018788D01*
X006457Y018808D01*
X006491Y018825D01*
X006525Y018839D01*
X006561Y018848D01*
X006598Y018854D01*
X006635Y018856D01*
X006672Y018854D01*
X006709Y018848D01*
X006745Y018839D01*
X006779Y018825D01*
X006812Y018808D01*
X006844Y018788D01*
X006873Y018765D01*
X006899Y018739D01*
X006922Y018710D01*
X006942Y018679D01*
X006959Y018645D01*
X006973Y018611D01*
X006982Y018575D01*
X006988Y018538D01*
X006990Y018501D01*
X006988Y018464D01*
X006982Y018427D01*
X006973Y018391D01*
X006959Y018357D01*
X006942Y018324D01*
X006922Y018292D01*
X006899Y018263D01*
X006873Y018237D01*
X006844Y018214D01*
X006813Y018194D01*
X006779Y018177D01*
X006745Y018163D01*
X006709Y018154D01*
X006672Y018148D01*
X006635Y018146D01*
X006598Y018148D01*
X006561Y018154D01*
X006525Y018163D01*
X006491Y018177D01*
X006458Y018194D01*
X006426Y018214D01*
X006397Y018237D01*
X006371Y018263D01*
X006348Y018292D01*
X006328Y018323D01*
X006311Y018357D01*
X006297Y018391D01*
X006288Y018427D01*
X006282Y018464D01*
X006280Y018501D01*
X008784Y015998D02*
X008786Y016035D01*
X008792Y016072D01*
X008801Y016108D01*
X008815Y016142D01*
X008832Y016175D01*
X008852Y016207D01*
X008875Y016236D01*
X008901Y016262D01*
X008930Y016285D01*
X008961Y016305D01*
X008995Y016322D01*
X009029Y016336D01*
X009065Y016345D01*
X009102Y016351D01*
X009139Y016353D01*
X009176Y016351D01*
X009213Y016345D01*
X009249Y016336D01*
X009283Y016322D01*
X009316Y016305D01*
X009348Y016285D01*
X009377Y016262D01*
X009403Y016236D01*
X009426Y016207D01*
X009446Y016176D01*
X009463Y016142D01*
X009477Y016108D01*
X009486Y016072D01*
X009492Y016035D01*
X009494Y015998D01*
X009492Y015961D01*
X009486Y015924D01*
X009477Y015888D01*
X009463Y015854D01*
X009446Y015821D01*
X009426Y015789D01*
X009403Y015760D01*
X009377Y015734D01*
X009348Y015711D01*
X009317Y015691D01*
X009283Y015674D01*
X009249Y015660D01*
X009213Y015651D01*
X009176Y015645D01*
X009139Y015643D01*
X009102Y015645D01*
X009065Y015651D01*
X009029Y015660D01*
X008995Y015674D01*
X008962Y015691D01*
X008930Y015711D01*
X008901Y015734D01*
X008875Y015760D01*
X008852Y015789D01*
X008832Y015820D01*
X008815Y015854D01*
X008801Y015888D01*
X008792Y015924D01*
X008786Y015961D01*
X008784Y015998D01*
X008784Y012001D02*
X008786Y012038D01*
X008792Y012075D01*
X008801Y012111D01*
X008815Y012145D01*
X008832Y012178D01*
X008852Y012210D01*
X008875Y012239D01*
X008901Y012265D01*
X008930Y012288D01*
X008961Y012308D01*
X008995Y012325D01*
X009029Y012339D01*
X009065Y012348D01*
X009102Y012354D01*
X009139Y012356D01*
X009176Y012354D01*
X009213Y012348D01*
X009249Y012339D01*
X009283Y012325D01*
X009316Y012308D01*
X009348Y012288D01*
X009377Y012265D01*
X009403Y012239D01*
X009426Y012210D01*
X009446Y012179D01*
X009463Y012145D01*
X009477Y012111D01*
X009486Y012075D01*
X009492Y012038D01*
X009494Y012001D01*
X009492Y011964D01*
X009486Y011927D01*
X009477Y011891D01*
X009463Y011857D01*
X009446Y011824D01*
X009426Y011792D01*
X009403Y011763D01*
X009377Y011737D01*
X009348Y011714D01*
X009317Y011694D01*
X009283Y011677D01*
X009249Y011663D01*
X009213Y011654D01*
X009176Y011648D01*
X009139Y011646D01*
X009102Y011648D01*
X009065Y011654D01*
X009029Y011663D01*
X008995Y011677D01*
X008962Y011694D01*
X008930Y011714D01*
X008901Y011737D01*
X008875Y011763D01*
X008852Y011792D01*
X008832Y011823D01*
X008815Y011857D01*
X008801Y011891D01*
X008792Y011927D01*
X008786Y011964D01*
X008784Y012001D01*
X006280Y009498D02*
X006282Y009535D01*
X006288Y009572D01*
X006297Y009608D01*
X006311Y009642D01*
X006328Y009675D01*
X006348Y009707D01*
X006371Y009736D01*
X006397Y009762D01*
X006426Y009785D01*
X006457Y009805D01*
X006491Y009822D01*
X006525Y009836D01*
X006561Y009845D01*
X006598Y009851D01*
X006635Y009853D01*
X006672Y009851D01*
X006709Y009845D01*
X006745Y009836D01*
X006779Y009822D01*
X006812Y009805D01*
X006844Y009785D01*
X006873Y009762D01*
X006899Y009736D01*
X006922Y009707D01*
X006942Y009676D01*
X006959Y009642D01*
X006973Y009608D01*
X006982Y009572D01*
X006988Y009535D01*
X006990Y009498D01*
X006988Y009461D01*
X006982Y009424D01*
X006973Y009388D01*
X006959Y009354D01*
X006942Y009321D01*
X006922Y009289D01*
X006899Y009260D01*
X006873Y009234D01*
X006844Y009211D01*
X006813Y009191D01*
X006779Y009174D01*
X006745Y009160D01*
X006709Y009151D01*
X006672Y009145D01*
X006635Y009143D01*
X006598Y009145D01*
X006561Y009151D01*
X006525Y009160D01*
X006491Y009174D01*
X006458Y009191D01*
X006426Y009211D01*
X006397Y009234D01*
X006371Y009260D01*
X006348Y009289D01*
X006328Y009320D01*
X006311Y009354D01*
X006297Y009388D01*
X006288Y009424D01*
X006282Y009461D01*
X006280Y009498D01*
X008784Y005501D02*
X008786Y005538D01*
X008792Y005575D01*
X008801Y005611D01*
X008815Y005645D01*
X008832Y005678D01*
X008852Y005710D01*
X008875Y005739D01*
X008901Y005765D01*
X008930Y005788D01*
X008961Y005808D01*
X008995Y005825D01*
X009029Y005839D01*
X009065Y005848D01*
X009102Y005854D01*
X009139Y005856D01*
X009176Y005854D01*
X009213Y005848D01*
X009249Y005839D01*
X009283Y005825D01*
X009316Y005808D01*
X009348Y005788D01*
X009377Y005765D01*
X009403Y005739D01*
X009426Y005710D01*
X009446Y005679D01*
X009463Y005645D01*
X009477Y005611D01*
X009486Y005575D01*
X009492Y005538D01*
X009494Y005501D01*
X009492Y005464D01*
X009486Y005427D01*
X009477Y005391D01*
X009463Y005357D01*
X009446Y005324D01*
X009426Y005292D01*
X009403Y005263D01*
X009377Y005237D01*
X009348Y005214D01*
X009317Y005194D01*
X009283Y005177D01*
X009249Y005163D01*
X009213Y005154D01*
X009176Y005148D01*
X009139Y005146D01*
X009102Y005148D01*
X009065Y005154D01*
X009029Y005163D01*
X008995Y005177D01*
X008962Y005194D01*
X008930Y005214D01*
X008901Y005237D01*
X008875Y005263D01*
X008852Y005292D01*
X008832Y005323D01*
X008815Y005357D01*
X008801Y005391D01*
X008792Y005427D01*
X008786Y005464D01*
X008784Y005501D01*
X006280Y002998D02*
X006282Y003035D01*
X006288Y003072D01*
X006297Y003108D01*
X006311Y003142D01*
X006328Y003175D01*
X006348Y003207D01*
X006371Y003236D01*
X006397Y003262D01*
X006426Y003285D01*
X006457Y003305D01*
X006491Y003322D01*
X006525Y003336D01*
X006561Y003345D01*
X006598Y003351D01*
X006635Y003353D01*
X006672Y003351D01*
X006709Y003345D01*
X006745Y003336D01*
X006779Y003322D01*
X006812Y003305D01*
X006844Y003285D01*
X006873Y003262D01*
X006899Y003236D01*
X006922Y003207D01*
X006942Y003176D01*
X006959Y003142D01*
X006973Y003108D01*
X006982Y003072D01*
X006988Y003035D01*
X006990Y002998D01*
X006988Y002961D01*
X006982Y002924D01*
X006973Y002888D01*
X006959Y002854D01*
X006942Y002821D01*
X006922Y002789D01*
X006899Y002760D01*
X006873Y002734D01*
X006844Y002711D01*
X006813Y002691D01*
X006779Y002674D01*
X006745Y002660D01*
X006709Y002651D01*
X006672Y002645D01*
X006635Y002643D01*
X006598Y002645D01*
X006561Y002651D01*
X006525Y002660D01*
X006491Y002674D01*
X006458Y002691D01*
X006426Y002711D01*
X006397Y002734D01*
X006371Y002760D01*
X006348Y002789D01*
X006328Y002820D01*
X006311Y002854D01*
X006297Y002888D01*
X006288Y002924D01*
X006282Y002961D01*
X006280Y002998D01*
X003007Y002749D02*
X003009Y002799D01*
X003015Y002849D01*
X003025Y002898D01*
X003039Y002946D01*
X003056Y002993D01*
X003077Y003038D01*
X003102Y003082D01*
X003130Y003123D01*
X003162Y003162D01*
X003196Y003199D01*
X003233Y003233D01*
X003273Y003263D01*
X003315Y003290D01*
X003359Y003314D01*
X003405Y003335D01*
X003452Y003351D01*
X003500Y003364D01*
X003550Y003373D01*
X003599Y003378D01*
X003650Y003379D01*
X003700Y003376D01*
X003749Y003369D01*
X003798Y003358D01*
X003846Y003343D01*
X003892Y003325D01*
X003937Y003303D01*
X003980Y003277D01*
X004021Y003248D01*
X004060Y003216D01*
X004096Y003181D01*
X004128Y003143D01*
X004158Y003103D01*
X004185Y003060D01*
X004208Y003016D01*
X004227Y002970D01*
X004243Y002922D01*
X004255Y002873D01*
X004263Y002824D01*
X004267Y002774D01*
X004267Y002724D01*
X004263Y002674D01*
X004255Y002625D01*
X004243Y002576D01*
X004227Y002528D01*
X004208Y002482D01*
X004185Y002438D01*
X004158Y002395D01*
X004128Y002355D01*
X004096Y002317D01*
X004060Y002282D01*
X004021Y002250D01*
X003980Y002221D01*
X003937Y002195D01*
X003892Y002173D01*
X003846Y002155D01*
X003798Y002140D01*
X003749Y002129D01*
X003700Y002122D01*
X003650Y002119D01*
X003599Y002120D01*
X003550Y002125D01*
X003500Y002134D01*
X003452Y002147D01*
X003405Y002163D01*
X003359Y002184D01*
X003315Y002208D01*
X003273Y002235D01*
X003233Y002265D01*
X003196Y002299D01*
X003162Y002336D01*
X003130Y002375D01*
X003102Y002416D01*
X003077Y002460D01*
X003056Y002505D01*
X003039Y002552D01*
X003025Y002600D01*
X003015Y002649D01*
X003009Y002699D01*
X003007Y002749D01*
X001887Y002749D02*
X001889Y002666D01*
X001895Y002583D01*
X001905Y002500D01*
X001919Y002418D01*
X001936Y002336D01*
X001958Y002256D01*
X001983Y002177D01*
X002012Y002099D01*
X002045Y002022D01*
X002082Y001947D01*
X002121Y001874D01*
X002165Y001803D01*
X002211Y001734D01*
X002261Y001667D01*
X002314Y001603D01*
X002370Y001541D01*
X002429Y001482D01*
X002491Y001426D01*
X002555Y001373D01*
X002622Y001323D01*
X002691Y001277D01*
X002762Y001233D01*
X002835Y001194D01*
X002910Y001157D01*
X002987Y001124D01*
X003065Y001095D01*
X003144Y001070D01*
X003224Y001048D01*
X003306Y001031D01*
X003388Y001017D01*
X003471Y001007D01*
X003554Y001001D01*
X003637Y000999D01*
X037887Y000999D01*
X037257Y002749D02*
X037259Y002799D01*
X037265Y002849D01*
X037275Y002898D01*
X037289Y002946D01*
X037306Y002993D01*
X037327Y003038D01*
X037352Y003082D01*
X037380Y003123D01*
X037412Y003162D01*
X037446Y003199D01*
X037483Y003233D01*
X037523Y003263D01*
X037565Y003290D01*
X037609Y003314D01*
X037655Y003335D01*
X037702Y003351D01*
X037750Y003364D01*
X037800Y003373D01*
X037849Y003378D01*
X037900Y003379D01*
X037950Y003376D01*
X037999Y003369D01*
X038048Y003358D01*
X038096Y003343D01*
X038142Y003325D01*
X038187Y003303D01*
X038230Y003277D01*
X038271Y003248D01*
X038310Y003216D01*
X038346Y003181D01*
X038378Y003143D01*
X038408Y003103D01*
X038435Y003060D01*
X038458Y003016D01*
X038477Y002970D01*
X038493Y002922D01*
X038505Y002873D01*
X038513Y002824D01*
X038517Y002774D01*
X038517Y002724D01*
X038513Y002674D01*
X038505Y002625D01*
X038493Y002576D01*
X038477Y002528D01*
X038458Y002482D01*
X038435Y002438D01*
X038408Y002395D01*
X038378Y002355D01*
X038346Y002317D01*
X038310Y002282D01*
X038271Y002250D01*
X038230Y002221D01*
X038187Y002195D01*
X038142Y002173D01*
X038096Y002155D01*
X038048Y002140D01*
X037999Y002129D01*
X037950Y002122D01*
X037900Y002119D01*
X037849Y002120D01*
X037800Y002125D01*
X037750Y002134D01*
X037702Y002147D01*
X037655Y002163D01*
X037609Y002184D01*
X037565Y002208D01*
X037523Y002235D01*
X037483Y002265D01*
X037446Y002299D01*
X037412Y002336D01*
X037380Y002375D01*
X037352Y002416D01*
X037327Y002460D01*
X037306Y002505D01*
X037289Y002552D01*
X037275Y002600D01*
X037265Y002649D01*
X037259Y002699D01*
X037257Y002749D01*
X037887Y000999D02*
X037970Y001001D01*
X038053Y001007D01*
X038136Y001017D01*
X038218Y001031D01*
X038300Y001048D01*
X038380Y001070D01*
X038459Y001095D01*
X038537Y001124D01*
X038614Y001157D01*
X038689Y001194D01*
X038762Y001233D01*
X038833Y001277D01*
X038902Y001323D01*
X038969Y001373D01*
X039033Y001426D01*
X039095Y001482D01*
X039154Y001541D01*
X039210Y001603D01*
X039263Y001667D01*
X039313Y001734D01*
X039359Y001803D01*
X039403Y001874D01*
X039442Y001947D01*
X039479Y002022D01*
X039512Y002099D01*
X039541Y002177D01*
X039566Y002256D01*
X039588Y002336D01*
X039605Y002418D01*
X039619Y002500D01*
X039629Y002583D01*
X039635Y002666D01*
X039637Y002749D01*
X039637Y018749D01*
X037257Y018749D02*
X037259Y018799D01*
X037265Y018849D01*
X037275Y018898D01*
X037289Y018946D01*
X037306Y018993D01*
X037327Y019038D01*
X037352Y019082D01*
X037380Y019123D01*
X037412Y019162D01*
X037446Y019199D01*
X037483Y019233D01*
X037523Y019263D01*
X037565Y019290D01*
X037609Y019314D01*
X037655Y019335D01*
X037702Y019351D01*
X037750Y019364D01*
X037800Y019373D01*
X037849Y019378D01*
X037900Y019379D01*
X037950Y019376D01*
X037999Y019369D01*
X038048Y019358D01*
X038096Y019343D01*
X038142Y019325D01*
X038187Y019303D01*
X038230Y019277D01*
X038271Y019248D01*
X038310Y019216D01*
X038346Y019181D01*
X038378Y019143D01*
X038408Y019103D01*
X038435Y019060D01*
X038458Y019016D01*
X038477Y018970D01*
X038493Y018922D01*
X038505Y018873D01*
X038513Y018824D01*
X038517Y018774D01*
X038517Y018724D01*
X038513Y018674D01*
X038505Y018625D01*
X038493Y018576D01*
X038477Y018528D01*
X038458Y018482D01*
X038435Y018438D01*
X038408Y018395D01*
X038378Y018355D01*
X038346Y018317D01*
X038310Y018282D01*
X038271Y018250D01*
X038230Y018221D01*
X038187Y018195D01*
X038142Y018173D01*
X038096Y018155D01*
X038048Y018140D01*
X037999Y018129D01*
X037950Y018122D01*
X037900Y018119D01*
X037849Y018120D01*
X037800Y018125D01*
X037750Y018134D01*
X037702Y018147D01*
X037655Y018163D01*
X037609Y018184D01*
X037565Y018208D01*
X037523Y018235D01*
X037483Y018265D01*
X037446Y018299D01*
X037412Y018336D01*
X037380Y018375D01*
X037352Y018416D01*
X037327Y018460D01*
X037306Y018505D01*
X037289Y018552D01*
X037275Y018600D01*
X037265Y018649D01*
X037259Y018699D01*
X037257Y018749D01*
X037887Y020499D02*
X037970Y020497D01*
X038053Y020491D01*
X038136Y020481D01*
X038218Y020467D01*
X038300Y020450D01*
X038380Y020428D01*
X038459Y020403D01*
X038537Y020374D01*
X038614Y020341D01*
X038689Y020304D01*
X038762Y020265D01*
X038833Y020221D01*
X038902Y020175D01*
X038969Y020125D01*
X039033Y020072D01*
X039095Y020016D01*
X039154Y019957D01*
X039210Y019895D01*
X039263Y019831D01*
X039313Y019764D01*
X039359Y019695D01*
X039403Y019624D01*
X039442Y019551D01*
X039479Y019476D01*
X039512Y019399D01*
X039541Y019321D01*
X039566Y019242D01*
X039588Y019162D01*
X039605Y019080D01*
X039619Y018998D01*
X039629Y018915D01*
X039635Y018832D01*
X039637Y018749D01*
X037887Y020499D02*
X036887Y020499D01*
X036887Y021499D01*
X034137Y021499D01*
X022887Y021499D01*
X022387Y020999D02*
X022389Y020955D01*
X022395Y020912D01*
X022404Y020870D01*
X022417Y020828D01*
X022434Y020788D01*
X022454Y020749D01*
X022477Y020712D01*
X022504Y020678D01*
X022533Y020645D01*
X022566Y020616D01*
X022600Y020589D01*
X022637Y020566D01*
X022676Y020546D01*
X022716Y020529D01*
X022758Y020516D01*
X022800Y020507D01*
X022843Y020501D01*
X022887Y020499D01*
X034137Y020499D01*
X034137Y021499D01*
X034181Y021497D01*
X034224Y021491D01*
X034266Y021482D01*
X034308Y021469D01*
X034348Y021452D01*
X034387Y021432D01*
X034424Y021409D01*
X034458Y021382D01*
X034491Y021353D01*
X034520Y021320D01*
X034547Y021286D01*
X034570Y021249D01*
X034590Y021210D01*
X034607Y021170D01*
X034620Y021128D01*
X034629Y021086D01*
X034635Y021043D01*
X034637Y020999D01*
X034624Y020624D02*
X034626Y020647D01*
X034632Y020670D01*
X034642Y020691D01*
X034655Y020711D01*
X034671Y020728D01*
X034690Y020742D01*
X034711Y020752D01*
X034733Y020759D01*
X034756Y020762D01*
X034780Y020761D01*
X034802Y020756D01*
X034824Y020747D01*
X034844Y020735D01*
X034862Y020719D01*
X034876Y020701D01*
X034888Y020681D01*
X034896Y020659D01*
X034900Y020636D01*
X034900Y020612D01*
X034896Y020589D01*
X034888Y020567D01*
X034876Y020547D01*
X034862Y020529D01*
X034844Y020513D01*
X034824Y020501D01*
X034802Y020492D01*
X034780Y020487D01*
X034756Y020486D01*
X034733Y020489D01*
X034711Y020496D01*
X034690Y020506D01*
X034671Y020520D01*
X034655Y020537D01*
X034642Y020557D01*
X034632Y020578D01*
X034626Y020601D01*
X034624Y020624D01*
X034137Y020499D02*
X036887Y020499D01*
X036387Y020999D02*
X036389Y021043D01*
X036395Y021086D01*
X036404Y021128D01*
X036417Y021170D01*
X036434Y021210D01*
X036454Y021249D01*
X036477Y021286D01*
X036504Y021320D01*
X036533Y021353D01*
X036566Y021382D01*
X036600Y021409D01*
X036637Y021432D01*
X036676Y021452D01*
X036716Y021469D01*
X036758Y021482D01*
X036800Y021491D01*
X036843Y021497D01*
X036887Y021499D01*
X039137Y021499D01*
X038507Y023249D02*
X038509Y023299D01*
X038515Y023349D01*
X038525Y023398D01*
X038539Y023446D01*
X038556Y023493D01*
X038577Y023538D01*
X038602Y023582D01*
X038630Y023623D01*
X038662Y023662D01*
X038696Y023699D01*
X038733Y023733D01*
X038773Y023763D01*
X038815Y023790D01*
X038859Y023814D01*
X038905Y023835D01*
X038952Y023851D01*
X039000Y023864D01*
X039050Y023873D01*
X039099Y023878D01*
X039150Y023879D01*
X039200Y023876D01*
X039249Y023869D01*
X039298Y023858D01*
X039346Y023843D01*
X039392Y023825D01*
X039437Y023803D01*
X039480Y023777D01*
X039521Y023748D01*
X039560Y023716D01*
X039596Y023681D01*
X039628Y023643D01*
X039658Y023603D01*
X039685Y023560D01*
X039708Y023516D01*
X039727Y023470D01*
X039743Y023422D01*
X039755Y023373D01*
X039763Y023324D01*
X039767Y023274D01*
X039767Y023224D01*
X039763Y023174D01*
X039755Y023125D01*
X039743Y023076D01*
X039727Y023028D01*
X039708Y022982D01*
X039685Y022938D01*
X039658Y022895D01*
X039628Y022855D01*
X039596Y022817D01*
X039560Y022782D01*
X039521Y022750D01*
X039480Y022721D01*
X039437Y022695D01*
X039392Y022673D01*
X039346Y022655D01*
X039298Y022640D01*
X039249Y022629D01*
X039200Y022622D01*
X039150Y022619D01*
X039099Y022620D01*
X039050Y022625D01*
X039000Y022634D01*
X038952Y022647D01*
X038905Y022663D01*
X038859Y022684D01*
X038815Y022708D01*
X038773Y022735D01*
X038733Y022765D01*
X038696Y022799D01*
X038662Y022836D01*
X038630Y022875D01*
X038602Y022916D01*
X038577Y022960D01*
X038556Y023005D01*
X038539Y023052D01*
X038525Y023100D01*
X038515Y023149D01*
X038509Y023199D01*
X038507Y023249D01*
X039137Y021499D02*
X039220Y021501D01*
X039303Y021507D01*
X039386Y021517D01*
X039468Y021531D01*
X039550Y021548D01*
X039630Y021570D01*
X039709Y021595D01*
X039787Y021624D01*
X039864Y021657D01*
X039939Y021694D01*
X040012Y021733D01*
X040083Y021777D01*
X040152Y021823D01*
X040219Y021873D01*
X040283Y021926D01*
X040345Y021982D01*
X040404Y022041D01*
X040460Y022103D01*
X040513Y022167D01*
X040563Y022234D01*
X040609Y022303D01*
X040653Y022374D01*
X040692Y022447D01*
X040729Y022522D01*
X040762Y022599D01*
X040791Y022677D01*
X040816Y022756D01*
X040838Y022836D01*
X040855Y022918D01*
X040869Y023000D01*
X040879Y023083D01*
X040885Y023166D01*
X040887Y023249D01*
X040887Y037249D01*
X038507Y037249D02*
X038509Y037299D01*
X038515Y037349D01*
X038525Y037398D01*
X038539Y037446D01*
X038556Y037493D01*
X038577Y037538D01*
X038602Y037582D01*
X038630Y037623D01*
X038662Y037662D01*
X038696Y037699D01*
X038733Y037733D01*
X038773Y037763D01*
X038815Y037790D01*
X038859Y037814D01*
X038905Y037835D01*
X038952Y037851D01*
X039000Y037864D01*
X039050Y037873D01*
X039099Y037878D01*
X039150Y037879D01*
X039200Y037876D01*
X039249Y037869D01*
X039298Y037858D01*
X039346Y037843D01*
X039392Y037825D01*
X039437Y037803D01*
X039480Y037777D01*
X039521Y037748D01*
X039560Y037716D01*
X039596Y037681D01*
X039628Y037643D01*
X039658Y037603D01*
X039685Y037560D01*
X039708Y037516D01*
X039727Y037470D01*
X039743Y037422D01*
X039755Y037373D01*
X039763Y037324D01*
X039767Y037274D01*
X039767Y037224D01*
X039763Y037174D01*
X039755Y037125D01*
X039743Y037076D01*
X039727Y037028D01*
X039708Y036982D01*
X039685Y036938D01*
X039658Y036895D01*
X039628Y036855D01*
X039596Y036817D01*
X039560Y036782D01*
X039521Y036750D01*
X039480Y036721D01*
X039437Y036695D01*
X039392Y036673D01*
X039346Y036655D01*
X039298Y036640D01*
X039249Y036629D01*
X039200Y036622D01*
X039150Y036619D01*
X039099Y036620D01*
X039050Y036625D01*
X039000Y036634D01*
X038952Y036647D01*
X038905Y036663D01*
X038859Y036684D01*
X038815Y036708D01*
X038773Y036735D01*
X038733Y036765D01*
X038696Y036799D01*
X038662Y036836D01*
X038630Y036875D01*
X038602Y036916D01*
X038577Y036960D01*
X038556Y037005D01*
X038539Y037052D01*
X038525Y037100D01*
X038515Y037149D01*
X038509Y037199D01*
X038507Y037249D01*
X039137Y038999D02*
X039220Y038997D01*
X039303Y038991D01*
X039386Y038981D01*
X039468Y038967D01*
X039550Y038950D01*
X039630Y038928D01*
X039709Y038903D01*
X039787Y038874D01*
X039864Y038841D01*
X039939Y038804D01*
X040012Y038765D01*
X040083Y038721D01*
X040152Y038675D01*
X040219Y038625D01*
X040283Y038572D01*
X040345Y038516D01*
X040404Y038457D01*
X040460Y038395D01*
X040513Y038331D01*
X040563Y038264D01*
X040609Y038195D01*
X040653Y038124D01*
X040692Y038051D01*
X040729Y037976D01*
X040762Y037899D01*
X040791Y037821D01*
X040816Y037742D01*
X040838Y037662D01*
X040855Y037580D01*
X040869Y037498D01*
X040879Y037415D01*
X040885Y037332D01*
X040887Y037249D01*
X039137Y038999D02*
X003637Y038999D01*
X003007Y037249D02*
X003009Y037299D01*
X003015Y037349D01*
X003025Y037398D01*
X003039Y037446D01*
X003056Y037493D01*
X003077Y037538D01*
X003102Y037582D01*
X003130Y037623D01*
X003162Y037662D01*
X003196Y037699D01*
X003233Y037733D01*
X003273Y037763D01*
X003315Y037790D01*
X003359Y037814D01*
X003405Y037835D01*
X003452Y037851D01*
X003500Y037864D01*
X003550Y037873D01*
X003599Y037878D01*
X003650Y037879D01*
X003700Y037876D01*
X003749Y037869D01*
X003798Y037858D01*
X003846Y037843D01*
X003892Y037825D01*
X003937Y037803D01*
X003980Y037777D01*
X004021Y037748D01*
X004060Y037716D01*
X004096Y037681D01*
X004128Y037643D01*
X004158Y037603D01*
X004185Y037560D01*
X004208Y037516D01*
X004227Y037470D01*
X004243Y037422D01*
X004255Y037373D01*
X004263Y037324D01*
X004267Y037274D01*
X004267Y037224D01*
X004263Y037174D01*
X004255Y037125D01*
X004243Y037076D01*
X004227Y037028D01*
X004208Y036982D01*
X004185Y036938D01*
X004158Y036895D01*
X004128Y036855D01*
X004096Y036817D01*
X004060Y036782D01*
X004021Y036750D01*
X003980Y036721D01*
X003937Y036695D01*
X003892Y036673D01*
X003846Y036655D01*
X003798Y036640D01*
X003749Y036629D01*
X003700Y036622D01*
X003650Y036619D01*
X003599Y036620D01*
X003550Y036625D01*
X003500Y036634D01*
X003452Y036647D01*
X003405Y036663D01*
X003359Y036684D01*
X003315Y036708D01*
X003273Y036735D01*
X003233Y036765D01*
X003196Y036799D01*
X003162Y036836D01*
X003130Y036875D01*
X003102Y036916D01*
X003077Y036960D01*
X003056Y037005D01*
X003039Y037052D01*
X003025Y037100D01*
X003015Y037149D01*
X003009Y037199D01*
X003007Y037249D01*
X001887Y037249D02*
X001889Y037332D01*
X001895Y037415D01*
X001905Y037498D01*
X001919Y037580D01*
X001936Y037662D01*
X001958Y037742D01*
X001983Y037821D01*
X002012Y037899D01*
X002045Y037976D01*
X002082Y038051D01*
X002121Y038124D01*
X002165Y038195D01*
X002211Y038264D01*
X002261Y038331D01*
X002314Y038395D01*
X002370Y038457D01*
X002429Y038516D01*
X002491Y038572D01*
X002555Y038625D01*
X002622Y038675D01*
X002691Y038721D01*
X002762Y038765D01*
X002835Y038804D01*
X002910Y038841D01*
X002987Y038874D01*
X003065Y038903D01*
X003144Y038928D01*
X003224Y038950D01*
X003306Y038967D01*
X003388Y038981D01*
X003471Y038991D01*
X003554Y038997D01*
X003637Y038999D01*
X001887Y037249D02*
X001887Y023249D01*
X003007Y023249D02*
X003009Y023299D01*
X003015Y023349D01*
X003025Y023398D01*
X003039Y023446D01*
X003056Y023493D01*
X003077Y023538D01*
X003102Y023582D01*
X003130Y023623D01*
X003162Y023662D01*
X003196Y023699D01*
X003233Y023733D01*
X003273Y023763D01*
X003315Y023790D01*
X003359Y023814D01*
X003405Y023835D01*
X003452Y023851D01*
X003500Y023864D01*
X003550Y023873D01*
X003599Y023878D01*
X003650Y023879D01*
X003700Y023876D01*
X003749Y023869D01*
X003798Y023858D01*
X003846Y023843D01*
X003892Y023825D01*
X003937Y023803D01*
X003980Y023777D01*
X004021Y023748D01*
X004060Y023716D01*
X004096Y023681D01*
X004128Y023643D01*
X004158Y023603D01*
X004185Y023560D01*
X004208Y023516D01*
X004227Y023470D01*
X004243Y023422D01*
X004255Y023373D01*
X004263Y023324D01*
X004267Y023274D01*
X004267Y023224D01*
X004263Y023174D01*
X004255Y023125D01*
X004243Y023076D01*
X004227Y023028D01*
X004208Y022982D01*
X004185Y022938D01*
X004158Y022895D01*
X004128Y022855D01*
X004096Y022817D01*
X004060Y022782D01*
X004021Y022750D01*
X003980Y022721D01*
X003937Y022695D01*
X003892Y022673D01*
X003846Y022655D01*
X003798Y022640D01*
X003749Y022629D01*
X003700Y022622D01*
X003650Y022619D01*
X003599Y022620D01*
X003550Y022625D01*
X003500Y022634D01*
X003452Y022647D01*
X003405Y022663D01*
X003359Y022684D01*
X003315Y022708D01*
X003273Y022735D01*
X003233Y022765D01*
X003196Y022799D01*
X003162Y022836D01*
X003130Y022875D01*
X003102Y022916D01*
X003077Y022960D01*
X003056Y023005D01*
X003039Y023052D01*
X003025Y023100D01*
X003015Y023149D01*
X003009Y023199D01*
X003007Y023249D01*
X001887Y023249D02*
X001889Y023166D01*
X001895Y023083D01*
X001905Y023000D01*
X001919Y022918D01*
X001936Y022836D01*
X001958Y022756D01*
X001983Y022677D01*
X002012Y022599D01*
X002045Y022522D01*
X002082Y022447D01*
X002121Y022374D01*
X002165Y022303D01*
X002211Y022234D01*
X002261Y022167D01*
X002314Y022103D01*
X002370Y022041D01*
X002429Y021982D01*
X002491Y021926D01*
X002555Y021873D01*
X002622Y021823D01*
X002691Y021777D01*
X002762Y021733D01*
X002835Y021694D01*
X002910Y021657D01*
X002987Y021624D01*
X003065Y021595D01*
X003144Y021570D01*
X003224Y021548D01*
X003306Y021531D01*
X003388Y021517D01*
X003471Y021507D01*
X003554Y021501D01*
X003637Y021499D01*
X008836Y024999D02*
X008838Y025046D01*
X008844Y025092D01*
X008854Y025138D01*
X008867Y025183D01*
X008885Y025226D01*
X008906Y025268D01*
X008930Y025308D01*
X008958Y025345D01*
X008989Y025380D01*
X009023Y025413D01*
X009059Y025442D01*
X009098Y025468D01*
X009139Y025491D01*
X009182Y025510D01*
X009226Y025526D01*
X009271Y025538D01*
X009317Y025546D01*
X009364Y025550D01*
X009410Y025550D01*
X009457Y025546D01*
X009503Y025538D01*
X009548Y025526D01*
X009592Y025510D01*
X009635Y025491D01*
X009676Y025468D01*
X009715Y025442D01*
X009751Y025413D01*
X009785Y025380D01*
X009816Y025345D01*
X009844Y025308D01*
X009868Y025268D01*
X009889Y025226D01*
X009907Y025183D01*
X009920Y025138D01*
X009930Y025092D01*
X009936Y025046D01*
X009938Y024999D01*
X009936Y024952D01*
X009930Y024906D01*
X009920Y024860D01*
X009907Y024815D01*
X009889Y024772D01*
X009868Y024730D01*
X009844Y024690D01*
X009816Y024653D01*
X009785Y024618D01*
X009751Y024585D01*
X009715Y024556D01*
X009676Y024530D01*
X009635Y024507D01*
X009592Y024488D01*
X009548Y024472D01*
X009503Y024460D01*
X009457Y024452D01*
X009410Y024448D01*
X009364Y024448D01*
X009317Y024452D01*
X009271Y024460D01*
X009226Y024472D01*
X009182Y024488D01*
X009139Y024507D01*
X009098Y024530D01*
X009059Y024556D01*
X009023Y024585D01*
X008989Y024618D01*
X008958Y024653D01*
X008930Y024690D01*
X008906Y024730D01*
X008885Y024772D01*
X008867Y024815D01*
X008854Y024860D01*
X008844Y024906D01*
X008838Y024952D01*
X008836Y024999D01*
X015166Y023885D02*
X015168Y023930D01*
X015174Y023974D01*
X015183Y024018D01*
X015197Y024060D01*
X015214Y024101D01*
X015235Y024141D01*
X015259Y024179D01*
X015286Y024214D01*
X015316Y024247D01*
X015349Y024277D01*
X015384Y024304D01*
X015422Y024328D01*
X015462Y024349D01*
X015503Y024366D01*
X015545Y024380D01*
X015589Y024389D01*
X015633Y024395D01*
X015678Y024397D01*
X015723Y024395D01*
X015767Y024389D01*
X015811Y024380D01*
X015853Y024366D01*
X015894Y024349D01*
X015934Y024328D01*
X015972Y024304D01*
X016007Y024277D01*
X016040Y024247D01*
X016070Y024214D01*
X016097Y024179D01*
X016121Y024141D01*
X016142Y024101D01*
X016159Y024060D01*
X016173Y024018D01*
X016182Y023974D01*
X016188Y023930D01*
X016190Y023885D01*
X016188Y023840D01*
X016182Y023796D01*
X016173Y023752D01*
X016159Y023710D01*
X016142Y023669D01*
X016121Y023629D01*
X016097Y023591D01*
X016070Y023556D01*
X016040Y023523D01*
X016007Y023493D01*
X015972Y023466D01*
X015934Y023442D01*
X015894Y023421D01*
X015853Y023404D01*
X015811Y023390D01*
X015767Y023381D01*
X015723Y023375D01*
X015678Y023373D01*
X015633Y023375D01*
X015589Y023381D01*
X015545Y023390D01*
X015503Y023404D01*
X015462Y023421D01*
X015422Y023442D01*
X015384Y023466D01*
X015349Y023493D01*
X015316Y023523D01*
X015286Y023556D01*
X015259Y023591D01*
X015235Y023629D01*
X015214Y023669D01*
X015197Y023710D01*
X015183Y023752D01*
X015174Y023796D01*
X015168Y023840D01*
X015166Y023885D01*
X020137Y021499D02*
X020181Y021497D01*
X020224Y021491D01*
X020266Y021482D01*
X020308Y021469D01*
X020348Y021452D01*
X020387Y021432D01*
X020424Y021409D01*
X020458Y021382D01*
X020491Y021353D01*
X020520Y021320D01*
X020547Y021286D01*
X020570Y021249D01*
X020590Y021210D01*
X020607Y021170D01*
X020620Y021128D01*
X020629Y021086D01*
X020635Y021043D01*
X020637Y020999D01*
X020624Y020624D02*
X020626Y020647D01*
X020632Y020670D01*
X020642Y020691D01*
X020655Y020711D01*
X020671Y020728D01*
X020690Y020742D01*
X020711Y020752D01*
X020733Y020759D01*
X020756Y020762D01*
X020780Y020761D01*
X020802Y020756D01*
X020824Y020747D01*
X020844Y020735D01*
X020862Y020719D01*
X020876Y020701D01*
X020888Y020681D01*
X020896Y020659D01*
X020900Y020636D01*
X020900Y020612D01*
X020896Y020589D01*
X020888Y020567D01*
X020876Y020547D01*
X020862Y020529D01*
X020844Y020513D01*
X020824Y020501D01*
X020802Y020492D01*
X020780Y020487D01*
X020756Y020486D01*
X020733Y020489D01*
X020711Y020496D01*
X020690Y020506D01*
X020671Y020520D01*
X020655Y020537D01*
X020642Y020557D01*
X020632Y020578D01*
X020626Y020601D01*
X020624Y020624D01*
X021124Y020624D02*
X021126Y020647D01*
X021132Y020670D01*
X021142Y020691D01*
X021155Y020711D01*
X021171Y020728D01*
X021190Y020742D01*
X021211Y020752D01*
X021233Y020759D01*
X021256Y020762D01*
X021280Y020761D01*
X021302Y020756D01*
X021324Y020747D01*
X021344Y020735D01*
X021362Y020719D01*
X021376Y020701D01*
X021388Y020681D01*
X021396Y020659D01*
X021400Y020636D01*
X021400Y020612D01*
X021396Y020589D01*
X021388Y020567D01*
X021376Y020547D01*
X021362Y020529D01*
X021344Y020513D01*
X021324Y020501D01*
X021302Y020492D01*
X021280Y020487D01*
X021256Y020486D01*
X021233Y020489D01*
X021211Y020496D01*
X021190Y020506D01*
X021171Y020520D01*
X021155Y020537D01*
X021142Y020557D01*
X021132Y020578D01*
X021126Y020601D01*
X021124Y020624D01*
X021624Y020624D02*
X021626Y020647D01*
X021632Y020670D01*
X021642Y020691D01*
X021655Y020711D01*
X021671Y020728D01*
X021690Y020742D01*
X021711Y020752D01*
X021733Y020759D01*
X021756Y020762D01*
X021780Y020761D01*
X021802Y020756D01*
X021824Y020747D01*
X021844Y020735D01*
X021862Y020719D01*
X021876Y020701D01*
X021888Y020681D01*
X021896Y020659D01*
X021900Y020636D01*
X021900Y020612D01*
X021896Y020589D01*
X021888Y020567D01*
X021876Y020547D01*
X021862Y020529D01*
X021844Y020513D01*
X021824Y020501D01*
X021802Y020492D01*
X021780Y020487D01*
X021756Y020486D01*
X021733Y020489D01*
X021711Y020496D01*
X021690Y020506D01*
X021671Y020520D01*
X021655Y020537D01*
X021642Y020557D01*
X021632Y020578D01*
X021626Y020601D01*
X021624Y020624D01*
X022124Y020624D02*
X022126Y020647D01*
X022132Y020670D01*
X022142Y020691D01*
X022155Y020711D01*
X022171Y020728D01*
X022190Y020742D01*
X022211Y020752D01*
X022233Y020759D01*
X022256Y020762D01*
X022280Y020761D01*
X022302Y020756D01*
X022324Y020747D01*
X022344Y020735D01*
X022362Y020719D01*
X022376Y020701D01*
X022388Y020681D01*
X022396Y020659D01*
X022400Y020636D01*
X022400Y020612D01*
X022396Y020589D01*
X022388Y020567D01*
X022376Y020547D01*
X022362Y020529D01*
X022344Y020513D01*
X022324Y020501D01*
X022302Y020492D01*
X022280Y020487D01*
X022256Y020486D01*
X022233Y020489D01*
X022211Y020496D01*
X022190Y020506D01*
X022171Y020520D01*
X022155Y020537D01*
X022142Y020557D01*
X022132Y020578D01*
X022126Y020601D01*
X022124Y020624D01*
X022124Y021374D02*
X022126Y021397D01*
X022132Y021420D01*
X022142Y021441D01*
X022155Y021461D01*
X022171Y021478D01*
X022190Y021492D01*
X022211Y021502D01*
X022233Y021509D01*
X022256Y021512D01*
X022280Y021511D01*
X022302Y021506D01*
X022324Y021497D01*
X022344Y021485D01*
X022362Y021469D01*
X022376Y021451D01*
X022388Y021431D01*
X022396Y021409D01*
X022400Y021386D01*
X022400Y021362D01*
X022396Y021339D01*
X022388Y021317D01*
X022376Y021297D01*
X022362Y021279D01*
X022344Y021263D01*
X022324Y021251D01*
X022302Y021242D01*
X022280Y021237D01*
X022256Y021236D01*
X022233Y021239D01*
X022211Y021246D01*
X022190Y021256D01*
X022171Y021270D01*
X022155Y021287D01*
X022142Y021307D01*
X022132Y021328D01*
X022126Y021351D01*
X022124Y021374D01*
X021624Y021374D02*
X021626Y021397D01*
X021632Y021420D01*
X021642Y021441D01*
X021655Y021461D01*
X021671Y021478D01*
X021690Y021492D01*
X021711Y021502D01*
X021733Y021509D01*
X021756Y021512D01*
X021780Y021511D01*
X021802Y021506D01*
X021824Y021497D01*
X021844Y021485D01*
X021862Y021469D01*
X021876Y021451D01*
X021888Y021431D01*
X021896Y021409D01*
X021900Y021386D01*
X021900Y021362D01*
X021896Y021339D01*
X021888Y021317D01*
X021876Y021297D01*
X021862Y021279D01*
X021844Y021263D01*
X021824Y021251D01*
X021802Y021242D01*
X021780Y021237D01*
X021756Y021236D01*
X021733Y021239D01*
X021711Y021246D01*
X021690Y021256D01*
X021671Y021270D01*
X021655Y021287D01*
X021642Y021307D01*
X021632Y021328D01*
X021626Y021351D01*
X021624Y021374D01*
X021124Y021374D02*
X021126Y021397D01*
X021132Y021420D01*
X021142Y021441D01*
X021155Y021461D01*
X021171Y021478D01*
X021190Y021492D01*
X021211Y021502D01*
X021233Y021509D01*
X021256Y021512D01*
X021280Y021511D01*
X021302Y021506D01*
X021324Y021497D01*
X021344Y021485D01*
X021362Y021469D01*
X021376Y021451D01*
X021388Y021431D01*
X021396Y021409D01*
X021400Y021386D01*
X021400Y021362D01*
X021396Y021339D01*
X021388Y021317D01*
X021376Y021297D01*
X021362Y021279D01*
X021344Y021263D01*
X021324Y021251D01*
X021302Y021242D01*
X021280Y021237D01*
X021256Y021236D01*
X021233Y021239D01*
X021211Y021246D01*
X021190Y021256D01*
X021171Y021270D01*
X021155Y021287D01*
X021142Y021307D01*
X021132Y021328D01*
X021126Y021351D01*
X021124Y021374D01*
X020624Y021374D02*
X020626Y021397D01*
X020632Y021420D01*
X020642Y021441D01*
X020655Y021461D01*
X020671Y021478D01*
X020690Y021492D01*
X020711Y021502D01*
X020733Y021509D01*
X020756Y021512D01*
X020780Y021511D01*
X020802Y021506D01*
X020824Y021497D01*
X020844Y021485D01*
X020862Y021469D01*
X020876Y021451D01*
X020888Y021431D01*
X020896Y021409D01*
X020900Y021386D01*
X020900Y021362D01*
X020896Y021339D01*
X020888Y021317D01*
X020876Y021297D01*
X020862Y021279D01*
X020844Y021263D01*
X020824Y021251D01*
X020802Y021242D01*
X020780Y021237D01*
X020756Y021236D01*
X020733Y021239D01*
X020711Y021246D01*
X020690Y021256D01*
X020671Y021270D01*
X020655Y021287D01*
X020642Y021307D01*
X020632Y021328D01*
X020626Y021351D01*
X020624Y021374D01*
X022387Y020999D02*
X022389Y021043D01*
X022395Y021086D01*
X022404Y021128D01*
X022417Y021170D01*
X022434Y021210D01*
X022454Y021249D01*
X022477Y021286D01*
X022504Y021320D01*
X022533Y021353D01*
X022566Y021382D01*
X022600Y021409D01*
X022637Y021432D01*
X022676Y021452D01*
X022716Y021469D01*
X022758Y021482D01*
X022800Y021491D01*
X022843Y021497D01*
X022887Y021499D01*
X026584Y023885D02*
X026586Y023930D01*
X026592Y023974D01*
X026601Y024018D01*
X026615Y024060D01*
X026632Y024101D01*
X026653Y024141D01*
X026677Y024179D01*
X026704Y024214D01*
X026734Y024247D01*
X026767Y024277D01*
X026802Y024304D01*
X026840Y024328D01*
X026880Y024349D01*
X026921Y024366D01*
X026963Y024380D01*
X027007Y024389D01*
X027051Y024395D01*
X027096Y024397D01*
X027141Y024395D01*
X027185Y024389D01*
X027229Y024380D01*
X027271Y024366D01*
X027312Y024349D01*
X027352Y024328D01*
X027390Y024304D01*
X027425Y024277D01*
X027458Y024247D01*
X027488Y024214D01*
X027515Y024179D01*
X027539Y024141D01*
X027560Y024101D01*
X027577Y024060D01*
X027591Y024018D01*
X027600Y023974D01*
X027606Y023930D01*
X027608Y023885D01*
X027606Y023840D01*
X027600Y023796D01*
X027591Y023752D01*
X027577Y023710D01*
X027560Y023669D01*
X027539Y023629D01*
X027515Y023591D01*
X027488Y023556D01*
X027458Y023523D01*
X027425Y023493D01*
X027390Y023466D01*
X027352Y023442D01*
X027312Y023421D01*
X027271Y023404D01*
X027229Y023390D01*
X027185Y023381D01*
X027141Y023375D01*
X027096Y023373D01*
X027051Y023375D01*
X027007Y023381D01*
X026963Y023390D01*
X026921Y023404D01*
X026880Y023421D01*
X026840Y023442D01*
X026802Y023466D01*
X026767Y023493D01*
X026734Y023523D01*
X026704Y023556D01*
X026677Y023591D01*
X026653Y023629D01*
X026632Y023669D01*
X026615Y023710D01*
X026601Y023752D01*
X026592Y023796D01*
X026586Y023840D01*
X026584Y023885D01*
X031284Y018501D02*
X031286Y018538D01*
X031292Y018575D01*
X031301Y018611D01*
X031315Y018645D01*
X031332Y018678D01*
X031352Y018710D01*
X031375Y018739D01*
X031401Y018765D01*
X031430Y018788D01*
X031461Y018808D01*
X031495Y018825D01*
X031529Y018839D01*
X031565Y018848D01*
X031602Y018854D01*
X031639Y018856D01*
X031676Y018854D01*
X031713Y018848D01*
X031749Y018839D01*
X031783Y018825D01*
X031816Y018808D01*
X031848Y018788D01*
X031877Y018765D01*
X031903Y018739D01*
X031926Y018710D01*
X031946Y018679D01*
X031963Y018645D01*
X031977Y018611D01*
X031986Y018575D01*
X031992Y018538D01*
X031994Y018501D01*
X031992Y018464D01*
X031986Y018427D01*
X031977Y018391D01*
X031963Y018357D01*
X031946Y018324D01*
X031926Y018292D01*
X031903Y018263D01*
X031877Y018237D01*
X031848Y018214D01*
X031817Y018194D01*
X031783Y018177D01*
X031749Y018163D01*
X031713Y018154D01*
X031676Y018148D01*
X031639Y018146D01*
X031602Y018148D01*
X031565Y018154D01*
X031529Y018163D01*
X031495Y018177D01*
X031462Y018194D01*
X031430Y018214D01*
X031401Y018237D01*
X031375Y018263D01*
X031352Y018292D01*
X031332Y018323D01*
X031315Y018357D01*
X031301Y018391D01*
X031292Y018427D01*
X031286Y018464D01*
X031284Y018501D01*
X028780Y015998D02*
X028782Y016035D01*
X028788Y016072D01*
X028797Y016108D01*
X028811Y016142D01*
X028828Y016175D01*
X028848Y016207D01*
X028871Y016236D01*
X028897Y016262D01*
X028926Y016285D01*
X028957Y016305D01*
X028991Y016322D01*
X029025Y016336D01*
X029061Y016345D01*
X029098Y016351D01*
X029135Y016353D01*
X029172Y016351D01*
X029209Y016345D01*
X029245Y016336D01*
X029279Y016322D01*
X029312Y016305D01*
X029344Y016285D01*
X029373Y016262D01*
X029399Y016236D01*
X029422Y016207D01*
X029442Y016176D01*
X029459Y016142D01*
X029473Y016108D01*
X029482Y016072D01*
X029488Y016035D01*
X029490Y015998D01*
X029488Y015961D01*
X029482Y015924D01*
X029473Y015888D01*
X029459Y015854D01*
X029442Y015821D01*
X029422Y015789D01*
X029399Y015760D01*
X029373Y015734D01*
X029344Y015711D01*
X029313Y015691D01*
X029279Y015674D01*
X029245Y015660D01*
X029209Y015651D01*
X029172Y015645D01*
X029135Y015643D01*
X029098Y015645D01*
X029061Y015651D01*
X029025Y015660D01*
X028991Y015674D01*
X028958Y015691D01*
X028926Y015711D01*
X028897Y015734D01*
X028871Y015760D01*
X028848Y015789D01*
X028828Y015820D01*
X028811Y015854D01*
X028797Y015888D01*
X028788Y015924D01*
X028782Y015961D01*
X028780Y015998D01*
X031284Y012001D02*
X031286Y012038D01*
X031292Y012075D01*
X031301Y012111D01*
X031315Y012145D01*
X031332Y012178D01*
X031352Y012210D01*
X031375Y012239D01*
X031401Y012265D01*
X031430Y012288D01*
X031461Y012308D01*
X031495Y012325D01*
X031529Y012339D01*
X031565Y012348D01*
X031602Y012354D01*
X031639Y012356D01*
X031676Y012354D01*
X031713Y012348D01*
X031749Y012339D01*
X031783Y012325D01*
X031816Y012308D01*
X031848Y012288D01*
X031877Y012265D01*
X031903Y012239D01*
X031926Y012210D01*
X031946Y012179D01*
X031963Y012145D01*
X031977Y012111D01*
X031986Y012075D01*
X031992Y012038D01*
X031994Y012001D01*
X031992Y011964D01*
X031986Y011927D01*
X031977Y011891D01*
X031963Y011857D01*
X031946Y011824D01*
X031926Y011792D01*
X031903Y011763D01*
X031877Y011737D01*
X031848Y011714D01*
X031817Y011694D01*
X031783Y011677D01*
X031749Y011663D01*
X031713Y011654D01*
X031676Y011648D01*
X031639Y011646D01*
X031602Y011648D01*
X031565Y011654D01*
X031529Y011663D01*
X031495Y011677D01*
X031462Y011694D01*
X031430Y011714D01*
X031401Y011737D01*
X031375Y011763D01*
X031352Y011792D01*
X031332Y011823D01*
X031315Y011857D01*
X031301Y011891D01*
X031292Y011927D01*
X031286Y011964D01*
X031284Y012001D01*
X028780Y009498D02*
X028782Y009535D01*
X028788Y009572D01*
X028797Y009608D01*
X028811Y009642D01*
X028828Y009675D01*
X028848Y009707D01*
X028871Y009736D01*
X028897Y009762D01*
X028926Y009785D01*
X028957Y009805D01*
X028991Y009822D01*
X029025Y009836D01*
X029061Y009845D01*
X029098Y009851D01*
X029135Y009853D01*
X029172Y009851D01*
X029209Y009845D01*
X029245Y009836D01*
X029279Y009822D01*
X029312Y009805D01*
X029344Y009785D01*
X029373Y009762D01*
X029399Y009736D01*
X029422Y009707D01*
X029442Y009676D01*
X029459Y009642D01*
X029473Y009608D01*
X029482Y009572D01*
X029488Y009535D01*
X029490Y009498D01*
X029488Y009461D01*
X029482Y009424D01*
X029473Y009388D01*
X029459Y009354D01*
X029442Y009321D01*
X029422Y009289D01*
X029399Y009260D01*
X029373Y009234D01*
X029344Y009211D01*
X029313Y009191D01*
X029279Y009174D01*
X029245Y009160D01*
X029209Y009151D01*
X029172Y009145D01*
X029135Y009143D01*
X029098Y009145D01*
X029061Y009151D01*
X029025Y009160D01*
X028991Y009174D01*
X028958Y009191D01*
X028926Y009211D01*
X028897Y009234D01*
X028871Y009260D01*
X028848Y009289D01*
X028828Y009320D01*
X028811Y009354D01*
X028797Y009388D01*
X028788Y009424D01*
X028782Y009461D01*
X028780Y009498D01*
X031284Y005501D02*
X031286Y005538D01*
X031292Y005575D01*
X031301Y005611D01*
X031315Y005645D01*
X031332Y005678D01*
X031352Y005710D01*
X031375Y005739D01*
X031401Y005765D01*
X031430Y005788D01*
X031461Y005808D01*
X031495Y005825D01*
X031529Y005839D01*
X031565Y005848D01*
X031602Y005854D01*
X031639Y005856D01*
X031676Y005854D01*
X031713Y005848D01*
X031749Y005839D01*
X031783Y005825D01*
X031816Y005808D01*
X031848Y005788D01*
X031877Y005765D01*
X031903Y005739D01*
X031926Y005710D01*
X031946Y005679D01*
X031963Y005645D01*
X031977Y005611D01*
X031986Y005575D01*
X031992Y005538D01*
X031994Y005501D01*
X031992Y005464D01*
X031986Y005427D01*
X031977Y005391D01*
X031963Y005357D01*
X031946Y005324D01*
X031926Y005292D01*
X031903Y005263D01*
X031877Y005237D01*
X031848Y005214D01*
X031817Y005194D01*
X031783Y005177D01*
X031749Y005163D01*
X031713Y005154D01*
X031676Y005148D01*
X031639Y005146D01*
X031602Y005148D01*
X031565Y005154D01*
X031529Y005163D01*
X031495Y005177D01*
X031462Y005194D01*
X031430Y005214D01*
X031401Y005237D01*
X031375Y005263D01*
X031352Y005292D01*
X031332Y005323D01*
X031315Y005357D01*
X031301Y005391D01*
X031292Y005427D01*
X031286Y005464D01*
X031284Y005501D01*
X028780Y002998D02*
X028782Y003035D01*
X028788Y003072D01*
X028797Y003108D01*
X028811Y003142D01*
X028828Y003175D01*
X028848Y003207D01*
X028871Y003236D01*
X028897Y003262D01*
X028926Y003285D01*
X028957Y003305D01*
X028991Y003322D01*
X029025Y003336D01*
X029061Y003345D01*
X029098Y003351D01*
X029135Y003353D01*
X029172Y003351D01*
X029209Y003345D01*
X029245Y003336D01*
X029279Y003322D01*
X029312Y003305D01*
X029344Y003285D01*
X029373Y003262D01*
X029399Y003236D01*
X029422Y003207D01*
X029442Y003176D01*
X029459Y003142D01*
X029473Y003108D01*
X029482Y003072D01*
X029488Y003035D01*
X029490Y002998D01*
X029488Y002961D01*
X029482Y002924D01*
X029473Y002888D01*
X029459Y002854D01*
X029442Y002821D01*
X029422Y002789D01*
X029399Y002760D01*
X029373Y002734D01*
X029344Y002711D01*
X029313Y002691D01*
X029279Y002674D01*
X029245Y002660D01*
X029209Y002651D01*
X029172Y002645D01*
X029135Y002643D01*
X029098Y002645D01*
X029061Y002651D01*
X029025Y002660D01*
X028991Y002674D01*
X028958Y002691D01*
X028926Y002711D01*
X028897Y002734D01*
X028871Y002760D01*
X028848Y002789D01*
X028828Y002820D01*
X028811Y002854D01*
X028797Y002888D01*
X028788Y002924D01*
X028782Y002961D01*
X028780Y002998D01*
X035124Y020624D02*
X035126Y020647D01*
X035132Y020670D01*
X035142Y020691D01*
X035155Y020711D01*
X035171Y020728D01*
X035190Y020742D01*
X035211Y020752D01*
X035233Y020759D01*
X035256Y020762D01*
X035280Y020761D01*
X035302Y020756D01*
X035324Y020747D01*
X035344Y020735D01*
X035362Y020719D01*
X035376Y020701D01*
X035388Y020681D01*
X035396Y020659D01*
X035400Y020636D01*
X035400Y020612D01*
X035396Y020589D01*
X035388Y020567D01*
X035376Y020547D01*
X035362Y020529D01*
X035344Y020513D01*
X035324Y020501D01*
X035302Y020492D01*
X035280Y020487D01*
X035256Y020486D01*
X035233Y020489D01*
X035211Y020496D01*
X035190Y020506D01*
X035171Y020520D01*
X035155Y020537D01*
X035142Y020557D01*
X035132Y020578D01*
X035126Y020601D01*
X035124Y020624D01*
X035624Y020624D02*
X035626Y020647D01*
X035632Y020670D01*
X035642Y020691D01*
X035655Y020711D01*
X035671Y020728D01*
X035690Y020742D01*
X035711Y020752D01*
X035733Y020759D01*
X035756Y020762D01*
X035780Y020761D01*
X035802Y020756D01*
X035824Y020747D01*
X035844Y020735D01*
X035862Y020719D01*
X035876Y020701D01*
X035888Y020681D01*
X035896Y020659D01*
X035900Y020636D01*
X035900Y020612D01*
X035896Y020589D01*
X035888Y020567D01*
X035876Y020547D01*
X035862Y020529D01*
X035844Y020513D01*
X035824Y020501D01*
X035802Y020492D01*
X035780Y020487D01*
X035756Y020486D01*
X035733Y020489D01*
X035711Y020496D01*
X035690Y020506D01*
X035671Y020520D01*
X035655Y020537D01*
X035642Y020557D01*
X035632Y020578D01*
X035626Y020601D01*
X035624Y020624D01*
X036124Y020624D02*
X036126Y020647D01*
X036132Y020670D01*
X036142Y020691D01*
X036155Y020711D01*
X036171Y020728D01*
X036190Y020742D01*
X036211Y020752D01*
X036233Y020759D01*
X036256Y020762D01*
X036280Y020761D01*
X036302Y020756D01*
X036324Y020747D01*
X036344Y020735D01*
X036362Y020719D01*
X036376Y020701D01*
X036388Y020681D01*
X036396Y020659D01*
X036400Y020636D01*
X036400Y020612D01*
X036396Y020589D01*
X036388Y020567D01*
X036376Y020547D01*
X036362Y020529D01*
X036344Y020513D01*
X036324Y020501D01*
X036302Y020492D01*
X036280Y020487D01*
X036256Y020486D01*
X036233Y020489D01*
X036211Y020496D01*
X036190Y020506D01*
X036171Y020520D01*
X036155Y020537D01*
X036142Y020557D01*
X036132Y020578D01*
X036126Y020601D01*
X036124Y020624D01*
X036387Y020999D02*
X036389Y020955D01*
X036395Y020912D01*
X036404Y020870D01*
X036417Y020828D01*
X036434Y020788D01*
X036454Y020749D01*
X036477Y020712D01*
X036504Y020678D01*
X036533Y020645D01*
X036566Y020616D01*
X036600Y020589D01*
X036637Y020566D01*
X036676Y020546D01*
X036716Y020529D01*
X036758Y020516D01*
X036800Y020507D01*
X036843Y020501D01*
X036887Y020499D01*
X036124Y021374D02*
X036126Y021397D01*
X036132Y021420D01*
X036142Y021441D01*
X036155Y021461D01*
X036171Y021478D01*
X036190Y021492D01*
X036211Y021502D01*
X036233Y021509D01*
X036256Y021512D01*
X036280Y021511D01*
X036302Y021506D01*
X036324Y021497D01*
X036344Y021485D01*
X036362Y021469D01*
X036376Y021451D01*
X036388Y021431D01*
X036396Y021409D01*
X036400Y021386D01*
X036400Y021362D01*
X036396Y021339D01*
X036388Y021317D01*
X036376Y021297D01*
X036362Y021279D01*
X036344Y021263D01*
X036324Y021251D01*
X036302Y021242D01*
X036280Y021237D01*
X036256Y021236D01*
X036233Y021239D01*
X036211Y021246D01*
X036190Y021256D01*
X036171Y021270D01*
X036155Y021287D01*
X036142Y021307D01*
X036132Y021328D01*
X036126Y021351D01*
X036124Y021374D01*
X035624Y021374D02*
X035626Y021397D01*
X035632Y021420D01*
X035642Y021441D01*
X035655Y021461D01*
X035671Y021478D01*
X035690Y021492D01*
X035711Y021502D01*
X035733Y021509D01*
X035756Y021512D01*
X035780Y021511D01*
X035802Y021506D01*
X035824Y021497D01*
X035844Y021485D01*
X035862Y021469D01*
X035876Y021451D01*
X035888Y021431D01*
X035896Y021409D01*
X035900Y021386D01*
X035900Y021362D01*
X035896Y021339D01*
X035888Y021317D01*
X035876Y021297D01*
X035862Y021279D01*
X035844Y021263D01*
X035824Y021251D01*
X035802Y021242D01*
X035780Y021237D01*
X035756Y021236D01*
X035733Y021239D01*
X035711Y021246D01*
X035690Y021256D01*
X035671Y021270D01*
X035655Y021287D01*
X035642Y021307D01*
X035632Y021328D01*
X035626Y021351D01*
X035624Y021374D01*
X035124Y021374D02*
X035126Y021397D01*
X035132Y021420D01*
X035142Y021441D01*
X035155Y021461D01*
X035171Y021478D01*
X035190Y021492D01*
X035211Y021502D01*
X035233Y021509D01*
X035256Y021512D01*
X035280Y021511D01*
X035302Y021506D01*
X035324Y021497D01*
X035344Y021485D01*
X035362Y021469D01*
X035376Y021451D01*
X035388Y021431D01*
X035396Y021409D01*
X035400Y021386D01*
X035400Y021362D01*
X035396Y021339D01*
X035388Y021317D01*
X035376Y021297D01*
X035362Y021279D01*
X035344Y021263D01*
X035324Y021251D01*
X035302Y021242D01*
X035280Y021237D01*
X035256Y021236D01*
X035233Y021239D01*
X035211Y021246D01*
X035190Y021256D01*
X035171Y021270D01*
X035155Y021287D01*
X035142Y021307D01*
X035132Y021328D01*
X035126Y021351D01*
X035124Y021374D01*
X034624Y021374D02*
X034626Y021397D01*
X034632Y021420D01*
X034642Y021441D01*
X034655Y021461D01*
X034671Y021478D01*
X034690Y021492D01*
X034711Y021502D01*
X034733Y021509D01*
X034756Y021512D01*
X034780Y021511D01*
X034802Y021506D01*
X034824Y021497D01*
X034844Y021485D01*
X034862Y021469D01*
X034876Y021451D01*
X034888Y021431D01*
X034896Y021409D01*
X034900Y021386D01*
X034900Y021362D01*
X034896Y021339D01*
X034888Y021317D01*
X034876Y021297D01*
X034862Y021279D01*
X034844Y021263D01*
X034824Y021251D01*
X034802Y021242D01*
X034780Y021237D01*
X034756Y021236D01*
X034733Y021239D01*
X034711Y021246D01*
X034690Y021256D01*
X034671Y021270D01*
X034655Y021287D01*
X034642Y021307D01*
X034632Y021328D01*
X034626Y021351D01*
X034624Y021374D01*
X034637Y020999D02*
X034635Y020955D01*
X034629Y020912D01*
X034620Y020870D01*
X034607Y020828D01*
X034590Y020788D01*
X034570Y020749D01*
X034547Y020712D01*
X034520Y020678D01*
X034491Y020645D01*
X034458Y020616D01*
X034424Y020589D01*
X034387Y020566D01*
X034348Y020546D01*
X034308Y020529D01*
X034266Y020516D01*
X034224Y020507D01*
X034181Y020501D01*
X034137Y020499D01*
X026584Y035499D02*
X026586Y035544D01*
X026592Y035588D01*
X026601Y035632D01*
X026615Y035674D01*
X026632Y035715D01*
X026653Y035755D01*
X026677Y035793D01*
X026704Y035828D01*
X026734Y035861D01*
X026767Y035891D01*
X026802Y035918D01*
X026840Y035942D01*
X026880Y035963D01*
X026921Y035980D01*
X026963Y035994D01*
X027007Y036003D01*
X027051Y036009D01*
X027096Y036011D01*
X027141Y036009D01*
X027185Y036003D01*
X027229Y035994D01*
X027271Y035980D01*
X027312Y035963D01*
X027352Y035942D01*
X027390Y035918D01*
X027425Y035891D01*
X027458Y035861D01*
X027488Y035828D01*
X027515Y035793D01*
X027539Y035755D01*
X027560Y035715D01*
X027577Y035674D01*
X027591Y035632D01*
X027600Y035588D01*
X027606Y035544D01*
X027608Y035499D01*
X027606Y035454D01*
X027600Y035410D01*
X027591Y035366D01*
X027577Y035324D01*
X027560Y035283D01*
X027539Y035243D01*
X027515Y035205D01*
X027488Y035170D01*
X027458Y035137D01*
X027425Y035107D01*
X027390Y035080D01*
X027352Y035056D01*
X027312Y035035D01*
X027271Y035018D01*
X027229Y035004D01*
X027185Y034995D01*
X027141Y034989D01*
X027096Y034987D01*
X027051Y034989D01*
X027007Y034995D01*
X026963Y035004D01*
X026921Y035018D01*
X026880Y035035D01*
X026840Y035056D01*
X026802Y035080D01*
X026767Y035107D01*
X026734Y035137D01*
X026704Y035170D01*
X026677Y035205D01*
X026653Y035243D01*
X026632Y035283D01*
X026615Y035324D01*
X026601Y035366D01*
X026592Y035410D01*
X026586Y035454D01*
X026584Y035499D01*
X015166Y035499D02*
X015168Y035544D01*
X015174Y035588D01*
X015183Y035632D01*
X015197Y035674D01*
X015214Y035715D01*
X015235Y035755D01*
X015259Y035793D01*
X015286Y035828D01*
X015316Y035861D01*
X015349Y035891D01*
X015384Y035918D01*
X015422Y035942D01*
X015462Y035963D01*
X015503Y035980D01*
X015545Y035994D01*
X015589Y036003D01*
X015633Y036009D01*
X015678Y036011D01*
X015723Y036009D01*
X015767Y036003D01*
X015811Y035994D01*
X015853Y035980D01*
X015894Y035963D01*
X015934Y035942D01*
X015972Y035918D01*
X016007Y035891D01*
X016040Y035861D01*
X016070Y035828D01*
X016097Y035793D01*
X016121Y035755D01*
X016142Y035715D01*
X016159Y035674D01*
X016173Y035632D01*
X016182Y035588D01*
X016188Y035544D01*
X016190Y035499D01*
X016188Y035454D01*
X016182Y035410D01*
X016173Y035366D01*
X016159Y035324D01*
X016142Y035283D01*
X016121Y035243D01*
X016097Y035205D01*
X016070Y035170D01*
X016040Y035137D01*
X016007Y035107D01*
X015972Y035080D01*
X015934Y035056D01*
X015894Y035035D01*
X015853Y035018D01*
X015811Y035004D01*
X015767Y034995D01*
X015723Y034989D01*
X015678Y034987D01*
X015633Y034989D01*
X015589Y034995D01*
X015545Y035004D01*
X015503Y035018D01*
X015462Y035035D01*
X015422Y035056D01*
X015384Y035080D01*
X015349Y035107D01*
X015316Y035137D01*
X015286Y035170D01*
X015259Y035205D01*
X015235Y035243D01*
X015214Y035283D01*
X015197Y035324D01*
X015183Y035366D01*
X015174Y035410D01*
X015168Y035454D01*
X015166Y035499D01*
X012336Y037749D02*
X012338Y037796D01*
X012344Y037842D01*
X012354Y037888D01*
X012367Y037933D01*
X012385Y037976D01*
X012406Y038018D01*
X012430Y038058D01*
X012458Y038095D01*
X012489Y038130D01*
X012523Y038163D01*
X012559Y038192D01*
X012598Y038218D01*
X012639Y038241D01*
X012682Y038260D01*
X012726Y038276D01*
X012771Y038288D01*
X012817Y038296D01*
X012864Y038300D01*
X012910Y038300D01*
X012957Y038296D01*
X013003Y038288D01*
X013048Y038276D01*
X013092Y038260D01*
X013135Y038241D01*
X013176Y038218D01*
X013215Y038192D01*
X013251Y038163D01*
X013285Y038130D01*
X013316Y038095D01*
X013344Y038058D01*
X013368Y038018D01*
X013389Y037976D01*
X013407Y037933D01*
X013420Y037888D01*
X013430Y037842D01*
X013436Y037796D01*
X013438Y037749D01*
X013436Y037702D01*
X013430Y037656D01*
X013420Y037610D01*
X013407Y037565D01*
X013389Y037522D01*
X013368Y037480D01*
X013344Y037440D01*
X013316Y037403D01*
X013285Y037368D01*
X013251Y037335D01*
X013215Y037306D01*
X013176Y037280D01*
X013135Y037257D01*
X013092Y037238D01*
X013048Y037222D01*
X013003Y037210D01*
X012957Y037202D01*
X012910Y037198D01*
X012864Y037198D01*
X012817Y037202D01*
X012771Y037210D01*
X012726Y037222D01*
X012682Y037238D01*
X012639Y037257D01*
X012598Y037280D01*
X012559Y037306D01*
X012523Y037335D01*
X012489Y037368D01*
X012458Y037403D01*
X012430Y037440D01*
X012406Y037480D01*
X012385Y037522D01*
X012367Y037565D01*
X012354Y037610D01*
X012344Y037656D01*
X012338Y037702D01*
X012336Y037749D01*
X005336Y037749D02*
X005338Y037796D01*
X005344Y037842D01*
X005354Y037888D01*
X005367Y037933D01*
X005385Y037976D01*
X005406Y038018D01*
X005430Y038058D01*
X005458Y038095D01*
X005489Y038130D01*
X005523Y038163D01*
X005559Y038192D01*
X005598Y038218D01*
X005639Y038241D01*
X005682Y038260D01*
X005726Y038276D01*
X005771Y038288D01*
X005817Y038296D01*
X005864Y038300D01*
X005910Y038300D01*
X005957Y038296D01*
X006003Y038288D01*
X006048Y038276D01*
X006092Y038260D01*
X006135Y038241D01*
X006176Y038218D01*
X006215Y038192D01*
X006251Y038163D01*
X006285Y038130D01*
X006316Y038095D01*
X006344Y038058D01*
X006368Y038018D01*
X006389Y037976D01*
X006407Y037933D01*
X006420Y037888D01*
X006430Y037842D01*
X006436Y037796D01*
X006438Y037749D01*
X006436Y037702D01*
X006430Y037656D01*
X006420Y037610D01*
X006407Y037565D01*
X006389Y037522D01*
X006368Y037480D01*
X006344Y037440D01*
X006316Y037403D01*
X006285Y037368D01*
X006251Y037335D01*
X006215Y037306D01*
X006176Y037280D01*
X006135Y037257D01*
X006092Y037238D01*
X006048Y037222D01*
X006003Y037210D01*
X005957Y037202D01*
X005910Y037198D01*
X005864Y037198D01*
X005817Y037202D01*
X005771Y037210D01*
X005726Y037222D01*
X005682Y037238D01*
X005639Y037257D01*
X005598Y037280D01*
X005559Y037306D01*
X005523Y037335D01*
X005489Y037368D01*
X005458Y037403D01*
X005430Y037440D01*
X005406Y037480D01*
X005385Y037522D01*
X005367Y037565D01*
X005354Y037610D01*
X005344Y037656D01*
X005338Y037702D01*
X005336Y037749D01*
D11*
X005887Y037749D03*
X012887Y037749D03*
X009387Y024999D03*
D12*
X006762Y021374D03*
X006262Y021374D03*
X005762Y021374D03*
X005262Y021374D03*
X005262Y020624D03*
X005762Y020624D03*
X006262Y020624D03*
X006762Y020624D03*
X020762Y020624D03*
X021262Y020624D03*
X021762Y020624D03*
X022262Y020624D03*
X022262Y021374D03*
X021762Y021374D03*
X021262Y021374D03*
X020762Y021374D03*
X034762Y021374D03*
X035262Y021374D03*
X035762Y021374D03*
X036262Y021374D03*
X036262Y020624D03*
X035762Y020624D03*
X035262Y020624D03*
X034762Y020624D03*
D13*
X034137Y020631D02*
X036887Y020631D01*
X034137Y020631D01*
X034137Y020630D02*
X036887Y020630D01*
X036887Y020629D02*
X034137Y020629D01*
X034137Y020628D02*
X036887Y020628D01*
X036887Y020627D02*
X034137Y020627D01*
X034137Y020626D02*
X036887Y020626D01*
X036887Y020625D02*
X034137Y020625D01*
X034137Y020624D02*
X036887Y020624D01*
X036887Y020623D02*
X034137Y020623D01*
X034137Y020622D02*
X036887Y020622D01*
X036887Y020621D02*
X034137Y020621D01*
X034137Y020620D02*
X036887Y020620D01*
X036887Y020619D02*
X034137Y020619D01*
X034137Y020618D02*
X036887Y020618D01*
X036887Y020617D02*
X034137Y020617D01*
X034137Y020616D02*
X036887Y020616D01*
X036887Y020615D02*
X034137Y020615D01*
X034137Y020614D02*
X036887Y020614D01*
X034137Y020614D01*
X034137Y020613D02*
X036887Y020613D01*
X036887Y020612D02*
X034137Y020612D01*
X034137Y020611D02*
X036887Y020611D01*
X036887Y020610D02*
X034137Y020610D01*
X034137Y020609D02*
X036887Y020609D01*
X036887Y020608D02*
X034137Y020608D01*
X034137Y020607D02*
X036887Y020607D01*
X036887Y020606D02*
X034137Y020606D01*
X034137Y020605D02*
X036887Y020605D01*
X036887Y020604D02*
X034137Y020604D01*
X034137Y020603D02*
X036887Y020603D01*
X036887Y020602D02*
X034137Y020602D01*
X034137Y020601D02*
X036887Y020601D01*
X036887Y020600D02*
X034137Y020600D01*
X034137Y020599D02*
X036887Y020599D01*
X036887Y020598D02*
X034137Y020598D01*
X034137Y020597D02*
X036887Y020597D01*
X034137Y020597D01*
X034137Y020596D02*
X036887Y020596D01*
X036887Y020595D02*
X034137Y020595D01*
X034137Y020594D02*
X036887Y020594D01*
X036887Y020593D02*
X034137Y020593D01*
X034137Y020592D02*
X036887Y020592D01*
X036887Y020591D02*
X034137Y020591D01*
X034137Y020590D02*
X036887Y020590D01*
X036887Y020589D02*
X034137Y020589D01*
X034137Y020588D02*
X036887Y020588D01*
X036887Y020587D02*
X034137Y020587D01*
X034137Y020586D02*
X036887Y020586D01*
X036887Y020585D02*
X034137Y020585D01*
X034137Y020584D02*
X036887Y020584D01*
X036887Y020583D02*
X034137Y020583D01*
X034137Y020582D02*
X036887Y020582D01*
X036887Y020581D02*
X034137Y020581D01*
X034137Y020580D02*
X036887Y020580D01*
X034137Y020580D01*
X034137Y020579D02*
X036887Y020579D01*
X036887Y020578D02*
X034137Y020578D01*
X034137Y020577D02*
X036887Y020577D01*
X036887Y020576D02*
X034137Y020576D01*
X034137Y020575D02*
X036887Y020575D01*
X036887Y020574D02*
X034137Y020574D01*
X034137Y020573D02*
X036887Y020573D01*
X036887Y020572D02*
X034137Y020572D01*
X034137Y020571D02*
X036887Y020571D01*
X036887Y020570D02*
X034137Y020570D01*
X034137Y020569D02*
X036887Y020569D01*
X036887Y020568D02*
X034137Y020568D01*
X034137Y020567D02*
X036887Y020567D01*
X036887Y020566D02*
X034137Y020566D01*
X034137Y020565D02*
X036887Y020565D01*
X036887Y020564D02*
X034137Y020564D01*
X034137Y020563D02*
X036887Y020563D01*
X034137Y020563D01*
X034137Y020562D02*
X036887Y020562D01*
X036887Y020561D02*
X034137Y020561D01*
X034137Y020560D02*
X036887Y020560D01*
X036887Y020559D02*
X034137Y020559D01*
X034137Y020558D02*
X036887Y020558D01*
X036887Y020557D02*
X034137Y020557D01*
X034137Y020556D02*
X036887Y020556D01*
X036887Y020555D02*
X034137Y020555D01*
X034137Y020554D02*
X036887Y020554D01*
X036887Y020553D02*
X034137Y020553D01*
X034137Y020552D02*
X036887Y020552D01*
X036887Y020551D02*
X034137Y020551D01*
X034137Y020550D02*
X036887Y020550D01*
X036887Y020549D02*
X034137Y020549D01*
X034137Y020548D02*
X036887Y020548D01*
X036887Y020547D02*
X034137Y020547D01*
X034137Y020546D02*
X036887Y020546D01*
X034137Y020546D01*
X034137Y020545D02*
X036887Y020545D01*
X036887Y020544D02*
X034137Y020544D01*
X034137Y020543D02*
X036887Y020543D01*
X036887Y020542D02*
X034137Y020542D01*
X034137Y020541D02*
X036887Y020541D01*
X036887Y020540D02*
X034137Y020540D01*
X034137Y020539D02*
X036887Y020539D01*
X036887Y020538D02*
X034137Y020538D01*
X034137Y020537D02*
X036887Y020537D01*
X036887Y020536D02*
X034137Y020536D01*
X034137Y020535D02*
X036887Y020535D01*
X036887Y020534D02*
X034137Y020534D01*
X034137Y020533D02*
X036887Y020533D01*
X036887Y020532D02*
X034137Y020532D01*
X034137Y020531D02*
X036887Y020531D01*
X036887Y020530D02*
X034137Y020530D01*
X034137Y020529D02*
X036887Y020529D01*
X034137Y020529D01*
X034137Y020528D02*
X036887Y020528D01*
X036887Y020527D02*
X034137Y020527D01*
X034137Y020526D02*
X036887Y020526D01*
X036887Y020525D02*
X034137Y020525D01*
X034137Y020524D02*
X036887Y020524D01*
X036887Y020523D02*
X034137Y020523D01*
X034137Y020522D02*
X036887Y020522D01*
X036887Y020521D02*
X034137Y020521D01*
X034137Y020520D02*
X036887Y020520D01*
X036887Y020519D02*
X034137Y020519D01*
X034137Y020518D02*
X036887Y020518D01*
X036887Y020517D02*
X034137Y020517D01*
X034137Y020516D02*
X036887Y020516D01*
X036887Y020515D02*
X034137Y020515D01*
X034137Y020514D02*
X036887Y020514D01*
X036887Y020513D02*
X034137Y020513D01*
X034137Y020512D02*
X036887Y020512D01*
X036887Y020511D02*
X034137Y020511D01*
X036887Y020511D01*
X036887Y020510D02*
X034137Y020510D01*
X034137Y020509D02*
X036887Y020509D01*
X036887Y020508D02*
X034137Y020508D01*
X034137Y020507D02*
X036887Y020507D01*
X036887Y020506D02*
X034137Y020506D01*
X034137Y020505D02*
X036887Y020505D01*
X036887Y020504D02*
X034137Y020504D01*
X034137Y020503D02*
X036887Y020503D01*
X036887Y020502D02*
X034137Y020502D01*
X034137Y020501D02*
X036887Y020501D01*
X036887Y020500D02*
X034137Y020500D01*
X034137Y020499D02*
X036887Y020499D01*
X036887Y020632D02*
X034137Y020632D01*
X034137Y020633D02*
X036887Y020633D01*
X036887Y020634D02*
X034137Y020634D01*
X034137Y020635D02*
X036887Y020635D01*
X036887Y020636D02*
X034137Y020636D01*
X034137Y020637D02*
X036887Y020637D01*
X036887Y020638D02*
X034137Y020638D01*
X034137Y020639D02*
X036887Y020639D01*
X036887Y020640D02*
X034137Y020640D01*
X034137Y020641D02*
X036887Y020641D01*
X036887Y020642D02*
X034137Y020642D01*
X034137Y020643D02*
X036887Y020643D01*
X036887Y020644D02*
X034137Y020644D01*
X034137Y020645D02*
X036887Y020645D01*
X036887Y020646D02*
X034137Y020646D01*
X034137Y020647D02*
X036887Y020647D01*
X036887Y020648D02*
X034137Y020648D01*
X034137Y020649D02*
X036887Y020649D01*
X034137Y020649D01*
X034137Y020650D02*
X036887Y020650D01*
X036887Y020651D02*
X034137Y020651D01*
X034137Y020652D02*
X036887Y020652D01*
X036887Y020653D02*
X034137Y020653D01*
X034137Y020654D02*
X036887Y020654D01*
X036887Y020655D02*
X034137Y020655D01*
X034137Y020656D02*
X036887Y020656D01*
X036887Y020657D02*
X034137Y020657D01*
X034137Y020658D02*
X036887Y020658D01*
X036887Y020659D02*
X034137Y020659D01*
X034137Y020660D02*
X036887Y020660D01*
X036887Y020661D02*
X034137Y020661D01*
X034137Y020662D02*
X036887Y020662D01*
X036887Y020663D02*
X034137Y020663D01*
X034137Y020664D02*
X036887Y020664D01*
X036887Y020665D02*
X034137Y020665D01*
X034137Y020666D02*
X036887Y020666D01*
X034137Y020666D01*
X034137Y020667D02*
X036887Y020667D01*
X036887Y020668D02*
X034137Y020668D01*
X034137Y020669D02*
X036887Y020669D01*
X036887Y020670D02*
X034137Y020670D01*
X034137Y020671D02*
X036887Y020671D01*
X036887Y020672D02*
X034137Y020672D01*
X034137Y020673D02*
X036887Y020673D01*
X036887Y020674D02*
X034137Y020674D01*
X034137Y020675D02*
X036887Y020675D01*
X036887Y020676D02*
X034137Y020676D01*
X034137Y020677D02*
X036887Y020677D01*
X036887Y020678D02*
X034137Y020678D01*
X034137Y020679D02*
X036887Y020679D01*
X036887Y020680D02*
X034137Y020680D01*
X034137Y020681D02*
X036887Y020681D01*
X036887Y020682D02*
X034137Y020682D01*
X034137Y020683D02*
X036887Y020683D01*
X034137Y020683D01*
X034137Y020684D02*
X036887Y020684D01*
X036887Y020685D02*
X034137Y020685D01*
X034137Y020686D02*
X036887Y020686D01*
X036887Y020687D02*
X034137Y020687D01*
X034137Y020688D02*
X036887Y020688D01*
X036887Y020689D02*
X034137Y020689D01*
X034137Y020690D02*
X036887Y020690D01*
X036887Y020691D02*
X034137Y020691D01*
X034137Y020692D02*
X036887Y020692D01*
X036887Y020693D02*
X034137Y020693D01*
X034137Y020694D02*
X036887Y020694D01*
X036887Y020695D02*
X034137Y020695D01*
X034137Y020696D02*
X036887Y020696D01*
X036887Y020697D02*
X034137Y020697D01*
X034137Y020698D02*
X036887Y020698D01*
X036887Y020699D02*
X034137Y020699D01*
X034137Y020700D02*
X036887Y020700D01*
X034137Y020700D01*
X034137Y020701D02*
X036887Y020701D01*
X036887Y020702D02*
X034137Y020702D01*
X034137Y020703D02*
X036887Y020703D01*
X036887Y020704D02*
X034137Y020704D01*
X034137Y020705D02*
X036887Y020705D01*
X036887Y020706D02*
X034137Y020706D01*
X034137Y020707D02*
X036887Y020707D01*
X036887Y020708D02*
X034137Y020708D01*
X034137Y020709D02*
X036887Y020709D01*
X036887Y020710D02*
X034137Y020710D01*
X034137Y020711D02*
X036887Y020711D01*
X036887Y020712D02*
X034137Y020712D01*
X034137Y020713D02*
X036887Y020713D01*
X036887Y020714D02*
X034137Y020714D01*
X034137Y020715D02*
X036887Y020715D01*
X036887Y020716D02*
X034137Y020716D01*
X034137Y020717D02*
X036887Y020717D01*
X034137Y020717D01*
X034137Y020718D02*
X036887Y020718D01*
X036887Y020719D02*
X034137Y020719D01*
X034137Y020720D02*
X036887Y020720D01*
X036887Y020721D02*
X034137Y020721D01*
X034137Y020722D02*
X036887Y020722D01*
X036887Y020723D02*
X034137Y020723D01*
X034137Y020724D02*
X036887Y020724D01*
X036887Y020725D02*
X034137Y020725D01*
X034137Y020726D02*
X036887Y020726D01*
X036887Y020727D02*
X034137Y020727D01*
X034137Y020728D02*
X036887Y020728D01*
X036887Y020729D02*
X034137Y020729D01*
X034137Y020730D02*
X036887Y020730D01*
X036887Y020731D02*
X034137Y020731D01*
X034137Y020732D02*
X036887Y020732D01*
X036887Y020733D02*
X034137Y020733D01*
X034137Y020734D02*
X036887Y020734D01*
X034137Y020734D01*
X034137Y020735D02*
X036887Y020735D01*
X036887Y020736D02*
X034137Y020736D01*
X034137Y020737D02*
X036887Y020737D01*
X036887Y020738D02*
X034137Y020738D01*
X034137Y020739D02*
X036887Y020739D01*
X036887Y020740D02*
X034137Y020740D01*
X034137Y020741D02*
X036887Y020741D01*
X036887Y020742D02*
X034137Y020742D01*
X034137Y020743D02*
X036887Y020743D01*
X036887Y020744D02*
X034137Y020744D01*
X034137Y020745D02*
X036887Y020745D01*
X036887Y020746D02*
X034137Y020746D01*
X034137Y020747D02*
X036887Y020747D01*
X036887Y020748D02*
X034137Y020748D01*
X034137Y020749D02*
X036887Y020749D01*
X036887Y020750D02*
X034137Y020750D01*
X034137Y020751D02*
X036887Y020751D01*
X034137Y020751D01*
X034137Y020752D02*
X036887Y020752D01*
X036887Y020753D02*
X034137Y020753D01*
X034137Y020754D02*
X036887Y020754D01*
X036887Y020755D02*
X034137Y020755D01*
X034137Y020756D02*
X036887Y020756D01*
X036887Y020757D02*
X034137Y020757D01*
X034137Y020758D02*
X036887Y020758D01*
X036887Y020759D02*
X034137Y020759D01*
X034137Y020760D02*
X036887Y020760D01*
X036887Y020761D02*
X034137Y020761D01*
X034137Y020762D02*
X036887Y020762D01*
X036887Y020763D02*
X034137Y020763D01*
X034137Y020764D02*
X036887Y020764D01*
X036887Y020765D02*
X034137Y020765D01*
X034137Y020766D02*
X036887Y020766D01*
X036887Y020767D02*
X034137Y020767D01*
X034137Y020768D02*
X036887Y020768D01*
X036887Y020769D02*
X034137Y020769D01*
X036887Y020769D01*
X036887Y020770D02*
X034137Y020770D01*
X034137Y020771D02*
X036887Y020771D01*
X036887Y020772D02*
X034137Y020772D01*
X034137Y020773D02*
X036887Y020773D01*
X036887Y020774D02*
X034137Y020774D01*
X034137Y020775D02*
X036887Y020775D01*
X036887Y020776D02*
X034137Y020776D01*
X034137Y020777D02*
X036887Y020777D01*
X036887Y020778D02*
X034137Y020778D01*
X034137Y020779D02*
X036887Y020779D01*
X036887Y020780D02*
X034137Y020780D01*
X034137Y020781D02*
X036887Y020781D01*
X036887Y020782D02*
X034137Y020782D01*
X034137Y020783D02*
X036887Y020783D01*
X036887Y020784D02*
X034137Y020784D01*
X034137Y020785D02*
X036887Y020785D01*
X036887Y020786D02*
X034137Y020786D01*
X036887Y020786D01*
X036887Y020787D02*
X034137Y020787D01*
X034137Y020788D02*
X036887Y020788D01*
X036887Y020789D02*
X034137Y020789D01*
X034137Y020790D02*
X036887Y020790D01*
X036887Y020791D02*
X034137Y020791D01*
X034137Y020792D02*
X036887Y020792D01*
X036887Y020793D02*
X034137Y020793D01*
X034137Y020794D02*
X036887Y020794D01*
X036887Y020795D02*
X034137Y020795D01*
X034137Y020796D02*
X036887Y020796D01*
X036887Y020797D02*
X034137Y020797D01*
X034137Y020798D02*
X036887Y020798D01*
X036887Y020799D02*
X034137Y020799D01*
X034137Y020800D02*
X036887Y020800D01*
X036887Y020801D02*
X034137Y020801D01*
X034137Y020802D02*
X036887Y020802D01*
X036887Y020803D02*
X034137Y020803D01*
X036887Y020803D01*
X036887Y020804D02*
X034137Y020804D01*
X034137Y020805D02*
X036887Y020805D01*
X036887Y020806D02*
X034137Y020806D01*
X034137Y020807D02*
X036887Y020807D01*
X036887Y020808D02*
X034137Y020808D01*
X034137Y020809D02*
X036887Y020809D01*
X036887Y020810D02*
X034137Y020810D01*
X034137Y020811D02*
X036887Y020811D01*
X036887Y020812D02*
X034137Y020812D01*
X034137Y020813D02*
X036887Y020813D01*
X036887Y020814D02*
X034137Y020814D01*
X034137Y020815D02*
X036887Y020815D01*
X036887Y020816D02*
X034137Y020816D01*
X034137Y020817D02*
X036887Y020817D01*
X036887Y020818D02*
X034137Y020818D01*
X034137Y020819D02*
X036887Y020819D01*
X036887Y020820D02*
X034137Y020820D01*
X036887Y020820D01*
X036887Y020821D02*
X034137Y020821D01*
X034137Y020822D02*
X036887Y020822D01*
X036887Y020823D02*
X034137Y020823D01*
X034137Y020824D02*
X036887Y020824D01*
X036887Y020825D02*
X034137Y020825D01*
X034137Y020826D02*
X036887Y020826D01*
X036887Y020827D02*
X034137Y020827D01*
X034137Y020828D02*
X036887Y020828D01*
X036887Y020829D02*
X034137Y020829D01*
X034137Y020830D02*
X036887Y020830D01*
X036887Y020831D02*
X034137Y020831D01*
X034137Y020832D02*
X036887Y020832D01*
X036887Y020833D02*
X034137Y020833D01*
X034137Y020834D02*
X036887Y020834D01*
X036887Y020835D02*
X034137Y020835D01*
X034137Y020836D02*
X036887Y020836D01*
X036887Y020837D02*
X034137Y020837D01*
X036887Y020837D01*
X036887Y020838D02*
X034137Y020838D01*
X034137Y020839D02*
X036887Y020839D01*
X036887Y020840D02*
X034137Y020840D01*
X034137Y020841D02*
X036887Y020841D01*
X036887Y020842D02*
X034137Y020842D01*
X034137Y020843D02*
X036887Y020843D01*
X036887Y020844D02*
X034137Y020844D01*
X034137Y020845D02*
X036887Y020845D01*
X036887Y020846D02*
X034137Y020846D01*
X034137Y020847D02*
X036887Y020847D01*
X036887Y020848D02*
X034137Y020848D01*
X034137Y020849D02*
X036887Y020849D01*
X036887Y020850D02*
X034137Y020850D01*
X034137Y020851D02*
X036887Y020851D01*
X036887Y020852D02*
X034137Y020852D01*
X034137Y020853D02*
X036887Y020853D01*
X036887Y020854D02*
X034137Y020854D01*
X036887Y020854D01*
X036887Y020855D02*
X034137Y020855D01*
X034137Y020856D02*
X036887Y020856D01*
X036887Y020857D02*
X034137Y020857D01*
X034137Y020858D02*
X036887Y020858D01*
X036887Y020859D02*
X034137Y020859D01*
X034137Y020860D02*
X036887Y020860D01*
X036887Y020861D02*
X034137Y020861D01*
X034137Y020862D02*
X036887Y020862D01*
X036887Y020863D02*
X034137Y020863D01*
X034137Y020864D02*
X036887Y020864D01*
X036887Y020865D02*
X034137Y020865D01*
X034137Y020866D02*
X036887Y020866D01*
X036887Y020867D02*
X034137Y020867D01*
X034137Y020868D02*
X036887Y020868D01*
X036887Y020869D02*
X034137Y020869D01*
X034137Y020870D02*
X036887Y020870D01*
X036887Y020871D02*
X034137Y020871D01*
X036887Y020871D01*
X036887Y020872D02*
X034137Y020872D01*
X034137Y020873D02*
X036887Y020873D01*
X036887Y020874D02*
X034137Y020874D01*
X034137Y020875D02*
X036887Y020875D01*
X036887Y020876D02*
X034137Y020876D01*
X034137Y020877D02*
X036887Y020877D01*
X036887Y020878D02*
X034137Y020878D01*
X034137Y020879D02*
X036887Y020879D01*
X036887Y020880D02*
X034137Y020880D01*
X034137Y020881D02*
X036887Y020881D01*
X036887Y020882D02*
X034137Y020882D01*
X034137Y020883D02*
X036887Y020883D01*
X036887Y020884D02*
X034137Y020884D01*
X034137Y020885D02*
X036887Y020885D01*
X036887Y020886D02*
X034137Y020886D01*
X034137Y020887D02*
X036887Y020887D01*
X036887Y020888D02*
X034137Y020888D01*
X034137Y020889D02*
X036887Y020889D01*
X034137Y020889D01*
X034137Y020890D02*
X036887Y020890D01*
X036887Y020891D02*
X034137Y020891D01*
X034137Y020892D02*
X036887Y020892D01*
X036887Y020893D02*
X034137Y020893D01*
X034137Y020894D02*
X036887Y020894D01*
X036887Y020895D02*
X034137Y020895D01*
X034137Y020896D02*
X036887Y020896D01*
X036887Y020897D02*
X034137Y020897D01*
X034137Y020898D02*
X036887Y020898D01*
X036887Y020899D02*
X034137Y020899D01*
X034137Y020900D02*
X036887Y020900D01*
X036887Y020901D02*
X034137Y020901D01*
X034137Y020902D02*
X036887Y020902D01*
X036887Y020903D02*
X034137Y020903D01*
X034137Y020904D02*
X036887Y020904D01*
X036887Y020905D02*
X034137Y020905D01*
X034137Y020906D02*
X036887Y020906D01*
X034137Y020906D01*
X034137Y020907D02*
X036887Y020907D01*
X036887Y020908D02*
X034137Y020908D01*
X034137Y020909D02*
X036887Y020909D01*
X036887Y020910D02*
X034137Y020910D01*
X034137Y020911D02*
X036887Y020911D01*
X036887Y020912D02*
X034137Y020912D01*
X034137Y020913D02*
X036887Y020913D01*
X036887Y020914D02*
X034137Y020914D01*
X034137Y020915D02*
X036887Y020915D01*
X036887Y020916D02*
X034137Y020916D01*
X034137Y020917D02*
X036887Y020917D01*
X036887Y020918D02*
X034137Y020918D01*
X034137Y020919D02*
X036887Y020919D01*
X036887Y020920D02*
X034137Y020920D01*
X034137Y020921D02*
X036887Y020921D01*
X036887Y020922D02*
X034137Y020922D01*
X034137Y020923D02*
X036887Y020923D01*
X034137Y020923D01*
X034137Y020924D02*
X036887Y020924D01*
X036887Y020925D02*
X034137Y020925D01*
X034137Y020926D02*
X036887Y020926D01*
X036887Y020927D02*
X034137Y020927D01*
X034137Y020928D02*
X036887Y020928D01*
X036887Y020929D02*
X034137Y020929D01*
X034137Y020930D02*
X036887Y020930D01*
X036887Y020931D02*
X034137Y020931D01*
X034137Y020932D02*
X036887Y020932D01*
X036887Y020933D02*
X034137Y020933D01*
X034137Y020934D02*
X036887Y020934D01*
X036887Y020935D02*
X034137Y020935D01*
X034137Y020936D02*
X036887Y020936D01*
X036887Y020937D02*
X034137Y020937D01*
X034137Y020938D02*
X036887Y020938D01*
X036887Y020939D02*
X034137Y020939D01*
X034137Y020940D02*
X036887Y020940D01*
X034137Y020940D01*
X034137Y020941D02*
X036887Y020941D01*
X036887Y020942D02*
X034137Y020942D01*
X034137Y020943D02*
X036887Y020943D01*
X036887Y020944D02*
X034137Y020944D01*
X034137Y020945D02*
X036887Y020945D01*
X036887Y020946D02*
X034137Y020946D01*
X034137Y020947D02*
X036887Y020947D01*
X036887Y020948D02*
X034137Y020948D01*
X034137Y020949D02*
X036887Y020949D01*
X036887Y020950D02*
X034137Y020950D01*
X034137Y020951D02*
X036887Y020951D01*
X036887Y020952D02*
X034137Y020952D01*
X034137Y020953D02*
X036887Y020953D01*
X036887Y020954D02*
X034137Y020954D01*
X034137Y020955D02*
X036887Y020955D01*
X036887Y020956D02*
X034137Y020956D01*
X034137Y020957D02*
X036887Y020957D01*
X034137Y020957D01*
X034137Y020958D02*
X036887Y020958D01*
X036887Y020959D02*
X034137Y020959D01*
X034137Y020960D02*
X036887Y020960D01*
X036887Y020961D02*
X034137Y020961D01*
X034137Y020962D02*
X036887Y020962D01*
X036887Y020963D02*
X034137Y020963D01*
X034137Y020964D02*
X036887Y020964D01*
X036887Y020965D02*
X034137Y020965D01*
X034137Y020966D02*
X036887Y020966D01*
X036887Y020967D02*
X034137Y020967D01*
X034137Y020968D02*
X036887Y020968D01*
X036887Y020969D02*
X034137Y020969D01*
X034137Y020970D02*
X036887Y020970D01*
X036887Y020971D02*
X034137Y020971D01*
X034137Y020972D02*
X036887Y020972D01*
X036887Y020973D02*
X034137Y020973D01*
X034137Y020974D02*
X036887Y020974D01*
X034137Y020974D01*
X034137Y020975D02*
X036887Y020975D01*
X036887Y020976D02*
X034137Y020976D01*
X034137Y020977D02*
X036887Y020977D01*
X036887Y020978D02*
X034137Y020978D01*
X034137Y020979D02*
X036887Y020979D01*
X036887Y020980D02*
X034137Y020980D01*
X034137Y020981D02*
X036887Y020981D01*
X036887Y020982D02*
X034137Y020982D01*
X034137Y020983D02*
X036887Y020983D01*
X036887Y020984D02*
X034137Y020984D01*
X034137Y020985D02*
X036887Y020985D01*
X036887Y020986D02*
X034137Y020986D01*
X034137Y020987D02*
X036887Y020987D01*
X036887Y020988D02*
X034137Y020988D01*
X034137Y020989D02*
X036887Y020989D01*
X036887Y020990D02*
X034137Y020990D01*
X034137Y020991D02*
X036887Y020991D01*
X034137Y020991D01*
X034137Y020992D02*
X036887Y020992D01*
X036887Y020993D02*
X034137Y020993D01*
X034137Y020994D02*
X036887Y020994D01*
X036887Y020995D02*
X034137Y020995D01*
X034137Y020996D02*
X036887Y020996D01*
X036887Y020997D02*
X034137Y020997D01*
X034137Y020998D02*
X036887Y020998D01*
X036887Y020999D02*
X034137Y020999D01*
X034137Y021000D02*
X036887Y021000D01*
X036887Y021001D02*
X034137Y021001D01*
X034137Y021002D02*
X036887Y021002D01*
X036887Y021003D02*
X034137Y021003D01*
X034137Y021004D02*
X036887Y021004D01*
X036887Y021005D02*
X034137Y021005D01*
X034137Y021006D02*
X036887Y021006D01*
X036887Y021007D02*
X034137Y021007D01*
X034137Y021008D02*
X036887Y021008D01*
X036887Y021009D02*
X034137Y021009D01*
X036887Y021009D01*
X036887Y021010D02*
X034137Y021010D01*
X034137Y021011D02*
X036887Y021011D01*
X036887Y021012D02*
X034137Y021012D01*
X034137Y021013D02*
X036887Y021013D01*
X036887Y021014D02*
X034137Y021014D01*
X034137Y021015D02*
X036887Y021015D01*
X036887Y021016D02*
X034137Y021016D01*
X034137Y021017D02*
X036887Y021017D01*
X036887Y021018D02*
X034137Y021018D01*
X034137Y021019D02*
X036887Y021019D01*
X036887Y021020D02*
X034137Y021020D01*
X034137Y021021D02*
X036887Y021021D01*
X036887Y021022D02*
X034137Y021022D01*
X034137Y021023D02*
X036887Y021023D01*
X036887Y021024D02*
X034137Y021024D01*
X034137Y021025D02*
X036887Y021025D01*
X036887Y021026D02*
X034137Y021026D01*
X036887Y021026D01*
X036887Y021027D02*
X034137Y021027D01*
X034137Y021028D02*
X036887Y021028D01*
X036887Y021029D02*
X034137Y021029D01*
X034137Y021030D02*
X036887Y021030D01*
X036887Y021031D02*
X034137Y021031D01*
X034137Y021032D02*
X036887Y021032D01*
X036887Y021033D02*
X034137Y021033D01*
X034137Y021034D02*
X036887Y021034D01*
X036887Y021035D02*
X034137Y021035D01*
X034137Y021036D02*
X036887Y021036D01*
X036887Y021037D02*
X034137Y021037D01*
X034137Y021038D02*
X036887Y021038D01*
X036887Y021039D02*
X034137Y021039D01*
X034137Y021040D02*
X036887Y021040D01*
X036887Y021041D02*
X034137Y021041D01*
X034137Y021042D02*
X036887Y021042D01*
X036887Y021043D02*
X034137Y021043D01*
X036887Y021043D01*
X036887Y021044D02*
X034137Y021044D01*
X034137Y021045D02*
X036887Y021045D01*
X036887Y021046D02*
X034137Y021046D01*
X034137Y021047D02*
X036887Y021047D01*
X036887Y021048D02*
X034137Y021048D01*
X034137Y021049D02*
X036887Y021049D01*
X036887Y021050D02*
X034137Y021050D01*
X034137Y021051D02*
X036887Y021051D01*
X036887Y021052D02*
X034137Y021052D01*
X034137Y021053D02*
X036887Y021053D01*
X036887Y021054D02*
X034137Y021054D01*
X034137Y021055D02*
X036887Y021055D01*
X036887Y021056D02*
X034137Y021056D01*
X034137Y021057D02*
X036887Y021057D01*
X036887Y021058D02*
X034137Y021058D01*
X034137Y021059D02*
X036887Y021059D01*
X036887Y021060D02*
X034137Y021060D01*
X036887Y021060D01*
X036887Y021061D02*
X034137Y021061D01*
X034137Y021062D02*
X036887Y021062D01*
X036887Y021063D02*
X034137Y021063D01*
X034137Y021064D02*
X036887Y021064D01*
X036887Y021065D02*
X034137Y021065D01*
X034137Y021066D02*
X036887Y021066D01*
X036887Y021067D02*
X034137Y021067D01*
X034137Y021068D02*
X036887Y021068D01*
X036887Y021069D02*
X034137Y021069D01*
X034137Y021070D02*
X036887Y021070D01*
X036887Y021071D02*
X034137Y021071D01*
X034137Y021072D02*
X036887Y021072D01*
X036887Y021073D02*
X034137Y021073D01*
X034137Y021074D02*
X036887Y021074D01*
X036887Y021075D02*
X034137Y021075D01*
X034137Y021076D02*
X036887Y021076D01*
X036887Y021077D02*
X034137Y021077D01*
X036887Y021077D01*
X036887Y021078D02*
X034137Y021078D01*
X034137Y021079D02*
X036887Y021079D01*
X036887Y021080D02*
X034137Y021080D01*
X034137Y021081D02*
X036887Y021081D01*
X036887Y021082D02*
X034137Y021082D01*
X034137Y021083D02*
X036887Y021083D01*
X036887Y021084D02*
X034137Y021084D01*
X034137Y021085D02*
X036887Y021085D01*
X036887Y021086D02*
X034137Y021086D01*
X034137Y021087D02*
X036887Y021087D01*
X036887Y021088D02*
X034137Y021088D01*
X034137Y021089D02*
X036887Y021089D01*
X036887Y021090D02*
X034137Y021090D01*
X034137Y021091D02*
X036887Y021091D01*
X036887Y021092D02*
X034137Y021092D01*
X034137Y021093D02*
X036887Y021093D01*
X036887Y021094D02*
X034137Y021094D01*
X036887Y021094D01*
X036887Y021095D02*
X034137Y021095D01*
X034137Y021096D02*
X036887Y021096D01*
X036887Y021097D02*
X034137Y021097D01*
X034137Y021098D02*
X036887Y021098D01*
X036887Y021099D02*
X034137Y021099D01*
X034137Y021100D02*
X036887Y021100D01*
X036887Y021101D02*
X034137Y021101D01*
X034137Y021102D02*
X036887Y021102D01*
X036887Y021103D02*
X034137Y021103D01*
X034137Y021104D02*
X036887Y021104D01*
X036887Y021105D02*
X034137Y021105D01*
X034137Y021106D02*
X036887Y021106D01*
X036887Y021107D02*
X034137Y021107D01*
X034137Y021108D02*
X036887Y021108D01*
X036887Y021109D02*
X034137Y021109D01*
X034137Y021110D02*
X036887Y021110D01*
X036887Y021111D02*
X034137Y021111D01*
X036887Y021111D01*
X036887Y021112D02*
X034137Y021112D01*
X034137Y021113D02*
X036887Y021113D01*
X036887Y021114D02*
X034137Y021114D01*
X034137Y021115D02*
X036887Y021115D01*
X036887Y021116D02*
X034137Y021116D01*
X034137Y021117D02*
X036887Y021117D01*
X036887Y021118D02*
X034137Y021118D01*
X034137Y021119D02*
X036887Y021119D01*
X036887Y021120D02*
X034137Y021120D01*
X034137Y021121D02*
X036887Y021121D01*
X036887Y021122D02*
X034137Y021122D01*
X034137Y021123D02*
X036887Y021123D01*
X036887Y021124D02*
X034137Y021124D01*
X034137Y021125D02*
X036887Y021125D01*
X036887Y021126D02*
X034137Y021126D01*
X034137Y021127D02*
X036887Y021127D01*
X036887Y021128D02*
X034137Y021128D01*
X034137Y021129D02*
X036887Y021129D01*
X034137Y021129D01*
X034137Y021130D02*
X036887Y021130D01*
X036887Y021131D02*
X034137Y021131D01*
X034137Y021132D02*
X036887Y021132D01*
X036887Y021133D02*
X034137Y021133D01*
X034137Y021134D02*
X036887Y021134D01*
X036887Y021135D02*
X034137Y021135D01*
X034137Y021136D02*
X036887Y021136D01*
X036887Y021137D02*
X034137Y021137D01*
X034137Y021138D02*
X036887Y021138D01*
X036887Y021139D02*
X034137Y021139D01*
X034137Y021140D02*
X036887Y021140D01*
X036887Y021141D02*
X034137Y021141D01*
X034137Y021142D02*
X036887Y021142D01*
X036887Y021143D02*
X034137Y021143D01*
X034137Y021144D02*
X036887Y021144D01*
X036887Y021145D02*
X034137Y021145D01*
X034137Y021146D02*
X036887Y021146D01*
X034137Y021146D01*
X034137Y021147D02*
X036887Y021147D01*
X036887Y021148D02*
X034137Y021148D01*
X034137Y021149D02*
X036887Y021149D01*
X036887Y021150D02*
X034137Y021150D01*
X034137Y021151D02*
X036887Y021151D01*
X036887Y021152D02*
X034137Y021152D01*
X034137Y021153D02*
X036887Y021153D01*
X036887Y021154D02*
X034137Y021154D01*
X034137Y021155D02*
X036887Y021155D01*
X036887Y021156D02*
X034137Y021156D01*
X034137Y021157D02*
X036887Y021157D01*
X036887Y021158D02*
X034137Y021158D01*
X034137Y021159D02*
X036887Y021159D01*
X036887Y021160D02*
X034137Y021160D01*
X034137Y021161D02*
X036887Y021161D01*
X036887Y021162D02*
X034137Y021162D01*
X034137Y021163D02*
X036887Y021163D01*
X034137Y021163D01*
X034137Y021164D02*
X036887Y021164D01*
X036887Y021165D02*
X034137Y021165D01*
X034137Y021166D02*
X036887Y021166D01*
X036887Y021167D02*
X034137Y021167D01*
X034137Y021168D02*
X036887Y021168D01*
X036887Y021169D02*
X034137Y021169D01*
X034137Y021170D02*
X036887Y021170D01*
X036887Y021171D02*
X034137Y021171D01*
X034137Y021172D02*
X036887Y021172D01*
X036887Y021173D02*
X034137Y021173D01*
X034137Y021174D02*
X036887Y021174D01*
X036887Y021175D02*
X034137Y021175D01*
X034137Y021176D02*
X036887Y021176D01*
X036887Y021177D02*
X034137Y021177D01*
X034137Y021178D02*
X036887Y021178D01*
X036887Y021179D02*
X034137Y021179D01*
X034137Y021180D02*
X036887Y021180D01*
X034137Y021180D01*
X034137Y021181D02*
X036887Y021181D01*
X036887Y021182D02*
X034137Y021182D01*
X034137Y021183D02*
X036887Y021183D01*
X036887Y021184D02*
X034137Y021184D01*
X034137Y021185D02*
X036887Y021185D01*
X036887Y021186D02*
X034137Y021186D01*
X034137Y021187D02*
X036887Y021187D01*
X036887Y021188D02*
X034137Y021188D01*
X034137Y021189D02*
X036887Y021189D01*
X036887Y021190D02*
X034137Y021190D01*
X034137Y021191D02*
X036887Y021191D01*
X036887Y021192D02*
X034137Y021192D01*
X034137Y021193D02*
X036887Y021193D01*
X036887Y021194D02*
X034137Y021194D01*
X034137Y021195D02*
X036887Y021195D01*
X036887Y021196D02*
X034137Y021196D01*
X034137Y021197D02*
X036887Y021197D01*
X034137Y021197D01*
X034137Y021198D02*
X036887Y021198D01*
X036887Y021199D02*
X034137Y021199D01*
X034137Y021200D02*
X036887Y021200D01*
X036887Y021201D02*
X034137Y021201D01*
X034137Y021202D02*
X036887Y021202D01*
X036887Y021203D02*
X034137Y021203D01*
X034137Y021204D02*
X036887Y021204D01*
X036887Y021205D02*
X034137Y021205D01*
X034137Y021206D02*
X036887Y021206D01*
X036887Y021207D02*
X034137Y021207D01*
X034137Y021208D02*
X036887Y021208D01*
X036887Y021209D02*
X034137Y021209D01*
X034137Y021210D02*
X036887Y021210D01*
X036887Y021211D02*
X034137Y021211D01*
X034137Y021212D02*
X036887Y021212D01*
X036887Y021213D02*
X034137Y021213D01*
X034137Y021214D02*
X036887Y021214D01*
X034137Y021214D01*
X034137Y021215D02*
X036887Y021215D01*
X036887Y021216D02*
X034137Y021216D01*
X034137Y021217D02*
X036887Y021217D01*
X036887Y021218D02*
X034137Y021218D01*
X034137Y021219D02*
X036887Y021219D01*
X036887Y021220D02*
X034137Y021220D01*
X034137Y021221D02*
X036887Y021221D01*
X036887Y021222D02*
X034137Y021222D01*
X034137Y021223D02*
X036887Y021223D01*
X036887Y021224D02*
X034137Y021224D01*
X034137Y021225D02*
X036887Y021225D01*
X036887Y021226D02*
X034137Y021226D01*
X034137Y021227D02*
X036887Y021227D01*
X036887Y021228D02*
X034137Y021228D01*
X034137Y021229D02*
X036887Y021229D01*
X036887Y021230D02*
X034137Y021230D01*
X034137Y021231D02*
X036887Y021231D01*
X034137Y021231D01*
X034137Y021232D02*
X036887Y021232D01*
X036887Y021233D02*
X034137Y021233D01*
X034137Y021234D02*
X036887Y021234D01*
X036887Y021235D02*
X034137Y021235D01*
X034137Y021236D02*
X036887Y021236D01*
X036887Y021237D02*
X034137Y021237D01*
X034137Y021238D02*
X036887Y021238D01*
X036887Y021239D02*
X034137Y021239D01*
X034137Y021240D02*
X036887Y021240D01*
X036887Y021241D02*
X034137Y021241D01*
X034137Y021242D02*
X036887Y021242D01*
X036887Y021243D02*
X034137Y021243D01*
X034137Y021244D02*
X036887Y021244D01*
X036887Y021245D02*
X034137Y021245D01*
X034137Y021246D02*
X036887Y021246D01*
X036887Y021247D02*
X034137Y021247D01*
X034137Y021248D02*
X036887Y021248D01*
X036887Y021249D02*
X034137Y021249D01*
X036887Y021249D01*
X036887Y021250D02*
X034137Y021250D01*
X034137Y021251D02*
X036887Y021251D01*
X036887Y021252D02*
X034137Y021252D01*
X034137Y021253D02*
X036887Y021253D01*
X036887Y021254D02*
X034137Y021254D01*
X034137Y021255D02*
X036887Y021255D01*
X036887Y021256D02*
X034137Y021256D01*
X034137Y021257D02*
X036887Y021257D01*
X036887Y021258D02*
X034137Y021258D01*
X034137Y021259D02*
X036887Y021259D01*
X036887Y021260D02*
X034137Y021260D01*
X034137Y021261D02*
X036887Y021261D01*
X036887Y021262D02*
X034137Y021262D01*
X034137Y021263D02*
X036887Y021263D01*
X036887Y021264D02*
X034137Y021264D01*
X034137Y021265D02*
X036887Y021265D01*
X036887Y021266D02*
X034137Y021266D01*
X036887Y021266D01*
X036887Y021267D02*
X034137Y021267D01*
X034137Y021268D02*
X036887Y021268D01*
X036887Y021269D02*
X034137Y021269D01*
X034137Y021270D02*
X036887Y021270D01*
X036887Y021271D02*
X034137Y021271D01*
X034137Y021272D02*
X036887Y021272D01*
X036887Y021273D02*
X034137Y021273D01*
X034137Y021274D02*
X036887Y021274D01*
X036887Y021275D02*
X034137Y021275D01*
X034137Y021276D02*
X036887Y021276D01*
X036887Y021277D02*
X034137Y021277D01*
X034137Y021278D02*
X036887Y021278D01*
X036887Y021279D02*
X034137Y021279D01*
X034137Y021280D02*
X036887Y021280D01*
X036887Y021281D02*
X034137Y021281D01*
X034137Y021282D02*
X036887Y021282D01*
X036887Y021283D02*
X034137Y021283D01*
X036887Y021283D01*
X036887Y021284D02*
X034137Y021284D01*
X034137Y021285D02*
X036887Y021285D01*
X036887Y021286D02*
X034137Y021286D01*
X034137Y021287D02*
X036887Y021287D01*
X036887Y021288D02*
X034137Y021288D01*
X034137Y021289D02*
X036887Y021289D01*
X036887Y021290D02*
X034137Y021290D01*
X034137Y021291D02*
X036887Y021291D01*
X036887Y021292D02*
X034137Y021292D01*
X034137Y021293D02*
X036887Y021293D01*
X036887Y021294D02*
X034137Y021294D01*
X034137Y021295D02*
X036887Y021295D01*
X036887Y021296D02*
X034137Y021296D01*
X034137Y021297D02*
X036887Y021297D01*
X036887Y021298D02*
X034137Y021298D01*
X034137Y021299D02*
X036887Y021299D01*
X036887Y021300D02*
X034137Y021300D01*
X036887Y021300D01*
X036887Y021301D02*
X034137Y021301D01*
X034137Y021302D02*
X036887Y021302D01*
X036887Y021303D02*
X034137Y021303D01*
X034137Y021304D02*
X036887Y021304D01*
X036887Y021305D02*
X034137Y021305D01*
X034137Y021306D02*
X036887Y021306D01*
X036887Y021307D02*
X034137Y021307D01*
X034137Y021308D02*
X036887Y021308D01*
X036887Y021309D02*
X034137Y021309D01*
X034137Y021310D02*
X036887Y021310D01*
X036887Y021311D02*
X034137Y021311D01*
X034137Y021312D02*
X036887Y021312D01*
X036887Y021313D02*
X034137Y021313D01*
X034137Y021314D02*
X036887Y021314D01*
X036887Y021315D02*
X034137Y021315D01*
X034137Y021316D02*
X036887Y021316D01*
X036887Y021317D02*
X034137Y021317D01*
X036887Y021317D01*
X036887Y021318D02*
X034137Y021318D01*
X034137Y021319D02*
X036887Y021319D01*
X036887Y021320D02*
X034137Y021320D01*
X034137Y021321D02*
X036887Y021321D01*
X036887Y021322D02*
X034137Y021322D01*
X034137Y021323D02*
X036887Y021323D01*
X036887Y021324D02*
X034137Y021324D01*
X034137Y021325D02*
X036887Y021325D01*
X036887Y021326D02*
X034137Y021326D01*
X034137Y021327D02*
X036887Y021327D01*
X036887Y021328D02*
X034137Y021328D01*
X034137Y021329D02*
X036887Y021329D01*
X036887Y021330D02*
X034137Y021330D01*
X034137Y021331D02*
X036887Y021331D01*
X036887Y021332D02*
X034137Y021332D01*
X034137Y021333D02*
X036887Y021333D01*
X036887Y021334D02*
X034137Y021334D01*
X036887Y021334D01*
X036887Y021335D02*
X034137Y021335D01*
X034137Y021336D02*
X036887Y021336D01*
X036887Y021337D02*
X034137Y021337D01*
X034137Y021338D02*
X036887Y021338D01*
X036887Y021339D02*
X034137Y021339D01*
X034137Y021340D02*
X036887Y021340D01*
X036887Y021341D02*
X034137Y021341D01*
X034137Y021342D02*
X036887Y021342D01*
X036887Y021343D02*
X034137Y021343D01*
X034137Y021344D02*
X036887Y021344D01*
X036887Y021345D02*
X034137Y021345D01*
X034137Y021346D02*
X036887Y021346D01*
X036887Y021347D02*
X034137Y021347D01*
X034137Y021348D02*
X036887Y021348D01*
X036887Y021349D02*
X034137Y021349D01*
X034137Y021350D02*
X036887Y021350D01*
X036887Y021351D02*
X034137Y021351D01*
X036887Y021351D01*
X036887Y021352D02*
X034137Y021352D01*
X034137Y021353D02*
X036887Y021353D01*
X036887Y021354D02*
X034137Y021354D01*
X034137Y021355D02*
X036887Y021355D01*
X036887Y021356D02*
X034137Y021356D01*
X034137Y021357D02*
X036887Y021357D01*
X036887Y021358D02*
X034137Y021358D01*
X034137Y021359D02*
X036887Y021359D01*
X036887Y021360D02*
X034137Y021360D01*
X034137Y021361D02*
X036887Y021361D01*
X036887Y021362D02*
X034137Y021362D01*
X034137Y021363D02*
X036887Y021363D01*
X036887Y021364D02*
X034137Y021364D01*
X034137Y021365D02*
X036887Y021365D01*
X036887Y021366D02*
X034137Y021366D01*
X034137Y021367D02*
X036887Y021367D01*
X036887Y021368D02*
X034137Y021368D01*
X034137Y021369D02*
X036887Y021369D01*
X034137Y021369D01*
X034137Y021370D02*
X036887Y021370D01*
X036887Y021371D02*
X034137Y021371D01*
X034137Y021372D02*
X036887Y021372D01*
X036887Y021373D02*
X034137Y021373D01*
X034137Y021374D02*
X036887Y021374D01*
X036887Y021375D02*
X034137Y021375D01*
X034137Y021376D02*
X036887Y021376D01*
X036887Y021377D02*
X034137Y021377D01*
X034137Y021378D02*
X036887Y021378D01*
X036887Y021379D02*
X034137Y021379D01*
X034137Y021380D02*
X036887Y021380D01*
X036887Y021381D02*
X034137Y021381D01*
X034137Y021382D02*
X036887Y021382D01*
X036887Y021383D02*
X034137Y021383D01*
X034137Y021384D02*
X036887Y021384D01*
X036887Y021385D02*
X034137Y021385D01*
X034137Y021386D02*
X036887Y021386D01*
X034137Y021386D01*
X034137Y021387D02*
X036887Y021387D01*
X036887Y021388D02*
X034137Y021388D01*
X034137Y021389D02*
X036887Y021389D01*
X036887Y021390D02*
X034137Y021390D01*
X034137Y021391D02*
X036887Y021391D01*
X036887Y021392D02*
X034137Y021392D01*
X034137Y021393D02*
X036887Y021393D01*
X036887Y021394D02*
X034137Y021394D01*
X034137Y021395D02*
X036887Y021395D01*
X036887Y021396D02*
X034137Y021396D01*
X034137Y021397D02*
X036887Y021397D01*
X036887Y021398D02*
X034137Y021398D01*
X034137Y021399D02*
X036887Y021399D01*
X036887Y021400D02*
X034137Y021400D01*
X034137Y021401D02*
X036887Y021401D01*
X036887Y021402D02*
X034137Y021402D01*
X034137Y021403D02*
X036887Y021403D01*
X034137Y021403D01*
X034137Y021404D02*
X036887Y021404D01*
X036887Y021405D02*
X034137Y021405D01*
X034137Y021406D02*
X036887Y021406D01*
X036887Y021407D02*
X034137Y021407D01*
X034137Y021408D02*
X036887Y021408D01*
X036887Y021409D02*
X034137Y021409D01*
X034137Y021410D02*
X036887Y021410D01*
X036887Y021411D02*
X034137Y021411D01*
X034137Y021412D02*
X036887Y021412D01*
X036887Y021413D02*
X034137Y021413D01*
X034137Y021414D02*
X036887Y021414D01*
X036887Y021415D02*
X034137Y021415D01*
X034137Y021416D02*
X036887Y021416D01*
X036887Y021417D02*
X034137Y021417D01*
X034137Y021418D02*
X036887Y021418D01*
X036887Y021419D02*
X034137Y021419D01*
X034137Y021420D02*
X036887Y021420D01*
X034137Y021420D01*
X034137Y021421D02*
X036887Y021421D01*
X036887Y021422D02*
X034137Y021422D01*
X034137Y021423D02*
X036887Y021423D01*
X036887Y021424D02*
X034137Y021424D01*
X034137Y021425D02*
X036887Y021425D01*
X036887Y021426D02*
X034137Y021426D01*
X034137Y021427D02*
X036887Y021427D01*
X036887Y021428D02*
X034137Y021428D01*
X034137Y021429D02*
X036887Y021429D01*
X036887Y021430D02*
X034137Y021430D01*
X034137Y021431D02*
X036887Y021431D01*
X036887Y021432D02*
X034137Y021432D01*
X034137Y021433D02*
X036887Y021433D01*
X036887Y021434D02*
X034137Y021434D01*
X034137Y021435D02*
X036887Y021435D01*
X036887Y021436D02*
X034137Y021436D01*
X034137Y021437D02*
X036887Y021437D01*
X034137Y021437D01*
X034137Y021438D02*
X036887Y021438D01*
X036887Y021439D02*
X034137Y021439D01*
X034137Y021440D02*
X036887Y021440D01*
X036887Y021441D02*
X034137Y021441D01*
X034137Y021442D02*
X036887Y021442D01*
X036887Y021443D02*
X034137Y021443D01*
X034137Y021444D02*
X036887Y021444D01*
X036887Y021445D02*
X034137Y021445D01*
X034137Y021446D02*
X036887Y021446D01*
X036887Y021447D02*
X034137Y021447D01*
X034137Y021448D02*
X036887Y021448D01*
X036887Y021449D02*
X034137Y021449D01*
X034137Y021450D02*
X036887Y021450D01*
X036887Y021451D02*
X034137Y021451D01*
X034137Y021452D02*
X036887Y021452D01*
X036887Y021453D02*
X034137Y021453D01*
X034137Y021454D02*
X036887Y021454D01*
X034137Y021454D01*
X034137Y021455D02*
X036887Y021455D01*
X036887Y021456D02*
X034137Y021456D01*
X034137Y021457D02*
X036887Y021457D01*
X036887Y021458D02*
X034137Y021458D01*
X034137Y021459D02*
X036887Y021459D01*
X036887Y021460D02*
X034137Y021460D01*
X034137Y021461D02*
X036887Y021461D01*
X036887Y021462D02*
X034137Y021462D01*
X034137Y021463D02*
X036887Y021463D01*
X036887Y021464D02*
X034137Y021464D01*
X034137Y021465D02*
X036887Y021465D01*
X036887Y021466D02*
X034137Y021466D01*
X034137Y021467D02*
X036887Y021467D01*
X036887Y021468D02*
X034137Y021468D01*
X034137Y021469D02*
X036887Y021469D01*
X036887Y021470D02*
X034137Y021470D01*
X034137Y021471D02*
X036887Y021471D01*
X034137Y021471D01*
X034137Y021472D02*
X036887Y021472D01*
X036887Y021473D02*
X034137Y021473D01*
X034137Y021474D02*
X036887Y021474D01*
X036887Y021475D02*
X034137Y021475D01*
X034137Y021476D02*
X036887Y021476D01*
X036887Y021477D02*
X034137Y021477D01*
X034137Y021478D02*
X036887Y021478D01*
X036887Y021479D02*
X034137Y021479D01*
X034137Y021480D02*
X036887Y021480D01*
X036887Y021481D02*
X034137Y021481D01*
X034137Y021482D02*
X036887Y021482D01*
X036887Y021483D02*
X034137Y021483D01*
X034137Y021484D02*
X036887Y021484D01*
X036887Y021485D02*
X034137Y021485D01*
X034137Y021486D02*
X036887Y021486D01*
X036887Y021487D02*
X034137Y021487D01*
X034137Y021488D02*
X036887Y021488D01*
X036887Y021489D02*
X034137Y021489D01*
X036887Y021489D01*
X036887Y021490D02*
X034137Y021490D01*
X034137Y021491D02*
X036887Y021491D01*
X036887Y021492D02*
X034137Y021492D01*
X034137Y021493D02*
X036887Y021493D01*
X036887Y021494D02*
X034137Y021494D01*
X034137Y021495D02*
X036887Y021495D01*
X036887Y021496D02*
X034137Y021496D01*
X034137Y021497D02*
X036887Y021497D01*
X036887Y021498D02*
X034137Y021498D01*
X034137Y021499D02*
X036887Y021499D01*
X022887Y021499D02*
X020137Y021499D01*
X020137Y021498D02*
X022887Y021498D01*
X022887Y021497D02*
X020137Y021497D01*
X020137Y021496D02*
X022887Y021496D01*
X022887Y021495D02*
X020137Y021495D01*
X020137Y021494D02*
X022887Y021494D01*
X022887Y021493D02*
X020137Y021493D01*
X020137Y021492D02*
X022887Y021492D01*
X022887Y021491D02*
X020137Y021491D01*
X020137Y021490D02*
X022887Y021490D01*
X022887Y021489D02*
X020137Y021489D01*
X022887Y021489D01*
X022887Y021488D02*
X020137Y021488D01*
X020137Y021487D02*
X022887Y021487D01*
X022887Y021486D02*
X020137Y021486D01*
X020137Y021485D02*
X022887Y021485D01*
X022887Y021484D02*
X020137Y021484D01*
X020137Y021483D02*
X022887Y021483D01*
X022887Y021482D02*
X020137Y021482D01*
X020137Y021481D02*
X022887Y021481D01*
X022887Y021480D02*
X020137Y021480D01*
X020137Y021479D02*
X022887Y021479D01*
X022887Y021478D02*
X020137Y021478D01*
X020137Y021477D02*
X022887Y021477D01*
X022887Y021476D02*
X020137Y021476D01*
X020137Y021475D02*
X022887Y021475D01*
X022887Y021474D02*
X020137Y021474D01*
X020137Y021473D02*
X022887Y021473D01*
X022887Y021472D02*
X020137Y021472D01*
X020137Y021471D02*
X022887Y021471D01*
X020137Y021471D01*
X020137Y021470D02*
X022887Y021470D01*
X022887Y021469D02*
X020137Y021469D01*
X020137Y021468D02*
X022887Y021468D01*
X022887Y021467D02*
X020137Y021467D01*
X020137Y021466D02*
X022887Y021466D01*
X022887Y021465D02*
X020137Y021465D01*
X020137Y021464D02*
X022887Y021464D01*
X022887Y021463D02*
X020137Y021463D01*
X020137Y021462D02*
X022887Y021462D01*
X022887Y021461D02*
X020137Y021461D01*
X020137Y021460D02*
X022887Y021460D01*
X022887Y021459D02*
X020137Y021459D01*
X020137Y021458D02*
X022887Y021458D01*
X022887Y021457D02*
X020137Y021457D01*
X020137Y021456D02*
X022887Y021456D01*
X022887Y021455D02*
X020137Y021455D01*
X020137Y021454D02*
X022887Y021454D01*
X020137Y021454D01*
X020137Y021453D02*
X022887Y021453D01*
X022887Y021452D02*
X020137Y021452D01*
X020137Y021451D02*
X022887Y021451D01*
X022887Y021450D02*
X020137Y021450D01*
X020137Y021449D02*
X022887Y021449D01*
X022887Y021448D02*
X020137Y021448D01*
X020137Y021447D02*
X022887Y021447D01*
X022887Y021446D02*
X020137Y021446D01*
X020137Y021445D02*
X022887Y021445D01*
X022887Y021444D02*
X020137Y021444D01*
X020137Y021443D02*
X022887Y021443D01*
X022887Y021442D02*
X020137Y021442D01*
X020137Y021441D02*
X022887Y021441D01*
X022887Y021440D02*
X020137Y021440D01*
X020137Y021439D02*
X022887Y021439D01*
X022887Y021438D02*
X020137Y021438D01*
X020137Y021437D02*
X022887Y021437D01*
X020137Y021437D01*
X020137Y021436D02*
X022887Y021436D01*
X022887Y021435D02*
X020137Y021435D01*
X020137Y021434D02*
X022887Y021434D01*
X022887Y021433D02*
X020137Y021433D01*
X020137Y021432D02*
X022887Y021432D01*
X022887Y021431D02*
X020137Y021431D01*
X020137Y021430D02*
X022887Y021430D01*
X022887Y021429D02*
X020137Y021429D01*
X020137Y021428D02*
X022887Y021428D01*
X022887Y021427D02*
X020137Y021427D01*
X020137Y021426D02*
X022887Y021426D01*
X022887Y021425D02*
X020137Y021425D01*
X020137Y021424D02*
X022887Y021424D01*
X022887Y021423D02*
X020137Y021423D01*
X020137Y021422D02*
X022887Y021422D01*
X022887Y021421D02*
X020137Y021421D01*
X020137Y021420D02*
X022887Y021420D01*
X020137Y021420D01*
X020137Y021419D02*
X022887Y021419D01*
X022887Y021418D02*
X020137Y021418D01*
X020137Y021417D02*
X022887Y021417D01*
X022887Y021416D02*
X020137Y021416D01*
X020137Y021415D02*
X022887Y021415D01*
X022887Y021414D02*
X020137Y021414D01*
X020137Y021413D02*
X022887Y021413D01*
X022887Y021412D02*
X020137Y021412D01*
X020137Y021411D02*
X022887Y021411D01*
X022887Y021410D02*
X020137Y021410D01*
X020137Y021409D02*
X022887Y021409D01*
X022887Y021408D02*
X020137Y021408D01*
X020137Y021407D02*
X022887Y021407D01*
X022887Y021406D02*
X020137Y021406D01*
X020137Y021405D02*
X022887Y021405D01*
X022887Y021404D02*
X020137Y021404D01*
X020137Y021403D02*
X022887Y021403D01*
X020137Y021403D01*
X020137Y021402D02*
X022887Y021402D01*
X022887Y021401D02*
X020137Y021401D01*
X020137Y021400D02*
X022887Y021400D01*
X022887Y021399D02*
X020137Y021399D01*
X020137Y021398D02*
X022887Y021398D01*
X022887Y021397D02*
X020137Y021397D01*
X020137Y021396D02*
X022887Y021396D01*
X022887Y021395D02*
X020137Y021395D01*
X020137Y021394D02*
X022887Y021394D01*
X022887Y021393D02*
X020137Y021393D01*
X020137Y021392D02*
X022887Y021392D01*
X022887Y021391D02*
X020137Y021391D01*
X020137Y021390D02*
X022887Y021390D01*
X022887Y021389D02*
X020137Y021389D01*
X020137Y021388D02*
X022887Y021388D01*
X022887Y021387D02*
X020137Y021387D01*
X020137Y021386D02*
X022887Y021386D01*
X020137Y021386D01*
X020137Y021385D02*
X022887Y021385D01*
X022887Y021384D02*
X020137Y021384D01*
X020137Y021383D02*
X022887Y021383D01*
X022887Y021382D02*
X020137Y021382D01*
X020137Y021381D02*
X022887Y021381D01*
X022887Y021380D02*
X020137Y021380D01*
X020137Y021379D02*
X022887Y021379D01*
X022887Y021378D02*
X020137Y021378D01*
X020137Y021377D02*
X022887Y021377D01*
X022887Y021376D02*
X020137Y021376D01*
X020137Y021375D02*
X022887Y021375D01*
X022887Y021374D02*
X020137Y021374D01*
X020137Y021373D02*
X022887Y021373D01*
X022887Y021372D02*
X020137Y021372D01*
X020137Y021371D02*
X022887Y021371D01*
X022887Y021370D02*
X020137Y021370D01*
X020137Y021369D02*
X022887Y021369D01*
X020137Y021369D01*
X020137Y021368D02*
X022887Y021368D01*
X022887Y021367D02*
X020137Y021367D01*
X020137Y021366D02*
X022887Y021366D01*
X022887Y021365D02*
X020137Y021365D01*
X020137Y021364D02*
X022887Y021364D01*
X022887Y021363D02*
X020137Y021363D01*
X020137Y021362D02*
X022887Y021362D01*
X022887Y021361D02*
X020137Y021361D01*
X020137Y021360D02*
X022887Y021360D01*
X022887Y021359D02*
X020137Y021359D01*
X020137Y021358D02*
X022887Y021358D01*
X022887Y021357D02*
X020137Y021357D01*
X020137Y021356D02*
X022887Y021356D01*
X022887Y021355D02*
X020137Y021355D01*
X020137Y021354D02*
X022887Y021354D01*
X022887Y021353D02*
X020137Y021353D01*
X020137Y021352D02*
X022887Y021352D01*
X022887Y021351D02*
X020137Y021351D01*
X022887Y021351D01*
X022887Y021350D02*
X020137Y021350D01*
X020137Y021349D02*
X022887Y021349D01*
X022887Y021348D02*
X020137Y021348D01*
X020137Y021347D02*
X022887Y021347D01*
X022887Y021346D02*
X020137Y021346D01*
X020137Y021345D02*
X022887Y021345D01*
X022887Y021344D02*
X020137Y021344D01*
X020137Y021343D02*
X022887Y021343D01*
X022887Y021342D02*
X020137Y021342D01*
X020137Y021341D02*
X022887Y021341D01*
X022887Y021340D02*
X020137Y021340D01*
X020137Y021339D02*
X022887Y021339D01*
X022887Y021338D02*
X020137Y021338D01*
X020137Y021337D02*
X022887Y021337D01*
X022887Y021336D02*
X020137Y021336D01*
X020137Y021335D02*
X022887Y021335D01*
X022887Y021334D02*
X020137Y021334D01*
X022887Y021334D01*
X022887Y021333D02*
X020137Y021333D01*
X020137Y021332D02*
X022887Y021332D01*
X022887Y021331D02*
X020137Y021331D01*
X020137Y021330D02*
X022887Y021330D01*
X022887Y021329D02*
X020137Y021329D01*
X020137Y021328D02*
X022887Y021328D01*
X022887Y021327D02*
X020137Y021327D01*
X020137Y021326D02*
X022887Y021326D01*
X022887Y021325D02*
X020137Y021325D01*
X020137Y021324D02*
X022887Y021324D01*
X022887Y021323D02*
X020137Y021323D01*
X020137Y021322D02*
X022887Y021322D01*
X022887Y021321D02*
X020137Y021321D01*
X020137Y021320D02*
X022887Y021320D01*
X022887Y021319D02*
X020137Y021319D01*
X020137Y021318D02*
X022887Y021318D01*
X022887Y021317D02*
X020137Y021317D01*
X022887Y021317D01*
X022887Y021316D02*
X020137Y021316D01*
X020137Y021315D02*
X022887Y021315D01*
X022887Y021314D02*
X020137Y021314D01*
X020137Y021313D02*
X022887Y021313D01*
X022887Y021312D02*
X020137Y021312D01*
X020137Y021311D02*
X022887Y021311D01*
X022887Y021310D02*
X020137Y021310D01*
X020137Y021309D02*
X022887Y021309D01*
X022887Y021308D02*
X020137Y021308D01*
X020137Y021307D02*
X022887Y021307D01*
X022887Y021306D02*
X020137Y021306D01*
X020137Y021305D02*
X022887Y021305D01*
X022887Y021304D02*
X020137Y021304D01*
X020137Y021303D02*
X022887Y021303D01*
X022887Y021302D02*
X020137Y021302D01*
X020137Y021301D02*
X022887Y021301D01*
X022887Y021300D02*
X020137Y021300D01*
X022887Y021300D01*
X022887Y021299D02*
X020137Y021299D01*
X020137Y021298D02*
X022887Y021298D01*
X022887Y021297D02*
X020137Y021297D01*
X020137Y021296D02*
X022887Y021296D01*
X022887Y021295D02*
X020137Y021295D01*
X020137Y021294D02*
X022887Y021294D01*
X022887Y021293D02*
X020137Y021293D01*
X020137Y021292D02*
X022887Y021292D01*
X022887Y021291D02*
X020137Y021291D01*
X020137Y021290D02*
X022887Y021290D01*
X022887Y021289D02*
X020137Y021289D01*
X020137Y021288D02*
X022887Y021288D01*
X022887Y021287D02*
X020137Y021287D01*
X020137Y021286D02*
X022887Y021286D01*
X022887Y021285D02*
X020137Y021285D01*
X020137Y021284D02*
X022887Y021284D01*
X022887Y021283D02*
X020137Y021283D01*
X022887Y021283D01*
X022887Y021282D02*
X020137Y021282D01*
X020137Y021281D02*
X022887Y021281D01*
X022887Y021280D02*
X020137Y021280D01*
X020137Y021279D02*
X022887Y021279D01*
X022887Y021278D02*
X020137Y021278D01*
X020137Y021277D02*
X022887Y021277D01*
X022887Y021276D02*
X020137Y021276D01*
X020137Y021275D02*
X022887Y021275D01*
X022887Y021274D02*
X020137Y021274D01*
X020137Y021273D02*
X022887Y021273D01*
X022887Y021272D02*
X020137Y021272D01*
X020137Y021271D02*
X022887Y021271D01*
X022887Y021270D02*
X020137Y021270D01*
X020137Y021269D02*
X022887Y021269D01*
X022887Y021268D02*
X020137Y021268D01*
X020137Y021267D02*
X022887Y021267D01*
X022887Y021266D02*
X020137Y021266D01*
X022887Y021266D01*
X022887Y021265D02*
X020137Y021265D01*
X020137Y021264D02*
X022887Y021264D01*
X022887Y021263D02*
X020137Y021263D01*
X020137Y021262D02*
X022887Y021262D01*
X022887Y021261D02*
X020137Y021261D01*
X020137Y021260D02*
X022887Y021260D01*
X022887Y021259D02*
X020137Y021259D01*
X020137Y021258D02*
X022887Y021258D01*
X022887Y021257D02*
X020137Y021257D01*
X020137Y021256D02*
X022887Y021256D01*
X022887Y021255D02*
X020137Y021255D01*
X020137Y021254D02*
X022887Y021254D01*
X022887Y021253D02*
X020137Y021253D01*
X020137Y021252D02*
X022887Y021252D01*
X022887Y021251D02*
X020137Y021251D01*
X020137Y021250D02*
X022887Y021250D01*
X022887Y021249D02*
X020137Y021249D01*
X022887Y021249D01*
X022887Y021248D02*
X020137Y021248D01*
X020137Y021247D02*
X022887Y021247D01*
X022887Y021246D02*
X020137Y021246D01*
X020137Y021245D02*
X022887Y021245D01*
X022887Y021244D02*
X020137Y021244D01*
X020137Y021243D02*
X022887Y021243D01*
X022887Y021242D02*
X020137Y021242D01*
X020137Y021241D02*
X022887Y021241D01*
X022887Y021240D02*
X020137Y021240D01*
X020137Y021239D02*
X022887Y021239D01*
X022887Y021238D02*
X020137Y021238D01*
X020137Y021237D02*
X022887Y021237D01*
X022887Y021236D02*
X020137Y021236D01*
X020137Y021235D02*
X022887Y021235D01*
X022887Y021234D02*
X020137Y021234D01*
X020137Y021233D02*
X022887Y021233D01*
X022887Y021232D02*
X020137Y021232D01*
X020137Y021231D02*
X022887Y021231D01*
X020137Y021231D01*
X020137Y021230D02*
X022887Y021230D01*
X022887Y021229D02*
X020137Y021229D01*
X020137Y021228D02*
X022887Y021228D01*
X022887Y021227D02*
X020137Y021227D01*
X020137Y021226D02*
X022887Y021226D01*
X022887Y021225D02*
X020137Y021225D01*
X020137Y021224D02*
X022887Y021224D01*
X022887Y021223D02*
X020137Y021223D01*
X020137Y021222D02*
X022887Y021222D01*
X022887Y021221D02*
X020137Y021221D01*
X020137Y021220D02*
X022887Y021220D01*
X022887Y021219D02*
X020137Y021219D01*
X020137Y021218D02*
X022887Y021218D01*
X022887Y021217D02*
X020137Y021217D01*
X020137Y021216D02*
X022887Y021216D01*
X022887Y021215D02*
X020137Y021215D01*
X020137Y021214D02*
X022887Y021214D01*
X020137Y021214D01*
X020137Y021213D02*
X022887Y021213D01*
X022887Y021212D02*
X020137Y021212D01*
X020137Y021211D02*
X022887Y021211D01*
X022887Y021210D02*
X020137Y021210D01*
X020137Y021209D02*
X022887Y021209D01*
X022887Y021208D02*
X020137Y021208D01*
X020137Y021207D02*
X022887Y021207D01*
X022887Y021206D02*
X020137Y021206D01*
X020137Y021205D02*
X022887Y021205D01*
X022887Y021204D02*
X020137Y021204D01*
X020137Y021203D02*
X022887Y021203D01*
X022887Y021202D02*
X020137Y021202D01*
X020137Y021201D02*
X022887Y021201D01*
X022887Y021200D02*
X020137Y021200D01*
X020137Y021199D02*
X022887Y021199D01*
X022887Y021198D02*
X020137Y021198D01*
X020137Y021197D02*
X022887Y021197D01*
X020137Y021197D01*
X020137Y021196D02*
X022887Y021196D01*
X022887Y021195D02*
X020137Y021195D01*
X020137Y021194D02*
X022887Y021194D01*
X022887Y021193D02*
X020137Y021193D01*
X020137Y021192D02*
X022887Y021192D01*
X022887Y021191D02*
X020137Y021191D01*
X020137Y021190D02*
X022887Y021190D01*
X022887Y021189D02*
X020137Y021189D01*
X020137Y021188D02*
X022887Y021188D01*
X022887Y021187D02*
X020137Y021187D01*
X020137Y021186D02*
X022887Y021186D01*
X022887Y021185D02*
X020137Y021185D01*
X020137Y021184D02*
X022887Y021184D01*
X022887Y021183D02*
X020137Y021183D01*
X020137Y021182D02*
X022887Y021182D01*
X022887Y021181D02*
X020137Y021181D01*
X020137Y021180D02*
X022887Y021180D01*
X020137Y021180D01*
X020137Y021179D02*
X022887Y021179D01*
X022887Y021178D02*
X020137Y021178D01*
X020137Y021177D02*
X022887Y021177D01*
X022887Y021176D02*
X020137Y021176D01*
X020137Y021175D02*
X022887Y021175D01*
X022887Y021174D02*
X020137Y021174D01*
X020137Y021173D02*
X022887Y021173D01*
X022887Y021172D02*
X020137Y021172D01*
X020137Y021171D02*
X022887Y021171D01*
X022887Y021170D02*
X020137Y021170D01*
X020137Y021169D02*
X022887Y021169D01*
X022887Y021168D02*
X020137Y021168D01*
X020137Y021167D02*
X022887Y021167D01*
X022887Y021166D02*
X020137Y021166D01*
X020137Y021165D02*
X022887Y021165D01*
X022887Y021164D02*
X020137Y021164D01*
X020137Y021163D02*
X022887Y021163D01*
X020137Y021163D01*
X020137Y021162D02*
X022887Y021162D01*
X022887Y021161D02*
X020137Y021161D01*
X020137Y021160D02*
X022887Y021160D01*
X022887Y021159D02*
X020137Y021159D01*
X020137Y021158D02*
X022887Y021158D01*
X022887Y021157D02*
X020137Y021157D01*
X020137Y021156D02*
X022887Y021156D01*
X022887Y021155D02*
X020137Y021155D01*
X020137Y021154D02*
X022887Y021154D01*
X022887Y021153D02*
X020137Y021153D01*
X020137Y021152D02*
X022887Y021152D01*
X022887Y021151D02*
X020137Y021151D01*
X020137Y021150D02*
X022887Y021150D01*
X022887Y021149D02*
X020137Y021149D01*
X020137Y021148D02*
X022887Y021148D01*
X022887Y021147D02*
X020137Y021147D01*
X020137Y021146D02*
X022887Y021146D01*
X020137Y021146D01*
X020137Y021145D02*
X022887Y021145D01*
X022887Y021144D02*
X020137Y021144D01*
X020137Y021143D02*
X022887Y021143D01*
X022887Y021142D02*
X020137Y021142D01*
X020137Y021141D02*
X022887Y021141D01*
X022887Y021140D02*
X020137Y021140D01*
X020137Y021139D02*
X022887Y021139D01*
X022887Y021138D02*
X020137Y021138D01*
X020137Y021137D02*
X022887Y021137D01*
X022887Y021136D02*
X020137Y021136D01*
X020137Y021135D02*
X022887Y021135D01*
X022887Y021134D02*
X020137Y021134D01*
X020137Y021133D02*
X022887Y021133D01*
X022887Y021132D02*
X020137Y021132D01*
X020137Y021131D02*
X022887Y021131D01*
X022887Y021130D02*
X020137Y021130D01*
X020137Y021129D02*
X022887Y021129D01*
X020137Y021129D01*
X020137Y021128D02*
X022887Y021128D01*
X022887Y021127D02*
X020137Y021127D01*
X020137Y021126D02*
X022887Y021126D01*
X022887Y021125D02*
X020137Y021125D01*
X020137Y021124D02*
X022887Y021124D01*
X022887Y021123D02*
X020137Y021123D01*
X020137Y021122D02*
X022887Y021122D01*
X022887Y021121D02*
X020137Y021121D01*
X020137Y021120D02*
X022887Y021120D01*
X022887Y021119D02*
X020137Y021119D01*
X020137Y021118D02*
X022887Y021118D01*
X022887Y021117D02*
X020137Y021117D01*
X020137Y021116D02*
X022887Y021116D01*
X022887Y021115D02*
X020137Y021115D01*
X020137Y021114D02*
X022887Y021114D01*
X022887Y021113D02*
X020137Y021113D01*
X020137Y021112D02*
X022887Y021112D01*
X022887Y021111D02*
X020137Y021111D01*
X022887Y021111D01*
X022887Y021110D02*
X020137Y021110D01*
X020137Y021109D02*
X022887Y021109D01*
X022887Y021108D02*
X020137Y021108D01*
X020137Y021107D02*
X022887Y021107D01*
X022887Y021106D02*
X020137Y021106D01*
X020137Y021105D02*
X022887Y021105D01*
X022887Y021104D02*
X020137Y021104D01*
X020137Y021103D02*
X022887Y021103D01*
X022887Y021102D02*
X020137Y021102D01*
X020137Y021101D02*
X022887Y021101D01*
X022887Y021100D02*
X020137Y021100D01*
X020137Y021099D02*
X022887Y021099D01*
X022887Y021098D02*
X020137Y021098D01*
X020137Y021097D02*
X022887Y021097D01*
X022887Y021096D02*
X020137Y021096D01*
X020137Y021095D02*
X022887Y021095D01*
X022887Y021094D02*
X020137Y021094D01*
X022887Y021094D01*
X022887Y021093D02*
X020137Y021093D01*
X020137Y021092D02*
X022887Y021092D01*
X022887Y021091D02*
X020137Y021091D01*
X020137Y021090D02*
X022887Y021090D01*
X022887Y021089D02*
X020137Y021089D01*
X020137Y021088D02*
X022887Y021088D01*
X022887Y021087D02*
X020137Y021087D01*
X020137Y021086D02*
X022887Y021086D01*
X022887Y021085D02*
X020137Y021085D01*
X020137Y021084D02*
X022887Y021084D01*
X022887Y021083D02*
X020137Y021083D01*
X020137Y021082D02*
X022887Y021082D01*
X022887Y021081D02*
X020137Y021081D01*
X020137Y021080D02*
X022887Y021080D01*
X022887Y021079D02*
X020137Y021079D01*
X020137Y021078D02*
X022887Y021078D01*
X022887Y021077D02*
X020137Y021077D01*
X022887Y021077D01*
X022887Y021076D02*
X020137Y021076D01*
X020137Y021075D02*
X022887Y021075D01*
X022887Y021074D02*
X020137Y021074D01*
X020137Y021073D02*
X022887Y021073D01*
X022887Y021072D02*
X020137Y021072D01*
X020137Y021071D02*
X022887Y021071D01*
X022887Y021070D02*
X020137Y021070D01*
X020137Y021069D02*
X022887Y021069D01*
X022887Y021068D02*
X020137Y021068D01*
X020137Y021067D02*
X022887Y021067D01*
X022887Y021066D02*
X020137Y021066D01*
X020137Y021065D02*
X022887Y021065D01*
X022887Y021064D02*
X020137Y021064D01*
X020137Y021063D02*
X022887Y021063D01*
X022887Y021062D02*
X020137Y021062D01*
X020137Y021061D02*
X022887Y021061D01*
X022887Y021060D02*
X020137Y021060D01*
X022887Y021060D01*
X022887Y021059D02*
X020137Y021059D01*
X020137Y021058D02*
X022887Y021058D01*
X022887Y021057D02*
X020137Y021057D01*
X020137Y021056D02*
X022887Y021056D01*
X022887Y021055D02*
X020137Y021055D01*
X020137Y021054D02*
X022887Y021054D01*
X022887Y021053D02*
X020137Y021053D01*
X020137Y021052D02*
X022887Y021052D01*
X022887Y021051D02*
X020137Y021051D01*
X020137Y021050D02*
X022887Y021050D01*
X022887Y021049D02*
X020137Y021049D01*
X020137Y021048D02*
X022887Y021048D01*
X022887Y021047D02*
X020137Y021047D01*
X020137Y021046D02*
X022887Y021046D01*
X022887Y021045D02*
X020137Y021045D01*
X020137Y021044D02*
X022887Y021044D01*
X022887Y021043D02*
X020137Y021043D01*
X022887Y021043D01*
X022887Y021042D02*
X020137Y021042D01*
X020137Y021041D02*
X022887Y021041D01*
X022887Y021040D02*
X020137Y021040D01*
X020137Y021039D02*
X022887Y021039D01*
X022887Y021038D02*
X020137Y021038D01*
X020137Y021037D02*
X022887Y021037D01*
X022887Y021036D02*
X020137Y021036D01*
X020137Y021035D02*
X022887Y021035D01*
X022887Y021034D02*
X020137Y021034D01*
X020137Y021033D02*
X022887Y021033D01*
X022887Y021032D02*
X020137Y021032D01*
X020137Y021031D02*
X022887Y021031D01*
X022887Y021030D02*
X020137Y021030D01*
X020137Y021029D02*
X022887Y021029D01*
X022887Y021028D02*
X020137Y021028D01*
X020137Y021027D02*
X022887Y021027D01*
X022887Y021026D02*
X020137Y021026D01*
X022887Y021026D01*
X022887Y021025D02*
X020137Y021025D01*
X020137Y021024D02*
X022887Y021024D01*
X022887Y021023D02*
X020137Y021023D01*
X020137Y021022D02*
X022887Y021022D01*
X022887Y021021D02*
X020137Y021021D01*
X020137Y021020D02*
X022887Y021020D01*
X022887Y021019D02*
X020137Y021019D01*
X020137Y021018D02*
X022887Y021018D01*
X022887Y021017D02*
X020137Y021017D01*
X020137Y021016D02*
X022887Y021016D01*
X022887Y021015D02*
X020137Y021015D01*
X020137Y021014D02*
X022887Y021014D01*
X022887Y021013D02*
X020137Y021013D01*
X020137Y021012D02*
X022887Y021012D01*
X022887Y021011D02*
X020137Y021011D01*
X020137Y021010D02*
X022887Y021010D01*
X022887Y021009D02*
X020137Y021009D01*
X022887Y021009D01*
X022887Y021008D02*
X020137Y021008D01*
X020137Y021007D02*
X022887Y021007D01*
X022887Y021006D02*
X020137Y021006D01*
X020137Y021005D02*
X022887Y021005D01*
X022887Y021004D02*
X020137Y021004D01*
X020137Y021003D02*
X022887Y021003D01*
X022887Y021002D02*
X020137Y021002D01*
X020137Y021001D02*
X022887Y021001D01*
X022887Y021000D02*
X020137Y021000D01*
X020137Y020999D02*
X022887Y020999D01*
X022887Y020998D02*
X020137Y020998D01*
X020137Y020997D02*
X022887Y020997D01*
X022887Y020996D02*
X020137Y020996D01*
X020137Y020995D02*
X022887Y020995D01*
X022887Y020994D02*
X020137Y020994D01*
X020137Y020993D02*
X022887Y020993D01*
X022887Y020992D02*
X020137Y020992D01*
X020137Y020991D02*
X022887Y020991D01*
X020137Y020991D01*
X020137Y020990D02*
X022887Y020990D01*
X022887Y020989D02*
X020137Y020989D01*
X020137Y020988D02*
X022887Y020988D01*
X022887Y020987D02*
X020137Y020987D01*
X020137Y020986D02*
X022887Y020986D01*
X022887Y020985D02*
X020137Y020985D01*
X020137Y020984D02*
X022887Y020984D01*
X022887Y020983D02*
X020137Y020983D01*
X020137Y020982D02*
X022887Y020982D01*
X022887Y020981D02*
X020137Y020981D01*
X020137Y020980D02*
X022887Y020980D01*
X022887Y020979D02*
X020137Y020979D01*
X020137Y020978D02*
X022887Y020978D01*
X022887Y020977D02*
X020137Y020977D01*
X020137Y020976D02*
X022887Y020976D01*
X022887Y020975D02*
X020137Y020975D01*
X020137Y020974D02*
X022887Y020974D01*
X020137Y020974D01*
X020137Y020973D02*
X022887Y020973D01*
X022887Y020972D02*
X020137Y020972D01*
X020137Y020971D02*
X022887Y020971D01*
X022887Y020970D02*
X020137Y020970D01*
X020137Y020969D02*
X022887Y020969D01*
X022887Y020968D02*
X020137Y020968D01*
X020137Y020967D02*
X022887Y020967D01*
X022887Y020966D02*
X020137Y020966D01*
X020137Y020965D02*
X022887Y020965D01*
X022887Y020964D02*
X020137Y020964D01*
X020137Y020963D02*
X022887Y020963D01*
X022887Y020962D02*
X020137Y020962D01*
X020137Y020961D02*
X022887Y020961D01*
X022887Y020960D02*
X020137Y020960D01*
X020137Y020959D02*
X022887Y020959D01*
X022887Y020958D02*
X020137Y020958D01*
X020137Y020957D02*
X022887Y020957D01*
X020137Y020957D01*
X020137Y020956D02*
X022887Y020956D01*
X022887Y020955D02*
X020137Y020955D01*
X020137Y020954D02*
X022887Y020954D01*
X022887Y020953D02*
X020137Y020953D01*
X020137Y020952D02*
X022887Y020952D01*
X022887Y020951D02*
X020137Y020951D01*
X020137Y020950D02*
X022887Y020950D01*
X022887Y020949D02*
X020137Y020949D01*
X020137Y020948D02*
X022887Y020948D01*
X022887Y020947D02*
X020137Y020947D01*
X020137Y020946D02*
X022887Y020946D01*
X022887Y020945D02*
X020137Y020945D01*
X020137Y020944D02*
X022887Y020944D01*
X022887Y020943D02*
X020137Y020943D01*
X020137Y020942D02*
X022887Y020942D01*
X022887Y020941D02*
X020137Y020941D01*
X020137Y020940D02*
X022887Y020940D01*
X020137Y020940D01*
X020137Y020939D02*
X022887Y020939D01*
X022887Y020938D02*
X020137Y020938D01*
X020137Y020937D02*
X022887Y020937D01*
X022887Y020936D02*
X020137Y020936D01*
X020137Y020935D02*
X022887Y020935D01*
X022887Y020934D02*
X020137Y020934D01*
X020137Y020933D02*
X022887Y020933D01*
X022887Y020932D02*
X020137Y020932D01*
X020137Y020931D02*
X022887Y020931D01*
X022887Y020930D02*
X020137Y020930D01*
X020137Y020929D02*
X022887Y020929D01*
X022887Y020928D02*
X020137Y020928D01*
X020137Y020927D02*
X022887Y020927D01*
X022887Y020926D02*
X020137Y020926D01*
X020137Y020925D02*
X022887Y020925D01*
X022887Y020924D02*
X020137Y020924D01*
X020137Y020923D02*
X022887Y020923D01*
X020137Y020923D01*
X020137Y020922D02*
X022887Y020922D01*
X022887Y020921D02*
X020137Y020921D01*
X020137Y020920D02*
X022887Y020920D01*
X022887Y020919D02*
X020137Y020919D01*
X020137Y020918D02*
X022887Y020918D01*
X022887Y020917D02*
X020137Y020917D01*
X020137Y020916D02*
X022887Y020916D01*
X022887Y020915D02*
X020137Y020915D01*
X020137Y020914D02*
X022887Y020914D01*
X022887Y020913D02*
X020137Y020913D01*
X020137Y020912D02*
X022887Y020912D01*
X022887Y020911D02*
X020137Y020911D01*
X020137Y020910D02*
X022887Y020910D01*
X022887Y020909D02*
X020137Y020909D01*
X020137Y020908D02*
X022887Y020908D01*
X022887Y020907D02*
X020137Y020907D01*
X020137Y020906D02*
X022887Y020906D01*
X020137Y020906D01*
X020137Y020905D02*
X022887Y020905D01*
X022887Y020904D02*
X020137Y020904D01*
X020137Y020903D02*
X022887Y020903D01*
X022887Y020902D02*
X020137Y020902D01*
X020137Y020901D02*
X022887Y020901D01*
X022887Y020900D02*
X020137Y020900D01*
X020137Y020899D02*
X022887Y020899D01*
X022887Y020898D02*
X020137Y020898D01*
X020137Y020897D02*
X022887Y020897D01*
X022887Y020896D02*
X020137Y020896D01*
X020137Y020895D02*
X022887Y020895D01*
X022887Y020894D02*
X020137Y020894D01*
X020137Y020893D02*
X022887Y020893D01*
X022887Y020892D02*
X020137Y020892D01*
X020137Y020891D02*
X022887Y020891D01*
X022887Y020890D02*
X020137Y020890D01*
X020137Y020889D02*
X022887Y020889D01*
X020137Y020889D01*
X020137Y020888D02*
X022887Y020888D01*
X022887Y020887D02*
X020137Y020887D01*
X020137Y020886D02*
X022887Y020886D01*
X022887Y020885D02*
X020137Y020885D01*
X020137Y020884D02*
X022887Y020884D01*
X022887Y020883D02*
X020137Y020883D01*
X020137Y020882D02*
X022887Y020882D01*
X022887Y020881D02*
X020137Y020881D01*
X020137Y020880D02*
X022887Y020880D01*
X022887Y020879D02*
X020137Y020879D01*
X020137Y020878D02*
X022887Y020878D01*
X022887Y020877D02*
X020137Y020877D01*
X020137Y020876D02*
X022887Y020876D01*
X022887Y020875D02*
X020137Y020875D01*
X020137Y020874D02*
X022887Y020874D01*
X022887Y020873D02*
X020137Y020873D01*
X020137Y020872D02*
X022887Y020872D01*
X022887Y020871D02*
X020137Y020871D01*
X022887Y020871D01*
X022887Y020870D02*
X020137Y020870D01*
X020137Y020869D02*
X022887Y020869D01*
X022887Y020868D02*
X020137Y020868D01*
X020137Y020867D02*
X022887Y020867D01*
X022887Y020866D02*
X020137Y020866D01*
X020137Y020865D02*
X022887Y020865D01*
X022887Y020864D02*
X020137Y020864D01*
X020137Y020863D02*
X022887Y020863D01*
X022887Y020862D02*
X020137Y020862D01*
X020137Y020861D02*
X022887Y020861D01*
X022887Y020860D02*
X020137Y020860D01*
X020137Y020859D02*
X022887Y020859D01*
X022887Y020858D02*
X020137Y020858D01*
X020137Y020857D02*
X022887Y020857D01*
X022887Y020856D02*
X020137Y020856D01*
X020137Y020855D02*
X022887Y020855D01*
X022887Y020854D02*
X020137Y020854D01*
X022887Y020854D01*
X022887Y020853D02*
X020137Y020853D01*
X020137Y020852D02*
X022887Y020852D01*
X022887Y020851D02*
X020137Y020851D01*
X020137Y020850D02*
X022887Y020850D01*
X022887Y020849D02*
X020137Y020849D01*
X020137Y020848D02*
X022887Y020848D01*
X022887Y020847D02*
X020137Y020847D01*
X020137Y020846D02*
X022887Y020846D01*
X022887Y020845D02*
X020137Y020845D01*
X020137Y020844D02*
X022887Y020844D01*
X022887Y020843D02*
X020137Y020843D01*
X020137Y020842D02*
X022887Y020842D01*
X022887Y020841D02*
X020137Y020841D01*
X020137Y020840D02*
X022887Y020840D01*
X022887Y020839D02*
X020137Y020839D01*
X020137Y020838D02*
X022887Y020838D01*
X022887Y020837D02*
X020137Y020837D01*
X022887Y020837D01*
X022887Y020836D02*
X020137Y020836D01*
X020137Y020835D02*
X022887Y020835D01*
X022887Y020834D02*
X020137Y020834D01*
X020137Y020833D02*
X022887Y020833D01*
X022887Y020832D02*
X020137Y020832D01*
X020137Y020831D02*
X022887Y020831D01*
X022887Y020830D02*
X020137Y020830D01*
X020137Y020829D02*
X022887Y020829D01*
X022887Y020828D02*
X020137Y020828D01*
X020137Y020827D02*
X022887Y020827D01*
X022887Y020826D02*
X020137Y020826D01*
X020137Y020825D02*
X022887Y020825D01*
X022887Y020824D02*
X020137Y020824D01*
X020137Y020823D02*
X022887Y020823D01*
X022887Y020822D02*
X020137Y020822D01*
X020137Y020821D02*
X022887Y020821D01*
X022887Y020820D02*
X020137Y020820D01*
X022887Y020820D01*
X022887Y020819D02*
X020137Y020819D01*
X020137Y020818D02*
X022887Y020818D01*
X022887Y020817D02*
X020137Y020817D01*
X020137Y020816D02*
X022887Y020816D01*
X022887Y020815D02*
X020137Y020815D01*
X020137Y020814D02*
X022887Y020814D01*
X022887Y020813D02*
X020137Y020813D01*
X020137Y020812D02*
X022887Y020812D01*
X022887Y020811D02*
X020137Y020811D01*
X020137Y020810D02*
X022887Y020810D01*
X022887Y020809D02*
X020137Y020809D01*
X020137Y020808D02*
X022887Y020808D01*
X022887Y020807D02*
X020137Y020807D01*
X020137Y020806D02*
X022887Y020806D01*
X022887Y020805D02*
X020137Y020805D01*
X020137Y020804D02*
X022887Y020804D01*
X022887Y020803D02*
X020137Y020803D01*
X022887Y020803D01*
X022887Y020802D02*
X020137Y020802D01*
X020137Y020801D02*
X022887Y020801D01*
X022887Y020800D02*
X020137Y020800D01*
X020137Y020799D02*
X022887Y020799D01*
X022887Y020798D02*
X020137Y020798D01*
X020137Y020797D02*
X022887Y020797D01*
X022887Y020796D02*
X020137Y020796D01*
X020137Y020795D02*
X022887Y020795D01*
X022887Y020794D02*
X020137Y020794D01*
X020137Y020793D02*
X022887Y020793D01*
X022887Y020792D02*
X020137Y020792D01*
X020137Y020791D02*
X022887Y020791D01*
X022887Y020790D02*
X020137Y020790D01*
X020137Y020789D02*
X022887Y020789D01*
X022887Y020788D02*
X020137Y020788D01*
X020137Y020787D02*
X022887Y020787D01*
X022887Y020786D02*
X020137Y020786D01*
X022887Y020786D01*
X022887Y020785D02*
X020137Y020785D01*
X020137Y020784D02*
X022887Y020784D01*
X022887Y020783D02*
X020137Y020783D01*
X020137Y020782D02*
X022887Y020782D01*
X022887Y020781D02*
X020137Y020781D01*
X020137Y020780D02*
X022887Y020780D01*
X022887Y020779D02*
X020137Y020779D01*
X020137Y020778D02*
X022887Y020778D01*
X022887Y020777D02*
X020137Y020777D01*
X020137Y020776D02*
X022887Y020776D01*
X022887Y020775D02*
X020137Y020775D01*
X020137Y020774D02*
X022887Y020774D01*
X022887Y020773D02*
X020137Y020773D01*
X020137Y020772D02*
X022887Y020772D01*
X022887Y020771D02*
X020137Y020771D01*
X020137Y020770D02*
X022887Y020770D01*
X022887Y020769D02*
X020137Y020769D01*
X022887Y020769D01*
X022887Y020768D02*
X020137Y020768D01*
X020137Y020767D02*
X022887Y020767D01*
X022887Y020766D02*
X020137Y020766D01*
X020137Y020765D02*
X022887Y020765D01*
X022887Y020764D02*
X020137Y020764D01*
X020137Y020763D02*
X022887Y020763D01*
X022887Y020762D02*
X020137Y020762D01*
X020137Y020761D02*
X022887Y020761D01*
X022887Y020760D02*
X020137Y020760D01*
X020137Y020759D02*
X022887Y020759D01*
X022887Y020758D02*
X020137Y020758D01*
X020137Y020757D02*
X022887Y020757D01*
X022887Y020756D02*
X020137Y020756D01*
X020137Y020755D02*
X022887Y020755D01*
X022887Y020754D02*
X020137Y020754D01*
X020137Y020753D02*
X022887Y020753D01*
X022887Y020752D02*
X020137Y020752D01*
X020137Y020751D02*
X022887Y020751D01*
X020137Y020751D01*
X020137Y020750D02*
X022887Y020750D01*
X022887Y020749D02*
X020137Y020749D01*
X020137Y020748D02*
X022887Y020748D01*
X022887Y020747D02*
X020137Y020747D01*
X020137Y020746D02*
X022887Y020746D01*
X022887Y020745D02*
X020137Y020745D01*
X020137Y020744D02*
X022887Y020744D01*
X022887Y020743D02*
X020137Y020743D01*
X020137Y020742D02*
X022887Y020742D01*
X022887Y020741D02*
X020137Y020741D01*
X020137Y020740D02*
X022887Y020740D01*
X022887Y020739D02*
X020137Y020739D01*
X020137Y020738D02*
X022887Y020738D01*
X022887Y020737D02*
X020137Y020737D01*
X020137Y020736D02*
X022887Y020736D01*
X022887Y020735D02*
X020137Y020735D01*
X020137Y020734D02*
X022887Y020734D01*
X020137Y020734D01*
X020137Y020733D02*
X022887Y020733D01*
X022887Y020732D02*
X020137Y020732D01*
X020137Y020731D02*
X022887Y020731D01*
X022887Y020730D02*
X020137Y020730D01*
X020137Y020729D02*
X022887Y020729D01*
X022887Y020728D02*
X020137Y020728D01*
X020137Y020727D02*
X022887Y020727D01*
X022887Y020726D02*
X020137Y020726D01*
X020137Y020725D02*
X022887Y020725D01*
X022887Y020724D02*
X020137Y020724D01*
X020137Y020723D02*
X022887Y020723D01*
X022887Y020722D02*
X020137Y020722D01*
X020137Y020721D02*
X022887Y020721D01*
X022887Y020720D02*
X020137Y020720D01*
X020137Y020719D02*
X022887Y020719D01*
X022887Y020718D02*
X020137Y020718D01*
X020137Y020717D02*
X022887Y020717D01*
X020137Y020717D01*
X020137Y020716D02*
X022887Y020716D01*
X022887Y020715D02*
X020137Y020715D01*
X020137Y020714D02*
X022887Y020714D01*
X022887Y020713D02*
X020137Y020713D01*
X020137Y020712D02*
X022887Y020712D01*
X022887Y020711D02*
X020137Y020711D01*
X020137Y020710D02*
X022887Y020710D01*
X022887Y020709D02*
X020137Y020709D01*
X020137Y020708D02*
X022887Y020708D01*
X022887Y020707D02*
X020137Y020707D01*
X020137Y020706D02*
X022887Y020706D01*
X022887Y020705D02*
X020137Y020705D01*
X020137Y020704D02*
X022887Y020704D01*
X022887Y020703D02*
X020137Y020703D01*
X020137Y020702D02*
X022887Y020702D01*
X022887Y020701D02*
X020137Y020701D01*
X020137Y020700D02*
X022887Y020700D01*
X020137Y020700D01*
X020137Y020699D02*
X022887Y020699D01*
X022887Y020698D02*
X020137Y020698D01*
X020137Y020697D02*
X022887Y020697D01*
X022887Y020696D02*
X020137Y020696D01*
X020137Y020695D02*
X022887Y020695D01*
X022887Y020694D02*
X020137Y020694D01*
X020137Y020693D02*
X022887Y020693D01*
X022887Y020692D02*
X020137Y020692D01*
X020137Y020691D02*
X022887Y020691D01*
X022887Y020690D02*
X020137Y020690D01*
X020137Y020689D02*
X022887Y020689D01*
X022887Y020688D02*
X020137Y020688D01*
X020137Y020687D02*
X022887Y020687D01*
X022887Y020686D02*
X020137Y020686D01*
X020137Y020685D02*
X022887Y020685D01*
X022887Y020684D02*
X020137Y020684D01*
X020137Y020683D02*
X022887Y020683D01*
X020137Y020683D01*
X020137Y020682D02*
X022887Y020682D01*
X022887Y020681D02*
X020137Y020681D01*
X020137Y020680D02*
X022887Y020680D01*
X022887Y020679D02*
X020137Y020679D01*
X020137Y020678D02*
X022887Y020678D01*
X022887Y020677D02*
X020137Y020677D01*
X020137Y020676D02*
X022887Y020676D01*
X022887Y020675D02*
X020137Y020675D01*
X020137Y020674D02*
X022887Y020674D01*
X022887Y020673D02*
X020137Y020673D01*
X020137Y020672D02*
X022887Y020672D01*
X022887Y020671D02*
X020137Y020671D01*
X020137Y020670D02*
X022887Y020670D01*
X022887Y020669D02*
X020137Y020669D01*
X020137Y020668D02*
X022887Y020668D01*
X022887Y020667D02*
X020137Y020667D01*
X020137Y020666D02*
X022887Y020666D01*
X020137Y020666D01*
X020137Y020665D02*
X022887Y020665D01*
X022887Y020664D02*
X020137Y020664D01*
X020137Y020663D02*
X022887Y020663D01*
X022887Y020662D02*
X020137Y020662D01*
X020137Y020661D02*
X022887Y020661D01*
X022887Y020660D02*
X020137Y020660D01*
X020137Y020659D02*
X022887Y020659D01*
X022887Y020658D02*
X020137Y020658D01*
X020137Y020657D02*
X022887Y020657D01*
X022887Y020656D02*
X020137Y020656D01*
X020137Y020655D02*
X022887Y020655D01*
X022887Y020654D02*
X020137Y020654D01*
X020137Y020653D02*
X022887Y020653D01*
X022887Y020652D02*
X020137Y020652D01*
X020137Y020651D02*
X022887Y020651D01*
X022887Y020650D02*
X020137Y020650D01*
X020137Y020649D02*
X022887Y020649D01*
X020137Y020649D01*
X020137Y020648D02*
X022887Y020648D01*
X022887Y020647D02*
X020137Y020647D01*
X020137Y020646D02*
X022887Y020646D01*
X022887Y020645D02*
X020137Y020645D01*
X020137Y020644D02*
X022887Y020644D01*
X022887Y020643D02*
X020137Y020643D01*
X020137Y020642D02*
X022887Y020642D01*
X022887Y020641D02*
X020137Y020641D01*
X020137Y020640D02*
X022887Y020640D01*
X022887Y020639D02*
X020137Y020639D01*
X020137Y020638D02*
X022887Y020638D01*
X022887Y020637D02*
X020137Y020637D01*
X020137Y020636D02*
X022887Y020636D01*
X022887Y020635D02*
X020137Y020635D01*
X020137Y020634D02*
X022887Y020634D01*
X022887Y020633D02*
X020137Y020633D01*
X020137Y020632D02*
X022887Y020632D01*
X022887Y020631D02*
X020137Y020631D01*
X022887Y020631D01*
X022887Y020630D02*
X020137Y020630D01*
X020137Y020629D02*
X022887Y020629D01*
X022887Y020628D02*
X020137Y020628D01*
X020137Y020627D02*
X022887Y020627D01*
X022887Y020626D02*
X020137Y020626D01*
X020137Y020625D02*
X022887Y020625D01*
X022887Y020624D02*
X020137Y020624D01*
X020137Y020623D02*
X022887Y020623D01*
X022887Y020622D02*
X020137Y020622D01*
X020137Y020621D02*
X022887Y020621D01*
X022887Y020620D02*
X020137Y020620D01*
X020137Y020619D02*
X022887Y020619D01*
X022887Y020618D02*
X020137Y020618D01*
X020137Y020617D02*
X022887Y020617D01*
X022887Y020616D02*
X020137Y020616D01*
X020137Y020615D02*
X022887Y020615D01*
X022887Y020614D02*
X020137Y020614D01*
X022887Y020614D01*
X022887Y020613D02*
X020137Y020613D01*
X020137Y020612D02*
X022887Y020612D01*
X022887Y020611D02*
X020137Y020611D01*
X020137Y020610D02*
X022887Y020610D01*
X022887Y020609D02*
X020137Y020609D01*
X020137Y020608D02*
X022887Y020608D01*
X022887Y020607D02*
X020137Y020607D01*
X020137Y020606D02*
X022887Y020606D01*
X022887Y020605D02*
X020137Y020605D01*
X020137Y020604D02*
X022887Y020604D01*
X022887Y020603D02*
X020137Y020603D01*
X020137Y020602D02*
X022887Y020602D01*
X022887Y020601D02*
X020137Y020601D01*
X020137Y020600D02*
X022887Y020600D01*
X022887Y020599D02*
X020137Y020599D01*
X020137Y020598D02*
X022887Y020598D01*
X022887Y020597D02*
X020137Y020597D01*
X022887Y020597D01*
X022887Y020596D02*
X020137Y020596D01*
X020137Y020595D02*
X022887Y020595D01*
X022887Y020594D02*
X020137Y020594D01*
X020137Y020593D02*
X022887Y020593D01*
X022887Y020592D02*
X020137Y020592D01*
X020137Y020591D02*
X022887Y020591D01*
X022887Y020590D02*
X020137Y020590D01*
X020137Y020589D02*
X022887Y020589D01*
X022887Y020588D02*
X020137Y020588D01*
X020137Y020587D02*
X022887Y020587D01*
X022887Y020586D02*
X020137Y020586D01*
X020137Y020585D02*
X022887Y020585D01*
X022887Y020584D02*
X020137Y020584D01*
X020137Y020583D02*
X022887Y020583D01*
X022887Y020582D02*
X020137Y020582D01*
X020137Y020581D02*
X022887Y020581D01*
X022887Y020580D02*
X020137Y020580D01*
X022887Y020580D01*
X022887Y020579D02*
X020137Y020579D01*
X020137Y020578D02*
X022887Y020578D01*
X022887Y020577D02*
X020137Y020577D01*
X020137Y020576D02*
X022887Y020576D01*
X022887Y020575D02*
X020137Y020575D01*
X020137Y020574D02*
X022887Y020574D01*
X022887Y020573D02*
X020137Y020573D01*
X020137Y020572D02*
X022887Y020572D01*
X022887Y020571D02*
X020137Y020571D01*
X020137Y020570D02*
X022887Y020570D01*
X022887Y020569D02*
X020137Y020569D01*
X020137Y020568D02*
X022887Y020568D01*
X022887Y020567D02*
X020137Y020567D01*
X020137Y020566D02*
X022887Y020566D01*
X022887Y020565D02*
X020137Y020565D01*
X020137Y020564D02*
X022887Y020564D01*
X022887Y020563D02*
X020137Y020563D01*
X022887Y020563D01*
X022887Y020562D02*
X020137Y020562D01*
X020137Y020561D02*
X022887Y020561D01*
X022887Y020560D02*
X020137Y020560D01*
X020137Y020559D02*
X022887Y020559D01*
X022887Y020558D02*
X020137Y020558D01*
X020137Y020557D02*
X022887Y020557D01*
X022887Y020556D02*
X020137Y020556D01*
X020137Y020555D02*
X022887Y020555D01*
X022887Y020554D02*
X020137Y020554D01*
X020137Y020553D02*
X022887Y020553D01*
X022887Y020552D02*
X020137Y020552D01*
X020137Y020551D02*
X022887Y020551D01*
X022887Y020550D02*
X020137Y020550D01*
X020137Y020549D02*
X022887Y020549D01*
X022887Y020548D02*
X020137Y020548D01*
X020137Y020547D02*
X022887Y020547D01*
X022887Y020546D02*
X020137Y020546D01*
X022887Y020546D01*
X022887Y020545D02*
X020137Y020545D01*
X020137Y020544D02*
X022887Y020544D01*
X022887Y020543D02*
X020137Y020543D01*
X020137Y020542D02*
X022887Y020542D01*
X022887Y020541D02*
X020137Y020541D01*
X020137Y020540D02*
X022887Y020540D01*
X022887Y020539D02*
X020137Y020539D01*
X020137Y020538D02*
X022887Y020538D01*
X022887Y020537D02*
X020137Y020537D01*
X020137Y020536D02*
X022887Y020536D01*
X022887Y020535D02*
X020137Y020535D01*
X020137Y020534D02*
X022887Y020534D01*
X022887Y020533D02*
X020137Y020533D01*
X020137Y020532D02*
X022887Y020532D01*
X022887Y020531D02*
X020137Y020531D01*
X020137Y020530D02*
X022887Y020530D01*
X022887Y020529D02*
X020137Y020529D01*
X022887Y020529D01*
X022887Y020528D02*
X020137Y020528D01*
X020137Y020527D02*
X022887Y020527D01*
X022887Y020526D02*
X020137Y020526D01*
X020137Y020525D02*
X022887Y020525D01*
X022887Y020524D02*
X020137Y020524D01*
X020137Y020523D02*
X022887Y020523D01*
X022887Y020522D02*
X020137Y020522D01*
X020137Y020521D02*
X022887Y020521D01*
X022887Y020520D02*
X020137Y020520D01*
X020137Y020519D02*
X022887Y020519D01*
X022887Y020518D02*
X020137Y020518D01*
X020137Y020517D02*
X022887Y020517D01*
X022887Y020516D02*
X020137Y020516D01*
X020137Y020515D02*
X022887Y020515D01*
X022887Y020514D02*
X020137Y020514D01*
X020137Y020513D02*
X022887Y020513D01*
X022887Y020512D02*
X020137Y020512D01*
X020137Y020511D02*
X022887Y020511D01*
X020137Y020511D01*
X020137Y020510D02*
X022887Y020510D01*
X022887Y020509D02*
X020137Y020509D01*
X020137Y020508D02*
X022887Y020508D01*
X022887Y020507D02*
X020137Y020507D01*
X020137Y020506D02*
X022887Y020506D01*
X022887Y020505D02*
X020137Y020505D01*
X020137Y020504D02*
X022887Y020504D01*
X022887Y020503D02*
X020137Y020503D01*
X020137Y020502D02*
X022887Y020502D01*
X022887Y020501D02*
X020137Y020501D01*
X020137Y020500D02*
X022887Y020500D01*
X022887Y020499D02*
X020137Y020499D01*
X007387Y020530D02*
X004637Y020530D01*
X004637Y020529D02*
X007387Y020529D01*
X004637Y020529D01*
X004637Y020528D02*
X007387Y020528D01*
X007387Y020527D02*
X004637Y020527D01*
X004637Y020526D02*
X007387Y020526D01*
X007387Y020525D02*
X004637Y020525D01*
X004637Y020524D02*
X007387Y020524D01*
X007387Y020523D02*
X004637Y020523D01*
X004637Y020522D02*
X007387Y020522D01*
X007387Y020521D02*
X004637Y020521D01*
X004637Y020520D02*
X007387Y020520D01*
X007387Y020519D02*
X004637Y020519D01*
X004637Y020518D02*
X007387Y020518D01*
X007387Y020517D02*
X004637Y020517D01*
X004637Y020516D02*
X007387Y020516D01*
X007387Y020515D02*
X004637Y020515D01*
X004637Y020514D02*
X007387Y020514D01*
X007387Y020513D02*
X004637Y020513D01*
X004637Y020512D02*
X007387Y020512D01*
X007387Y020511D02*
X004637Y020511D01*
X007387Y020511D01*
X007387Y020510D02*
X004637Y020510D01*
X004637Y020509D02*
X007387Y020509D01*
X007387Y020508D02*
X004637Y020508D01*
X004637Y020507D02*
X007387Y020507D01*
X007387Y020506D02*
X004637Y020506D01*
X004637Y020505D02*
X007387Y020505D01*
X007387Y020504D02*
X004637Y020504D01*
X004637Y020503D02*
X007387Y020503D01*
X007387Y020502D02*
X004637Y020502D01*
X004637Y020501D02*
X007387Y020501D01*
X007387Y020500D02*
X004637Y020500D01*
X004637Y020499D02*
X007387Y020499D01*
X007387Y020531D02*
X004637Y020531D01*
X004637Y020532D02*
X007387Y020532D01*
X007387Y020533D02*
X004637Y020533D01*
X004637Y020534D02*
X007387Y020534D01*
X007387Y020535D02*
X004637Y020535D01*
X004637Y020536D02*
X007387Y020536D01*
X007387Y020537D02*
X004637Y020537D01*
X004637Y020538D02*
X007387Y020538D01*
X007387Y020539D02*
X004637Y020539D01*
X004637Y020540D02*
X007387Y020540D01*
X007387Y020541D02*
X004637Y020541D01*
X004637Y020542D02*
X007387Y020542D01*
X007387Y020543D02*
X004637Y020543D01*
X004637Y020544D02*
X007387Y020544D01*
X007387Y020545D02*
X004637Y020545D01*
X004637Y020546D02*
X007387Y020546D01*
X004637Y020546D01*
X004637Y020547D02*
X007387Y020547D01*
X007387Y020548D02*
X004637Y020548D01*
X004637Y020549D02*
X007387Y020549D01*
X007387Y020550D02*
X004637Y020550D01*
X004637Y020551D02*
X007387Y020551D01*
X007387Y020552D02*
X004637Y020552D01*
X004637Y020553D02*
X007387Y020553D01*
X007387Y020554D02*
X004637Y020554D01*
X004637Y020555D02*
X007387Y020555D01*
X007387Y020556D02*
X004637Y020556D01*
X004637Y020557D02*
X007387Y020557D01*
X007387Y020558D02*
X004637Y020558D01*
X004637Y020559D02*
X007387Y020559D01*
X007387Y020560D02*
X004637Y020560D01*
X004637Y020561D02*
X007387Y020561D01*
X007387Y020562D02*
X004637Y020562D01*
X004637Y020563D02*
X007387Y020563D01*
X004637Y020563D01*
X004637Y020564D02*
X007387Y020564D01*
X007387Y020565D02*
X004637Y020565D01*
X004637Y020566D02*
X007387Y020566D01*
X007387Y020567D02*
X004637Y020567D01*
X004637Y020568D02*
X007387Y020568D01*
X007387Y020569D02*
X004637Y020569D01*
X004637Y020570D02*
X007387Y020570D01*
X007387Y020571D02*
X004637Y020571D01*
X004637Y020572D02*
X007387Y020572D01*
X007387Y020573D02*
X004637Y020573D01*
X004637Y020574D02*
X007387Y020574D01*
X007387Y020575D02*
X004637Y020575D01*
X004637Y020576D02*
X007387Y020576D01*
X007387Y020577D02*
X004637Y020577D01*
X004637Y020578D02*
X007387Y020578D01*
X007387Y020579D02*
X004637Y020579D01*
X004637Y020580D02*
X007387Y020580D01*
X004637Y020580D01*
X004637Y020581D02*
X007387Y020581D01*
X007387Y020582D02*
X004637Y020582D01*
X004637Y020583D02*
X007387Y020583D01*
X007387Y020584D02*
X004637Y020584D01*
X004637Y020585D02*
X007387Y020585D01*
X007387Y020586D02*
X004637Y020586D01*
X004637Y020587D02*
X007387Y020587D01*
X007387Y020588D02*
X004637Y020588D01*
X004637Y020589D02*
X007387Y020589D01*
X007387Y020590D02*
X004637Y020590D01*
X004637Y020591D02*
X007387Y020591D01*
X007387Y020592D02*
X004637Y020592D01*
X004637Y020593D02*
X007387Y020593D01*
X007387Y020594D02*
X004637Y020594D01*
X004637Y020595D02*
X007387Y020595D01*
X007387Y020596D02*
X004637Y020596D01*
X004637Y020597D02*
X007387Y020597D01*
X004637Y020597D01*
X004637Y020598D02*
X007387Y020598D01*
X007387Y020599D02*
X004637Y020599D01*
X004637Y020600D02*
X007387Y020600D01*
X007387Y020601D02*
X004637Y020601D01*
X004637Y020602D02*
X007387Y020602D01*
X007387Y020603D02*
X004637Y020603D01*
X004637Y020604D02*
X007387Y020604D01*
X007387Y020605D02*
X004637Y020605D01*
X004637Y020606D02*
X007387Y020606D01*
X007387Y020607D02*
X004637Y020607D01*
X004637Y020608D02*
X007387Y020608D01*
X007387Y020609D02*
X004637Y020609D01*
X004637Y020610D02*
X007387Y020610D01*
X007387Y020611D02*
X004637Y020611D01*
X004637Y020612D02*
X007387Y020612D01*
X007387Y020613D02*
X004637Y020613D01*
X004637Y020614D02*
X007387Y020614D01*
X004637Y020614D01*
X004637Y020615D02*
X007387Y020615D01*
X007387Y020616D02*
X004637Y020616D01*
X004637Y020617D02*
X007387Y020617D01*
X007387Y020618D02*
X004637Y020618D01*
X004637Y020619D02*
X007387Y020619D01*
X007387Y020620D02*
X004637Y020620D01*
X004637Y020621D02*
X007387Y020621D01*
X007387Y020622D02*
X004637Y020622D01*
X004637Y020623D02*
X007387Y020623D01*
X007387Y020624D02*
X004637Y020624D01*
X004637Y020625D02*
X007387Y020625D01*
X007387Y020626D02*
X004637Y020626D01*
X004637Y020627D02*
X007387Y020627D01*
X007387Y020628D02*
X004637Y020628D01*
X004637Y020629D02*
X007387Y020629D01*
X007387Y020630D02*
X004637Y020630D01*
X004637Y020631D02*
X007387Y020631D01*
X004637Y020631D01*
X004637Y020632D02*
X007387Y020632D01*
X007387Y020633D02*
X004637Y020633D01*
X004637Y020634D02*
X007387Y020634D01*
X007387Y020635D02*
X004637Y020635D01*
X004637Y020636D02*
X007387Y020636D01*
X007387Y020637D02*
X004637Y020637D01*
X004637Y020638D02*
X007387Y020638D01*
X007387Y020639D02*
X004637Y020639D01*
X004637Y020640D02*
X007387Y020640D01*
X007387Y020641D02*
X004637Y020641D01*
X004637Y020642D02*
X007387Y020642D01*
X007387Y020643D02*
X004637Y020643D01*
X004637Y020644D02*
X007387Y020644D01*
X007387Y020645D02*
X004637Y020645D01*
X004637Y020646D02*
X007387Y020646D01*
X007387Y020647D02*
X004637Y020647D01*
X004637Y020648D02*
X007387Y020648D01*
X007387Y020649D02*
X004637Y020649D01*
X007387Y020649D01*
X007387Y020650D02*
X004637Y020650D01*
X004637Y020651D02*
X007387Y020651D01*
X007387Y020652D02*
X004637Y020652D01*
X004637Y020653D02*
X007387Y020653D01*
X007387Y020654D02*
X004637Y020654D01*
X004637Y020655D02*
X007387Y020655D01*
X007387Y020656D02*
X004637Y020656D01*
X004637Y020657D02*
X007387Y020657D01*
X007387Y020658D02*
X004637Y020658D01*
X004637Y020659D02*
X007387Y020659D01*
X007387Y020660D02*
X004637Y020660D01*
X004637Y020661D02*
X007387Y020661D01*
X007387Y020662D02*
X004637Y020662D01*
X004637Y020663D02*
X007387Y020663D01*
X007387Y020664D02*
X004637Y020664D01*
X004637Y020665D02*
X007387Y020665D01*
X007387Y020666D02*
X004637Y020666D01*
X007387Y020666D01*
X007387Y020667D02*
X004637Y020667D01*
X004637Y020668D02*
X007387Y020668D01*
X007387Y020669D02*
X004637Y020669D01*
X004637Y020670D02*
X007387Y020670D01*
X007387Y020671D02*
X004637Y020671D01*
X004637Y020672D02*
X007387Y020672D01*
X007387Y020673D02*
X004637Y020673D01*
X004637Y020674D02*
X007387Y020674D01*
X007387Y020675D02*
X004637Y020675D01*
X004637Y020676D02*
X007387Y020676D01*
X007387Y020677D02*
X004637Y020677D01*
X004637Y020678D02*
X007387Y020678D01*
X007387Y020679D02*
X004637Y020679D01*
X004637Y020680D02*
X007387Y020680D01*
X007387Y020681D02*
X004637Y020681D01*
X004637Y020682D02*
X007387Y020682D01*
X007387Y020683D02*
X004637Y020683D01*
X007387Y020683D01*
X007387Y020684D02*
X004637Y020684D01*
X004637Y020685D02*
X007387Y020685D01*
X007387Y020686D02*
X004637Y020686D01*
X004637Y020687D02*
X007387Y020687D01*
X007387Y020688D02*
X004637Y020688D01*
X004637Y020689D02*
X007387Y020689D01*
X007387Y020690D02*
X004637Y020690D01*
X004637Y020691D02*
X007387Y020691D01*
X007387Y020692D02*
X004637Y020692D01*
X004637Y020693D02*
X007387Y020693D01*
X007387Y020694D02*
X004637Y020694D01*
X004637Y020695D02*
X007387Y020695D01*
X007387Y020696D02*
X004637Y020696D01*
X004637Y020697D02*
X007387Y020697D01*
X007387Y020698D02*
X004637Y020698D01*
X004637Y020699D02*
X007387Y020699D01*
X007387Y020700D02*
X004637Y020700D01*
X007387Y020700D01*
X007387Y020701D02*
X004637Y020701D01*
X004637Y020702D02*
X007387Y020702D01*
X007387Y020703D02*
X004637Y020703D01*
X004637Y020704D02*
X007387Y020704D01*
X007387Y020705D02*
X004637Y020705D01*
X004637Y020706D02*
X007387Y020706D01*
X007387Y020707D02*
X004637Y020707D01*
X004637Y020708D02*
X007387Y020708D01*
X007387Y020709D02*
X004637Y020709D01*
X004637Y020710D02*
X007387Y020710D01*
X007387Y020711D02*
X004637Y020711D01*
X004637Y020712D02*
X007387Y020712D01*
X007387Y020713D02*
X004637Y020713D01*
X004637Y020714D02*
X007387Y020714D01*
X007387Y020715D02*
X004637Y020715D01*
X004637Y020716D02*
X007387Y020716D01*
X007387Y020717D02*
X004637Y020717D01*
X007387Y020717D01*
X007387Y020718D02*
X004637Y020718D01*
X004637Y020719D02*
X007387Y020719D01*
X007387Y020720D02*
X004637Y020720D01*
X004637Y020721D02*
X007387Y020721D01*
X007387Y020722D02*
X004637Y020722D01*
X004637Y020723D02*
X007387Y020723D01*
X007387Y020724D02*
X004637Y020724D01*
X004637Y020725D02*
X007387Y020725D01*
X007387Y020726D02*
X004637Y020726D01*
X004637Y020727D02*
X007387Y020727D01*
X007387Y020728D02*
X004637Y020728D01*
X004637Y020729D02*
X007387Y020729D01*
X007387Y020730D02*
X004637Y020730D01*
X004637Y020731D02*
X007387Y020731D01*
X007387Y020732D02*
X004637Y020732D01*
X004637Y020733D02*
X007387Y020733D01*
X007387Y020734D02*
X004637Y020734D01*
X007387Y020734D01*
X007387Y020735D02*
X004637Y020735D01*
X004637Y020736D02*
X007387Y020736D01*
X007387Y020737D02*
X004637Y020737D01*
X004637Y020738D02*
X007387Y020738D01*
X007387Y020739D02*
X004637Y020739D01*
X004637Y020740D02*
X007387Y020740D01*
X007387Y020741D02*
X004637Y020741D01*
X004637Y020742D02*
X007387Y020742D01*
X007387Y020743D02*
X004637Y020743D01*
X004637Y020744D02*
X007387Y020744D01*
X007387Y020745D02*
X004637Y020745D01*
X004637Y020746D02*
X007387Y020746D01*
X007387Y020747D02*
X004637Y020747D01*
X004637Y020748D02*
X007387Y020748D01*
X007387Y020749D02*
X004637Y020749D01*
X004637Y020750D02*
X007387Y020750D01*
X007387Y020751D02*
X004637Y020751D01*
X007387Y020751D01*
X007387Y020752D02*
X004637Y020752D01*
X004637Y020753D02*
X007387Y020753D01*
X007387Y020754D02*
X004637Y020754D01*
X004637Y020755D02*
X007387Y020755D01*
X007387Y020756D02*
X004637Y020756D01*
X004637Y020757D02*
X007387Y020757D01*
X007387Y020758D02*
X004637Y020758D01*
X004637Y020759D02*
X007387Y020759D01*
X007387Y020760D02*
X004637Y020760D01*
X004637Y020761D02*
X007387Y020761D01*
X007387Y020762D02*
X004637Y020762D01*
X004637Y020763D02*
X007387Y020763D01*
X007387Y020764D02*
X004637Y020764D01*
X004637Y020765D02*
X007387Y020765D01*
X007387Y020766D02*
X004637Y020766D01*
X004637Y020767D02*
X007387Y020767D01*
X007387Y020768D02*
X004637Y020768D01*
X004637Y020769D02*
X007387Y020769D01*
X004637Y020769D01*
X004637Y020770D02*
X007387Y020770D01*
X007387Y020771D02*
X004637Y020771D01*
X004637Y020772D02*
X007387Y020772D01*
X007387Y020773D02*
X004637Y020773D01*
X004637Y020774D02*
X007387Y020774D01*
X007387Y020775D02*
X004637Y020775D01*
X004637Y020776D02*
X007387Y020776D01*
X007387Y020777D02*
X004637Y020777D01*
X004637Y020778D02*
X007387Y020778D01*
X007387Y020779D02*
X004637Y020779D01*
X004637Y020780D02*
X007387Y020780D01*
X007387Y020781D02*
X004637Y020781D01*
X004637Y020782D02*
X007387Y020782D01*
X007387Y020783D02*
X004637Y020783D01*
X004637Y020784D02*
X007387Y020784D01*
X007387Y020785D02*
X004637Y020785D01*
X004637Y020786D02*
X007387Y020786D01*
X004637Y020786D01*
X004637Y020787D02*
X007387Y020787D01*
X007387Y020788D02*
X004637Y020788D01*
X004637Y020789D02*
X007387Y020789D01*
X007387Y020790D02*
X004637Y020790D01*
X004637Y020791D02*
X007387Y020791D01*
X007387Y020792D02*
X004637Y020792D01*
X004637Y020793D02*
X007387Y020793D01*
X007387Y020794D02*
X004637Y020794D01*
X004637Y020795D02*
X007387Y020795D01*
X007387Y020796D02*
X004637Y020796D01*
X004637Y020797D02*
X007387Y020797D01*
X007387Y020798D02*
X004637Y020798D01*
X004637Y020799D02*
X007387Y020799D01*
X007387Y020800D02*
X004637Y020800D01*
X004637Y020801D02*
X007387Y020801D01*
X007387Y020802D02*
X004637Y020802D01*
X004637Y020803D02*
X007387Y020803D01*
X004637Y020803D01*
X004637Y020804D02*
X007387Y020804D01*
X007387Y020805D02*
X004637Y020805D01*
X004637Y020806D02*
X007387Y020806D01*
X007387Y020807D02*
X004637Y020807D01*
X004637Y020808D02*
X007387Y020808D01*
X007387Y020809D02*
X004637Y020809D01*
X004637Y020810D02*
X007387Y020810D01*
X007387Y020811D02*
X004637Y020811D01*
X004637Y020812D02*
X007387Y020812D01*
X007387Y020813D02*
X004637Y020813D01*
X004637Y020814D02*
X007387Y020814D01*
X007387Y020815D02*
X004637Y020815D01*
X004637Y020816D02*
X007387Y020816D01*
X007387Y020817D02*
X004637Y020817D01*
X004637Y020818D02*
X007387Y020818D01*
X007387Y020819D02*
X004637Y020819D01*
X004637Y020820D02*
X007387Y020820D01*
X004637Y020820D01*
X004637Y020821D02*
X007387Y020821D01*
X007387Y020822D02*
X004637Y020822D01*
X004637Y020823D02*
X007387Y020823D01*
X007387Y020824D02*
X004637Y020824D01*
X004637Y020825D02*
X007387Y020825D01*
X007387Y020826D02*
X004637Y020826D01*
X004637Y020827D02*
X007387Y020827D01*
X007387Y020828D02*
X004637Y020828D01*
X004637Y020829D02*
X007387Y020829D01*
X007387Y020830D02*
X004637Y020830D01*
X004637Y020831D02*
X007387Y020831D01*
X007387Y020832D02*
X004637Y020832D01*
X004637Y020833D02*
X007387Y020833D01*
X007387Y020834D02*
X004637Y020834D01*
X004637Y020835D02*
X007387Y020835D01*
X007387Y020836D02*
X004637Y020836D01*
X004637Y020837D02*
X007387Y020837D01*
X004637Y020837D01*
X004637Y020838D02*
X007387Y020838D01*
X007387Y020839D02*
X004637Y020839D01*
X004637Y020840D02*
X007387Y020840D01*
X007387Y020841D02*
X004637Y020841D01*
X004637Y020842D02*
X007387Y020842D01*
X007387Y020843D02*
X004637Y020843D01*
X004637Y020844D02*
X007387Y020844D01*
X007387Y020845D02*
X004637Y020845D01*
X004637Y020846D02*
X007387Y020846D01*
X007387Y020847D02*
X004637Y020847D01*
X004637Y020848D02*
X007387Y020848D01*
X007387Y020849D02*
X004637Y020849D01*
X004637Y020850D02*
X007387Y020850D01*
X007387Y020851D02*
X004637Y020851D01*
X004637Y020852D02*
X007387Y020852D01*
X007387Y020853D02*
X004637Y020853D01*
X004637Y020854D02*
X007387Y020854D01*
X004637Y020854D01*
X004637Y020855D02*
X007387Y020855D01*
X007387Y020856D02*
X004637Y020856D01*
X004637Y020857D02*
X007387Y020857D01*
X007387Y020858D02*
X004637Y020858D01*
X004637Y020859D02*
X007387Y020859D01*
X007387Y020860D02*
X004637Y020860D01*
X004637Y020861D02*
X007387Y020861D01*
X007387Y020862D02*
X004637Y020862D01*
X004637Y020863D02*
X007387Y020863D01*
X007387Y020864D02*
X004637Y020864D01*
X004637Y020865D02*
X007387Y020865D01*
X007387Y020866D02*
X004637Y020866D01*
X004637Y020867D02*
X007387Y020867D01*
X007387Y020868D02*
X004637Y020868D01*
X004637Y020869D02*
X007387Y020869D01*
X007387Y020870D02*
X004637Y020870D01*
X004637Y020871D02*
X007387Y020871D01*
X004637Y020871D01*
X004637Y020872D02*
X007387Y020872D01*
X007387Y020873D02*
X004637Y020873D01*
X004637Y020874D02*
X007387Y020874D01*
X007387Y020875D02*
X004637Y020875D01*
X004637Y020876D02*
X007387Y020876D01*
X007387Y020877D02*
X004637Y020877D01*
X004637Y020878D02*
X007387Y020878D01*
X007387Y020879D02*
X004637Y020879D01*
X004637Y020880D02*
X007387Y020880D01*
X007387Y020881D02*
X004637Y020881D01*
X004637Y020882D02*
X007387Y020882D01*
X007387Y020883D02*
X004637Y020883D01*
X004637Y020884D02*
X007387Y020884D01*
X007387Y020885D02*
X004637Y020885D01*
X004637Y020886D02*
X007387Y020886D01*
X007387Y020887D02*
X004637Y020887D01*
X004637Y020888D02*
X007387Y020888D01*
X007387Y020889D02*
X004637Y020889D01*
X007387Y020889D01*
X007387Y020890D02*
X004637Y020890D01*
X004637Y020891D02*
X007387Y020891D01*
X007387Y020892D02*
X004637Y020892D01*
X004637Y020893D02*
X007387Y020893D01*
X007387Y020894D02*
X004637Y020894D01*
X004637Y020895D02*
X007387Y020895D01*
X007387Y020896D02*
X004637Y020896D01*
X004637Y020897D02*
X007387Y020897D01*
X007387Y020898D02*
X004637Y020898D01*
X004637Y020899D02*
X007387Y020899D01*
X007387Y020900D02*
X004637Y020900D01*
X004637Y020901D02*
X007387Y020901D01*
X007387Y020902D02*
X004637Y020902D01*
X004637Y020903D02*
X007387Y020903D01*
X007387Y020904D02*
X004637Y020904D01*
X004637Y020905D02*
X007387Y020905D01*
X007387Y020906D02*
X004637Y020906D01*
X007387Y020906D01*
X007387Y020907D02*
X004637Y020907D01*
X004637Y020908D02*
X007387Y020908D01*
X007387Y020909D02*
X004637Y020909D01*
X004637Y020910D02*
X007387Y020910D01*
X007387Y020911D02*
X004637Y020911D01*
X004637Y020912D02*
X007387Y020912D01*
X007387Y020913D02*
X004637Y020913D01*
X004637Y020914D02*
X007387Y020914D01*
X007387Y020915D02*
X004637Y020915D01*
X004637Y020916D02*
X007387Y020916D01*
X007387Y020917D02*
X004637Y020917D01*
X004637Y020918D02*
X007387Y020918D01*
X007387Y020919D02*
X004637Y020919D01*
X004637Y020920D02*
X007387Y020920D01*
X007387Y020921D02*
X004637Y020921D01*
X004637Y020922D02*
X007387Y020922D01*
X007387Y020923D02*
X004637Y020923D01*
X007387Y020923D01*
X007387Y020924D02*
X004637Y020924D01*
X004637Y020925D02*
X007387Y020925D01*
X007387Y020926D02*
X004637Y020926D01*
X004637Y020927D02*
X007387Y020927D01*
X007387Y020928D02*
X004637Y020928D01*
X004637Y020929D02*
X007387Y020929D01*
X007387Y020930D02*
X004637Y020930D01*
X004637Y020931D02*
X007387Y020931D01*
X007387Y020932D02*
X004637Y020932D01*
X004637Y020933D02*
X007387Y020933D01*
X007387Y020934D02*
X004637Y020934D01*
X004637Y020935D02*
X007387Y020935D01*
X007387Y020936D02*
X004637Y020936D01*
X004637Y020937D02*
X007387Y020937D01*
X007387Y020938D02*
X004637Y020938D01*
X004637Y020939D02*
X007387Y020939D01*
X007387Y020940D02*
X004637Y020940D01*
X007387Y020940D01*
X007387Y020941D02*
X004637Y020941D01*
X004637Y020942D02*
X007387Y020942D01*
X007387Y020943D02*
X004637Y020943D01*
X004637Y020944D02*
X007387Y020944D01*
X007387Y020945D02*
X004637Y020945D01*
X004637Y020946D02*
X007387Y020946D01*
X007387Y020947D02*
X004637Y020947D01*
X004637Y020948D02*
X007387Y020948D01*
X007387Y020949D02*
X004637Y020949D01*
X004637Y020950D02*
X007387Y020950D01*
X007387Y020951D02*
X004637Y020951D01*
X004637Y020952D02*
X007387Y020952D01*
X007387Y020953D02*
X004637Y020953D01*
X004637Y020954D02*
X007387Y020954D01*
X007387Y020955D02*
X004637Y020955D01*
X004637Y020956D02*
X007387Y020956D01*
X007387Y020957D02*
X004637Y020957D01*
X007387Y020957D01*
X007387Y020958D02*
X004637Y020958D01*
X004637Y020959D02*
X007387Y020959D01*
X007387Y020960D02*
X004637Y020960D01*
X004637Y020961D02*
X007387Y020961D01*
X007387Y020962D02*
X004637Y020962D01*
X004637Y020963D02*
X007387Y020963D01*
X007387Y020964D02*
X004637Y020964D01*
X004637Y020965D02*
X007387Y020965D01*
X007387Y020966D02*
X004637Y020966D01*
X004637Y020967D02*
X007387Y020967D01*
X007387Y020968D02*
X004637Y020968D01*
X004637Y020969D02*
X007387Y020969D01*
X007387Y020970D02*
X004637Y020970D01*
X004637Y020971D02*
X007387Y020971D01*
X007387Y020972D02*
X004637Y020972D01*
X004637Y020973D02*
X007387Y020973D01*
X007387Y020974D02*
X004637Y020974D01*
X007387Y020974D01*
X007387Y020975D02*
X004637Y020975D01*
X004637Y020976D02*
X007387Y020976D01*
X007387Y020977D02*
X004637Y020977D01*
X004637Y020978D02*
X007387Y020978D01*
X007387Y020979D02*
X004637Y020979D01*
X004637Y020980D02*
X007387Y020980D01*
X007387Y020981D02*
X004637Y020981D01*
X004637Y020982D02*
X007387Y020982D01*
X007387Y020983D02*
X004637Y020983D01*
X004637Y020984D02*
X007387Y020984D01*
X007387Y020985D02*
X004637Y020985D01*
X004637Y020986D02*
X007387Y020986D01*
X007387Y020987D02*
X004637Y020987D01*
X004637Y020988D02*
X007387Y020988D01*
X007387Y020989D02*
X004637Y020989D01*
X004637Y020990D02*
X007387Y020990D01*
X007387Y020991D02*
X004637Y020991D01*
X007387Y020991D01*
X007387Y020992D02*
X004637Y020992D01*
X004637Y020993D02*
X007387Y020993D01*
X007387Y020994D02*
X004637Y020994D01*
X004637Y020995D02*
X007387Y020995D01*
X007387Y020996D02*
X004637Y020996D01*
X004637Y020997D02*
X007387Y020997D01*
X007387Y020998D02*
X004637Y020998D01*
X004637Y020999D02*
X007387Y020999D01*
X007387Y021000D02*
X004637Y021000D01*
X004637Y021001D02*
X007387Y021001D01*
X007387Y021002D02*
X004637Y021002D01*
X004637Y021003D02*
X007387Y021003D01*
X007387Y021004D02*
X004637Y021004D01*
X004637Y021005D02*
X007387Y021005D01*
X007387Y021006D02*
X004637Y021006D01*
X004637Y021007D02*
X007387Y021007D01*
X007387Y021008D02*
X004637Y021008D01*
X004637Y021009D02*
X007387Y021009D01*
X004637Y021009D01*
X004637Y021010D02*
X007387Y021010D01*
X007387Y021011D02*
X004637Y021011D01*
X004637Y021012D02*
X007387Y021012D01*
X007387Y021013D02*
X004637Y021013D01*
X004637Y021014D02*
X007387Y021014D01*
X007387Y021015D02*
X004637Y021015D01*
X004637Y021016D02*
X007387Y021016D01*
X007387Y021017D02*
X004637Y021017D01*
X004637Y021018D02*
X007387Y021018D01*
X007387Y021019D02*
X004637Y021019D01*
X004637Y021020D02*
X007387Y021020D01*
X007387Y021021D02*
X004637Y021021D01*
X004637Y021022D02*
X007387Y021022D01*
X007387Y021023D02*
X004637Y021023D01*
X004637Y021024D02*
X007387Y021024D01*
X007387Y021025D02*
X004637Y021025D01*
X004637Y021026D02*
X007387Y021026D01*
X004637Y021026D01*
X004637Y021027D02*
X007387Y021027D01*
X007387Y021028D02*
X004637Y021028D01*
X004637Y021029D02*
X007387Y021029D01*
X007387Y021030D02*
X004637Y021030D01*
X004637Y021031D02*
X007387Y021031D01*
X007387Y021032D02*
X004637Y021032D01*
X004637Y021033D02*
X007387Y021033D01*
X007387Y021034D02*
X004637Y021034D01*
X004637Y021035D02*
X007387Y021035D01*
X007387Y021036D02*
X004637Y021036D01*
X004637Y021037D02*
X007387Y021037D01*
X007387Y021038D02*
X004637Y021038D01*
X004637Y021039D02*
X007387Y021039D01*
X007387Y021040D02*
X004637Y021040D01*
X004637Y021041D02*
X007387Y021041D01*
X007387Y021042D02*
X004637Y021042D01*
X004637Y021043D02*
X007387Y021043D01*
X004637Y021043D01*
X004637Y021044D02*
X007387Y021044D01*
X007387Y021045D02*
X004637Y021045D01*
X004637Y021046D02*
X007387Y021046D01*
X007387Y021047D02*
X004637Y021047D01*
X004637Y021048D02*
X007387Y021048D01*
X007387Y021049D02*
X004637Y021049D01*
X004637Y021050D02*
X007387Y021050D01*
X007387Y021051D02*
X004637Y021051D01*
X004637Y021052D02*
X007387Y021052D01*
X007387Y021053D02*
X004637Y021053D01*
X004637Y021054D02*
X007387Y021054D01*
X007387Y021055D02*
X004637Y021055D01*
X004637Y021056D02*
X007387Y021056D01*
X007387Y021057D02*
X004637Y021057D01*
X004637Y021058D02*
X007387Y021058D01*
X007387Y021059D02*
X004637Y021059D01*
X004637Y021060D02*
X007387Y021060D01*
X004637Y021060D01*
X004637Y021061D02*
X007387Y021061D01*
X007387Y021062D02*
X004637Y021062D01*
X004637Y021063D02*
X007387Y021063D01*
X007387Y021064D02*
X004637Y021064D01*
X004637Y021065D02*
X007387Y021065D01*
X007387Y021066D02*
X004637Y021066D01*
X004637Y021067D02*
X007387Y021067D01*
X007387Y021068D02*
X004637Y021068D01*
X004637Y021069D02*
X007387Y021069D01*
X007387Y021070D02*
X004637Y021070D01*
X004637Y021071D02*
X007387Y021071D01*
X007387Y021072D02*
X004637Y021072D01*
X004637Y021073D02*
X007387Y021073D01*
X007387Y021074D02*
X004637Y021074D01*
X004637Y021075D02*
X007387Y021075D01*
X007387Y021076D02*
X004637Y021076D01*
X004637Y021077D02*
X007387Y021077D01*
X004637Y021077D01*
X004637Y021078D02*
X007387Y021078D01*
X007387Y021079D02*
X004637Y021079D01*
X004637Y021080D02*
X007387Y021080D01*
X007387Y021081D02*
X004637Y021081D01*
X004637Y021082D02*
X007387Y021082D01*
X007387Y021083D02*
X004637Y021083D01*
X004637Y021084D02*
X007387Y021084D01*
X007387Y021085D02*
X004637Y021085D01*
X004637Y021086D02*
X007387Y021086D01*
X007387Y021087D02*
X004637Y021087D01*
X004637Y021088D02*
X007387Y021088D01*
X007387Y021089D02*
X004637Y021089D01*
X004637Y021090D02*
X007387Y021090D01*
X007387Y021091D02*
X004637Y021091D01*
X004637Y021092D02*
X007387Y021092D01*
X007387Y021093D02*
X004637Y021093D01*
X004637Y021094D02*
X007387Y021094D01*
X004637Y021094D01*
X004637Y021095D02*
X007387Y021095D01*
X007387Y021096D02*
X004637Y021096D01*
X004637Y021097D02*
X007387Y021097D01*
X007387Y021098D02*
X004637Y021098D01*
X004637Y021099D02*
X007387Y021099D01*
X007387Y021100D02*
X004637Y021100D01*
X004637Y021101D02*
X007387Y021101D01*
X007387Y021102D02*
X004637Y021102D01*
X004637Y021103D02*
X007387Y021103D01*
X007387Y021104D02*
X004637Y021104D01*
X004637Y021105D02*
X007387Y021105D01*
X007387Y021106D02*
X004637Y021106D01*
X004637Y021107D02*
X007387Y021107D01*
X007387Y021108D02*
X004637Y021108D01*
X004637Y021109D02*
X007387Y021109D01*
X007387Y021110D02*
X004637Y021110D01*
X004637Y021111D02*
X007387Y021111D01*
X004637Y021111D01*
X004637Y021112D02*
X007387Y021112D01*
X007387Y021113D02*
X004637Y021113D01*
X004637Y021114D02*
X007387Y021114D01*
X007387Y021115D02*
X004637Y021115D01*
X004637Y021116D02*
X007387Y021116D01*
X007387Y021117D02*
X004637Y021117D01*
X004637Y021118D02*
X007387Y021118D01*
X007387Y021119D02*
X004637Y021119D01*
X004637Y021120D02*
X007387Y021120D01*
X007387Y021121D02*
X004637Y021121D01*
X004637Y021122D02*
X007387Y021122D01*
X007387Y021123D02*
X004637Y021123D01*
X004637Y021124D02*
X007387Y021124D01*
X007387Y021125D02*
X004637Y021125D01*
X004637Y021126D02*
X007387Y021126D01*
X007387Y021127D02*
X004637Y021127D01*
X004637Y021128D02*
X007387Y021128D01*
X007387Y021129D02*
X004637Y021129D01*
X007387Y021129D01*
X007387Y021130D02*
X004637Y021130D01*
X004637Y021131D02*
X007387Y021131D01*
X007387Y021132D02*
X004637Y021132D01*
X004637Y021133D02*
X007387Y021133D01*
X007387Y021134D02*
X004637Y021134D01*
X004637Y021135D02*
X007387Y021135D01*
X007387Y021136D02*
X004637Y021136D01*
X004637Y021137D02*
X007387Y021137D01*
X007387Y021138D02*
X004637Y021138D01*
X004637Y021139D02*
X007387Y021139D01*
X007387Y021140D02*
X004637Y021140D01*
X004637Y021141D02*
X007387Y021141D01*
X007387Y021142D02*
X004637Y021142D01*
X004637Y021143D02*
X007387Y021143D01*
X007387Y021144D02*
X004637Y021144D01*
X004637Y021145D02*
X007387Y021145D01*
X007387Y021146D02*
X004637Y021146D01*
X007387Y021146D01*
X007387Y021147D02*
X004637Y021147D01*
X004637Y021148D02*
X007387Y021148D01*
X007387Y021149D02*
X004637Y021149D01*
X004637Y021150D02*
X007387Y021150D01*
X007387Y021151D02*
X004637Y021151D01*
X004637Y021152D02*
X007387Y021152D01*
X007387Y021153D02*
X004637Y021153D01*
X004637Y021154D02*
X007387Y021154D01*
X007387Y021155D02*
X004637Y021155D01*
X004637Y021156D02*
X007387Y021156D01*
X007387Y021157D02*
X004637Y021157D01*
X004637Y021158D02*
X007387Y021158D01*
X007387Y021159D02*
X004637Y021159D01*
X004637Y021160D02*
X007387Y021160D01*
X007387Y021161D02*
X004637Y021161D01*
X004637Y021162D02*
X007387Y021162D01*
X007387Y021163D02*
X004637Y021163D01*
X007387Y021163D01*
X007387Y021164D02*
X004637Y021164D01*
X004637Y021165D02*
X007387Y021165D01*
X007387Y021166D02*
X004637Y021166D01*
X004637Y021167D02*
X007387Y021167D01*
X007387Y021168D02*
X004637Y021168D01*
X004637Y021169D02*
X007387Y021169D01*
X007387Y021170D02*
X004637Y021170D01*
X004637Y021171D02*
X007387Y021171D01*
X007387Y021172D02*
X004637Y021172D01*
X004637Y021173D02*
X007387Y021173D01*
X007387Y021174D02*
X004637Y021174D01*
X004637Y021175D02*
X007387Y021175D01*
X007387Y021176D02*
X004637Y021176D01*
X004637Y021177D02*
X007387Y021177D01*
X007387Y021178D02*
X004637Y021178D01*
X004637Y021179D02*
X007387Y021179D01*
X007387Y021180D02*
X004637Y021180D01*
X007387Y021180D01*
X007387Y021181D02*
X004637Y021181D01*
X004637Y021182D02*
X007387Y021182D01*
X007387Y021183D02*
X004637Y021183D01*
X004637Y021184D02*
X007387Y021184D01*
X007387Y021185D02*
X004637Y021185D01*
X004637Y021186D02*
X007387Y021186D01*
X007387Y021187D02*
X004637Y021187D01*
X004637Y021188D02*
X007387Y021188D01*
X007387Y021189D02*
X004637Y021189D01*
X004637Y021190D02*
X007387Y021190D01*
X007387Y021191D02*
X004637Y021191D01*
X004637Y021192D02*
X007387Y021192D01*
X007387Y021193D02*
X004637Y021193D01*
X004637Y021194D02*
X007387Y021194D01*
X007387Y021195D02*
X004637Y021195D01*
X004637Y021196D02*
X007387Y021196D01*
X007387Y021197D02*
X004637Y021197D01*
X007387Y021197D01*
X007387Y021198D02*
X004637Y021198D01*
X004637Y021199D02*
X007387Y021199D01*
X007387Y021200D02*
X004637Y021200D01*
X004637Y021201D02*
X007387Y021201D01*
X007387Y021202D02*
X004637Y021202D01*
X004637Y021203D02*
X007387Y021203D01*
X007387Y021204D02*
X004637Y021204D01*
X004637Y021205D02*
X007387Y021205D01*
X007387Y021206D02*
X004637Y021206D01*
X004637Y021207D02*
X007387Y021207D01*
X007387Y021208D02*
X004637Y021208D01*
X004637Y021209D02*
X007387Y021209D01*
X007387Y021210D02*
X004637Y021210D01*
X004637Y021211D02*
X007387Y021211D01*
X007387Y021212D02*
X004637Y021212D01*
X004637Y021213D02*
X007387Y021213D01*
X007387Y021214D02*
X004637Y021214D01*
X007387Y021214D01*
X007387Y021215D02*
X004637Y021215D01*
X004637Y021216D02*
X007387Y021216D01*
X007387Y021217D02*
X004637Y021217D01*
X004637Y021218D02*
X007387Y021218D01*
X007387Y021219D02*
X004637Y021219D01*
X004637Y021220D02*
X007387Y021220D01*
X007387Y021221D02*
X004637Y021221D01*
X004637Y021222D02*
X007387Y021222D01*
X007387Y021223D02*
X004637Y021223D01*
X004637Y021224D02*
X007387Y021224D01*
X007387Y021225D02*
X004637Y021225D01*
X004637Y021226D02*
X007387Y021226D01*
X007387Y021227D02*
X004637Y021227D01*
X004637Y021228D02*
X007387Y021228D01*
X007387Y021229D02*
X004637Y021229D01*
X004637Y021230D02*
X007387Y021230D01*
X007387Y021231D02*
X004637Y021231D01*
X007387Y021231D01*
X007387Y021232D02*
X004637Y021232D01*
X004637Y021233D02*
X007387Y021233D01*
X007387Y021234D02*
X004637Y021234D01*
X004637Y021235D02*
X007387Y021235D01*
X007387Y021236D02*
X004637Y021236D01*
X004637Y021237D02*
X007387Y021237D01*
X007387Y021238D02*
X004637Y021238D01*
X004637Y021239D02*
X007387Y021239D01*
X007387Y021240D02*
X004637Y021240D01*
X004637Y021241D02*
X007387Y021241D01*
X007387Y021242D02*
X004637Y021242D01*
X004637Y021243D02*
X007387Y021243D01*
X007387Y021244D02*
X004637Y021244D01*
X004637Y021245D02*
X007387Y021245D01*
X007387Y021246D02*
X004637Y021246D01*
X004637Y021247D02*
X007387Y021247D01*
X007387Y021248D02*
X004637Y021248D01*
X004637Y021249D02*
X007387Y021249D01*
X004637Y021249D01*
X004637Y021250D02*
X007387Y021250D01*
X007387Y021251D02*
X004637Y021251D01*
X004637Y021252D02*
X007387Y021252D01*
X007387Y021253D02*
X004637Y021253D01*
X004637Y021254D02*
X007387Y021254D01*
X007387Y021255D02*
X004637Y021255D01*
X004637Y021256D02*
X007387Y021256D01*
X007387Y021257D02*
X004637Y021257D01*
X004637Y021258D02*
X007387Y021258D01*
X007387Y021259D02*
X004637Y021259D01*
X004637Y021260D02*
X007387Y021260D01*
X007387Y021261D02*
X004637Y021261D01*
X004637Y021262D02*
X007387Y021262D01*
X007387Y021263D02*
X004637Y021263D01*
X004637Y021264D02*
X007387Y021264D01*
X007387Y021265D02*
X004637Y021265D01*
X004637Y021266D02*
X007387Y021266D01*
X004637Y021266D01*
X004637Y021267D02*
X007387Y021267D01*
X007387Y021268D02*
X004637Y021268D01*
X004637Y021269D02*
X007387Y021269D01*
X007387Y021270D02*
X004637Y021270D01*
X004637Y021271D02*
X007387Y021271D01*
X007387Y021272D02*
X004637Y021272D01*
X004637Y021273D02*
X007387Y021273D01*
X007387Y021274D02*
X004637Y021274D01*
X004637Y021275D02*
X007387Y021275D01*
X007387Y021276D02*
X004637Y021276D01*
X004637Y021277D02*
X007387Y021277D01*
X007387Y021278D02*
X004637Y021278D01*
X004637Y021279D02*
X007387Y021279D01*
X007387Y021280D02*
X004637Y021280D01*
X004637Y021281D02*
X007387Y021281D01*
X007387Y021282D02*
X004637Y021282D01*
X004637Y021283D02*
X007387Y021283D01*
X004637Y021283D01*
X004637Y021284D02*
X007387Y021284D01*
X007387Y021285D02*
X004637Y021285D01*
X004637Y021286D02*
X007387Y021286D01*
X007387Y021287D02*
X004637Y021287D01*
X004637Y021288D02*
X007387Y021288D01*
X007387Y021289D02*
X004637Y021289D01*
X004637Y021290D02*
X007387Y021290D01*
X007387Y021291D02*
X004637Y021291D01*
X004637Y021292D02*
X007387Y021292D01*
X007387Y021293D02*
X004637Y021293D01*
X004637Y021294D02*
X007387Y021294D01*
X007387Y021295D02*
X004637Y021295D01*
X004637Y021296D02*
X007387Y021296D01*
X007387Y021297D02*
X004637Y021297D01*
X004637Y021298D02*
X007387Y021298D01*
X007387Y021299D02*
X004637Y021299D01*
X004637Y021300D02*
X007387Y021300D01*
X004637Y021300D01*
X004637Y021301D02*
X007387Y021301D01*
X007387Y021302D02*
X004637Y021302D01*
X004637Y021303D02*
X007387Y021303D01*
X007387Y021304D02*
X004637Y021304D01*
X004637Y021305D02*
X007387Y021305D01*
X007387Y021306D02*
X004637Y021306D01*
X004637Y021307D02*
X007387Y021307D01*
X007387Y021308D02*
X004637Y021308D01*
X004637Y021309D02*
X007387Y021309D01*
X007387Y021310D02*
X004637Y021310D01*
X004637Y021311D02*
X007387Y021311D01*
X007387Y021312D02*
X004637Y021312D01*
X004637Y021313D02*
X007387Y021313D01*
X007387Y021314D02*
X004637Y021314D01*
X004637Y021315D02*
X007387Y021315D01*
X007387Y021316D02*
X004637Y021316D01*
X004637Y021317D02*
X007387Y021317D01*
X004637Y021317D01*
X004637Y021318D02*
X007387Y021318D01*
X007387Y021319D02*
X004637Y021319D01*
X004637Y021320D02*
X007387Y021320D01*
X007387Y021321D02*
X004637Y021321D01*
X004637Y021322D02*
X007387Y021322D01*
X007387Y021323D02*
X004637Y021323D01*
X004637Y021324D02*
X007387Y021324D01*
X007387Y021325D02*
X004637Y021325D01*
X004637Y021326D02*
X007387Y021326D01*
X007387Y021327D02*
X004637Y021327D01*
X004637Y021328D02*
X007387Y021328D01*
X007387Y021329D02*
X004637Y021329D01*
X004637Y021330D02*
X007387Y021330D01*
X007387Y021331D02*
X004637Y021331D01*
X004637Y021332D02*
X007387Y021332D01*
X007387Y021333D02*
X004637Y021333D01*
X004637Y021334D02*
X007387Y021334D01*
X004637Y021334D01*
X004637Y021335D02*
X007387Y021335D01*
X007387Y021336D02*
X004637Y021336D01*
X004637Y021337D02*
X007387Y021337D01*
X007387Y021338D02*
X004637Y021338D01*
X004637Y021339D02*
X007387Y021339D01*
X007387Y021340D02*
X004637Y021340D01*
X004637Y021341D02*
X007387Y021341D01*
X007387Y021342D02*
X004637Y021342D01*
X004637Y021343D02*
X007387Y021343D01*
X007387Y021344D02*
X004637Y021344D01*
X004637Y021345D02*
X007387Y021345D01*
X007387Y021346D02*
X004637Y021346D01*
X004637Y021347D02*
X007387Y021347D01*
X007387Y021348D02*
X004637Y021348D01*
X004637Y021349D02*
X007387Y021349D01*
X007387Y021350D02*
X004637Y021350D01*
X004637Y021351D02*
X007387Y021351D01*
X004637Y021351D01*
X004637Y021352D02*
X007387Y021352D01*
X007387Y021353D02*
X004637Y021353D01*
X004637Y021354D02*
X007387Y021354D01*
X007387Y021355D02*
X004637Y021355D01*
X004637Y021356D02*
X007387Y021356D01*
X007387Y021357D02*
X004637Y021357D01*
X004637Y021358D02*
X007387Y021358D01*
X007387Y021359D02*
X004637Y021359D01*
X004637Y021360D02*
X007387Y021360D01*
X007387Y021361D02*
X004637Y021361D01*
X004637Y021362D02*
X007387Y021362D01*
X007387Y021363D02*
X004637Y021363D01*
X004637Y021364D02*
X007387Y021364D01*
X007387Y021365D02*
X004637Y021365D01*
X004637Y021366D02*
X007387Y021366D01*
X007387Y021367D02*
X004637Y021367D01*
X004637Y021368D02*
X007387Y021368D01*
X007387Y021369D02*
X004637Y021369D01*
X007387Y021369D01*
X007387Y021370D02*
X004637Y021370D01*
X004637Y021371D02*
X007387Y021371D01*
X007387Y021372D02*
X004637Y021372D01*
X004637Y021373D02*
X007387Y021373D01*
X007387Y021374D02*
X004637Y021374D01*
X004637Y021375D02*
X007387Y021375D01*
X007387Y021376D02*
X004637Y021376D01*
X004637Y021377D02*
X007387Y021377D01*
X007387Y021378D02*
X004637Y021378D01*
X004637Y021379D02*
X007387Y021379D01*
X007387Y021380D02*
X004637Y021380D01*
X004637Y021381D02*
X007387Y021381D01*
X007387Y021382D02*
X004637Y021382D01*
X004637Y021383D02*
X007387Y021383D01*
X007387Y021384D02*
X004637Y021384D01*
X004637Y021385D02*
X007387Y021385D01*
X007387Y021386D02*
X004637Y021386D01*
X007387Y021386D01*
X007387Y021387D02*
X004637Y021387D01*
X004637Y021388D02*
X007387Y021388D01*
X007387Y021389D02*
X004637Y021389D01*
X004637Y021390D02*
X007387Y021390D01*
X007387Y021391D02*
X004637Y021391D01*
X004637Y021392D02*
X007387Y021392D01*
X007387Y021393D02*
X004637Y021393D01*
X004637Y021394D02*
X007387Y021394D01*
X007387Y021395D02*
X004637Y021395D01*
X004637Y021396D02*
X007387Y021396D01*
X007387Y021397D02*
X004637Y021397D01*
X004637Y021398D02*
X007387Y021398D01*
X007387Y021399D02*
X004637Y021399D01*
X004637Y021400D02*
X007387Y021400D01*
X007387Y021401D02*
X004637Y021401D01*
X004637Y021402D02*
X007387Y021402D01*
X007387Y021403D02*
X004637Y021403D01*
X007387Y021403D01*
X007387Y021404D02*
X004637Y021404D01*
X004637Y021405D02*
X007387Y021405D01*
X007387Y021406D02*
X004637Y021406D01*
X004637Y021407D02*
X007387Y021407D01*
X007387Y021408D02*
X004637Y021408D01*
X004637Y021409D02*
X007387Y021409D01*
X007387Y021410D02*
X004637Y021410D01*
X004637Y021411D02*
X007387Y021411D01*
X007387Y021412D02*
X004637Y021412D01*
X004637Y021413D02*
X007387Y021413D01*
X007387Y021414D02*
X004637Y021414D01*
X004637Y021415D02*
X007387Y021415D01*
X007387Y021416D02*
X004637Y021416D01*
X004637Y021417D02*
X007387Y021417D01*
X007387Y021418D02*
X004637Y021418D01*
X004637Y021419D02*
X007387Y021419D01*
X007387Y021420D02*
X004637Y021420D01*
X007387Y021420D01*
X007387Y021421D02*
X004637Y021421D01*
X004637Y021422D02*
X007387Y021422D01*
X007387Y021423D02*
X004637Y021423D01*
X004637Y021424D02*
X007387Y021424D01*
X007387Y021425D02*
X004637Y021425D01*
X004637Y021426D02*
X007387Y021426D01*
X007387Y021427D02*
X004637Y021427D01*
X004637Y021428D02*
X007387Y021428D01*
X007387Y021429D02*
X004637Y021429D01*
X004637Y021430D02*
X007387Y021430D01*
X007387Y021431D02*
X004637Y021431D01*
X004637Y021432D02*
X007387Y021432D01*
X007387Y021433D02*
X004637Y021433D01*
X004637Y021434D02*
X007387Y021434D01*
X007387Y021435D02*
X004637Y021435D01*
X004637Y021436D02*
X007387Y021436D01*
X007387Y021437D02*
X004637Y021437D01*
X007387Y021437D01*
X007387Y021438D02*
X004637Y021438D01*
X004637Y021439D02*
X007387Y021439D01*
X007387Y021440D02*
X004637Y021440D01*
X004637Y021441D02*
X007387Y021441D01*
X007387Y021442D02*
X004637Y021442D01*
X004637Y021443D02*
X007387Y021443D01*
X007387Y021444D02*
X004637Y021444D01*
X004637Y021445D02*
X007387Y021445D01*
X007387Y021446D02*
X004637Y021446D01*
X004637Y021447D02*
X007387Y021447D01*
X007387Y021448D02*
X004637Y021448D01*
X004637Y021449D02*
X007387Y021449D01*
X007387Y021450D02*
X004637Y021450D01*
X004637Y021451D02*
X007387Y021451D01*
X007387Y021452D02*
X004637Y021452D01*
X004637Y021453D02*
X007387Y021453D01*
X007387Y021454D02*
X004637Y021454D01*
X007387Y021454D01*
X007387Y021455D02*
X004637Y021455D01*
X004637Y021456D02*
X007387Y021456D01*
X007387Y021457D02*
X004637Y021457D01*
X004637Y021458D02*
X007387Y021458D01*
X007387Y021459D02*
X004637Y021459D01*
X004637Y021460D02*
X007387Y021460D01*
X007387Y021461D02*
X004637Y021461D01*
X004637Y021462D02*
X007387Y021462D01*
X007387Y021463D02*
X004637Y021463D01*
X004637Y021464D02*
X007387Y021464D01*
X007387Y021465D02*
X004637Y021465D01*
X004637Y021466D02*
X007387Y021466D01*
X007387Y021467D02*
X004637Y021467D01*
X004637Y021468D02*
X007387Y021468D01*
X007387Y021469D02*
X004637Y021469D01*
X004637Y021470D02*
X007387Y021470D01*
X007387Y021471D02*
X004637Y021471D01*
X007387Y021471D01*
X007387Y021472D02*
X004637Y021472D01*
X004637Y021473D02*
X007387Y021473D01*
X007387Y021474D02*
X004637Y021474D01*
X004637Y021475D02*
X007387Y021475D01*
X007387Y021476D02*
X004637Y021476D01*
X004637Y021477D02*
X007387Y021477D01*
X007387Y021478D02*
X004637Y021478D01*
X004637Y021479D02*
X007387Y021479D01*
X007387Y021480D02*
X004637Y021480D01*
X004637Y021481D02*
X007387Y021481D01*
X007387Y021482D02*
X004637Y021482D01*
X004637Y021483D02*
X007387Y021483D01*
X007387Y021484D02*
X004637Y021484D01*
X004637Y021485D02*
X007387Y021485D01*
X007387Y021486D02*
X004637Y021486D01*
X004637Y021487D02*
X007387Y021487D01*
X007387Y021488D02*
X004637Y021488D01*
X004637Y021489D02*
X007387Y021489D01*
X004637Y021489D01*
X004637Y021490D02*
X007387Y021490D01*
X007387Y021491D02*
X004637Y021491D01*
X004637Y021492D02*
X007387Y021492D01*
X007387Y021493D02*
X004637Y021493D01*
X004637Y021494D02*
X007387Y021494D01*
X007387Y021495D02*
X004637Y021495D01*
X004637Y021496D02*
X007387Y021496D01*
X007387Y021497D02*
X004637Y021497D01*
X004637Y021498D02*
X007387Y021498D01*
X007387Y021499D02*
X004637Y021499D01*
D14*
X005056Y028578D03*
X005056Y029365D03*
X005056Y030153D03*
X005056Y030940D03*
X005056Y031727D03*
X005056Y032515D03*
X005056Y033302D03*
X005056Y034090D03*
X005056Y034877D03*
X013718Y034877D03*
X013718Y034090D03*
X013718Y033302D03*
X013718Y032515D03*
X013718Y031727D03*
X013718Y030940D03*
X013718Y030153D03*
X013718Y029365D03*
X013718Y028578D03*
X015368Y026124D03*
X016156Y026124D03*
X013718Y035664D03*
X020639Y037999D03*
X021387Y037999D03*
X022174Y037999D03*
X002887Y012324D03*
X002887Y011537D03*
X002887Y010749D03*
X002887Y009174D03*
D15*
X005056Y035664D03*
D16*
X029387Y035249D03*
X029387Y036249D03*
X029387Y037249D03*
X029387Y038249D03*
X029387Y034249D03*
X029387Y033249D03*
X029387Y032249D03*
X029387Y031249D03*
X029387Y030249D03*
X029387Y029249D03*
X029387Y028249D03*
X029387Y027249D03*
X029387Y026249D03*
X029387Y025249D03*
X030387Y025249D03*
X031387Y025249D03*
X032387Y025249D03*
X033387Y025249D03*
X034387Y025249D03*
X035387Y025249D03*
X035387Y026249D03*
X035387Y027249D03*
X035387Y028249D03*
X035387Y029249D03*
X035387Y030249D03*
X035387Y031249D03*
X035387Y032249D03*
X035387Y033249D03*
X035387Y034249D03*
X034387Y034249D03*
X034387Y033249D03*
X034387Y035249D03*
X035387Y035249D03*
X035387Y036249D03*
X035387Y037249D03*
X035387Y038249D03*
X034387Y037249D03*
D17*
X036887Y033749D03*
X037887Y031749D03*
X038637Y031249D03*
X038637Y032249D03*
X039887Y033749D03*
X039887Y029749D03*
X036887Y029749D03*
X036387Y022999D03*
X035387Y022999D03*
X031387Y022999D03*
X030387Y022999D03*
X034887Y017749D03*
X034887Y016749D03*
X034887Y011249D03*
X034887Y010249D03*
X034887Y004749D03*
X034887Y003749D03*
X022387Y003249D03*
X022387Y002249D03*
X022387Y004249D03*
X018387Y004249D03*
X018387Y003249D03*
X018387Y002249D03*
X012387Y003749D03*
X012387Y004749D03*
X012387Y010249D03*
X012387Y011249D03*
X012387Y016749D03*
X012387Y017749D03*
X012387Y022999D03*
X011387Y022999D03*
X009887Y026124D03*
X008887Y026124D03*
X008887Y027249D03*
X009887Y027249D03*
X013887Y027249D03*
X013887Y026124D03*
X007387Y022999D03*
X006387Y022999D03*
X004887Y026124D03*
X004887Y027249D03*
X003762Y027249D03*
X002762Y027249D03*
X004387Y016249D03*
X004387Y012249D03*
X004387Y009749D03*
X004387Y005749D03*
X018387Y017249D03*
X018387Y018249D03*
X018387Y019249D03*
X022387Y019249D03*
X022387Y018249D03*
X022387Y017249D03*
D18*
X021887Y035499D03*
X022887Y035499D03*
X023887Y035499D03*
X024887Y035499D03*
X020887Y035499D03*
X019887Y035499D03*
X018887Y035499D03*
X017887Y035499D03*
D19*
X015678Y035499D03*
X027096Y035499D03*
X027096Y023885D03*
X015678Y023885D03*
D20*
X003762Y029749D03*
X003762Y034374D03*
D21*
X002762Y034374D03*
X002762Y029749D03*
D22*
X003637Y023249D03*
X003637Y018749D03*
X003637Y002749D03*
X037887Y002749D03*
X037887Y018749D03*
X039137Y023249D03*
X039137Y037249D03*
X003637Y037249D03*
D23*
X019497Y037999D03*
X023277Y037999D03*
X037403Y027249D03*
X039371Y027249D03*
X023387Y013374D03*
X023387Y008124D03*
X017387Y008124D03*
X017387Y013374D03*
X002887Y013840D03*
X002887Y007659D03*
D24*
X025637Y017944D02*
X025777Y017804D01*
X025957Y017924D01*
X025959Y017965D02*
X026615Y017965D01*
X026637Y017974D02*
X026837Y017824D01*
X026937Y017974D01*
X026787Y018124D01*
X026887Y018324D01*
X027087Y018374D01*
X027087Y018524D01*
X026887Y018574D01*
X026787Y018774D01*
X026937Y018974D01*
X026837Y019074D01*
X026637Y018974D01*
X026387Y019074D01*
X026387Y019274D01*
X026237Y019274D01*
X026187Y019024D01*
X025937Y018974D01*
X025787Y019074D01*
X025687Y018974D01*
X025787Y018824D01*
X025737Y018724D01*
X026037Y018624D01*
X026237Y018774D01*
X026487Y018724D01*
X026587Y018524D01*
X026587Y018324D01*
X026437Y018174D01*
X026137Y018174D01*
X026037Y018324D01*
X025787Y018174D01*
X025787Y018124D01*
X025687Y017974D01*
X025787Y017874D01*
X025937Y017974D01*
X026187Y017874D01*
X026237Y017674D01*
X026387Y017674D01*
X026387Y017874D01*
X026637Y017974D01*
X026649Y017965D02*
X026931Y017965D01*
X026957Y017944D02*
X026827Y018134D01*
X026795Y018141D02*
X025787Y018141D01*
X025757Y018124D02*
X025637Y017944D01*
X025696Y017965D02*
X025924Y017965D01*
X025836Y017907D02*
X025754Y017907D01*
X025720Y018024D02*
X026887Y018024D01*
X026829Y018082D02*
X025759Y018082D01*
X025757Y018124D02*
X025717Y018194D01*
X026057Y018344D01*
X026042Y018317D02*
X026024Y018317D01*
X026081Y018258D02*
X025927Y018258D01*
X025829Y018199D02*
X026120Y018199D01*
X026105Y017907D02*
X026469Y017907D01*
X026437Y017854D02*
X026397Y017624D01*
X026197Y017624D01*
X026157Y017844D01*
X026194Y017848D02*
X026387Y017848D01*
X026387Y017790D02*
X026208Y017790D01*
X026223Y017731D02*
X026387Y017731D01*
X026627Y017934D02*
X026817Y017804D01*
X026957Y017944D01*
X026892Y017907D02*
X026727Y017907D01*
X026805Y017848D02*
X026853Y017848D01*
X026825Y018199D02*
X026462Y018199D01*
X026521Y018258D02*
X026854Y018258D01*
X026883Y018317D02*
X026580Y018317D01*
X026587Y018375D02*
X027087Y018375D01*
X027137Y018364D02*
X027137Y018554D01*
X026897Y018604D01*
X026870Y018609D02*
X026544Y018609D01*
X026574Y018551D02*
X026981Y018551D01*
X027087Y018492D02*
X026587Y018492D01*
X026587Y018434D02*
X027087Y018434D01*
X027137Y018364D02*
X026897Y018314D01*
X026840Y018668D02*
X026515Y018668D01*
X026476Y018726D02*
X026811Y018726D01*
X026827Y018784D02*
X026957Y018984D01*
X026817Y019124D01*
X026627Y018984D01*
X026727Y019019D02*
X026892Y019019D01*
X026927Y018961D02*
X025696Y018961D01*
X025637Y018984D02*
X025757Y018804D01*
X025717Y018724D01*
X026057Y018584D01*
X026095Y018668D02*
X025906Y018668D01*
X025738Y018726D02*
X026173Y018726D01*
X026438Y019076D02*
X026478Y019064D01*
X026517Y019049D01*
X026555Y019031D01*
X026591Y019011D01*
X026626Y018989D01*
X026525Y019019D02*
X026162Y019019D01*
X026157Y019074D02*
X026197Y019294D01*
X026397Y019294D01*
X026437Y019074D01*
X026387Y019078D02*
X026198Y019078D01*
X026210Y019136D02*
X026387Y019136D01*
X026387Y019195D02*
X026221Y019195D01*
X026233Y019253D02*
X026387Y019253D01*
X025957Y018994D02*
X025777Y019124D01*
X025637Y018984D01*
X025732Y019019D02*
X025870Y019019D01*
X025735Y018902D02*
X026883Y018902D01*
X026839Y018843D02*
X025774Y018843D01*
X025767Y018785D02*
X026795Y018785D01*
X026057Y018584D02*
X026073Y018612D01*
X026092Y018639D01*
X026114Y018662D01*
X026139Y018683D01*
X026167Y018701D01*
X026196Y018716D01*
X026227Y018726D01*
X026258Y018734D01*
X026291Y018737D01*
X026323Y018736D01*
X026356Y018732D01*
X026387Y018723D01*
X026417Y018711D01*
X026446Y018696D01*
X026473Y018677D01*
X026497Y018655D01*
X026518Y018631D01*
X026537Y018604D01*
X026552Y018575D01*
X026563Y018544D01*
X026571Y018513D01*
X026575Y018480D01*
X026575Y018448D01*
X026571Y018415D01*
X026563Y018384D01*
X026552Y018353D01*
X026537Y018324D01*
X026518Y018297D01*
X026497Y018273D01*
X026473Y018251D01*
X026446Y018232D01*
X026417Y018217D01*
X026387Y018205D01*
X026356Y018196D01*
X026323Y018192D01*
X026291Y018191D01*
X026258Y018194D01*
X026227Y018202D01*
X026196Y018212D01*
X026167Y018227D01*
X026139Y018245D01*
X026114Y018266D01*
X026092Y018289D01*
X026073Y018316D01*
X026057Y018344D01*
X026823Y018137D02*
X026846Y018179D01*
X026865Y018222D01*
X026882Y018267D01*
X026894Y018313D01*
X026141Y017846D02*
X026094Y017861D01*
X026048Y017879D01*
X026004Y017901D01*
X025962Y017926D01*
X026439Y017852D02*
X026479Y017863D01*
X026518Y017877D01*
X026555Y017893D01*
X026592Y017912D01*
X026627Y017933D01*
X026158Y019073D02*
X026116Y019063D01*
X026075Y019050D01*
X026035Y019034D01*
X025996Y019015D01*
X025959Y018993D01*
X026827Y018784D02*
X026850Y018741D01*
X026870Y018697D01*
X026886Y018651D01*
X026898Y018605D01*
X016067Y030249D02*
X016207Y030389D01*
X016087Y030569D01*
X016062Y030611D02*
X015710Y030611D01*
X015687Y030649D02*
X015837Y030399D01*
X015887Y030399D01*
X016037Y030299D01*
X016137Y030399D01*
X016037Y030549D01*
X016137Y030799D01*
X016337Y030849D01*
X016337Y030999D01*
X016137Y030999D01*
X016037Y031249D01*
X016187Y031449D01*
X016037Y031549D01*
X015887Y031399D01*
X015687Y031499D01*
X015637Y031699D01*
X015487Y031699D01*
X015437Y031499D01*
X015237Y031399D01*
X015037Y031549D01*
X014937Y031449D01*
X015037Y031249D01*
X014937Y030999D01*
X014737Y030999D01*
X014737Y030849D01*
X014987Y030799D01*
X015037Y030549D01*
X014937Y030399D01*
X015037Y030299D01*
X015187Y030399D01*
X015287Y030349D01*
X015387Y030649D01*
X015237Y030849D01*
X015287Y031099D01*
X015487Y031199D01*
X015687Y031199D01*
X015837Y031049D01*
X015837Y030749D01*
X015687Y030649D01*
X015667Y030669D02*
X015817Y030329D01*
X015887Y030369D01*
X016067Y030249D01*
X016056Y030318D02*
X016009Y030318D01*
X015921Y030376D02*
X016114Y030376D01*
X016113Y030435D02*
X015816Y030435D01*
X015780Y030494D02*
X016074Y030494D01*
X016038Y030552D02*
X015745Y030552D01*
X015717Y030669D02*
X016085Y030669D01*
X016109Y030728D02*
X015805Y030728D01*
X015837Y030786D02*
X016132Y030786D01*
X016167Y030769D02*
X016387Y030809D01*
X016387Y031009D01*
X016157Y031049D01*
X016129Y031020D02*
X015837Y031020D01*
X015837Y030962D02*
X016337Y030962D01*
X016337Y030903D02*
X015837Y030903D01*
X015837Y030845D02*
X016320Y030845D01*
X016105Y031079D02*
X015807Y031079D01*
X015749Y031138D02*
X016082Y031138D01*
X016058Y031196D02*
X015690Y031196D01*
X015481Y031196D02*
X015016Y031196D01*
X015027Y031239D02*
X014887Y031429D01*
X015027Y031569D01*
X015227Y031439D01*
X015196Y031430D02*
X014946Y031430D01*
X014976Y031372D02*
X016129Y031372D01*
X016173Y031430D02*
X015918Y031430D01*
X015877Y031439D02*
X016067Y031569D01*
X016207Y031429D01*
X016077Y031239D01*
X016041Y031255D02*
X015034Y031255D01*
X015005Y031313D02*
X016085Y031313D01*
X016128Y031489D02*
X015977Y031489D01*
X016035Y031547D02*
X016040Y031547D01*
X015825Y031430D02*
X015299Y031430D01*
X015416Y031489D02*
X015708Y031489D01*
X015697Y031509D02*
X015647Y031749D01*
X015457Y031749D01*
X015407Y031509D01*
X015449Y031547D02*
X015675Y031547D01*
X015660Y031606D02*
X015464Y031606D01*
X015478Y031664D02*
X015646Y031664D01*
X015118Y031489D02*
X014977Y031489D01*
X015035Y031547D02*
X015039Y031547D01*
X014992Y031138D02*
X015364Y031138D01*
X015283Y031079D02*
X014969Y031079D01*
X014937Y031049D02*
X014717Y031009D01*
X014717Y030809D01*
X014937Y030769D01*
X014990Y030786D02*
X015284Y030786D01*
X015328Y030728D02*
X015001Y030728D01*
X015013Y030669D02*
X015372Y030669D01*
X015427Y030669D02*
X015287Y030329D01*
X015207Y030369D01*
X015027Y030249D01*
X014887Y030389D01*
X015017Y030569D01*
X015036Y030552D02*
X015355Y030552D01*
X015335Y030494D02*
X015000Y030494D01*
X014961Y030435D02*
X015316Y030435D01*
X015296Y030376D02*
X015232Y030376D01*
X015153Y030376D02*
X014960Y030376D01*
X015018Y030318D02*
X015065Y030318D01*
X015025Y030611D02*
X015374Y030611D01*
X015240Y030845D02*
X014759Y030845D01*
X014737Y030903D02*
X015248Y030903D01*
X015260Y030962D02*
X014737Y030962D01*
X014946Y031020D02*
X015271Y031020D01*
X015022Y031238D02*
X015000Y031203D01*
X014980Y031167D01*
X014962Y031129D01*
X014947Y031090D01*
X014935Y031050D01*
X015427Y030669D02*
X015399Y030685D01*
X015372Y030704D01*
X015349Y030726D01*
X015328Y030751D01*
X015310Y030779D01*
X015295Y030808D01*
X015285Y030839D01*
X015277Y030870D01*
X015274Y030903D01*
X015275Y030935D01*
X015279Y030968D01*
X015288Y030999D01*
X015300Y031029D01*
X015315Y031058D01*
X015334Y031085D01*
X015356Y031109D01*
X015380Y031130D01*
X015407Y031149D01*
X015436Y031164D01*
X015467Y031175D01*
X015498Y031183D01*
X015531Y031187D01*
X015563Y031187D01*
X015596Y031183D01*
X015627Y031175D01*
X015658Y031164D01*
X015687Y031149D01*
X015714Y031130D01*
X015738Y031109D01*
X015760Y031085D01*
X015779Y031058D01*
X015794Y031029D01*
X015806Y030999D01*
X015815Y030968D01*
X015819Y030935D01*
X015820Y030903D01*
X015817Y030870D01*
X015809Y030839D01*
X015799Y030808D01*
X015784Y030779D01*
X015766Y030751D01*
X015745Y030726D01*
X015722Y030704D01*
X015695Y030685D01*
X015667Y030669D01*
X015875Y031435D02*
X015833Y031458D01*
X015790Y031477D01*
X015745Y031494D01*
X015699Y031506D01*
X016165Y030753D02*
X016150Y030706D01*
X016132Y030660D01*
X016110Y030616D01*
X016085Y030574D01*
X016159Y031051D02*
X016148Y031091D01*
X016134Y031130D01*
X016118Y031167D01*
X016099Y031204D01*
X016078Y031239D01*
X014938Y030770D02*
X014948Y030728D01*
X014961Y030687D01*
X014977Y030647D01*
X014996Y030608D01*
X015018Y030571D01*
X015228Y031439D02*
X015271Y031462D01*
X015315Y031482D01*
X015361Y031498D01*
X015407Y031510D01*
D25*
X017387Y025999D03*
X017387Y024999D03*
X018387Y024999D03*
X018387Y025999D03*
X019387Y025999D03*
X019387Y024999D03*
X020387Y024999D03*
X021387Y024999D03*
X021387Y025999D03*
X020387Y025999D03*
X022387Y025999D03*
X022387Y024999D03*
X023387Y024999D03*
X023387Y025999D03*
X024387Y025999D03*
X024387Y024999D03*
X025387Y024999D03*
X025387Y025999D03*
X036887Y014749D03*
X036887Y013749D03*
X036887Y012749D03*
X036887Y011749D03*
X036887Y010749D03*
X036887Y009749D03*
X036887Y008749D03*
X036887Y007749D03*
X036887Y006749D03*
X037887Y006749D03*
X037887Y007749D03*
X037887Y008749D03*
X037887Y009749D03*
X037887Y010749D03*
X037887Y011749D03*
X037887Y012749D03*
X037887Y013749D03*
X037887Y014749D03*
D26*
X037887Y033952D02*
X037887Y034546D01*
X038887Y034546D02*
X038887Y033952D01*
D27*
X021387Y014749D03*
X020387Y014749D03*
X019387Y014749D03*
X024387Y011749D03*
X024387Y010749D03*
X024387Y009749D03*
D28*
X021987Y007749D02*
X021287Y007749D01*
X021287Y005977D02*
X021987Y005977D01*
X019487Y005977D02*
X018787Y005977D01*
X018787Y007749D02*
X019487Y007749D01*
D29*
X027705Y005545D02*
X028204Y005046D01*
X029590Y006432D02*
X029091Y006931D01*
X031184Y008566D02*
X031683Y008067D01*
X033069Y009453D02*
X032570Y009952D01*
X029590Y012932D02*
X029091Y013431D01*
X027705Y012045D02*
X028204Y011546D01*
X031683Y014567D02*
X031184Y015066D01*
X032570Y016452D02*
X033069Y015953D01*
X029590Y019432D02*
X029091Y019931D01*
X027705Y018545D02*
X028204Y018046D01*
X032570Y003452D02*
X033069Y002953D01*
X031683Y001567D02*
X031184Y002066D01*
X010569Y002953D02*
X010070Y003452D01*
X008684Y002066D02*
X009183Y001567D01*
X005704Y005046D02*
X005205Y005545D01*
X006591Y006931D02*
X007090Y006432D01*
X009183Y008067D02*
X008684Y008566D01*
X010070Y009952D02*
X010569Y009453D01*
X007090Y012932D02*
X006591Y013431D01*
X006591Y014567D02*
X007090Y015066D01*
X005704Y016452D02*
X005205Y015953D01*
X008684Y019432D02*
X009183Y019931D01*
X010569Y018545D02*
X010070Y018046D01*
X005205Y012045D02*
X005704Y011546D01*
D30*
X006635Y009498D03*
X009139Y012001D03*
X009139Y015998D03*
X006635Y018501D03*
X009139Y005501D03*
X006635Y002998D03*
X029135Y002998D03*
X031639Y005501D03*
X029135Y009498D03*
X031639Y012001D03*
X029135Y015998D03*
X031639Y018501D03*
D31*
X034387Y026249D03*
X034387Y036249D03*
M02*
