<svg xmlns="http://www.w3.org/2000/svg" version="1.1" xmlns:xlink="http://www.w3.org/1999/xlink" stroke-linecap="round" stroke-linejoin="round" stroke-width="0" fill-rule="evenodd" width="0.1179in" height="0.1724in" viewBox="3707.8 4728.6 117.9 172.4" id="operator-interface-r1.bottomsilkscreen"><g transform="translate(0,9629.6) scale(1,-1)" fill="currentColor" stroke="currentColor"><path d="M 3710.8 4731.6 3714.5 4731.6 M 3710.8 4731.6 3710.8 4795.4 3714.5 4795.4 M 3746.2 4795.4 3749.9 4795.4 M 3783.6 4795.4 3787.3 4795.4 M 3819 4795.4 3822.7 4795.4 3822.7 4731.6 3819 4731.6 M 3787.3 4731.6 3746.2 4731.6 M 3746.1 4864 3757.4 4864 3763.1 4869.6 M 3777.2 4869.6 3777.2 4898 M 3763.1 4892.3 3757.4 4898 3746.1 4898 3740.4 4892.3 3740.4 4886.7 3746.1 4881 3740.4 4875.3 3740.4 4869.6 3746.1 4864 M 3746.1 4881 3751.7 4881 M 3777.2 4869.6 3782.9 4864 3794.2 4864 3799.9 4869.6 3799.9 4898" fill="none" stroke-width="6"/></g></svg>