<svg xmlns="http://www.w3.org/2000/svg" version="1.1" xmlns:xlink="http://www.w3.org/1999/xlink" stroke-linecap="round" stroke-linejoin="round" stroke-width="0" fill-rule="evenodd" width="3.9in" height="1.75in" viewBox="66.8 3826 3900 1750" id="operator-interface-display-r1.boardoutline"><g transform="translate(0,9402) scale(1,-1)" fill="currentColor" stroke="currentColor"><path d="M 241.8 3826 3791.8 3826 M 3728.8 4001 3729 4006 3729.6 4011 3730.6 4015.9 3732 4020.7 3733.7 4025.4 3735.8 4029.9 3738.3 4034.3 3741.1 4038.4 3744.3 4042.3 3747.7 4046 3751.4 4049.4 3755.4 4052.4 3759.6 4055.1 3764 4057.5 3768.6 4059.6 3773.3 4061.2 3778.1 4062.5 3783.1 4063.4 3788 4063.9 3793.1 4064 3798.1 4063.7 3803 4063 3807.9 4061.9 3812.7 4060.4 3817.3 4058.6 3821.8 4056.4 3826.1 4053.8 3830.2 4050.9 3834.1 4047.7 3837.7 4044.2 3840.9 4040.4 3843.9 4036.4 3846.6 4032.1 3848.9 4027.7 3850.8 4023.1 3852.4 4018.3 3853.6 4013.4 3854.4 4008.5 3854.8 4003.5 3854.8 3998.5 3854.4 3993.5 3853.6 3988.6 3852.4 3983.7 3850.8 3978.9 3848.9 3974.3 3846.6 3969.9 3843.9 3965.6 3840.9 3961.6 3837.7 3957.8 3834.1 3954.3 3830.2 3951.1 3826.1 3948.2 3821.8 3945.6 3817.3 3943.4 3812.7 3941.6 3807.9 3940.1 3803 3939 3798.1 3938.3 3793.1 3938 3788 3938.1 3783.1 3938.6 3778.1 3939.5 3773.3 3940.8 3768.6 3942.4 3764 3944.5 3759.6 3946.9 3755.4 3949.6 3751.4 3952.6 3747.7 3956 3744.3 3959.7 3741.1 3963.6 3738.3 3967.7 3735.8 3972.1 3733.7 3976.6 3732 3981.3 3730.6 3986.1 3729.6 3991 3729 3996 3728.8 4001 M 3791.8 3826 3800.1 3826.2 3808.4 3826.8 3816.7 3827.8 3824.9 3829.2 3833.1 3830.9 3841.1 3833.1 3849 3835.6 3856.8 3838.5 3864.5 3841.8 3872 3845.5 3879.3 3849.4 3886.4 3853.8 3893.3 3858.4 3900 3863.4 3906.4 3868.7 3912.6 3874.3 3918.5 3880.2 3924.1 3886.4 3929.4 3892.8 3934.4 3899.5 3939 3906.4 3943.4 3913.5 3947.3 3920.8 3951 3928.3 3954.3 3936 3957.2 3943.8 3959.7 3951.7 3961.9 3959.7 3963.6 3967.9 3965 3976.1 3966 3984.4 3966.6 3992.7 3966.8 4001 3966.8 4651 3966.6 4655.4 3966 4659.7 3965.1 4663.9 3963.8 4668.1 3962.1 4672.1 3960.1 4676 3957.8 4679.7 3955.1 4683.1 3952.2 4686.4 3948.9 4689.3 3945.5 4692 3941.8 4694.3 3937.9 4696.3 3933.9 4698 3929.7 4699.3 3925.5 4700.2 3921.2 4700.8 3916.8 4701 3904.3 4701 3899.9 4701.2 3895.6 4701.8 3891.4 4702.7 3887.2 4704 3883.2 4705.7 3879.3 4707.7 3875.6 4710 3872.2 4712.7 3868.9 4715.6 3866 4718.9 3863.3 4722.3 3861 4726 3859 4729.9 3857.3 4733.9 3856 4738.1 3855.1 4742.3 3854.5 4746.6 3854.3 4751 3854.3 5138.5 3854.5 5142.9 3855.1 5147.2 3856 5151.4 3857.3 5155.6 3859 5159.6 3861 5163.5 3863.3 5167.2 3866 5170.6 3868.9 5173.9 3872.2 5176.8 3875.6 5179.5 3879.3 5181.8 3883.2 5183.8 3887.2 5185.5 3891.4 5186.8 3895.6 5187.7 3899.9 5188.3 3904.3 5188.5 3916.8 5188.5 3921.2 5188.7 3925.5 5189.3 3929.7 5190.2 3933.9 5191.5 3937.9 5193.2 3941.8 5195.2 3945.5 5197.5 3948.9 5200.2 3952.2 5203.1 3955.1 5206.4 3957.8 5209.8 3960.1 5213.5 3962.1 5217.4 3963.8 5221.4 3965.1 5225.6 3966 5229.8 3966.6 5234.1 3966.8 5238.5 3966.8 5401 M 3728.8 5401 3729 5406 3729.6 5411 3730.6 5415.9 3732 5420.7 3733.7 5425.4 3735.8 5429.9 3738.3 5434.3 3741.1 5438.4 3744.3 5442.3 3747.7 5446 3751.4 5449.4 3755.4 5452.4 3759.6 5455.1 3764 5457.5 3768.6 5459.6 3773.3 5461.2 3778.1 5462.5 3783.1 5463.4 3788 5463.9 3793.1 5464 3798.1 5463.7 3803 5463 3807.9 5461.9 3812.7 5460.4 3817.3 5458.6 3821.8 5456.4 3826.1 5453.8 3830.2 5450.9 3834.1 5447.7 3837.7 5444.2 3840.9 5440.4 3843.9 5436.4 3846.6 5432.1 3848.9 5427.7 3850.8 5423.1 3852.4 5418.3 3853.6 5413.4 3854.4 5408.5 3854.8 5403.5 3854.8 5398.5 3854.4 5393.5 3853.6 5388.6 3852.4 5383.7 3850.8 5378.9 3848.9 5374.3 3846.6 5369.9 3843.9 5365.6 3840.9 5361.6 3837.7 5357.8 3834.1 5354.3 3830.2 5351.1 3826.1 5348.2 3821.8 5345.6 3817.3 5343.4 3812.7 5341.6 3807.9 5340.1 3803 5339 3798.1 5338.3 3793.1 5338 3788 5338.1 3783.1 5338.6 3778.1 5339.5 3773.3 5340.8 3768.6 5342.4 3764 5344.5 3759.6 5346.9 3755.4 5349.6 3751.4 5352.6 3747.7 5356 3744.3 5359.7 3741.1 5363.6 3738.3 5367.7 3735.8 5372.1 3733.7 5376.6 3732 5381.3 3730.6 5386.1 3729.6 5391 3729 5396 3728.8 5401 M 3791.8 5576 3800.1 5575.8 3808.4 5575.2 3816.7 5574.2 3824.9 5572.8 3833.1 5571.1 3841.1 5568.9 3849 5566.4 3856.8 5563.5 3864.5 5560.2 3872 5556.5 3879.3 5552.6 3886.4 5548.2 3893.3 5543.6 3900 5538.6 3906.4 5533.3 3912.6 5527.7 3918.5 5521.8 3924.1 5515.6 3929.4 5509.2 3934.4 5502.5 3939 5495.6 3943.4 5488.5 3947.3 5481.2 3951 5473.7 3954.3 5466 3957.2 5458.2 3959.7 5450.3 3961.9 5442.3 3963.6 5434.1 3965 5425.9 3966 5417.6 3966.6 5409.3 3966.8 5401 M 3791.8 5576 241.8 5576 M 178.8 5401 179 5406 179.6 5411 180.6 5415.9 182 5420.7 183.7 5425.4 185.8 5429.9 188.3 5434.3 191.1 5438.4 194.3 5442.3 197.7 5446 201.4 5449.4 205.4 5452.4 209.6 5455.1 214 5457.5 218.6 5459.6 223.3 5461.2 228.1 5462.5 233.1 5463.4 238 5463.9 243.1 5464 248.1 5463.7 253 5463 257.9 5461.9 262.7 5460.4 267.3 5458.6 271.8 5456.4 276.1 5453.8 280.2 5450.9 284.1 5447.7 287.7 5444.2 290.9 5440.4 293.9 5436.4 296.6 5432.1 298.9 5427.7 300.8 5423.1 302.4 5418.3 303.6 5413.4 304.4 5408.5 304.8 5403.5 304.8 5398.5 304.4 5393.5 303.6 5388.6 302.4 5383.7 300.8 5378.9 298.9 5374.3 296.6 5369.9 293.9 5365.6 290.9 5361.6 287.7 5357.8 284.1 5354.3 280.2 5351.1 276.1 5348.2 271.8 5345.6 267.3 5343.4 262.7 5341.6 257.9 5340.1 253 5339 248.1 5338.3 243.1 5338 238 5338.1 233.1 5338.6 228.1 5339.5 223.3 5340.8 218.6 5342.4 214 5344.5 209.6 5346.9 205.4 5349.6 201.4 5352.6 197.7 5356 194.3 5359.7 191.1 5363.6 188.3 5367.7 185.8 5372.1 183.7 5376.6 182 5381.3 180.6 5386.1 179.6 5391 179 5396 178.8 5401 M 66.8 5401 67 5409.3 67.6 5417.6 68.6 5425.9 70 5434.1 71.7 5442.3 73.9 5450.3 76.4 5458.2 79.3 5466 82.6 5473.7 86.3 5481.2 90.2 5488.5 94.6 5495.6 99.2 5502.5 104.2 5509.2 109.5 5515.6 115.1 5521.8 121 5527.7 127.2 5533.3 133.6 5538.6 140.3 5543.6 147.2 5548.2 154.3 5552.6 161.6 5556.5 169.1 5560.2 176.8 5563.5 184.6 5566.4 192.5 5568.9 200.5 5571.1 208.7 5572.8 216.9 5574.2 225.2 5575.2 233.5 5575.8 241.8 5576 M 66.8 5401 66.8 4001 M 178.8 4001 179 4006 179.6 4011 180.6 4015.9 182 4020.7 183.7 4025.4 185.8 4029.9 188.3 4034.3 191.1 4038.4 194.3 4042.3 197.7 4046 201.4 4049.4 205.4 4052.4 209.6 4055.1 214 4057.5 218.6 4059.6 223.3 4061.2 228.1 4062.5 233.1 4063.4 238 4063.9 243.1 4064 248.1 4063.7 253 4063 257.9 4061.9 262.7 4060.4 267.3 4058.6 271.8 4056.4 276.1 4053.8 280.2 4050.9 284.1 4047.7 287.7 4044.2 290.9 4040.4 293.9 4036.4 296.6 4032.1 298.9 4027.7 300.8 4023.1 302.4 4018.3 303.6 4013.4 304.4 4008.5 304.8 4003.5 304.8 3998.5 304.4 3993.5 303.6 3988.6 302.4 3983.7 300.8 3978.9 298.9 3974.3 296.6 3969.9 293.9 3965.6 290.9 3961.6 287.7 3957.8 284.1 3954.3 280.2 3951.1 276.1 3948.2 271.8 3945.6 267.3 3943.4 262.7 3941.6 257.9 3940.1 253 3939 248.1 3938.3 243.1 3938 238 3938.1 233.1 3938.6 228.1 3939.5 223.3 3940.8 218.6 3942.4 214 3944.5 209.6 3946.9 205.4 3949.6 201.4 3952.6 197.7 3956 194.3 3959.7 191.1 3963.6 188.3 3967.7 185.8 3972.1 183.7 3976.6 182 3981.3 180.6 3986.1 179.6 3991 179 3996 178.8 4001 M 66.8 4001 67 3992.7 67.6 3984.4 68.6 3976.1 70 3967.9 71.7 3959.7 73.9 3951.7 76.4 3943.8 79.3 3936 82.6 3928.3 86.3 3920.8 90.2 3913.5 94.6 3906.4 99.2 3899.5 104.2 3892.8 109.5 3886.4 115.1 3880.2 121 3874.3 127.2 3868.7 133.6 3863.4 140.3 3858.4 147.2 3853.8 154.3 3849.4 161.6 3845.5 169.1 3841.8 176.8 3838.5 184.6 3835.6 192.5 3833.1 200.5 3830.9 208.7 3829.2 216.9 3827.8 225.2 3826.8 233.5 3826.2 241.8 3826 M 1394.7 4064.6 1394.9 4069.1 1395.5 4073.5 1396.4 4077.9 1397.8 4082.1 1399.5 4086.2 1401.6 4090.2 1404 4094 1406.7 4097.5 1409.7 4100.8 1413 4103.8 1416.5 4106.5 1420.3 4108.9 1424.3 4111 1428.4 4112.7 1432.6 4114.1 1437 4115 1441.4 4115.6 1445.9 4115.8 1450.4 4115.6 1454.8 4115 1459.2 4114.1 1463.4 4112.7 1467.5 4111 1471.5 4108.9 1475.3 4106.5 1478.8 4103.8 1482.1 4100.8 1485.1 4097.5 1487.8 4094 1490.2 4090.2 1492.3 4086.2 1494 4082.1 1495.4 4077.9 1496.3 4073.5 1496.9 4069.1 1497.1 4064.6 1496.9 4060.1 1496.3 4055.7 1495.4 4051.3 1494 4047.1 1492.3 4043 1490.2 4039 1487.8 4035.2 1485.1 4031.7 1482.1 4028.4 1478.8 4025.4 1475.3 4022.7 1471.5 4020.3 1467.5 4018.2 1463.4 4016.5 1459.2 4015.1 1454.8 4014.2 1450.4 4013.6 1445.9 4013.4 1441.4 4013.6 1437 4014.2 1432.6 4015.1 1428.4 4016.5 1424.3 4018.2 1420.3 4020.3 1416.5 4022.7 1413 4025.4 1409.7 4028.4 1406.7 4031.7 1404 4035.2 1401.6 4039 1399.5 4043 1397.8 4047.1 1396.4 4051.3 1395.5 4055.7 1394.9 4060.1 1394.7 4064.6 M 1394.7 5226 1394.9 5230.5 1395.5 5234.9 1396.4 5239.3 1397.8 5243.5 1399.5 5247.6 1401.6 5251.6 1404 5255.4 1406.7 5258.9 1409.7 5262.2 1413 5265.2 1416.5 5267.9 1420.3 5270.3 1424.3 5272.4 1428.4 5274.1 1432.6 5275.5 1437 5276.4 1441.4 5277 1445.9 5277.2 1450.4 5277 1454.8 5276.4 1459.2 5275.5 1463.4 5274.1 1467.5 5272.4 1471.5 5270.3 1475.3 5267.9 1478.8 5265.2 1482.1 5262.2 1485.1 5258.9 1487.8 5255.4 1490.2 5251.6 1492.3 5247.6 1494 5243.5 1495.4 5239.3 1496.3 5234.9 1496.9 5230.5 1497.1 5226 1496.9 5221.5 1496.3 5217.1 1495.4 5212.7 1494 5208.5 1492.3 5204.4 1490.2 5200.4 1487.8 5196.6 1485.1 5193.1 1482.1 5189.8 1478.8 5186.8 1475.3 5184.1 1471.5 5181.7 1467.5 5179.6 1463.4 5177.9 1459.2 5176.5 1454.8 5175.6 1450.4 5175 1445.9 5174.8 1441.4 5175 1437 5175.6 1432.6 5176.5 1428.4 5177.9 1424.3 5179.6 1420.3 5181.7 1416.5 5184.1 1413 5186.8 1409.7 5189.8 1406.7 5193.1 1404 5196.6 1401.6 5200.4 1399.5 5204.4 1397.8 5208.5 1396.4 5212.7 1395.5 5217.1 1394.9 5221.5 1394.7 5226 M 2536.4 5226 2536.6 5230.5 2537.2 5234.9 2538.1 5239.3 2539.5 5243.5 2541.2 5247.6 2543.3 5251.6 2545.7 5255.4 2548.4 5258.9 2551.4 5262.2 2554.7 5265.2 2558.2 5267.9 2562 5270.3 2566 5272.4 2570.1 5274.1 2574.3 5275.5 2578.7 5276.4 2583.1 5277 2587.6 5277.2 2592.1 5277 2596.5 5276.4 2600.9 5275.5 2605.1 5274.1 2609.2 5272.4 2613.2 5270.3 2617 5267.9 2620.5 5265.2 2623.8 5262.2 2626.8 5258.9 2629.5 5255.4 2631.9 5251.6 2634 5247.6 2635.7 5243.5 2637.1 5239.3 2638 5234.9 2638.6 5230.5 2638.8 5226 2638.6 5221.5 2638 5217.1 2637.1 5212.7 2635.7 5208.5 2634 5204.4 2631.9 5200.4 2629.5 5196.6 2626.8 5193.1 2623.8 5189.8 2620.5 5186.8 2617 5184.1 2613.2 5181.7 2609.2 5179.6 2605.1 5177.9 2600.9 5176.5 2596.5 5175.6 2592.1 5175 2587.6 5174.8 2583.1 5175 2578.7 5175.6 2574.3 5176.5 2570.1 5177.9 2566 5179.6 2562 5181.7 2558.2 5184.1 2554.7 5186.8 2551.4 5189.8 2548.4 5193.1 2545.7 5196.6 2543.3 5200.4 2541.2 5204.4 2539.5 5208.5 2538.1 5212.7 2537.2 5217.1 2536.6 5221.5 2536.4 5226 M 2536.4 4064.6 2536.6 4069.1 2537.2 4073.5 2538.1 4077.9 2539.5 4082.1 2541.2 4086.2 2543.3 4090.2 2545.7 4094 2548.4 4097.5 2551.4 4100.8 2554.7 4103.8 2558.2 4106.5 2562 4108.9 2566 4111 2570.1 4112.7 2574.3 4114.1 2578.7 4115 2583.1 4115.6 2587.6 4115.8 2592.1 4115.6 2596.5 4115 2600.9 4114.1 2605.1 4112.7 2609.2 4111 2613.2 4108.9 2617 4106.5 2620.5 4103.8 2623.8 4100.8 2626.8 4097.5 2629.5 4094 2631.9 4090.2 2634 4086.2 2635.7 4082.1 2637.1 4077.9 2638 4073.5 2638.6 4069.1 2638.8 4064.6 2638.6 4060.1 2638 4055.7 2637.1 4051.3 2635.7 4047.1 2634 4043 2631.9 4039 2629.5 4035.2 2626.8 4031.7 2623.8 4028.4 2620.5 4025.4 2617 4022.7 2613.2 4020.3 2609.2 4018.2 2605.1 4016.5 2600.9 4015.1 2596.5 4014.2 2592.1 4013.6 2587.6 4013.4 2583.1 4013.6 2578.7 4014.2 2574.3 4015.1 2570.1 4016.5 2566 4018.2 2562 4020.3 2558.2 4022.7 2554.7 4025.4 2551.4 4028.4 2548.4 4031.7 2545.7 4035.2 2543.3 4039 2541.2 4043 2539.5 4047.1 2538.1 4051.3 2537.2 4055.7 2536.6 4060.1 2536.4 4064.6" fill="none" stroke-width="0"/></g></svg>