<svg xmlns="http://www.w3.org/2000/svg" version="1.1" xmlns:xlink="http://www.w3.org/1999/xlink" stroke-linecap="round" stroke-linejoin="round" stroke-width="0" fill-rule="evenodd" width="3.9in" height="5.575in" viewBox="66.8 188.5 3900 5575" id="operator-interface-r1.boardoutline"><g transform="translate(0,5952) scale(1,-1)" fill="currentColor" stroke="currentColor"><path d="M 1041.8 363.5 1041.8 3788.5 M 1153.8 3788.5 1154 3793.5 1154.6 3798.5 1155.6 3803.4 1157 3808.2 1158.7 3812.9 1160.8 3817.4 1163.3 3821.8 1166.1 3825.9 1169.3 3829.8 1172.7 3833.5 1176.4 3836.9 1180.4 3839.9 1184.6 3842.6 1189 3845 1193.6 3847.1 1198.3 3848.7 1203.1 3850 1208.1 3850.9 1213 3851.4 1218.1 3851.5 1223.1 3851.2 1228 3850.5 1232.9 3849.4 1237.7 3847.9 1242.3 3846.1 1246.8 3843.9 1251.1 3841.3 1255.2 3838.4 1259.1 3835.2 1262.7 3831.7 1265.9 3827.9 1268.9 3823.9 1271.6 3819.6 1273.9 3815.2 1275.8 3810.6 1277.4 3805.8 1278.6 3800.9 1279.4 3796 1279.8 3791 1279.8 3786 1279.4 3781 1278.6 3776.1 1277.4 3771.2 1275.8 3766.4 1273.9 3761.8 1271.6 3757.4 1268.9 3753.1 1265.9 3749.1 1262.7 3745.3 1259.1 3741.8 1255.2 3738.6 1251.1 3735.7 1246.8 3733.1 1242.3 3730.9 1237.7 3729.1 1232.9 3727.6 1228 3726.5 1223.1 3725.8 1218.1 3725.5 1213 3725.6 1208.1 3726.1 1203.1 3727 1198.3 3728.3 1193.6 3729.9 1189 3732 1184.6 3734.4 1180.4 3737.1 1176.4 3740.1 1172.7 3743.5 1169.3 3747.2 1166.1 3751.1 1163.3 3755.2 1160.8 3759.6 1158.7 3764.1 1157 3768.8 1155.6 3773.6 1154.6 3778.5 1154 3783.5 1153.8 3788.5 M 1041.8 3788.5 1042 3796.8 1042.6 3805.1 1043.6 3813.4 1045 3821.6 1046.7 3829.8 1048.9 3837.8 1051.4 3845.7 1054.3 3853.5 1057.6 3861.2 1061.3 3868.7 1065.2 3876 1069.6 3883.1 1074.2 3890 1079.2 3896.7 1084.5 3903.1 1090.1 3909.3 1096 3915.2 1102.2 3920.8 1108.6 3926.1 1115.3 3931.1 1122.2 3935.7 1129.3 3940.1 1136.6 3944 1144.1 3947.7 1151.8 3951 1159.6 3953.9 1167.5 3956.4 1175.5 3958.6 1183.7 3960.3 1191.9 3961.7 1200.2 3962.7 1208.5 3963.3 1216.8 3963.5 2816.8 3963.5 M 2753.8 3788.5 2754 3793.5 2754.6 3798.5 2755.6 3803.4 2757 3808.2 2758.7 3812.9 2760.8 3817.4 2763.3 3821.8 2766.1 3825.9 2769.3 3829.8 2772.7 3833.5 2776.4 3836.9 2780.4 3839.9 2784.6 3842.6 2789 3845 2793.6 3847.1 2798.3 3848.7 2803.1 3850 2808.1 3850.9 2813 3851.4 2818.1 3851.5 2823.1 3851.2 2828 3850.5 2832.9 3849.4 2837.7 3847.9 2842.3 3846.1 2846.8 3843.9 2851.1 3841.3 2855.2 3838.4 2859.1 3835.2 2862.7 3831.7 2865.9 3827.9 2868.9 3823.9 2871.6 3819.6 2873.9 3815.2 2875.8 3810.6 2877.4 3805.8 2878.6 3800.9 2879.4 3796 2879.8 3791 2879.8 3786 2879.4 3781 2878.6 3776.1 2877.4 3771.2 2875.8 3766.4 2873.9 3761.8 2871.6 3757.4 2868.9 3753.1 2865.9 3749.1 2862.7 3745.3 2859.1 3741.8 2855.2 3738.6 2851.1 3735.7 2846.8 3733.1 2842.3 3730.9 2837.7 3729.1 2832.9 3727.6 2828 3726.5 2823.1 3725.8 2818.1 3725.5 2813 3725.6 2808.1 3726.1 2803.1 3727 2798.3 3728.3 2793.6 3729.9 2789 3732 2784.6 3734.4 2780.4 3737.1 2776.4 3740.1 2772.7 3743.5 2769.3 3747.2 2766.1 3751.1 2763.3 3755.2 2760.8 3759.6 2758.7 3764.1 2757 3768.8 2755.6 3773.6 2754.6 3778.5 2754 3783.5 2753.8 3788.5 M 2816.8 3963.5 2825.1 3963.3 2833.4 3962.7 2841.7 3961.7 2849.9 3960.3 2858.1 3958.6 2866.1 3956.4 2874 3953.9 2881.8 3951 2889.5 3947.7 2897 3944 2904.3 3940.1 2911.4 3935.7 2918.3 3931.1 2925 3926.1 2931.4 3920.8 2937.6 3915.2 2943.5 3909.3 2949.1 3903.1 2954.4 3896.7 2959.4 3890 2964 3883.1 2968.4 3876 2972.3 3868.7 2976 3861.2 2979.3 3853.5 2982.2 3845.7 2984.7 3837.8 2986.9 3829.8 2988.6 3821.6 2990 3813.4 2991 3805.1 2991.6 3796.8 2991.8 3788.5 2991.8 363.5 M 2753.8 363.5 2754 368.5 2754.6 373.5 2755.6 378.4 2757 383.2 2758.7 387.9 2760.8 392.4 2763.3 396.8 2766.1 400.9 2769.3 404.8 2772.7 408.5 2776.4 411.9 2780.4 414.9 2784.6 417.6 2789 420 2793.6 422.1 2798.3 423.7 2803.1 425 2808.1 425.9 2813 426.4 2818.1 426.5 2823.1 426.2 2828 425.5 2832.9 424.4 2837.7 422.9 2842.3 421.1 2846.8 418.9 2851.1 416.3 2855.2 413.4 2859.1 410.2 2862.7 406.7 2865.9 402.9 2868.9 398.9 2871.6 394.6 2873.9 390.2 2875.8 385.6 2877.4 380.8 2878.6 375.9 2879.4 371 2879.8 366 2879.8 361 2879.4 356 2878.6 351.1 2877.4 346.2 2875.8 341.4 2873.9 336.8 2871.6 332.4 2868.9 328.1 2865.9 324.1 2862.7 320.3 2859.1 316.8 2855.2 313.6 2851.1 310.7 2846.8 308.1 2842.3 305.9 2837.7 304.1 2832.9 302.6 2828 301.5 2823.1 300.8 2818.1 300.5 2813 300.6 2808.1 301.1 2803.1 302 2798.3 303.3 2793.6 304.9 2789 307 2784.6 309.4 2780.4 312.1 2776.4 315.1 2772.7 318.5 2769.3 322.2 2766.1 326.1 2763.3 330.2 2760.8 334.6 2758.7 339.1 2757 343.8 2755.6 348.6 2754.6 353.5 2754 358.5 2753.8 363.5 M 2816.8 188.5 2825.1 188.7 2833.4 189.3 2841.7 190.3 2849.9 191.7 2858.1 193.4 2866.1 195.6 2874 198.1 2881.8 201 2889.5 204.3 2897 208 2904.3 211.9 2911.4 216.3 2918.3 220.9 2925 225.9 2931.4 231.2 2937.6 236.8 2943.5 242.7 2949.1 248.9 2954.4 255.3 2959.4 262 2964 268.9 2968.4 276 2972.3 283.3 2976 290.8 2979.3 298.5 2982.2 306.3 2984.7 314.2 2986.9 322.2 2988.6 330.4 2990 338.6 2991 346.9 2991.6 355.2 2991.8 363.5 M 2816.8 188.5 1216.8 188.5 M 1153.8 363.5 1154 368.5 1154.6 373.5 1155.6 378.4 1157 383.2 1158.7 387.9 1160.8 392.4 1163.3 396.8 1166.1 400.9 1169.3 404.8 1172.7 408.5 1176.4 411.9 1180.4 414.9 1184.6 417.6 1189 420 1193.6 422.1 1198.3 423.7 1203.1 425 1208.1 425.9 1213 426.4 1218.1 426.5 1223.1 426.2 1228 425.5 1232.9 424.4 1237.7 422.9 1242.3 421.1 1246.8 418.9 1251.1 416.3 1255.2 413.4 1259.1 410.2 1262.7 406.7 1265.9 402.9 1268.9 398.9 1271.6 394.6 1273.9 390.2 1275.8 385.6 1277.4 380.8 1278.6 375.9 1279.4 371 1279.8 366 1279.8 361 1279.4 356 1278.6 351.1 1277.4 346.2 1275.8 341.4 1273.9 336.8 1271.6 332.4 1268.9 328.1 1265.9 324.1 1262.7 320.3 1259.1 316.8 1255.2 313.6 1251.1 310.7 1246.8 308.1 1242.3 305.9 1237.7 304.1 1232.9 302.6 1228 301.5 1223.1 300.8 1218.1 300.5 1213 300.6 1208.1 301.1 1203.1 302 1198.3 303.3 1193.6 304.9 1189 307 1184.6 309.4 1180.4 312.1 1176.4 315.1 1172.7 318.5 1169.3 322.2 1166.1 326.1 1163.3 330.2 1160.8 334.6 1158.7 339.1 1157 343.8 1155.6 348.6 1154.6 353.5 1154 358.5 1153.8 363.5 M 1041.8 363.5 1042 355.2 1042.6 346.9 1043.6 338.6 1045 330.4 1046.7 322.2 1048.9 314.2 1051.4 306.3 1054.3 298.5 1057.6 290.8 1061.3 283.3 1065.2 276 1069.6 268.9 1074.2 262 1079.2 255.3 1084.5 248.9 1090.1 242.7 1096 236.8 1102.2 231.2 1108.6 225.9 1115.3 220.9 1122.2 216.3 1129.3 211.9 1136.6 208 1144.1 204.3 1151.8 201 1159.6 198.1 1167.5 195.6 1175.5 193.4 1183.7 191.7 1191.9 190.3 1200.2 189.3 1208.5 188.7 1216.8 188.5 M 1206.1 663.3 1206.3 667 1206.9 670.7 1207.8 674.3 1209.2 677.7 1210.9 681 1212.9 684.2 1215.2 687.1 1217.8 689.7 1220.7 692 1223.8 694 1227.2 695.7 1230.6 697.1 1234.2 698 1237.9 698.6 1241.6 698.8 1245.3 698.6 1249 698 1252.6 697.1 1256 695.7 1259.3 694 1262.5 692 1265.4 689.7 1268 687.1 1270.3 684.2 1272.3 681.1 1274 677.7 1275.4 674.3 1276.3 670.7 1276.9 667 1277.1 663.3 1276.9 659.6 1276.3 655.9 1275.4 652.3 1274 648.9 1272.3 645.6 1270.3 642.4 1268 639.5 1265.4 636.9 1262.5 634.6 1259.4 632.6 1256 630.9 1252.6 629.5 1249 628.6 1245.3 628 1241.6 627.8 1237.9 628 1234.2 628.6 1230.6 629.5 1227.2 630.9 1223.9 632.6 1220.7 634.6 1217.8 636.9 1215.2 639.5 1212.9 642.4 1210.9 645.5 1209.2 648.9 1207.8 652.3 1206.9 655.9 1206.3 659.6 1206.1 663.3 M 1456.4 913.6 1456.6 917.3 1457.2 921 1458.1 924.6 1459.5 928 1461.2 931.3 1463.2 934.5 1465.5 937.4 1468.1 940 1471 942.3 1474.1 944.3 1477.5 946 1480.9 947.4 1484.5 948.3 1488.2 948.9 1491.9 949.1 1495.6 948.9 1499.3 948.3 1502.9 947.4 1506.3 946 1509.6 944.3 1512.8 942.3 1515.7 940 1518.3 937.4 1520.6 934.5 1522.6 931.4 1524.3 928 1525.7 924.6 1526.6 921 1527.2 917.3 1527.4 913.6 1527.2 909.9 1526.6 906.2 1525.7 902.6 1524.3 899.2 1522.6 895.9 1520.6 892.7 1518.3 889.8 1515.7 887.2 1512.8 884.9 1509.7 882.9 1506.3 881.2 1502.9 879.8 1499.3 878.9 1495.6 878.3 1491.9 878.1 1488.2 878.3 1484.5 878.9 1480.9 879.8 1477.5 881.2 1474.2 882.9 1471 884.9 1468.1 887.2 1465.5 889.8 1463.2 892.7 1461.2 895.8 1459.5 899.2 1458.1 902.6 1457.2 906.2 1456.6 909.9 1456.4 913.6 M 1856.1 913.6 1856.3 917.3 1856.9 921 1857.8 924.6 1859.2 928 1860.9 931.3 1862.9 934.5 1865.2 937.4 1867.8 940 1870.7 942.3 1873.8 944.3 1877.2 946 1880.6 947.4 1884.2 948.3 1887.9 948.9 1891.6 949.1 1895.3 948.9 1899 948.3 1902.6 947.4 1906 946 1909.3 944.3 1912.5 942.3 1915.4 940 1918 937.4 1920.3 934.5 1922.3 931.4 1924 928 1925.4 924.6 1926.3 921 1926.9 917.3 1927.1 913.6 1926.9 909.9 1926.3 906.2 1925.4 902.6 1924 899.2 1922.3 895.9 1920.3 892.7 1918 889.8 1915.4 887.2 1912.5 884.9 1909.4 882.9 1906 881.2 1902.6 879.8 1899 878.9 1895.3 878.3 1891.6 878.1 1887.9 878.3 1884.2 878.9 1880.6 879.8 1877.2 881.2 1873.9 882.9 1870.7 884.9 1867.8 887.2 1865.2 889.8 1862.9 892.7 1860.9 895.8 1859.2 899.2 1857.8 902.6 1856.9 906.2 1856.3 909.9 1856.1 913.6 M 2106.4 663.3 2106.6 667 2107.2 670.7 2108.1 674.3 2109.5 677.7 2111.2 681 2113.2 684.2 2115.5 687.1 2118.1 689.7 2121 692 2124.1 694 2127.5 695.7 2130.9 697.1 2134.5 698 2138.2 698.6 2141.9 698.8 2145.6 698.6 2149.3 698 2152.9 697.1 2156.3 695.7 2159.6 694 2162.8 692 2165.7 689.7 2168.3 687.1 2170.6 684.2 2172.6 681.1 2174.3 677.7 2175.7 674.3 2176.6 670.7 2177.2 667 2177.4 663.3 2177.2 659.6 2176.6 655.9 2175.7 652.3 2174.3 648.9 2172.6 645.6 2170.6 642.4 2168.3 639.5 2165.7 636.9 2162.8 634.6 2159.7 632.6 2156.3 630.9 2152.9 629.5 2149.3 628.6 2145.6 628 2141.9 627.8 2138.2 628 2134.5 628.6 2130.9 629.5 2127.5 630.9 2124.2 632.6 2121 634.6 2118.1 636.9 2115.5 639.5 2113.2 642.4 2111.2 645.5 2109.5 648.9 2108.1 652.3 2107.2 655.9 2106.6 659.6 2106.4 663.3 M 2506.1 913.6 2506.3 917.3 2506.9 921 2507.8 924.6 2509.2 928 2510.9 931.3 2512.9 934.5 2515.2 937.4 2517.8 940 2520.7 942.3 2523.8 944.3 2527.2 946 2530.6 947.4 2534.2 948.3 2537.9 948.9 2541.6 949.1 2545.3 948.9 2549 948.3 2552.6 947.4 2556 946 2559.3 944.3 2562.5 942.3 2565.4 940 2568 937.4 2570.3 934.5 2572.3 931.4 2574 928 2575.4 924.6 2576.3 921 2576.9 917.3 2577.1 913.6 2576.9 909.9 2576.3 906.2 2575.4 902.6 2574 899.2 2572.3 895.9 2570.3 892.7 2568 889.8 2565.4 887.2 2562.5 884.9 2559.4 882.9 2556 881.2 2552.6 879.8 2549 878.9 2545.3 878.3 2541.6 878.1 2537.9 878.3 2534.2 878.9 2530.6 879.8 2527.2 881.2 2523.9 882.9 2520.7 884.9 2517.8 887.2 2515.2 889.8 2512.9 892.7 2510.9 895.8 2509.2 899.2 2507.8 902.6 2506.9 906.2 2506.3 909.9 2506.1 913.6 M 2756.4 663.3 2756.6 667 2757.2 670.7 2758.1 674.3 2759.5 677.7 2761.2 681 2763.2 684.2 2765.5 687.1 2768.1 689.7 2771 692 2774.1 694 2777.5 695.7 2780.9 697.1 2784.5 698 2788.2 698.6 2791.9 698.8 2795.6 698.6 2799.3 698 2802.9 697.1 2806.3 695.7 2809.6 694 2812.8 692 2815.7 689.7 2818.3 687.1 2820.6 684.2 2822.6 681.1 2824.3 677.7 2825.7 674.3 2826.6 670.7 2827.2 667 2827.4 663.3 2827.2 659.6 2826.6 655.9 2825.7 652.3 2824.3 648.9 2822.6 645.6 2820.6 642.4 2818.3 639.5 2815.7 636.9 2812.8 634.6 2809.7 632.6 2806.3 630.9 2802.9 629.5 2799.3 628.6 2795.6 628 2791.9 627.8 2788.2 628 2784.5 628.6 2780.9 629.5 2777.5 630.9 2774.2 632.6 2771 634.6 2768.1 636.9 2765.5 639.5 2763.2 642.4 2761.2 645.5 2759.5 648.9 2758.1 652.3 2757.2 655.9 2756.6 659.6 2756.4 663.3 M 2756.4 2913.3 2756.6 2917 2757.2 2920.7 2758.1 2924.3 2759.5 2927.7 2761.2 2931 2763.2 2934.2 2765.5 2937.1 2768.1 2939.7 2771 2942 2774.1 2944 2777.5 2945.7 2780.9 2947.1 2784.5 2948 2788.2 2948.6 2791.9 2948.8 2795.6 2948.6 2799.3 2948 2802.9 2947.1 2806.3 2945.7 2809.6 2944 2812.8 2942 2815.7 2939.7 2818.3 2937.1 2820.6 2934.2 2822.6 2931.1 2824.3 2927.7 2825.7 2924.3 2826.6 2920.7 2827.2 2917 2827.4 2913.3 2827.2 2909.6 2826.6 2905.9 2825.7 2902.3 2824.3 2898.9 2822.6 2895.6 2820.6 2892.4 2818.3 2889.5 2815.7 2886.9 2812.8 2884.6 2809.7 2882.6 2806.3 2880.9 2802.9 2879.5 2799.3 2878.6 2795.6 2878 2791.9 2877.8 2788.2 2878 2784.5 2878.6 2780.9 2879.5 2777.5 2880.9 2774.2 2882.6 2771 2884.6 2768.1 2886.9 2765.5 2889.5 2763.2 2892.4 2761.2 2895.5 2759.5 2898.9 2758.1 2902.3 2757.2 2905.9 2756.6 2909.6 2756.4 2913.3 M 2506.1 3163.6 2506.3 3167.3 2506.9 3171 2507.8 3174.6 2509.2 3178 2510.9 3181.3 2512.9 3184.5 2515.2 3187.4 2517.8 3190 2520.7 3192.3 2523.8 3194.3 2527.2 3196 2530.6 3197.4 2534.2 3198.3 2537.9 3198.9 2541.6 3199.1 2545.3 3198.9 2549 3198.3 2552.6 3197.4 2556 3196 2559.3 3194.3 2562.5 3192.3 2565.4 3190 2568 3187.4 2570.3 3184.5 2572.3 3181.4 2574 3178 2575.4 3174.6 2576.3 3171 2576.9 3167.3 2577.1 3163.6 2576.9 3159.9 2576.3 3156.2 2575.4 3152.6 2574 3149.2 2572.3 3145.9 2570.3 3142.7 2568 3139.8 2565.4 3137.2 2562.5 3134.9 2559.4 3132.9 2556 3131.2 2552.6 3129.8 2549 3128.9 2545.3 3128.3 2541.6 3128.1 2537.9 3128.3 2534.2 3128.9 2530.6 3129.8 2527.2 3131.2 2523.9 3132.9 2520.7 3134.9 2517.8 3137.2 2515.2 3139.8 2512.9 3142.7 2510.9 3145.8 2509.2 3149.2 2507.8 3152.6 2506.9 3156.2 2506.3 3159.9 2506.1 3163.6 M 2106.4 2913.3 2106.6 2917 2107.2 2920.7 2108.1 2924.3 2109.5 2927.7 2111.2 2931 2113.2 2934.2 2115.5 2937.1 2118.1 2939.7 2121 2942 2124.1 2944 2127.5 2945.7 2130.9 2947.1 2134.5 2948 2138.2 2948.6 2141.9 2948.8 2145.6 2948.6 2149.3 2948 2152.9 2947.1 2156.3 2945.7 2159.6 2944 2162.8 2942 2165.7 2939.7 2168.3 2937.1 2170.6 2934.2 2172.6 2931.1 2174.3 2927.7 2175.7 2924.3 2176.6 2920.7 2177.2 2917 2177.4 2913.3 2177.2 2909.6 2176.6 2905.9 2175.7 2902.3 2174.3 2898.9 2172.6 2895.6 2170.6 2892.4 2168.3 2889.5 2165.7 2886.9 2162.8 2884.6 2159.7 2882.6 2156.3 2880.9 2152.9 2879.5 2149.3 2878.6 2145.6 2878 2141.9 2877.8 2138.2 2878 2134.5 2878.6 2130.9 2879.5 2127.5 2880.9 2124.2 2882.6 2121 2884.6 2118.1 2886.9 2115.5 2889.5 2113.2 2892.4 2111.2 2895.5 2109.5 2898.9 2108.1 2902.3 2107.2 2905.9 2106.6 2909.6 2106.4 2913.3 M 1856.1 3163.6 1856.3 3167.3 1856.9 3171 1857.8 3174.6 1859.2 3178 1860.9 3181.3 1862.9 3184.5 1865.2 3187.4 1867.8 3190 1870.7 3192.3 1873.8 3194.3 1877.2 3196 1880.6 3197.4 1884.2 3198.3 1887.9 3198.9 1891.6 3199.1 1895.3 3198.9 1899 3198.3 1902.6 3197.4 1906 3196 1909.3 3194.3 1912.5 3192.3 1915.4 3190 1918 3187.4 1920.3 3184.5 1922.3 3181.4 1924 3178 1925.4 3174.6 1926.3 3171 1926.9 3167.3 1927.1 3163.6 1926.9 3159.9 1926.3 3156.2 1925.4 3152.6 1924 3149.2 1922.3 3145.9 1920.3 3142.7 1918 3139.8 1915.4 3137.2 1912.5 3134.9 1909.4 3132.9 1906 3131.2 1902.6 3129.8 1899 3128.9 1895.3 3128.3 1891.6 3128.1 1887.9 3128.3 1884.2 3128.9 1880.6 3129.8 1877.2 3131.2 1873.9 3132.9 1870.7 3134.9 1867.8 3137.2 1865.2 3139.8 1862.9 3142.7 1860.9 3145.8 1859.2 3149.2 1857.8 3152.6 1856.9 3156.2 1856.3 3159.9 1856.1 3163.6 M 1456.4 2913.3 1456.6 2917 1457.2 2920.7 1458.1 2924.3 1459.5 2927.7 1461.2 2931 1463.2 2934.2 1465.5 2937.1 1468.1 2939.7 1471 2942 1474.1 2944 1477.5 2945.7 1480.9 2947.1 1484.5 2948 1488.2 2948.6 1491.9 2948.8 1495.6 2948.6 1499.3 2948 1502.9 2947.1 1506.3 2945.7 1509.6 2944 1512.8 2942 1515.7 2939.7 1518.3 2937.1 1520.6 2934.2 1522.6 2931.1 1524.3 2927.7 1525.7 2924.3 1526.6 2920.7 1527.2 2917 1527.4 2913.3 1527.2 2909.6 1526.6 2905.9 1525.7 2902.3 1524.3 2898.9 1522.6 2895.6 1520.6 2892.4 1518.3 2889.5 1515.7 2886.9 1512.8 2884.6 1509.7 2882.6 1506.3 2880.9 1502.9 2879.5 1499.3 2878.6 1495.6 2878 1491.9 2877.8 1488.2 2878 1484.5 2878.6 1480.9 2879.5 1477.5 2880.9 1474.2 2882.6 1471 2884.6 1468.1 2886.9 1465.5 2889.5 1463.2 2892.4 1461.2 2895.5 1459.5 2898.9 1458.1 2902.3 1457.2 2905.9 1456.6 2909.6 1456.4 2913.3 M 1206.1 3163.6 1206.3 3167.3 1206.9 3171 1207.8 3174.6 1209.2 3178 1210.9 3181.3 1212.9 3184.5 1215.2 3187.4 1217.8 3190 1220.7 3192.3 1223.8 3194.3 1227.2 3196 1230.6 3197.4 1234.2 3198.3 1237.9 3198.9 1241.6 3199.1 1245.3 3198.9 1249 3198.3 1252.6 3197.4 1256 3196 1259.3 3194.3 1262.5 3192.3 1265.4 3190 1268 3187.4 1270.3 3184.5 1272.3 3181.4 1274 3178 1275.4 3174.6 1276.3 3171 1276.9 3167.3 1277.1 3163.6 1276.9 3159.9 1276.3 3156.2 1275.4 3152.6 1274 3149.2 1272.3 3145.9 1270.3 3142.7 1268 3139.8 1265.4 3137.2 1262.5 3134.9 1259.4 3132.9 1256 3131.2 1252.6 3129.8 1249 3128.9 1245.3 3128.3 1241.6 3128.1 1237.9 3128.3 1234.2 3128.9 1230.6 3129.8 1227.2 3131.2 1223.9 3132.9 1220.7 3134.9 1217.8 3137.2 1215.2 3139.8 1212.9 3142.7 1210.9 3145.8 1209.2 3149.2 1207.8 3152.6 1206.9 3156.2 1206.3 3159.9 1206.1 3163.6 M 1394.7 4252.1 1394.9 4256.6 1395.5 4261 1396.4 4265.4 1397.8 4269.6 1399.5 4273.7 1401.6 4277.7 1404 4281.5 1406.7 4285 1409.7 4288.3 1413 4291.3 1416.5 4294 1420.3 4296.4 1424.3 4298.5 1428.4 4300.2 1432.6 4301.6 1437 4302.5 1441.4 4303.1 1445.9 4303.3 1450.4 4303.1 1454.8 4302.5 1459.2 4301.6 1463.4 4300.2 1467.5 4298.5 1471.5 4296.4 1475.3 4294 1478.8 4291.3 1482.1 4288.3 1485.1 4285 1487.8 4281.5 1490.2 4277.7 1492.3 4273.7 1494 4269.6 1495.4 4265.4 1496.3 4261 1496.9 4256.6 1497.1 4252.1 1496.9 4247.6 1496.3 4243.2 1495.4 4238.8 1494 4234.6 1492.3 4230.5 1490.2 4226.5 1487.8 4222.7 1485.1 4219.2 1482.1 4215.9 1478.8 4212.9 1475.3 4210.2 1471.5 4207.8 1467.5 4205.7 1463.4 4204 1459.2 4202.6 1454.8 4201.7 1450.4 4201.1 1445.9 4200.9 1441.4 4201.1 1437 4201.7 1432.6 4202.6 1428.4 4204 1424.3 4205.7 1420.3 4207.8 1416.5 4210.2 1413 4212.9 1409.7 4215.9 1406.7 4219.2 1404 4222.7 1401.6 4226.5 1399.5 4230.5 1397.8 4234.6 1396.4 4238.8 1395.5 4243.2 1394.9 4247.6 1394.7 4252.1 M 1394.7 5413.5 1394.9 5418 1395.5 5422.4 1396.4 5426.8 1397.8 5431 1399.5 5435.1 1401.6 5439.1 1404 5442.9 1406.7 5446.4 1409.7 5449.7 1413 5452.7 1416.5 5455.4 1420.3 5457.8 1424.3 5459.9 1428.4 5461.6 1432.6 5463 1437 5463.9 1441.4 5464.5 1445.9 5464.7 1450.4 5464.5 1454.8 5463.9 1459.2 5463 1463.4 5461.6 1467.5 5459.9 1471.5 5457.8 1475.3 5455.4 1478.8 5452.7 1482.1 5449.7 1485.1 5446.4 1487.8 5442.9 1490.2 5439.1 1492.3 5435.1 1494 5431 1495.4 5426.8 1496.3 5422.4 1496.9 5418 1497.1 5413.5 1496.9 5409 1496.3 5404.6 1495.4 5400.2 1494 5396 1492.3 5391.9 1490.2 5387.9 1487.8 5384.1 1485.1 5380.6 1482.1 5377.3 1478.8 5374.3 1475.3 5371.6 1471.5 5369.2 1467.5 5367.1 1463.4 5365.4 1459.2 5364 1454.8 5363.1 1450.4 5362.5 1445.9 5362.3 1441.4 5362.5 1437 5363.1 1432.6 5364 1428.4 5365.4 1424.3 5367.1 1420.3 5369.2 1416.5 5371.6 1413 5374.3 1409.7 5377.3 1406.7 5380.6 1404 5384.1 1401.6 5387.9 1399.5 5391.9 1397.8 5396 1396.4 5400.2 1395.5 5404.6 1394.9 5409 1394.7 5413.5 M 178.8 5588.5 179 5593.5 179.6 5598.5 180.6 5603.4 182 5608.2 183.7 5612.9 185.8 5617.4 188.3 5621.8 191.1 5625.9 194.3 5629.8 197.7 5633.5 201.4 5636.9 205.4 5639.9 209.6 5642.6 214 5645 218.6 5647.1 223.3 5648.7 228.1 5650 233.1 5650.9 238 5651.4 243.1 5651.5 248.1 5651.2 253 5650.5 257.9 5649.4 262.7 5647.9 267.3 5646.1 271.8 5643.9 276.1 5641.3 280.2 5638.4 284.1 5635.2 287.7 5631.7 290.9 5627.9 293.9 5623.9 296.6 5619.6 298.9 5615.2 300.8 5610.6 302.4 5605.8 303.6 5600.9 304.4 5596 304.8 5591 304.8 5586 304.4 5581 303.6 5576.1 302.4 5571.2 300.8 5566.4 298.9 5561.8 296.6 5557.4 293.9 5553.1 290.9 5549.1 287.7 5545.3 284.1 5541.8 280.2 5538.6 276.1 5535.7 271.8 5533.1 267.3 5530.9 262.7 5529.1 257.9 5527.6 253 5526.5 248.1 5525.8 243.1 5525.5 238 5525.6 233.1 5526.1 228.1 5527 223.3 5528.3 218.6 5529.9 214 5532 209.6 5534.4 205.4 5537.1 201.4 5540.1 197.7 5543.5 194.3 5547.2 191.1 5551.1 188.3 5555.2 185.8 5559.6 183.7 5564.1 182 5568.8 180.6 5573.6 179.6 5578.5 179 5583.5 178.8 5588.5 M 66.8 5588.5 67 5596.8 67.6 5605.1 68.6 5613.4 70 5621.6 71.7 5629.8 73.9 5637.8 76.4 5645.7 79.3 5653.5 82.6 5661.2 86.3 5668.7 90.2 5676 94.6 5683.1 99.2 5690 104.2 5696.7 109.5 5703.1 115.1 5709.3 121 5715.2 127.2 5720.8 133.6 5726.1 140.3 5731.1 147.2 5735.7 154.3 5740.1 161.6 5744 169.1 5747.7 176.8 5751 184.6 5753.9 192.5 5756.4 200.5 5758.6 208.7 5760.3 216.9 5761.7 225.2 5762.7 233.5 5763.3 241.8 5763.5 3791.8 5763.5 M 3728.8 5588.5 3729 5593.5 3729.6 5598.5 3730.6 5603.4 3732 5608.2 3733.7 5612.9 3735.8 5617.4 3738.3 5621.8 3741.1 5625.9 3744.3 5629.8 3747.7 5633.5 3751.4 5636.9 3755.4 5639.9 3759.6 5642.6 3764 5645 3768.6 5647.1 3773.3 5648.7 3778.1 5650 3783.1 5650.9 3788 5651.4 3793.1 5651.5 3798.1 5651.2 3803 5650.5 3807.9 5649.4 3812.7 5647.9 3817.3 5646.1 3821.8 5643.9 3826.1 5641.3 3830.2 5638.4 3834.1 5635.2 3837.7 5631.7 3840.9 5627.9 3843.9 5623.9 3846.6 5619.6 3848.9 5615.2 3850.8 5610.6 3852.4 5605.8 3853.6 5600.9 3854.4 5596 3854.8 5591 3854.8 5586 3854.4 5581 3853.6 5576.1 3852.4 5571.2 3850.8 5566.4 3848.9 5561.8 3846.6 5557.4 3843.9 5553.1 3840.9 5549.1 3837.7 5545.3 3834.1 5541.8 3830.2 5538.6 3826.1 5535.7 3821.8 5533.1 3817.3 5530.9 3812.7 5529.1 3807.9 5527.6 3803 5526.5 3798.1 5525.8 3793.1 5525.5 3788 5525.6 3783.1 5526.1 3778.1 5527 3773.3 5528.3 3768.6 5529.9 3764 5532 3759.6 5534.4 3755.4 5537.1 3751.4 5540.1 3747.7 5543.5 3744.3 5547.2 3741.1 5551.1 3738.3 5555.2 3735.8 5559.6 3733.7 5564.1 3732 5568.8 3730.6 5573.6 3729.6 5578.5 3729 5583.5 3728.8 5588.5 M 3791.8 5763.5 3800.1 5763.3 3808.4 5762.7 3816.7 5761.7 3824.9 5760.3 3833.1 5758.6 3841.1 5756.4 3849 5753.9 3856.8 5751 3864.5 5747.7 3872 5744 3879.3 5740.1 3886.4 5735.7 3893.3 5731.1 3900 5726.1 3906.4 5720.8 3912.6 5715.2 3918.5 5709.3 3924.1 5703.1 3929.4 5696.7 3934.4 5690 3939 5683.1 3943.4 5676 3947.3 5668.7 3951 5661.2 3954.3 5653.5 3957.2 5645.7 3959.7 5637.8 3961.9 5629.8 3963.6 5621.6 3965 5613.4 3966 5605.1 3966.6 5596.8 3966.8 5588.5 3966.8 5426 3966.6 5421.6 3966 5417.3 3965.1 5413.1 3963.8 5408.9 3962.1 5404.9 3960.1 5401 3957.8 5397.3 3955.1 5393.9 3952.2 5390.6 3948.9 5387.7 3945.5 5385 3941.8 5382.7 3937.9 5380.7 3933.9 5379 3929.7 5377.7 3925.5 5376.8 3921.2 5376.2 3916.8 5376 3904.3 5376 3899.9 5375.8 3895.6 5375.2 3891.4 5374.3 3887.2 5373 3883.2 5371.3 3879.3 5369.3 3875.6 5367 3872.2 5364.3 3868.9 5361.4 3866 5358.1 3863.3 5354.7 3861 5351 3859 5347.1 3857.3 5343.1 3856 5338.9 3855.1 5334.7 3854.5 5330.4 3854.3 5326 3854.3 4938.5 3854.5 4934.1 3855.1 4929.8 3856 4925.6 3857.3 4921.4 3859 4917.4 3861 4913.5 3863.3 4909.8 3866 4906.4 3868.9 4903.1 3872.2 4900.2 3875.6 4897.5 3879.3 4895.2 3883.2 4893.2 3887.2 4891.5 3891.4 4890.2 3895.6 4889.3 3899.9 4888.7 3904.3 4888.5 3916.8 4888.5 3921.2 4888.3 3925.5 4887.7 3929.7 4886.8 3933.9 4885.5 3937.9 4883.8 3941.8 4881.8 3945.5 4879.5 3948.9 4876.8 3952.2 4873.9 3955.1 4870.6 3957.8 4867.2 3960.1 4863.5 3962.1 4859.6 3963.8 4855.6 3965.1 4851.4 3966 4847.2 3966.6 4842.9 3966.8 4838.5 3966.8 4188.5 M 3728.8 4188.5 3729 4193.5 3729.6 4198.5 3730.6 4203.4 3732 4208.2 3733.7 4212.9 3735.8 4217.4 3738.3 4221.8 3741.1 4225.9 3744.3 4229.8 3747.7 4233.5 3751.4 4236.9 3755.4 4239.9 3759.6 4242.6 3764 4245 3768.6 4247.1 3773.3 4248.7 3778.1 4250 3783.1 4250.9 3788 4251.4 3793.1 4251.5 3798.1 4251.2 3803 4250.5 3807.9 4249.4 3812.7 4247.9 3817.3 4246.1 3821.8 4243.9 3826.1 4241.3 3830.2 4238.4 3834.1 4235.2 3837.7 4231.7 3840.9 4227.9 3843.9 4223.9 3846.6 4219.6 3848.9 4215.2 3850.8 4210.6 3852.4 4205.8 3853.6 4200.9 3854.4 4196 3854.8 4191 3854.8 4186 3854.4 4181 3853.6 4176.1 3852.4 4171.2 3850.8 4166.4 3848.9 4161.8 3846.6 4157.4 3843.9 4153.1 3840.9 4149.1 3837.7 4145.3 3834.1 4141.8 3830.2 4138.6 3826.1 4135.7 3821.8 4133.1 3817.3 4130.9 3812.7 4129.1 3807.9 4127.6 3803 4126.5 3798.1 4125.8 3793.1 4125.5 3788 4125.6 3783.1 4126.1 3778.1 4127 3773.3 4128.3 3768.6 4129.9 3764 4132 3759.6 4134.4 3755.4 4137.1 3751.4 4140.1 3747.7 4143.5 3744.3 4147.2 3741.1 4151.1 3738.3 4155.2 3735.8 4159.6 3733.7 4164.1 3732 4168.8 3730.6 4173.6 3729.6 4178.5 3729 4183.5 3728.8 4188.5 M 3791.8 4013.5 3800.1 4013.7 3808.4 4014.3 3816.7 4015.3 3824.9 4016.7 3833.1 4018.4 3841.1 4020.6 3849 4023.1 3856.8 4026 3864.5 4029.3 3872 4033 3879.3 4036.9 3886.4 4041.3 3893.3 4045.9 3900 4050.9 3906.4 4056.2 3912.6 4061.8 3918.5 4067.7 3924.1 4073.9 3929.4 4080.3 3934.4 4087 3939 4093.9 3943.4 4101 3947.3 4108.3 3951 4115.8 3954.3 4123.5 3957.2 4131.3 3959.7 4139.2 3961.9 4147.2 3963.6 4155.4 3965 4163.6 3966 4171.9 3966.6 4180.2 3966.8 4188.5 M 3791.8 4013.5 241.8 4013.5 M 178.8 4188.5 179 4193.5 179.6 4198.5 180.6 4203.4 182 4208.2 183.7 4212.9 185.8 4217.4 188.3 4221.8 191.1 4225.9 194.3 4229.8 197.7 4233.5 201.4 4236.9 205.4 4239.9 209.6 4242.6 214 4245 218.6 4247.1 223.3 4248.7 228.1 4250 233.1 4250.9 238 4251.4 243.1 4251.5 248.1 4251.2 253 4250.5 257.9 4249.4 262.7 4247.9 267.3 4246.1 271.8 4243.9 276.1 4241.3 280.2 4238.4 284.1 4235.2 287.7 4231.7 290.9 4227.9 293.9 4223.9 296.6 4219.6 298.9 4215.2 300.8 4210.6 302.4 4205.8 303.6 4200.9 304.4 4196 304.8 4191 304.8 4186 304.4 4181 303.6 4176.1 302.4 4171.2 300.8 4166.4 298.9 4161.8 296.6 4157.4 293.9 4153.1 290.9 4149.1 287.7 4145.3 284.1 4141.8 280.2 4138.6 276.1 4135.7 271.8 4133.1 267.3 4130.9 262.7 4129.1 257.9 4127.6 253 4126.5 248.1 4125.8 243.1 4125.5 238 4125.6 233.1 4126.1 228.1 4127 223.3 4128.3 218.6 4129.9 214 4132 209.6 4134.4 205.4 4137.1 201.4 4140.1 197.7 4143.5 194.3 4147.2 191.1 4151.1 188.3 4155.2 185.8 4159.6 183.7 4164.1 182 4168.8 180.6 4173.6 179.6 4178.5 179 4183.5 178.8 4188.5 M 66.8 4188.5 67 4180.2 67.6 4171.9 68.6 4163.6 70 4155.4 71.7 4147.2 73.9 4139.2 76.4 4131.3 79.3 4123.5 82.6 4115.8 86.3 4108.3 90.2 4101 94.6 4093.9 99.2 4087 104.2 4080.3 109.5 4073.9 115.1 4067.7 121 4061.8 127.2 4056.2 133.6 4050.9 140.3 4045.9 147.2 4041.3 154.3 4036.9 161.6 4033 169.1 4029.3 176.8 4026 184.6 4023.1 192.5 4020.6 200.5 4018.4 208.7 4016.7 216.9 4015.3 225.2 4014.3 233.5 4013.7 241.8 4013.5 M 66.8 4188.5 66.8 5588.5 M 2536.4 5413.5 2536.6 5418 2537.2 5422.4 2538.1 5426.8 2539.5 5431 2541.2 5435.1 2543.3 5439.1 2545.7 5442.9 2548.4 5446.4 2551.4 5449.7 2554.7 5452.7 2558.2 5455.4 2562 5457.8 2566 5459.9 2570.1 5461.6 2574.3 5463 2578.7 5463.9 2583.1 5464.5 2587.6 5464.7 2592.1 5464.5 2596.5 5463.9 2600.9 5463 2605.1 5461.6 2609.2 5459.9 2613.2 5457.8 2617 5455.4 2620.5 5452.7 2623.8 5449.7 2626.8 5446.4 2629.5 5442.9 2631.9 5439.1 2634 5435.1 2635.7 5431 2637.1 5426.8 2638 5422.4 2638.6 5418 2638.8 5413.5 2638.6 5409 2638 5404.6 2637.1 5400.2 2635.7 5396 2634 5391.9 2631.9 5387.9 2629.5 5384.1 2626.8 5380.6 2623.8 5377.3 2620.5 5374.3 2617 5371.6 2613.2 5369.2 2609.2 5367.1 2605.1 5365.4 2600.9 5364 2596.5 5363.1 2592.1 5362.5 2587.6 5362.3 2583.1 5362.5 2578.7 5363.1 2574.3 5364 2570.1 5365.4 2566 5367.1 2562 5369.2 2558.2 5371.6 2554.7 5374.3 2551.4 5377.3 2548.4 5380.6 2545.7 5384.1 2543.3 5387.9 2541.2 5391.9 2539.5 5396 2538.1 5400.2 2537.2 5404.6 2536.6 5409 2536.4 5413.5 M 2536.4 4252.1 2536.6 4256.6 2537.2 4261 2538.1 4265.4 2539.5 4269.6 2541.2 4273.7 2543.3 4277.7 2545.7 4281.5 2548.4 4285 2551.4 4288.3 2554.7 4291.3 2558.2 4294 2562 4296.4 2566 4298.5 2570.1 4300.2 2574.3 4301.6 2578.7 4302.5 2583.1 4303.1 2587.6 4303.3 2592.1 4303.1 2596.5 4302.5 2600.9 4301.6 2605.1 4300.2 2609.2 4298.5 2613.2 4296.4 2617 4294 2620.5 4291.3 2623.8 4288.3 2626.8 4285 2629.5 4281.5 2631.9 4277.7 2634 4273.7 2635.7 4269.6 2637.1 4265.4 2638 4261 2638.6 4256.6 2638.8 4252.1 2638.6 4247.6 2638 4243.2 2637.1 4238.8 2635.7 4234.6 2634 4230.5 2631.9 4226.5 2629.5 4222.7 2626.8 4219.2 2623.8 4215.9 2620.5 4212.9 2617 4210.2 2613.2 4207.8 2609.2 4205.7 2605.1 4204 2600.9 4202.6 2596.5 4201.7 2592.1 4201.1 2587.6 4200.9 2583.1 4201.1 2578.7 4201.7 2574.3 4202.6 2570.1 4204 2566 4205.7 2562 4207.8 2558.2 4210.2 2554.7 4212.9 2551.4 4215.9 2548.4 4219.2 2545.7 4222.7 2543.3 4226.5 2541.2 4230.5 2539.5 4234.6 2538.1 4238.8 2537.2 4243.2 2536.6 4247.6 2536.4 4252.1" fill="none" stroke-width="0"/></g></svg>