<svg xmlns="http://www.w3.org/2000/svg" version="1.1" xmlns:xlink="http://www.w3.org/1999/xlink" stroke-linecap="round" stroke-linejoin="round" stroke-width="0" fill-rule="evenodd" width="3.86in" height="1.71in" viewBox="86.8 3846 3860 1710" id="operator-interface-display-r1.toplayer"><defs><circle cx="0" cy="0" r="28" id="operator-interface-display-r1.toplayer_pad-10"/><rect x="-28" y="-28" width="56" height="56" id="operator-interface-display-r1.toplayer_pad-11"/><circle cx="0" cy="0" r="29" id="operator-interface-display-r1.toplayer_pad-12"/><polygon points="25.99995,10.76953 10.76953,25.99995 -10.76953,25.99995 -25.99995,10.76953 -25.99995,-10.76953 -10.76953,-25.99995 10.76953,-25.99995 25.99995,-10.76953" id="operator-interface-display-r1.toplayer_pad-13"/><circle cx="0" cy="0" r="33" id="operator-interface-display-r1.toplayer_pad-14"/><polygon points="31.49994,13.0477 13.0477,31.49994 -13.0477,31.49994 -31.49994,13.0477 -31.49994,-13.0477 -13.0477,-31.49994 13.0477,-31.49994 31.49994,-13.0477" id="operator-interface-display-r1.toplayer_pad-15"/><circle cx="0" cy="0" r="31.5" id="operator-interface-display-r1.toplayer_pad-16"/><circle cx="0" cy="0" r="50" id="operator-interface-display-r1.toplayer_pad-17"/><polygon points="29.99994,12.42638 12.42638,29.99994 -12.42638,29.99994 -29.99994,12.42638 -29.99994,-12.42638 -12.42638,-29.99994 12.42638,-29.99994 29.99994,-12.42638" id="operator-interface-display-r1.toplayer_pad-18"/><circle cx="0" cy="0" r="19.8" id="operator-interface-display-r1.toplayer_pad-20"/></defs><g transform="translate(0,9402) scale(1,-1)" fill="currentColor" stroke="currentColor"><use xlink:href="#operator-interface-display-r1.toplayer_pad-10" x="383.7" y="4533.9"/><use xlink:href="#operator-interface-display-r1.toplayer_pad-10" x="383.7" y="4612.6"/><use xlink:href="#operator-interface-display-r1.toplayer_pad-10" x="383.7" y="4691.4"/><use xlink:href="#operator-interface-display-r1.toplayer_pad-10" x="383.7" y="4770.1"/><use xlink:href="#operator-interface-display-r1.toplayer_pad-10" x="383.7" y="4848.8"/><use xlink:href="#operator-interface-display-r1.toplayer_pad-10" x="383.7" y="4927.6"/><use xlink:href="#operator-interface-display-r1.toplayer_pad-10" x="383.7" y="5006.3"/><use xlink:href="#operator-interface-display-r1.toplayer_pad-10" x="383.7" y="5085.1"/><use xlink:href="#operator-interface-display-r1.toplayer_pad-10" x="383.7" y="5163.8"/><use xlink:href="#operator-interface-display-r1.toplayer_pad-10" x="1249.8" y="5163.8"/><use xlink:href="#operator-interface-display-r1.toplayer_pad-10" x="1249.8" y="5085.1"/><use xlink:href="#operator-interface-display-r1.toplayer_pad-10" x="1249.8" y="5006.3"/><use xlink:href="#operator-interface-display-r1.toplayer_pad-10" x="1249.8" y="4927.6"/><use xlink:href="#operator-interface-display-r1.toplayer_pad-10" x="1249.8" y="4848.8"/><use xlink:href="#operator-interface-display-r1.toplayer_pad-10" x="1249.8" y="4770.1"/><use xlink:href="#operator-interface-display-r1.toplayer_pad-10" x="1249.8" y="4691.4"/><use xlink:href="#operator-interface-display-r1.toplayer_pad-10" x="1249.8" y="4612.6"/><use xlink:href="#operator-interface-display-r1.toplayer_pad-10" x="1249.8" y="4533.9"/><use xlink:href="#operator-interface-display-r1.toplayer_pad-10" x="1249.8" y="5242.5"/><use xlink:href="#operator-interface-display-r1.toplayer_pad-10" x="1942" y="5476"/><use xlink:href="#operator-interface-display-r1.toplayer_pad-10" x="2016.8" y="5476"/><use xlink:href="#operator-interface-display-r1.toplayer_pad-10" x="2095.5" y="5476"/><use xlink:href="#operator-interface-display-r1.toplayer_pad-10" x="3677.4" y="5076"/><use xlink:href="#operator-interface-display-r1.toplayer_pad-10" x="3756.1" y="5076"/><use xlink:href="#operator-interface-display-r1.toplayer_pad-11" x="383.7" y="5242.5"/><use xlink:href="#operator-interface-display-r1.toplayer_pad-12" x="2816.8" y="5201"/><use xlink:href="#operator-interface-display-r1.toplayer_pad-12" x="2816.8" y="5301"/><use xlink:href="#operator-interface-display-r1.toplayer_pad-12" x="2816.8" y="5401"/><use xlink:href="#operator-interface-display-r1.toplayer_pad-12" x="2816.8" y="5501"/><use xlink:href="#operator-interface-display-r1.toplayer_pad-12" x="2816.8" y="5101"/><use xlink:href="#operator-interface-display-r1.toplayer_pad-12" x="2816.8" y="5001"/><use xlink:href="#operator-interface-display-r1.toplayer_pad-12" x="2816.8" y="4901"/><use xlink:href="#operator-interface-display-r1.toplayer_pad-12" x="2816.8" y="4801"/><use xlink:href="#operator-interface-display-r1.toplayer_pad-12" x="2816.8" y="4701"/><use xlink:href="#operator-interface-display-r1.toplayer_pad-12" x="2816.8" y="4601"/><use xlink:href="#operator-interface-display-r1.toplayer_pad-12" x="2816.8" y="4501"/><use xlink:href="#operator-interface-display-r1.toplayer_pad-12" x="2816.8" y="4401"/><use xlink:href="#operator-interface-display-r1.toplayer_pad-12" x="2816.8" y="4301"/><use xlink:href="#operator-interface-display-r1.toplayer_pad-12" x="2816.8" y="4201"/><use xlink:href="#operator-interface-display-r1.toplayer_pad-12" x="2916.8" y="4201"/><use xlink:href="#operator-interface-display-r1.toplayer_pad-12" x="3016.8" y="4201"/><use xlink:href="#operator-interface-display-r1.toplayer_pad-12" x="3116.8" y="4201"/><use xlink:href="#operator-interface-display-r1.toplayer_pad-12" x="3216.8" y="4201"/><use xlink:href="#operator-interface-display-r1.toplayer_pad-12" x="3316.8" y="4201"/><use xlink:href="#operator-interface-display-r1.toplayer_pad-12" x="3416.8" y="4201"/><use xlink:href="#operator-interface-display-r1.toplayer_pad-12" x="3416.8" y="4301"/><use xlink:href="#operator-interface-display-r1.toplayer_pad-12" x="3416.8" y="4401"/><use xlink:href="#operator-interface-display-r1.toplayer_pad-12" x="3416.8" y="4501"/><use xlink:href="#operator-interface-display-r1.toplayer_pad-12" x="3416.8" y="4601"/><use xlink:href="#operator-interface-display-r1.toplayer_pad-12" x="3416.8" y="4701"/><use xlink:href="#operator-interface-display-r1.toplayer_pad-12" x="3416.8" y="4801"/><use xlink:href="#operator-interface-display-r1.toplayer_pad-12" x="3416.8" y="4901"/><use xlink:href="#operator-interface-display-r1.toplayer_pad-12" x="3416.8" y="5001"/><use xlink:href="#operator-interface-display-r1.toplayer_pad-12" x="3416.8" y="5101"/><use xlink:href="#operator-interface-display-r1.toplayer_pad-12" x="3416.8" y="5201"/><use xlink:href="#operator-interface-display-r1.toplayer_pad-12" x="3416.8" y="5301"/><use xlink:href="#operator-interface-display-r1.toplayer_pad-12" x="3416.8" y="5401"/><use xlink:href="#operator-interface-display-r1.toplayer_pad-12" x="3416.8" y="5501"/><use xlink:href="#operator-interface-display-r1.toplayer_pad-12" x="3316.8" y="5401"/><use xlink:href="#operator-interface-display-r1.toplayer_pad-12" x="3316.8" y="5201"/><use xlink:href="#operator-interface-display-r1.toplayer_pad-12" x="3316.8" y="5101"/><use xlink:href="#operator-interface-display-r1.toplayer_pad-12" x="3316.8" y="5001"/><use xlink:href="#operator-interface-display-r1.toplayer_pad-13" x="3541.8" y="5076"/><use xlink:href="#operator-interface-display-r1.toplayer_pad-13" x="3541.8" y="4676"/><use xlink:href="#operator-interface-display-r1.toplayer_pad-13" x="3541.8" y="4576"/><use xlink:href="#operator-interface-display-r1.toplayer_pad-13" x="3641.8" y="4576"/><use xlink:href="#operator-interface-display-r1.toplayer_pad-13" x="3641.8" y="4176"/><use xlink:href="#operator-interface-display-r1.toplayer_pad-13" x="3541.8" y="4176"/><use xlink:href="#operator-interface-display-r1.toplayer_pad-13" x="3516.8" y="3976"/><use xlink:href="#operator-interface-display-r1.toplayer_pad-13" x="3416.8" y="3976"/><use xlink:href="#operator-interface-display-r1.toplayer_pad-13" x="3016.8" y="3976"/><use xlink:href="#operator-interface-display-r1.toplayer_pad-13" x="2916.8" y="3976"/><use xlink:href="#operator-interface-display-r1.toplayer_pad-13" x="1266.8" y="4376"/><use xlink:href="#operator-interface-display-r1.toplayer_pad-13" x="1116.8" y="3976"/><use xlink:href="#operator-interface-display-r1.toplayer_pad-13" x="1016.8" y="3976"/><use xlink:href="#operator-interface-display-r1.toplayer_pad-13" x="866.8" y="4376"/><use xlink:href="#operator-interface-display-r1.toplayer_pad-13" x="766.8" y="4376"/><use xlink:href="#operator-interface-display-r1.toplayer_pad-13" x="616.8" y="3976"/><use xlink:href="#operator-interface-display-r1.toplayer_pad-13" x="516.8" y="3976"/><use xlink:href="#operator-interface-display-r1.toplayer_pad-13" x="366.8" y="4376"/><use xlink:href="#operator-interface-display-r1.toplayer_pad-14" x="1666.8" y="5226"/><use xlink:href="#operator-interface-display-r1.toplayer_pad-14" x="1766.8" y="5226"/><use xlink:href="#operator-interface-display-r1.toplayer_pad-14" x="1866.8" y="5226"/><use xlink:href="#operator-interface-display-r1.toplayer_pad-14" x="1966.8" y="5226"/><use xlink:href="#operator-interface-display-r1.toplayer_pad-14" x="2066.8" y="5226"/><use xlink:href="#operator-interface-display-r1.toplayer_pad-14" x="2166.8" y="5226"/><use xlink:href="#operator-interface-display-r1.toplayer_pad-14" x="2266.8" y="5226"/><use xlink:href="#operator-interface-display-r1.toplayer_pad-14" x="2366.8" y="5226"/><use xlink:href="#operator-interface-display-r1.toplayer_pad-15" x="3666.8" y="4826"/><use xlink:href="#operator-interface-display-r1.toplayer_pad-15" x="3766.8" y="4326"/><use xlink:href="#operator-interface-display-r1.toplayer_pad-16" x="3866.8" y="4326"/><use xlink:href="#operator-interface-display-r1.toplayer_pad-16" x="3766.8" y="4826"/><use xlink:href="#operator-interface-display-r1.toplayer_pad-17" x="2205.7" y="5476"/><use xlink:href="#operator-interface-display-r1.toplayer_pad-17" x="1827.8" y="5476"/><use xlink:href="#operator-interface-display-r1.toplayer_pad-18" x="1816.8" y="4276"/><use xlink:href="#operator-interface-display-r1.toplayer_pad-18" x="1916.8" y="4276"/><use xlink:href="#operator-interface-display-r1.toplayer_pad-18" x="1916.8" y="4176"/><use xlink:href="#operator-interface-display-r1.toplayer_pad-18" x="1816.8" y="4176"/><use xlink:href="#operator-interface-display-r1.toplayer_pad-18" x="1716.8" y="4176"/><use xlink:href="#operator-interface-display-r1.toplayer_pad-18" x="1716.8" y="4276"/><use xlink:href="#operator-interface-display-r1.toplayer_pad-18" x="1616.8" y="4276"/><use xlink:href="#operator-interface-display-r1.toplayer_pad-18" x="1616.8" y="4176"/><use xlink:href="#operator-interface-display-r1.toplayer_pad-18" x="2016.8" y="4176"/><use xlink:href="#operator-interface-display-r1.toplayer_pad-18" x="2116.8" y="4176"/><use xlink:href="#operator-interface-display-r1.toplayer_pad-18" x="2216.8" y="4176"/><use xlink:href="#operator-interface-display-r1.toplayer_pad-18" x="2216.8" y="4276"/><use xlink:href="#operator-interface-display-r1.toplayer_pad-18" x="2116.8" y="4276"/><use xlink:href="#operator-interface-display-r1.toplayer_pad-18" x="2016.8" y="4276"/><use xlink:href="#operator-interface-display-r1.toplayer_pad-18" x="2316.8" y="4276"/><use xlink:href="#operator-interface-display-r1.toplayer_pad-18" x="2416.8" y="4276"/><use xlink:href="#operator-interface-display-r1.toplayer_pad-18" x="2416.8" y="4176"/><use xlink:href="#operator-interface-display-r1.toplayer_pad-18" x="2316.8" y="4176"/><path d="M 345.2 3871.2 312 3852 3722.1 3852 3708.8 3857.2 3708.8 3857.2 3670.1 3888.1 3670.1 3888.1 3670.1 3888.1 3642.2 3929 3642.2 3929 3627.6 3976.3 3627.6 3976.3 3627.6 4025.7 3627.6 4025.7 3642.2 4073 3642.2 4073 3670.1 4113.9 3670.1 4113.9 3708.8 4144.8 3708.8 4144.8 3754.8 4162.8 3754.8 4162.8 3804.2 4166.5 3804.2 4166.5 3852.4 4155.5 3852.4 4155.5 3895.2 4130.8 3895.3 4130.8 3928.9 4094.5 3928.9 4094.5 3940.8 4069.9 3940.8 4645.8 3940.8 4648 3940.8 4651 3940.3 4655.7 3936.7 4664.3 3930.1 4671 3921.4 4674.5 3916.8 4675 3909.4 4675 3904.3 4675 3899.1 4675 3889.1 4675 3889.1 4675 3861.2 4686.6 3861.2 4686.6 3854.3 4693.5 3854.3 4536.4 3880.9 4509.7 3887.9 4502.7 3891.8 4493.5 3891.8 4368.1 3894.2 4367.1 3907.9 4353.5 3915.3 4335.7 3915.3 4316.4 3907.9 4298.5 3894.2 4284.9 3876.4 4277.5 3857.1 4277.5 3839.3 4284.9 3825.6 4298.5 3818.3 4316.4 3818.3 4335.7 3825.6 4353.5 3839.3 4367.1 3841.8 4368.1 3841.8 4478.2 3808.1 4511.8 3804.3 4521 3804.3 4531 3804.3 4794.9 3794.2 4784.9 3776.4 4777.5 3757.1 4777.5 3739.3 4784.9 3725.6 4798.5 3718.3 4816.4 3718.3 4835.7 3725.6 4853.5 3739.3 4867.1 3757.1 4874.5 3776.4 4874.5 3794.2 4867.1 3804.3 4857.1 3804.3 5078.2 3801.1 5081.3 3801.1 5067.1 3794.3 5050.5 3781.6 5037.9 3765.1 5031 3747.2 5031 3730.6 5037.9 3718 5050.5 3716.1 5055.1 3715 5052.9 3710.9 5047.3 3706 5042.4 3700.4 5038.4 3694.3 5035.2 3687.7 5033.1 3680.8 5032 3679.3 5032 3679.3 5074.1 3675.5 5074.1 3675.5 5032 3673.9 5032 3667.1 5033.1 3660.5 5035.2 3654.3 5038.4 3648.7 5042.4 3643.8 5047.3 3639.8 5052.9 3636.6 5059.1 3634.5 5065.7 3633.4 5072.5 3633.4 5074.1 3675.5 5074.1 3675.5 5077.9 3675.5 5120 3673.9 5120 3667.1 5118.9 3660.5 5116.8 3654.3 5113.6 3648.7 5109.6 3643.8 5104.7 3639.8 5099.1 3636.6 5092.9 3634.5 5086.3 3633.4 5079.5 3633.4 5077.9 3675.5 5077.9 3679.3 5077.9 3679.3 5120 3680.8 5120 3687.7 5118.9 3694.3 5116.8 3700.4 5113.6 3706 5109.6 3710.9 5104.7 3715 5099.1 3716.1 5096.9 3718 5101.5 3730.6 5114.2 3747.2 5121 3761.4 5121 3756.4 5126 3711.8 5126 3702.6 5129.8 3695.6 5136.8 3506.4 5326 3456.2 5326 3462.8 5310.2 3462.8 5291.9 3455.7 5274.9 3442.8 5262 3425.9 5255 3407.6 5255 3390.7 5262 3377.8 5274.9 3370.8 5291.9 3370.8 5310.2 3377.3 5326 3361.8 5326 3352.6 5329.8 3345.6 5336.8 3327 5355.4 3325.9 5355 3307.6 5355 3290.7 5362 3277.8 5374.9 3270.8 5391.9 3270.8 5410.2 3277.8 5427.1 3280.2 5429.5 3271.7 5426 3261.8 5426 2856.2 5426 2862.8 5410.2 2862.8 5391.9 2855.7 5374.9 2842.8 5362 2825.9 5355 2807.6 5355 2790.7 5362 2777.8 5374.9 2776.5 5378 2776.3 5378 2739.8 5341.5 2736.8 5338.5 2751.3 5324 2776.5 5324 2777.8 5327.1 2790.7 5340 2807.6 5347 2825.9 5347 2842.8 5340 2855.7 5327.1 2862.8 5310.2 2862.8 5291.9 2855.7 5274.9 2854.8 5274 2937.7 5274 2945.9 5282.2 2959.4 5287.8 2974.1 5287.8 2987.6 5282.2 2998 5271.9 3003.6 5258.3 3003.6 5243.7 2998 5230.2 2991.8 5224 3176.3 5224 3189.8 5210.5 3226.3 5174 3278.7 5174 3277.8 5174.9 3270.8 5191.9 3270.8 5210.2 3277.8 5227.1 3290.7 5240 3307.6 5247 3325.9 5247 3342.8 5240 3355.7 5227.1 3362.8 5210.2 3362.8 5191.9 3355.7 5174.9 3354.8 5174 3357.2 5174 3372 5188.8 3370.8 5191.9 3370.8 5210.2 3377.8 5227.1 3390.7 5240 3407.6 5247 3425.9 5247 3442.8 5240 3455.7 5227.1 3462.8 5210.2 3462.8 5191.9 3455.7 5174.9 3442.8 5162 3425.9 5155 3407.6 5155 3404.5 5156.3 3389.8 5141.5 3376.3 5128 3354.8 5128 3355.7 5127.1 3362.8 5110.2 3362.8 5091.9 3355.7 5074.9 3354.8 5074 3357.2 5074 3372 5088.8 3370.8 5091.9 3370.8 5110.2 3362.7 5110.2 M 3370.8 5110.2 3377.8 5127.1 3390.7 5140 3407.6 5147 3425.9 5147 3442.8 5140 3455.7 5127.1 3462.8 5110.2 3462.8 5091.9 3455.7 5074.9 3442.8 5062 3425.9 5055 3407.6 5055 3404.5 5056.3 3389.8 5041.5 3376.3 5028 3354.8 5028 3355.7 5027.1 3362.8 5010.2 3362.8 4991.9 3355.7 4974.9 3354.8 4974 3357.2 4974 3372 4988.8 3370.8 4991.9 3370.8 5010.2 3377.8 5027.1 3390.7 5040 3407.6 5047 3425.9 5047 3442.8 5040 3455.7 5027.1 3462.8 5010.2 3462.8 4991.9 3455.7 4974.9 3442.8 4962 3425.9 4955 3407.6 4955 3404.5 4956.3 3376.3 4928 3357.2 4928 3257.2 4928 3243.8 4941.5 3157.2 5028 2854.8 5028 2855.7 5027.1 2862.8 5010.2 2862.8 4991.9 2855.7 4974.9 2854.8 4974 3157.2 4974 3176.3 4974 3226.3 4924 3376.5 4924 3377.8 4927.1 3390.7 4940 3407.6 4947 3425.9 4947 3442.8 4940 3455.7 4927.1 3462.8 4910.2 3462.8 4891.9 3455.7 4874.9 3442.8 4862 3425.9 4855 3407.6 4855 3390.7 4862 3377.8 4874.9 3376.5 4878 3207.2 4878 3193.8 4891.5 3157.2 4928 2854.8 4928 2855.7 4927.1 2862.8 4910.2 2862.8 4891.9 2855.7 4874.9 2854.8 4874 3176.3 4874 3189.8 4860.5 3226.3 4824 3376.5 4824 3377.8 4827.1 3390.7 4840 3407.6 4847 3425.9 4847 3442.8 4840 3455.7 4827.1 3462.8 4810.2 3462.8 4791.9 3455.7 4774.9 3442.8 4762 3425.9 4755 3407.6 4755 3390.7 4762 3377.8 4774.9 3376.5 4778 3226.3 4778 3207.2 4778 3157.2 4828 2854.8 4828 2855.7 4827.1 2862.8 4810.2 2862.8 4791.9 2855.7 4774.9 2854.8 4774 3176.3 4774 3189.8 4760.5 3226.3 4724 3376.5 4724 3377.8 4727.1 3390.7 4740 3407.6 4747 3425.9 4747 3442.8 4740 3455.7 4727.1 3462.8 4710.2 3462.8 4691.9 3455.7 4674.9 3442.8 4662 3425.9 4655 3407.6 4655 3390.7 4662 3377.8 4674.9 3376.5 4678 3226.3 4678 3207.2 4678 3157.2 4728 2854.8 4728 2855.7 4727.1 2862.8 4710.2 2862.8 4691.9 2855.7 4674.9 2854.8 4674 3176.3 4674 3189.8 4660.5 3226.3 4624 3376.5 4624 3377.8 4627.1 3390.7 4640 3407.6 4647 3425.9 4647 3442.8 4640 3455.7 4627.1 3462.8 4610.2 3462.8 4591.9 3455.7 4574.9 3442.8 4562 3425.9 4555 3407.6 4555 3390.7 4562 3377.8 4574.9 3376.5 4578 3226.3 4578 3207.2 4578 3157.2 4628 2854.8 4628 2855.7 4627.1 2862.8 4610.2 2862.8 4591.9 2855.7 4574.9 2854.8 4574 3176.3 4574 3189.8 4560.5 3226.3 4524 3376.5 4524 3377.8 4527.1 3390.7 4540 3407.6 4547 3425.9 4547 3442.8 4540 3455.7 4527.1 3462.8 4510.2 3462.8 4491.9 3455.7 4474.9 3442.8 4462 3425.9 4455 3407.6 4455 3390.7 4462 3377.8 4474.9 3376.5 4478 3226.3 4478 3207.2 4478 3157.2 4528 2854.8 4528 2855.7 4527.1 2862.8 4510.2 2862.8 4491.9 2855.7 4474.9 2854.8 4474 3157.2 4474 3176.3 4474 3226.3 4424 3376.5 4424 3377.8 4427.1 3390.7 4440 3407.6 4447 3425.9 4447 3442.8 4440 3455.7 4427.1 3462.8 4410.2 3462.8 4391.9 3455.7 4374.9 3442.8 4362 3425.9 4355 3407.6 4355 3390.7 4362 3377.8 4374.9 3376.5 4378 3207.2 4378 3193.8 4391.5 3157.2 4428 2854.8 4428 2855.7 4427.1 2862.8 4410.2 2862.8 4391.9 2855.7 4374.9 2854.8 4374 3157.2 4374 3176.3 4374 3226.3 4324 3376.5 4324 3377.8 4327.1 3390.7 4340 3407.6 4347 3425.9 4347 3442.8 4340 3455.7 4327.1 3462.8 4310.2 3462.8 4291.9 3455.7 4274.9 3442.8 4262 3425.9 4255 3407.6 4255 3390.7 4262 3377.8 4274.9 3376.5 4278 3207.2 4278 3193.8 4291.5 3157.2 4328 2991.8 4328 2998 4321.9 3003.6 4308.3 3003.6 4293.7 2998 4280.2 2987.6 4269.8 2974.1 4264.2 2959.4 4264.2 2945.9 4269.8 2937.7 4278 2926.3 4278 2861.5 4213.2 2862.8 4210.2 2862.8 4191.9 2855.7 4174.9 2842.8 4162 2825.9 4155 2807.6 4155 2790.7 4162 2777.8 4174.9 2770.8 4191.9 2770.8 4210.2 2777.8 4227.1 2790.7 4240 2807.6 4247 2825.9 4247 2829 4245.7 2907.2 4324 2926.3 4324 2937.7 4324 2941.7 4328 2854.8 4328 2855.7 4327.1 2862.8 4310.2 2862.8 4291.9 2855.7 4274.9 2842.8 4262 2825.9 4255 2807.6 4255 2790.7 4262 2777.8 4274.9 2770.8 4291.9 2770.8 4310.2 2777.8 4327.1 2778.7 4328 2245.8 4328 2238.5 4320.7 2263.8 4295.5 2263.8 4256.5 2236.2 4229 2197.3 4229 2169.8 4256.5 2169.8 4295.5 2195 4320.7 2185.5 4330.2 2179.9 4343.7 2179.9 4358.3 2185.5 4371.9 2195.9 4382.2 2209.4 4387.8 2224.1 4387.8 2237.6 4382.2 2245.8 4374 2778.7 4374 2777.8 4374.9 2770.8 4391.9 2770.8 4410.2 2777.8 4427.1 2778.7 4428 1645.8 4428 1637.6 4419.8 1624.1 4414.2 1609.4 4414.2 1595.9 4419.8 1585.5 4430.2 1579.9 4443.7 1579.9 4458.3 1585.5 4471.9 1595.9 4482.2 1609.4 4487.8 1624.1 4487.8 1637.6 4482.2 1645.8 4474 2778.7 4474 2777.8 4474.9 2770.8 4491.9 2770.8 4510.2 2777.8 4527.1 2778.7 4528 1695.8 4528 1687.6 4519.8 1674.1 4514.2 1659.4 4514.2 1645.9 4519.8 1635.5 4530.2 1629.9 4543.7 1629.9 4558.3 1635.5 4571.9 1645.9 4582.2 1659.4 4587.8 1674.1 4587.8 1687.6 4582.2 1695.8 4574 1991.7 4574 1985.5 4580.2 1979.9 4593.7 1979.9 4608.3 1985.5 4621.9 1991.7 4628 1795.8 4628 1787.6 4619.8 1774.1 4614.2 1759.4 4614.2 1745.9 4619.8 1735.5 4630.2 1729.9 4643.7 1729.9 4658.3 1735.5 4671.9 1745.9 4682.2 1759.4 4687.8 1774.1 4687.8 1784.1 4683.7 1779.9 4693.7 1779.9 4708.3 1785.5 4721.9 1791.7 4728 1776.3 4728 1757.2 4728 1657.2 4828 1643.8 4841.5 1643.8 5181.4 1638.4 5183.6 1624.4 5197.7 1616.8 5216.1 1616.8 5236 1624.4 5254.3 1638.4 5268.4 1656.8 5276 1676.7 5276 1695.1 5268.4 1709.1 5254.3 1716.8 5236 1716.8 5216.1 1724.4 5197.7 1738.4 5183.6 1756.8 5176 1776.7 5176 1795.1 5183.6 1809.1 5197.7 1816.8 5216.1 1824.4 5197.7 1838.4 5183.6 1856.8 5176 1876.7 5176 1895.1 5183.6 1909.1 5197.7 1916.8 5216.1 1924.4 5197.7 1938.4 5183.6 1943.8 5181.4 1943.8 5166.5 1986.2 5124 1945.8 5124 1937.6 5132.2 1924.1 5137.8 1909.4 5137.8 1895.9 5132.2 1885.5 5121.9 1879.9 5108.3 1879.9 5093.7 1885.5 5080.2 1891.7 5074 1745.8 5074 1737.6 5082.2 1724.1 5087.8 1709.4 5087.8 1695.9 5082.2 1689.8 5076.1 1689.8 5181.4 1695.1 5183.6 1709.1 5197.7 1716.8 5216.1 1716.8 5236 1724.4 5254.3 1738.4 5268.4 1756.8 5276 1776.7 5276 1795.1 5268.4 1809.1 5254.3 1816.8 5236 1816.8 5216.1 1816.8 5236 1824.4 5254.3 1838.4 5268.4 1856.8 5276 1876.7 5276 1895.1 5268.4 1909.1 5254.3 1916.8 5236 1916.8 5216.1 1916.8 5236 1924.4 5254.3 1938.4 5268.4 1956.8 5276 1976.7 5276 1995.1 5268.4 2009.1 5254.3 2016.8 5236 2016.8 5216.1 2024.4 5197.7 2038.4 5183.6 2056.8 5176 2076.7 5176 2095.1 5183.6 2109.1 5197.7 2116.8 5216.1 2124.4 5197.7 2138.4 5183.6 2156.8 5176 2176.7 5176 2195.1 5183.6 2209.1 5197.7 2216.8 5216.1 2224.4 5197.7 2238.4 5183.6 2256.8 5176 2276.7 5176 2295.1 5183.6 2309.1 5197.7 2316.8 5216.1 2316.8 5236 2309.1 5254.3 2295.1 5268.4 2276.7 5276 2256.8 5276 2238.4 5268.4 2224.4 5254.3 2216.8 5236 2216.8 5216.1 2216.8 5236 2209.1 5254.3 2195.1 5268.4 2176.7 5276 2156.8 5276 2138.4 5268.4 2124.4 5254.3 2116.8 5236 2116.8 5216.1 2116.8 5236 2109.1 5254.3 2095.1 5268.4 2076.7 5276 2056.8 5276 2038.4 5268.4 2024.4 5254.3 2016.8 5236 2016.8 5216.1 2009.1 5197.7 1995.1 5183.6 1992.7 5182.6 2026.3 5149 2571.8 5149 2543.9 5160.6 2522.2 5182.3 2510.4 5210.7 2510.4 5241.4 2522.2 5269.7 2543.9 5291.4 2571.8 5303 1461.7 5303 1489.6 5291.4 1511.3 5269.7 1523.1 5241.4 1523.1 5210.7 1511.3 5182.3 1489.6 5160.6 1461.2 5148.8 1430.5 5148.8 1402.2 5160.6 1380.5 5182.3 1368.7 5210.7 1368.7 5241.4 1380.5 5269.7 1402.2 5291.4 1430.1 5303 751.3 5303 510.3 5062.1 491.3 5062.1 422.9 5062.1 421.8 5059.6 409.2 5046.9 406.2 5045.7 409.2 5044.5 421.8 5031.8 428.7 5015.3 428.7 4997.4 421.8 4980.8 409.2 4968.2 406.2 4966.9 409.2 4965.7 421.8 4953.1 428.7 4936.5 428.7 4918.6 421.8 4902.1 409.2 4889.4 406.2 4888.2 409.2 4887 421.8 4874.3 428.7 4857.8 428.7 4839.9 421.8 4823.4 409.2 4810.7 406.2 4809.5 409.2 4808.2 421.8 4795.6 428.7 4779.1 428.7 4761.1 421.8 4744.6 409.2 4732 406.2 4730.7 409.2 4729.5 421.8 4716.9 428.7 4700.3 428.7 4682.4 421.8 4665.9 409.2 4653.2 406.2 4652 409.2 4650.8 421.8 4638.1 428.7 4621.6 428.7 4603.7 421.8 4587.1 409.2 4574.5 404.6 4572.6 406.7 4571.5 412.3 4567.4 417.2 4562.5 421.3 4556.9 424.5 4550.8 426.6 4544.2 427.7 4537.3 427.7 4534.8 384.6 4534.8 384.6 4533 427.7 4533 427.7 4530.4 426.6 4523.6 424.5 4517 421.3 4510.8 417.2 4505.2 412.3 4500.3 406.7 4496.2 400.6 4493.1 394 4491 387.1 4489.9 384.6 4489.9 384.6 4533 382.8 4533 339.7 4533 339.7 4530.4 340.8 4523.6 342.9 4517 346.1 4510.8 350.1 4505.2 355 4500.3 360.6 4496.2 366.8 4493.1 373.4 4491 380.2 4489.9 382.8 4489.9 382.8 4533 382.8 4534.8 339.7 4534.8 339.7 4537.3 340.8 4544.2 342.9 4550.8 346.1 4556.9 350.1 4562.5 355 4567.4 360.6 4571.5 362.7 4572.6 358.2 4574.5 345.5 4587.1 338.7 4603.7 338.7 4621.6 345.5 4638.1 358.2 4650.8 361.1 4652 358.2 4653.2 345.5 4665.9 338.7 4682.4 338.7 4700.3 345.5 4716.9 358.2 4729.5 361.1 4730.7 358.2 4732 345.5 4744.6 338.7 4761.1 338.7 4779.1 345.5 4795.6 358.2 4808.2 361.1 4809.5 358.2 4810.7 345.5 4823.4 338.7 4839.9 338.7 4857.8 345.5 4874.3 358.2 4887 361.1 4888.2 358.2 4889.4 345.5 4902.1 338.7 4918.6 338.7 4936.5 345.5 4953.1 358.2 4965.7 361.1 4966.9 358.2 4968.2 345.5 4980.8 338.7 4997.4 338.7 5015.3 345.5 5031.8 358.2 5044.5 361.1 5045.7 358.2 5046.9 345.5 5059.6 338.7 5076.1 338.7 5094 345.5 5110.6 358.2 5123.2 361.1 5124.4 358.2 5125.7 345.5 5138.3 338.7 5154.9 338.7 5172.8 345.5 5189.3 353.8 5197.5 348.6 5197.5 338.7 5207.5 338.7 5267.4 302.4 5246.5 254.2 5235.5 204.8 5239.2 158.8 5257.2 120.1 5288.1 120.1 5288.1 92.8 5328.2 92.8 4073.8 120.1 4113.9 120.1 4113.9 158.8 4144.8 158.8 4144.8 204.8 4162.8 204.8 4162.8 254.2 4166.5 254.2 4166.5 302.4 4155.5 302.4 4155.5 345.2 4130.8 345.3 4130.8 378.9 4094.5 378.9 4094.5 400.4 4049.9 400.4 4049.9 407.8 4001 400.4 3952.1 400.4 3952.1 378.9 3907.5 378.9 3907.5 345.3 3871.2 345.2 3871.2 M 351 3877.4 3683.5 3877.4 M 3669.3 3889.2 362 3889.2 M 373 3901.1 3661.2 3901.1 M 3653.1 3912.9 381.5 3912.9 M 387.2 3924.8 3645 3924.8 M 3639.8 3936.6 3538.2 3936.6 M 3534.6 3933 3559.8 3958.2 3559.8 3986.5 3564.8 3991.5 3564.8 4010.5 3564.8 4138.2 3584.8 4158.2 3584.8 4193.8 3559.6 4219 3523.9 4219 3498.8 4193.8 3498.8 4158.2 3518.8 4138.2 3518.8 4019 3498.9 4019 3473.8 3993.8 3473.8 3958.2 3498.9 3933 3534.6 3933 M 3550.1 3948.5 3636.2 3948.5 M 3632.5 3960.4 3559.8 3960.4 M 3559.8 3972.2 3628.9 3972.2 M 3627.6 3984.1 3559.8 3984.1 M 3564.8 3995.9 3627.6 3995.9 M 3627.6 4007.8 3564.8 4007.8 M 3564.8 4019.6 3627.6 4019.6 M 3629.4 4031.5 3564.8 4031.5 M 3564.8 4043.3 3633 4043.3 M 3636.7 4055.2 3564.8 4055.2 M 3564.8 4067 3640.4 4067 M 3646.2 4078.9 3564.8 4078.9 M 3564.8 4090.8 3654.3 4090.8 M 3662.4 4102.6 3564.8 4102.6 M 3564.8 4114.5 3670.8 4114.5 M 3670.1 4113.9 3670.1 4113.9 M 3685.6 4126.3 3564.8 4126.3 M 3564.8 4138.2 3620.2 4138.2 M 3624.4 4134 3599.8 4158.6 3599.8 4174 3639.7 4174 3639.7 4178 3599.8 4178 3599.8 4193.4 3624.4 4218 3639.7 4218 3639.7 4178 3643.8 4178 3683.8 4178 3683.8 4193.4 3659.1 4218 3643.8 4218 3643.8 4178 3643.8 4174 3683.8 4174 3683.8 4158.6 3659.1 4134 3643.8 4134 3643.8 4174 3639.7 4174 3639.7 4134 3624.4 4134 M 3639.7 4138.2 3643.8 4138.2 M 3643.8 4150 3639.7 4150 M 3639.7 4161.9 3643.8 4161.9 M 3643.8 4173.7 3639.7 4173.7 M 3639.7 4185.6 3643.8 4185.6 M 3643.8 4197.4 3639.7 4197.4 M 3639.7 4209.3 3643.8 4209.3 M 3667.9 4209.3 3940.8 4209.3 M 3940.8 4221.1 3458.2 4221.1 M 3455.7 4227.1 3442.8 4240 3425.9 4247 3407.6 4247 3390.7 4240 3377.8 4227.1 3370.8 4210.2 3370.8 4191.9 3377.8 4174.9 3390.7 4162 3407.6 4155 3425.9 4155 3442.8 4162 3455.7 4174.9 3462.8 4191.9 3462.8 4210.2 3455.7 4227.1 M 3449.8 4233 3940.8 4233 M 3940.8 4244.9 3431.1 4244.9 M 3430 4256.7 3940.8 4256.7 M 3940.8 4268.6 3449.4 4268.6 M 3458 4280.4 3745.2 4280.4 M 3747.1 4278.5 3764.7 4278.5 3764.7 4324 3719.3 4324 3719.3 4306.3 3747.1 4278.5 M 3764.7 4280.4 3768.8 4280.4 M 3768.8 4278.5 3786.4 4278.5 3814.3 4306.3 3814.3 4324 3768.8 4324 3768.8 4328 3814.3 4328 3814.3 4345.7 3786.4 4373.5 3768.8 4373.5 3768.8 4328 3764.7 4328 3764.7 4324 3768.8 4324 3768.8 4278.5 M 3768.8 4292.3 3764.7 4292.3 M 3764.7 4304.1 3768.8 4304.1 M 3768.8 4316 3764.7 4316 M 3764.7 4327.8 3455 4327.8 M 3460.3 4316 3719.3 4316 M 3719.3 4328 3764.7 4328 3764.7 4373.5 3747.1 4373.5 3719.3 4345.7 3719.3 4328 M 3719.3 4339.7 3443.1 4339.7 M 3444.2 4363.4 3737 4363.4 M 3725.1 4351.5 3198.7 4351.5 M 3210.6 4339.7 3390.4 4339.7 M 3378.5 4327.8 3222.4 4327.8 M 3216.8 4301 3416.8 4301 M 3384.1 4268.6 2984.6 4268.6 M 2998.1 4280.4 3204.8 4280.4 M 3193 4292.3 3003 4292.3 M 3003.6 4304.1 3181.1 4304.1 M 3169.3 4316 3000.4 4316 M 2992 4327.8 3157.4 4327.8 M 3166.8 4351 3216.8 4301 M 3225.9 4247 3207.6 4247 3190.7 4240 3177.8 4227.1 3170.8 4210.2 3170.8 4191.9 3177.8 4174.9 3190.7 4162 3207.6 4155 3225.9 4155 3242.8 4162 3255.7 4174.9 3262.8 4191.9 3262.8 4210.2 3255.7 4227.1 3242.8 4240 3225.9 4247 M 3231.1 4244.9 3302.4 4244.9 M 3307.6 4247 3290.7 4240 3277.8 4227.1 3270.8 4210.2 3270.8 4191.9 3277.8 4174.9 3290.7 4162 3307.6 4155 3325.9 4155 3342.8 4162 3355.7 4174.9 3362.8 4191.9 3362.8 4210.2 3355.7 4227.1 3342.8 4240 3325.9 4247 3307.6 4247 M 3331.1 4244.9 3402.4 4244.9 M 3403.5 4256.7 2905 4256.7 M 2907.6 4247 2890.7 4240 2877.8 4227.1 2870.8 4210.2 2870.8 4191.9 2877.8 4174.9 2890.7 4162 2907.6 4155 2925.9 4155 2942.8 4162 2955.7 4174.9 2962.8 4191.9 2962.8 4210.2 2955.7 4227.1 2942.8 4240 2925.9 4247 2907.6 4247 M 2902.4 4244.9 2893.1 4244.9 M 2883.7 4233 2881.3 4233 M 2875.3 4221.1 2869.4 4221.1 M 2870.8 4209.3 2862.8 4209.3 M 2862.8 4197.4 2870.8 4197.4 M 2873.4 4185.6 2860.2 4185.6 M 2854.5 4173.7 2879 4173.7 M 2891 4161.9 2842.5 4161.9 M 2816.8 4201 2916.8 4301 2966.8 4301 M 2941.5 4327.8 2855 4327.8 M 2860.3 4316 2899.2 4316 M 2887.4 4304.1 2862.8 4304.1 M 2862.8 4292.3 2875.5 4292.3 M 2863.6 4280.4 2858 4280.4 M 2851.8 4268.6 2849.4 4268.6 M 2839.9 4256.7 2830 4256.7 M 2803.5 4256.7 2462.5 4256.7 M 2462.8 4257 2462.8 4272 2420.8 4272 2420.8 4280 2462.8 4280 2462.8 4295.1 2435.8 4322 2420.8 4322 2420.8 4280 2412.7 4280 2412.7 4272 2370.8 4272 2370.8 4257 2397.7 4230 2412.7 4230 2412.7 4272 2420.8 4272 2420.8 4230 2435.8 4230 2462.8 4257 M 2462.8 4268.6 2784.1 4268.6 M 2775.5 4280.4 2462.8 4280.4 M 2462.8 4292.3 2770.8 4292.3 M 2770.8 4304.1 2453.7 4304.1 M 2441.8 4316 2773.2 4316 M 2778.5 4327.8 2245.6 4327.8 M 2243.2 4316 2290.3 4316 M 2297.3 4323 2269.8 4295.5 2269.8 4256.5 2297.3 4229 2336.2 4229 2363.8 4256.5 2363.8 4295.5 2336.2 4323 2297.3 4323 M 2278.4 4304.1 2255.1 4304.1 M 2263.8 4292.3 2269.8 4292.3 M 2269.8 4280.4 2263.8 4280.4 M 2263.8 4268.6 2269.8 4268.6 M 2269.8 4256.7 2263.8 4256.7 M 2252.1 4244.9 2281.4 4244.9 M 2293.3 4233 2240.2 4233 M 2236.2 4223 2197.3 4223 2169.8 4195.5 2169.8 4156.5 2197.3 4129 2236.2 4129 2263.8 4156.5 2263.8 4195.5 2236.2 4223 M 2238.1 4221.1 2295.4 4221.1 M 2297.3 4223 2269.8 4195.5 2269.8 4156.5 2297.3 4129 2336.2 4129 2363.8 4156.5 2363.8 4195.5 2336.2 4223 2297.3 4223 M 2283.6 4209.3 2249.9 4209.3 M 2261.8 4197.4 2271.7 4197.4 M 2269.8 4185.6 2263.8 4185.6 M 2263.8 4173.7 2269.8 4173.7 M 2269.8 4161.9 2263.8 4161.9 M 2257.2 4150 2276.3 4150 M 2288.1 4138.2 2245.4 4138.2 M 2188.1 4138.2 2145.4 4138.2 M 2136.2 4129 2163.8 4156.5 2163.8 4195.5 2136.2 4223 2097.3 4223 2069.8 4195.5 2069.8 4156.5 2097.3 4129 2136.2 4129 M 2157.2 4150 2176.3 4150 M 2169.8 4161.9 2163.8 4161.9 M 2163.8 4173.7 2169.8 4173.7 M 2169.8 4185.6 2163.8 4185.6 M 2161.8 4197.4 2171.7 4197.4 M 2183.6 4209.3 2149.9 4209.3 M 2138.1 4221.1 2195.4 4221.1 M 2193.3 4233 2140.2 4233 M 2136.2 4229 2163.8 4256.5 2163.8 4295.5 2136.2 4323 2097.3 4323 2069.8 4295.5 2069.8 4256.5 2097.3 4229 2136.2 4229 M 2152.1 4244.9 2181.4 4244.9 M 2169.8 4256.7 2163.8 4256.7 M 2163.8 4268.6 2169.8 4268.6 M 2169.8 4280.4 2163.8 4280.4 M 2163.8 4292.3 2169.8 4292.3 M 2178.4 4304.1 2155.1 4304.1 M 2143.2 4316 2190.3 4316 M 2187.9 4327.8 92.8 4327.8 M 92.8 4316 1590.3 4316 M 1597.3 4323 1569.8 4295.5 1569.8 4256.5 1597.3 4229 1636.2 4229 1663.8 4256.5 1663.8 4295.5 1636.2 4323 1597.3 4323 M 1578.4 4304.1 92.8 4304.1 M 92.8 4292.3 1569.8 4292.3 M 1569.8 4280.4 92.8 4280.4 M 92.8 4268.6 1569.8 4268.6 M 1569.8 4256.7 92.8 4256.7 M 92.8 4244.9 1581.4 4244.9 M 1593.3 4233 92.8 4233 M 92.8 4221.1 1595.4 4221.1 M 1597.3 4223 1569.8 4195.5 1569.8 4156.5 1597.3 4129 1636.2 4129 1663.8 4156.5 1663.8 4195.5 1636.2 4223 1597.3 4223 M 1583.6 4209.3 92.8 4209.3 M 92.8 4197.4 1571.7 4197.4 M 1569.8 4185.6 92.8 4185.6 M 92.8 4173.7 1569.8 4173.7 M 1569.8 4161.9 274.6 4161.9 M 311.9 4150 1576.3 4150 M 1588.1 4138.2 1469.9 4138.2 M 1461.2 4141.8 1430.5 4141.8 1402.2 4130 1380.5 4108.3 1368.7 4079.9 1368.7 4049.2 1380.5 4020.9 1402.2 3999.2 1430.5 3987.4 1461.2 3987.4 1489.6 3999.2 1511.3 4020.9 1523.1 4049.2 1523.1 4079.9 1511.3 4108.3 1489.6 4130 1461.2 4141.8 M 1493.3 4126.3 2540.2 4126.3 M 2543.9 4130 2522.2 4108.3 2510.4 4079.9 2510.4 4049.2 2522.2 4020.9 2543.9 3999.2 2572.3 3987.4 2603 3987.4 2631.3 3999.2 2653.1 4020.9 2664.8 4049.2 2664.8 4079.9 2653.1 4108.3 2631.3 4130 2603 4141.8 2572.3 4141.8 2543.9 4130 M 2563.6 4138.2 2445.4 4138.2 M 2436.2 4129 2463.8 4156.5 2463.8 4195.5 2436.2 4223 2397.3 4223 2369.8 4195.5 2369.8 4156.5 2397.3 4129 2436.2 4129 M 2457.2 4150 3506.9 4150 M 3498.8 4161.9 3442.5 4161.9 M 3454.5 4173.7 3498.8 4173.7 M 3498.8 4185.6 3460.2 4185.6 M 3462.8 4197.4 3502.4 4197.4 M 3514.2 4209.3 3462.8 4209.3 M 3462.8 4292.3 3733.3 4292.3 M 3721.5 4304.1 3462.8 4304.1 M 3455.9 4375.3 3841.8 4375.3 M 3841.8 4387.1 3460.8 4387.1 M 3462.8 4399 3841.8 4399 M 3841.8 4410.8 3462.5 4410.8 M 3457.6 4422.7 3841.8 4422.7 M 3841.8 4434.5 3448.3 4434.5 M 3427.4 4446.4 3841.8 4446.4 M 3841.8 4458.2 3433.7 4458.2 M 3450.9 4470.1 3841.8 4470.1 M 3838 4481.9 3458.6 4481.9 M 3462.8 4493.8 3826.1 4493.8 M 3814.3 4505.7 3462.8 4505.7 M 3459.7 4517.5 3805.7 4517.5 M 3804.3 4529.4 3453.4 4529.4 M 3439.9 4541.2 3515.7 4541.2 M 3523.9 4533 3559.6 4533 3584.8 4558.2 3584.8 4593.8 3559.6 4619 3523.9 4619 3498.8 4593.8 3498.8 4558.2 3523.9 4533 M 3503.9 4553.1 3197.2 4553.1 M 3185.4 4564.9 3387.8 4564.9 M 3377 4576.8 2856.5 4576.8 M 2861.4 4588.6 3196.6 4588.6 M 3184.7 4600.5 2862.8 4600.5 M 2861.9 4612.3 3172.9 4612.3 M 3161 4624.2 2856.9 4624.2 M 2816.8 4601 2016.8 4601 M 1979.9 4600.5 1293.5 4600.5 M 1294.8 4603.7 1294.8 4621.6 1288 4638.1 1275.3 4650.8 1272.4 4652 1275.3 4653.2 1288 4665.9 1294.8 4682.4 1294.8 4700.3 1288 4716.9 1275.3 4729.5 1272.4 4730.7 1275.3 4732 1288 4744.6 1294.8 4761.1 1294.8 4779.1 1288 4795.6 1275.3 4808.2 1272.4 4809.5 1275.3 4810.7 1288 4823.4 1294.8 4839.9 1294.8 4857.8 1288 4874.3 1275.3 4887 1272.4 4888.2 1275.3 4889.4 1288 4902.1 1294.8 4918.6 1294.8 4936.5 1288 4953.1 1275.3 4965.7 1272.4 4966.9 1275.3 4968.2 1288 4980.8 1294.8 4997.4 1294.8 5015.3 1288 5031.8 1275.3 5044.5 1272.4 5045.7 1275.3 5046.9 1288 5059.6 1294.8 5076.1 1294.8 5094 1288 5110.6 1275.3 5123.2 1272.4 5124.4 1275.3 5125.7 1288 5138.3 1294.8 5154.9 1294.8 5172.8 1288 5189.3 1275.3 5201.9 1272.4 5203.2 1275.3 5204.4 1288 5217.1 1294.8 5233.6 1294.8 5251.5 1288 5268 1275.3 5280.7 1258.8 5287.5 1240.9 5287.5 1224.3 5280.7 1211.7 5268 1204.8 5251.5 1204.8 5233.6 1211.7 5217.1 1224.3 5204.4 1227.3 5203.2 1224.3 5201.9 1211.7 5189.3 1204.8 5172.8 1204.8 5154.9 1211.7 5138.3 1224.3 5125.7 1227.3 5124.4 1224.3 5123.2 1211.7 5110.6 1204.8 5094 1204.8 5076.1 1211.7 5059.6 1224.3 5046.9 1227.3 5045.7 1224.3 5044.5 1211.7 5031.8 1204.8 5015.3 1204.8 4997.4 1211.7 4980.8 1224.3 4968.2 1227.3 4966.9 1224.3 4965.7 1211.7 4953.1 1204.8 4936.5 1204.8 4918.6 1211.7 4902.1 1224.3 4889.4 1227.3 4888.2 1224.3 4887 1211.7 4874.3 1204.8 4857.8 1204.8 4839.9 1211.7 4823.4 1224.3 4810.7 1227.3 4809.5 1224.3 4808.2 1211.7 4795.6 1204.8 4779.1 1204.8 4761.1 1211.7 4744.6 1224.3 4732 1227.3 4730.7 1224.3 4729.5 1211.7 4716.9 1204.8 4700.3 1204.8 4682.4 1211.7 4665.9 1224.3 4653.2 1227.3 4652 1224.3 4650.8 1211.7 4638.1 1204.8 4621.6 1204.8 4603.7 1211.7 4587.1 1224.3 4574.5 1227.3 4573.2 1224.3 4572 1211.7 4559.4 1204.8 4542.8 1204.8 4524.9 1211.7 4508.4 1224.3 4495.7 1240.9 4488.9 1258.8 4488.9 1275.3 4495.7 1288 4508.4 1294.8 4524.9 1294.8 4542.8 1288 4559.4 1275.3 4572 1272.4 4573.2 1275.3 4574.5 1288 4587.1 1294.8 4603.7 M 1294.8 4612.3 1981.6 4612.3 M 1987.9 4624.2 1792 4624.2 M 1766.8 4651 3166.8 4651 3216.8 4601 3416.8 4601 M 3462.8 4600.5 3505.4 4600.5 M 3498.8 4588.6 3461.4 4588.6 M 3456.5 4576.8 3498.8 4576.8 M 3498.8 4564.9 3445.7 4564.9 M 3461.9 4612.3 3517.3 4612.3 M 3523.9 4633 3559.6 4633 3584.8 4658.2 3584.8 4693.8 3559.6 4719 3523.9 4719 3498.8 4693.8 3498.8 4658.2 3523.9 4633 M 3520.9 4636.1 3446.8 4636.1 M 3456.9 4624.2 3804.3 4624.2 M 3804.3 4636.1 3562.6 4636.1 M 3574.5 4647.9 3804.3 4647.9 M 3804.3 4659.8 3584.8 4659.8 M 3584.8 4671.6 3804.3 4671.6 M 3804.3 4683.5 3584.8 4683.5 M 3583.2 4695.3 3804.3 4695.3 M 3804.3 4707.2 3571.4 4707.2 M 3512.1 4707.2 3462.8 4707.2 M 3462.8 4695.3 3500.3 4695.3 M 3498.8 4683.5 3459.3 4683.5 M 3452.4 4671.6 3498.8 4671.6 M 3498.8 4659.8 3437.4 4659.8 M 3396.1 4659.8 3190.5 4659.8 M 3178.7 4671.6 3381.1 4671.6 M 3386.7 4636.1 3214.2 4636.1 M 3202.4 4647.9 3509 4647.9 M 3459.1 4719 3804.3 4719 M 3804.3 4730.9 3451.9 4730.9 M 3436.2 4742.7 3804.3 4742.7 M 3804.3 4754.6 3195.7 4754.6 M 3207.5 4742.7 3397.3 4742.7 M 3381.6 4730.9 3219.4 4730.9 M 3216.8 4701 3166.8 4751 1766.8 4751 1666.8 4851 1666.8 5226 M 1712.2 5205.1 1721.3 5205.1 M 1716.8 5216.9 1716.8 5216.9 M 1716.8 5228.8 1716.8 5228.8 M 1714.8 5240.6 1718.7 5240.6 M 1723.6 5252.5 1709.9 5252.5 M 1699.1 5264.3 1734.4 5264.3 M 1799.1 5264.3 1834.4 5264.3 M 1823.6 5252.5 1809.9 5252.5 M 1814.8 5240.6 1818.7 5240.6 M 1816.8 5228.8 1816.8 5228.8 M 1816.8 5216.9 1816.8 5216.9 M 1812.2 5205.1 1821.3 5205.1 M 1828.8 5193.2 1804.7 5193.2 M 1789.6 5181.4 1843.9 5181.4 M 1889.6 5181.4 1943.8 5181.4 M 1943.8 5169.5 1689.8 5169.5 M 1689.8 5181.4 1743.9 5181.4 M 1728.8 5193.2 1704.7 5193.2 M 1689.8 5157.6 1952.6 5157.6 M 1964.4 5145.8 1689.8 5145.8 M 1689.8 5133.9 1900.1 5133.9 M 1885.8 5122.1 1689.8 5122.1 M 1689.8 5110.2 1880.7 5110.2 M 1879.9 5098.4 1689.8 5098.4 M 1689.8 5086.5 1706.3 5086.5 M 1727.2 5086.5 1882.9 5086.5 M 1891 5074.7 1745.2 5074.7 M 1716.8 5051 2666.8 5051 2766.8 5151 3166.8 5151 3216.8 5101 3316.8 5101 M 3362.8 5098.4 3370.8 5098.4 M 3369.7 5086.5 3360.5 5086.5 M 3357.9 5074.7 3355.5 5074.7 M 3366.8 5051 3216.8 5051 3166.8 5101 2916.8 5101 M 2855.6 5027.2 3158 5027.2 M 3169.8 5015.4 2860.6 5015.4 M 2862.8 5003.5 3181.7 5003.5 M 3193.6 4991.7 2862.7 4991.7 M 2857.8 4979.8 3205.4 4979.8 M 3217.3 4968 3182.3 4968 M 3194.2 4956.1 3229.1 4956.1 M 3241 4944.3 3206 4944.3 M 3217.9 4932.4 3252.8 4932.4 M 3266.8 4951 3366.8 4951 3416.8 5001 M 3448.8 4968 3804.3 4968 M 3804.3 4979.8 3457.8 4979.8 M 3462.7 4991.7 3804.3 4991.7 M 3804.3 5003.5 3462.8 5003.5 M 3460.6 5015.4 3804.3 5015.4 M 3804.3 5027.2 3455.6 5027.2 M 3443.7 5039.1 3517.9 5039.1 M 3523.9 5033 3559.6 5033 3584.8 5058.2 3584.8 5093.8 3559.6 5119 3523.9 5119 3498.8 5093.8 3498.8 5058.2 3523.9 5033 M 3506 5051 3399.2 5051 M 3389.8 5039.1 3387.4 5039.1 M 3377.9 5027.2 3355.6 5027.2 M 3360.6 5015.4 3372.9 5015.4 M 3370.8 5003.5 3362.8 5003.5 M 3362.7 4991.7 3370.8 4991.7 M 3363.1 4979.8 3357.8 4979.8 M 3392.5 4944.3 3401 4944.3 M 3404.4 4956.1 3404.9 4956.1 M 3428.6 4956.1 3804.3 4956.1 M 3804.3 4944.3 3432.5 4944.3 M 3450.4 4932.4 3804.3 4932.4 M 3804.3 4920.6 3458.4 4920.6 M 3462.8 4908.7 3804.3 4908.7 M 3804.3 4896.8 3462.8 4896.8 M 3459.9 4885 3804.3 4885 M 3804.3 4873.1 3779.7 4873.1 M 3800.1 4861.3 3804.3 4861.3 M 3753.8 4873.1 3686.8 4873.1 M 3686.4 4873.5 3668.8 4873.5 3668.8 4828 3714.3 4828 3714.3 4845.7 3686.4 4873.5 M 3698.6 4861.3 3733.4 4861.3 M 3724 4849.4 3710.5 4849.4 M 3714.3 4837.6 3719.1 4837.6 M 3718.3 4825.7 3668.8 4825.7 M 3668.8 4824 3668.8 4828 3664.7 4828 3664.7 4824 3619.3 4824 3619.3 4806.3 3647.1 4778.5 3664.7 4778.5 3664.7 4824 3668.8 4824 3714.3 4824 3714.3 4806.3 3686.4 4778.5 3668.8 4778.5 3668.8 4824 M 3664.7 4825.7 3456.3 4825.7 M 3461.2 4813.9 3619.3 4813.9 M 3623.6 4802 3462.8 4802 M 3462 4790.2 3635.4 4790.2 M 3664.7 4790.2 3668.8 4790.2 M 3668.8 4802 3664.7 4802 M 3664.7 4813.9 3668.8 4813.9 M 3664.7 4828 3619.3 4828 3619.3 4845.7 3647.1 4873.5 3664.7 4873.5 3664.7 4828 M 3664.7 4837.6 3668.8 4837.6 M 3668.8 4849.4 3664.7 4849.4 M 3664.7 4861.3 3668.8 4861.3 M 3668.8 4873.1 3664.7 4873.1 M 3646.7 4873.1 3453.9 4873.1 M 3441.1 4861.3 3634.9 4861.3 M 3623 4849.4 3200.9 4849.4 M 3212.7 4837.6 3388.3 4837.6 M 3377.2 4825.7 3224.6 4825.7 M 3216.8 4801 3166.8 4851 1766.8 4851 M 1695.1 4790.2 1290.2 4790.2 M 1294.8 4778.3 1706.9 4778.3 M 1718.8 4766.4 1294.8 4766.4 M 1292.1 4754.6 1730.6 4754.6 M 1742.5 4742.7 1286.1 4742.7 M 1272.7 4730.9 1754.4 4730.9 M 1784.4 4719 1285.8 4719 M 1292 4707.2 1779.9 4707.2 M 1779.9 4695.3 1294.8 4695.3 M 1294.8 4683.5 1748.9 4683.5 M 1735.4 4671.6 1290.4 4671.6 M 1281.9 4659.8 1730.5 4659.8 M 1729.9 4647.9 1278.2 4647.9 M 1288.8 4636.1 1733.1 4636.1 M 1741.5 4624.2 1293.7 4624.2 M 1288.6 4588.6 1982 4588.6 M 1988.9 4576.8 1693 4576.8 M 1666.8 4551 3166.8 4551 3216.8 4501 3416.8 4501 M 3399.8 4458.2 3192 4458.2 M 3180.2 4470.1 3382.6 4470.1 M 3406.1 4446.4 3203.9 4446.4 M 3215.8 4434.5 3385.2 4434.5 M 3416.8 4401 3216.8 4401 3166.8 4451 1616.8 4451 M 1640.5 4422.7 2775.9 4422.7 M 2771 4410.8 1292.7 4410.8 M 1284.6 4419 1309.8 4393.8 1309.8 4358.2 1284.6 4333 1248.9 4333 1223.8 4358.2 1223.8 4393.8 1248.9 4419 1284.6 4419 M 1304.6 4399 2770.8 4399 M 2772.7 4387.1 2225.8 4387.1 M 2207.7 4387.1 1309.8 4387.1 M 1309.8 4375.3 2188.9 4375.3 M 2182 4363.4 1309.8 4363.4 M 1303.1 4351.5 2179.9 4351.5 M 2181.6 4339.7 1291.2 4339.7 M 1242.3 4339.7 891.2 4339.7 M 884.6 4333 909.8 4358.2 909.8 4393.8 884.6 4419 848.9 4419 823.8 4393.8 823.8 4358.2 848.9 4333 884.6 4333 M 903.1 4351.5 1230.4 4351.5 M 1223.8 4363.4 909.8 4363.4 M 909.8 4375.3 1223.8 4375.3 M 1223.8 4387.1 909.8 4387.1 M 904.6 4399 1228.9 4399 M 1240.8 4410.8 892.7 4410.8 M 840.8 4410.8 792.7 4410.8 M 784.6 4419 748.9 4419 723.8 4393.8 723.8 4358.2 748.9 4333 784.6 4333 809.8 4358.2 809.8 4393.8 784.6 4419 M 804.6 4399 828.9 4399 M 823.8 4387.1 809.8 4387.1 M 809.8 4375.3 823.8 4375.3 M 823.8 4363.4 809.8 4363.4 M 803.1 4351.5 830.4 4351.5 M 842.3 4339.7 791.2 4339.7 M 742.3 4339.7 391.2 4339.7 M 384.6 4333 409.8 4358.2 409.8 4393.8 384.6 4419 348.9 4419 323.8 4393.8 323.8 4358.2 348.9 4333 384.6 4333 M 403.1 4351.5 730.4 4351.5 M 723.8 4363.4 409.8 4363.4 M 409.8 4375.3 723.8 4375.3 M 723.8 4387.1 409.8 4387.1 M 404.6 4399 728.9 4399 M 740.8 4410.8 392.7 4410.8 M 340.8 4410.8 92.8 4410.8 M 92.8 4399 328.9 4399 M 323.8 4387.1 92.8 4387.1 M 92.8 4375.3 323.8 4375.3 M 323.8 4363.4 92.8 4363.4 M 92.8 4351.5 330.4 4351.5 M 342.3 4339.7 92.8 4339.7 M 92.8 4422.7 1593 4422.7 M 1583.7 4434.5 92.8 4434.5 M 92.8 4446.4 1579.9 4446.4 M 1579.9 4458.2 92.8 4458.2 M 92.8 4470.1 1584.8 4470.1 M 1595.6 4481.9 92.8 4481.9 M 92.8 4493.8 365.4 4493.8 M 382.8 4493.8 384.6 4493.8 M 384.6 4505.7 382.8 4505.7 M 382.8 4517.5 384.6 4517.5 M 384.6 4529.4 382.8 4529.4 M 401.9 4493.8 1229 4493.8 M 1214.4 4505.7 417.6 4505.7 M 424.6 4517.5 1207.9 4517.5 M 1204.8 4529.4 427.5 4529.4 M 427.1 4541.2 1204.8 4541.2 M 1209.1 4553.1 423.3 4553.1 M 414.9 4564.9 1217.2 4564.9 M 1222 4576.8 411.5 4576.8 M 422.5 4588.6 1211.1 4588.6 M 1206.1 4600.5 427.4 4600.5 M 428.7 4612.3 1204.8 4612.3 M 1205.9 4624.2 427.6 4624.2 M 422.7 4636.1 1210.8 4636.1 M 1221.5 4647.9 412 4647.9 M 415.7 4659.8 1217.8 4659.8 M 1209.3 4671.6 424.2 4671.6 M 428.7 4683.5 1204.8 4683.5 M 1204.8 4695.3 428.7 4695.3 M 425.8 4707.2 1207.7 4707.2 M 1213.9 4719 419.6 4719 M 406.6 4730.9 1226.9 4730.9 M 1213.5 4742.7 420 4742.7 M 426 4754.6 1207.5 4754.6 M 1204.8 4766.4 428.7 4766.4 M 428.7 4778.3 1204.8 4778.3 M 1209.4 4790.2 424.1 4790.2 M 415.4 4802 1218.1 4802 M 1221.2 4813.9 412.3 4813.9 M 422.8 4825.7 1210.7 4825.7 M 1205.8 4837.6 427.7 4837.6 M 428.7 4849.4 1204.8 4849.4 M 1206.3 4861.3 427.2 4861.3 M 422.3 4873.1 1211.2 4873.1 M 1222.3 4885 411.2 4885 M 416.6 4896.8 1216.9 4896.8 M 1208.9 4908.7 424.6 4908.7 M 428.7 4920.6 1204.8 4920.6 M 1204.8 4932.4 428.7 4932.4 M 425.5 4944.3 1208 4944.3 M 1214.7 4956.1 418.8 4956.1 M 408.7 4968 1224.8 4968 M 1212.7 4979.8 420.8 4979.8 M 426.3 4991.7 1207.2 4991.7 M 1204.8 5003.5 428.7 5003.5 M 428.6 5015.4 1204.9 5015.4 M 1209.8 5027.2 423.7 5027.2 M 414.5 5039.1 1219 5039.1 M 1220.3 5051 413.2 5051 M 383.7 5085.1 500.8 5085.1 741.8 5326 2716.8 5326 2741.8 5301 2816.8 5301 M 2862.8 5299.9 3370.8 5299.9 M 3371.4 5311.7 2862.1 5311.7 M 2857.2 5323.6 3376.3 5323.6 M 3347 5335.5 2847.4 5335.5 M 2835.9 5359.2 3297.6 5359.2 M 3281.7 5371 2851.8 5371 M 2859 5382.9 3274.5 5382.9 M 3270.8 5394.7 2862.8 5394.7 M 2862.8 5406.6 3270.8 5406.6 M 3274.2 5418.4 2859.3 5418.4 M 2816.8 5401 2766.8 5401 2716.8 5351 716.8 5351 529.6 5163.8 383.7 5163.8 M 342.2 5181.4 92.8 5181.4 M 92.8 5193.2 349.5 5193.2 M 341.1 5205.1 92.8 5205.1 M 92.8 5216.9 338.7 5216.9 M 338.7 5228.8 92.8 5228.8 M 92.8 5240.6 201.1 5240.6 M 170.9 5252.5 92.8 5252.5 M 92.8 5264.3 149.9 5264.3 M 135 5276.2 92.8 5276.2 M 92.8 5288 120.1 5288 M 112 5299.9 92.8 5299.9 M 92.8 5311.7 103.9 5311.7 M 95.9 5323.6 92.8 5323.6 M 92.8 5169.5 338.7 5169.5 M 338.7 5157.6 92.8 5157.6 M 92.8 5145.8 342.4 5145.8 M 349.9 5133.9 92.8 5133.9 M 92.8 5122.1 357.1 5122.1 M 345.4 5110.2 92.8 5110.2 M 92.8 5098.4 340.5 5098.4 M 338.7 5086.5 92.8 5086.5 M 92.8 5074.7 339.3 5074.7 M 344.2 5062.8 92.8 5062.8 M 92.8 5051 354.2 5051 M 352.8 5039.1 92.8 5039.1 M 92.8 5027.2 343.6 5027.2 M 338.7 5015.4 92.8 5015.4 M 92.8 5003.5 338.7 5003.5 M 341 4991.7 92.8 4991.7 M 92.8 4979.8 346.5 4979.8 M 358.7 4968 92.8 4968 M 92.8 4956.1 348.6 4956.1 M 341.9 4944.3 92.8 4944.3 M 92.8 4932.4 338.7 4932.4 M 338.7 4920.6 92.8 4920.6 M 92.8 4908.7 342.8 4908.7 M 350.8 4896.8 92.8 4896.8 M 92.8 4885 356.2 4885 M 345 4873.1 92.8 4873.1 M 92.8 4861.3 340.1 4861.3 M 338.7 4849.4 92.8 4849.4 M 92.8 4837.6 339.6 4837.6 M 344.6 4825.7 92.8 4825.7 M 92.8 4813.9 355 4813.9 M 352 4802 92.8 4802 M 92.8 4790.2 343.3 4790.2 M 338.7 4778.3 92.8 4778.3 M 92.8 4766.4 338.7 4766.4 M 341.4 4754.6 92.8 4754.6 M 92.8 4742.7 347.4 4742.7 M 360.8 4730.9 92.8 4730.9 M 92.8 4719 347.7 4719 M 341.5 4707.2 92.8 4707.2 M 92.8 4695.3 338.7 4695.3 M 338.7 4683.5 92.8 4683.5 M 92.8 4671.6 343.2 4671.6 M 351.6 4659.8 92.8 4659.8 M 92.8 4647.9 355.3 4647.9 M 344.7 4636.1 92.8 4636.1 M 92.8 4624.2 339.8 4624.2 M 338.7 4612.3 92.8 4612.3 M 92.8 4600.5 340 4600.5 M 344.9 4588.6 92.8 4588.6 M 92.8 4576.8 355.9 4576.8 M 352.5 4564.9 92.8 4564.9 M 92.8 4553.1 344.1 4553.1 M 340.3 4541.2 92.8 4541.2 M 92.8 4529.4 339.9 4529.4 M 342.7 4517.5 92.8 4517.5 M 92.8 4505.7 349.8 4505.7 M 202.4 4161.9 92.8 4161.9 M 92.8 4150 172.2 4150 M 150.5 4138.2 92.8 4138.2 M 92.8 4126.3 135.6 4126.3 M 120.8 4114.5 92.8 4114.5 M 92.8 4102.6 112.4 4102.6 M 104.3 4090.8 92.8 4090.8 M 92.8 4078.9 96.2 4078.9 M 314.8 3853.7 3717.9 3853.7 M 3698.4 3865.5 335.4 3865.5 M 392.9 3936.6 495.3 3936.6 M 498.9 3933 534.6 3933 559.8 3958.2 559.8 3993.8 534.6 4019 498.9 4019 473.8 3993.8 473.8 3958.2 498.9 3933 M 483.5 3948.5 398.7 3948.5 M 401.6 3960.4 473.8 3960.4 M 473.8 3972.2 403.4 3972.2 M 405.2 3984.1 473.8 3984.1 M 475.9 3995.9 407 3995.9 M 406.7 4007.8 487.7 4007.8 M 545.8 4007.8 589.1 4007.8 M 599.4 4018 574.8 3993.4 574.8 3978 614.7 3978 614.7 3974 574.8 3974 574.8 3958.6 599.4 3934 614.7 3934 614.7 3974 618.8 3974 618.8 3978 658.8 3978 658.8 3993.4 634.1 4018 618.8 4018 618.8 3978 614.7 3978 614.7 4018 599.4 4018 M 614.7 4007.8 618.8 4007.8 M 618.8 3995.9 614.7 3995.9 M 614.7 3984.1 618.8 3984.1 M 618.8 3974 658.8 3974 658.8 3958.6 634.1 3934 618.8 3934 618.8 3974 M 618.8 3972.2 614.7 3972.2 M 614.7 3960.4 618.8 3960.4 M 618.8 3948.5 614.7 3948.5 M 614.7 3936.6 618.8 3936.6 M 636.8 3936.6 995.3 3936.6 M 998.9 3933 1034.6 3933 1059.8 3958.2 1059.8 3993.8 1034.6 4019 998.9 4019 973.8 3993.8 973.8 3958.2 998.9 3933 M 983.5 3948.5 648.6 3948.5 M 658.8 3960.4 973.8 3960.4 M 973.8 3972.2 658.8 3972.2 M 658.8 3984.1 973.8 3984.1 M 975.9 3995.9 656.2 3995.9 M 644.4 4007.8 987.7 4007.8 M 1045.8 4007.8 1089.1 4007.8 M 1099.4 4018 1074.8 3993.4 1074.8 3978 1114.7 3978 1114.7 3974 1074.8 3974 1074.8 3958.6 1099.4 3934 1114.7 3934 1114.7 3974 1118.8 3974 1118.8 3978 1158.8 3978 1158.8 3993.4 1134.1 4018 1118.8 4018 1118.8 3978 1114.7 3978 1114.7 4018 1099.4 4018 M 1114.7 4007.8 1118.8 4007.8 M 1118.8 3995.9 1114.7 3995.9 M 1114.7 3984.1 1118.8 3984.1 M 1118.8 3974 1158.8 3974 1158.8 3958.6 1134.1 3934 1118.8 3934 1118.8 3974 M 1118.8 3972.2 1114.7 3972.2 M 1114.7 3960.4 1118.8 3960.4 M 1118.8 3948.5 1114.7 3948.5 M 1114.7 3936.6 1118.8 3936.6 M 1136.8 3936.6 2895.3 3936.6 M 2898.9 3933 2934.6 3933 2959.8 3958.2 2959.8 3993.8 2934.6 4019 2898.9 4019 2873.8 3993.8 2873.8 3958.2 2898.9 3933 M 2883.5 3948.5 1148.6 3948.5 M 1158.8 3960.4 2873.8 3960.4 M 2873.8 3972.2 1158.8 3972.2 M 1158.8 3984.1 2873.8 3984.1 M 2875.9 3995.9 2623.5 3995.9 M 2640 4007.8 2887.7 4007.8 M 2938.2 3936.6 2996.7 3936.6 M 2999.4 3934 3014.7 3934 3014.7 3974 2974.8 3974 2974.8 3958.6 2999.4 3934 M 3014.7 3936.6 3018.8 3936.6 M 3018.8 3934 3034.1 3934 3058.8 3958.6 3058.8 3974 3018.8 3974 3018.8 3978 3058.8 3978 3058.8 3993.4 3034.1 4018 3018.8 4018 3018.8 3978 3014.7 3978 3014.7 3974 3018.8 3974 3018.8 3934 M 3018.8 3948.5 3014.7 3948.5 M 3014.7 3960.4 3018.8 3960.4 M 3018.8 3972.2 3014.7 3972.2 M 3014.7 3978 2974.8 3978 2974.8 3993.4 2999.4 4018 3014.7 4018 3014.7 3978 M 3014.7 3984.1 3018.8 3984.1 M 3018.8 3995.9 3014.7 3995.9 M 3014.7 4007.8 3018.8 4007.8 M 3044.4 4007.8 3387.7 4007.8 M 3398.9 4019 3373.8 3993.8 3373.8 3958.2 3398.9 3933 3434.6 3933 3459.8 3958.2 3459.8 3993.8 3434.6 4019 3398.9 4019 M 3375.9 3995.9 3056.2 3995.9 M 3058.8 3984.1 3373.8 3984.1 M 3373.8 3972.2 3058.8 3972.2 M 3058.8 3960.4 3373.8 3960.4 M 3383.5 3948.5 3048.6 3948.5 M 3036.8 3936.6 3395.3 3936.6 M 3438.2 3936.6 3495.3 3936.6 M 3483.5 3948.5 3450.1 3948.5 M 3459.8 3960.4 3473.8 3960.4 M 3473.8 3972.2 3459.8 3972.2 M 3459.8 3984.1 3473.8 3984.1 M 3475.9 3995.9 3457.6 3995.9 M 3445.8 4007.8 3487.7 4007.8 M 3518.8 4019.6 2651.8 4019.6 M 2657.4 4031.5 3518.8 4031.5 M 3518.8 4043.3 2662.4 4043.3 M 2664.8 4055.2 3518.8 4055.2 M 3518.8 4067 2664.8 4067 M 2664.8 4078.9 3518.8 4078.9 M 3518.8 4090.8 2660.3 4090.8 M 2655.4 4102.6 3518.8 4102.6 M 3518.8 4114.5 2646.9 4114.5 M 2635 4126.3 3518.8 4126.3 M 3518.8 4138.2 2611.7 4138.2 M 2528.3 4114.5 1505.2 4114.5 M 1513.7 4102.6 2519.8 4102.6 M 2514.9 4090.8 1518.6 4090.8 M 1523.1 4078.9 2510.4 4078.9 M 2510.4 4067 1523.1 4067 M 1523.1 4055.2 2510.4 4055.2 M 2512.9 4043.3 1520.6 4043.3 M 1515.7 4031.5 2517.8 4031.5 M 2523.4 4019.6 1510.1 4019.6 M 1498.2 4007.8 2535.3 4007.8 M 2551.7 3995.9 1481.8 3995.9 M 1410 3995.9 1156.2 3995.9 M 1144.4 4007.8 1393.6 4007.8 M 1381.7 4019.6 404.9 4019.6 M 403.2 4031.5 1376.1 4031.5 M 1371.1 4043.3 401.4 4043.3 M 397.9 4055.2 1368.7 4055.2 M 1368.7 4067 392.1 4067 M 386.4 4078.9 1368.7 4078.9 M 1373.2 4090.8 380.7 4090.8 M 371.4 4102.6 1378.1 4102.6 M 1386.6 4114.5 360.4 4114.5 M 349.4 4126.3 1398.5 4126.3 M 1421.9 4138.2 332.5 4138.2 M 557.6 3995.9 577.3 3995.9 M 574.8 3984.1 559.8 3984.1 M 559.8 3972.2 574.8 3972.2 M 574.8 3960.4 559.8 3960.4 M 550.1 3948.5 584.9 3948.5 M 596.7 3936.6 538.2 3936.6 M 1038.2 3936.6 1096.7 3936.6 M 1084.9 3948.5 1050.1 3948.5 M 1059.8 3960.4 1074.8 3960.4 M 1074.8 3972.2 1059.8 3972.2 M 1059.8 3984.1 1074.8 3984.1 M 1077.3 3995.9 1057.6 3995.9 M 1270.6 4493.8 2770.8 4493.8 M 2770.8 4505.7 1285.2 4505.7 M 1291.7 4517.5 1651.4 4517.5 M 1636.3 4529.4 1294.8 4529.4 M 1294.8 4541.2 1631 4541.2 M 1629.9 4553.1 1290.6 4553.1 M 1282.4 4564.9 1632.7 4564.9 M 1640.5 4576.8 1277.6 4576.8 M 1281.6 4802 1683.2 4802 M 1671.4 4813.9 1278.5 4813.9 M 1289 4825.7 1659.5 4825.7 M 1647.7 4837.6 1293.9 4837.6 M 1294.8 4849.4 1643.8 4849.4 M 1643.8 4861.3 1293.4 4861.3 M 1288.5 4873.1 1643.8 4873.1 M 1643.8 4885 1277.3 4885 M 1282.7 4896.8 1643.8 4896.8 M 1643.8 4908.7 1290.7 4908.7 M 1294.8 4920.6 1643.8 4920.6 M 1643.8 4932.4 1294.8 4932.4 M 1291.6 4944.3 1643.8 4944.3 M 1643.8 4956.1 1284.9 4956.1 M 1274.8 4968 1643.8 4968 M 1643.8 4979.8 1287 4979.8 M 1292.5 4991.7 1643.8 4991.7 M 1643.8 5003.5 1294.8 5003.5 M 1294.8 5015.4 1643.8 5015.4 M 1643.8 5027.2 1289.9 5027.2 M 1280.7 5039.1 1643.8 5039.1 M 1643.8 5051 1279.4 5051 M 1289.3 5062.8 1643.8 5062.8 M 1643.8 5074.7 1294.2 5074.7 M 1294.8 5086.5 1643.8 5086.5 M 1643.8 5098.4 1293 5098.4 M 1288.1 5110.2 1643.8 5110.2 M 1643.8 5122.1 1276.4 5122.1 M 1283.6 5133.9 1643.8 5133.9 M 1643.8 5145.8 1291.1 5145.8 M 1294.8 5157.6 1409.2 5157.6 M 1393.2 5169.5 1294.8 5169.5 M 1291.3 5181.4 1381.4 5181.4 M 1375.9 5193.2 1284.1 5193.2 M 1276 5205.1 1371 5205.1 M 1368.7 5216.9 1287.8 5216.9 M 1292.8 5228.8 1368.7 5228.8 M 1368.7 5240.6 1294.8 5240.6 M 1294.4 5252.5 1373.3 5252.5 M 1378.2 5264.3 1289.5 5264.3 M 1279.8 5276.2 1386.9 5276.2 M 1398.8 5288 736.3 5288 M 724.5 5276.2 1219.8 5276.2 M 1210.1 5264.3 712.6 5264.3 M 700.7 5252.5 1205.2 5252.5 M 1204.8 5240.6 688.9 5240.6 M 677 5228.8 1206.8 5228.8 M 1211.8 5216.9 665.2 5216.9 M 653.3 5205.1 1223.7 5205.1 M 1215.6 5193.2 641.5 5193.2 M 629.6 5181.4 1208.4 5181.4 M 1204.8 5169.5 617.8 5169.5 M 605.9 5157.6 1204.8 5157.6 M 1208.6 5145.8 594.1 5145.8 M 582.2 5133.9 1216.1 5133.9 M 1223.2 5122.1 570.4 5122.1 M 558.5 5110.2 1211.5 5110.2 M 1206.6 5098.4 546.6 5098.4 M 534.8 5086.5 1204.8 5086.5 M 1205.4 5074.7 522.9 5074.7 M 511.1 5062.8 1210.3 5062.8 M 1422.6 5299.9 748.2 5299.9 M 692.4 5359.2 401.4 5359.2 M 400.4 5352.1 407.8 5401 400.4 5449.9 378.9 5494.5 378.9 5494.5 345.3 5530.8 345.2 5530.8 312 5550 3722.1 5550 3708.8 5544.8 3708.8 5544.8 3670.1 5513.9 3670.1 5513.9 3642.2 5473 3627.6 5425.7 3627.6 5376.3 3627.6 5376.3 3642.2 5329 3642.2 5329 3670.1 5288.1 3708.8 5257.2 3754.8 5239.2 3754.8 5239.2 3804.2 5235.5 3852.4 5246.5 3895.2 5271.2 3895.3 5271.2 3928.9 5307.5 3940.8 5332.1 3940.8 5238.5 3940.3 5233.8 3936.7 5225.2 3930.1 5218.6 3921.4 5215 3916.8 5214.5 3912.2 5214.5 3911.6 5214.5 3899.1 5214.5 3889.1 5214.5 3861.2 5202.9 3839.8 5181.6 3828.3 5153.6 3828.3 5143.7 3828.3 5138.1 3828.3 5133.3 3828.3 5124.9 3780.9 5172.2 3771.7 5176 3761.8 5176 3727.1 5176 3530.9 5372.2 3521.7 5376 3511.8 5376 3454.2 5376 3455.2 5377.4 3458.5 5383.7 3460.6 5390.5 3461.8 5397.5 3420.3 5397.5 3420.3 5404.5 3461.8 5404.5 3461.8 5404.5 3460.6 5411.5 3458.5 5418.3 3455.2 5424.6 3451.1 5430.3 3629 5430.3 M 3627.6 5425.7 3627.6 5425.7 M 3627.6 5418.4 3458.4 5418.4 M 3461.4 5406.6 3627.6 5406.6 M 3627.6 5394.7 3461.3 5394.7 M 3461.8 5397.5 3461.8 5397.5 M 3458 5382.9 3627.6 5382.9 M 3629.2 5371 3532.1 5371 M 3543.9 5359.2 3632.9 5359.2 M 3636.5 5347.3 3555.8 5347.3 M 3567.7 5335.5 3640.2 5335.5 M 3645.9 5323.6 3579.5 5323.6 M 3591.4 5311.7 3653.9 5311.7 M 3662 5299.9 3603.2 5299.9 M 3615.1 5288 3670.1 5288 M 3670.1 5288.1 3670.1 5288.1 3670.1 5288.1 M 3685 5276.2 3626.9 5276.2 M 3638.8 5264.3 3699.9 5264.3 M 3708.8 5257.2 3708.8 5257.2 M 3720.9 5252.5 3650.6 5252.5 M 3662.5 5240.6 3751.1 5240.6 M 3709.9 5193.2 3851.5 5193.2 M 3861.2 5202.9 3861.2 5202.9 M 3866.3 5205.1 3698.1 5205.1 M 3686.2 5216.9 3926.1 5216.9 M 3938.2 5228.8 3674.3 5228.8 M 3639.2 5193.2 3462.8 5193.2 M 3462.8 5205.1 3627.4 5205.1 M 3615.5 5216.9 3460 5216.9 M 3454 5228.8 3603.6 5228.8 M 3591.8 5240.6 3441.3 5240.6 M 3445.1 5264.3 3568.1 5264.3 M 3579.9 5252.5 3003.6 5252.5 M 3002.3 5240.6 3292.2 5240.6 M 3279.5 5228.8 2996.6 5228.8 M 3001.1 5264.3 3388.4 5264.3 M 3377.2 5276.2 2993.6 5276.2 M 2966.8 5251 2766.8 5251 2641.8 5126 2016.8 5126 1966.8 5176 1966.8 5226 M 2012.2 5205.1 2021.3 5205.1 M 2016.8 5216.9 2016.8 5216.9 M 2016.8 5228.8 2016.8 5228.8 M 2014.8 5240.6 2018.7 5240.6 M 2023.6 5252.5 2009.9 5252.5 M 1999.1 5264.3 2034.4 5264.3 M 2028.8 5193.2 2004.7 5193.2 M 1993.9 5181.4 2043.9 5181.4 M 2017.6 5157.6 2551 5157.6 M 2535 5169.5 2005.8 5169.5 M 1976.3 5133.9 1933.5 5133.9 M 1916.8 5101 2666.8 5101 2766.8 5201 2816.8 5201 M 2856.3 5276.2 2939.9 5276.2 M 2916.8 5201 3166.8 5201 3216.8 5151 3366.8 5151 3416.8 5201 M 3450.3 5169.5 3662.9 5169.5 M 3651.1 5181.4 3458.4 5181.4 M 3432.3 5157.6 3674.8 5157.6 M 3686.6 5145.8 3428.8 5145.8 M 3448.9 5133.9 3698.5 5133.9 M 3705.1 5110.2 3726.7 5110.2 M 3716.7 5098.4 3715.4 5098.4 M 3679.3 5098.4 3675.5 5098.4 M 3675.5 5110.2 3679.3 5110.2 M 3679.3 5086.5 3675.5 5086.5 M 3675.5 5074.7 3584.8 5074.7 M 3584.8 5086.5 3634.5 5086.5 M 3639.4 5098.4 3580.2 5098.4 M 3568.3 5110.2 3649.6 5110.2 M 3635.4 5062.8 3584.8 5062.8 M 3577.5 5051 3641.2 5051 M 3653.3 5039.1 3565.7 5039.1 M 3515.2 5110.2 3462.7 5110.2 M 3462.8 5098.4 3503.3 5098.4 M 3498.8 5086.5 3460.5 5086.5 M 3455.5 5074.7 3498.8 5074.7 M 3498.8 5062.8 3443.6 5062.8 M 3416.8 5101 3366.8 5051 M 3357.8 5122.1 3375.7 5122.1 M 3382.2 5133.9 3384.6 5133.9 M 3394.1 5145.8 3404.7 5145.8 M 3364.6 5181.4 3358.4 5181.4 M 3362.8 5193.2 3370.8 5193.2 M 3370.8 5205.1 3362.8 5205.1 M 3360 5216.9 3373.6 5216.9 M 3379.5 5228.8 3354 5228.8 M 3341.3 5240.6 3392.2 5240.6 M 3372.3 5288 2861.2 5288 M 2786.2 5335.5 2739.8 5335.5 M 2745.6 5347.3 3335.1 5347.3 M 3370.2 5382.9 3375.5 5382.9 M 3375.1 5383.7 3378.3 5377.4 3379.3 5376 3377.1 5376 3362.3 5390.8 3362.8 5391.9 3362.8 5410.2 3355.7 5427.1 3342.8 5440 3325.9 5447 3307.6 5447 3291.4 5440.3 3327.1 5476 3377.3 5476 3377.8 5474.9 3390.7 5462 3407.6 5455 3425.9 5455 3442.8 5462 3455.7 5474.9 3462.8 5491.9 3462.8 5510.2 3455.7 5527.1 3442.8 5540 3425.9 5547 3407.6 5547 3390.7 5540 3377.8 5527.1 3377.3 5526 3311.8 5526 3302.6 5522.2 3295.6 5515.2 3256.4 5476 2854.2 5476 2855.2 5477.4 2858.5 5483.7 2860.6 5490.5 2861.8 5497.5 2820.3 5497.5 2820.3 5504.5 2861.8 5504.5 2861.8 5504.5 2860.6 5511.5 2858.5 5518.3 2855.2 5524.6 2851.1 5530.3 2846.1 5535.3 2840.3 5539.5 2834 5542.7 2827.3 5544.9 2820.3 5546 2820.3 5546 2820.3 5504.5 2813.2 5504.5 2813.2 5497.5 2771.8 5497.5 2771.8 5497.5 2772.9 5490.5 2775.1 5483.7 2778.3 5477.4 2779.3 5476 2711.8 5476 2702.6 5472.2 2695.6 5465.2 2656.4 5426 2249 5426 2249.3 5426.3 2255.5 5432.4 2260.7 5439.3 2265.1 5446.8 2268.4 5454.7 2270.6 5463.1 2271.5 5470 2211.7 5470 2211.7 5482 2199.7 5482 2199.7 5541.8 2192.8 5540.9 2184.5 5538.6 2176.5 5535.3 2169 5531 2162.1 5525.7 2156 5519.6 2150.7 5512.8 2146.4 5505.3 2143.1 5497.3 2140.9 5488.9 2140.4 5485.2 2133.6 5501.5 2121 5514.2 2104.4 5521 2086.5 5521 2070 5514.2 2057.3 5501.5 2056.1 5498.5 2054.9 5501.5 2042.2 5514.2 2025.7 5521 2007.8 5521 1991.3 5514.2 1979.4 5502.2 1967.4 5514.2 1950.9 5521 1933 5521 1916.5 5514.2 1903.8 5501.5 1897 5485 1897 5467.1 1903.8 5450.5 1916.5 5437.9 1933 5431 1950.9 5431 1967.4 5437.9 1979.4 5449.8 1991.3 5437.9 2007.8 5431 2025.7 5431 2042.2 5437.9 2054.9 5450.5 2056.1 5453.5 2057.3 5450.5 2070 5437.9 2070.5 5437.7 2070.5 5427.2 2070.5 5417.3 2074.3 5408.1 2095.6 5386.8 2102.6 5379.8 2111.8 5376 2661.8 5376 2671.7 5376 2680.9 5379.8 2727.1 5426 2777.3 5426 2776.5 5424 2776.3 5424 2757.2 5424 2707.2 5374 726.3 5374 707.2 5374 520 5186.8 422.9 5186.8 421.8 5189.3 413.6 5197.5 418.7 5197.5 428.7 5207.5 428.7 5277.6 418.7 5287.5 360.4 5287.5 378.9 5307.5 400.4 5352.1 400.4 5352.1 M 398.1 5347.3 680.5 5347.3 M 668.7 5335.5 392.4 5335.5 M 386.7 5323.6 656.8 5323.6 M 645 5311.7 381 5311.7 M 378.9 5307.5 378.9 5307.5 M 371.9 5299.9 633.1 5299.9 M 621.3 5288 360.8 5288 M 338.7 5264.3 333.3 5264.3 M 338.7 5252.5 312.8 5252.5 M 338.7 5240.6 276.7 5240.6 M 403.2 5371 704.2 5371 M 609.4 5276.2 428.7 5276.2 M 428.7 5264.3 597.6 5264.3 M 585.7 5252.5 428.7 5252.5 M 428.7 5240.6 573.8 5240.6 M 562 5228.8 428.7 5228.8 M 428.7 5216.9 550.1 5216.9 M 538.3 5205.1 426.2 5205.1 M 417.9 5193.2 526.4 5193.2 M 405 5382.9 2099.5 5382.9 M 2087.7 5394.7 406.8 5394.7 M 406.9 5406.6 2075.8 5406.6 M 2070.5 5418.4 1860.1 5418.4 M 1857 5416.7 1864.5 5421 1871.4 5426.3 1877.5 5432.4 1882.8 5439.3 1887.1 5446.8 1890.4 5454.7 1892.6 5463.1 1893.6 5470 1833.8 5470 1833.8 5482 1893.6 5482 1892.6 5488.9 1890.4 5497.3 1887.1 5505.3 1882.8 5512.8 1877.5 5519.6 1871.4 5525.7 1864.5 5531 1857 5535.3 1849 5538.6 1840.7 5540.9 1833.8 5541.8 1833.8 5482 1821.8 5482 1821.8 5541.8 1814.9 5540.9 1806.5 5538.6 1798.5 5535.3 1791 5531 1784.2 5525.7 1778.1 5519.6 1772.8 5512.8 1768.5 5505.3 1765.1 5497.3 1762.9 5488.9 1762 5482 1821.8 5482 1821.8 5470 1833.8 5470 1833.8 5410.2 1840.7 5411.1 1849 5413.4 1857 5416.7 M 1875.4 5430.3 2070.5 5430.3 M 2065.7 5442.1 2046.5 5442.1 M 1987 5442.1 1971.7 5442.1 M 1912.2 5442.1 1884.4 5442.1 M 1890.1 5454 1902.4 5454 M 1897.4 5465.9 1893 5465.9 M 1897 5477.7 1833.8 5477.7 M 1833.8 5465.9 1821.8 5465.9 M 1821.8 5470 1821.8 5410.2 1814.9 5411.1 1806.5 5413.4 1798.5 5416.7 1791 5421 1784.2 5426.3 1778.1 5432.4 1772.8 5439.3 1768.5 5446.8 1765.1 5454.7 1762.9 5463.1 1762 5470 1821.8 5470 M 1821.8 5477.7 387 5477.7 M 392.7 5465.9 1762.5 5465.9 M 1765.5 5454 398.4 5454 M 400.4 5449.9 400.4 5449.9 M 401.6 5442.1 1771.1 5442.1 M 1780.2 5430.3 403.3 5430.3 M 405.1 5418.4 1795.5 5418.4 M 1821.8 5418.4 1833.8 5418.4 M 1833.8 5430.3 1821.8 5430.3 M 1821.8 5442.1 1833.8 5442.1 M 1833.8 5454 1821.8 5454 M 1821.8 5489.6 1833.8 5489.6 M 1833.8 5501.4 1821.8 5501.4 M 1821.8 5513.3 1833.8 5513.3 M 1833.8 5525.1 1821.8 5525.1 M 1821.8 5537 1833.8 5537 M 1853 5537 2180.5 5537 M 2199.7 5537 2211.7 5537 M 2211.7 5541.8 2211.7 5482 2271.5 5482 2270.6 5488.9 2268.4 5497.3 2265.1 5505.3 2260.7 5512.8 2255.5 5519.6 2249.3 5525.7 2242.5 5531 2235 5535.3 2227 5538.6 2218.6 5540.9 2211.7 5541.8 M 2211.7 5525.1 2199.7 5525.1 M 2199.7 5513.3 2211.7 5513.3 M 2211.7 5501.4 2199.7 5501.4 M 2199.7 5489.6 2211.7 5489.6 M 2211.7 5477.7 2778.1 5477.7 M 2773.2 5489.6 2270.4 5489.6 M 2266.6 5501.4 2813.2 5501.4 M 2813.2 5504.5 2771.8 5504.5 2771.8 5504.5 2772.9 5511.5 2775.1 5518.3 2778.3 5524.6 2782.4 5530.3 2787.4 5535.3 2793.2 5539.5 2799.5 5542.7 2806.2 5544.9 2813.2 5546 2813.2 5546 2813.2 5504.5 M 2820.3 5501.4 3281.8 5501.4 M 3270 5489.6 2860.4 5489.6 M 2861.8 5497.5 2861.8 5497.5 M 2860.1 5513.3 3293.7 5513.3 M 3309.7 5525.1 2854.9 5525.1 M 2843.8 5537 3387.7 5537 M 3445.8 5537 3699 5537 M 3684.1 5525.1 3456.6 5525.1 M 3461.5 5513.3 3669.6 5513.3 M 3670.1 5513.9 3670.1 5513.9 M 3661.6 5501.4 3462.8 5501.4 M 3461.8 5489.6 3653.5 5489.6 M 3645.4 5477.7 3456.9 5477.7 M 3446.7 5465.9 3640 5465.9 M 3642.2 5473 3642.2 5473 M 3636.3 5454 3305.1 5454 M 3295.9 5442.1 3293.2 5442.1 M 3316.9 5465.9 3386.9 5465.9 M 3398.4 5442.1 3337.6 5442.1 M 3352.5 5430.3 3382.4 5430.3 3378.3 5424.6 3375.1 5418.3 3372.9 5411.5 3371.8 5404.5 3413.2 5404.5 3413.2 5397.5 3371.8 5397.5 3371.8 5397.5 3372.9 5390.5 3375.1 5383.7 M 3372.2 5394.7 3362.8 5394.7 M 3362.8 5406.6 3372.1 5406.6 M 3371.8 5404.5 3371.8 5404.5 M 3375.1 5418.4 3359.3 5418.4 M 3382.4 5430.3 3387.4 5435.3 3393.2 5439.5 3399.5 5442.7 3406.2 5444.9 3413.2 5446 3413.2 5446 3413.2 5404.5 3420.3 5404.5 3420.3 5446 3420.3 5446 3427.3 5444.9 3434 5442.7 3440.3 5439.5 3446.1 5435.3 3451.1 5430.3 M 3435.1 5442.1 3632.7 5442.1 M 3719.1 5548.8 314 5548.8 M 334.5 5537 1802.5 5537 M 1783.6 5525.1 350.5 5525.1 M 361.5 5513.3 1773.2 5513.3 M 1766.9 5501.4 372.5 5501.4 M 381.3 5489.6 1763.1 5489.6 M 1872 5525.1 2161.5 5525.1 M 2151.1 5513.3 2121.9 5513.3 M 2133.7 5501.4 2144.8 5501.4 M 2141 5489.6 2138.6 5489.6 M 2069.1 5513.3 2043.1 5513.3 M 2054.9 5501.4 2057.3 5501.4 M 1990.4 5513.3 1968.3 5513.3 M 1915.6 5513.3 1882.4 5513.3 M 1888.7 5501.4 1903.8 5501.4 M 1898.9 5489.6 1892.5 5489.6 M 1899.1 5264.3 1934.4 5264.3 M 1923.6 5252.5 1909.9 5252.5 M 1914.8 5240.6 1918.7 5240.6 M 1916.8 5228.8 1916.8 5228.8 M 1916.8 5216.9 1916.8 5216.9 M 1912.2 5205.1 1921.3 5205.1 M 1928.8 5193.2 1904.7 5193.2 M 2089.6 5181.4 2143.9 5181.4 M 2128.8 5193.2 2104.7 5193.2 M 2112.2 5205.1 2121.3 5205.1 M 2116.8 5216.9 2116.8 5216.9 M 2116.8 5228.8 2116.8 5228.8 M 2114.8 5240.6 2118.7 5240.6 M 2123.6 5252.5 2109.9 5252.5 M 2099.1 5264.3 2134.4 5264.3 M 2199.1 5264.3 2234.4 5264.3 M 2223.6 5252.5 2209.9 5252.5 M 2214.8 5240.6 2218.7 5240.6 M 2216.8 5228.8 2216.8 5228.8 M 2216.8 5216.9 2216.8 5216.9 M 2212.2 5205.1 2221.3 5205.1 M 2228.8 5193.2 2204.7 5193.2 M 2189.6 5181.4 2243.9 5181.4 M 2289.6 5181.4 2346.5 5181.4 M 2347.9 5180.6 2355.3 5178.2 2362.9 5177 2363.9 5177 2363.9 5223.1 2369.6 5223.1 2369.6 5177 2370.6 5177 2378.2 5178.2 2385.6 5180.6 2392.4 5184.1 2398.7 5188.6 2404.1 5194.1 2408.7 5200.3 2412.2 5207.2 2414.5 5214.5 2415.8 5222.1 2415.8 5223.1 2369.6 5223.1 2369.6 5228.9 2363.9 5228.9 2363.9 5275 2362.9 5275 2355.3 5273.8 2347.9 5271.4 2341.1 5267.9 2334.8 5263.4 2329.4 5257.9 2324.8 5251.7 2321.3 5244.8 2319 5237.5 2317.8 5229.9 2317.8 5228.9 2363.9 5228.9 2363.9 5223.1 2317.8 5223.1 2317.8 5222.1 2319 5214.5 2321.3 5207.2 2324.8 5200.3 2329.4 5194.1 2334.8 5188.6 2341.1 5184.1 2347.9 5180.6 M 2363.9 5181.4 2369.6 5181.4 M 2369.6 5193.2 2363.9 5193.2 M 2363.9 5205.1 2369.6 5205.1 M 2369.6 5216.9 2363.9 5216.9 M 2363.9 5228.8 2316.8 5228.8 M 2316.8 5216.9 2318.6 5216.9 M 2322.4 5205.1 2312.2 5205.1 M 2304.7 5193.2 2330.3 5193.2 M 2320 5240.6 2314.8 5240.6 M 2309.9 5252.5 2325.4 5252.5 M 2336.1 5264.3 2299.1 5264.3 M 2363.9 5264.3 2369.6 5264.3 M 2370.6 5275 2369.6 5275 2369.6 5228.9 2415.8 5228.9 2415.8 5229.9 2414.5 5237.5 2412.2 5244.8 2408.7 5251.7 2404.1 5257.9 2398.7 5263.4 2392.4 5267.9 2385.6 5271.4 2378.2 5273.8 2370.6 5275 M 2369.6 5252.5 2363.9 5252.5 M 2363.9 5240.6 2369.6 5240.6 M 2369.6 5228.8 2510.4 5228.8 M 2510.4 5240.6 2413.5 5240.6 M 2408.1 5252.5 2515 5252.5 M 2520 5264.3 2397.4 5264.3 M 2414.9 5216.9 2510.4 5216.9 M 2512.8 5205.1 2411.1 5205.1 M 2403.2 5193.2 2517.7 5193.2 M 2523.1 5181.4 2387 5181.4 M 2528.6 5276.2 1504.9 5276.2 M 1513.6 5264.3 1634.4 5264.3 M 1623.6 5252.5 1518.5 5252.5 M 1523.1 5240.6 1618.7 5240.6 M 1616.8 5228.8 1523.1 5228.8 M 1523.1 5216.9 1616.8 5216.9 M 1621.3 5205.1 1520.7 5205.1 M 1515.8 5193.2 1628.8 5193.2 M 1643.8 5181.4 1510.4 5181.4 M 1498.5 5169.5 1643.8 5169.5 M 1643.8 5157.6 1482.5 5157.6 M 1493 5288 2540.5 5288 M 2564.3 5299.9 1469.2 5299.9 M 1866.8 4901 2816.8 4901 M 2859.9 4885 3200.2 4885 M 3188.4 4896.8 2862.8 4896.8 M 2862.8 4908.7 3176.5 4908.7 M 3164.7 4920.6 2858.4 4920.6 M 2816.8 5001 2716.8 5001 2679.3 4963.5 2341.8 4963.5 2304.3 5001 M 2316.8 4951 2266.8 4951 M 2316.8 4951 2329.3 4938.5 2691.8 4938.5 2704.3 4951 3166.8 4951 3216.8 4901 3416.8 4901 M 3383.1 4932.4 3380.7 4932.4 M 3379.6 4873.1 3177.1 4873.1 M 3189 4861.3 3392.5 4861.3 M 3445.2 4837.6 3619.3 4837.6 M 3698.1 4790.2 3734 4790.2 M 3724.2 4802 3709.9 4802 M 3714.3 4813.9 3719.3 4813.9 M 3755.2 4778.3 3457.1 4778.3 M 3447.2 4766.4 3804.3 4766.4 M 3804.3 4778.3 3778.3 4778.3 M 3799.5 4790.2 3804.3 4790.2 M 3854.3 4683.5 3868.7 4683.5 M 3854.3 4671.6 3928.5 4671.6 M 3938.6 4659.8 3854.3 4659.8 M 3854.3 4647.9 3940.8 4647.9 M 3940.8 4636.1 3854.3 4636.1 M 3854.3 4624.2 3940.8 4624.2 M 3940.8 4612.3 3854.3 4612.3 M 3854.3 4600.5 3940.8 4600.5 M 3940.8 4588.6 3854.3 4588.6 M 3854.3 4576.8 3940.8 4576.8 M 3940.8 4564.9 3854.3 4564.9 M 3854.3 4553.1 3940.8 4553.1 M 3940.8 4541.2 3854.3 4541.2 M 3861.2 4529.4 3940.8 4529.4 M 3940.8 4517.5 3873.1 4517.5 M 3885 4505.7 3940.8 4505.7 M 3940.8 4493.8 3891.6 4493.8 M 3891.8 4481.9 3940.8 4481.9 M 3940.8 4470.1 3891.8 4470.1 M 3891.8 4458.2 3940.8 4458.2 M 3940.8 4446.4 3891.8 4446.4 M 3891.8 4434.5 3940.8 4434.5 M 3940.8 4422.7 3891.8 4422.7 M 3891.8 4410.8 3940.8 4410.8 M 3940.8 4399 3891.8 4399 M 3891.8 4387.1 3940.8 4387.1 M 3940.8 4375.3 3891.8 4375.3 M 3897.9 4363.4 3940.8 4363.4 M 3940.8 4351.5 3908.7 4351.5 M 3913.6 4339.7 3940.8 4339.7 M 3940.8 4327.8 3915.3 4327.8 M 3915.1 4316 3940.8 4316 M 3940.8 4304.1 3910.2 4304.1 M 3901.6 4292.3 3940.8 4292.3 M 3940.8 4280.4 3883.4 4280.4 M 3850.1 4280.4 3788.3 4280.4 M 3800.2 4292.3 3831.9 4292.3 M 3823.3 4304.1 3812.1 4304.1 M 3814.3 4316 3818.4 4316 M 3818.3 4327.8 3768.8 4327.8 M 3768.8 4339.7 3764.7 4339.7 M 3764.7 4351.5 3768.8 4351.5 M 3768.8 4363.4 3764.7 4363.4 M 3796.5 4363.4 3835.6 4363.4 M 3824.8 4351.5 3808.4 4351.5 M 3814.3 4339.7 3819.9 4339.7 M 3824.6 4161.9 3940.8 4161.9 M 3940.8 4173.7 3683.8 4173.7 M 3683.8 4161.9 3752.4 4161.9 M 3722.2 4150 3675.2 4150 M 3663.3 4138.2 3700.5 4138.2 M 3683.8 4185.6 3940.8 4185.6 M 3940.8 4197.4 3679.7 4197.4 M 3615.6 4209.3 3569.3 4209.3 M 3581.1 4197.4 3603.8 4197.4 M 3599.8 4185.6 3584.8 4185.6 M 3584.8 4173.7 3599.8 4173.7 M 3599.8 4161.9 3584.8 4161.9 M 3576.6 4150 3608.3 4150 M 3541.8 4176 3541.8 4001 3516.8 3976 M 3391 4161.9 3342.5 4161.9 M 3354.5 4173.7 3379 4173.7 M 3373.4 4185.6 3360.2 4185.6 M 3362.8 4197.4 3370.8 4197.4 M 3370.8 4209.3 3362.8 4209.3 M 3358.2 4221.1 3375.3 4221.1 M 3383.7 4233 3349.8 4233 M 3283.7 4233 3249.8 4233 M 3258.2 4221.1 3275.3 4221.1 M 3270.8 4209.3 3262.8 4209.3 M 3262.8 4197.4 3270.8 4197.4 M 3273.4 4185.6 3260.2 4185.6 M 3254.5 4173.7 3279 4173.7 M 3291 4161.9 3242.5 4161.9 M 3191 4161.9 3139.1 4161.9 M 3140.3 4162.5 3146.1 4166.7 3151.1 4171.7 3155.2 4177.4 3158.5 4183.7 3160.6 4190.5 3161.8 4197.5 3120.3 4197.5 3120.3 4204.5 3161.8 4204.5 3161.8 4204.5 3160.6 4211.5 3158.5 4218.3 3155.2 4224.6 3151.1 4230.3 3146.1 4235.3 3140.3 4239.5 3134 4242.7 3127.3 4244.9 3120.3 4246 3120.3 4246 3120.3 4204.5 3113.2 4204.5 3113.2 4197.5 3071.8 4197.5 3071.8 4197.5 3072.9 4190.5 3075.1 4183.7 3078.3 4177.4 3082.4 4171.7 3087.4 4166.7 3093.2 4162.5 3099.5 4159.3 3106.2 4157.1 3113.2 4156 3113.2 4156 3113.2 4197.5 3120.3 4197.5 3120.3 4156 3127.3 4157.1 3134 4159.3 3140.3 4162.5 M 3152.6 4173.7 3179 4173.7 M 3173.4 4185.6 3159.1 4185.6 M 3161.7 4197.4 3170.8 4197.4 M 3161.8 4197.5 3161.8 4197.5 M 3161 4209.3 3170.8 4209.3 M 3175.3 4221.1 3157 4221.1 M 3148.4 4233 3183.7 4233 M 3202.4 4244.9 3127.4 4244.9 M 3120.3 4244.9 3113.2 4244.9 M 3113.2 4246 3106.2 4244.9 3099.5 4242.7 3093.2 4239.5 3087.4 4235.3 3082.4 4230.3 3078.3 4224.6 3075.1 4218.3 3072.9 4211.5 3071.8 4204.5 3113.2 4204.5 3113.2 4246 3113.2 4246 M 3106.1 4244.9 3031.1 4244.9 M 3025.9 4247 3007.6 4247 2990.7 4240 2977.8 4227.1 2970.8 4210.2 2970.8 4191.9 2977.8 4174.9 2990.7 4162 3007.6 4155 3025.9 4155 3042.8 4162 3055.7 4174.9 3062.8 4191.9 3062.8 4210.2 3055.7 4227.1 3042.8 4240 3025.9 4247 M 3002.4 4244.9 2931.1 4244.9 M 2949.8 4233 2983.7 4233 M 2975.3 4221.1 2958.2 4221.1 M 2962.8 4209.3 2970.8 4209.3 M 2970.8 4197.4 2962.8 4197.4 M 2960.2 4185.6 2973.4 4185.6 M 2979 4173.7 2954.5 4173.7 M 2942.5 4161.9 2991 4161.9 M 3042.5 4161.9 3094.4 4161.9 M 3080.9 4173.7 3054.5 4173.7 M 3060.2 4185.6 3074.4 4185.6 M 3071.8 4197.4 3062.8 4197.4 M 3071.8 4204.5 3071.8 4204.5 M 3072.5 4209.3 3062.8 4209.3 M 3058.2 4221.1 3076.5 4221.1 M 3085.1 4233 3049.8 4233 M 3113.2 4233 3120.3 4233 M 3120.3 4221.1 3113.2 4221.1 M 3113.2 4209.3 3120.3 4209.3 M 3120.3 4197.4 3113.2 4197.4 M 3113.2 4185.6 3120.3 4185.6 M 3120.3 4173.7 3113.2 4173.7 M 3113.2 4161.9 3120.3 4161.9 M 3120.3 4156 3120.3 4156 M 2989.1 4007.8 2945.8 4007.8 M 2957.6 3995.9 2977.3 3995.9 M 2974.8 3984.1 2959.8 3984.1 M 2959.8 3972.2 2974.8 3972.2 M 2974.8 3960.4 2959.8 3960.4 M 2950.1 3948.5 2984.9 3948.5 M 2791 4161.9 2463.8 4161.9 M 2463.8 4173.7 2779 4173.7 M 2773.4 4185.6 2463.8 4185.6 M 2461.8 4197.4 2770.8 4197.4 M 2770.8 4209.3 2449.9 4209.3 M 2438.1 4221.1 2775.3 4221.1 M 2783.7 4233 2438.8 4233 M 2450.7 4244.9 2802.4 4244.9 M 2777.6 4375.3 2244.6 4375.3 M 2216.8 4351 3166.8 4351 M 3186.9 4363.4 3389.3 4363.4 M 3377.6 4375.3 2855.9 4375.3 M 2860.8 4387.1 3198.1 4387.1 M 3186.3 4399 2862.8 4399 M 2862.5 4410.8 3174.4 4410.8 M 3162.6 4422.7 2857.6 4422.7 M 2858.6 4481.9 3203.3 4481.9 M 3191.4 4493.8 2862.8 4493.8 M 2862.8 4505.7 3179.6 4505.7 M 3167.7 4517.5 2859.7 4517.5 M 2773.8 4517.5 1682.1 4517.5 M 1637.9 4481.9 2774.9 4481.9 M 2859.3 4683.5 3201.8 4683.5 M 3189.9 4695.3 2862.8 4695.3 M 2862.8 4707.2 3178.1 4707.2 M 3166.2 4719 2859.1 4719 M 2816.8 4701 1816.8 4701 M 2066.8 4801 2816.8 4801 M 2862.8 4802 3183.2 4802 M 3171.4 4813.9 2861.2 4813.9 M 2856.3 4825.7 3159.5 4825.7 M 3195.1 4790.2 2862 4790.2 M 2857.1 4778.3 3206.9 4778.3 M 3216.8 4801 3416.8 4801 M 3386.3 4766.4 3183.8 4766.4 M 3216.8 4701 3416.8 4701 M 3376.6 4624.2 3226.1 4624.2 M 3209.1 4541.2 3393.6 4541.2 M 3380.1 4529.4 3220.9 4529.4 M 2948.9 4268.6 2916.8 4268.6 M 3266.8 4951 3166.8 5051 2716.8 5051 2666.8 5001 2366.8 5001 M 2253.4 5430.3 2660.7 5430.3 M 2672.5 5442.1 2262.4 5442.1 M 2268 5454 2684.4 5454 M 2696.3 5465.9 2271 5465.9 M 2260.3 5513.3 2773.4 5513.3 M 2778.7 5525.1 2249.9 5525.1 M 2231 5537 2789.7 5537 M 2813.2 5537 2820.3 5537 M 2820.3 5525.1 2813.2 5525.1 M 2813.2 5513.3 2820.3 5513.3 M 2855.4 5477.7 3258.1 5477.7 M 3413.2 5442.1 3420.3 5442.1 M 3420.3 5430.3 3413.2 5430.3 M 3413.2 5418.4 3420.3 5418.4 M 3420.3 5406.6 3413.2 5406.6 M 3457.2 5323.6 3508.8 5323.6 M 3520.7 5311.7 3462.1 5311.7 M 3462.8 5299.9 3532.5 5299.9 M 3544.4 5288 3461.2 5288 M 3456.3 5276.2 3556.2 5276.2 M 3457.8 5122.1 3760.3 5122.1 M 3795.5 5157.6 3829.9 5157.6 M 3828.3 5153.6 3828.3 5153.6 M 3828.3 5145.8 3807.3 5145.8 M 3819.2 5133.9 3828.3 5133.9 M 3834.8 5169.5 3783.6 5169.5 M 3839.7 5181.4 3721.8 5181.4 M 3804.2 5235.5 3804.2 5235.5 M 3826.7 5240.6 3940.8 5240.6 M 3940.8 5252.5 3862.8 5252.5 M 3852.4 5246.5 3852.4 5246.5 M 3883.3 5264.3 3940.8 5264.3 M 3940.8 5276.2 3899.9 5276.2 M 3910.9 5288 3940.8 5288 M 3940.8 5299.9 3921.9 5299.9 M 3928.9 5307.5 3928.9 5307.5 M 3931 5311.7 3940.8 5311.7 M 3940.8 5323.6 3936.7 5323.6 M 3889.1 5214.5 3889.1 5214.5 M 3839.8 5181.6 3839.8 5181.6 M 3804.3 5074.7 3801.1 5074.7 M 3799.4 5062.8 3804.3 5062.8 M 3804.3 5051 3794.4 5051 M 3804.3 5039.1 3782.9 5039.1 M 3729.4 5039.1 3701.4 5039.1 M 3713.6 5051 3717.8 5051 M 3679.3 5051 3675.5 5051 M 3675.5 5062.8 3679.3 5062.8 M 3679.3 5039.1 3675.5 5039.1 M 3659.6 4619 3623.9 4619 3598.8 4593.8 3598.8 4558.2 3623.9 4533 3659.6 4533 3684.8 4558.2 3684.8 4593.8 3659.6 4619 M 3666.2 4612.3 3804.3 4612.3 M 3804.3 4600.5 3678.1 4600.5 M 3684.8 4588.6 3804.3 4588.6 M 3804.3 4576.8 3684.8 4576.8 M 3684.8 4564.9 3804.3 4564.9 M 3804.3 4553.1 3679.6 4553.1 M 3667.8 4541.2 3804.3 4541.2 M 3615.7 4541.2 3567.8 4541.2 M 3579.6 4553.1 3603.9 4553.1 M 3598.8 4564.9 3584.8 4564.9 M 3584.8 4576.8 3598.8 4576.8 M 3598.8 4588.6 3584.8 4588.6 M 3578.1 4600.5 3605.4 4600.5 M 3617.3 4612.3 3566.2 4612.3 M 3861.9 4150 3940.8 4150 M 3940.8 4138.2 3882.5 4138.2 M 3899.4 4126.3 3940.8 4126.3 M 3940.8 4114.5 3910.4 4114.5 M 3921.4 4102.6 3940.8 4102.6 M 3940.8 4090.8 3930.7 4090.8 M 3936.4 4078.9 3940.8 4078.9 M 3275.1 5181.4 3218.9 5181.4 M 3207.1 5193.2 3270.8 5193.2 M 3270.8 5205.1 3195.2 5205.1 M 3183.4 5216.9 3273.6 5216.9 M 2797.6 5359.2 2757.4 5359.2 M 2769.3 5371 2781.7 5371 M 2739.8 5406.6 2707.7 5406.6 M 2719.5 5418.4 2751.7 5418.4 M 2728 5394.7 2695.8 5394.7 M 2684 5382.9 2716.1 5382.9 M 2412.7 4322 2397.7 4322 2370.8 4295.1 2370.8 4280 2412.7 4280 2412.7 4322 M 2412.7 4316 2420.8 4316 M 2420.8 4304.1 2412.7 4304.1 M 2412.7 4292.3 2420.8 4292.3 M 2420.8 4280.4 2412.7 4280.4 M 2412.7 4268.6 2420.8 4268.6 M 2420.8 4256.7 2412.7 4256.7 M 2412.7 4244.9 2420.8 4244.9 M 2420.8 4233 2412.7 4233 M 2394.7 4233 2340.2 4233 M 2338.1 4221.1 2395.4 4221.1 M 2383.6 4209.3 2349.9 4209.3 M 2361.8 4197.4 2371.7 4197.4 M 2369.8 4185.6 2363.8 4185.6 M 2363.8 4173.7 2369.8 4173.7 M 2369.8 4161.9 2363.8 4161.9 M 2357.2 4150 2376.3 4150 M 2388.1 4138.2 2345.4 4138.2 M 2352.1 4244.9 2382.9 4244.9 M 2371 4256.7 2363.8 4256.7 M 2363.8 4268.6 2370.8 4268.6 M 2370.8 4280.4 2363.8 4280.4 M 2363.8 4292.3 2370.8 4292.3 M 2379.8 4304.1 2355.1 4304.1 M 2343.2 4316 2391.7 4316 M 2090.3 4316 2043.2 4316 M 2036.2 4323 1997.3 4323 1969.8 4295.5 1969.8 4256.5 1997.3 4229 2036.2 4229 2063.8 4256.5 2063.8 4295.5 2036.2 4323 M 2055.1 4304.1 2078.4 4304.1 M 2069.8 4292.3 2063.8 4292.3 M 2063.8 4280.4 2069.8 4280.4 M 2069.8 4268.6 2063.8 4268.6 M 2063.8 4256.7 2069.8 4256.7 M 2081.4 4244.9 2052.1 4244.9 M 2040.2 4233 2093.3 4233 M 2095.4 4221.1 2038.1 4221.1 M 2036.2 4223 1997.3 4223 1969.8 4195.5 1969.8 4156.5 1997.3 4129 2036.2 4129 2063.8 4156.5 2063.8 4195.5 2036.2 4223 M 2049.9 4209.3 2083.6 4209.3 M 2071.7 4197.4 2061.8 4197.4 M 2063.8 4185.6 2069.8 4185.6 M 2069.8 4173.7 2063.8 4173.7 M 2063.8 4161.9 2069.8 4161.9 M 2076.3 4150 2057.2 4150 M 2045.4 4138.2 2088.1 4138.2 M 1988.1 4138.2 1945.4 4138.2 M 1936.2 4129 1963.8 4156.5 1963.8 4195.5 1936.2 4223 1897.3 4223 1869.8 4195.5 1869.8 4156.5 1897.3 4129 1936.2 4129 M 1957.2 4150 1976.3 4150 M 1969.8 4161.9 1963.8 4161.9 M 1963.8 4173.7 1969.8 4173.7 M 1969.8 4185.6 1963.8 4185.6 M 1961.8 4197.4 1971.7 4197.4 M 1983.6 4209.3 1949.9 4209.3 M 1938.1 4221.1 1995.4 4221.1 M 1993.3 4233 1940.2 4233 M 1936.2 4229 1963.8 4256.5 1963.8 4295.5 1936.2 4323 1897.3 4323 1869.8 4295.5 1869.8 4256.5 1897.3 4229 1936.2 4229 M 1952.1 4244.9 1981.4 4244.9 M 1969.8 4256.7 1963.8 4256.7 M 1963.8 4268.6 1969.8 4268.6 M 1969.8 4280.4 1963.8 4280.4 M 1963.8 4292.3 1969.8 4292.3 M 1978.4 4304.1 1955.1 4304.1 M 1943.2 4316 1990.3 4316 M 1890.3 4316 1843.2 4316 M 1836.2 4323 1797.3 4323 1769.8 4295.5 1769.8 4256.5 1797.3 4229 1836.2 4229 1863.8 4256.5 1863.8 4295.5 1836.2 4323 M 1855.1 4304.1 1878.4 4304.1 M 1869.8 4292.3 1863.8 4292.3 M 1863.8 4280.4 1869.8 4280.4 M 1869.8 4268.6 1863.8 4268.6 M 1863.8 4256.7 1869.8 4256.7 M 1881.4 4244.9 1852.1 4244.9 M 1840.2 4233 1893.3 4233 M 1895.4 4221.1 1838.1 4221.1 M 1836.2 4223 1797.3 4223 1769.8 4195.5 1769.8 4156.5 1797.3 4129 1836.2 4129 1863.8 4156.5 1863.8 4195.5 1836.2 4223 M 1849.9 4209.3 1883.6 4209.3 M 1871.7 4197.4 1861.8 4197.4 M 1863.8 4185.6 1869.8 4185.6 M 1869.8 4173.7 1863.8 4173.7 M 1863.8 4161.9 1869.8 4161.9 M 1876.3 4150 1857.2 4150 M 1845.4 4138.2 1888.1 4138.2 M 1788.1 4138.2 1745.4 4138.2 M 1736.2 4129 1763.8 4156.5 1763.8 4195.5 1736.2 4223 1697.3 4223 1669.8 4195.5 1669.8 4156.5 1697.3 4129 1736.2 4129 M 1757.2 4150 1776.3 4150 M 1769.8 4161.9 1763.8 4161.9 M 1763.8 4173.7 1769.8 4173.7 M 1769.8 4185.6 1763.8 4185.6 M 1761.8 4197.4 1771.7 4197.4 M 1783.6 4209.3 1749.9 4209.3 M 1738.1 4221.1 1795.4 4221.1 M 1793.3 4233 1740.2 4233 M 1736.2 4229 1763.8 4256.5 1763.8 4295.5 1736.2 4323 1697.3 4323 1669.8 4295.5 1669.8 4256.5 1697.3 4229 1736.2 4229 M 1752.1 4244.9 1781.4 4244.9 M 1769.8 4256.7 1763.8 4256.7 M 1763.8 4268.6 1769.8 4268.6 M 1769.8 4280.4 1763.8 4280.4 M 1763.8 4292.3 1769.8 4292.3 M 1778.4 4304.1 1755.1 4304.1 M 1743.2 4316 1790.3 4316 M 1695.4 4221.1 1638.1 4221.1 M 1640.2 4233 1693.3 4233 M 1681.4 4244.9 1652.1 4244.9 M 1663.8 4256.7 1669.8 4256.7 M 1669.8 4268.6 1663.8 4268.6 M 1663.8 4280.4 1669.8 4280.4 M 1669.8 4292.3 1663.8 4292.3 M 1655.1 4304.1 1678.4 4304.1 M 1690.3 4316 1643.2 4316 M 1649.9 4209.3 1683.6 4209.3 M 1671.7 4197.4 1661.8 4197.4 M 1663.8 4185.6 1669.8 4185.6 M 1669.8 4173.7 1663.8 4173.7 M 1663.8 4161.9 1669.8 4161.9 M 1676.3 4150 1657.2 4150 M 1645.4 4138.2 1688.1 4138.2" fill="none" stroke-width="12"/><use xlink:href="#operator-interface-display-r1.toplayer_pad-20" x="1616.8" y="4451"/><use xlink:href="#operator-interface-display-r1.toplayer_pad-20" x="1666.8" y="4551"/><use xlink:href="#operator-interface-display-r1.toplayer_pad-20" x="1766.8" y="4651"/><use xlink:href="#operator-interface-display-r1.toplayer_pad-20" x="1816.8" y="4701"/><use xlink:href="#operator-interface-display-r1.toplayer_pad-20" x="1766.8" y="4851"/><use xlink:href="#operator-interface-display-r1.toplayer_pad-20" x="1866.8" y="4901"/><use xlink:href="#operator-interface-display-r1.toplayer_pad-20" x="1916.8" y="5101"/><use xlink:href="#operator-interface-display-r1.toplayer_pad-20" x="1716.8" y="5051"/><use xlink:href="#operator-interface-display-r1.toplayer_pad-20" x="2016.8" y="4601"/><use xlink:href="#operator-interface-display-r1.toplayer_pad-20" x="2066.8" y="4801"/><use xlink:href="#operator-interface-display-r1.toplayer_pad-20" x="2266.8" y="4951"/><use xlink:href="#operator-interface-display-r1.toplayer_pad-20" x="2304.3" y="5001"/><use xlink:href="#operator-interface-display-r1.toplayer_pad-20" x="2366.8" y="5001"/><use xlink:href="#operator-interface-display-r1.toplayer_pad-20" x="2216.8" y="4351"/><use xlink:href="#operator-interface-display-r1.toplayer_pad-20" x="2916.8" y="5101"/><use xlink:href="#operator-interface-display-r1.toplayer_pad-20" x="2916.8" y="5201"/><use xlink:href="#operator-interface-display-r1.toplayer_pad-20" x="2966.8" y="5251"/><use xlink:href="#operator-interface-display-r1.toplayer_pad-20" x="2966.8" y="4301"/><path d="M 3366.8 5351 3516.8 5351 3716.8 5151 3766.8 5151 3829.3 5088.5 3829.3 4526 3866.8 4488.5 3866.8 4326 M 3366.8 5351 3316.8 5401 M 3266.8 5451 3316.8 5501 3416.8 5501 M 3266.8 5451 2716.8 5451 2666.8 5401 2116.8 5401 2095.5 5422.3 2095.5 5476" fill="none" stroke-width="16"/></g></svg>