<svg xmlns="http://www.w3.org/2000/svg" version="1.1" xmlns:xlink="http://www.w3.org/1999/xlink" stroke-linecap="round" stroke-linejoin="round" stroke-width="0" fill-rule="evenodd" width="0.1179in" height="0.1724in" viewBox="3707.8 4541.1 117.9 172.4" id="operator-interface-display-r1.bottomsilkscreen"><g transform="translate(0,9254.6) scale(1,-1)" fill="currentColor" stroke="currentColor"><path d="M 3710.8 4544.1 3714.5 4544.1 M 3710.8 4544.1 3710.8 4607.9 3714.5 4607.9 M 3746.2 4607.9 3749.9 4607.9 M 3783.6 4607.9 3787.3 4607.9 M 3819 4607.9 3822.7 4607.9 3822.7 4544.1 3819 4544.1 M 3787.3 4544.1 3746.2 4544.1 M 3746.1 4676.5 3757.4 4676.5 3763.1 4682.2 M 3777.2 4682.2 3777.2 4710.5 M 3763.1 4704.9 3757.4 4710.5 3746.1 4710.5 3740.4 4704.9 3740.4 4699.2 3746.1 4693.5 3740.4 4687.9 3740.4 4682.2 3746.1 4676.5 M 3746.1 4693.5 3751.7 4693.5 M 3777.2 4682.2 3782.9 4676.5 3794.2 4676.5 3799.9 4682.2 3799.9 4710.5" fill="none" stroke-width="6"/></g></svg>