<svg xmlns="http://www.w3.org/2000/svg" version="1.1" xmlns:xlink="http://www.w3.org/1999/xlink" stroke-linecap="round" stroke-linejoin="round" stroke-width="0" fill-rule="evenodd" width="3.86in" height="1.71in" viewBox="86.8 3846 3860 1710" id="operator-interface-display-r1.bottomlayer"><defs><circle cx="0" cy="0" r="28" id="operator-interface-display-r1.bottomlayer_pad-10"/><rect x="-28" y="-28" width="56" height="56" id="operator-interface-display-r1.bottomlayer_pad-11"/><circle cx="0" cy="0" r="29" id="operator-interface-display-r1.bottomlayer_pad-12"/><polygon points="25.99995,10.76953 10.76953,25.99995 -10.76953,25.99995 -25.99995,10.76953 -25.99995,-10.76953 -10.76953,-25.99995 10.76953,-25.99995 25.99995,-10.76953" id="operator-interface-display-r1.bottomlayer_pad-13"/><circle cx="0" cy="0" r="33" id="operator-interface-display-r1.bottomlayer_pad-14"/><rect x="-10.85" y="-23.6" width="21.7" height="47.2" id="operator-interface-display-r1.bottomlayer_pad-15"/><polygon points="31.49994,13.0477 13.0477,31.49994 -13.0477,31.49994 -31.49994,13.0477 -31.49994,-13.0477 -13.0477,-31.49994 13.0477,-31.49994 31.49994,-13.0477" id="operator-interface-display-r1.bottomlayer_pad-16"/><circle cx="0" cy="0" r="31.5" id="operator-interface-display-r1.bottomlayer_pad-17"/><circle cx="0" cy="0" r="50" id="operator-interface-display-r1.bottomlayer_pad-18"/><polygon points="29.99994,12.42638 12.42638,29.99994 -12.42638,29.99994 -29.99994,12.42638 -29.99994,-12.42638 -12.42638,-29.99994 12.42638,-29.99994 29.99994,-12.42638" id="operator-interface-display-r1.bottomlayer_pad-19"/><circle cx="0" cy="0" r="19.8" id="operator-interface-display-r1.bottomlayer_pad-20"/></defs><g transform="translate(0,9402) scale(1,-1)" fill="currentColor" stroke="currentColor"><use xlink:href="#operator-interface-display-r1.bottomlayer_pad-10" x="383.7" y="4533.9"/><use xlink:href="#operator-interface-display-r1.bottomlayer_pad-10" x="383.7" y="4612.6"/><use xlink:href="#operator-interface-display-r1.bottomlayer_pad-10" x="383.7" y="4691.4"/><use xlink:href="#operator-interface-display-r1.bottomlayer_pad-10" x="383.7" y="4770.1"/><use xlink:href="#operator-interface-display-r1.bottomlayer_pad-10" x="383.7" y="4848.8"/><use xlink:href="#operator-interface-display-r1.bottomlayer_pad-10" x="383.7" y="4927.6"/><use xlink:href="#operator-interface-display-r1.bottomlayer_pad-10" x="383.7" y="5006.3"/><use xlink:href="#operator-interface-display-r1.bottomlayer_pad-10" x="383.7" y="5085.1"/><use xlink:href="#operator-interface-display-r1.bottomlayer_pad-10" x="383.7" y="5163.8"/><use xlink:href="#operator-interface-display-r1.bottomlayer_pad-10" x="1249.8" y="5163.8"/><use xlink:href="#operator-interface-display-r1.bottomlayer_pad-10" x="1249.8" y="5085.1"/><use xlink:href="#operator-interface-display-r1.bottomlayer_pad-10" x="1249.8" y="5006.3"/><use xlink:href="#operator-interface-display-r1.bottomlayer_pad-10" x="1249.8" y="4927.6"/><use xlink:href="#operator-interface-display-r1.bottomlayer_pad-10" x="1249.8" y="4848.8"/><use xlink:href="#operator-interface-display-r1.bottomlayer_pad-10" x="1249.8" y="4770.1"/><use xlink:href="#operator-interface-display-r1.bottomlayer_pad-10" x="1249.8" y="4691.4"/><use xlink:href="#operator-interface-display-r1.bottomlayer_pad-10" x="1249.8" y="4612.6"/><use xlink:href="#operator-interface-display-r1.bottomlayer_pad-10" x="1249.8" y="4533.9"/><use xlink:href="#operator-interface-display-r1.bottomlayer_pad-10" x="1249.8" y="5242.5"/><use xlink:href="#operator-interface-display-r1.bottomlayer_pad-10" x="1942" y="5476"/><use xlink:href="#operator-interface-display-r1.bottomlayer_pad-10" x="2016.8" y="5476"/><use xlink:href="#operator-interface-display-r1.bottomlayer_pad-10" x="2095.5" y="5476"/><use xlink:href="#operator-interface-display-r1.bottomlayer_pad-10" x="3677.4" y="5076"/><use xlink:href="#operator-interface-display-r1.bottomlayer_pad-10" x="3756.1" y="5076"/><use xlink:href="#operator-interface-display-r1.bottomlayer_pad-11" x="383.7" y="5242.5"/><use xlink:href="#operator-interface-display-r1.bottomlayer_pad-12" x="2816.8" y="5201"/><use xlink:href="#operator-interface-display-r1.bottomlayer_pad-12" x="2816.8" y="5301"/><use xlink:href="#operator-interface-display-r1.bottomlayer_pad-12" x="2816.8" y="5401"/><use xlink:href="#operator-interface-display-r1.bottomlayer_pad-12" x="2816.8" y="5501"/><use xlink:href="#operator-interface-display-r1.bottomlayer_pad-12" x="2816.8" y="5101"/><use xlink:href="#operator-interface-display-r1.bottomlayer_pad-12" x="2816.8" y="5001"/><use xlink:href="#operator-interface-display-r1.bottomlayer_pad-12" x="2816.8" y="4901"/><use xlink:href="#operator-interface-display-r1.bottomlayer_pad-12" x="2816.8" y="4801"/><use xlink:href="#operator-interface-display-r1.bottomlayer_pad-12" x="2816.8" y="4701"/><use xlink:href="#operator-interface-display-r1.bottomlayer_pad-12" x="2816.8" y="4601"/><use xlink:href="#operator-interface-display-r1.bottomlayer_pad-12" x="2816.8" y="4501"/><use xlink:href="#operator-interface-display-r1.bottomlayer_pad-12" x="2816.8" y="4401"/><use xlink:href="#operator-interface-display-r1.bottomlayer_pad-12" x="2816.8" y="4301"/><use xlink:href="#operator-interface-display-r1.bottomlayer_pad-12" x="2816.8" y="4201"/><use xlink:href="#operator-interface-display-r1.bottomlayer_pad-12" x="2916.8" y="4201"/><use xlink:href="#operator-interface-display-r1.bottomlayer_pad-12" x="3016.8" y="4201"/><use xlink:href="#operator-interface-display-r1.bottomlayer_pad-12" x="3116.8" y="4201"/><use xlink:href="#operator-interface-display-r1.bottomlayer_pad-12" x="3216.8" y="4201"/><use xlink:href="#operator-interface-display-r1.bottomlayer_pad-12" x="3316.8" y="4201"/><use xlink:href="#operator-interface-display-r1.bottomlayer_pad-12" x="3416.8" y="4201"/><use xlink:href="#operator-interface-display-r1.bottomlayer_pad-12" x="3416.8" y="4301"/><use xlink:href="#operator-interface-display-r1.bottomlayer_pad-12" x="3416.8" y="4401"/><use xlink:href="#operator-interface-display-r1.bottomlayer_pad-12" x="3416.8" y="4501"/><use xlink:href="#operator-interface-display-r1.bottomlayer_pad-12" x="3416.8" y="4601"/><use xlink:href="#operator-interface-display-r1.bottomlayer_pad-12" x="3416.8" y="4701"/><use xlink:href="#operator-interface-display-r1.bottomlayer_pad-12" x="3416.8" y="4801"/><use xlink:href="#operator-interface-display-r1.bottomlayer_pad-12" x="3416.8" y="4901"/><use xlink:href="#operator-interface-display-r1.bottomlayer_pad-12" x="3416.8" y="5001"/><use xlink:href="#operator-interface-display-r1.bottomlayer_pad-12" x="3416.8" y="5101"/><use xlink:href="#operator-interface-display-r1.bottomlayer_pad-12" x="3416.8" y="5201"/><use xlink:href="#operator-interface-display-r1.bottomlayer_pad-12" x="3416.8" y="5301"/><use xlink:href="#operator-interface-display-r1.bottomlayer_pad-12" x="3416.8" y="5401"/><use xlink:href="#operator-interface-display-r1.bottomlayer_pad-12" x="3416.8" y="5501"/><use xlink:href="#operator-interface-display-r1.bottomlayer_pad-12" x="3316.8" y="5401"/><use xlink:href="#operator-interface-display-r1.bottomlayer_pad-12" x="3316.8" y="5201"/><use xlink:href="#operator-interface-display-r1.bottomlayer_pad-12" x="3316.8" y="5101"/><use xlink:href="#operator-interface-display-r1.bottomlayer_pad-12" x="3316.8" y="5001"/><use xlink:href="#operator-interface-display-r1.bottomlayer_pad-13" x="3541.8" y="5076"/><use xlink:href="#operator-interface-display-r1.bottomlayer_pad-13" x="3541.8" y="4676"/><use xlink:href="#operator-interface-display-r1.bottomlayer_pad-13" x="3541.8" y="4576"/><use xlink:href="#operator-interface-display-r1.bottomlayer_pad-13" x="3641.8" y="4576"/><use xlink:href="#operator-interface-display-r1.bottomlayer_pad-13" x="3641.8" y="4176"/><use xlink:href="#operator-interface-display-r1.bottomlayer_pad-13" x="3541.8" y="4176"/><use xlink:href="#operator-interface-display-r1.bottomlayer_pad-13" x="3516.8" y="3976"/><use xlink:href="#operator-interface-display-r1.bottomlayer_pad-13" x="3416.8" y="3976"/><use xlink:href="#operator-interface-display-r1.bottomlayer_pad-13" x="3016.8" y="3976"/><use xlink:href="#operator-interface-display-r1.bottomlayer_pad-13" x="2916.8" y="3976"/><use xlink:href="#operator-interface-display-r1.bottomlayer_pad-13" x="1266.8" y="4376"/><use xlink:href="#operator-interface-display-r1.bottomlayer_pad-13" x="1116.8" y="3976"/><use xlink:href="#operator-interface-display-r1.bottomlayer_pad-13" x="1016.8" y="3976"/><use xlink:href="#operator-interface-display-r1.bottomlayer_pad-13" x="866.8" y="4376"/><use xlink:href="#operator-interface-display-r1.bottomlayer_pad-13" x="766.8" y="4376"/><use xlink:href="#operator-interface-display-r1.bottomlayer_pad-13" x="616.8" y="3976"/><use xlink:href="#operator-interface-display-r1.bottomlayer_pad-13" x="516.8" y="3976"/><use xlink:href="#operator-interface-display-r1.bottomlayer_pad-13" x="366.8" y="4376"/><use xlink:href="#operator-interface-display-r1.bottomlayer_pad-14" x="1666.8" y="5226"/><use xlink:href="#operator-interface-display-r1.bottomlayer_pad-14" x="1766.8" y="5226"/><use xlink:href="#operator-interface-display-r1.bottomlayer_pad-14" x="1866.8" y="5226"/><use xlink:href="#operator-interface-display-r1.bottomlayer_pad-14" x="1966.8" y="5226"/><use xlink:href="#operator-interface-display-r1.bottomlayer_pad-14" x="2066.8" y="5226"/><use xlink:href="#operator-interface-display-r1.bottomlayer_pad-14" x="2166.8" y="5226"/><use xlink:href="#operator-interface-display-r1.bottomlayer_pad-14" x="2266.8" y="5226"/><use xlink:href="#operator-interface-display-r1.bottomlayer_pad-14" x="2366.8" y="5226"/><use xlink:href="#operator-interface-display-r1.bottomlayer_pad-15" x="3729.4" y="4627.2"/><use xlink:href="#operator-interface-display-r1.bottomlayer_pad-15" x="3766.8" y="4627.2"/><use xlink:href="#operator-interface-display-r1.bottomlayer_pad-15" x="3804.2" y="4627.2"/><use xlink:href="#operator-interface-display-r1.bottomlayer_pad-15" x="3804.2" y="4524.8"/><use xlink:href="#operator-interface-display-r1.bottomlayer_pad-15" x="3729.4" y="4524.8"/><use xlink:href="#operator-interface-display-r1.bottomlayer_pad-16" x="3766.8" y="4326"/><use xlink:href="#operator-interface-display-r1.bottomlayer_pad-16" x="3666.8" y="4826"/><use xlink:href="#operator-interface-display-r1.bottomlayer_pad-17" x="3766.8" y="4826"/><use xlink:href="#operator-interface-display-r1.bottomlayer_pad-17" x="3866.8" y="4326"/><use xlink:href="#operator-interface-display-r1.bottomlayer_pad-18" x="2205.7" y="5476"/><use xlink:href="#operator-interface-display-r1.bottomlayer_pad-18" x="1827.8" y="5476"/><use xlink:href="#operator-interface-display-r1.bottomlayer_pad-19" x="1816.8" y="4276"/><use xlink:href="#operator-interface-display-r1.bottomlayer_pad-19" x="1916.8" y="4276"/><use xlink:href="#operator-interface-display-r1.bottomlayer_pad-19" x="1916.8" y="4176"/><use xlink:href="#operator-interface-display-r1.bottomlayer_pad-19" x="1816.8" y="4176"/><use xlink:href="#operator-interface-display-r1.bottomlayer_pad-19" x="1716.8" y="4176"/><use xlink:href="#operator-interface-display-r1.bottomlayer_pad-19" x="1716.8" y="4276"/><use xlink:href="#operator-interface-display-r1.bottomlayer_pad-19" x="1616.8" y="4276"/><use xlink:href="#operator-interface-display-r1.bottomlayer_pad-19" x="1616.8" y="4176"/><use xlink:href="#operator-interface-display-r1.bottomlayer_pad-19" x="2016.8" y="4176"/><use xlink:href="#operator-interface-display-r1.bottomlayer_pad-19" x="2116.8" y="4176"/><use xlink:href="#operator-interface-display-r1.bottomlayer_pad-19" x="2216.8" y="4176"/><use xlink:href="#operator-interface-display-r1.bottomlayer_pad-19" x="2216.8" y="4276"/><use xlink:href="#operator-interface-display-r1.bottomlayer_pad-19" x="2116.8" y="4276"/><use xlink:href="#operator-interface-display-r1.bottomlayer_pad-19" x="2016.8" y="4276"/><use xlink:href="#operator-interface-display-r1.bottomlayer_pad-19" x="2316.8" y="4276"/><use xlink:href="#operator-interface-display-r1.bottomlayer_pad-19" x="2416.8" y="4276"/><use xlink:href="#operator-interface-display-r1.bottomlayer_pad-19" x="2416.8" y="4176"/><use xlink:href="#operator-interface-display-r1.bottomlayer_pad-19" x="2316.8" y="4176"/><use xlink:href="#operator-interface-display-r1.bottomlayer_pad-20" x="2216.8" y="4351"/><use xlink:href="#operator-interface-display-r1.bottomlayer_pad-20" x="2016.8" y="4601"/><use xlink:href="#operator-interface-display-r1.bottomlayer_pad-20" x="2066.8" y="4801"/><use xlink:href="#operator-interface-display-r1.bottomlayer_pad-20" x="1866.8" y="4901"/><use xlink:href="#operator-interface-display-r1.bottomlayer_pad-20" x="1766.8" y="4851"/><use xlink:href="#operator-interface-display-r1.bottomlayer_pad-20" x="1816.8" y="4701"/><use xlink:href="#operator-interface-display-r1.bottomlayer_pad-20" x="1766.8" y="4651"/><use xlink:href="#operator-interface-display-r1.bottomlayer_pad-20" x="1666.8" y="4551"/><use xlink:href="#operator-interface-display-r1.bottomlayer_pad-20" x="1616.8" y="4451"/><use xlink:href="#operator-interface-display-r1.bottomlayer_pad-20" x="1716.8" y="5051"/><use xlink:href="#operator-interface-display-r1.bottomlayer_pad-20" x="1916.8" y="5101"/><use xlink:href="#operator-interface-display-r1.bottomlayer_pad-20" x="2266.8" y="4951"/><use xlink:href="#operator-interface-display-r1.bottomlayer_pad-20" x="2304.3" y="5001"/><use xlink:href="#operator-interface-display-r1.bottomlayer_pad-20" x="2366.8" y="5001"/><use xlink:href="#operator-interface-display-r1.bottomlayer_pad-20" x="2916.8" y="5101"/><use xlink:href="#operator-interface-display-r1.bottomlayer_pad-20" x="2916.8" y="5201"/><use xlink:href="#operator-interface-display-r1.bottomlayer_pad-20" x="2966.8" y="5251"/><use xlink:href="#operator-interface-display-r1.bottomlayer_pad-20" x="2966.8" y="4301"/><path d="M 345.3 3871.2 312 3852 3722.1 3852 3708.8 3857.2 3708.8 3857.2 3670.1 3888.1 3670.1 3888.1 3670.1 3888.1 3642.2 3929 3642.2 3929 3627.6 3976.3 3627.6 3976.3 3627.6 4025.7 3627.6 4025.7 3642.2 4073 3642.2 4073 3670.1 4113.9 3670.1 4113.9 3708.8 4144.8 3708.8 4144.8 3754.8 4162.8 3754.8 4162.8 3804.2 4166.5 3804.2 4166.5 3852.4 4155.5 3852.4 4155.5 3895.2 4130.8 3895.3 4130.8 3928.9 4094.5 3928.9 4094.5 3940.8 4069.9 3940.8 4645.8 3940.8 4648 3940.8 4651 3940.3 4655.7 3936.7 4664.3 3930.1 4671 3921.4 4674.5 3916.8 4675 3909.4 4675 3904.3 4675 3899.1 4675 3889.1 4675 3889.1 4675 3861.2 4686.6 3861.2 4686.6 3839.8 4708 3839.8 4708 3828.3 4735.9 3828.3 4735.9 3828.3 4745.8 3828.3 5133.3 3828.3 5138.1 3828.3 5143.7 3828.3 5153.6 3828.3 5153.6 3839.8 5181.6 3839.8 5181.6 3861.2 5202.9 3861.2 5202.9 3889.1 5214.5 3889.1 5214.5 3899.1 5214.5 3911.6 5214.5 3912.2 5214.5 3916.8 5214.5 3921.4 5215 3930.1 5218.6 3936.7 5225.2 3940.3 5233.8 3940.8 5238.5 3940.8 5332.1 3928.9 5307.5 3928.9 5307.5 3895.3 5271.2 3895.2 5271.2 3852.4 5246.5 3852.4 5246.5 3804.2 5235.5 3804.2 5235.5 3754.8 5239.2 3754.8 5239.2 3708.8 5257.2 3708.8 5257.2 3670.1 5288.1 3670.1 5288.1 3670.1 5288.1 3642.2 5329 3627.6 5376.3 3627.6 5425.7 3642.2 5473 3670.1 5513.9 3670.1 5513.9 3708.8 5544.8 3708.8 5544.8 3722.1 5550 312 5550 345.2 5530.8 345.3 5530.8 378.9 5494.5 378.9 5494.5 400.4 5449.9 400.4 5449.9 407.8 5401 400.4 5352.1 400.4 5352.1 378.9 5307.5 378.9 5307.5 360.4 5287.5 392.9 5287.5 445.6 5340.2 452.6 5347.2 461.8 5351 2171.7 5351 2681.4 5351 2702.6 5372.2 2711.8 5376 2721.7 5376 2777.3 5376 2770.8 5391.9 2770.8 5410.2 2777.3 5426 2727.1 5426 2680.9 5379.8 2671.7 5376 2661.8 5376 2036.8 5376 2027.6 5379.8 2020.6 5386.8 1995.6 5411.8 1991.8 5421 1991.8 5431 1991.8 5437.7 1991.3 5437.9 1979.4 5449.8 1967.4 5437.9 1950.9 5431 1933 5431 1916.5 5437.9 1903.8 5450.5 1897 5467.1 1897 5485 1903.8 5501.5 1916.5 5514.2 1933 5521 1950.9 5521 1967.4 5514.2 1979.4 5502.2 1991.3 5514.2 2007.8 5521 2025.7 5521 2042.2 5514.2 2054.9 5501.5 2056.1 5498.5 2057.3 5501.5 2070 5514.2 2086.5 5521 2104.4 5521 2121 5514.2 2133.6 5501.5 2140.4 5485.2 2140.9 5488.9 2143.1 5497.3 2146.4 5505.3 2150.7 5512.8 2156 5519.6 2162.1 5525.7 2169 5531 2176.5 5535.3 2184.5 5538.6 2192.8 5540.9 2199.7 5541.8 2199.7 5482 2211.7 5482 2211.7 5541.8 2218.6 5540.9 2227 5538.6 2235 5535.3 2242.5 5531 2249.3 5525.7 2255.5 5519.6 2260.7 5512.8 2265.1 5505.3 2268.4 5497.3 2270.6 5488.9 2271.5 5482 2211.7 5482 2211.7 5470 2271.5 5470 2270.6 5463.1 2268.4 5454.7 2265.1 5446.8 2260.7 5439.3 2255.5 5432.4 2249.3 5426.3 2249 5426 2656.4 5426 2695.6 5465.2 2702.6 5472.2 2711.8 5476 2779.3 5476 2778.3 5477.4 2775.1 5483.7 2772.9 5490.5 2771.8 5497.5 2771.8 5497.5 2813.2 5497.5 2813.2 5504.5 2771.8 5504.5 2771.8 5504.5 2772.9 5511.5 2775.1 5518.3 2778.3 5524.6 2782.4 5530.3 2787.4 5535.3 2793.2 5539.5 2799.5 5542.7 2806.2 5544.9 2813.2 5546 2813.2 5546 2813.2 5504.5 2820.3 5504.5 2861.8 5504.5 2861.8 5504.5 2860.6 5511.5 2858.5 5518.3 2855.2 5524.6 2851.1 5530.3 2846.1 5535.3 2840.3 5539.5 2834 5542.7 2827.3 5544.9 2820.3 5546 2820.3 5546 2820.3 5504.5 2820.3 5497.5 2861.8 5497.5 2861.8 5497.5 2860.6 5490.5 2858.5 5483.7 2855.2 5477.4 2854.2 5476 3377.3 5476 3370.8 5491.9 3370.8 5510.2 3377.8 5527.1 3390.7 5540 3407.6 5547 3425.9 5547 3442.8 5540 3455.7 5527.1 3462.8 5510.2 3462.8 5491.9 3456.2 5476 3511.8 5476 3521.7 5476 3530.9 5472.2 3580.9 5422.2 3587.9 5415.2 3591.8 5406 3591.8 5261.4 3627.1 5226 3724.3 5226 3734.2 5226 3743.4 5222.2 3770.3 5195.3 3777.3 5188.3 3781.1 5179.1 3781.1 5114.4 3781.6 5114.2 3794.3 5101.5 3801.1 5085 3801.1 5067.1 3794.3 5050.5 3789.8 5046 3789.8 4869 3794.2 4867.1 3807.9 4853.5 3815.3 4835.7 3815.3 4816.4 3813.4 4811.9 3827.2 4798.1 3827.2 4779.1 3827.2 4662.7 3832 4657.9 3832 4596.5 3822 4586.6 3786.3 4586.6 3784 4588.8 3783.8 4588.7 3779.7 4587.6 3766.8 4587.6 3766.8 4627.1 3766.7 4627.1 3766.7 4587.6 3753.8 4587.6 3749.8 4588.7 3749.5 4588.8 3747.2 4586.6 3711.5 4586.6 3701.5 4596.5 3701.5 4653 3579.6 4653 3564.8 4638.2 3564.8 4613.8 3584.8 4593.8 3584.8 4558.2 3559.6 4533 3523.9 4533 3498.8 4558.2 3498.8 4593.8 3518.8 4613.8 3518.8 4638.2 3498.8 4658.2 3498.8 4693.8 3523.9 4719 3559.6 4719 3579.6 4699 3726.3 4699 3739.8 4685.5 3752.4 4672.9 3752.4 4666.4 3753.8 4666.8 3766.7 4666.8 3766.7 4627.2 3766.8 4627.2 3766.8 4666.8 3779.7 4666.8 3781.2 4666.4 3781.2 4779.1 3780.9 4779.4 3776.4 4777.5 3757.1 4777.5 3739.3 4784.9 3725.6 4798.5 3718.3 4816.4 3718.3 4835.7 3725.6 4853.5 3739.3 4867.1 3743.8 4869 3743.8 5032.4 3730.6 5037.9 3718 5050.5 3716.1 5055.1 3715 5052.9 3710.9 5047.3 3706 5042.4 3700.4 5038.4 3694.3 5035.2 3687.7 5033.1 3680.8 5032 3679.3 5032 3679.3 5074.1 3675.5 5074.1 3675.5 5032 3673.9 5032 3667.1 5033.1 3660.5 5035.2 3654.3 5038.4 3648.7 5042.4 3643.8 5047.3 3639.8 5052.9 3636.6 5059.1 3634.5 5065.7 3633.4 5072.5 3633.4 5074.1 3675.5 5074.1 3675.5 5077.9 3675.5 5120 3673.9 5120 3667.1 5118.9 3660.5 5116.8 3654.3 5113.6 3648.7 5109.6 3643.8 5104.7 3639.8 5099.1 3636.6 5092.9 3634.5 5086.3 3633.4 5079.5 3633.4 5077.9 3675.5 5077.9 3679.3 5077.9 3679.3 5120 3680.8 5120 3687.7 5118.9 3694.3 5116.8 3700.4 5113.6 3706 5109.6 3710.9 5104.7 3715 5099.1 3716.1 5096.9 3718 5101.5 3730.6 5114.2 3731.1 5114.4 3731.1 5163.8 3718.9 5176 3611.8 5176 3602.6 5179.8 3595.6 5186.8 3545.6 5236.8 3541.8 5246 3541.8 5256 3541.8 5390.7 3506.4 5426 3454.2 5426 3455.2 5424.6 3458.5 5418.3 3460.6 5411.5 3461.8 5404.5 3461.8 5404.5 3420.3 5404.5 3420.3 5397.5 3461.8 5397.5 3461.8 5397.5 3460.6 5390.5 3458.5 5383.7 3455.2 5377.4 3451.1 5371.7 3446.1 5366.7 3440.3 5362.5 3434 5359.3 3427.3 5357.1 3420.3 5356 3420.3 5356 3420.3 5397.5 3413.2 5397.5 3371.8 5397.5 3371.8 5397.5 3372.9 5390.5 3375.1 5383.7 3378.3 5377.4 3382.4 5371.7 3387.4 5366.7 3393.2 5362.5 3399.5 5359.3 3406.2 5357.1 3413.2 5356 3413.2 5356 3413.2 5397.5 3413.2 5404.5 3371.8 5404.5 3371.8 5404.5 3372.9 5411.5 3375.1 5418.3 3378.3 5424.6 3379.3 5426 3356.2 5426 3362.8 5410.2 3362.8 5391.9 3355.7 5374.9 3342.8 5362 3325.9 5355 3307.6 5355 3290.7 5362 3277.8 5374.9 3270.8 5391.9 3270.8 5410.2 3277.3 5426 2856.2 5426 2862.8 5410.2 2862.8 5391.9 2856.2 5376 2961.8 5376 2971.7 5376 2980.9 5372.2 3027.1 5326 3377.3 5326 3377.8 5327.1 3390.7 5340 3407.6 5347 3425.9 5347 3442.8 5340 3455.7 5327.1 3462.8 5310.2 3462.8 5291.9 3455.7 5274.9 3442.8 5262 3425.9 5255 3407.6 5255 3390.7 5262 3377.8 5274.9 3377.3 5276 3041.8 5276 3041.8 4246 3041.8 4240.4 3042.8 4240 3043.8 4239.1 3043.8 4860.5 3057.2 4874 3257.2 5074 3276.3 5074 3278.7 5074 3277.8 5074.9 3270.8 5091.9 3270.8 5110.2 3041.8 5110.2 M 3041.8 5098.4 3270.8 5098.4 M 3270.8 5110.2 3277.8 5127.1 3290.7 5140 3307.6 5147 3325.9 5147 3342.8 5140 3355.7 5127.1 3362.8 5110.2 3362.8 5091.9 3355.7 5074.9 3354.8 5074 3378.7 5074 3377.8 5074.9 3370.8 5091.9 3370.8 5110.2 3362.7 5110.2 M 3370.8 5110.2 3377.8 5127.1 3390.7 5140 3407.6 5147 3425.9 5147 3442.8 5140 3455.7 5127.1 3462.8 5110.2 3462.8 5091.9 3455.7 5074.9 3454.8 5074 3498.8 5074 3498.8 5093.8 3523.9 5119 3559.6 5119 3584.8 5093.8 3584.8 5058.2 3559.6 5033 3531.3 5033 3526.3 5028 3454.8 5028 3455.7 5027.1 3462.8 5010.2 3462.8 4991.9 3455.7 4974.9 3442.8 4962 3425.9 4955 3407.6 4955 3390.7 4962 3377.8 4974.9 3370.8 4991.9 3370.8 5010.2 3377.8 5027.1 3378.7 5028 3354.8 5028 3355.7 5027.1 3362.8 5010.2 3362.8 4991.9 3355.7 4974.9 3342.8 4962 3325.9 4955 3307.6 4955 3290.7 4962 3277.8 4974.9 3270.8 4991.9 3270.8 5010.2 3277.8 5027.1 3278.7 5028 3276.3 5028 3089.8 4841.5 3089.8 4237 3093.2 4239.5 3099.5 4242.7 3106.2 4244.9 3113.2 4246 3113.2 4246 3113.2 4204.5 3120.3 4204.5 3161.8 4204.5 3161.8 4204.5 3160.6 4211.5 3158.5 4218.3 3155.2 4224.6 3151.1 4230.3 3146.1 4235.3 3140.3 4239.5 3134 4242.7 3127.3 4244.9 3120.3 4246 3120.3 4246 3120.3 4204.5 3120.3 4197.5 3161.8 4197.5 3161.8 4197.5 3160.6 4190.5 3158.5 4183.7 3155.2 4177.4 3151.1 4171.7 3146.1 4166.7 3140.3 4162.5 3134 4159.3 3127.3 4157.1 3120.3 4156 3120.3 4156 3120.3 4197.5 3113.2 4197.5 3113.2 4156 3113.2 4156 3106.2 4157.1 3099.5 4159.3 3093.2 4162.5 3089.8 4165 3089.8 4135.5 3089.8 4116.5 2959.8 3986.5 2959.8 3958.2 2934.6 3933 2898.9 3933 2873.8 3958.2 2873.8 3993.8 2898.9 4019 2927.2 4019 3043.8 4135.5 3043.8 4163 3042.8 4162 3025.9 4155 3007.6 4155 2990.7 4162 2977.8 4174.9 2970.8 4191.9 2970.8 4210.2 2977.3 4226 2956.2 4226 2962.8 4210.2 2962.8 4191.9 2955.7 4174.9 2942.8 4162 2925.9 4155 2907.6 4155 2890.7 4162 2877.8 4174.9 2870.8 4191.9 2870.8 4210.2 2877.3 4226 2856.2 4226 2862.8 4210.2 2862.8 4191.9 2855.7 4174.9 2842.8 4162 2825.9 4155 2807.6 4155 2790.7 4162 2777.8 4174.9 2770.8 4191.9 2770.8 4210.2 2777.3 4226 2502.1 4226 2463.8 4187.7 2463.8 4156.5 2436.2 4129 2397.3 4129 2369.8 4156.5 2369.8 4195.5 2397.3 4223 2428.4 4223 2435.4 4230 2420.8 4230 2420.8 4272 2420.8 4280 2462.8 4280 2462.8 4295.1 2435.8 4322 2420.8 4322 2420.8 4280 2412.7 4280 2412.7 4322 2397.7 4322 2389.8 4314.1 2389.8 4971.9 2398 4980.2 2403.6 4993.7 2403.6 5008.3 2398 5021.9 2391.8 5028 2778.7 5028 2777.8 5027.1 2770.8 5010.2 2770.8 4991.9 2777.8 4974.9 2790.7 4962 2807.6 4955 2825.9 4955 2842.8 4962 2855.7 4974.9 2862.8 4991.9 2862.8 5010.2 2855.7 5027.1 2854.8 5028 2876.3 5028 2889.8 5041.5 2912.5 5064.2 2924.1 5064.2 2937.6 5069.8 2943.8 5076 2943.8 4330.1 2935.5 4321.9 2929.9 4308.3 2929.9 4293.7 2935.5 4280.2 2939.7 4276 2856.2 4276 2862.8 4291.9 2862.8 4310.2 2855.7 4327.1 2842.8 4340 2825.9 4347 2807.6 4347 2790.7 4340 2777.8 4327.1 2770.8 4310.2 2770.8 4291.9 2777.3 4276 2486.8 4276 2477.6 4272.2 2470.6 4265.2 2462.8 4257.4 2462.8 4272 2420.8 4272 2412.7 4272 2412.7 4230 2397.7 4230 2389.8 4238 2389.8 4216.5 2376.3 4203 2363.8 4190.5 2363.8 4156.5 2336.2 4129 2297.3 4129 2269.8 4156.5 2269.8 4195.5 2297.3 4223 2331.2 4223 2343.8 4235.5 2343.8 4236.5 2336.2 4229 2297.3 4229 2289.8 4236.5 2289.8 4216.5 2276.3 4203 2263.8 4190.5 2263.8 4156.5 2236.2 4129 2197.3 4129 2169.8 4156.5 2169.8 4195.5 2197.3 4223 2231.2 4223 2243.8 4235.5 2243.8 4236.5 2236.2 4229 2197.3 4229 2189.8 4236.5 2189.8 4235.5 2189.8 4216.5 2163.8 4190.5 2163.8 4156.5 2136.2 4129 2097.3 4129 2069.8 4156.5 2069.8 4195.5 2097.3 4223 2131.2 4223 2143.8 4235.5 2143.8 4236.5 2136.2 4229 2097.3 4229 2089.8 4236.5 2089.8 4216.5 2076.3 4203 2063.8 4190.5 2063.8 4156.5 2036.2 4129 1997.3 4129 1969.8 4156.5 1969.8 4195.5 1997.3 4223 2031.2 4223 2043.8 4235.5 2043.8 4236.5 2036.2 4229 1997.3 4229 1989.8 4236.5 1989.8 4216.5 1976.3 4203 1963.8 4190.5 1963.8 4156.5 1936.2 4129 1897.3 4129 1869.8 4156.5 1869.8 4195.5 1897.3 4223 1931.2 4223 1943.8 4235.5 1943.8 4236.5 1936.2 4229 1897.3 4229 1889.8 4236.5 1889.8 4216.5 1876.3 4203 1863.8 4190.5 1863.8 4156.5 1836.2 4129 1797.3 4129 1769.8 4156.5 1769.8 4195.5 1797.3 4223 1831.2 4223 1843.8 4235.5 1843.8 4236.5 1836.2 4229 1797.3 4229 1789.8 4236.5 1789.8 4235.5 1789.8 4216.5 1763.8 4190.5 1763.8 4156.5 1736.2 4129 1697.3 4129 1669.8 4156.5 1669.8 4195.5 1697.3 4223 1731.2 4223 1743.8 4235.5 1743.8 4236.5 1736.2 4229 1697.3 4229 1689.8 4236.5 1689.8 4235.5 1689.8 4216.5 1663.8 4190.5 1663.8 4156.5 1636.2 4129 1597.3 4129 1569.8 4156.5 1569.8 4195.5 1597.3 4223 1631.2 4223 1643.8 4235.5 1643.8 4236.5 1636.2 4229 1597.3 4229 1569.8 4256.5 1569.8 4295.5 1593.8 4319.5 1593.8 4421.9 1585.5 4430.2 1579.9 4443.7 1579.9 4458.3 1585.5 4471.9 1595.9 4482.2 1609.4 4487.8 1624.1 4487.8 1637.6 4482.2 1643.8 4476.1 1643.8 4521.9 1635.5 4530.2 1629.9 4543.7 1629.9 4558.3 1635.5 4571.9 1645.9 4582.2 1659.4 4587.8 1674.1 4587.8 1687.6 4582.2 1693.8 4576.1 1693.8 5021.9 1685.5 5030.2 1679.9 5043.7 1679.9 5058.3 1685.5 5071.9 1695.9 5082.2 1709.4 5087.8 1724.1 5087.8 1737.6 5082.2 1743.8 5076.1 1743.8 5181.4 1738.4 5183.6 1724.4 5197.7 1716.8 5216.1 1716.8 5236 1709.1 5254.3 1695.1 5268.4 1676.7 5276 1656.8 5276 1638.4 5268.4 1624.4 5254.3 1616.8 5236 1616.8 5216.1 1624.4 5197.7 1638.4 5183.6 1656.8 5176 1676.7 5176 1695.1 5183.6 1709.1 5197.7 1716.8 5216.1 1716.8 5236 1724.4 5254.3 1738.4 5268.4 1756.8 5276 1776.7 5276 1795.1 5268.4 1809.1 5254.3 1816.8 5236 1816.8 5216.1 1824.4 5197.7 1838.4 5183.6 1856.8 5176 1876.7 5176 1895.1 5183.6 1909.1 5197.7 1916.8 5216.1 1924.4 5197.7 1938.4 5183.6 1956.8 5176 1976.7 5176 1995.1 5183.6 2009.1 5197.7 2016.8 5216.1 2024.4 5197.7 2038.4 5183.6 2056.8 5176 2076.7 5176 2095.1 5183.6 2109.1 5197.7 2116.8 5216.1 2124.4 5197.7 2138.4 5183.6 2156.8 5176 2176.7 5176 2195.1 5183.6 2209.1 5197.7 2216.8 5216.1 2224.4 5197.7 2238.4 5183.6 2256.8 5176 2276.7 5176 2295.1 5183.6 2309.1 5197.7 2316.8 5216.1 2316.8 5236 2309.1 5254.3 2295.1 5268.4 2276.7 5276 2256.8 5276 2238.4 5268.4 2224.4 5254.3 2216.8 5236 2216.8 5216.1 2216.8 5236 2209.1 5254.3 2195.1 5268.4 2191.8 5269.8 2191.8 5301 2567 5301 2543.9 5291.4 2522.2 5269.7 2510.4 5241.4 2510.4 5210.7 2522.2 5182.3 2543.9 5160.6 2571.8 5149 2007.2 5149 1993.8 5135.5 1953.6 5095.3 1953.6 5108.3 1948 5121.9 1937.6 5132.2 1924.1 5137.8 1909.4 5137.8 1895.9 5132.2 1885.5 5121.9 1879.9 5108.3 1879.9 5093.7 1885.5 5080.2 1893.8 5071.9 1893.8 4926.1 1887.6 4932.2 1874.1 4937.8 1859.4 4937.8 1845.9 4932.2 1835.5 4921.9 1829.9 4908.3 1829.9 4893.7 1835.5 4880.2 1843.8 4871.9 1843.8 4726.1 1837.6 4732.2 1824.1 4737.8 1809.4 4737.8 1795.9 4732.2 1785.5 4721.9 1779.9 4708.3 1779.9 4693.7 1784.1 4683.7 1774.1 4687.8 1759.4 4687.8 1745.9 4682.2 1739.8 4676.1 1739.8 4826 1745.9 4819.8 1759.4 4814.2 1774.1 4814.2 1787.6 4819.8 1798 4830.2 1803.6 4843.7 1803.6 4858.3 1798 4871.9 1789.8 4880.1 1789.8 5181.4 1795.1 5183.6 1809.1 5197.7 1816.8 5216.1 1816.8 5236 1824.4 5254.3 1838.4 5268.4 1856.8 5276 1876.7 5276 1895.1 5268.4 1909.1 5254.3 1916.8 5236 1916.8 5216.1 1916.8 5236 1924.4 5254.3 1938.4 5268.4 1956.8 5276 1976.7 5276 1995.1 5268.4 2009.1 5254.3 2016.8 5236 2016.8 5216.1 2016.8 5236 2024.4 5254.3 2038.4 5268.4 2056.8 5276 2076.7 5276 2095.1 5268.4 2109.1 5254.3 2116.8 5236 2116.8 5216.1 2116.8 5236 2124.4 5254.3 2138.4 5268.4 2141.8 5269.8 2141.8 5301 1466.5 5301 1489.6 5291.4 1511.3 5269.7 1523.1 5241.4 1523.1 5210.7 1511.3 5182.3 1489.6 5160.6 1461.2 5148.8 1430.5 5148.8 1402.2 5160.6 1380.5 5182.3 1368.7 5210.7 1368.7 5241.4 1380.5 5269.7 1402.2 5291.4 1425.3 5301 477.1 5301 428.7 5252.6 428.7 5207.5 418.7 5197.5 413.6 5197.5 421.8 5189.3 428.7 5172.8 428.7 5154.9 421.8 5138.3 409.2 5125.7 406.2 5124.4 409.2 5123.2 421.8 5110.6 428.7 5094 428.7 5076.1 421.8 5059.6 409.2 5046.9 406.2 5045.7 409.2 5044.5 421.8 5031.8 428.7 5015.3 428.7 4997.4 421.8 4980.8 409.2 4968.2 406.2 4966.9 409.2 4965.7 421.8 4953.1 428.7 4936.5 428.7 4918.6 421.8 4902.1 409.2 4889.4 406.2 4888.2 409.2 4887 421.8 4874.3 422.9 4871.8 634.4 4871.8 653.4 4871.8 776.3 4749 789.8 4735.5 789.8 4413.8 809.8 4393.8 809.8 4358.2 784.6 4333 748.9 4333 723.8 4358.2 723.8 4393.8 743.8 4413.8 743.8 4716.5 634.4 4825.8 422.9 4825.8 421.8 4823.4 409.2 4810.7 406.2 4809.5 409.2 4808.2 421.8 4795.6 428.7 4779.1 428.7 4761.1 421.8 4744.6 409.2 4732 406.2 4730.7 409.2 4729.5 421.8 4716.9 428.7 4700.3 428.7 4682.4 421.8 4665.9 409.2 4653.2 406.2 4652 409.2 4650.8 421.8 4638.1 428.7 4621.6 428.7 4603.7 421.8 4587.1 409.2 4574.5 404.6 4572.6 406.7 4571.5 412.3 4567.4 417.2 4562.5 421.3 4556.9 424.5 4550.8 426.6 4544.2 427.7 4537.3 427.7 4534.8 384.6 4534.8 384.6 4533 427.7 4533 427.7 4530.4 426.6 4523.6 424.5 4517 421.3 4510.8 417.2 4505.2 412.3 4500.3 406.7 4496.2 400.6 4493.1 394 4491 387.1 4489.9 384.6 4489.9 384.6 4533 382.8 4533 339.7 4533 339.7 4530.4 340.8 4523.6 342.9 4517 346.1 4510.8 350.1 4505.2 355 4500.3 360.6 4496.2 366.8 4493.1 373.4 4491 380.2 4489.9 382.8 4489.9 382.8 4533 382.8 4534.8 339.7 4534.8 339.7 4537.3 340.8 4544.2 342.9 4550.8 346.1 4556.9 350.1 4562.5 355 4567.4 360.6 4571.5 362.7 4572.6 358.2 4574.5 345.5 4587.1 338.7 4603.7 338.7 4621.6 345.5 4638.1 358.2 4650.8 361.1 4652 358.2 4653.2 345.5 4665.9 338.7 4682.4 338.7 4700.3 345.5 4716.9 358.2 4729.5 361.1 4730.7 358.2 4732 345.5 4744.6 338.7 4761.1 338.7 4779.1 345.5 4795.6 358.2 4808.2 361.1 4809.5 358.2 4810.7 345.5 4823.4 338.7 4839.9 338.7 4857.8 345.5 4874.3 358.2 4887 361.1 4888.2 358.2 4889.4 345.5 4902.1 338.7 4918.6 338.7 4936.5 345.5 4953.1 358.2 4965.7 361.1 4966.9 358.2 4968.2 345.5 4980.8 338.7 4997.4 338.7 5015.3 345.5 5031.8 358.2 5044.5 361.1 5045.7 358.2 5046.9 345.5 5059.6 338.7 5076.1 338.7 5094 345.5 5110.6 358.2 5123.2 361.1 5124.4 358.2 5125.7 345.5 5138.3 338.7 5154.9 338.7 5172.8 345.5 5189.3 353.8 5197.5 348.6 5197.5 338.7 5207.5 338.7 5267.4 302.4 5246.5 302.4 5246.5 254.2 5235.5 254.2 5235.5 204.8 5239.2 204.8 5239.2 158.8 5257.2 158.8 5257.2 120.1 5288.1 120.1 5288.1 120.1 5288.1 92.8 5328.2 92.8 4073.8 120.1 4113.9 120.1 4113.9 158.8 4144.8 158.8 4144.8 204.8 4162.8 204.8 4162.8 254.2 4166.5 254.2 4166.5 302.4 4155.5 302.4 4155.5 345.2 4130.8 345.3 4130.8 378.9 4094.5 378.9 4094.5 400.4 4049.9 400.4 4049.9 407.8 4001 400.4 3952.1 400.4 3952.1 378.9 3907.5 345.3 3871.2 345.3 3871.2 M 351 3877.4 3683.5 3877.4 M 3669.3 3889.2 362 3889.2 M 373 3901.1 3661.2 3901.1 M 3653.1 3912.9 381.5 3912.9 M 387.2 3924.8 3645 3924.8 M 3639.8 3936.6 3538.2 3936.6 M 3534.6 3933 3559.8 3958.2 3559.8 3993.8 3534.6 4019 3498.9 4019 3473.8 3993.8 3473.8 3958.2 3498.9 3933 3534.6 3933 M 3550.1 3948.5 3636.2 3948.5 M 3632.5 3960.4 3559.8 3960.4 M 3559.8 3972.2 3628.9 3972.2 M 3627.6 3984.1 3559.8 3984.1 M 3557.6 3995.9 3627.6 3995.9 M 3627.6 4007.8 3545.8 4007.8 M 3487.7 4007.8 3445.8 4007.8 M 3439.8 4013.8 3439.8 4116.5 3498.8 4175.5 3498.8 4158.2 3523.9 4133 3559.6 4133 3584.8 4158.2 3584.8 4193.8 3575.6 4203 3609.4 4203 3599.8 4193.4 3599.8 4178 3639.7 4178 3639.7 4174 3599.8 4174 3599.8 4158.6 3624.4 4134 3639.7 4134 3639.7 4174 3643.8 4174 3643.8 4178 3683.8 4178 3683.8 4193.4 3674.1 4203 3819.7 4203 3838.8 4203 3876.3 4240.5 3889.8 4254 3889.8 4283 3894.2 4284.9 3907.9 4298.5 3915.3 4316.4 3915.3 4335.7 3907.9 4353.5 3894.2 4367.1 3889.8 4369 3889.8 4410.5 3876.3 4424 3827.2 4473.1 3827.2 4489.3 3832 4494.2 3832 4555.5 3822 4565.4 3786.3 4565.4 3776.3 4555.5 3776.3 4494.2 3781.2 4489.3 3781.2 4473.1 3781.2 4454.1 3843.8 4391.5 3843.8 4369 3839.3 4367.1 3825.6 4353.5 3818.3 4335.7 3818.3 4316.4 3825.6 4298.5 3839.3 4284.9 3843.8 4283 3843.8 4273 3819.7 4249 3507.2 4249 3493.8 4235.5 3462.8 4204.5 3462.8 4210.2 3455.7 4227.1 3442.8 4240 3425.9 4247 3407.6 4247 3390.7 4240 3377.8 4227.1 3370.8 4210.2 3370.8 4191.9 3377.8 4174.9 3390.7 4162 3407.6 4155 3413.2 4155 3393.8 4135.5 3393.8 4116.5 3393.8 4013.8 3373.8 3993.8 3373.8 3958.2 3398.9 3933 3434.6 3933 3459.8 3958.2 3459.8 3993.8 3439.8 4013.8 M 3439.8 4019.6 3627.6 4019.6 M 3629.4 4031.5 3439.8 4031.5 M 3439.8 4043.3 3633 4043.3 M 3636.7 4055.2 3439.8 4055.2 M 3439.8 4067 3640.4 4067 M 3646.2 4078.9 3439.8 4078.9 M 3439.8 4090.8 3654.3 4090.8 M 3662.4 4102.6 3439.8 4102.6 M 3439.8 4114.5 3670.8 4114.5 M 3670.1 4113.9 3670.1 4113.9 M 3685.6 4126.3 3449.6 4126.3 M 3461.4 4138.2 3518.8 4138.2 M 3506.9 4150 3473.3 4150 M 3485.1 4161.9 3498.8 4161.9 M 3498.8 4173.7 3497 4173.7 M 3467.5 4209.3 3462.8 4209.3 M 3458.2 4221.1 3479.4 4221.1 M 3491.2 4233 3449.8 4233 M 3431.1 4244.9 3503.1 4244.9 M 3516.8 4226 3829.3 4226 3866.8 4263.5 3866.8 4326 3866.8 4401 3804.2 4463.6 3804.2 4524.8 M 3832 4529.4 3940.8 4529.4 M 3940.8 4541.2 3832 4541.2 M 3832 4553.1 3940.8 4553.1 M 3940.8 4564.9 3822.5 4564.9 M 3824.1 4588.6 3940.8 4588.6 M 3940.8 4576.8 3684.8 4576.8 M 3684.8 4588.6 3709.4 4588.6 M 3701.5 4600.5 3678.1 4600.5 M 3684.8 4593.8 3659.6 4619 3623.9 4619 3598.8 4593.8 3598.8 4558.2 3618.8 4538.2 3618.8 4454 3632.2 4440.5 3632.2 4440.5 3644.7 4428 3663.8 4428 3707.2 4428 3726.3 4428 3752.4 4454.1 3752.4 4473.1 3752.4 4489.3 3757.2 4494.2 3757.2 4555.5 3747.2 4565.4 3711.5 4565.4 3701.5 4555.5 3701.5 4494.2 3706.4 4489.3 3706.4 4474 3664.8 4474 3664.8 4538.2 3684.8 4558.2 3684.8 4593.8 M 3701.5 4612.3 3666.2 4612.3 M 3701.5 4624.2 3564.8 4624.2 M 3564.8 4636.1 3701.5 4636.1 M 3701.5 4647.9 3574.5 4647.9 M 3566.2 4612.3 3617.3 4612.3 M 3605.4 4600.5 3578.1 4600.5 M 3584.8 4588.6 3598.8 4588.6 M 3598.8 4576.8 3584.8 4576.8 M 3584.8 4564.9 3598.8 4564.9 M 3603.9 4553.1 3579.6 4553.1 M 3567.8 4541.2 3615.7 4541.2 M 3618.8 4529.4 3453.4 4529.4 M 3455.7 4527.1 3442.8 4540 3425.9 4547 3407.6 4547 3390.7 4540 3377.8 4527.1 3370.8 4510.2 3370.8 4491.9 3377.8 4474.9 3390.7 4462 3407.6 4455 3425.9 4455 3442.8 4462 3455.7 4474.9 3462.8 4491.9 3462.8 4510.2 3455.7 4527.1 M 3459.7 4517.5 3618.8 4517.5 M 3618.8 4505.7 3462.8 4505.7 M 3462.8 4493.8 3618.8 4493.8 M 3618.8 4481.9 3458.6 4481.9 M 3450.9 4470.1 3618.8 4470.1 M 3618.8 4458.2 3433.7 4458.2 M 3427.4 4446.4 3626.4 4446.4 M 3638.2 4434.5 3448.3 4434.5 M 3442.8 4440 3455.7 4427.1 3462.8 4410.2 3462.8 4391.9 3455.7 4374.9 3442.8 4362 3425.9 4355 3407.6 4355 3390.7 4362 3377.8 4374.9 3370.8 4391.9 3370.8 4410.2 3377.8 4427.1 3390.7 4440 3407.6 4447 3425.9 4447 3442.8 4440 M 3457.6 4422.7 3812.6 4422.7 M 3824.4 4410.8 3462.5 4410.8 M 3462.8 4399 3836.3 4399 M 3843.8 4387.1 3460.8 4387.1 M 3455.9 4375.3 3843.8 4375.3 M 3835.6 4363.4 3796.5 4363.4 M 3786.4 4373.5 3814.3 4345.7 3814.3 4328 3768.8 4328 3768.8 4324 3814.3 4324 3814.3 4306.3 3786.4 4278.5 3768.8 4278.5 3768.8 4324 3764.7 4324 3719.3 4324 3719.3 4306.3 3747.1 4278.5 3764.7 4278.5 3764.7 4324 3764.7 4328 3719.3 4328 3719.3 4345.7 3747.1 4373.5 3764.7 4373.5 3764.7 4328 3768.8 4328 3768.8 4373.5 3786.4 4373.5 M 3768.8 4363.4 3764.7 4363.4 M 3764.7 4351.5 3768.8 4351.5 M 3768.8 4339.7 3764.7 4339.7 M 3764.7 4327.8 3455 4327.8 M 3455.7 4327.1 3442.8 4340 3425.9 4347 3407.6 4347 3390.7 4340 3377.8 4327.1 3370.8 4310.2 3370.8 4291.9 3377.8 4274.9 3390.7 4262 3407.6 4255 3425.9 4255 3442.8 4262 3455.7 4274.9 3462.8 4291.9 3462.8 4310.2 3455.7 4327.1 M 3460.3 4316 3719.3 4316 M 3721.5 4304.1 3462.8 4304.1 M 3462.8 4292.3 3733.3 4292.3 M 3745.2 4280.4 3458 4280.4 M 3449.4 4268.6 3839.3 4268.6 M 3843.8 4280.4 3788.3 4280.4 M 3800.2 4292.3 3831.9 4292.3 M 3823.3 4304.1 3812.1 4304.1 M 3814.3 4316 3818.4 4316 M 3818.3 4327.8 3768.8 4327.8 M 3768.8 4316 3764.7 4316 M 3764.7 4304.1 3768.8 4304.1 M 3768.8 4292.3 3764.7 4292.3 M 3764.7 4280.4 3768.8 4280.4 M 3827.4 4256.7 3430 4256.7 M 3403.5 4256.7 3089.8 4256.7 M 3089.8 4244.9 3106.1 4244.9 M 3113.2 4244.9 3120.3 4244.9 M 3127.4 4244.9 3202.4 4244.9 M 3207.6 4247 3190.7 4240 3177.8 4227.1 3170.8 4210.2 3170.8 4191.9 3177.8 4174.9 3190.7 4162 3207.6 4155 3225.9 4155 3242.8 4162 3255.7 4174.9 3262.8 4191.9 3262.8 4210.2 3255.7 4227.1 3242.8 4240 3225.9 4247 3207.6 4247 M 3231.1 4244.9 3302.4 4244.9 M 3307.6 4247 3290.7 4240 3277.8 4227.1 3270.8 4210.2 3270.8 4191.9 3277.8 4174.9 3290.7 4162 3307.6 4155 3325.9 4155 3342.8 4162 3355.7 4174.9 3362.8 4191.9 3362.8 4210.2 3355.7 4227.1 3342.8 4240 3325.9 4247 3307.6 4247 M 3331.1 4244.9 3402.4 4244.9 M 3383.7 4233 3349.8 4233 M 3358.2 4221.1 3375.3 4221.1 M 3370.8 4209.3 3362.8 4209.3 M 3362.8 4197.4 3370.8 4197.4 M 3373.4 4185.6 3360.2 4185.6 M 3354.5 4173.7 3379 4173.7 M 3391 4161.9 3342.5 4161.9 M 3291 4161.9 3242.5 4161.9 M 3254.5 4173.7 3279 4173.7 M 3273.4 4185.6 3260.2 4185.6 M 3262.8 4197.4 3270.8 4197.4 M 3270.8 4209.3 3262.8 4209.3 M 3258.2 4221.1 3275.3 4221.1 M 3283.7 4233 3249.8 4233 M 3191 4161.9 3139.1 4161.9 M 3152.6 4173.7 3179 4173.7 M 3173.4 4185.6 3159.1 4185.6 M 3161.7 4197.4 3170.8 4197.4 M 3170.8 4209.3 3161 4209.3 M 3157 4221.1 3175.3 4221.1 M 3183.7 4233 3148.4 4233 M 3120.3 4233 3113.2 4233 M 3113.2 4221.1 3120.3 4221.1 M 3120.3 4209.3 3113.2 4209.3 M 3113.2 4197.4 3120.3 4197.4 M 3120.3 4185.6 3113.2 4185.6 M 3113.2 4173.7 3120.3 4173.7 M 3120.3 4161.9 3113.2 4161.9 M 3094.4 4161.9 3089.8 4161.9 M 3089.8 4150 3408.3 4150 M 3396.4 4138.2 3089.8 4138.2 M 3089.8 4126.3 3393.8 4126.3 M 3393.8 4114.5 3087.7 4114.5 M 3075.9 4102.6 3393.8 4102.6 M 3393.8 4090.8 3064 4090.8 M 3052.2 4078.9 3393.8 4078.9 M 3393.8 4067 3040.3 4067 M 3028.5 4055.2 3393.8 4055.2 M 3393.8 4043.3 3016.6 4043.3 M 3004.7 4031.5 3393.8 4031.5 M 3393.8 4019.6 2992.9 4019.6 M 2999.4 4018 2974.8 3993.4 2974.8 3978 3014.7 3978 3014.7 3974 2974.8 3974 2974.8 3958.6 2999.4 3934 3014.7 3934 3014.7 3974 3018.8 3974 3018.8 3978 3058.8 3978 3058.8 3993.4 3034.1 4018 3018.8 4018 3018.8 3978 3014.7 3978 3014.7 4018 2999.4 4018 M 2989.1 4007.8 2981 4007.8 M 2977.3 3995.9 2969.2 3995.9 M 2974.8 3984.1 2959.8 3984.1 M 2959.8 3972.2 2974.8 3972.2 M 2974.8 3960.4 2959.8 3960.4 M 2950.1 3948.5 2984.9 3948.5 M 2996.7 3936.6 2938.2 3936.6 M 2895.3 3936.6 1136.8 3936.6 M 1134.1 3934 1158.8 3958.6 1158.8 3974 1118.8 3974 1118.8 3978 1158.8 3978 1158.8 3993.4 1134.1 4018 1118.8 4018 1118.8 3978 1114.7 3978 1114.7 3974 1074.8 3974 1074.8 3958.6 1099.4 3934 1114.7 3934 1114.7 3974 1118.8 3974 1118.8 3934 1134.1 3934 M 1118.8 3936.6 1114.7 3936.6 M 1114.7 3948.5 1118.8 3948.5 M 1118.8 3960.4 1114.7 3960.4 M 1114.7 3972.2 1118.8 3972.2 M 1114.7 3978 1074.8 3978 1074.8 3993.4 1099.4 4018 1114.7 4018 1114.7 3978 M 1114.7 3984.1 1118.8 3984.1 M 1118.8 3995.9 1114.7 3995.9 M 1114.7 4007.8 1118.8 4007.8 M 1144.4 4007.8 1393.6 4007.8 M 1402.2 3999.2 1430.5 3987.4 1461.2 3987.4 1489.6 3999.2 1511.3 4020.9 1523.1 4049.2 1523.1 4079.9 1511.3 4108.3 1489.6 4130 1461.2 4141.8 1430.5 4141.8 1402.2 4130 1380.5 4108.3 1368.7 4079.9 1368.7 4049.2 1380.5 4020.9 1402.2 3999.2 M 1410 3995.9 1156.2 3995.9 M 1158.8 3984.1 2873.8 3984.1 M 2873.8 3972.2 1158.8 3972.2 M 1158.8 3960.4 2873.8 3960.4 M 2883.5 3948.5 1148.6 3948.5 M 1096.7 3936.6 1038.2 3936.6 M 1034.6 3933 1059.8 3958.2 1059.8 3993.8 1039.8 4013.8 1039.8 4316.5 1076.3 4353 1228.9 4353 1248.9 4333 1284.6 4333 1309.8 4358.2 1309.8 4393.8 1284.6 4419 1248.9 4419 1228.9 4399 1057.2 4399 1043.8 4385.5 993.8 4335.5 993.8 4316.5 993.8 4013.8 973.8 3993.8 973.8 3958.2 998.9 3933 1034.6 3933 M 1050.1 3948.5 1084.9 3948.5 M 1074.8 3960.4 1059.8 3960.4 M 1059.8 3972.2 1074.8 3972.2 M 1074.8 3984.1 1059.8 3984.1 M 1057.6 3995.9 1077.3 3995.9 M 1089.1 4007.8 1045.8 4007.8 M 1039.8 4019.6 1381.7 4019.6 M 1376.1 4031.5 1039.8 4031.5 M 1039.8 4043.3 1371.1 4043.3 M 1368.7 4055.2 1039.8 4055.2 M 1039.8 4067 1368.7 4067 M 1368.7 4078.9 1039.8 4078.9 M 1039.8 4090.8 1373.2 4090.8 M 1378.1 4102.6 1039.8 4102.6 M 1039.8 4114.5 1386.6 4114.5 M 1398.5 4126.3 1039.8 4126.3 M 1039.8 4138.2 1421.9 4138.2 M 1469.9 4138.2 1588.1 4138.2 M 1576.3 4150 1039.8 4150 M 1039.8 4161.9 1569.8 4161.9 M 1569.8 4173.7 1039.8 4173.7 M 1039.8 4185.6 1569.8 4185.6 M 1571.7 4197.4 1039.8 4197.4 M 1039.8 4209.3 1583.6 4209.3 M 1595.4 4221.1 1039.8 4221.1 M 1039.8 4233 1593.3 4233 M 1581.4 4244.9 1039.8 4244.9 M 1039.8 4256.7 1569.8 4256.7 M 1569.8 4268.6 1039.8 4268.6 M 1039.8 4280.4 1569.8 4280.4 M 1569.8 4292.3 1039.8 4292.3 M 1039.8 4304.1 1578.4 4304.1 M 1590.3 4316 1039.8 4316 M 1051.1 4327.8 1593.8 4327.8 M 1593.8 4339.7 1291.2 4339.7 M 1303.1 4351.5 1593.8 4351.5 M 1593.8 4363.4 1309.8 4363.4 M 1309.8 4375.3 1593.8 4375.3 M 1593.8 4387.1 1309.8 4387.1 M 1304.6 4399 1593.8 4399 M 1593.8 4410.8 1292.7 4410.8 M 1266.8 4376 1066.8 4376 1016.8 4326 1016.8 3976 M 987.7 4007.8 644.4 4007.8 M 634.1 4018 618.8 4018 618.8 3978 658.8 3978 658.8 3993.4 634.1 4018 M 618.8 4007.8 614.7 4007.8 M 614.7 4018 599.4 4018 574.8 3993.4 574.8 3978 614.7 3978 614.7 3974 574.8 3974 574.8 3958.6 599.4 3934 614.7 3934 614.7 3974 618.8 3974 618.8 3978 614.7 3978 614.7 4018 M 614.7 3995.9 618.8 3995.9 M 618.8 3984.1 614.7 3984.1 M 618.8 3974 658.8 3974 658.8 3958.6 634.1 3934 618.8 3934 618.8 3974 M 618.8 3972.2 614.7 3972.2 M 614.7 3960.4 618.8 3960.4 M 618.8 3948.5 614.7 3948.5 M 614.7 3936.6 618.8 3936.6 M 636.8 3936.6 995.3 3936.6 M 983.5 3948.5 648.6 3948.5 M 658.8 3960.4 973.8 3960.4 M 973.8 3972.2 658.8 3972.2 M 658.8 3984.1 973.8 3984.1 M 975.9 3995.9 656.2 3995.9 M 589.1 4007.8 545.8 4007.8 M 539.8 4013.8 539.8 4316.5 539.8 4335.5 489.8 4385.5 476.3 4399 404.6 4399 384.6 4419 348.9 4419 323.8 4393.8 323.8 4358.2 348.9 4333 384.6 4333 404.6 4353 457.2 4353 493.8 4316.5 493.8 4013.8 473.8 3993.8 473.8 3958.2 498.9 3933 534.6 3933 559.8 3958.2 559.8 3993.8 539.8 4013.8 M 539.8 4019.6 993.8 4019.6 M 993.8 4031.5 539.8 4031.5 M 539.8 4043.3 993.8 4043.3 M 993.8 4055.2 539.8 4055.2 M 539.8 4067 993.8 4067 M 993.8 4078.9 539.8 4078.9 M 539.8 4090.8 993.8 4090.8 M 993.8 4102.6 539.8 4102.6 M 539.8 4114.5 993.8 4114.5 M 993.8 4126.3 539.8 4126.3 M 539.8 4138.2 993.8 4138.2 M 993.8 4150 539.8 4150 M 539.8 4161.9 993.8 4161.9 M 993.8 4173.7 539.8 4173.7 M 539.8 4185.6 993.8 4185.6 M 993.8 4197.4 539.8 4197.4 M 539.8 4209.3 993.8 4209.3 M 993.8 4221.1 539.8 4221.1 M 539.8 4233 993.8 4233 M 993.8 4244.9 539.8 4244.9 M 539.8 4256.7 993.8 4256.7 M 993.8 4268.6 539.8 4268.6 M 539.8 4280.4 993.8 4280.4 M 993.8 4292.3 539.8 4292.3 M 539.8 4304.1 993.8 4304.1 M 993.8 4316 539.8 4316 M 539.8 4327.8 993.8 4327.8 M 997.9 4339.7 891.2 4339.7 M 884.6 4333 909.8 4358.2 909.8 4393.8 889.8 4413.8 889.8 4716.5 999.1 4825.8 1210.6 4825.8 1211.7 4823.4 1224.3 4810.7 1227.3 4809.5 1224.3 4808.2 1211.7 4795.6 1204.8 4779.1 1204.8 4761.1 1211.7 4744.6 1224.3 4732 1227.3 4730.7 1224.3 4729.5 1211.7 4716.9 1204.8 4700.3 1204.8 4682.4 1211.7 4665.9 1224.3 4653.2 1227.3 4652 1224.3 4650.8 1211.7 4638.1 1204.8 4621.6 1204.8 4603.7 1211.7 4587.1 1224.3 4574.5 1227.3 4573.2 1224.3 4572 1211.7 4559.4 1204.8 4542.8 1204.8 4524.9 1211.7 4508.4 1224.3 4495.7 1240.9 4488.9 1258.8 4488.9 1275.3 4495.7 1288 4508.4 1294.8 4524.9 1294.8 4542.8 1288 4559.4 1275.3 4572 1272.4 4573.2 1275.3 4574.5 1288 4587.1 1294.8 4603.7 1294.8 4621.6 1288 4638.1 1275.3 4650.8 1272.4 4652 1275.3 4653.2 1288 4665.9 1294.8 4682.4 1294.8 4700.3 1288 4716.9 1275.3 4729.5 1272.4 4730.7 1275.3 4732 1288 4744.6 1294.8 4761.1 1294.8 4779.1 1288 4795.6 1275.3 4808.2 1272.4 4809.5 1275.3 4810.7 1288 4823.4 1294.8 4839.9 1294.8 4857.8 1288 4874.3 1275.3 4887 1272.4 4888.2 1275.3 4889.4 1288 4902.1 1294.8 4918.6 1294.8 4936.5 1288 4953.1 1275.3 4965.7 1272.4 4966.9 1275.3 4968.2 1288 4980.8 1294.8 4997.4 1294.8 5015.3 1288 5031.8 1275.3 5044.5 1272.4 5045.7 1275.3 5046.9 1288 5059.6 1294.8 5076.1 1294.8 5094 1288 5110.6 1275.3 5123.2 1272.4 5124.4 1275.3 5125.7 1288 5138.3 1294.8 5154.9 1294.8 5172.8 1288 5189.3 1275.3 5201.9 1272.4 5203.2 1275.3 5204.4 1288 5217.1 1294.8 5233.6 1294.8 5251.5 1288 5268 1275.3 5280.7 1258.8 5287.5 1240.9 5287.5 1224.3 5280.7 1211.7 5268 1204.8 5251.5 1204.8 5233.6 1211.7 5217.1 1224.3 5204.4 1227.3 5203.2 1224.3 5201.9 1211.7 5189.3 1204.8 5172.8 1204.8 5154.9 1211.7 5138.3 1224.3 5125.7 1227.3 5124.4 1224.3 5123.2 1211.7 5110.6 1204.8 5094 1204.8 5076.1 1211.7 5059.6 1224.3 5046.9 1227.3 5045.7 1224.3 5044.5 1211.7 5031.8 1204.8 5015.3 1204.8 4997.4 1211.7 4980.8 1224.3 4968.2 1227.3 4966.9 1224.3 4965.7 1211.7 4953.1 1204.8 4936.5 1204.8 4918.6 1211.7 4902.1 1224.3 4889.4 1227.3 4888.2 1224.3 4887 1211.7 4874.3 1210.6 4871.8 999.1 4871.8 980.1 4871.8 857.2 4749 843.8 4735.5 843.8 4413.8 823.8 4393.8 823.8 4358.2 848.9 4333 884.6 4333 M 903.1 4351.5 1009.8 4351.5 M 1021.6 4363.4 909.8 4363.4 M 909.8 4375.3 1033.5 4375.3 M 1045.3 4387.1 909.8 4387.1 M 904.6 4399 1057.2 4399 M 1074.8 4351.5 1230.4 4351.5 M 1242.3 4339.7 1063 4339.7 M 1207.9 4517.5 889.8 4517.5 M 889.8 4505.7 1214.4 4505.7 M 1229 4493.8 889.8 4493.8 M 889.8 4481.9 1595.6 4481.9 M 1584.8 4470.1 889.8 4470.1 M 889.8 4458.2 1579.9 4458.2 M 1579.9 4446.4 889.8 4446.4 M 889.8 4434.5 1583.7 4434.5 M 1593 4422.7 889.8 4422.7 M 892.7 4410.8 1240.8 4410.8 M 1270.6 4493.8 1643.8 4493.8 M 1643.8 4481.9 1637.9 4481.9 M 1643.8 4505.7 1285.2 4505.7 M 1291.7 4517.5 1643.8 4517.5 M 1636.3 4529.4 1294.8 4529.4 M 1294.8 4541.2 1631 4541.2 M 1629.9 4553.1 1290.6 4553.1 M 1282.4 4564.9 1632.7 4564.9 M 1640.5 4576.8 1277.6 4576.8 M 1288.6 4588.6 1693.8 4588.6 M 1693 4576.8 1693.8 4576.8 M 1693.8 4600.5 1293.5 4600.5 M 1294.8 4612.3 1693.8 4612.3 M 1693.8 4624.2 1293.7 4624.2 M 1288.8 4636.1 1693.8 4636.1 M 1693.8 4647.9 1278.2 4647.9 M 1281.9 4659.8 1693.8 4659.8 M 1693.8 4671.6 1290.4 4671.6 M 1294.8 4683.5 1693.8 4683.5 M 1693.8 4695.3 1294.8 4695.3 M 1292 4707.2 1693.8 4707.2 M 1693.8 4719 1285.8 4719 M 1272.7 4730.9 1693.8 4730.9 M 1693.8 4742.7 1286.1 4742.7 M 1292.1 4754.6 1693.8 4754.6 M 1693.8 4766.4 1294.8 4766.4 M 1294.8 4778.3 1693.8 4778.3 M 1693.8 4790.2 1290.2 4790.2 M 1281.6 4802 1693.8 4802 M 1693.8 4813.9 1278.5 4813.9 M 1289 4825.7 1693.8 4825.7 M 1693.8 4837.6 1293.9 4837.6 M 1294.8 4849.4 1693.8 4849.4 M 1693.8 4861.3 1293.4 4861.3 M 1288.5 4873.1 1693.8 4873.1 M 1693.8 4885 1277.3 4885 M 1282.7 4896.8 1693.8 4896.8 M 1693.8 4908.7 1290.7 4908.7 M 1294.8 4920.6 1693.8 4920.6 M 1693.8 4932.4 1294.8 4932.4 M 1291.6 4944.3 1693.8 4944.3 M 1693.8 4956.1 1284.9 4956.1 M 1274.8 4968 1693.8 4968 M 1693.8 4979.8 1287 4979.8 M 1292.5 4991.7 1693.8 4991.7 M 1693.8 5003.5 1294.8 5003.5 M 1294.8 5015.4 1693.8 5015.4 M 1688.5 5027.2 1289.9 5027.2 M 1280.7 5039.1 1681.8 5039.1 M 1679.9 5051 1279.4 5051 M 1289.3 5062.8 1681.8 5062.8 M 1688.4 5074.7 1294.2 5074.7 M 1294.8 5086.5 1706.3 5086.5 M 1727.2 5086.5 1743.8 5086.5 M 1743.8 5098.4 1293 5098.4 M 1288.1 5110.2 1743.8 5110.2 M 1743.8 5122.1 1276.4 5122.1 M 1283.6 5133.9 1743.8 5133.9 M 1743.8 5145.8 1291.1 5145.8 M 1294.8 5157.6 1409.2 5157.6 M 1393.2 5169.5 1294.8 5169.5 M 1291.3 5181.4 1381.4 5181.4 M 1375.9 5193.2 1284.1 5193.2 M 1276 5205.1 1371 5205.1 M 1368.7 5216.9 1287.8 5216.9 M 1292.8 5228.8 1368.7 5228.8 M 1368.7 5240.6 1294.8 5240.6 M 1294.4 5252.5 1373.3 5252.5 M 1378.2 5264.3 1289.5 5264.3 M 1279.8 5276.2 1386.9 5276.2 M 1398.8 5288 464.1 5288 M 452.3 5276.2 1219.8 5276.2 M 1210.1 5264.3 440.4 5264.3 M 428.7 5252.5 1205.2 5252.5 M 1204.8 5240.6 428.7 5240.6 M 428.7 5228.8 1206.8 5228.8 M 1211.8 5216.9 428.7 5216.9 M 426.2 5205.1 1223.7 5205.1 M 1215.6 5193.2 417.9 5193.2 M 425.1 5181.4 1208.4 5181.4 M 1204.8 5169.5 428.7 5169.5 M 428.7 5157.6 1204.8 5157.6 M 1208.6 5145.8 424.9 5145.8 M 417.5 5133.9 1216.1 5133.9 M 1223.2 5122.1 410.3 5122.1 M 422 5110.2 1211.5 5110.2 M 1206.6 5098.4 426.9 5098.4 M 428.7 5086.5 1204.8 5086.5 M 1205.4 5074.7 428.1 5074.7 M 423.2 5062.8 1210.3 5062.8 M 1220.3 5051 413.2 5051 M 414.5 5039.1 1219 5039.1 M 1209.8 5027.2 423.7 5027.2 M 428.6 5015.4 1204.9 5015.4 M 1204.8 5003.5 428.7 5003.5 M 426.3 4991.7 1207.2 4991.7 M 1212.7 4979.8 420.8 4979.8 M 408.7 4968 1224.8 4968 M 1214.7 4956.1 418.8 4956.1 M 425.5 4944.3 1208 4944.3 M 1204.8 4932.4 428.7 4932.4 M 428.7 4920.6 1204.8 4920.6 M 1208.9 4908.7 424.6 4908.7 M 416.6 4896.8 1216.9 4896.8 M 1222.3 4885 411.2 4885 M 422.3 4873.1 1211.2 4873.1 M 1249.8 4848.8 989.6 4848.8 866.8 4726 866.8 4376 M 823.8 4375.3 809.8 4375.3 M 809.8 4387.1 823.8 4387.1 M 828.9 4399 804.6 4399 M 792.7 4410.8 840.8 4410.8 M 843.8 4422.7 789.8 4422.7 M 789.8 4434.5 843.8 4434.5 M 843.8 4446.4 789.8 4446.4 M 789.8 4458.2 843.8 4458.2 M 843.8 4470.1 789.8 4470.1 M 789.8 4481.9 843.8 4481.9 M 843.8 4493.8 789.8 4493.8 M 789.8 4505.7 843.8 4505.7 M 843.8 4517.5 789.8 4517.5 M 789.8 4529.4 843.8 4529.4 M 843.8 4541.2 789.8 4541.2 M 789.8 4553.1 843.8 4553.1 M 843.8 4564.9 789.8 4564.9 M 789.8 4576.8 843.8 4576.8 M 843.8 4588.6 789.8 4588.6 M 789.8 4600.5 843.8 4600.5 M 843.8 4612.3 789.8 4612.3 M 789.8 4624.2 843.8 4624.2 M 843.8 4636.1 789.8 4636.1 M 789.8 4647.9 843.8 4647.9 M 843.8 4659.8 789.8 4659.8 M 789.8 4671.6 843.8 4671.6 M 843.8 4683.5 789.8 4683.5 M 789.8 4695.3 843.8 4695.3 M 843.8 4707.2 789.8 4707.2 M 789.8 4719 843.8 4719 M 843.8 4730.9 789.8 4730.9 M 782.5 4742.7 851 4742.7 M 862.8 4754.6 770.7 4754.6 M 758.8 4766.4 874.7 4766.4 M 886.5 4778.3 747 4778.3 M 735.1 4790.2 898.4 4790.2 M 910.2 4802 723.3 4802 M 711.4 4813.9 922.1 4813.9 M 933.9 4825.7 699.6 4825.7 M 687.7 4837.6 945.8 4837.6 M 957.7 4849.4 675.9 4849.4 M 664 4861.3 969.5 4861.3 M 999 4825.7 1210.7 4825.7 M 1221.2 4813.9 987.1 4813.9 M 975.3 4802 1218.1 4802 M 1209.4 4790.2 963.4 4790.2 M 951.6 4778.3 1204.8 4778.3 M 1204.8 4766.4 939.7 4766.4 M 927.9 4754.6 1207.5 4754.6 M 1213.5 4742.7 916 4742.7 M 904.2 4730.9 1226.9 4730.9 M 1213.9 4719 892.3 4719 M 889.8 4707.2 1207.7 4707.2 M 1204.8 4695.3 889.8 4695.3 M 889.8 4683.5 1204.8 4683.5 M 1209.3 4671.6 889.8 4671.6 M 889.8 4659.8 1217.8 4659.8 M 1221.5 4647.9 889.8 4647.9 M 889.8 4636.1 1210.8 4636.1 M 1205.9 4624.2 889.8 4624.2 M 889.8 4612.3 1204.8 4612.3 M 1206.1 4600.5 889.8 4600.5 M 889.8 4588.6 1211.1 4588.6 M 1222 4576.8 889.8 4576.8 M 889.8 4564.9 1217.2 4564.9 M 1209.1 4553.1 889.8 4553.1 M 889.8 4541.2 1204.8 4541.2 M 1204.8 4529.4 889.8 4529.4 M 823.8 4363.4 809.8 4363.4 M 803.1 4351.5 830.4 4351.5 M 842.3 4339.7 791.2 4339.7 M 766.8 4376 766.8 4726 643.9 4848.8 383.7 4848.8 M 338.7 4849.4 92.8 4849.4 M 92.8 4837.6 339.6 4837.6 M 344.6 4825.7 92.8 4825.7 M 92.8 4813.9 355 4813.9 M 352 4802 92.8 4802 M 92.8 4790.2 343.3 4790.2 M 338.7 4778.3 92.8 4778.3 M 92.8 4766.4 338.7 4766.4 M 341.4 4754.6 92.8 4754.6 M 92.8 4742.7 347.4 4742.7 M 360.8 4730.9 92.8 4730.9 M 92.8 4719 347.7 4719 M 341.5 4707.2 92.8 4707.2 M 92.8 4695.3 338.7 4695.3 M 338.7 4683.5 92.8 4683.5 M 92.8 4671.6 343.2 4671.6 M 351.6 4659.8 92.8 4659.8 M 92.8 4647.9 355.3 4647.9 M 344.7 4636.1 92.8 4636.1 M 92.8 4624.2 339.8 4624.2 M 338.7 4612.3 92.8 4612.3 M 92.8 4600.5 340 4600.5 M 344.9 4588.6 92.8 4588.6 M 92.8 4576.8 355.9 4576.8 M 352.5 4564.9 92.8 4564.9 M 92.8 4553.1 344.1 4553.1 M 340.3 4541.2 92.8 4541.2 M 92.8 4529.4 339.9 4529.4 M 342.7 4517.5 92.8 4517.5 M 92.8 4505.7 349.8 4505.7 M 365.4 4493.8 92.8 4493.8 M 92.8 4481.9 743.8 4481.9 M 743.8 4470.1 92.8 4470.1 M 92.8 4458.2 743.8 4458.2 M 743.8 4446.4 92.8 4446.4 M 92.8 4434.5 743.8 4434.5 M 743.8 4422.7 92.8 4422.7 M 92.8 4410.8 340.8 4410.8 M 328.9 4399 92.8 4399 M 92.8 4387.1 323.8 4387.1 M 323.8 4375.3 92.8 4375.3 M 92.8 4363.4 323.8 4363.4 M 330.4 4351.5 92.8 4351.5 M 92.8 4339.7 342.3 4339.7 M 366.8 4376 466.8 4376 516.8 4326 516.8 3976 M 487.7 4007.8 406.7 4007.8 M 407 3995.9 475.9 3995.9 M 473.8 3984.1 405.2 3984.1 M 403.4 3972.2 473.8 3972.2 M 473.8 3960.4 401.6 3960.4 M 398.6 3948.5 483.5 3948.5 M 495.3 3936.6 392.9 3936.6 M 404.9 4019.6 493.8 4019.6 M 493.8 4031.5 403.2 4031.5 M 401.4 4043.3 493.8 4043.3 M 493.8 4055.2 397.9 4055.2 M 392.1 4067 493.8 4067 M 493.8 4078.9 386.4 4078.9 M 380.7 4090.8 493.8 4090.8 M 493.8 4102.6 371.4 4102.6 M 360.4 4114.5 493.8 4114.5 M 493.8 4126.3 349.4 4126.3 M 332.5 4138.2 493.8 4138.2 M 493.8 4150 311.9 4150 M 274.6 4161.9 493.8 4161.9 M 493.8 4173.7 92.8 4173.7 M 92.8 4161.9 202.4 4161.9 M 172.2 4150 92.8 4150 M 92.8 4138.2 150.5 4138.2 M 135.6 4126.3 92.8 4126.3 M 92.8 4114.5 120.8 4114.5 M 112.4 4102.6 92.8 4102.6 M 92.8 4090.8 104.3 4090.8 M 96.2 4078.9 92.8 4078.9 M 92.8 4185.6 493.8 4185.6 M 493.8 4197.4 92.8 4197.4 M 92.8 4209.3 493.8 4209.3 M 493.8 4221.1 92.8 4221.1 M 92.8 4233 493.8 4233 M 493.8 4244.9 92.8 4244.9 M 92.8 4256.7 493.8 4256.7 M 493.8 4268.6 92.8 4268.6 M 92.8 4280.4 493.8 4280.4 M 493.8 4292.3 92.8 4292.3 M 92.8 4304.1 493.8 4304.1 M 493.8 4316 92.8 4316 M 92.8 4327.8 482.4 4327.8 M 470.5 4339.7 391.2 4339.7 M 403.1 4351.5 458.7 4351.5 M 488.2 4387.1 723.8 4387.1 M 723.8 4375.3 500 4375.3 M 511.9 4363.4 723.8 4363.4 M 730.4 4351.5 523.7 4351.5 M 535.6 4339.7 742.3 4339.7 M 728.9 4399 476.3 4399 M 392.7 4410.8 740.8 4410.8 M 743.8 4493.8 401.9 4493.8 M 384.6 4493.8 382.8 4493.8 M 382.8 4505.7 384.6 4505.7 M 384.6 4517.5 382.8 4517.5 M 382.8 4529.4 384.6 4529.4 M 417.6 4505.7 743.8 4505.7 M 743.8 4517.5 424.6 4517.5 M 427.5 4529.4 743.8 4529.4 M 743.8 4541.2 427.1 4541.2 M 423.3 4553.1 743.8 4553.1 M 743.8 4564.9 414.9 4564.9 M 411.5 4576.8 743.8 4576.8 M 743.8 4588.6 422.5 4588.6 M 427.4 4600.5 743.8 4600.5 M 743.8 4612.3 428.7 4612.3 M 427.6 4624.2 743.8 4624.2 M 743.8 4636.1 422.7 4636.1 M 412 4647.9 743.8 4647.9 M 743.8 4659.8 415.7 4659.8 M 424.2 4671.6 743.8 4671.6 M 743.8 4683.5 428.7 4683.5 M 428.7 4695.3 743.8 4695.3 M 743.8 4707.2 425.8 4707.2 M 419.6 4719 741.2 4719 M 729.4 4730.9 406.6 4730.9 M 420 4742.7 717.5 4742.7 M 705.6 4754.6 426 4754.6 M 428.7 4766.4 693.8 4766.4 M 681.9 4778.3 428.7 4778.3 M 424.1 4790.2 670.1 4790.2 M 658.2 4802 415.4 4802 M 412.3 4813.9 646.4 4813.9 M 634.5 4825.7 422.8 4825.7 M 356.2 4885 92.8 4885 M 92.8 4896.8 350.8 4896.8 M 342.8 4908.7 92.8 4908.7 M 92.8 4920.6 338.7 4920.6 M 338.7 4932.4 92.8 4932.4 M 92.8 4944.3 341.9 4944.3 M 348.6 4956.1 92.8 4956.1 M 92.8 4968 358.7 4968 M 346.5 4979.8 92.8 4979.8 M 92.8 4991.7 341 4991.7 M 338.7 5003.5 92.8 5003.5 M 92.8 5015.4 338.7 5015.4 M 343.6 5027.2 92.8 5027.2 M 92.8 5039.1 352.8 5039.1 M 354.2 5051 92.8 5051 M 92.8 5062.8 344.2 5062.8 M 339.3 5074.7 92.8 5074.7 M 92.8 5086.5 338.7 5086.5 M 340.5 5098.4 92.8 5098.4 M 92.8 5110.2 345.4 5110.2 M 357.1 5122.1 92.8 5122.1 M 92.8 5133.9 349.9 5133.9 M 342.4 5145.8 92.8 5145.8 M 92.8 5157.6 338.7 5157.6 M 338.7 5169.5 92.8 5169.5 M 92.8 5181.4 342.2 5181.4 M 349.5 5193.2 92.8 5193.2 M 92.8 5205.1 341.1 5205.1 M 338.7 5216.9 92.8 5216.9 M 92.8 5228.8 338.7 5228.8 M 338.7 5240.6 276.7 5240.6 M 312.8 5252.5 338.7 5252.5 M 338.7 5264.3 333.3 5264.3 M 360.8 5288 393.4 5288 M 405.3 5299.9 371.9 5299.9 M 381 5311.7 417.1 5311.7 M 429 5323.6 386.7 5323.6 M 392.4 5335.5 440.9 5335.5 M 452.9 5347.3 398.1 5347.3 M 401.4 5359.2 2689.6 5359.2 M 2701.4 5371 403.2 5371 M 405 5382.9 2024.5 5382.9 M 2012.7 5394.7 406.8 5394.7 M 406.9 5406.6 2000.8 5406.6 M 1992.8 5418.4 1860.1 5418.4 M 1857 5416.7 1864.5 5421 1871.4 5426.3 1877.5 5432.4 1882.8 5439.3 1887.1 5446.8 1890.4 5454.7 1892.6 5463.1 1893.6 5470 1833.8 5470 1833.8 5482 1893.6 5482 1892.6 5488.9 1890.4 5497.3 1887.1 5505.3 1882.8 5512.8 1877.5 5519.6 1871.4 5525.7 1864.5 5531 1857 5535.3 1849 5538.6 1840.7 5540.9 1833.8 5541.8 1833.8 5482 1821.8 5482 1821.8 5541.8 1814.9 5540.9 1806.5 5538.6 1798.5 5535.3 1791 5531 1784.2 5525.7 1778.1 5519.6 1772.8 5512.8 1768.5 5505.3 1765.1 5497.3 1762.9 5488.9 1762 5482 1821.8 5482 1821.8 5470 1833.8 5470 1833.8 5410.2 1840.7 5411.1 1849 5413.4 1857 5416.7 M 1875.4 5430.3 1991.8 5430.3 M 1987 5442.1 1971.7 5442.1 M 1912.2 5442.1 1884.4 5442.1 M 1890.1 5454 1902.4 5454 M 1897.4 5465.9 1893 5465.9 M 1897 5477.7 1833.8 5477.7 M 1833.8 5465.9 1821.8 5465.9 M 1821.8 5470 1821.8 5410.2 1814.9 5411.1 1806.5 5413.4 1798.5 5416.7 1791 5421 1784.2 5426.3 1778.1 5432.4 1772.8 5439.3 1768.5 5446.8 1765.1 5454.7 1762.9 5463.1 1762 5470 1821.8 5470 M 1821.8 5477.7 387 5477.7 M 392.7 5465.9 1762.5 5465.9 M 1765.5 5454 398.4 5454 M 401.6 5442.1 1771.1 5442.1 M 1780.2 5430.3 403.3 5430.3 M 405.1 5418.4 1795.5 5418.4 M 1821.8 5418.4 1833.8 5418.4 M 1833.8 5430.3 1821.8 5430.3 M 1821.8 5442.1 1833.8 5442.1 M 1833.8 5454 1821.8 5454 M 1821.8 5489.6 1833.8 5489.6 M 1833.8 5501.4 1821.8 5501.4 M 1821.8 5513.3 1833.8 5513.3 M 1833.8 5525.1 1821.8 5525.1 M 1821.8 5537 1833.8 5537 M 1853 5537 2180.5 5537 M 2199.7 5537 2211.7 5537 M 2211.7 5525.1 2199.7 5525.1 M 2199.7 5513.3 2211.7 5513.3 M 2211.7 5501.4 2199.7 5501.4 M 2199.7 5489.6 2211.7 5489.6 M 2211.7 5477.7 2778.1 5477.7 M 2773.2 5489.6 2270.4 5489.6 M 2266.6 5501.4 2813.2 5501.4 M 2820.3 5501.4 3370.8 5501.4 M 3371.7 5489.6 2860.4 5489.6 M 2855.4 5477.7 3376.6 5477.7 M 3372 5513.3 2860.1 5513.3 M 2854.9 5525.1 3377 5525.1 M 3387.7 5537 2843.8 5537 M 2820.3 5537 2813.2 5537 M 2813.2 5525.1 2820.3 5525.1 M 2820.3 5513.3 2813.2 5513.3 M 2789.7 5537 2231 5537 M 2249.9 5525.1 2778.7 5525.1 M 2773.4 5513.3 2260.3 5513.3 M 2271 5465.9 2696.3 5465.9 M 2684.4 5454 2268 5454 M 2262.4 5442.1 2672.5 5442.1 M 2660.7 5430.3 2253.4 5430.3 M 2141 5489.6 2138.6 5489.6 M 2133.7 5501.4 2144.8 5501.4 M 2151.1 5513.3 2121.9 5513.3 M 2161.5 5525.1 1872 5525.1 M 1882.4 5513.3 1915.6 5513.3 M 1903.8 5501.4 1888.7 5501.4 M 1892.5 5489.6 1898.9 5489.6 M 1968.3 5513.3 1990.4 5513.3 M 2043.1 5513.3 2069.1 5513.3 M 2057.3 5501.4 2054.9 5501.4 M 2141.8 5299.9 1469.2 5299.9 M 1493 5288 2141.8 5288 M 2141.8 5276.2 1504.9 5276.2 M 1513.6 5264.3 1634.4 5264.3 M 1623.6 5252.5 1518.5 5252.5 M 1523.1 5240.6 1618.7 5240.6 M 1616.8 5228.8 1523.1 5228.8 M 1523.1 5216.9 1616.8 5216.9 M 1621.3 5205.1 1520.7 5205.1 M 1515.8 5193.2 1628.8 5193.2 M 1643.9 5181.4 1510.4 5181.4 M 1498.5 5169.5 1743.8 5169.5 M 1743.8 5181.4 1689.6 5181.4 M 1704.7 5193.2 1728.8 5193.2 M 1721.3 5205.1 1712.2 5205.1 M 1716.8 5216.9 1716.8 5216.9 M 1716.8 5228.8 1716.8 5228.8 M 1714.8 5240.6 1718.7 5240.6 M 1723.6 5252.5 1709.9 5252.5 M 1699.1 5264.3 1734.4 5264.3 M 1766.8 5226 1766.8 4851 M 1801 4837.6 1843.8 4837.6 M 1843.8 4849.4 1803.6 4849.4 M 1802.3 4861.3 1843.8 4861.3 M 1842.6 4873.1 1796.7 4873.1 M 1789.8 4885 1833.5 4885 M 1829.9 4896.8 1789.8 4896.8 M 1789.8 4908.7 1830.1 4908.7 M 1835 4920.6 1789.8 4920.6 M 1789.8 4932.4 1846.4 4932.4 M 1866.8 4901 1866.8 4226 1816.8 4176 M 1863.8 4173.7 1869.8 4173.7 M 1869.8 4161.9 1863.8 4161.9 M 1857.2 4150 1876.3 4150 M 1888.1 4138.2 1845.4 4138.2 M 1863.8 4185.6 1869.8 4185.6 M 1870.7 4197.4 1871.7 4197.4 M 1882.6 4209.3 1883.6 4209.3 M 1889.8 4221.1 1895.4 4221.1 M 1893.3 4233 1889.8 4233 M 1841.2 4233 1840.2 4233 M 1795.4 4221.1 1789.8 4221.1 M 1789.8 4233 1793.3 4233 M 1783.6 4209.3 1782.6 4209.3 M 1771.7 4197.4 1770.7 4197.4 M 1769.8 4185.6 1763.8 4185.6 M 1763.8 4173.7 1769.8 4173.7 M 1769.8 4161.9 1763.8 4161.9 M 1757.2 4150 1776.3 4150 M 1788.1 4138.2 1745.4 4138.2 M 1716.8 4176 1766.8 4226 1766.8 4651 M 1748.9 4683.5 1739.8 4683.5 M 1739.8 4695.3 1779.9 4695.3 M 1779.9 4707.2 1739.8 4707.2 M 1739.8 4719 1784.4 4719 M 1794.6 4730.9 1739.8 4730.9 M 1739.8 4742.7 1843.8 4742.7 M 1843.8 4730.9 1838.9 4730.9 M 1843.8 4754.6 1739.8 4754.6 M 1739.8 4766.4 1843.8 4766.4 M 1843.8 4778.3 1739.8 4778.3 M 1739.8 4790.2 1843.8 4790.2 M 1843.8 4802 1739.8 4802 M 1739.8 4813.9 1843.8 4813.9 M 1843.8 4825.7 1793.5 4825.7 M 1740 4825.7 1739.8 4825.7 M 1789.8 4944.3 1893.8 4944.3 M 1893.8 4956.1 1789.8 4956.1 M 1789.8 4968 1893.8 4968 M 1893.8 4979.8 1789.8 4979.8 M 1789.8 4991.7 1893.8 4991.7 M 1893.8 5003.5 1789.8 5003.5 M 1789.8 5015.4 1893.8 5015.4 M 1893.8 5027.2 1789.8 5027.2 M 1789.8 5039.1 1893.8 5039.1 M 1893.8 5051 1789.8 5051 M 1789.8 5062.8 1893.8 5062.8 M 1891 5074.7 1789.8 5074.7 M 1789.8 5086.5 1882.9 5086.5 M 1879.9 5098.4 1789.8 5098.4 M 1789.8 5110.2 1880.7 5110.2 M 1885.8 5122.1 1789.8 5122.1 M 1789.8 5133.9 1900.1 5133.9 M 1933.5 5133.9 1992.2 5133.9 M 2004 5145.8 1789.8 5145.8 M 1789.8 5157.6 2551 5157.6 M 2535 5169.5 1789.8 5169.5 M 1789.8 5181.4 1843.9 5181.4 M 1828.8 5193.2 1804.7 5193.2 M 1812.2 5205.1 1821.3 5205.1 M 1816.8 5216.9 1816.8 5216.9 M 1816.8 5228.8 1816.8 5228.8 M 1814.8 5240.6 1818.7 5240.6 M 1823.6 5252.5 1809.9 5252.5 M 1799.1 5264.3 1834.4 5264.3 M 1899.1 5264.3 1934.4 5264.3 M 1923.6 5252.5 1909.9 5252.5 M 1914.8 5240.6 1918.7 5240.6 M 1916.8 5228.8 1916.8 5228.8 M 1916.8 5216.9 1916.8 5216.9 M 1912.2 5205.1 1921.3 5205.1 M 1928.8 5193.2 1904.7 5193.2 M 1889.6 5181.4 1943.9 5181.4 M 1989.6 5181.4 2043.9 5181.4 M 2028.8 5193.2 2004.7 5193.2 M 2012.2 5205.1 2021.3 5205.1 M 2016.8 5216.9 2016.8 5216.9 M 2016.8 5228.8 2016.8 5228.8 M 2014.8 5240.6 2018.7 5240.6 M 2023.6 5252.5 2009.9 5252.5 M 1999.1 5264.3 2034.4 5264.3 M 2099.1 5264.3 2134.4 5264.3 M 2123.6 5252.5 2109.9 5252.5 M 2114.8 5240.6 2118.7 5240.6 M 2116.8 5228.8 2116.8 5228.8 M 2116.8 5216.9 2116.8 5216.9 M 2112.2 5205.1 2121.3 5205.1 M 2128.8 5193.2 2104.7 5193.2 M 2089.6 5181.4 2143.9 5181.4 M 2189.6 5181.4 2243.9 5181.4 M 2228.8 5193.2 2204.7 5193.2 M 2212.2 5205.1 2221.3 5205.1 M 2216.8 5216.9 2216.8 5216.9 M 2216.8 5228.8 2216.8 5228.8 M 2214.8 5240.6 2218.7 5240.6 M 2223.6 5252.5 2209.9 5252.5 M 2199.1 5264.3 2234.4 5264.3 M 2191.8 5276.2 2528.6 5276.2 M 2520 5264.3 2397.4 5264.3 M 2398.7 5263.4 2392.4 5267.9 2385.6 5271.4 2378.2 5273.8 2370.6 5275 2369.6 5275 2369.6 5228.9 2363.9 5228.9 2363.9 5275 2362.9 5275 2355.3 5273.8 2347.9 5271.4 2341.1 5267.9 2334.8 5263.4 2329.4 5257.9 2324.8 5251.7 2321.3 5244.8 2319 5237.5 2317.8 5229.9 2317.8 5228.9 2363.9 5228.9 2363.9 5223.1 2369.6 5223.1 2369.6 5177 2370.6 5177 2378.2 5178.2 2385.6 5180.6 2392.4 5184.1 2398.7 5188.6 2404.1 5194.1 2408.7 5200.3 2412.2 5207.2 2414.5 5214.5 2415.8 5222.1 2415.8 5223.1 2369.6 5223.1 2369.6 5228.9 2415.8 5228.9 2415.8 5229.9 2414.5 5237.5 2412.2 5244.8 2408.7 5251.7 2404.1 5257.9 2398.7 5263.4 M 2408.1 5252.5 2515 5252.5 M 2510.4 5240.6 2413.5 5240.6 M 2414.9 5216.9 2510.4 5216.9 M 2510.4 5228.8 2369.6 5228.8 M 2363.9 5228.8 2316.8 5228.8 M 2317.8 5223.1 2317.8 5222.1 2319 5214.5 2321.3 5207.2 2324.8 5200.3 2329.4 5194.1 2334.8 5188.6 2341.1 5184.1 2347.9 5180.6 2355.3 5178.2 2362.9 5177 2363.9 5177 2363.9 5223.1 2317.8 5223.1 M 2316.8 5216.9 2318.6 5216.9 M 2322.4 5205.1 2312.2 5205.1 M 2304.7 5193.2 2330.3 5193.2 M 2346.5 5181.4 2289.6 5181.4 M 2314.8 5240.6 2320 5240.6 M 2325.4 5252.5 2309.9 5252.5 M 2299.1 5264.3 2336.1 5264.3 M 2363.9 5264.3 2369.6 5264.3 M 2369.6 5252.5 2363.9 5252.5 M 2363.9 5240.6 2369.6 5240.6 M 2369.6 5216.9 2363.9 5216.9 M 2363.9 5205.1 2369.6 5205.1 M 2369.6 5193.2 2363.9 5193.2 M 2363.9 5181.4 2369.6 5181.4 M 2387 5181.4 2523.1 5181.4 M 2517.7 5193.2 2403.2 5193.2 M 2411.1 5205.1 2512.8 5205.1 M 2540.5 5288 2191.8 5288 M 2191.8 5299.9 2564.3 5299.9 M 2684 5382.9 2774.5 5382.9 M 2770.8 5394.7 2695.8 5394.7 M 2707.7 5406.6 2770.8 5406.6 M 2774.2 5418.4 2719.5 5418.4 M 2859.3 5418.4 3274.2 5418.4 M 3270.8 5406.6 2862.8 5406.6 M 2862.8 5394.7 3270.8 5394.7 M 3274.5 5382.9 2859 5382.9 M 2982.1 5371 3281.7 5371 M 3297.6 5359.2 2993.9 5359.2 M 3005.8 5347.3 3541.8 5347.3 M 3541.8 5335.5 3447.4 5335.5 M 3457.2 5323.6 3541.8 5323.6 M 3541.8 5311.7 3462.1 5311.7 M 3462.8 5299.9 3541.8 5299.9 M 3541.8 5288 3461.2 5288 M 3456.3 5276.2 3541.8 5276.2 M 3541.8 5264.3 3445.1 5264.3 M 3441.3 5240.6 3544 5240.6 M 3541.8 5252.5 3041.8 5252.5 M 3041.8 5264.3 3388.4 5264.3 M 3392.2 5240.6 3341.3 5240.6 M 3342.8 5240 3325.9 5247 3307.6 5247 3290.7 5240 3277.8 5227.1 3270.8 5210.2 3270.8 5191.9 3277.8 5174.9 3290.7 5162 3307.6 5155 3325.9 5155 3342.8 5162 3355.7 5174.9 3362.8 5191.9 3362.8 5210.2 3355.7 5227.1 3342.8 5240 M 3354 5228.8 3379.5 5228.8 M 3377.8 5227.1 3370.8 5210.2 3370.8 5191.9 3377.8 5174.9 3390.7 5162 3407.6 5155 3425.9 5155 3442.8 5162 3455.7 5174.9 3462.8 5191.9 3462.8 5210.2 3455.7 5227.1 3442.8 5240 3425.9 5247 3407.6 5247 3390.7 5240 3377.8 5227.1 M 3373.6 5216.9 3360 5216.9 M 3362.8 5205.1 3370.8 5205.1 M 3370.8 5193.2 3362.8 5193.2 M 3358.4 5181.4 3375.1 5181.4 M 3383.2 5169.5 3350.3 5169.5 M 3332.3 5157.6 3401.2 5157.6 M 3404.7 5145.8 3328.8 5145.8 M 3348.9 5133.9 3384.6 5133.9 M 3375.7 5122.1 3357.8 5122.1 M 3362.8 5098.4 3370.8 5098.4 M 3373 5086.5 3360.5 5086.5 M 3355.5 5074.7 3378 5074.7 M 3377.9 5027.2 3355.6 5027.2 M 3360.6 5015.4 3372.9 5015.4 M 3370.8 5003.5 3362.8 5003.5 M 3362.7 4991.7 3370.8 4991.7 M 3375.7 4979.8 3357.8 4979.8 M 3348.8 4968 3384.7 4968 M 3404.9 4956.1 3328.6 4956.1 M 3304.9 4956.1 3204.4 4956.1 M 3192.5 4944.3 3401 4944.3 M 3407.6 4947 3390.7 4940 3377.8 4927.1 3370.8 4910.2 3370.8 4891.9 3377.8 4874.9 3390.7 4862 3407.6 4855 3425.9 4855 3442.8 4862 3455.7 4874.9 3462.8 4891.9 3462.8 4910.2 3455.7 4927.1 3442.8 4940 3425.9 4947 3407.6 4947 M 3428.6 4956.1 3743.8 4956.1 M 3743.8 4944.3 3432.5 4944.3 M 3450.4 4932.4 3743.8 4932.4 M 3743.8 4920.6 3458.4 4920.6 M 3462.8 4908.7 3743.8 4908.7 M 3743.8 4896.8 3462.8 4896.8 M 3459.9 4885 3743.8 4885 M 3743.8 4873.1 3686.8 4873.1 M 3686.4 4873.5 3668.8 4873.5 3668.8 4828 3714.3 4828 3714.3 4845.7 3686.4 4873.5 M 3698.6 4861.3 3733.4 4861.3 M 3724 4849.4 3710.5 4849.4 M 3714.3 4837.6 3719.1 4837.6 M 3718.3 4825.7 3668.8 4825.7 M 3668.8 4824 3668.8 4828 3664.7 4828 3664.7 4824 3619.3 4824 3619.3 4806.3 3647.1 4778.5 3664.7 4778.5 3664.7 4824 3668.8 4824 3714.3 4824 3714.3 4806.3 3686.4 4778.5 3668.8 4778.5 3668.8 4824 M 3664.7 4825.7 3456.3 4825.7 M 3455.7 4827.1 3442.8 4840 3425.9 4847 3407.6 4847 3390.7 4840 3377.8 4827.1 3370.8 4810.2 3370.8 4791.9 3377.8 4774.9 3390.7 4762 3407.6 4755 3425.9 4755 3442.8 4762 3455.7 4774.9 3462.8 4791.9 3462.8 4810.2 3455.7 4827.1 M 3461.2 4813.9 3619.3 4813.9 M 3623.6 4802 3462.8 4802 M 3462 4790.2 3635.4 4790.2 M 3664.7 4790.2 3668.8 4790.2 M 3668.8 4802 3664.7 4802 M 3664.7 4813.9 3668.8 4813.9 M 3664.7 4828 3619.3 4828 3619.3 4845.7 3647.1 4873.5 3664.7 4873.5 3664.7 4828 M 3664.7 4837.6 3668.8 4837.6 M 3668.8 4849.4 3664.7 4849.4 M 3664.7 4861.3 3668.8 4861.3 M 3668.8 4873.1 3664.7 4873.1 M 3646.7 4873.1 3453.9 4873.1 M 3441.1 4861.3 3634.9 4861.3 M 3623 4849.4 3097.7 4849.4 M 3089.8 4837.6 3388.3 4837.6 M 3377.2 4825.7 3089.8 4825.7 M 3089.8 4813.9 3372.3 4813.9 M 3370.8 4802 3089.8 4802 M 3089.8 4790.2 3371.5 4790.2 M 3376.4 4778.3 3089.8 4778.3 M 3089.8 4766.4 3386.3 4766.4 M 3397.3 4742.7 3089.8 4742.7 M 3089.8 4730.9 3381.6 4730.9 M 3377.8 4727.1 3370.8 4710.2 3370.8 4691.9 3377.8 4674.9 3390.7 4662 3407.6 4655 3425.9 4655 3442.8 4662 3455.7 4674.9 3462.8 4691.9 3462.8 4710.2 3455.7 4727.1 3442.8 4740 3425.9 4747 3407.6 4747 3390.7 4740 3377.8 4727.1 M 3374.4 4719 3089.8 4719 M 3089.8 4707.2 3370.8 4707.2 M 3370.8 4695.3 3089.8 4695.3 M 3089.8 4683.5 3374.2 4683.5 M 3381.1 4671.6 3089.8 4671.6 M 3089.8 4659.8 3396.1 4659.8 M 3407.6 4647 3390.7 4640 3377.8 4627.1 3370.8 4610.2 3370.8 4591.9 3377.8 4574.9 3390.7 4562 3407.6 4555 3425.9 4555 3442.8 4562 3455.7 4574.9 3462.8 4591.9 3462.8 4610.2 3455.7 4627.1 3442.8 4640 3425.9 4647 3407.6 4647 M 3386.7 4636.1 3089.8 4636.1 M 3089.8 4647.9 3509 4647.9 M 3518.8 4636.1 3446.8 4636.1 M 3456.9 4624.2 3518.8 4624.2 M 3517.3 4612.3 3461.9 4612.3 M 3462.8 4600.5 3505.4 4600.5 M 3498.8 4588.6 3461.4 4588.6 M 3456.5 4576.8 3498.8 4576.8 M 3498.8 4564.9 3445.7 4564.9 M 3439.9 4541.2 3515.7 4541.2 M 3503.9 4553.1 3089.8 4553.1 M 3089.8 4564.9 3387.8 4564.9 M 3377 4576.8 3089.8 4576.8 M 3089.8 4588.6 3372.1 4588.6 M 3370.8 4600.5 3089.8 4600.5 M 3089.8 4612.3 3371.7 4612.3 M 3376.6 4624.2 3089.8 4624.2 M 3043.8 4624.2 3041.8 4624.2 M 3041.8 4636.1 3043.8 4636.1 M 3043.8 4647.9 3041.8 4647.9 M 3041.8 4659.8 3043.8 4659.8 M 3043.8 4671.6 3041.8 4671.6 M 3041.8 4683.5 3043.8 4683.5 M 3043.8 4695.3 3041.8 4695.3 M 3041.8 4707.2 3043.8 4707.2 M 3043.8 4719 3041.8 4719 M 3041.8 4730.9 3043.8 4730.9 M 3043.8 4742.7 3041.8 4742.7 M 3041.8 4754.6 3043.8 4754.6 M 3043.8 4766.4 3041.8 4766.4 M 3041.8 4778.3 3043.8 4778.3 M 3043.8 4790.2 3041.8 4790.2 M 3041.8 4802 3043.8 4802 M 3043.8 4813.9 3041.8 4813.9 M 3041.8 4825.7 3043.8 4825.7 M 3043.8 4837.6 3041.8 4837.6 M 3041.8 4849.4 3043.8 4849.4 M 3044.5 4861.3 3041.8 4861.3 M 3041.8 4873.1 3056.4 4873.1 M 3068.2 4885 3041.8 4885 M 3041.8 4896.8 3080.1 4896.8 M 3091.9 4908.7 3041.8 4908.7 M 3041.8 4920.6 3103.8 4920.6 M 3115.6 4932.4 3041.8 4932.4 M 3041.8 4944.3 3127.5 4944.3 M 3139.3 4956.1 3041.8 4956.1 M 3041.8 4968 3151.2 4968 M 3163.1 4979.8 3041.8 4979.8 M 3041.8 4991.7 3174.9 4991.7 M 3186.8 5003.5 3041.8 5003.5 M 3041.8 5015.4 3198.6 5015.4 M 3210.5 5027.2 3041.8 5027.2 M 3041.8 5039.1 3222.3 5039.1 M 3234.2 5051 3041.8 5051 M 3041.8 5062.8 3246 5062.8 M 3266.8 5051 3066.8 4851 3066.8 4126 2916.8 3976 M 2887.7 4007.8 2640 4007.8 M 2631.3 3999.2 2653.1 4020.9 2664.8 4049.2 2664.8 4079.9 2653.1 4108.3 2631.3 4130 2603 4141.8 2572.3 4141.8 2543.9 4130 2522.2 4108.3 2510.4 4079.9 2510.4 4049.2 2522.2 4020.9 2543.9 3999.2 2572.3 3987.4 2603 3987.4 2631.3 3999.2 M 2623.5 3995.9 2875.9 3995.9 M 2927.9 4019.6 2651.8 4019.6 M 2657.4 4031.5 2939.7 4031.5 M 2951.6 4043.3 2662.4 4043.3 M 2664.8 4055.2 2963.4 4055.2 M 2975.3 4067 2664.8 4067 M 2664.8 4078.9 2987.1 4078.9 M 2999 4090.8 2660.3 4090.8 M 2655.4 4102.6 3010.8 4102.6 M 3022.7 4114.5 2646.9 4114.5 M 2635 4126.3 3034.5 4126.3 M 3043.8 4138.2 2611.7 4138.2 M 2563.6 4138.2 2445.4 4138.2 M 2457.2 4150 3043.8 4150 M 3042.5 4161.9 3043.8 4161.9 M 2991 4161.9 2942.5 4161.9 M 2954.5 4173.7 2979 4173.7 M 2973.4 4185.6 2960.2 4185.6 M 2962.8 4197.4 2970.8 4197.4 M 2970.8 4209.3 2962.8 4209.3 M 2958.2 4221.1 2975.3 4221.1 M 2935.4 4280.4 2858 4280.4 M 2862.8 4292.3 2930.5 4292.3 M 2929.9 4304.1 2862.8 4304.1 M 2860.3 4316 2933.1 4316 M 2941.5 4327.8 2855 4327.8 M 2843.1 4339.7 2943.8 4339.7 M 2943.8 4351.5 2389.8 4351.5 M 2389.8 4339.7 2790.4 4339.7 M 2778.5 4327.8 2389.8 4327.8 M 2389.8 4316 2391.7 4316 M 2412.7 4316 2420.8 4316 M 2420.8 4304.1 2412.7 4304.1 M 2412.7 4292.3 2420.8 4292.3 M 2420.8 4280.4 2412.7 4280.4 M 2412.7 4268.6 2420.8 4268.6 M 2420.8 4256.7 2412.7 4256.7 M 2412.7 4244.9 2420.8 4244.9 M 2420.8 4233 2412.7 4233 M 2394.7 4233 2389.8 4233 M 2389.8 4221.1 2395.4 4221.1 M 2383.6 4209.3 2382.6 4209.3 M 2371.7 4197.4 2370.7 4197.4 M 2369.8 4185.6 2363.8 4185.6 M 2363.8 4173.7 2369.8 4173.7 M 2369.8 4161.9 2363.8 4161.9 M 2357.2 4150 2376.3 4150 M 2388.1 4138.2 2345.4 4138.2 M 2316.8 4176 2366.8 4226 2366.8 5001 M 2400.6 5015.4 2772.9 5015.4 M 2770.8 5003.5 2403.6 5003.5 M 2402.7 4991.7 2770.8 4991.7 M 2775.7 4979.8 2397.6 4979.8 M 2389.8 4968 2784.7 4968 M 2804.9 4956.1 2389.8 4956.1 M 2389.8 4944.3 2801 4944.3 M 2807.6 4947 2790.7 4940 2777.8 4927.1 2770.8 4910.2 2770.8 4891.9 2777.8 4874.9 2790.7 4862 2807.6 4855 2825.9 4855 2842.8 4862 2855.7 4874.9 2862.8 4891.9 2862.8 4910.2 2855.7 4927.1 2842.8 4940 2825.9 4947 2807.6 4947 M 2828.6 4956.1 2943.8 4956.1 M 2943.8 4944.3 2832.5 4944.3 M 2850.4 4932.4 2943.8 4932.4 M 2943.8 4920.6 2858.4 4920.6 M 2862.8 4908.7 2943.8 4908.7 M 2943.8 4896.8 2862.8 4896.8 M 2859.9 4885 2943.8 4885 M 2943.8 4873.1 2853.9 4873.1 M 2841.1 4861.3 2943.8 4861.3 M 2943.8 4849.4 2389.8 4849.4 M 2389.8 4837.6 2788.3 4837.6 M 2790.7 4840 2777.8 4827.1 2770.8 4810.2 2770.8 4791.9 2777.8 4774.9 2790.7 4762 2807.6 4755 2825.9 4755 2842.8 4762 2855.7 4774.9 2862.8 4791.9 2862.8 4810.2 2855.7 4827.1 2842.8 4840 2825.9 4847 2807.6 4847 2790.7 4840 M 2777.2 4825.7 2389.8 4825.7 M 2389.8 4813.9 2772.3 4813.9 M 2770.8 4802 2389.8 4802 M 2389.8 4790.2 2771.5 4790.2 M 2776.4 4778.3 2389.8 4778.3 M 2389.8 4766.4 2786.3 4766.4 M 2797.3 4742.7 2389.8 4742.7 M 2389.8 4730.9 2781.6 4730.9 M 2777.8 4727.1 2770.8 4710.2 2770.8 4691.9 2777.8 4674.9 2790.7 4662 2807.6 4655 2825.9 4655 2842.8 4662 2855.7 4674.9 2862.8 4691.9 2862.8 4710.2 2855.7 4727.1 2842.8 4740 2825.9 4747 2807.6 4747 2790.7 4740 2777.8 4727.1 M 2774.4 4719 2389.8 4719 M 2389.8 4707.2 2770.8 4707.2 M 2770.8 4695.3 2389.8 4695.3 M 2389.8 4683.5 2774.2 4683.5 M 2781.1 4671.6 2389.8 4671.6 M 2389.8 4659.8 2796.1 4659.8 M 2807.6 4647 2790.7 4640 2777.8 4627.1 2770.8 4610.2 2770.8 4591.9 2777.8 4574.9 2790.7 4562 2807.6 4555 2825.9 4555 2842.8 4562 2855.7 4574.9 2862.8 4591.9 2862.8 4610.2 2855.7 4627.1 2842.8 4640 2825.9 4647 2807.6 4647 M 2786.7 4636.1 2389.8 4636.1 M 2389.8 4647.9 2943.8 4647.9 M 2943.8 4636.1 2846.8 4636.1 M 2856.9 4624.2 2943.8 4624.2 M 2943.8 4612.3 2861.9 4612.3 M 2862.8 4600.5 2943.8 4600.5 M 2943.8 4588.6 2861.4 4588.6 M 2856.5 4576.8 2943.8 4576.8 M 2943.8 4564.9 2845.7 4564.9 M 2839.9 4541.2 2943.8 4541.2 M 2943.8 4529.4 2853.4 4529.4 M 2855.7 4527.1 2842.8 4540 2825.9 4547 2807.6 4547 2790.7 4540 2777.8 4527.1 2770.8 4510.2 2770.8 4491.9 2777.8 4474.9 2790.7 4462 2807.6 4455 2825.9 4455 2842.8 4462 2855.7 4474.9 2862.8 4491.9 2862.8 4510.2 2855.7 4527.1 M 2859.7 4517.5 2943.8 4517.5 M 2943.8 4505.7 2862.8 4505.7 M 2862.8 4493.8 2943.8 4493.8 M 2943.8 4481.9 2858.6 4481.9 M 2850.9 4470.1 2943.8 4470.1 M 2943.8 4458.2 2833.7 4458.2 M 2827.4 4446.4 2943.8 4446.4 M 2943.8 4434.5 2848.3 4434.5 M 2842.8 4440 2855.7 4427.1 2862.8 4410.2 2862.8 4391.9 2855.7 4374.9 2842.8 4362 2825.9 4355 2807.6 4355 2790.7 4362 2777.8 4374.9 2770.8 4391.9 2770.8 4410.2 2777.8 4427.1 2790.7 4440 2807.6 4447 2825.9 4447 2842.8 4440 M 2857.6 4422.7 2943.8 4422.7 M 2943.8 4410.8 2862.5 4410.8 M 2862.8 4399 2943.8 4399 M 2943.8 4387.1 2860.8 4387.1 M 2855.9 4375.3 2943.8 4375.3 M 2943.8 4363.4 2844.2 4363.4 M 2789.3 4363.4 2389.8 4363.4 M 2389.8 4375.3 2777.6 4375.3 M 2772.7 4387.1 2389.8 4387.1 M 2389.8 4399 2770.8 4399 M 2771 4410.8 2389.8 4410.8 M 2389.8 4422.7 2775.9 4422.7 M 2785.2 4434.5 2389.8 4434.5 M 2389.8 4446.4 2806.1 4446.4 M 2799.8 4458.2 2389.8 4458.2 M 2389.8 4470.1 2782.6 4470.1 M 2774.9 4481.9 2389.8 4481.9 M 2389.8 4493.8 2770.8 4493.8 M 2770.8 4505.7 2389.8 4505.7 M 2389.8 4517.5 2773.8 4517.5 M 2780.1 4529.4 2389.8 4529.4 M 2389.8 4541.2 2793.6 4541.2 M 2787.8 4564.9 2389.8 4564.9 M 2389.8 4553.1 2943.8 4553.1 M 2943.8 4659.8 2837.4 4659.8 M 2852.4 4671.6 2943.8 4671.6 M 2943.8 4683.5 2859.3 4683.5 M 2862.8 4695.3 2943.8 4695.3 M 2943.8 4707.2 2862.8 4707.2 M 2859.1 4719 2943.8 4719 M 2943.8 4730.9 2851.9 4730.9 M 2836.2 4742.7 2943.8 4742.7 M 2943.8 4754.6 2389.8 4754.6 M 2389.8 4861.3 2792.5 4861.3 M 2779.6 4873.1 2389.8 4873.1 M 2389.8 4885 2773.6 4885 M 2770.8 4896.8 2389.8 4896.8 M 2389.8 4908.7 2770.8 4908.7 M 2775.1 4920.6 2389.8 4920.6 M 2389.8 4932.4 2783.1 4932.4 M 2848.8 4968 2943.8 4968 M 2943.8 4979.8 2857.8 4979.8 M 2862.7 4991.7 2943.8 4991.7 M 2943.8 5003.5 2862.8 5003.5 M 2860.6 5015.4 2943.8 5015.4 M 2943.8 5027.2 2855.6 5027.2 M 2866.8 5051 2216.8 5051 2166.8 5001 2166.8 4226 2116.8 4176 M 2163.8 4173.7 2169.8 4173.7 M 2169.8 4161.9 2163.8 4161.9 M 2157.2 4150 2176.3 4150 M 2188.1 4138.2 2145.4 4138.2 M 2163.8 4185.6 2169.8 4185.6 M 2170.7 4197.4 2171.7 4197.4 M 2182.6 4209.3 2183.6 4209.3 M 2189.8 4221.1 2195.4 4221.1 M 2193.3 4233 2189.8 4233 M 2141.2 4233 2140.2 4233 M 2116.8 4276 2116.8 5051 2166.8 5101 2816.8 5101 M 2777.9 5027.2 2392.6 5027.2 M 2316.8 4988.5 2304.3 5001 M 2316.8 4988.5 2316.8 4276 M 2340.2 4233 2341.2 4233 M 2295.4 4221.1 2289.8 4221.1 M 2289.8 4233 2293.3 4233 M 2283.6 4209.3 2282.6 4209.3 M 2271.7 4197.4 2270.7 4197.4 M 2269.8 4185.6 2263.8 4185.6 M 2263.8 4173.7 2269.8 4173.7 M 2269.8 4161.9 2263.8 4161.9 M 2257.2 4150 2276.3 4150 M 2288.1 4138.2 2245.4 4138.2 M 2216.8 4176 2266.8 4226 2266.8 4951 M 2066.8 4801 2066.8 4226 2016.8 4176 M 2063.8 4173.7 2069.8 4173.7 M 2069.8 4161.9 2063.8 4161.9 M 2057.2 4150 2076.3 4150 M 2088.1 4138.2 2045.4 4138.2 M 2063.8 4185.6 2069.8 4185.6 M 2070.7 4197.4 2071.7 4197.4 M 2082.6 4209.3 2083.6 4209.3 M 2089.8 4221.1 2095.4 4221.1 M 2093.3 4233 2089.8 4233 M 2041.2 4233 2040.2 4233 M 1995.4 4221.1 1989.8 4221.1 M 1989.8 4233 1993.3 4233 M 1983.6 4209.3 1982.6 4209.3 M 1971.7 4197.4 1970.7 4197.4 M 1969.8 4185.6 1963.8 4185.6 M 1963.8 4173.7 1969.8 4173.7 M 1969.8 4161.9 1963.8 4161.9 M 1957.2 4150 1976.3 4150 M 1988.1 4138.2 1945.4 4138.2 M 1916.8 4176 1966.8 4226 1966.8 5076 2016.8 5126 2641.8 5126 2666.8 5151 2866.8 5151 2916.8 5201 M 2966.8 5251 2966.8 4301 M 3041.8 4304.1 3043.8 4304.1 M 3043.8 4292.3 3041.8 4292.3 M 3041.8 4280.4 3043.8 4280.4 M 3043.8 4268.6 3041.8 4268.6 M 3041.8 4256.7 3043.8 4256.7 M 3043.8 4244.9 3041.8 4244.9 M 3089.8 4268.6 3384.1 4268.6 M 3375.5 4280.4 3089.8 4280.4 M 3089.8 4292.3 3370.8 4292.3 M 3370.8 4304.1 3089.8 4304.1 M 3089.8 4316 3373.2 4316 M 3378.5 4327.8 3089.8 4327.8 M 3089.8 4339.7 3390.4 4339.7 M 3389.3 4363.4 3089.8 4363.4 M 3089.8 4375.3 3377.6 4375.3 M 3372.7 4387.1 3089.8 4387.1 M 3089.8 4399 3370.8 4399 M 3371 4410.8 3089.8 4410.8 M 3089.8 4422.7 3375.9 4422.7 M 3385.2 4434.5 3089.8 4434.5 M 3089.8 4446.4 3406.1 4446.4 M 3399.8 4458.2 3089.8 4458.2 M 3089.8 4470.1 3382.6 4470.1 M 3374.9 4481.9 3089.8 4481.9 M 3089.8 4493.8 3370.8 4493.8 M 3370.8 4505.7 3089.8 4505.7 M 3089.8 4517.5 3373.8 4517.5 M 3380.1 4529.4 3089.8 4529.4 M 3089.8 4541.2 3393.6 4541.2 M 3437.4 4659.8 3498.8 4659.8 M 3498.8 4671.6 3452.4 4671.6 M 3459.3 4683.5 3498.8 4683.5 M 3500.3 4695.3 3462.8 4695.3 M 3462.8 4707.2 3512.1 4707.2 M 3541.8 4676 3541.8 4576 M 3541.8 4676 3716.8 4676 3729.4 4663.4 3729.4 4627.2 M 3766.7 4624.2 3766.8 4624.2 M 3766.7 4636.1 3766.8 4636.1 M 3766.7 4647.9 3766.8 4647.9 M 3766.7 4659.8 3766.8 4659.8 M 3752.4 4671.6 3781.2 4671.6 M 3781.2 4683.5 3741.8 4683.5 M 3730 4695.3 3781.2 4695.3 M 3781.2 4707.2 3571.4 4707.2 M 3619.3 4837.6 3445.2 4837.6 M 3392.5 4861.3 3109.6 4861.3 M 3121.4 4873.1 3379.6 4873.1 M 3373.6 4885 3133.3 4885 M 3145.1 4896.8 3370.8 4896.8 M 3370.8 4908.7 3157 4908.7 M 3168.8 4920.6 3375.1 4920.6 M 3383.1 4932.4 3180.7 4932.4 M 3216.2 4968 3284.7 4968 M 3275.7 4979.8 3228.1 4979.8 M 3240 4991.7 3270.8 4991.7 M 3270.8 5003.5 3251.8 5003.5 M 3263.7 5015.4 3272.9 5015.4 M 3275.5 5027.2 3277.9 5027.2 M 3266.8 5051 3516.8 5051 3541.8 5076 M 3584.8 5074.7 3675.5 5074.7 M 3675.5 5086.5 3679.3 5086.5 M 3679.3 5098.4 3675.5 5098.4 M 3675.5 5110.2 3679.3 5110.2 M 3705.1 5110.2 3726.7 5110.2 M 3731.1 5122.1 3457.8 5122.1 M 3462.7 5110.2 3515.2 5110.2 M 3503.3 5098.4 3462.8 5098.4 M 3460.5 5086.5 3498.8 5086.5 M 3498.8 5074.7 3455.5 5074.7 M 3455.6 5027.2 3743.8 5027.2 M 3743.8 5015.4 3460.6 5015.4 M 3462.8 5003.5 3743.8 5003.5 M 3743.8 4991.7 3462.7 4991.7 M 3457.8 4979.8 3743.8 4979.8 M 3743.8 4968 3448.8 4968 M 3565.7 5039.1 3653.3 5039.1 M 3641.2 5051 3577.5 5051 M 3584.8 5062.8 3635.4 5062.8 M 3634.5 5086.5 3584.8 5086.5 M 3580.2 5098.4 3639.4 5098.4 M 3649.6 5110.2 3568.3 5110.2 M 3601.1 5181.4 3458.4 5181.4 M 3462.8 5193.2 3589.2 5193.2 M 3577.4 5205.1 3462.8 5205.1 M 3460 5216.9 3565.5 5216.9 M 3553.6 5228.8 3454 5228.8 M 3450.3 5169.5 3725.4 5169.5 M 3731.1 5157.6 3432.3 5157.6 M 3428.8 5145.8 3731.1 5145.8 M 3731.1 5133.9 3448.9 5133.9 M 3386.2 5335.5 3017.7 5335.5 M 3041.8 5240.6 3292.2 5240.6 M 3279.5 5228.8 3041.8 5228.8 M 3041.8 5216.9 3273.6 5216.9 M 3270.8 5205.1 3041.8 5205.1 M 3041.8 5193.2 3270.8 5193.2 M 3275.1 5181.4 3041.8 5181.4 M 3041.8 5169.5 3283.2 5169.5 M 3301.2 5157.6 3041.8 5157.6 M 3041.8 5145.8 3304.7 5145.8 M 3284.6 5133.9 3041.8 5133.9 M 3041.8 5122.1 3275.7 5122.1 M 3273 5086.5 3041.8 5086.5 M 3041.8 5074.7 3278 5074.7 M 3335.9 5359.2 3399.9 5359.2 M 3413.2 5359.2 3420.3 5359.2 M 3420.3 5371 3413.2 5371 M 3413.2 5382.9 3420.3 5382.9 M 3420.3 5394.7 3413.2 5394.7 M 3383.1 5371 3351.8 5371 M 3359 5382.9 3375.5 5382.9 M 3372.2 5394.7 3362.8 5394.7 M 3362.8 5406.6 3372.1 5406.6 M 3375.1 5418.4 3359.3 5418.4 M 3433.6 5359.2 3541.8 5359.2 M 3541.8 5371 3450.4 5371 M 3458 5382.9 3541.8 5382.9 M 3537.7 5394.7 3461.3 5394.7 M 3461.4 5406.6 3525.8 5406.6 M 3514 5418.4 3458.4 5418.4 M 3456.9 5477.7 3645.4 5477.7 M 3640 5465.9 3537.3 5465.9 M 3549.1 5454 3636.3 5454 M 3632.7 5442.1 3561 5442.1 M 3572.8 5430.3 3629 5430.3 M 3627.6 5418.4 3584.7 5418.4 M 3591.5 5406.6 3627.6 5406.6 M 3627.6 5394.7 3591.8 5394.7 M 3591.8 5382.9 3627.6 5382.9 M 3629.2 5371 3591.8 5371 M 3591.8 5359.2 3632.9 5359.2 M 3636.5 5347.3 3591.8 5347.3 M 3591.8 5335.5 3640.2 5335.5 M 3645.9 5323.6 3591.8 5323.6 M 3591.8 5311.7 3653.9 5311.7 M 3662 5299.9 3591.8 5299.9 M 3591.8 5288 3670.1 5288 M 3685 5276.2 3591.8 5276.2 M 3591.8 5264.3 3699.9 5264.3 M 3720.9 5252.5 3600.6 5252.5 M 3612.5 5240.6 3751.1 5240.6 M 3748.7 5216.9 3926.1 5216.9 M 3938.2 5228.8 3624.3 5228.8 M 3715.4 5098.4 3716.7 5098.4 M 3756.1 5076 3766.8 5065.4 3766.8 4826 3804.2 4788.6 3804.2 4627.2 M 3832 4624.2 3940.8 4624.2 M 3940.8 4636.1 3832 4636.1 M 3832 4647.9 3940.8 4647.9 M 3938.6 4659.8 3830.1 4659.8 M 3827.2 4671.6 3928.5 4671.6 M 3940.8 4612.3 3832 4612.3 M 3832 4600.5 3940.8 4600.5 M 3940.8 4517.5 3832 4517.5 M 3832 4505.7 3940.8 4505.7 M 3940.8 4493.8 3831.6 4493.8 M 3827.2 4481.9 3940.8 4481.9 M 3940.8 4470.1 3830.2 4470.1 M 3842 4458.2 3940.8 4458.2 M 3940.8 4446.4 3853.9 4446.4 M 3865.8 4434.5 3940.8 4434.5 M 3940.8 4422.7 3877.6 4422.7 M 3889.5 4410.8 3940.8 4410.8 M 3940.8 4399 3889.8 4399 M 3889.8 4387.1 3940.8 4387.1 M 3940.8 4375.3 3889.8 4375.3 M 3897.9 4363.4 3940.8 4363.4 M 3940.8 4351.5 3908.7 4351.5 M 3913.6 4339.7 3940.8 4339.7 M 3940.8 4327.8 3915.3 4327.8 M 3915.1 4316 3940.8 4316 M 3940.8 4304.1 3910.2 4304.1 M 3901.6 4292.3 3940.8 4292.3 M 3940.8 4280.4 3889.8 4280.4 M 3889.8 4268.6 3940.8 4268.6 M 3940.8 4256.7 3889.8 4256.7 M 3880.6 4244.9 3940.8 4244.9 M 3940.8 4233 3868.8 4233 M 3856.9 4221.1 3940.8 4221.1 M 3940.8 4209.3 3845.1 4209.3 M 3824.6 4161.9 3940.8 4161.9 M 3940.8 4173.7 3683.8 4173.7 M 3683.8 4174 3643.8 4174 3643.8 4134 3659.1 4134 3683.8 4158.6 3683.8 4174 M 3683.8 4185.6 3940.8 4185.6 M 3940.8 4197.4 3679.7 4197.4 M 3683.8 4161.9 3752.4 4161.9 M 3722.2 4150 3675.2 4150 M 3663.3 4138.2 3700.5 4138.2 M 3643.8 4138.2 3639.7 4138.2 M 3639.7 4150 3643.8 4150 M 3643.8 4161.9 3639.7 4161.9 M 3639.7 4173.7 3643.8 4173.7 M 3608.3 4150 3576.6 4150 M 3584.8 4161.9 3599.8 4161.9 M 3599.8 4173.7 3584.8 4173.7 M 3584.8 4185.6 3599.8 4185.6 M 3603.8 4197.4 3581.1 4197.4 M 3564.7 4138.2 3620.2 4138.2 M 3516.8 4226 3416.8 4126 3416.8 3976 M 3387.7 4007.8 3044.4 4007.8 M 3056.2 3995.9 3375.9 3995.9 M 3373.8 3984.1 3058.8 3984.1 M 3058.8 3974 3018.8 3974 3018.8 3934 3034.1 3934 3058.8 3958.6 3058.8 3974 M 3058.8 3972.2 3373.8 3972.2 M 3373.8 3960.4 3058.8 3960.4 M 3048.6 3948.5 3383.5 3948.5 M 3395.3 3936.6 3036.8 3936.6 M 3018.8 3936.6 3014.7 3936.6 M 3014.7 3948.5 3018.8 3948.5 M 3018.8 3960.4 3014.7 3960.4 M 3014.7 3972.2 3018.8 3972.2 M 3018.8 3984.1 3014.7 3984.1 M 3014.7 3995.9 3018.8 3995.9 M 3018.8 4007.8 3014.7 4007.8 M 2891 4161.9 2842.5 4161.9 M 2854.5 4173.7 2879 4173.7 M 2873.4 4185.6 2860.2 4185.6 M 2862.8 4197.4 2870.8 4197.4 M 2870.8 4209.3 2862.8 4209.3 M 2858.2 4221.1 2875.3 4221.1 M 2791 4161.9 2463.8 4161.9 M 2463.8 4173.7 2779 4173.7 M 2773.4 4185.6 2463.8 4185.6 M 2473.5 4197.4 2770.8 4197.4 M 2770.8 4209.3 2485.4 4209.3 M 2497.2 4221.1 2775.3 4221.1 M 2775.5 4280.4 2462.8 4280.4 M 2462.8 4268.6 2474 4268.6 M 2462.8 4292.3 2770.8 4292.3 M 2770.8 4304.1 2453.7 4304.1 M 2441.8 4316 2773.2 4316 M 2777 4576.8 2389.8 4576.8 M 2389.8 4588.6 2772.1 4588.6 M 2770.8 4600.5 2389.8 4600.5 M 2389.8 4612.3 2771.7 4612.3 M 2776.6 4624.2 2389.8 4624.2 M 2216.8 4351 2216.8 4276 M 2240.2 4233 2241.2 4233 M 2016.8 4276 2016.8 4601 M 1816.8 4701 1816.8 4276 M 1741.2 4233 1740.2 4233 M 1695.4 4221.1 1689.8 4221.1 M 1689.8 4233 1693.3 4233 M 1683.6 4209.3 1682.6 4209.3 M 1671.7 4197.4 1670.7 4197.4 M 1669.8 4185.6 1663.8 4185.6 M 1663.8 4173.7 1669.8 4173.7 M 1669.8 4161.9 1663.8 4161.9 M 1657.2 4150 1676.3 4150 M 1688.1 4138.2 1645.4 4138.2 M 1616.8 4176 1666.8 4226 1666.8 4551 M 1616.8 4451 1616.8 4276 M 1640.2 4233 1641.2 4233 M 1716.8 4276 1716.8 5051 M 1743.8 5157.6 1482.5 5157.6 M 1422.6 5299.9 476 5299.9 M 381.3 5489.6 1763.1 5489.6 M 1766.9 5501.4 372.5 5501.4 M 361.5 5513.3 1773.2 5513.3 M 1783.6 5525.1 350.5 5525.1 M 334.5 5537 1802.5 5537 M 1947.7 5122.1 1980.3 5122.1 M 1968.5 5110.2 1952.8 5110.2 M 1953.6 5098.4 1956.6 5098.4 M 1916.8 5101 1916.8 4276 M 1940.2 4233 1941.2 4233 M 1523.1 4078.9 2510.4 4078.9 M 2510.4 4067 1523.1 4067 M 1523.1 4055.2 2510.4 4055.2 M 2512.9 4043.3 1520.6 4043.3 M 1515.7 4031.5 2517.8 4031.5 M 2523.4 4019.6 1510.1 4019.6 M 1498.2 4007.8 2535.3 4007.8 M 2551.7 3995.9 1481.8 3995.9 M 1518.6 4090.8 2514.9 4090.8 M 2519.8 4102.6 1513.7 4102.6 M 1505.2 4114.5 2528.3 4114.5 M 2540.2 4126.3 1493.3 4126.3 M 1887.1 4932.4 1893.8 4932.4 M 2845.2 4837.6 2943.8 4837.6 M 2943.8 4825.7 2856.3 4825.7 M 2861.2 4813.9 2943.8 4813.9 M 2943.8 4802 2862.8 4802 M 2862 4790.2 2943.8 4790.2 M 2943.8 4778.3 2857.1 4778.3 M 2847.2 4766.4 2943.8 4766.4 M 3041.8 4612.3 3043.8 4612.3 M 3043.8 4600.5 3041.8 4600.5 M 3041.8 4588.6 3043.8 4588.6 M 3043.8 4576.8 3041.8 4576.8 M 3041.8 4564.9 3043.8 4564.9 M 3043.8 4553.1 3041.8 4553.1 M 3041.8 4541.2 3043.8 4541.2 M 3043.8 4529.4 3041.8 4529.4 M 3041.8 4517.5 3043.8 4517.5 M 3043.8 4505.7 3041.8 4505.7 M 3041.8 4493.8 3043.8 4493.8 M 3043.8 4481.9 3041.8 4481.9 M 3041.8 4470.1 3043.8 4470.1 M 3043.8 4458.2 3041.8 4458.2 M 3041.8 4446.4 3043.8 4446.4 M 3043.8 4434.5 3041.8 4434.5 M 3041.8 4422.7 3043.8 4422.7 M 3043.8 4410.8 3041.8 4410.8 M 3041.8 4399 3043.8 4399 M 3043.8 4387.1 3041.8 4387.1 M 3041.8 4375.3 3043.8 4375.3 M 3043.8 4363.4 3041.8 4363.4 M 3041.8 4351.5 3043.8 4351.5 M 3043.8 4339.7 3041.8 4339.7 M 3041.8 4327.8 3043.8 4327.8 M 3043.8 4316 3041.8 4316 M 3089.8 4351.5 3725.1 4351.5 M 3719.3 4339.7 3443.1 4339.7 M 3444.2 4363.4 3737 4363.4 M 3732.8 4434.5 3800.7 4434.5 M 3788.9 4446.4 3744.7 4446.4 M 3752.4 4458.2 3781.2 4458.2 M 3781.2 4470.1 3752.4 4470.1 M 3752.4 4481.9 3781.2 4481.9 M 3776.7 4493.8 3756.8 4493.8 M 3757.2 4505.7 3776.3 4505.7 M 3776.3 4517.5 3757.2 4517.5 M 3757.2 4529.4 3776.3 4529.4 M 3776.3 4541.2 3757.2 4541.2 M 3757.2 4553.1 3776.3 4553.1 M 3785.8 4564.9 3747.7 4564.9 M 3749.3 4588.6 3749.8 4588.6 M 3766.7 4588.6 3766.8 4588.6 M 3766.7 4600.5 3766.8 4600.5 M 3766.7 4612.3 3766.8 4612.3 M 3783.7 4588.6 3784.2 4588.6 M 3711 4564.9 3684.8 4564.9 M 3679.6 4553.1 3701.5 4553.1 M 3701.5 4541.2 3667.8 4541.2 M 3664.8 4529.4 3701.5 4529.4 M 3701.5 4517.5 3664.8 4517.5 M 3664.8 4505.7 3701.5 4505.7 M 3701.9 4493.8 3664.8 4493.8 M 3664.8 4481.9 3706.4 4481.9 M 3729.4 4463.6 3729.4 4524.8 M 3729.4 4463.6 3716.8 4451 3654.3 4451 3641.8 4463.5 3641.8 4576 M 3781.2 4719 3459.1 4719 M 3451.9 4730.9 3781.2 4730.9 M 3781.2 4742.7 3436.2 4742.7 M 3447.2 4766.4 3781.2 4766.4 M 3781.2 4754.6 3089.8 4754.6 M 2943.8 5039.1 2887.4 5039.1 M 2899.2 5051 2943.8 5051 M 2943.8 5062.8 2911.1 5062.8 M 2942.5 5074.7 2943.8 5074.7 M 2916.8 5101 2866.8 5051 M 3457.1 4778.3 3755.2 4778.3 M 3778.3 4778.3 3781.2 4778.3 M 3827.2 4778.3 3828.3 4778.3 M 3827.2 4766.4 3828.3 4766.4 M 3827.2 4754.6 3828.3 4754.6 M 3827.2 4742.7 3828.3 4742.7 M 3827.2 4730.9 3830.3 4730.9 M 3827.2 4719 3835.2 4719 M 3840.6 4707.2 3827.2 4707.2 M 3827.2 4695.3 3852.5 4695.3 M 3868.7 4683.5 3827.2 4683.5 M 3827.2 4790.2 3828.3 4790.2 M 3828.3 4802 3823.3 4802 M 3828.3 4813.9 3814.2 4813.9 M 3815.3 4825.7 3828.3 4825.7 M 3828.3 4837.6 3814.5 4837.6 M 3809.6 4849.4 3828.3 4849.4 M 3828.3 4861.3 3800.1 4861.3 M 3789.8 4873.1 3828.3 4873.1 M 3828.3 4885 3789.8 4885 M 3789.8 4896.8 3828.3 4896.8 M 3828.3 4908.7 3789.8 4908.7 M 3789.8 4920.6 3828.3 4920.6 M 3828.3 4932.4 3789.8 4932.4 M 3789.8 4944.3 3828.3 4944.3 M 3828.3 4956.1 3789.8 4956.1 M 3789.8 4968 3828.3 4968 M 3828.3 4979.8 3789.8 4979.8 M 3789.8 4991.7 3828.3 4991.7 M 3828.3 5003.5 3789.8 5003.5 M 3789.8 5015.4 3828.3 5015.4 M 3828.3 5027.2 3789.8 5027.2 M 3789.8 5039.1 3828.3 5039.1 M 3828.3 5051 3794.4 5051 M 3799.4 5062.8 3828.3 5062.8 M 3828.3 5074.7 3801.1 5074.7 M 3800.5 5086.5 3828.3 5086.5 M 3828.3 5098.4 3795.6 5098.4 M 3785.5 5110.2 3828.3 5110.2 M 3828.3 5122.1 3781.1 5122.1 M 3781.1 5133.9 3828.3 5133.9 M 3828.3 5145.8 3781.1 5145.8 M 3781.1 5157.6 3829.9 5157.6 M 3834.8 5169.5 3781.1 5169.5 M 3780.2 5181.4 3839.7 5181.4 M 3851.5 5193.2 3772.4 5193.2 M 3760.6 5205.1 3866.3 5205.1 M 3862.8 5252.5 3940.8 5252.5 M 3940.8 5264.3 3883.3 5264.3 M 3899.9 5276.2 3940.8 5276.2 M 3940.8 5288 3910.9 5288 M 3921.9 5299.9 3940.8 5299.9 M 3940.8 5311.7 3931 5311.7 M 3936.7 5323.6 3940.8 5323.6 M 3940.8 5240.6 3826.7 5240.6 M 3717.8 5051 3713.6 5051 M 3701.4 5039.1 3729.4 5039.1 M 3679.3 5039.1 3675.5 5039.1 M 3675.5 5051 3679.3 5051 M 3679.3 5062.8 3675.5 5062.8 M 3714.3 4813.9 3719.3 4813.9 M 3724.2 4802 3709.9 4802 M 3698.1 4790.2 3734 4790.2 M 3808.4 4351.5 3824.8 4351.5 M 3819.9 4339.7 3814.3 4339.7 M 3861.9 4150 3940.8 4150 M 3940.8 4138.2 3882.5 4138.2 M 3899.4 4126.3 3940.8 4126.3 M 3940.8 4114.5 3910.4 4114.5 M 3921.4 4102.6 3940.8 4102.6 M 3940.8 4090.8 3930.7 4090.8 M 3936.4 4078.9 3940.8 4078.9 M 3717.9 3853.7 314.8 3853.7 M 335.4 3865.5 3698.4 3865.5 M 3495.3 3936.6 3438.2 3936.6 M 3450.1 3948.5 3483.5 3948.5 M 3473.8 3960.4 3459.8 3960.4 M 3459.8 3972.2 3473.8 3972.2 M 3473.8 3984.1 3459.8 3984.1 M 3457.6 3995.9 3475.9 3995.9 M 3461.8 5489.6 3653.5 5489.6 M 3661.6 5501.4 3462.8 5501.4 M 3461.5 5513.3 3669.6 5513.3 M 3684.1 5525.1 3456.6 5525.1 M 3445.8 5537 3699 5537 M 3719.1 5548.8 314 5548.8 M 95.9 5323.6 92.8 5323.6 M 92.8 5311.7 103.9 5311.7 M 112 5299.9 92.8 5299.9 M 92.8 5288 120.1 5288 M 135 5276.2 92.8 5276.2 M 92.8 5264.3 149.9 5264.3 M 170.9 5252.5 92.8 5252.5 M 92.8 5240.6 201.1 5240.6 M 92.8 4873.1 345 4873.1 M 340.1 4861.3 92.8 4861.3 M 557.6 3995.9 577.3 3995.9 M 574.8 3984.1 559.8 3984.1 M 559.8 3972.2 574.8 3972.2 M 574.8 3960.4 559.8 3960.4 M 550.1 3948.5 584.9 3948.5 M 596.7 3936.6 538.2 3936.6" fill="none" stroke-width="12"/><path d="M 383.7 5242.5 383.7 5242.9 466.8 5326 2166.8 5326 2166.8 5226 M 2166.8 5326 2691.8 5326 2716.8 5351 2966.8 5351 3016.8 5301 3016.8 4251 3016.8 4201 M 3016.8 4251 2491.8 4251 2416.8 4176 M 3016.8 5301 3416.8 5301 M 3516.8 5451 3566.8 5401 3566.8 5251 3616.8 5201 3729.3 5201 3756.1 5174.1 3756.1 5076 M 3516.8 5451 2716.8 5451 2666.8 5401 2041.8 5401 2016.8 5426 2016.8 5476" fill="none" stroke-width="16"/></g></svg>