<?xml version="1.0" encoding="UTF-8" standalone="no"?>
<svg
   xmlns:dc="http://purl.org/dc/elements/1.1/"
   xmlns:cc="http://creativecommons.org/ns#"
   xmlns:rdf="http://www.w3.org/1999/02/22-rdf-syntax-ns#"
   xmlns:svg="http://www.w3.org/2000/svg"
   xmlns="http://www.w3.org/2000/svg"
   xmlns:sodipodi="http://sodipodi.sourceforge.net/DTD/sodipodi-0.dtd"
   xmlns:inkscape="http://www.inkscape.org/namespaces/inkscape"
   version="1.1"
   stroke-linecap="round"
   stroke-linejoin="round"
   stroke-width="0"
   fill-rule="evenodd"
   width="1.95in"
   height="3.775in"
   viewBox="975.2 188.5 1950 3775"
   id="operator-interface-keypad-r1.boardoutline"
   inkscape:version="0.91 r13725"
   sodipodi:docname="operator-interface-keypad-r1.boardoutline.svg">
  <metadata
     id="metadata11">
    <rdf:RDF>
      <cc:Work
         rdf:about="">
        <dc:format>image/svg+xml</dc:format>
        <dc:type
           rdf:resource="http://purl.org/dc/dcmitype/StillImage" />
      </cc:Work>
    </rdf:RDF>
  </metadata>
  <defs
     id="defs9" />
  <sodipodi:namedview
     pagecolor="#ffffff"
     bordercolor="#666666"
     borderopacity="1"
     objecttolerance="10"
     gridtolerance="10"
     guidetolerance="10"
     inkscape:pageopacity="0"
     inkscape:pageshadow="2"
     inkscape:window-width="1920"
     inkscape:window-height="996"
     id="namedview7"
     showgrid="false"
     inkscape:zoom="1.9647058"
     inkscape:cx="31.689565"
     inkscape:cy="189.87979"
     inkscape:window-x="-8"
     inkscape:window-y="-8"
     inkscape:window-maximized="1"
     inkscape:current-layer="operator-interface-keypad-r1.boardoutline" />
  <g
     transform="translate(0,4152) scale(1,-1)"
     fill="currentColor"
     stroke="currentColor"
     id="g3"
     style="stroke-width:1.11111107;stroke-miterlimit:4;stroke-dasharray:none">
    <path
       d="M 975.2 363.5 975.2 3788.5 M 1087.2 3788.5 1087.4 3793.5 1088 3798.5 1089 3803.4 1090.4 3808.2 1092.1 3812.9 1094.2 3817.4 1096.7 3821.8 1099.5 3825.9 1102.7 3829.8 1106.1 3833.5 1109.8 3836.9 1113.8 3839.9 1118 3842.6 1122.4 3845 1127 3847.1 1131.7 3848.7 1136.5 3850 1141.5 3850.9 1146.4 3851.4 1151.5 3851.5 1156.5 3851.2 1161.4 3850.5 1166.3 3849.4 1171.1 3847.9 1175.7 3846.1 1180.2 3843.9 1184.5 3841.3 1188.6 3838.4 1192.5 3835.2 1196.1 3831.7 1199.3 3827.9 1202.3 3823.9 1205 3819.6 1207.3 3815.2 1209.2 3810.6 1210.8 3805.8 1212 3800.9 1212.8 3796 1213.2 3791 1213.2 3786 1212.8 3781 1212 3776.1 1210.8 3771.2 1209.2 3766.4 1207.3 3761.8 1205 3757.4 1202.3 3753.1 1199.3 3749.1 1196.1 3745.3 1192.5 3741.8 1188.6 3738.6 1184.5 3735.7 1180.2 3733.1 1175.7 3730.9 1171.1 3729.1 1166.3 3727.6 1161.4 3726.5 1156.5 3725.8 1151.5 3725.5 1146.4 3725.6 1141.5 3726.1 1136.5 3727 1131.7 3728.3 1127 3729.9 1122.4 3732 1118 3734.4 1113.8 3737.1 1109.8 3740.1 1106.1 3743.5 1102.7 3747.2 1099.5 3751.1 1096.7 3755.2 1094.2 3759.6 1092.1 3764.1 1090.4 3768.8 1089 3773.6 1088 3778.5 1087.4 3783.5 1087.2 3788.5 M 975.2 3788.5 975.4 3796.8 976 3805.1 977 3813.4 978.4 3821.6 980.1 3829.8 982.3 3837.8 984.8 3845.7 987.7 3853.5 991 3861.2 994.7 3868.7 998.6 3876 1003 3883.1 1007.6 3890 1012.6 3896.7 1017.9 3903.1 1023.5 3909.3 1029.4 3915.2 1035.6 3920.8 1042 3926.1 1048.7 3931.1 1055.6 3935.7 1062.7 3940.1 1070 3944 1077.5 3947.7 1085.2 3951 1093 3953.9 1100.9 3956.4 1108.9 3958.6 1117.1 3960.3 1125.3 3961.7 1133.6 3962.7 1141.9 3963.3 1150.2 3963.5 2750.2 3963.5 M 2687.2 3788.5 2687.4 3793.5 2688 3798.5 2689 3803.4 2690.4 3808.2 2692.1 3812.9 2694.2 3817.4 2696.7 3821.8 2699.5 3825.9 2702.7 3829.8 2706.1 3833.5 2709.8 3836.9 2713.8 3839.9 2718 3842.6 2722.4 3845 2727 3847.1 2731.7 3848.7 2736.5 3850 2741.5 3850.9 2746.4 3851.4 2751.5 3851.5 2756.5 3851.2 2761.4 3850.5 2766.3 3849.4 2771.1 3847.9 2775.7 3846.1 2780.2 3843.9 2784.5 3841.3 2788.6 3838.4 2792.5 3835.2 2796.1 3831.7 2799.3 3827.9 2802.3 3823.9 2805 3819.6 2807.3 3815.2 2809.2 3810.6 2810.8 3805.8 2812 3800.9 2812.8 3796 2813.2 3791 2813.2 3786 2812.8 3781 2812 3776.1 2810.8 3771.2 2809.2 3766.4 2807.3 3761.8 2805 3757.4 2802.3 3753.1 2799.3 3749.1 2796.1 3745.3 2792.5 3741.8 2788.6 3738.6 2784.5 3735.7 2780.2 3733.1 2775.7 3730.9 2771.1 3729.1 2766.3 3727.6 2761.4 3726.5 2756.5 3725.8 2751.5 3725.5 2746.4 3725.6 2741.5 3726.1 2736.5 3727 2731.7 3728.3 2727 3729.9 2722.4 3732 2718 3734.4 2713.8 3737.1 2709.8 3740.1 2706.1 3743.5 2702.7 3747.2 2699.5 3751.1 2696.7 3755.2 2694.2 3759.6 2692.1 3764.1 2690.4 3768.8 2689 3773.6 2688 3778.5 2687.4 3783.5 2687.2 3788.5 M 2750.2 3963.5 2758.5 3963.3 2766.8 3962.7 2775.1 3961.7 2783.3 3960.3 2791.5 3958.6 2799.5 3956.4 2807.4 3953.9 2815.2 3951 2822.9 3947.7 2830.4 3944 2837.7 3940.1 2844.8 3935.7 2851.7 3931.1 2858.4 3926.1 2864.8 3920.8 2871 3915.2 2876.9 3909.3 2882.5 3903.1 2887.8 3896.7 2892.8 3890 2897.4 3883.1 2901.8 3876 2905.7 3868.7 2909.4 3861.2 2912.7 3853.5 2915.6 3845.7 2918.1 3837.8 2920.3 3829.8 2922 3821.6 2923.4 3813.4 2924.4 3805.1 2925 3796.8 2925.2 3788.5 2925.2 363.5 M 2687.2 363.5 2687.4 368.5 2688 373.5 2689 378.4 2690.4 383.2 2692.1 387.9 2694.2 392.4 2696.7 396.8 2699.5 400.9 2702.7 404.8 2706.1 408.5 2709.8 411.9 2713.8 414.9 2718 417.6 2722.4 420 2727 422.1 2731.7 423.7 2736.5 425 2741.5 425.9 2746.4 426.4 2751.5 426.5 2756.5 426.2 2761.4 425.5 2766.3 424.4 2771.1 422.9 2775.7 421.1 2780.2 418.9 2784.5 416.3 2788.6 413.4 2792.5 410.2 2796.1 406.7 2799.3 402.9 2802.3 398.9 2805 394.6 2807.3 390.2 2809.2 385.6 2810.8 380.8 2812 375.9 2812.8 371 2813.2 366 2813.2 361 2812.8 356 2812 351.1 2810.8 346.2 2809.2 341.4 2807.3 336.8 2805 332.4 2802.3 328.1 2799.3 324.1 2796.1 320.3 2792.5 316.8 2788.6 313.6 2784.5 310.7 2780.2 308.1 2775.7 305.9 2771.1 304.1 2766.3 302.6 2761.4 301.5 2756.5 300.8 2751.5 300.5 2746.4 300.6 2741.5 301.1 2736.5 302 2731.7 303.3 2727 304.9 2722.4 307 2718 309.4 2713.8 312.1 2709.8 315.1 2706.1 318.5 2702.7 322.2 2699.5 326.1 2696.7 330.2 2694.2 334.6 2692.1 339.1 2690.4 343.8 2689 348.6 2688 353.5 2687.4 358.5 2687.2 363.5 M 2750.2 188.5 2758.5 188.7 2766.8 189.3 2775.1 190.3 2783.3 191.7 2791.5 193.4 2799.5 195.6 2807.4 198.1 2815.2 201 2822.9 204.3 2830.4 208 2837.7 211.9 2844.8 216.3 2851.7 220.9 2858.4 225.9 2864.8 231.2 2871 236.8 2876.9 242.7 2882.5 248.9 2887.8 255.3 2892.8 262 2897.4 268.9 2901.8 276 2905.7 283.3 2909.4 290.8 2912.7 298.5 2915.6 306.3 2918.1 314.2 2920.3 322.2 2922 330.4 2923.4 338.6 2924.4 346.9 2925 355.2 2925.2 363.5 M 2750.2 188.5 1150.2 188.5 M 1087.2 363.5 1087.4 368.5 1088 373.5 1089 378.4 1090.4 383.2 1092.1 387.9 1094.2 392.4 1096.7 396.8 1099.5 400.9 1102.7 404.8 1106.1 408.5 1109.8 411.9 1113.8 414.9 1118 417.6 1122.4 420 1127 422.1 1131.7 423.7 1136.5 425 1141.5 425.9 1146.4 426.4 1151.5 426.5 1156.5 426.2 1161.4 425.5 1166.3 424.4 1171.1 422.9 1175.7 421.1 1180.2 418.9 1184.5 416.3 1188.6 413.4 1192.5 410.2 1196.1 406.7 1199.3 402.9 1202.3 398.9 1205 394.6 1207.3 390.2 1209.2 385.6 1210.8 380.8 1212 375.9 1212.8 371 1213.2 366 1213.2 361 1212.8 356 1212 351.1 1210.8 346.2 1209.2 341.4 1207.3 336.8 1205 332.4 1202.3 328.1 1199.3 324.1 1196.1 320.3 1192.5 316.8 1188.6 313.6 1184.5 310.7 1180.2 308.1 1175.7 305.9 1171.1 304.1 1166.3 302.6 1161.4 301.5 1156.5 300.8 1151.5 300.5 1146.4 300.6 1141.5 301.1 1136.5 302 1131.7 303.3 1127 304.9 1122.4 307 1118 309.4 1113.8 312.1 1109.8 315.1 1106.1 318.5 1102.7 322.2 1099.5 326.1 1096.7 330.2 1094.2 334.6 1092.1 339.1 1090.4 343.8 1089 348.6 1088 353.5 1087.4 358.5 1087.2 363.5 M 975.2 363.5 975.4 355.2 976 346.9 977 338.6 978.4 330.4 980.1 322.2 982.3 314.2 984.8 306.3 987.7 298.5 991 290.8 994.7 283.3 998.6 276 1003 268.9 1007.6 262 1012.6 255.3 1017.9 248.9 1023.5 242.7 1029.4 236.8 1035.6 231.2 1042 225.9 1048.7 220.9 1055.6 216.3 1062.7 211.9 1070 208 1077.5 204.3 1085.2 201 1093 198.1 1100.9 195.6 1108.9 193.4 1117.1 191.7 1125.3 190.3 1133.6 189.3 1141.9 188.7 1150.2 188.5 M 1139.6 663.3 1139.8 667 1140.4 670.7 1141.3 674.3 1142.7 677.7 1144.4 681 1146.4 684.2 1148.7 687.1 1151.3 689.7 1154.2 692 1157.3 694 1160.7 695.7 1164.1 697.1 1167.7 698 1171.4 698.6 1175.1 698.8 1178.8 698.6 1182.5 698 1186.1 697.1 1189.5 695.7 1192.8 694 1196 692 1198.9 689.7 1201.5 687.1 1203.8 684.2 1205.8 681.1 1207.5 677.7 1208.9 674.3 1209.8 670.7 1210.4 667 1210.6 663.3 1210.4 659.6 1209.8 655.9 1208.9 652.3 1207.5 648.9 1205.8 645.6 1203.8 642.4 1201.5 639.5 1198.9 636.9 1196 634.6 1192.9 632.6 1189.5 630.9 1186.1 629.5 1182.5 628.6 1178.8 628 1175.1 627.8 1171.4 628 1167.7 628.6 1164.1 629.5 1160.7 630.9 1157.4 632.6 1154.2 634.6 1151.3 636.9 1148.7 639.5 1146.4 642.4 1144.4 645.5 1142.7 648.9 1141.3 652.3 1140.4 655.9 1139.8 659.6 1139.6 663.3 M 1389.9 913.6 1390.1 917.3 1390.7 921 1391.6 924.6 1393 928 1394.7 931.3 1396.7 934.5 1399 937.4 1401.6 940 1404.5 942.3 1407.6 944.3 1411 946 1414.4 947.4 1418 948.3 1421.7 948.9 1425.4 949.1 1429.1 948.9 1432.8 948.3 1436.4 947.4 1439.8 946 1443.1 944.3 1446.3 942.3 1449.2 940 1451.8 937.4 1454.1 934.5 1456.1 931.4 1457.8 928 1459.2 924.6 1460.1 921 1460.7 917.3 1460.9 913.6 1460.7 909.9 1460.1 906.2 1459.2 902.6 1457.8 899.2 1456.1 895.9 1454.1 892.7 1451.8 889.8 1449.2 887.2 1446.3 884.9 1443.2 882.9 1439.8 881.2 1436.4 879.8 1432.8 878.9 1429.1 878.3 1425.4 878.1 1421.7 878.3 1418 878.9 1414.4 879.8 1411 881.2 1407.7 882.9 1404.5 884.9 1401.6 887.2 1399 889.8 1396.7 892.7 1394.7 895.8 1393 899.2 1391.6 902.6 1390.7 906.2 1390.1 909.9 1389.9 913.6 M 1789.6 913.6 1789.8 917.3 1790.4 921 1791.3 924.6 1792.7 928 1794.4 931.3 1796.4 934.5 1798.7 937.4 1801.3 940 1804.2 942.3 1807.3 944.3 1810.7 946 1814.1 947.4 1817.7 948.3 1821.4 948.9 1825.1 949.1 1828.8 948.9 1832.5 948.3 1836.1 947.4 1839.5 946 1842.8 944.3 1846 942.3 1848.9 940 1851.5 937.4 1853.8 934.5 1855.8 931.4 1857.5 928 1858.9 924.6 1859.8 921 1860.4 917.3 1860.6 913.6 1860.4 909.9 1859.8 906.2 1858.9 902.6 1857.5 899.2 1855.8 895.9 1853.8 892.7 1851.5 889.8 1848.9 887.2 1846 884.9 1842.9 882.9 1839.5 881.2 1836.1 879.8 1832.5 878.9 1828.8 878.3 1825.1 878.1 1821.4 878.3 1817.7 878.9 1814.1 879.8 1810.7 881.2 1807.4 882.9 1804.2 884.9 1801.3 887.2 1798.7 889.8 1796.4 892.7 1794.4 895.8 1792.7 899.2 1791.3 902.6 1790.4 906.2 1789.8 909.9 1789.6 913.6 M 2039.9 663.3 2040.1 667 2040.7 670.7 2041.6 674.3 2043 677.7 2044.7 681 2046.7 684.2 2049 687.1 2051.6 689.7 2054.5 692 2057.6 694 2061 695.7 2064.4 697.1 2068 698 2071.7 698.6 2075.4 698.8 2079.1 698.6 2082.8 698 2086.4 697.1 2089.8 695.7 2093.1 694 2096.3 692 2099.2 689.7 2101.8 687.1 2104.1 684.2 2106.1 681.1 2107.8 677.7 2109.2 674.3 2110.1 670.7 2110.7 667 2110.9 663.3 2110.7 659.6 2110.1 655.9 2109.2 652.3 2107.8 648.9 2106.1 645.6 2104.1 642.4 2101.8 639.5 2099.2 636.9 2096.3 634.6 2093.2 632.6 2089.8 630.9 2086.4 629.5 2082.8 628.6 2079.1 628 2075.4 627.8 2071.7 628 2068 628.6 2064.4 629.5 2061 630.9 2057.7 632.6 2054.5 634.6 2051.6 636.9 2049 639.5 2046.7 642.4 2044.7 645.5 2043 648.9 2041.6 652.3 2040.7 655.9 2040.1 659.6 2039.9 663.3 M 2439.6 913.6 2439.8 917.3 2440.4 921 2441.3 924.6 2442.7 928 2444.4 931.3 2446.4 934.5 2448.7 937.4 2451.3 940 2454.2 942.3 2457.3 944.3 2460.7 946 2464.1 947.4 2467.7 948.3 2471.4 948.9 2475.1 949.1 2478.8 948.9 2482.5 948.3 2486.1 947.4 2489.5 946 2492.8 944.3 2496 942.3 2498.9 940 2501.5 937.4 2503.8 934.5 2505.8 931.4 2507.5 928 2508.9 924.6 2509.8 921 2510.4 917.3 2510.6 913.6 2510.4 909.9 2509.8 906.2 2508.9 902.6 2507.5 899.2 2505.8 895.9 2503.8 892.7 2501.5 889.8 2498.9 887.2 2496 884.9 2492.9 882.9 2489.5 881.2 2486.1 879.8 2482.5 878.9 2478.8 878.3 2475.1 878.1 2471.4 878.3 2467.7 878.9 2464.1 879.8 2460.7 881.2 2457.4 882.9 2454.2 884.9 2451.3 887.2 2448.7 889.8 2446.4 892.7 2444.4 895.8 2442.7 899.2 2441.3 902.6 2440.4 906.2 2439.8 909.9 2439.6 913.6 M 2689.9 663.3 2690.1 667 2690.7 670.7 2691.6 674.3 2693 677.7 2694.7 681 2696.7 684.2 2699 687.1 2701.6 689.7 2704.5 692 2707.6 694 2711 695.7 2714.4 697.1 2718 698 2721.7 698.6 2725.4 698.8 2729.1 698.6 2732.8 698 2736.4 697.1 2739.8 695.7 2743.1 694 2746.3 692 2749.2 689.7 2751.8 687.1 2754.1 684.2 2756.1 681.1 2757.8 677.7 2759.2 674.3 2760.1 670.7 2760.7 667 2760.9 663.3 2760.7 659.6 2760.1 655.9 2759.2 652.3 2757.8 648.9 2756.1 645.6 2754.1 642.4 2751.8 639.5 2749.2 636.9 2746.3 634.6 2743.2 632.6 2739.8 630.9 2736.4 629.5 2732.8 628.6 2729.1 628 2725.4 627.8 2721.7 628 2718 628.6 2714.4 629.5 2711 630.9 2707.7 632.6 2704.5 634.6 2701.6 636.9 2699 639.5 2696.7 642.4 2694.7 645.5 2693 648.9 2691.6 652.3 2690.7 655.9 2690.1 659.6 2689.9 663.3 M 2689.9 2913.3 2690.1 2917 2690.7 2920.7 2691.6 2924.3 2693 2927.7 2694.7 2931 2696.7 2934.2 2699 2937.1 2701.6 2939.7 2704.5 2942 2707.6 2944 2711 2945.7 2714.4 2947.1 2718 2948 2721.7 2948.6 2725.4 2948.8 2729.1 2948.6 2732.8 2948 2736.4 2947.1 2739.8 2945.7 2743.1 2944 2746.3 2942 2749.2 2939.7 2751.8 2937.1 2754.1 2934.2 2756.1 2931.1 2757.8 2927.7 2759.2 2924.3 2760.1 2920.7 2760.7 2917 2760.9 2913.3 2760.7 2909.6 2760.1 2905.9 2759.2 2902.3 2757.8 2898.9 2756.1 2895.6 2754.1 2892.4 2751.8 2889.5 2749.2 2886.9 2746.3 2884.6 2743.2 2882.6 2739.8 2880.9 2736.4 2879.5 2732.8 2878.6 2729.1 2878 2725.4 2877.8 2721.7 2878 2718 2878.6 2714.4 2879.5 2711 2880.9 2707.7 2882.6 2704.5 2884.6 2701.6 2886.9 2699 2889.5 2696.7 2892.4 2694.7 2895.5 2693 2898.9 2691.6 2902.3 2690.7 2905.9 2690.1 2909.6 2689.9 2913.3 M 2439.6 3163.6 2439.8 3167.3 2440.4 3171 2441.3 3174.6 2442.7 3178 2444.4 3181.3 2446.4 3184.5 2448.7 3187.4 2451.3 3190 2454.2 3192.3 2457.3 3194.3 2460.7 3196 2464.1 3197.4 2467.7 3198.3 2471.4 3198.9 2475.1 3199.1 2478.8 3198.9 2482.5 3198.3 2486.1 3197.4 2489.5 3196 2492.8 3194.3 2496 3192.3 2498.9 3190 2501.5 3187.4 2503.8 3184.5 2505.8 3181.4 2507.5 3178 2508.9 3174.6 2509.8 3171 2510.4 3167.3 2510.6 3163.6 2510.4 3159.9 2509.8 3156.2 2508.9 3152.6 2507.5 3149.2 2505.8 3145.9 2503.8 3142.7 2501.5 3139.8 2498.9 3137.2 2496 3134.9 2492.9 3132.9 2489.5 3131.2 2486.1 3129.8 2482.5 3128.9 2478.8 3128.3 2475.1 3128.1 2471.4 3128.3 2467.7 3128.9 2464.1 3129.8 2460.7 3131.2 2457.4 3132.9 2454.2 3134.9 2451.3 3137.2 2448.7 3139.8 2446.4 3142.7 2444.4 3145.8 2442.7 3149.2 2441.3 3152.6 2440.4 3156.2 2439.8 3159.9 2439.6 3163.6 M 2039.9 2913.3 2040.1 2917 2040.7 2920.7 2041.6 2924.3 2043 2927.7 2044.7 2931 2046.7 2934.2 2049 2937.1 2051.6 2939.7 2054.5 2942 2057.6 2944 2061 2945.7 2064.4 2947.1 2068 2948 2071.7 2948.6 2075.4 2948.8 2079.1 2948.6 2082.8 2948 2086.4 2947.1 2089.8 2945.7 2093.1 2944 2096.3 2942 2099.2 2939.7 2101.8 2937.1 2104.1 2934.2 2106.1 2931.1 2107.8 2927.7 2109.2 2924.3 2110.1 2920.7 2110.7 2917 2110.9 2913.3 2110.7 2909.6 2110.1 2905.9 2109.2 2902.3 2107.8 2898.9 2106.1 2895.6 2104.1 2892.4 2101.8 2889.5 2099.2 2886.9 2096.3 2884.6 2093.2 2882.6 2089.8 2880.9 2086.4 2879.5 2082.8 2878.6 2079.1 2878 2075.4 2877.8 2071.7 2878 2068 2878.6 2064.4 2879.5 2061 2880.9 2057.7 2882.6 2054.5 2884.6 2051.6 2886.9 2049 2889.5 2046.7 2892.4 2044.7 2895.5 2043 2898.9 2041.6 2902.3 2040.7 2905.9 2040.1 2909.6 2039.9 2913.3 M 1789.6 3163.6 1789.8 3167.3 1790.4 3171 1791.3 3174.6 1792.7 3178 1794.4 3181.3 1796.4 3184.5 1798.7 3187.4 1801.3 3190 1804.2 3192.3 1807.3 3194.3 1810.7 3196 1814.1 3197.4 1817.7 3198.3 1821.4 3198.9 1825.1 3199.1 1828.8 3198.9 1832.5 3198.3 1836.1 3197.4 1839.5 3196 1842.8 3194.3 1846 3192.3 1848.9 3190 1851.5 3187.4 1853.8 3184.5 1855.8 3181.4 1857.5 3178 1858.9 3174.6 1859.8 3171 1860.4 3167.3 1860.6 3163.6 1860.4 3159.9 1859.8 3156.2 1858.9 3152.6 1857.5 3149.2 1855.8 3145.9 1853.8 3142.7 1851.5 3139.8 1848.9 3137.2 1846 3134.9 1842.9 3132.9 1839.5 3131.2 1836.1 3129.8 1832.5 3128.9 1828.8 3128.3 1825.1 3128.1 1821.4 3128.3 1817.7 3128.9 1814.1 3129.8 1810.7 3131.2 1807.4 3132.9 1804.2 3134.9 1801.3 3137.2 1798.7 3139.8 1796.4 3142.7 1794.4 3145.8 1792.7 3149.2 1791.3 3152.6 1790.4 3156.2 1789.8 3159.9 1789.6 3163.6 M 1389.9 2913.3 1390.1 2917 1390.7 2920.7 1391.6 2924.3 1393 2927.7 1394.7 2931 1396.7 2934.2 1399 2937.1 1401.6 2939.7 1404.5 2942 1407.6 2944 1411 2945.7 1414.4 2947.1 1418 2948 1421.7 2948.6 1425.4 2948.8 1429.1 2948.6 1432.8 2948 1436.4 2947.1 1439.8 2945.7 1443.1 2944 1446.3 2942 1449.2 2939.7 1451.8 2937.1 1454.1 2934.2 1456.1 2931.1 1457.8 2927.7 1459.2 2924.3 1460.1 2920.7 1460.7 2917 1460.9 2913.3 1460.7 2909.6 1460.1 2905.9 1459.2 2902.3 1457.8 2898.9 1456.1 2895.6 1454.1 2892.4 1451.8 2889.5 1449.2 2886.9 1446.3 2884.6 1443.2 2882.6 1439.8 2880.9 1436.4 2879.5 1432.8 2878.6 1429.1 2878 1425.4 2877.8 1421.7 2878 1418 2878.6 1414.4 2879.5 1411 2880.9 1407.7 2882.6 1404.5 2884.6 1401.6 2886.9 1399 2889.5 1396.7 2892.4 1394.7 2895.5 1393 2898.9 1391.6 2902.3 1390.7 2905.9 1390.1 2909.6 1389.9 2913.3 M 1139.6 3163.6 1139.8 3167.3 1140.4 3171 1141.3 3174.6 1142.7 3178 1144.4 3181.3 1146.4 3184.5 1148.7 3187.4 1151.3 3190 1154.2 3192.3 1157.3 3194.3 1160.7 3196 1164.1 3197.4 1167.7 3198.3 1171.4 3198.9 1175.1 3199.1 1178.8 3198.9 1182.5 3198.3 1186.1 3197.4 1189.5 3196 1192.8 3194.3 1196 3192.3 1198.9 3190 1201.5 3187.4 1203.8 3184.5 1205.8 3181.4 1207.5 3178 1208.9 3174.6 1209.8 3171 1210.4 3167.3 1210.6 3163.6 1210.4 3159.9 1209.8 3156.2 1208.9 3152.6 1207.5 3149.2 1205.8 3145.9 1203.8 3142.7 1201.5 3139.8 1198.9 3137.2 1196 3134.9 1192.9 3132.9 1189.5 3131.2 1186.1 3129.8 1182.5 3128.9 1178.8 3128.3 1175.1 3128.1 1171.4 3128.3 1167.7 3128.9 1164.1 3129.8 1160.7 3131.2 1157.4 3132.9 1154.2 3134.9 1151.3 3137.2 1148.7 3139.8 1146.4 3142.7 1144.4 3145.8 1142.7 3149.2 1141.3 3152.6 1140.4 3156.2 1139.8 3159.9 1139.6 3163.6"
       fill="none"
       stroke-width="0"
       id="path5"
       style="stroke-width:1.11111107;stroke-miterlimit:4;stroke-dasharray:none" />
  </g>
</svg>
